<svg width="145" height="178" viewBox="0 0 145 178" fill="none" xmlns="http://www.w3.org/2000/svg">
<g style="mix-blend-mode:multiply">
<path d="M138.606 6.37077L55.1996 27.4801C52.0215 28.2835 49.2699 30.2672 47.5067 33.033L1.19264 105.54C0.289678 106.948 1.57657 108.732 3.19764 108.32L27.0799 102.277C26.6746 104.225 26.5751 106.159 26.7955 108.043C26.9519 109.415 27.151 110.773 27.3429 112.088C28.125 117.492 28.8645 122.59 26.9732 127.815C26.0347 130.41 24.563 132.75 22.9988 135.224C22.3802 136.205 21.7474 137.215 21.1502 138.239C16.9411 145.448 16.7492 151.776 20.5387 157.066C19.2021 160.343 23.5676 165.135 25.2597 167.546C27.8051 171.172 30.7059 175.047 34.723 177.13C36.8134 178.218 36.5147 176.177 37.3608 174.855C38.0363 173.809 39.4867 174.3 40.1124 173.554C40.5674 173.013 40.3754 171.335 39.6929 171.037C41.058 171.641 42.6435 171.989 42.0178 169.892C41.7477 168.982 40.9798 168.065 40.347 167.375C38.9961 165.889 37.3893 164.673 35.9886 163.237C33.5783 160.763 31.033 158.374 28.0895 156.547C27.5562 156.212 27.0088 155.907 26.44 155.622C25.6934 155.245 24.8971 154.918 24.0653 154.826C23.4965 154.769 22.9775 154.84 22.5011 155.025C19.6713 150.738 20.0126 145.69 23.5462 139.639C24.1221 138.658 24.7407 137.663 25.3451 136.703C26.9164 134.207 28.5374 131.633 29.5826 128.754C31.7155 122.867 30.8908 117.179 30.0874 111.676C29.9025 110.382 29.7034 109.038 29.547 107.708C29.2911 105.519 29.5541 103.428 30.1158 101.487L42.3804 98.3803C42.6079 98.8353 42.8497 99.2761 43.1483 99.6885C43.2692 99.8591 47.2436 105.369 50.9834 110.545C53.7847 114.427 56.4439 118.11 57.2544 119.241C57.4037 119.447 57.4961 119.575 57.5103 119.596C64.1297 128.761 86.6539 123.812 107.82 108.533C128.994 93.254 140.789 73.4387 134.177 64.2669C134.17 64.2527 134.134 64.21 134.091 64.146C134.042 64.0749 133.956 63.9611 133.857 63.8261C133.786 63.7265 133.7 63.6128 133.608 63.4848C133.181 62.8947 132.541 62.0059 131.759 60.9181C131.567 60.6479 131.361 60.3706 131.155 60.0791C131.148 60.0649 131.141 60.0578 131.126 60.0436C130.693 59.4392 130.224 58.7993 129.74 58.1239C125.574 52.3506 119.95 44.5653 119.808 44.3591C119.509 43.9467 119.168 43.5699 118.805 43.2144L140.576 9.12941C141.479 7.72165 140.192 5.93707 138.571 6.34944L138.606 6.37077Z" fill="white"/>
</g>
<path d="M26.1652 151.63C25.5608 152.063 24.7147 151.95 24.2526 151.359C20.0009 145.949 20.0649 139.415 24.4303 131.935C25.0276 130.911 25.6675 129.902 26.2789 128.921C27.836 126.446 29.3149 124.107 30.2534 121.512C32.1446 116.286 31.4052 111.181 30.6231 105.785C30.4311 104.469 30.232 103.104 30.0756 101.739C29.386 95.7741 31.8673 89.3325 37.0647 83.5948C42.7811 77.2883 49.3009 71.7141 55.6003 66.3248C61.5797 61.2127 67.7582 55.93 73.1547 50.0928C73.6737 49.524 74.5624 49.4956 75.1241 50.0146C75.6929 50.5407 75.7213 51.4224 75.2023 51.984C69.6992 57.9422 63.4496 63.2817 57.4133 68.4435C51.1779 73.776 44.7292 79.2861 39.1266 85.4647C36.4319 88.4366 32.038 94.4587 32.8414 101.412C32.9978 102.742 33.1898 104.086 33.3817 105.38C34.1781 110.883 35.0028 116.571 32.8769 122.458C31.8318 125.337 30.2107 127.911 28.6394 130.407C28.0351 131.366 27.4094 132.355 26.8406 133.343C23.0581 139.827 22.9301 145.16 26.4496 149.639C26.9259 150.243 26.8193 151.125 26.2149 151.594C26.2007 151.608 26.1865 151.615 26.1652 151.63Z" fill="#F26722"/>
<path d="M31.3844 150.25C34.3279 152.077 36.8733 154.466 39.2836 156.941C40.6842 158.377 42.2911 159.593 43.6419 161.079C44.2676 161.768 45.0355 162.685 45.3128 163.596C45.9384 165.693 44.3529 165.337 42.9878 164.74C43.6704 165.046 43.8623 166.717 43.4073 167.257C42.7816 167.997 41.3241 167.513 40.6558 168.558C39.8026 169.881 40.1083 171.921 38.018 170.833C34.0009 168.743 31.1 164.868 28.5547 161.249C26.8341 158.803 22.3335 153.883 23.8906 150.599C24.5518 149.205 25.796 148.373 27.3673 148.537C28.1992 148.622 28.9955 148.949 29.742 149.333C30.3037 149.617 30.8583 149.93 31.3915 150.257L31.3844 150.25Z" fill="#F26722"/>
<path d="M4.88694 99.4995L4.88745 99.4988L51.2014 26.9919C52.8964 24.34 55.5413 22.4266 58.5956 21.6545L58.5957 21.6545L142.002 0.545096L142.003 0.544945C143.184 0.244417 144.122 1.54455 143.464 2.5704L143.463 2.5712L97.1492 75.0781C95.4543 77.7299 92.8093 79.6434 89.7551 80.4155L89.7549 80.4155L6.3484 101.525L6.34781 101.525C5.16642 101.826 4.22894 100.525 4.88694 99.4995Z" fill="#3F3E3E" stroke="#F7F6F6"/>
<path d="M123.123 38.07C116.504 28.9053 93.9794 33.8538 72.8131 49.133C51.6398 64.4122 39.8444 84.2276 46.4566 93.3994C46.6842 93.7193 60.5912 112.987 60.8187 113.307C67.438 122.472 89.9623 117.523 111.129 102.244C132.302 86.9649 144.097 67.1496 137.485 57.9778C137.257 57.6578 123.35 38.3899 123.123 38.07Z" fill="#333333"/>
<path d="M73.1057 49.5385L73.1058 49.5384C83.647 41.9291 94.5076 36.9069 103.53 34.9234C108.043 33.9314 112.071 33.7047 115.36 34.2762C118.646 34.8471 121.16 36.2066 122.717 38.3617C122.857 38.5576 126.372 43.4293 129.888 48.3014L129.899 48.3164C133.433 53.2152 136.965 58.1094 137.078 58.2675L137.079 58.2702C138.635 60.4275 139.133 63.2425 138.639 66.5411C138.145 69.8428 136.66 73.5948 134.297 77.5649C129.57 85.5036 121.381 94.2293 110.836 101.839L110.836 101.839C100.295 109.448 89.4341 114.47 80.4112 116.454C75.8988 117.446 71.8703 117.672 68.5812 117.101C65.2961 116.53 62.7822 115.171 61.2252 113.016C61.093 112.831 57.5996 107.989 54.0935 103.13L54.0431 103.061C50.5082 98.162 46.9765 93.2677 46.8641 93.1096L46.8622 93.107C45.3069 90.9496 44.8086 88.1347 45.3023 84.8361C45.7965 81.5343 47.2813 77.7824 49.6449 73.8123C54.3713 65.8736 62.561 57.1478 73.1057 49.5385Z" stroke="#F7F6F6" stroke-opacity="0.5"/>
<path d="M104.603 93.1932C83.4294 108.472 60.9052 113.428 54.293 104.256C57.5991 108.835 60.7132 113.158 60.8199 113.307C67.4392 122.472 89.9635 117.523 111.13 102.244C132.303 86.9648 144.098 67.1495 137.486 57.9777C137.38 57.8284 134.258 53.5055 130.959 48.9268C137.579 58.0915 125.776 77.9139 104.603 93.1932Z" fill="#333333"/>
<path d="M61 108.399C71.3362 110.939 89.4651 105.335 106.729 93.4135C123.993 81.4918 135.261 66.7895 136 56.6013C125.664 54.0613 107.535 59.6648 90.271 71.5865C73.0071 83.5082 61.7394 98.2104 61 108.399Z" fill="#3F3E3E"/>
<path d="M106.445 93.002C97.8481 98.9386 89.0435 103.297 81.1132 105.853C73.3857 108.345 66.5401 109.11 61.5355 108.01C62.0262 103.138 64.9329 97.1771 69.8317 90.9519C74.8638 84.5574 81.9582 77.9346 90.5551 71.998C99.1519 66.0614 107.957 61.7035 115.887 59.1467C123.614 56.6552 130.46 55.8903 135.464 56.99C134.974 61.8623 132.067 67.8229 127.168 74.0481C122.136 80.4426 115.042 87.0654 106.445 93.002Z" stroke="#F7F6F6" stroke-opacity="0.5"/>
</svg>
