<svg width="48" height="48" viewBox="0 0 48 48" fill="none" xmlns="http://www.w3.org/2000/svg">
<path fill-rule="evenodd" clip-rule="evenodd" d="M0 24C0 10.7452 10.7452 0 24 0C37.2548 0 48 10.7452 48 24C48 37.2548 37.2548 48 24 48C10.7452 48 0 37.2548 0 24Z" fill="#D9D9D9" fill-opacity="0.5"/>
<path d="M33.9378 19.9044C33.9266 19.0647 33.7691 18.2333 33.4724 17.4474C33.2152 16.7845 32.8222 16.1825 32.3187 15.6798C31.8152 15.1772 31.2122 14.7849 30.5482 14.528C29.7711 14.2368 28.9502 14.0793 28.1204 14.0623C27.052 14.0146 26.7132 14.0013 24.0011 14.0013C21.289 14.0013 20.9413 14.0013 19.8807 14.0623C19.0512 14.0795 18.2307 14.2369 17.454 14.528C16.7899 14.7847 16.1868 15.1769 15.6833 15.6796C15.1797 16.1823 14.7868 16.7844 14.5297 17.4474C14.2375 18.2226 14.0801 19.0419 14.0644 19.8701C14.0166 20.9378 14.0022 21.276 14.0022 23.9836C14.0022 26.6912 14.0022 27.0372 14.0644 28.0971C14.0811 28.9265 14.2376 29.7448 14.5297 30.522C14.7873 31.1848 15.1804 31.7867 15.6842 32.2892C16.1879 32.7916 16.791 33.1837 17.4551 33.4403C18.2297 33.7432 19.0504 33.912 19.8818 33.9393C20.9513 33.9869 21.2901 34.0013 24.0022 34.0013C26.7143 34.0013 27.0619 34.0013 28.1226 33.9393C28.9524 33.9229 29.7734 33.7658 30.5504 33.4747C31.2142 33.2175 31.8171 32.8251 32.3205 32.3225C32.824 31.8198 33.2171 31.218 33.4747 30.5553C33.7667 29.7791 33.9233 28.9609 33.94 28.1304C33.9878 27.0638 34.0022 26.7256 34.0022 24.0169C34 21.3092 34 20.9655 33.9378 19.9044V19.9044ZM23.9944 29.1039C21.1579 29.1039 18.86 26.8099 18.86 23.9781C18.86 21.1463 21.1579 18.8522 23.9944 18.8522C25.3561 18.8522 26.6621 19.3923 27.625 20.3535C28.5879 21.3148 29.1288 22.6186 29.1288 23.9781C29.1288 25.3375 28.5879 26.6413 27.625 27.6026C26.6621 28.5639 25.3561 29.1039 23.9944 29.1039V29.1039ZM29.3332 19.8579C29.1759 19.858 29.0201 19.8272 28.8748 19.7672C28.7295 19.7072 28.5975 19.6191 28.4863 19.5081C28.3751 19.3971 28.2869 19.2653 28.2268 19.1202C28.1666 18.9751 28.1358 18.8196 28.1359 18.6626C28.1359 18.5057 28.1669 18.3504 28.227 18.2054C28.2871 18.0605 28.3753 17.9288 28.4864 17.8178C28.5975 17.7069 28.7295 17.6189 28.8747 17.5589C29.0198 17.4988 29.1755 17.4679 29.3326 17.4679C29.4898 17.4679 29.6454 17.4988 29.7906 17.5589C29.9357 17.6189 30.0677 17.7069 30.1788 17.8178C30.2899 17.9288 30.3781 18.0605 30.4382 18.2054C30.4983 18.3504 30.5293 18.5057 30.5293 18.6626C30.5293 19.3234 29.994 19.8579 29.3332 19.8579Z" fill="#161616"/>
<path d="M23.9936 27.3076C25.8356 27.3076 27.3288 25.8169 27.3288 23.978C27.3288 22.139 25.8356 20.6483 23.9936 20.6483C22.1517 20.6483 20.6584 22.139 20.6584 23.978C20.6584 25.8169 22.1517 27.3076 23.9936 27.3076Z" fill="#161616"/>
</svg>
