<svg width="159" height="141" viewBox="0 0 159 141" fill="none" xmlns="http://www.w3.org/2000/svg">
<path fill-rule="evenodd" clip-rule="evenodd" d="M88.555 47.2857C67.1067 27.1249 44.599 14.2798 32.6009 16.6134C20.6028 18.947 22.595 35.7821 35.7601 57.5536C11.6504 66.0051 -0.680909 77.7223 7.07198 87.1145C14.8248 96.5067 40.4124 100.849 69.8738 98.8808C91.3223 119.042 113.83 131.887 125.828 129.554C137.827 127.22 135.834 110.384 122.668 88.6119C146.776 80.1606 159.105 68.444 151.353 59.0523C143.6 49.6606 118.015 45.3184 88.555 47.2857Z" fill="#9DDAF0"/>
<path d="M57.3912 53.8948L61.3732 48.6769L64.7785 49.7837L60.7578 62.1542L58.5165 61.4257L59.7419 57.6555C60.4949 55.339 61.1825 53.3021 61.8048 51.545C61.2677 52.3309 60.6462 53.179 59.9405 54.0894L55.1459 60.3302L53.2173 59.7034L52.9908 51.8306C52.9685 50.4018 52.9665 49.3638 52.9848 48.7166C52.4589 50.4923 51.8213 52.5326 51.0721 54.8376L49.8467 58.6078L47.588 57.8737L51.6088 45.5032L55.0142 46.61L55.1973 53.3161C55.2045 53.7667 55.1945 54.9993 55.1672 57.0139C55.9558 55.8486 56.6971 54.8089 57.3912 53.8948ZM70.6118 65.3571L68.4227 64.6455C68.3787 64.4263 68.4162 64.0351 68.5352 63.4719C67.6505 64.1448 66.548 64.2667 65.2275 63.8375C64.243 63.5175 63.5325 63.0241 63.0962 62.3572C62.6714 61.6941 62.5964 60.9397 62.8712 60.0942C63.402 58.461 64.8518 57.9013 67.2205 58.415L68.6152 58.7339C69.0858 58.8228 69.444 58.824 69.6898 58.7374C69.9395 58.6392 70.1151 58.4338 70.2167 58.1211C70.341 57.7388 70.3039 57.4194 70.1056 57.1629C69.9226 56.8985 69.5357 56.6703 68.945 56.4783C68.3079 56.2712 67.8146 56.2325 67.4651 56.3623C67.1194 56.4804 66.8386 56.7925 66.6229 57.2987L64.4684 56.5985C65.2585 54.6013 66.9334 54.0187 69.4932 54.8507C71.9835 55.6602 72.9369 56.9625 72.3533 58.7579L70.8004 63.5358C70.5444 64.3234 70.4815 64.9305 70.6118 65.3571ZM66.257 62.4433C66.9404 62.6654 67.5566 62.6608 68.1056 62.4294C68.6584 62.1865 69.0497 61.7117 69.2793 61.0052L69.5447 60.1886C69.276 60.3062 68.8948 60.3167 68.4011 60.2203L67.1744 59.9753C66.5727 59.8565 66.1105 59.86 65.7879 59.9857C65.4807 60.1035 65.265 60.3535 65.1407 60.7358C65.0165 61.118 65.046 61.4606 65.2293 61.7635C65.428 62.0586 65.7705 62.2852 66.257 62.4433ZM80.4827 68.5654L77.9808 67.7522L76.73 62.7353L74.9343 63.65L74.0195 66.4647L71.8651 65.7644L75.8858 53.3939L78.0402 54.0942L75.7249 61.2176L80.582 58.6854L83.1881 59.5325L78.699 61.8193L80.4827 68.5654ZM86.7119 59.3908L84.5575 58.6905L85.2239 56.6404L87.3783 57.3406L86.7119 59.3908ZM83.437 69.5256L81.2479 68.8141L84.1618 59.849L86.3509 60.5605L83.437 69.5256ZM93.0998 62.5236C94.0728 62.8398 94.745 63.3721 95.1165 64.1203C95.5033 64.8608 95.5292 65.7464 95.1942 66.7773L93.2629 72.7193L91.0737 72.0078L92.8864 66.4306C93.2554 65.2955 92.8781 64.5454 91.7545 64.1802C91.1986 63.9995 90.6578 64.0478 90.1322 64.3252C89.622 64.5948 89.252 65.0829 89.0224 65.7894L87.3903 70.8106L85.2012 70.099L88.1151 61.1339L90.2348 61.8229L89.8169 63.1086C90.824 62.3346 91.9184 62.1396 93.0998 62.5236ZM104.018 67.6668L104.419 66.4332L106.539 67.1222L103.721 75.792C103.326 77.0082 102.627 77.8376 101.625 78.2803C100.635 78.7268 99.433 78.7204 98.0199 78.2611C96.769 77.8545 95.8748 77.2566 95.3374 76.4672C94.8115 75.6815 94.672 74.7909 94.9187 73.7954L97.0731 74.4956C96.8649 75.4909 97.3747 76.1881 98.6025 76.5871C99.3206 76.8205 99.9252 76.8122 100.416 76.562C100.919 76.3156 101.285 75.8391 101.515 75.1325L101.882 74.0032C100.943 74.6843 99.8834 74.8328 98.702 74.4488C97.4858 74.0535 96.6444 73.3126 96.178 72.2261C95.704 71.1628 95.691 69.9419 96.139 68.5636C96.5907 67.1736 97.3209 66.1879 98.3295 65.6065C99.3303 65.0097 100.439 64.909 101.655 65.3043C102.918 65.7146 103.705 66.5021 104.018 67.6668ZM99.7758 72.8C100.505 73.0372 101.152 72.9784 101.716 72.6237C102.279 72.269 102.702 71.6572 102.984 70.7885C103.267 69.9198 103.284 69.1763 103.037 68.5581C102.79 67.9398 102.301 67.5121 101.572 67.275C100.865 67.0453 100.222 67.1117 99.6434 67.4743C99.0799 67.829 98.657 68.4407 98.3746 69.3094C98.096 70.1665 98.0804 70.9042 98.3276 71.5225C98.5865 72.1445 99.0692 72.5703 99.7758 72.8ZM117.203 80.5007L115.014 79.7891C114.97 79.5699 115.008 79.1787 115.127 78.6155C114.242 79.2885 113.14 79.4103 111.819 78.9812C110.835 78.6611 110.124 78.1677 109.688 77.5008C109.263 76.8377 109.188 76.0833 109.463 75.2378C109.994 73.6046 111.443 73.0449 113.812 73.5586L115.207 73.8775C115.677 73.9664 116.036 73.9676 116.281 73.881C116.531 73.7828 116.707 73.5774 116.808 73.2647C116.933 72.8824 116.895 72.563 116.697 72.3065C116.514 72.0421 116.127 71.8139 115.537 71.6219C114.899 71.4148 114.406 71.3761 114.057 71.5059C113.711 71.624 113.43 71.9362 113.214 72.4423L111.06 71.7421C111.85 69.7449 113.525 69.1623 116.085 69.9943C118.575 70.8038 119.528 72.1061 118.945 73.9015L117.392 78.6794C117.136 79.4671 117.073 80.0741 117.203 80.5007ZM112.849 77.5869C113.532 77.809 114.148 77.8044 114.697 77.573C115.25 77.3301 115.641 76.8553 115.871 76.1488L116.136 75.3322C115.868 75.4498 115.486 75.4603 114.993 75.3639L113.766 75.1189C113.164 75.0001 112.702 75.0036 112.38 75.1293C112.072 75.2471 111.857 75.4971 111.732 75.8794C111.608 76.2616 111.638 76.6042 111.821 76.9071C112.02 77.2022 112.362 77.4288 112.849 77.5869ZM44.3488 72.3801L45.834 67.8106L48.0231 68.5222L44.0024 80.8926L41.8827 80.2037L42.2893 78.9527C41.3128 79.7111 40.2107 79.8908 38.9829 79.4917C37.7436 79.0889 36.9041 78.3422 36.4646 77.2516C36.0134 76.1573 36.0175 74.9036 36.4768 73.4905C36.9436 72.0542 37.6793 71.0319 38.6839 70.4235C39.6653 69.8076 40.7814 69.703 42.0324 70.1096C43.237 70.5011 44.0091 71.2579 44.3488 72.3801ZM38.6955 74.2885C38.3943 75.2151 38.3693 75.9818 38.6203 76.5884C38.8713 77.1951 39.3559 77.6151 40.0741 77.8485C40.7922 78.082 41.4407 78.0174 42.0196 77.6549C42.5869 77.2886 43.0211 76.6421 43.3223 75.7155C43.6235 74.7889 43.6523 74.0106 43.4088 73.3808C43.1653 72.751 42.6786 72.3175 41.9489 72.0803C41.2424 71.8506 40.5959 71.9287 40.0095 72.3144C39.4347 72.7038 38.9967 73.3619 38.6955 74.2885ZM51.2334 72.0437L49.079 71.3434L49.7454 69.2933L51.8998 69.9935L51.2334 72.0437ZM47.9585 82.1785L45.7694 81.467L48.6833 72.5018L50.8725 73.2134L47.9585 82.1785ZM57.991 73.6254L57.2265 73.3769C56.4736 73.1322 55.9805 73.3689 55.7471 74.087L55.5381 74.7299L57.3798 75.3285L56.8377 76.9964L54.996 76.3978L52.6242 83.695L50.4524 82.9891L52.8242 75.6919L51.4343 75.2401L51.9764 73.5722L53.3663 74.024L53.5866 73.3464C53.8689 72.4777 54.3324 71.8791 54.977 71.5508C55.6254 71.2108 56.4418 71.2009 57.4264 71.5209C57.8665 71.6639 58.2373 71.8037 58.5388 71.94L57.991 73.6254ZM64.0482 75.5941L63.2838 75.3457C62.5309 75.1009 62.0377 75.3377 61.8043 76.0558L61.5954 76.6986L63.437 77.2972L62.8949 78.9652L61.0532 78.3666L58.6814 85.6638L56.5097 84.9579L58.8815 77.6607L57.4915 77.2089L58.0336 75.541L59.4236 75.9928L59.6438 75.3152C59.9262 74.4464 60.3897 73.8479 61.0343 73.5195C61.6826 73.1796 62.4991 73.1696 63.4836 73.4896C63.9238 73.6327 64.2946 73.7724 64.596 73.9088L64.0482 75.5941ZM71.1617 84.937L70.9922 85.4582L64.2858 83.2784C64.1184 84.0692 64.1676 84.7255 64.4334 85.2474C64.7146 85.7614 65.191 86.1275 65.8629 86.3459C66.859 86.6697 67.6817 86.4632 68.3309 85.7266L70.4332 86.4099C69.9041 87.2496 69.1805 87.8212 68.2622 88.1247C67.3477 88.4165 66.3577 88.3893 65.2921 88.0429C63.96 87.61 63.0221 86.8313 62.4783 85.7069C61.9345 84.5824 61.8923 83.3137 62.3516 81.9006C62.8109 80.4875 63.5852 79.4841 64.6746 78.8905C65.7756 78.3007 66.9863 78.2203 68.3068 78.6495C69.662 79.09 70.5942 79.8861 71.1036 81.0377C71.6129 82.1894 71.6323 83.4891 71.1617 84.937ZM67.736 80.3466C66.4503 79.9287 65.4717 80.3982 64.8001 81.7551L69.3 83.2177C69.422 82.5274 69.3481 81.9271 69.0786 81.4169C68.809 80.9066 68.3614 80.5499 67.736 80.3466ZM78.9235 82.1771C79.1204 82.2411 79.2962 82.311 79.4508 82.3869L78.7957 84.4023L78.2397 84.2216C77.4058 83.9506 76.6933 83.9559 76.1023 84.2376C75.5266 84.5116 75.1051 85.0597 74.8378 85.8821L73.3582 90.4342L71.1691 89.7226L74.083 80.7575L76.2027 81.4464L75.6831 83.0449C76.5577 82.0485 77.6378 81.7592 78.9235 82.1771ZM87.1446 90.1319L86.9752 90.6531L80.2687 88.4733C80.1014 89.2642 80.1506 89.9205 80.4164 90.4423C80.6975 90.9563 81.174 91.3225 81.8458 91.5408C82.842 91.8646 83.6646 91.6582 84.3139 90.9215L86.4162 91.6048C85.8871 92.4445 85.1634 93.0161 84.2452 93.3196C83.3307 93.6115 82.3407 93.5842 81.275 93.2379C79.943 92.8049 79.0051 92.0262 78.4613 90.9018C77.9175 89.7774 77.8753 88.5086 78.3346 87.0955C78.7939 85.6824 79.5682 84.679 80.6576 84.0854C81.7586 83.4956 82.9693 83.4153 84.2897 83.8445C85.6449 84.2849 86.5772 85.081 87.0865 86.2326C87.5959 87.3843 87.6152 88.684 87.1446 90.1319ZM83.7189 85.5415C82.4333 85.1236 81.4546 85.5931 80.7831 86.95L85.283 88.4127C85.4049 87.7223 85.3311 87.122 85.0615 86.6118C84.792 86.1016 84.3444 85.7448 83.7189 85.5415ZM95.0507 87.3421C96.0236 87.6583 96.6959 88.1906 97.0674 88.9388C97.4542 89.6793 97.4801 90.5649 97.145 91.5958L95.2137 97.5378L93.0246 96.8263L94.8373 91.2491C95.2062 90.114 94.8289 89.3639 93.7054 88.9987C93.1494 88.818 92.6087 88.8663 92.0831 89.1437C91.5728 89.4133 91.2029 89.9014 90.9732 90.6079L89.3412 95.6291L87.1521 94.9175L90.066 85.9524L92.1856 86.6414L91.7678 87.9271C92.7749 87.1531 93.8692 86.9581 95.0507 87.3421ZM100.956 99.6347C99.6356 99.2056 98.7035 98.4288 98.1597 97.3043C97.6237 96.1952 97.5872 94.9284 98.0503 93.5037C98.5171 92.0674 99.2934 91.0583 100.379 90.4762C101.453 89.8905 102.662 89.8159 104.005 90.2526C105.175 90.6329 106.029 91.2562 106.567 92.1226C107.109 92.9775 107.272 93.9526 107.057 95.0481L104.868 94.3365C104.933 93.7814 104.837 93.3084 104.58 92.9175C104.323 92.5265 103.934 92.2464 103.413 92.0769C102.729 91.8548 102.11 91.9288 101.554 92.2988C101.014 92.6611 100.593 93.3055 100.292 94.2322C99.9904 95.1588 99.9558 95.9351 100.188 96.5612C100.423 97.1757 100.877 97.5921 101.549 97.8104C102.082 97.9836 102.575 97.9838 103.028 97.8109C103.497 97.6302 103.862 97.2751 104.123 96.7455L106.313 97.457C105.847 98.4966 105.126 99.2164 104.151 99.6166C103.179 100.005 102.114 100.011 100.956 99.6347ZM116.328 99.6173L116.159 100.139L109.452 97.9588C109.285 98.7496 109.334 99.4059 109.6 99.9277C109.881 100.442 110.357 100.808 111.029 101.026C112.025 101.35 112.848 101.144 113.497 100.407L115.6 101.09C115.07 101.93 114.347 102.502 113.429 102.805C112.514 103.097 111.524 103.07 110.458 102.723C109.126 102.29 108.188 101.512 107.645 100.387C107.101 99.2628 107.059 97.994 107.518 96.5809C107.977 95.1678 108.752 94.1645 109.841 93.5709C110.942 92.981 112.153 92.9007 113.473 93.3299C114.828 93.7704 115.761 94.5664 116.27 95.7181C116.779 96.8697 116.799 98.1695 116.328 99.6173ZM112.902 95.0269C111.617 94.609 110.638 95.0786 109.966 96.4355L114.466 97.8981C114.588 97.2077 114.514 96.6075 114.245 96.0972C113.975 95.587 113.528 95.2302 112.902 95.0269Z" fill="#2F3F45"/>
<path d="M46.2337 4.21081L45.7757 6.27687C44.2314 13.244 48.3974 20.2043 55.2674 22.1353C48.2873 20.6505 41.3628 24.8758 39.4906 31.762L38.9355 33.8041L39.3934 31.7381C40.9377 24.7709 36.7718 17.8106 29.9017 15.8797C36.8818 17.3644 43.8063 13.1392 45.6785 6.25289L46.2337 4.21081Z" fill="#E1C20D" stroke="#211F27" stroke-width="0.570906"/>
<path d="M116.717 118.717L116.465 120.023C115.614 124.426 118.35 128.728 122.7 129.824C118.289 129.01 114.01 131.784 112.952 136.142L112.638 137.435L112.89 136.129C113.742 131.725 111.005 127.423 106.656 126.327C111.067 127.141 115.345 124.368 116.403 120.009L116.717 118.717Z" fill="#E1C20D" stroke="#211F27" stroke-width="0.570906"/>
</svg>
