<svg width="174" height="174" viewBox="0 0 174 174" fill="none" xmlns="http://www.w3.org/2000/svg">
<rect x="20.2344" y="64.6045" width="99.1843" height="99.1843" rx="16" transform="rotate(-26.1637 20.2344 64.6045)" fill="#F6B1C6"/>
<rect x="28.6536" y="67.1609" width="85.9027" height="85.9027" rx="15.5" transform="rotate(-26.1637 28.6536 67.1609)" fill="#F6B1C6" stroke="#E290A9"/>
<path d="M73.9675 79.9391C72.3287 79.3545 71.1882 78.5336 70.546 77.4764C69.9152 76.4233 69.8381 75.2109 70.3146 73.8392L72.5694 74.6436C72.2743 75.5066 72.3089 76.2133 72.6732 76.7637C73.0487 77.3181 73.7225 77.7686 74.6945 78.1154C75.4857 78.3976 76.1428 78.4663 76.6658 78.3217C77.1928 78.1657 77.5572 77.8051 77.7587 77.24C77.9281 76.7653 77.8763 76.3391 77.6033 75.9614C77.3416 75.5878 76.776 75.1376 75.9064 74.6108L74.9618 74.0445C72.5469 72.6352 71.6882 70.953 72.3856 68.9976C72.7566 67.9578 73.4465 67.2738 74.4553 66.9457C75.4683 66.6063 76.6755 66.6866 78.077 67.1865C79.6706 67.755 80.7534 68.5234 81.3252 69.4918C81.9084 70.4643 82.0049 71.5689 81.6147 72.8057L79.3938 72.0135C79.5945 71.3079 79.5442 70.7167 79.2429 70.2397C78.953 69.7668 78.3559 69.3691 77.4517 69.0465C76.7509 68.7966 76.1677 68.735 75.702 68.862C75.2363 68.9889 74.9188 69.2897 74.7494 69.7644C74.5761 70.2504 74.6126 70.6838 74.8589 71.0647C75.1166 71.4497 75.6539 71.8898 76.471 72.3851L77.4496 72.9635C78.7616 73.75 79.6276 74.5367 80.0477 75.3236C80.483 76.1032 80.5254 76.9846 80.1746 77.968C79.7553 79.1434 78.9992 79.9057 77.9064 80.2548C76.8176 80.5927 75.5047 80.4874 73.9675 79.9391ZM83.2292 69.3301L93.2658 72.9103L92.534 74.9617L88.6686 73.5828L85.0945 83.6025L82.7888 82.78L86.3629 72.7604L82.4975 71.3815L83.2292 69.3301ZM99.2327 88.6457L96.8083 87.7809L96.8084 84.7805L91.5188 82.8937L89.6369 85.2228L87.2803 84.3822L96.1806 73.95L98.8593 74.9055L99.2327 88.6457ZM93.8328 80.0498L92.9094 81.1919L96.8087 82.5829L96.7997 81.1081C96.7629 79.9611 96.7575 78.4048 96.7834 76.4392C95.8087 77.6714 94.8252 78.8749 93.8328 80.0498ZM108.273 80.7098L110.37 79.0115L112.896 79.9125L105.763 85.6049L104.063 90.3689L101.775 89.5524L103.474 84.7885L101.52 75.8546L104.114 76.7799L104.673 79.4447C105.113 81.6401 105.355 82.873 105.399 83.1434C105.897 82.7098 106.856 81.8986 108.273 80.7098ZM48.7791 93.2311C47.2081 92.6707 46.1196 91.811 45.5138 90.6521C44.9233 89.4859 44.8981 88.1456 45.4384 86.631L48.1235 79.1036L50.4122 79.92L47.7211 87.4644C47.3945 88.3799 47.3839 89.1597 47.6893 89.8037C47.9947 90.4478 48.5938 90.929 49.4867 91.2475C50.3796 91.566 51.148 91.5726 51.7921 91.2672C52.4361 90.9619 52.9214 90.3514 53.248 89.4359L55.9391 81.8915L58.2279 82.7079L55.5428 90.2354C54.9945 91.7725 54.1247 92.8 52.9334 93.3179C51.7462 93.8245 50.3615 93.7955 48.7791 93.2311ZM60.0315 83.3513L65.338 85.2442C66.683 85.724 67.6014 86.4529 68.0934 87.4311C68.6007 88.4019 68.6387 89.4921 68.2073 90.7014C67.7799 91.8995 67.0606 92.7195 66.0493 93.1614C65.0534 93.5961 63.8829 93.5735 62.538 93.0937L59.5202 92.0173L58.0144 96.2387L55.7256 95.4223L60.0315 83.3513ZM60.2217 90.0506L63.1377 91.0908C63.8046 91.3287 64.3717 91.3462 64.839 91.1435C65.3216 90.9334 65.6758 90.5119 65.9016 89.879C66.1273 89.246 66.1199 88.6955 65.8791 88.2274C65.6497 87.7634 65.2016 87.4124 64.5347 87.1745L61.6187 86.1344L60.2217 90.0506ZM71.0249 87.2728L75.6363 88.9177C77.569 89.6071 78.8694 90.6762 79.5375 92.1248C80.2016 93.5848 80.201 95.2473 79.5358 97.1122C78.8706 98.9771 77.8209 100.259 76.3867 100.958C74.9486 101.668 73.2631 101.678 71.3304 100.989L66.719 99.3438L71.0249 87.2728ZM69.7093 98.1936L71.998 99.01C73.1848 99.4333 74.2232 99.4152 75.1134 98.9555C76.0076 98.4846 76.6906 97.5879 77.1623 96.2655C77.634 94.9431 77.6707 93.8223 77.2724 92.9031C76.8781 91.9725 76.0876 91.2956 74.9008 90.8722L72.6121 90.0558L69.7093 98.1936ZM89.0646 107.315L86.6402 106.45L86.6403 103.449L81.3508 101.563L79.4688 103.892L77.1123 103.051L86.0126 92.619L88.6913 93.5745L89.0646 107.315ZM83.6647 98.7188L82.7413 99.8609L86.6407 101.252L86.6316 99.7771C86.5949 98.6301 86.5894 97.0738 86.6153 95.1082C85.6407 96.3404 84.6571 97.5439 83.6647 98.7188ZM91.7036 94.6491L101.74 98.2292L101.008 100.281L97.143 98.9018L93.5689 108.921L91.2632 108.099L94.8373 98.0793L90.9718 96.7005L91.7036 94.6491ZM111.796 101.816L111.065 103.868L104.453 101.509L103.437 104.357L109.421 106.492L108.72 108.459L102.735 106.324L101.61 109.477L108.188 111.824L107.457 113.875L98.5899 110.712L102.896 98.6414L111.796 101.816ZM113.21 102.321L117.822 103.966C119.755 104.655 121.055 105.724 121.723 107.173C122.387 108.633 122.387 110.295 121.721 112.16C121.056 114.025 120.006 115.307 118.572 116.006C117.134 116.716 115.449 116.726 113.516 116.037L108.905 114.392L113.21 102.321ZM111.895 113.242L114.184 114.058C115.37 114.481 116.409 114.463 117.299 114.004C118.193 113.533 118.876 112.636 119.348 111.314C119.82 109.991 119.856 108.87 119.458 107.951C119.064 107.02 118.273 106.344 117.086 105.92L114.798 105.104L111.895 113.242Z" fill="#4B2D36"/>
<path d="M75.7475 44.2636C78.8806 41.3694 80.2631 37.0246 79.3728 32.8465C82.2303 36.0594 86.5906 37.5869 90.8257 36.8663C87.6927 39.7605 86.3102 44.1053 87.2005 48.2834C84.343 45.0704 79.9827 43.543 75.7475 44.2636Z" fill="white" stroke="#E290A9"/>
<path d="M79.5322 137.094C82.7113 134.25 84.1635 129.928 83.3405 125.736C86.146 128.995 90.4812 130.592 94.7274 129.94C91.5482 132.783 90.096 137.105 90.9191 141.297C88.1136 138.039 83.7784 136.441 79.5322 137.094Z" fill="white" stroke="#E290A9"/>
</svg>
