<svg width="48" height="48" viewBox="0 0 48 48" fill="none" xmlns="http://www.w3.org/2000/svg">
<path fill-rule="evenodd" clip-rule="evenodd" d="M0 24C0 10.7452 10.7452 0 24 0C37.2548 0 48 10.7452 48 24C48 37.2548 37.2548 48 24 48C10.7452 48 0 37.2548 0 24Z" fill="#D9D9D9" fill-opacity="0.5"/>
<path fill-rule="evenodd" clip-rule="evenodd" d="M32.5873 16.4787C33.5339 16.7415 34.2794 17.5159 34.5324 18.4994C34.9922 20.2819 34.9922 24.001 34.9922 24.001C34.9922 24.001 34.9922 27.7199 34.5324 29.5025C34.2794 30.486 33.5339 31.2605 32.5873 31.5234C30.8718 32.001 23.9922 32.001 23.9922 32.001C23.9922 32.001 17.1126 32.001 15.3969 31.5234C14.4503 31.2605 13.7048 30.486 13.4518 29.5025C12.9922 27.7199 12.9922 24.001 12.9922 24.001C12.9922 24.001 12.9922 20.2819 13.4518 18.4994C13.7048 17.5159 14.4503 16.7415 15.3969 16.4787C17.1126 16.001 23.9922 16.001 23.9922 16.001C23.9922 16.001 30.8718 16.001 32.5873 16.4787ZM21.9297 20.8705V27.827L27.4297 24.3489L21.9297 20.8705Z" fill="#231F20"/>
</svg>
