<?xml version="1.0" encoding="UTF-8"?>
<svg id="Layer_1" xmlns="http://www.w3.org/2000/svg" version="1.1" viewBox="0 0 692.8 244.9">
  <!-- Generator: Adobe Illustrator 29.7.1, SVG Export Plug-In . SVG Version: 2.1.1 Build 8)  -->
  <defs>
    <style>
      .st0 {
        isolation: isolate;
      }

      .st1 {
        fill: #d1b159;
      }

      .st2 {
        fill: #333;
      }
    </style>
  </defs>
  <g class="st0">
    <path class="st2" d="M128.3,70.4h3.6c15.2,0,22.7-7.4,22.7-22.3s-1.3-10.8-3.9-14-6.5-4.8-11.5-4.8-8,1.2-10.4,3.7-3.9,6.3-4.5,11.4c-.4,4.7-2.4,7-6.1,7s-5.8-2.2-5.8-6.5,1.3-6.8,4-9.7,6.3-5.2,10.8-7c4.6-1.7,9.7-2.6,15.3-2.6,9.7,0,17.3,2,22.9,6s8.3,9.6,8.3,16.7-2.3,11.1-6.8,15.2c-4.6,4.1-10.9,6.8-19.2,8.2v.4c10,.8,17.7,3.6,23.2,8.3,5.4,4.8,8.2,11.1,8.2,19s-1.5,10.8-4.5,15.1-7.2,7.7-12.6,10c-5.4,2.4-11.7,3.6-18.9,3.6s-9.4-.6-13.6-1.8c-4.2-1.2-7.9-2.8-11.1-5-3.2-2.1-5.7-4.6-7.6-7.3-1.8-2.7-2.8-5.6-2.8-8.7s.5-3.7,1.6-5,2.6-1.9,4.5-1.9c3.7,0,5.8,2.4,6.4,7.1,1.7,12.5,8.3,18.7,19.9,18.7s10.6-2.1,13.9-6.4,5-10.2,5-17.8c0-17-9-25.5-26.9-25.5h-4.2v-4.2h.1Z"/>
  </g>
  <g>
    <g class="st0">
      <g class="st0">
        <path class="st2" d="M326.3,206.7v-46.5h8.4v46.5h-8.4Z"/>
        <path class="st2" d="M371.1,160.2h8.1v46.5h-9.3l-12.3-20.7c-3.3-5.5-6-10.2-7.9-14,.2,4.9.2,12.4.2,22.5v12.2h-8.1v-46.5h9.3l12.3,20.7c3.7,6.3,6.3,10.9,7.8,14-.2-6.5-.2-14-.2-22.5v-12.2h.1Z"/>
        <path class="st2" d="M399.9,206.7v-46.5h8.4v46.5h-8.4Z"/>
        <path class="st2" d="M444.7,160.2h8.1v46.5h-9.3l-12.3-20.7c-3.3-5.5-6-10.2-7.9-14,.2,4.9.2,12.4.2,22.5v12.2h-8.1v-46.5h9.3l12.3,20.7c3.7,6.3,6.3,10.9,7.8,14-.2-6.5-.2-14-.2-22.5v-12.2h.1Z"/>
        <path class="st2" d="M477,160.2c7.1,0,12.5,2.1,16.4,6.2,3.8,4.2,5.8,9.9,5.8,17s-1.9,12.8-5.8,17c-3.8,4.2-9.3,6.3-16.4,6.3h-16.9v-46.5h16.9ZM476.8,199.1c4.3,0,7.7-1.3,10.1-4s3.5-6.6,3.5-11.7-1.2-9-3.5-11.7-5.7-4-10.1-4h-8.4v31.4h8.4Z"/>
      </g>
      <g class="st0">
        <path class="st2" d="M504.5,206.7v-46.5h8.4v46.5h-8.4Z"/>
      </g>
      <g class="st0">
        <path class="st2" d="M551,206.7l-3.5-10.3h-19.4l-3.4,10.3h-8.6l16.8-46.5h9.8l17.1,46.5h-8.9.1ZM530.7,188.9h14.3l-1.7-5c-1.5-3.9-3.3-9.2-5.5-15.9-1.7,5.4-3.5,10.7-5.4,15.9l-1.7,5h0Z"/>
      </g>
    </g>
    <g class="st0">
      <g class="st0">
        <path class="st2" d="M360.4,26.5v7.9h-14.2v38.6h-8.4v-38.6h-14.2v-7.9h36.8Z"/>
      </g>
      <g class="st0">
        <path class="st2" d="M366,67.4c-4.1-4.5-6.1-10.4-6.1-17.6s2-13.1,6.1-17.6c4.1-4.4,9.4-6.7,16-6.7s12,2.2,16,6.7c4,4.4,6,10.3,6,17.6s-2,13.2-6,17.6c-4,4.4-9.4,6.7-16,6.7s-12-2.2-16-6.7h0ZM382,66.3c4.1,0,7.3-1.5,9.8-4.4,2.4-2.9,3.6-7,3.6-12.1s-1.2-9.2-3.6-12.1c-2.4-3-5.7-4.4-9.8-4.4s-7.2,1.5-9.7,4.4-3.7,7-3.7,12.1,1.2,9.1,3.7,12.1,5.7,4.4,9.7,4.4Z"/>
        <path class="st2" d="M428.9,26.5c4.9,0,8.8,1.4,11.5,4.1s4.1,6.4,4.1,11.1-1.4,8.3-4.1,11-6.6,4.1-11.5,4.1h-11v16.3h-8.4V26.6h19.4ZM428.5,49.2c2.4,0,4.3-.6,5.6-1.9s2-3.1,2-5.6-.7-4.3-2-5.6-3.2-2-5.6-2h-10.7v15.1h10.7Z"/>
      </g>
      <g class="st0">
        <path class="st2" d="M330.6,135.7c-3.3-3.2-4.9-7.8-4.9-13.6v-29h8.4v29.1c0,3.5.9,6.2,2.6,8s4.2,2.7,7.5,2.7,5.8-.9,7.5-2.7,2.6-4.5,2.6-8v-29.1h8.4v29c0,5.9-1.6,10.5-4.9,13.7s-7.8,4.8-13.6,4.8-10.3-1.6-13.6-4.9h0Z"/>
        <path class="st2" d="M398.4,93.1h8.1v46.5h-9.3l-12.3-20.7c-3.3-5.5-6-10.2-7.9-14,.2,4.9.2,12.4.2,22.5v12.2h-8.1v-46.5h9.3l12.3,20.7c3.7,6.3,6.3,10.9,7.8,14-.2-6.5-.2-14-.2-22.5v-12.1h.1Z"/>
      </g>
      <g class="st0">
        <path class="st2" d="M413.8,139.6v-46.5h8.4v46.5h-8.4Z"/>
        <path class="st2" d="M459,93.1h8.7l-15.8,46.5h-9.8l-16.2-46.5h8.9l8,24c1.9,5.9,3.3,10.8,4.2,14.5,1.1-4.3,2.5-9.2,4.2-14.5l7.8-24h0Z"/>
      </g>
      <g class="st0">
        <path class="st2" d="M503.8,101h-24.2v11h21.9v7.6h-21.9v12.2h24.1v7.9h-32.5v-46.5h32.6v7.9h0Z"/>
        <path class="st2" d="M544,134.2c0,2.2.5,4,1.4,5.4h-8.6c-.8-1.3-1.1-3.2-1.2-5.5l-.2-5.1c0-2.8-.7-4.8-1.8-5.9s-2.8-1.7-5.2-1.7h-10.9v18.2h-8.4v-46.5h20c4.9,0,8.8,1.2,11.5,3.5s4.1,5.5,4.1,9.6-2.5,9.3-7.4,11.1c2.2.7,3.8,1.9,4.8,3.5s1.5,3.7,1.6,6.4l.4,6.9h0ZM517.4,114.5h11.2c2.4,0,4.2-.6,5.5-1.9s2-3,2-5.4-.7-3.9-2-5.1c-1.3-1.2-3.3-1.8-5.7-1.8h-10.9v14.1h0Z"/>
        <path class="st2" d="M553.2,136.4c-3.3-2.8-5-6.9-5-12.2h8.2c0,3.3,1,5.7,2.8,7.1s4.5,2.2,8.1,2.2,5.1-.6,6.6-1.7c1.5-1.2,2.3-2.8,2.3-5s-.7-3.2-2-4.2-3.7-1.8-7.1-2.5l-3.7-.8c-9.5-1.9-14.2-6.6-14.2-14.1s1.5-7.2,4.3-9.6,6.9-3.6,12-3.6,10.2,1.3,13.2,3.9c3,2.6,4.6,6.3,4.8,11h-8.1c-.2-2.7-1-4.6-2.5-5.9s-3.9-1.9-7.2-1.9-4.5.5-5.9,1.5-2,2.4-2,4.2.6,3.3,1.9,4.3,3.5,1.8,6.7,2.5l3.8.8c5.2,1.1,8.9,2.7,11.2,4.9s3.5,5.1,3.5,8.9-1.6,8-4.7,10.5c-3.1,2.5-7.5,3.8-13.2,3.8s-10.7-1.4-13.9-4.2h.1Z"/>
      </g>
      <g class="st0">
        <path class="st2" d="M589.8,139.6v-46.5h8.4v46.5h-8.4Z"/>
      </g>
      <g class="st0">
        <path class="st2" d="M639.3,93.1v7.9h-14.2v38.6h-8.4v-38.6h-14.2v-7.9h36.8Z"/>
      </g>
      <g class="st0">
        <path class="st2" d="M672.3,93.1h9.2l-16.6,28.2v18.4h-8.4v-18.4l-16.7-28.2h9.5l4.9,8.4c4,7,6.2,10.9,6.6,11.8,1.1-2.1,3.3-6,6.5-11.8l4.8-8.4h.2Z"/>
      </g>
    </g>
  </g>
  <g>
    <g class="st0">
      <path class="st2" d="M44.5,167.2h6.5v38.9h-7.5l-10-17.3c-2.7-4.6-4.8-8.5-6.4-11.7.1,4.1.2,10.4.2,18.8v10.2h-6.5v-38.9h7.5l10,17.3c3,5.2,5.1,9.1,6.3,11.7-.1-5.4-.2-11.7-.2-18.8v-10.2h0Z"/>
      <path class="st2" d="M56.9,206.1v-38.9h6.8v38.9h-6.8Z"/>
      <path class="st2" d="M97.9,201.6c0,1.9.4,3.4,1.1,4.5h-7c-.6-1.1-.9-2.6-1-4.6v-4.3c-.2-2.4-.8-4-1.6-4.9-.9-.9-2.3-1.4-4.2-1.4h-8.9v15.2h-6.8v-38.9h16.2c4,0,7.1,1,9.3,3s3.3,4.6,3.3,8-2,7.8-6,9.3c1.8.6,3.1,1.6,3.9,2.9s1.2,3.1,1.3,5.4l.3,5.8h.1ZM76.4,185.1h9c1.9,0,3.4-.5,4.5-1.6s1.6-2.5,1.6-4.5-.5-3.3-1.6-4.3-2.6-1.5-4.6-1.5h-8.8v11.8h-.1Z"/>
      <path class="st2" d="M128.3,173.8h-18.5v9.2h16.8v6.3h-16.8v16.8h-6.8v-38.9h25.3v6.6Z"/>
    </g>
    <g class="st0">
      <path class="st2" d="M172,199.9v6.2h-26v-2.9c.3-3,.9-5.7,1.9-8,1.2-3,3.8-5.4,7.7-7.3l3.5-2c2.1-1.1,3.5-2.2,4.4-3.3.9-1.1,1.3-2.5,1.3-4.2s-.5-3.2-1.6-4.2-2.5-1.6-4.3-1.6c-4.1,0-6.2,2.4-6.2,7.1h-6.5c0-4.2,1.1-7.5,3.3-9.8s5.4-3.5,9.6-3.5,6.9,1.1,9.1,3.2,3.4,4.9,3.4,8.3-.8,5.5-2.3,7.5c-1.5,2.1-3.9,4-7.2,5.8l-3.3,1.9c-1.9,1.1-3.2,2.1-4,3.1s-1.2,2.2-1.3,3.8h18.5Z"/>
    </g>
    <g class="st0">
      <path class="st2" d="M179.9,201.7c-2.4-3.5-3.6-8.5-3.6-15.1s1.2-11.6,3.6-15.1,6-5.2,10.7-5.2,8.3,1.8,10.7,5.2c2.5,3.5,3.7,8.5,3.7,15.1s-1.2,11.6-3.7,15.1-6,5.2-10.7,5.2-8.2-1.8-10.7-5.2ZM197.8,186.7c0-9.4-2.4-14.1-7.3-14.1s-7.2,4.7-7.2,14.1,2.4,14.1,7.2,14.1,7.3-4.7,7.3-14.1Z"/>
    </g>
    <g class="st0">
      <path class="st2" d="M235.2,199.9v6.2h-26v-2.9c.3-3,.9-5.7,1.9-8,1.2-3,3.8-5.4,7.7-7.3l3.5-2c2.1-1.1,3.5-2.2,4.4-3.3.9-1.1,1.3-2.5,1.3-4.2s-.5-3.2-1.6-4.2-2.5-1.6-4.3-1.6c-4.1,0-6.2,2.4-6.2,7.1h-6.5c0-4.2,1.1-7.5,3.3-9.8s5.4-3.5,9.6-3.5,6.9,1.1,9.1,3.2,3.4,4.9,3.4,8.3-.8,5.5-2.3,7.5c-1.5,2.1-3.9,4-7.2,5.8l-3.3,1.9c-1.9,1.1-3.2,2.1-4,3.1s-1.2,2.2-1.3,3.8h18.5Z"/>
    </g>
    <g class="st0">
      <path class="st2" d="M262.2,184.3c2.1,2.5,3.2,5.6,3.2,9.2s-1.2,7.3-3.7,9.8-5.7,3.7-9.6,3.7-6.7-1.1-9.2-3.2c-2.4-2.1-3.8-5-4-8.7h6.5c.2,1.9,1,3.3,2.2,4.4s2.7,1.6,4.5,1.6,3.7-.7,5-2.1,1.9-3.2,1.9-5.4-.6-4-1.9-5.4-2.9-2.1-5-2.1c-3,0-5.1,1.3-6.3,3.9h-6.2l3.3-22.7h20.7v6.2h-15.4l-1.6,9.7c1.9-1.7,4.1-2.6,6.5-2.6,3.9,0,6.9,1.2,9.1,3.7h0Z"/>
    </g>
  </g>
  <g>
    <g>
      <path class="st1" d="M39.6,57.5s5.7-5.3,4-14.2-8.3-13.2-8.3-13.2c0,0-6.5,6.4-4.8,15,1.7,8.7,9.1,12.4,9.1,12.4Z"/>
      <path class="st1" d="M52,64s8.3.7,14.2-5.9c5.9-6.6,3.6-15.4,3.6-15.4,0,0-7.9.3-13.9,7.1-6.1,6.8-3.9,14.2-3.9,14.2h0Z"/>
      <path class="st1" d="M49.2,88.4s8.3-.4,13.3-7.8c5-7.3,1.5-15.7,1.5-15.7,0,0-7.8,1.3-12.9,8.8-5.1,7.5-2,14.6-2,14.6h0Z"/>
      <path class="st1" d="M68.7,99.2c4.3-7.7,0-15.8,0-15.8,0,0-7.6,2-12,10-4.4,7.9-.6,14.8-.6,14.8,0,0,8.3-1.2,12.5-8.9h.1Z"/>
      <path class="st1" d="M67.5,128.6s7.6-3.5,9.4-12.2c1.9-8.6-4.5-15.2-4.5-15.2,0,0-6.7,4.2-8.6,13-1.9,8.9,3.6,14.3,3.6,14.3h.1Z"/>
      <path class="st1" d="M52.7,43s7.7-1.2,11.2-9.6c3.5-8.3.5-15.6.5-15.6,0,0-8.9,1.7-12.4,9.8-3.4,8.1.7,15.4.7,15.4h0Z"/>
      <path class="st1" d="M36.6,76s3.9-6.8-.4-14.8c-4.3-8-11.8-10.2-11.8-10.2,0,0-4.3,8-.2,15.8,4.2,7.8,12.4,9.2,12.4,9.2h0Z"/>
      <path class="st1" d="M39.6,96s2.3-7.4-3.6-14.3c-5.9-6.9-13.8-7.3-13.8-7.3,0,0-2.4,8.8,3.3,15.5,5.8,6.7,14.1,6.2,14.1,6.2h0Z"/>
      <path class="st1" d="M46.3,113.1s0-7.8-7.8-12.5c-7.7-4.8-15.4-2.8-15.4-2.8,0,0,.3,9.1,7.9,13.7,7.5,4.6,15.3,1.6,15.3,1.6h0Z"/>
      <path class="st1" d="M49.2,120.3c-8.2-3.8-15.6-.9-15.6-.9,0,0,1.4,9,9.4,12.7s15.4-.2,15.4-.2c0,0-1-7.7-9.2-11.5h0Z"/>
      <path class="st1" d="M52.8,48.4l-3.5-2.5c-.3.4-26.7,39.1,21,95.4l3.3-2.8c-45.5-53.6-21.8-88.6-20.8-90.1h0Z"/>
    </g>
    <g>
      <path class="st1" d="M257.7,45.1c1.6-8.7-4.8-15-4.8-15,0,0-6.6,4.3-8.3,13.2-1.7,8.9,4,14.2,4,14.2,0,0,7.5-3.7,9.1-12.4h0Z"/>
      <path class="st1" d="M232.3,49.7c-6.1-6.8-13.9-7.1-13.9-7.1,0,0-2.3,8.8,3.6,15.4,5.9,6.6,14.2,5.9,14.2,5.9,0,0,2.1-7.5-3.9-14.2h0Z"/>
      <path class="st1" d="M236.9,73.8c-5.1-7.5-12.9-8.8-12.9-8.8,0,0-3.4,8.4,1.5,15.7,5,7.3,13.3,7.8,13.3,7.8,0,0,3.1-7.1-2-14.6h.1Z"/>
      <path class="st1" d="M232,108.1s3.7-6.8-.6-14.8c-4.4-8-12-10-12-10,0,0-4.2,8.1,0,15.8,4.3,7.7,12.5,8.9,12.5,8.9h.1Z"/>
      <path class="st1" d="M224.2,114.3c-1.9-8.9-8.6-13-8.6-13,0,0-6.3,6.5-4.5,15.2,1.9,8.7,9.4,12.2,9.4,12.2,0,0,5.6-5.4,3.6-14.3h.1Z"/>
      <path class="st1" d="M236.1,27.6c-3.5-8.1-12.4-9.8-12.4-9.8,0,0-3.1,7.3.5,15.6,3.5,8.3,11.2,9.6,11.2,9.6,0,0,4.2-7.3.7-15.4h0Z"/>
      <path class="st1" d="M263.9,66.9c4.1-7.8-.2-15.8-.2-15.8,0,0-7.6,2.2-11.8,10.2-4.2,8-.4,14.8-.4,14.8,0,0,8.2-1.4,12.4-9.2h0Z"/>
      <path class="st1" d="M262.7,89.8c5.7-6.7,3.3-15.5,3.3-15.5,0,0-7.9.5-13.8,7.3-5.9,6.9-3.6,14.3-3.6,14.3,0,0,8.3.5,14.1-6.2h0Z"/>
      <path class="st1" d="M257.2,111.5c7.5-4.6,7.9-13.7,7.9-13.7,0,0-7.6-1.9-15.4,2.8-7.7,4.8-7.8,12.5-7.8,12.5,0,0,7.8,3,15.3-1.6h0Z"/>
      <path class="st1" d="M229.7,131.8s7.4,3.9,15.4.2c8-3.7,9.4-12.7,9.4-12.7,0,0-7.4-2.8-15.6.9-8.2,3.8-9.2,11.5-9.2,11.5h0Z"/>
      <path class="st1" d="M214.6,138.4l3.3,2.8c47.8-56.3,21.3-95,21-95.4l-3.5,2.5c1,1.4,24.7,36.5-20.8,90.1h0Z"/>
    </g>
  </g>
</svg>