<svg xmlns="http://www.w3.org/2000/svg" width="21.113" height="20.708" viewBox="0 0 21.113 20.708">
  <g id="Group_14670" data-name="Group 14670" transform="translate(-120 -1224.056)">
    <path id="Path_5099" data-name="Path 5099" d="M266.455,105.84a5.08,5.08,0,1,0,4.935,5.078A5.018,5.018,0,0,0,266.455,105.84Zm2.686,4.306-2.655,2.732a.741.741,0,0,1-.562.225.789.789,0,0,1-.562-.225l-1.624-1.671a.792.792,0,0,1,0-1.125.74.74,0,0,1,1.093,0l1.093,1.125,2.093-2.153a.74.74,0,0,1,1.093,0,.73.73,0,0,1,.031,1.093Z" transform="translate(-135.898 1123.46)"/>
    <path id="Path_5100" data-name="Path 5100" d="M179.427,27.542c.312-.964,2.4-1.671,2.4-2.732s-2.093-1.768-2.4-2.732c-.312-1,.968-2.828.375-3.664s-2.686-.161-3.5-.739c-.812-.611-.812-2.86-1.78-3.182-.937-.321-2.218,1.51-3.248,1.51s-2.342-1.832-3.248-1.51c-.968.321-.968,2.6-1.78,3.182-.812.611-2.9-.1-3.5.739s.687,2.667.375,3.664c-.312.964-2.4,1.671-2.4,2.732s2.093,1.768,2.4,2.732c.312,1-.968,2.828-.375,3.664s2.686.161,3.5.739c.812.611.812,2.86,1.78,3.182.937.321,2.218-1.51,3.248-1.51s2.342,1.832,3.248,1.51c.968-.321.968-2.6,1.78-3.182.812-.611,2.9.1,3.5-.739S179.114,28.506,179.427,27.542Zm-8.151,3.921a6.671,6.671,0,1,1,6.5-6.652A6.587,6.587,0,0,1,171.275,31.463Z" transform="translate(-40.719 1209.599)"/>
  </g>
</svg>
