<svg width="64" height="64" viewBox="0 0 64 64" fill="none" xmlns="http://www.w3.org/2000/svg">
<rect width="64" height="64" rx="32" fill="white"/>
<path fill-rule="evenodd" clip-rule="evenodd" d="M20.0381 29.0936L19.5819 28.6903C19.4754 28.5964 19.4178 28.4588 19.4178 28.2987V27.4455C19.4178 27.1787 19.5968 26.9612 19.816 26.9612H23.9365C24.1557 26.9612 24.3347 27.1787 24.3347 27.4455V28.2987C24.3347 28.4588 24.2772 28.5964 24.1707 28.6903L23.7146 29.0936C23.6081 29.1879 23.5503 29.3253 23.5503 29.4856V40.5784C23.5503 40.7388 23.608 40.8763 23.7146 40.9704L24.1707 41.3737C24.2771 41.4676 24.3347 41.6052 24.3347 41.7653V42.6186C24.3347 42.8854 24.1557 43.1028 23.9365 43.1028H19.816C19.5968 43.1028 19.4178 42.8854 19.4178 42.6186V41.7653C19.4178 41.6052 19.4754 41.4676 19.5819 41.3737L20.0381 40.9704C20.1444 40.8763 20.2022 40.7388 20.2022 40.5784V29.4856C20.2022 29.3253 20.1445 29.1879 20.0381 29.0936ZM32 28.9167C35.4894 28.9167 38.318 31.7454 38.318 35.2346C38.318 38.7238 35.4894 41.5525 32 41.5525C28.5108 41.5525 25.6821 38.7238 25.6821 35.2346C25.6821 31.7454 28.5108 28.9167 32 28.9167ZM29.5402 33.6234C29.5402 32.5265 30.2656 31.6896 31.2939 31.3816V30.5347C31.2939 30.3697 31.4283 30.2351 31.5935 30.2351H32.4067C32.5717 30.2351 32.7064 30.3697 32.7064 30.5347L32.7104 31.3505C32.9055 31.3999 33.0943 31.4735 33.2702 31.5713C33.9129 31.9292 34.2906 32.5506 34.4134 33.266C34.4288 33.3552 34.4055 33.4407 34.3472 33.5098C34.2889 33.5789 34.2087 33.6163 34.1183 33.6163H33.372C33.2386 33.6163 33.1241 33.5311 33.0854 33.4033C32.7941 32.4392 31.0003 32.3433 31.0003 33.5256C31.0003 34.1701 31.8219 34.4084 32.3135 34.5879C33.4508 35.003 34.4599 35.4397 34.4599 36.8459C34.4599 37.9427 33.7347 38.7799 32.7064 39.0878V39.9345C32.7064 40.0995 32.5717 40.234 32.4067 40.234H31.5935C31.4283 40.234 31.2939 40.0997 31.2939 39.9345L31.2898 39.1189C31.0946 39.0696 30.9059 38.996 30.7298 38.898C30.087 38.5403 29.7094 37.9184 29.5865 37.2032C29.5713 37.114 29.5945 37.0286 29.6528 36.9594C29.7111 36.8903 29.7914 36.8528 29.8818 36.8528H30.628C30.7615 36.8528 30.8761 36.9381 30.9146 37.0659C31.2058 38.0301 32.9994 38.1259 32.9994 36.9438C32.9994 36.2611 32.0565 36.0178 31.5424 35.8289C30.4526 35.4282 29.5402 34.9558 29.5402 33.6234ZM16.2467 45.4563H17.0105C17.2871 45.4563 17.5127 45.1847 17.5127 44.8514V44.5796C17.5127 44.267 17.7247 44.0115 17.9842 44.0115H46.0159C46.2753 44.0115 46.4875 44.2673 46.4875 44.5796V44.8514C46.4875 45.1847 46.713 45.4563 46.9897 45.4563H47.7535C47.9288 45.4563 48.0723 45.6292 48.0723 45.8405V47.6158C48.0723 47.8271 47.9288 48 47.7535 48H16.2467C16.0713 48 15.9277 47.8271 15.9277 47.6158V45.8405C15.9277 45.6292 16.0713 45.4563 16.2467 45.4563ZM16.8086 23.0348L31.3741 16.1461C31.7859 15.9513 32.2142 15.9513 32.6259 16.1461L47.1915 23.0348C47.7405 23.2945 48.0723 23.8292 48.0723 24.4543V25.4665C48.0723 25.7529 47.8469 25.9866 47.5702 25.9866H16.4299C16.1532 25.9866 15.9277 25.7529 15.9277 25.4665V24.4543C15.9277 23.8292 16.2597 23.2945 16.8086 23.0348ZM32 19.3002C33.1702 19.3002 34.119 20.249 34.119 21.4192C34.119 22.5892 33.1702 23.538 32 23.538C30.8298 23.538 29.8811 22.5892 29.8811 21.4192C29.8811 20.249 30.8298 19.3002 32 19.3002ZM40.2855 29.0936L39.8293 28.6903C39.7229 28.5964 39.6652 28.4588 39.6652 28.2987V27.4455C39.6652 27.1787 39.8442 26.9612 40.0634 26.9612H44.1839C44.4031 26.9612 44.5821 27.1787 44.5821 27.4455V28.2987C44.5821 28.4588 44.5246 28.5964 44.4181 28.6903L43.9619 29.0936C43.8555 29.1879 43.7977 29.3253 43.7977 29.4856V40.5784C43.7977 40.7388 43.8554 40.8763 43.9619 40.9704L44.4181 41.3737C44.5245 41.4676 44.5821 41.6052 44.5821 41.7653V42.6186C44.5821 42.8854 44.4031 43.1028 44.1839 43.1028H40.0634C39.8442 43.1028 39.6652 42.8854 39.6652 42.6186V41.7653C39.6652 41.6052 39.7227 41.4676 39.8293 41.3737L40.2855 40.9704C40.3918 40.8763 40.4496 40.7388 40.4496 40.5784V29.4856C40.4496 29.3253 40.392 29.1879 40.2855 29.0936Z" fill="#151419"/>
</svg>
