<svg width="64" height="64" viewBox="0 0 64 64" fill="none" xmlns="http://www.w3.org/2000/svg">
<rect width="64" height="64" rx="32" fill="white"/>
<path d="M46.4744 19.6813H40.3445V22.7159H44.0528C44.3745 22.7159 44.684 22.8434 44.9116 23.071C45.1392 23.2986 45.2667 23.6081 45.2667 23.9298V37.1C45.2667 37.4217 45.1392 37.7312 44.9116 37.9588C44.684 38.1864 44.3745 38.3139 44.0528 38.3139H19.9458C19.2751 38.3139 18.732 37.7707 18.732 37.1V23.9663C18.732 23.2956 19.2751 22.7524 19.9458 22.7524H23.6542V19.7178H17.5243C17.0508 19.7178 16.5987 19.9059 16.2649 20.2412C15.9311 20.5751 15.7445 21.0287 15.746 21.5021V39.6129C15.746 40.5961 16.5411 41.3942 17.5243 41.3973H29.0561V45.7792L24.4738 47.6C24.319 47.6607 24.193 47.7821 24.1278 47.9353C24.061 48.0871 24.058 48.2616 24.1187 48.4163C24.2462 48.7395 24.6118 48.8988 24.935 48.7714C25.7301 48.4679 30.2943 46.6532 30.9558 46.3983C31.9754 45.931 33.1225 46.3983 34.0754 46.8049L39.0644 48.7714C39.2207 48.8427 39.3997 48.8442 39.556 48.7759C39.7138 48.7077 39.8352 48.5757 39.8898 48.4133C39.9566 48.257 39.9551 48.081 39.8853 47.9278C39.817 47.773 39.6865 47.6546 39.5257 47.6L34.9433 45.7792V41.3973H46.4752C47.4584 41.3943 48.2534 40.5962 48.2534 39.6129V21.5022C48.2656 21.0227 48.082 20.5599 47.7482 20.217C47.4128 19.8741 46.9538 19.6813 46.4744 19.6813ZM34.5 45C33.4713 44.5994 35.0105 40.5524 34 41L30.312 41.3973H33.6865V45.2999L34.5 45Z" fill="#151419"/>
<path d="M39.0758 16.1614C39.0758 16.8988 35.9077 17.4967 31.9989 17.4967C28.0902 17.4967 24.9221 16.8988 24.9221 16.1614C24.9221 15.424 28.0902 14.8262 31.9989 14.8262C35.9077 14.8262 39.0758 15.424 39.0758 16.1614Z" fill="#151419"/>
<path d="M23.6538 24.0089H20.0123V37.0821H43.9981V24.0089H40.3565V29.1071C40.3565 31.1585 35.1127 31.7048 32.0114 31.7048C28.9101 31.7048 23.6663 31.1586 23.6663 29.1071L23.6538 24.0089Z" fill="#151419"/>
<path d="M39.0879 21.9639C37.3339 22.8075 34.1536 23.0746 31.999 23.0746C29.8443 23.0746 26.6642 22.8075 24.91 21.9639V24.7921C25.2014 25.2777 27.793 26.1334 31.9927 26.1334C36.1925 26.1334 38.8389 25.2534 39.0817 24.7739L39.0879 21.9639Z" fill="#151419"/>
<path d="M31.999 21.8119C36.2477 21.8119 38.8451 20.9439 39.0879 20.4584V17.6483C37.3339 18.498 34.1536 18.7529 31.999 18.7529C29.8443 18.7529 26.6642 18.498 24.91 17.6483V20.4523C25.1407 20.9379 27.7505 21.8119 31.999 21.8119Z" fill="#151419"/>
<path d="M24.91 26.2727V29.0828C25.1467 29.5683 27.7505 30.4484 31.999 30.4484C36.2475 30.4484 38.8451 29.5744 39.0879 29.0889V26.2727C37.3339 27.1224 34.1536 27.3895 31.999 27.3895C29.8443 27.3895 26.6642 27.1224 24.91 26.2727Z" fill="#151419"/>
</svg>
