<svg width="64" height="64" viewBox="0 0 64 64" fill="none" xmlns="http://www.w3.org/2000/svg">
<rect width="64" height="64" rx="32" fill="#BDCD36"/>
<path d="M47.2973 21.5119H38.9822V19.7723C38.9822 18.2436 37.7386 17 36.2099 17H27.7884C26.2597 17 25.0161 18.2436 25.0161 19.7723V21.5119H16.7027C15.2178 21.5119 14.0029 22.7268 14.0029 24.2117V27.011C13.9996 28.7 15.1469 30.168 16.7297 30.5932L29.7152 34.1382C30.5521 32.3378 33.4492 32.3429 34.2861 34.1382C34.6084 33.9931 48.3839 30.4362 48.1982 30.1966C49.2966 29.5403 49.9986 28.3422 49.9986 27.011C49.9986 27.011 50.0036 24.2825 49.9986 24.2656C50.0289 22.7622 48.8039 21.5102 47.2988 21.5119H47.2973ZM26.8182 19.7706C26.8182 19.2256 27.2451 18.7987 27.7901 18.7987H36.2116C36.7566 18.7987 37.1835 19.2256 37.1835 19.7706V21.5102H26.8182V19.7706Z" fill="black"/>
<path d="M31.3341 36.1074C31.4337 36.8734 32.5659 36.8734 32.6654 36.1074C32.6907 35.7665 32.8865 35.0325 32.5929 34.8115C32.4089 34.5095 31.5889 34.5095 31.405 34.8115C31.1114 35.0325 31.3071 35.7648 31.3324 36.1074H31.3341Z" fill="black"/>
<path d="M47.7283 32.3277L34.4909 35.9453L34.4454 36.3317C34.0539 39.185 29.9353 39.1833 29.5504 36.3233L29.5049 35.9453L16.2594 32.3193C15.4224 32.0982 14.6243 31.6612 14 31.0858V44.3586C14 45.8518 15.2149 47.0583 16.6997 47.0583H47.2944C48.7792 47.0583 49.9941 45.8518 49.9941 44.3586V31.0858C49.3648 31.6696 48.5734 32.1067 47.7263 32.3277L47.7283 32.3277Z" fill="black"/>
</svg>
