<svg width="64" height="64" viewBox="0 0 64 64" fill="none" xmlns="http://www.w3.org/2000/svg">
<rect width="64" height="64" rx="32" fill="white"/>
<path fill-rule="evenodd" clip-rule="evenodd" d="M36.0279 39.1651C35.431 39.1651 34.844 39.1203 34.2686 39.0374L33.8326 36.6846C32.5641 36.4309 31.3836 35.9318 30.3439 35.2388L28.4819 36.5188C27.6844 35.8804 26.9697 35.1442 26.3562 34.3268L27.6097 32.5045C26.9167 31.4649 26.4176 30.2843 26.1639 29.0159L24.0416 28.6229C23.9769 28.1189 23.9454 27.6049 23.9454 27.0825C23.9454 26.5602 23.9786 26.0462 24.0416 25.5422L26.1639 25.1492C26.4176 23.8808 26.9167 22.7002 27.6097 21.6606L26.3562 19.8383C26.9697 19.0209 27.6844 18.2847 28.4819 17.6463L30.3439 18.9263C31.3835 18.2333 32.5641 17.7342 33.8326 17.4805L34.2686 15.1277C34.8424 15.0448 35.431 15 36.0279 15C36.6264 15 37.2117 15.0448 37.7871 15.1277L38.2231 17.4805C39.4916 17.7342 40.6721 18.2333 41.7118 18.9263L43.5738 17.6463C44.3713 18.2847 45.086 19.0209 45.6978 19.8383L44.4443 21.6606C45.1374 22.7002 45.6365 23.8808 45.8901 25.1492L48.0108 25.5422C48.0755 26.0462 48.1087 26.5602 48.1087 27.0825C48.1087 27.6049 48.0755 28.1189 48.0108 28.6229L45.8901 29.0159C45.6365 30.2843 45.1374 31.4649 44.4443 32.5045L45.6978 34.3268C45.0843 35.1442 44.3697 35.8804 43.5738 36.5188L41.7118 35.2388C40.6722 35.9318 39.4916 36.4309 38.2231 36.6846L37.7871 39.0374C37.2134 39.122 36.6264 39.1651 36.0279 39.1651ZM22.2011 41.8446V45.9948C24.0416 45.9019 25.8721 46.6481 27.7872 47.4273C30.7784 48.646 33.9836 49.9509 37.5352 48.0093L47.9347 40.8944C48.1552 40.7435 48.258 40.5113 48.2481 40.2726C48.2414 40.1283 48.1934 39.9774 48.1055 39.8382L48.0939 39.8199C48.0027 39.6823 47.87 39.5563 47.6992 39.4601C47.2234 39.1915 46.459 39.1401 45.4094 39.5779L37.7605 42.7647C37.7621 42.9139 37.7472 43.0648 37.7157 43.2091C37.6543 43.4976 37.53 43.7745 37.3493 44.0116C36.9447 44.5389 36.2665 44.8771 35.3612 44.7395L28.6444 43.7198C28.4321 43.6883 28.2846 43.4893 28.3161 43.277C28.3476 43.0631 28.5465 42.9172 28.7588 42.9487L35.4756 43.9684C36.0609 44.058 36.4854 43.8574 36.7291 43.539C36.8402 43.3948 36.9148 43.2256 36.953 43.0482C36.9911 42.8692 36.9911 42.6834 36.9497 42.5061C36.8601 42.1197 36.57 41.7682 36.0493 41.624C34.0695 41.0768 32.4065 40.382 30.8793 39.7437C27.8781 38.4902 25.4159 37.4622 22.2124 38.3111L22.2011 41.8446ZM21.4219 46.5303C21.4119 46.4938 21.4053 46.4574 21.4053 46.4176L21.4219 42.589V37.0624H15.7513V47.3707H21.4202L21.4219 46.5303ZM19.3111 44.5373C19.6046 44.5373 19.8699 44.6567 20.0605 44.8474V44.849C20.2512 45.0413 20.3706 45.305 20.3706 45.5968C20.3706 45.8903 20.2512 46.1556 20.0605 46.3462C19.8698 46.5369 19.6046 46.6563 19.3111 46.6563C19.0193 46.6563 18.7556 46.5369 18.5633 46.3462H18.5616C18.3693 46.1539 18.2516 45.8886 18.2516 45.5968C18.2516 45.3033 18.371 45.038 18.5616 44.8474L18.5633 44.849C18.754 44.6567 19.0193 44.5373 19.3111 44.5373ZM37.9033 23.9224C37.9033 22.8878 37.0643 22.0504 36.0313 22.0504C34.9967 22.0504 34.1593 22.8894 34.1593 23.9224C34.1593 24.9571 34.9983 25.7944 36.0313 25.7944C37.0643 25.7944 37.9033 24.9554 37.9033 23.9224ZM31.8712 30.152H40.1866C40.1899 30.0873 40.1915 30.0226 40.1915 29.958C40.1915 27.6598 38.3279 25.7962 36.0297 25.7962C33.7316 25.7962 31.8679 27.6598 31.8679 29.958C31.8663 30.0243 31.8679 30.089 31.8712 30.152ZM36.028 20.4507C32.3653 20.4507 29.3957 23.4203 29.3957 27.083C29.3957 30.7458 32.3653 33.7171 36.028 33.7171C39.6907 33.7171 42.6621 30.7475 42.6621 27.083C42.6621 23.4203 39.6924 20.4507 36.028 20.4507Z" fill="#151419"/>
</svg>
