<svg width="64" height="64" viewBox="0 0 64 64" fill="none" xmlns="http://www.w3.org/2000/svg">
<rect width="64" height="64" rx="32" fill="white"/>
<path fill-rule="evenodd" clip-rule="evenodd" d="M35.3211 24.0445H31.8741C31.7611 22.3357 31.2518 20.78 30.586 19.473C30.5425 19.3878 30.4973 19.3026 30.4521 19.2192C30.4 19.1079 30.3461 18.9984 30.2905 18.8906C29.3553 17.0533 28.1107 15.7599 27.3285 15.3132C27.099 15.1828 27.0173 14.8908 27.1477 14.6596C27.278 14.4284 27.5701 14.3484 27.8013 14.4788C28.707 14.9951 30.1202 16.4413 31.144 18.4491C31.2796 16.7473 30.9163 15.3827 30.0541 14.3519C29.1259 13.2446 27.6083 12.4972 25.5 12.1078C25.2844 12.0678 25.0619 12.0313 24.8307 12C24.8655 14.6196 25.4026 16.523 26.4386 17.7121C27.1461 18.5238 28.1057 19.0071 29.3173 19.1653C29.4598 19.4017 29.5972 19.6502 29.7293 19.911C30.3359 21.1017 30.8018 22.5097 30.9131 24.0464H28.6359C28.3717 24.0464 28.1318 24.1542 27.9562 24.3298C27.7807 24.5053 27.6729 24.7452 27.6729 25.0094C27.6729 25.2736 27.7807 25.5152 27.9562 25.6891C28.1318 25.8646 28.3717 25.9724 28.6359 25.9724H35.3198C35.5841 25.9724 35.8239 25.8646 35.9995 25.6891C36.1751 25.5135 36.2828 25.2736 36.2828 25.0094C36.2828 24.7452 36.1751 24.5036 35.9995 24.3298C35.8239 24.1542 35.584 24.0464 35.3198 24.0464L35.3211 24.0445ZM32.0479 19.0471C32.0566 18.9828 32.0635 18.9202 32.0705 18.8576C32.2408 17.3244 32.0635 16.0068 31.5403 14.903C31.8723 14.3694 32.3486 13.8879 32.9709 13.4585C33.5862 13.0343 34.3424 12.6588 35.2394 12.3356C35.328 12.8188 35.3889 13.2777 35.4236 13.7123C35.5453 15.2577 35.3263 16.471 34.7665 17.3523C34.2207 18.211 33.329 18.7725 32.0948 19.0385L32.0496 19.0472L32.0479 19.0471ZM37.6954 38.5943C34.6708 39.7398 33.054 39.008 31.42 38.2658C30.1389 37.6852 28.8473 37.0994 26.7163 37.6313L22.2889 47.9028C22.0837 48.3791 22.016 48.8606 22.0837 49.3213C22.1515 49.7872 22.3584 50.2408 22.7008 50.6632C23.0485 51.0943 23.4848 51.4263 23.9889 51.6523C24.4965 51.8818 25.0753 52 25.7029 52H38.2969C38.9227 52 39.5015 51.8801 40.0109 51.6523C40.515 51.4264 40.9513 51.0926 41.2989 50.6632C41.6396 50.2408 41.8465 49.7854 41.916 49.3213C41.9838 48.8589 41.9178 48.3791 41.7109 47.9028L37.6989 38.5943L37.6954 38.5943ZM27.1786 36.5553L28.7622 32.8788C28.7883 32.8162 28.8022 32.7519 28.8022 32.6893V26.9319H35.1902V32.6893C35.1902 32.7658 35.2076 32.8353 35.2389 32.8997L37.3127 37.7146C34.6809 38.6933 33.2538 38.0466 31.8129 37.393C30.5214 36.8072 29.2177 36.2162 27.1787 36.5569L27.1786 36.5553ZM26.8571 47.623C26.9874 47.7533 27.0674 47.9324 27.0674 48.1323C27.0674 48.3304 26.9874 48.5112 26.8571 48.6416C26.7267 48.7719 26.5476 48.8519 26.3478 48.8519C26.1496 48.8519 25.9688 48.7719 25.8385 48.6416C25.7081 48.5112 25.6281 48.3322 25.6281 48.1323C25.6281 47.9341 25.7081 47.7533 25.8385 47.623C25.9688 47.4926 26.1479 47.4126 26.3478 47.4126C26.5459 47.4126 26.7267 47.4926 26.8571 47.623ZM26.3495 46.4514C26.8136 46.4514 27.2343 46.6391 27.5385 46.9433C27.8427 47.2475 28.0304 47.6682 28.0304 48.1323C28.0304 48.5965 27.8427 49.0171 27.5385 49.3213C27.2343 49.6255 26.8136 49.8133 26.3495 49.8133C25.8854 49.8133 25.4647 49.6255 25.1605 49.3213C24.8563 49.0171 24.6685 48.5965 24.6685 48.1323C24.6685 47.6682 24.8563 47.2475 25.1605 46.9433C25.4647 46.6391 25.8854 46.4514 26.3495 46.4514ZM32.6943 42.4811C32.8317 42.6184 32.9151 42.8079 32.9151 43.0165C32.9151 43.225 32.8299 43.4145 32.6943 43.5518C32.557 43.6892 32.3675 43.7726 32.159 43.7726C31.9504 43.7726 31.7609 43.6874 31.6236 43.5518C31.4863 43.4145 31.4028 43.225 31.4028 43.0165C31.4028 42.8079 31.488 42.6184 31.6236 42.4811C31.7609 42.3438 31.9504 42.2603 32.159 42.2603C32.3675 42.2603 32.557 42.3455 32.6943 42.4811ZM32.159 41.2973C32.6335 41.2973 33.0629 41.4902 33.374 41.8014C33.6852 42.1125 33.8781 42.5419 33.8781 43.0165C33.8781 43.491 33.6852 43.9204 33.374 44.2315C33.0629 44.5427 32.6335 44.7356 32.159 44.7356C31.6844 44.7356 31.2551 44.5427 30.9439 44.2315C30.6327 43.9204 30.4398 43.491 30.4398 43.0165C30.4398 42.5419 30.6327 42.1126 30.9439 41.8014C31.255 41.4902 31.6844 41.2973 32.159 41.2973ZM37.3321 47.5518C37.4173 47.637 37.4712 47.7569 37.4712 47.8873C37.4712 48.0194 37.419 48.1376 37.3321 48.2228C37.2469 48.308 37.127 48.3619 36.9966 48.3619C36.8645 48.3619 36.7463 48.3097 36.6611 48.2228C36.576 48.1376 36.5221 48.0177 36.5221 47.8873C36.5221 47.7552 36.576 47.637 36.6611 47.5518C36.7463 47.4666 36.8663 47.4127 36.9966 47.4127C37.1287 47.4127 37.2469 47.4666 37.3321 47.5518ZM36.9966 46.4514C37.393 46.4514 37.7528 46.6131 38.0118 46.8721C38.2725 47.1329 38.4324 47.4909 38.4324 47.8873C38.4324 48.2836 38.2725 48.6434 38.0118 48.9024C37.751 49.1631 37.393 49.3231 36.9966 49.3231C36.6003 49.3231 36.2405 49.1631 35.9815 48.9024C35.7207 48.6416 35.5608 48.2836 35.5608 47.8873C35.5608 47.4909 35.7208 47.1311 35.9815 46.8721C36.2422 46.6114 36.6003 46.4514 36.9966 46.4514Z" fill="#151419"/>
<circle cx="31.5194" cy="43.1258" r="2.22502" fill="white"/>
<circle cx="37.3045" cy="48.0208" r="1.33501" fill="white"/>
<circle cx="26.6244" cy="48.0209" r="1.78001" fill="white"/>
</svg>
