<svg width="64" height="64" viewBox="0 0 64 64" fill="none" xmlns="http://www.w3.org/2000/svg">
<rect width="64" height="64" rx="32" fill="white"/>
<path d="M38.6209 43.4624H30.1827C29.9428 43.4624 29.7477 43.6559 29.7477 43.8958V46.8411C29.7477 47.081 29.9428 47.276 30.1827 47.276H31.1825C31.4425 48.8206 32.7828 50 34.4017 50C36.0206 50 37.361 48.8206 37.6225 47.276H38.6223C38.8622 47.276 39.0573 47.081 39.0573 46.8411V43.8958C39.0573 43.6559 38.8638 43.4624 38.6223 43.4624H38.6209Z" fill="#151419"/>
<path d="M34.8351 20.9708C32.693 20.8856 30.6221 21.514 28.9227 22.7568C31.2644 24.7565 32.7503 27.7266 32.7503 31.0401C32.7503 34.2671 31.3372 37.1799 29.0945 39.1657C29.2369 39.4938 29.3654 39.808 29.466 40.1377L29.6517 40.6809C29.7523 40.9518 29.9798 41.1236 30.2662 41.1236H38.5356C38.8204 41.1236 39.0633 40.9518 39.15 40.6809L39.3358 40.1377C39.7923 38.7664 40.5213 37.4384 41.5923 36.0812C42.4064 35.0102 43.0487 33.7952 43.3923 32.4828C44.8348 26.614 40.4362 21.2295 34.838 20.9707L34.8351 20.9708ZM41.018 30.9257C40.9747 31.4117 40.5754 31.7537 40.0894 31.7537H39.9888C39.4749 31.6964 39.1174 31.2399 39.1746 30.7399C39.3031 29.5265 38.9734 28.3688 38.246 27.3829C37.517 26.3986 36.4615 25.7269 35.2899 25.4978C34.79 25.4111 34.4619 24.9267 34.5609 24.4129C34.6476 23.913 35.146 23.5848 35.6459 23.6839C37.2601 23.9842 38.7165 24.9128 39.7305 26.2701C40.7582 27.6414 41.2008 29.2541 41.0151 30.9257L41.018 30.9257Z" fill="#151419"/>
<path d="M34.4047 18.8939C35.0114 18.8939 35.5051 18.4001 35.5051 17.7934V15.1004C35.5051 14.4937 35.013 14 34.4047 14C33.798 14 33.3043 14.4937 33.3043 15.1004V17.7934C33.3043 18.4001 33.7965 18.8939 34.4047 18.8939Z" fill="#151419"/>
<path d="M27.2345 19.9925C27.4233 20.3346 27.8041 20.5234 28.1833 20.5234C28.3736 20.5234 28.5625 20.4847 28.7141 20.3717C29.245 20.0684 29.3967 19.3858 29.132 18.8921L27.7669 16.5783C27.4636 16.0474 26.781 15.8586 26.2873 16.1604C25.7564 16.4637 25.6047 17.1463 25.8694 17.64L27.2345 19.991L27.2345 19.9925Z" fill="#151419"/>
<path d="M48.0603 36.8737L45.7465 35.5086C45.2157 35.2052 44.5702 35.3956 44.2669 35.9265C43.9635 36.4573 44.1539 37.1028 44.6848 37.4061L46.9986 38.7712C47.189 38.8842 47.3407 38.9229 47.5295 38.9229C47.9086 38.9229 48.2879 38.734 48.4782 38.392C48.7815 37.8225 48.5912 37.1786 48.0603 36.8753L48.0603 36.8737Z" fill="#151419"/>
<path d="M49.5403 29.1353H46.8472C46.2405 29.1353 45.7468 29.6274 45.7468 30.2357C45.7468 30.8423 46.2405 31.3361 46.8472 31.3361H49.5403C50.147 31.3361 50.6407 30.8439 50.6407 30.2357C50.6407 29.629 50.1485 29.1353 49.5403 29.1353Z" fill="#151419"/>
<path d="M45.1787 25.1141C45.369 25.1141 45.5578 25.0754 45.7095 24.9624L48.0233 23.5973C48.5542 23.294 48.7059 22.6114 48.4412 22.1177C48.1379 21.5868 47.4553 21.4351 46.9616 21.6998L44.6478 23.0649C44.1169 23.3682 43.9652 24.0508 44.2299 24.5445C44.4574 24.8865 44.7995 25.1141 45.1787 25.1141Z" fill="#151419"/>
<path d="M40.0945 20.4106C40.2849 20.5236 40.4365 20.5623 40.6253 20.5623C41.0045 20.5623 41.3837 20.3734 41.5741 20.0314L42.9392 17.7176C43.2425 17.1867 43.0521 16.5413 42.5213 16.238C41.9904 15.9346 41.345 16.125 41.0416 16.6559L39.6766 18.9697C39.3732 19.4247 39.5636 20.1073 40.0945 20.4121L40.0945 20.4106Z" fill="#151419"/>
<path d="M21.859 22.1689C16.9622 22.1689 13 26.1311 13 31.0279C13 35.9248 16.9622 39.9242 21.859 39.9242C26.7558 39.9242 30.718 35.962 30.718 31.0652C30.718 26.1683 26.7558 22.1689 21.859 22.1689ZM25.9079 30.6598L21.0436 37.2006C20.635 37.7732 19.7357 37.3646 19.858 36.6681L20.7155 32.4584H18.3041C17.7733 32.4584 17.4467 31.8439 17.7733 31.3951L22.6376 24.8543C23.0462 24.2832 23.9455 24.6903 23.8232 25.3852L22.9642 29.5966H25.3755C25.908 29.5966 26.2345 30.2095 25.9079 30.6598Z" fill="#151419"/>
</svg>
