<svg width="25" height="24" viewBox="0 0 25 24" fill="none" xmlns="http://www.w3.org/2000/svg">
<path d="M5.48063 17.9142C4.8938 17.8997 4.35042 17.6133 4.01551 17.1427C3.66776 16.677 3.5739 16.0743 3.7626 15.5284L4.01551 14.7358C4.6705 13.1167 5.09532 11.4177 5.28007 9.68565H21.6136C21.4338 11.5863 20.9794 13.4533 20.2651 15.2295L19.7702 16.6798C19.5202 17.4166 18.8148 17.9142 18.0205 17.9142H5.48063ZM18.0106 19.4571H5.36404C5.49049 20.3404 6.26306 20.999 7.17691 21H19.8225C20.8391 20.9952 21.661 20.1919 21.667 19.2006V15.9701L21.256 17.1427C20.8025 18.5197 19.4915 19.4551 18.0096 19.4571L18.0106 19.4571ZM19.8225 4.02798H18.5056V3.77146C18.5056 3.34522 18.151 3 17.7153 3C17.2786 3 16.9249 3.34522 16.9249 3.77146V4.02894H14.2901V3.77146C14.2901 3.34522 13.9364 3 13.4997 3C13.0631 3 12.7094 3.34522 12.7094 3.77146V4.02894L10.0745 4.02797V3.77146C10.0745 3.34522 9.72088 3 9.2842 3C8.84851 3 8.49385 3.34522 8.49385 3.77146V4.02894L7.17694 4.02797C6.16036 4.03376 5.33839 4.83606 5.33245 5.82836V8.14273H21.666L21.667 5.82836C21.6611 4.83609 20.8391 4.03378 19.8225 4.02798Z" fill="#FDD900"/>
</svg>
