<svg width="64" height="64" viewBox="0 0 64 64" fill="none" xmlns="http://www.w3.org/2000/svg">
<rect width="64" height="64" rx="32" fill="#F6B1C6"/>
<path d="M32.6235 36.1448L45.1162 31.7494V38.644H45.1126C45.036 40.8064 39.1971 42.5518 32.002 42.5518C24.807 42.5518 18.9662 40.8064 18.8915 38.644H18.8878V31.7494L31.3805 36.143C31.581 36.2136 31.7907 36.2499 32.0039 36.2499C32.2172 36.2499 32.4269 36.2136 32.6274 36.143L32.6235 36.1448ZM50.6994 28.8024V32.1483C51.1242 32.286 51.4359 32.6793 51.4359 33.1469V35.3818C51.4359 35.737 51.2554 36.0506 50.9838 36.2427C51.1278 36.3823 51.9809 37.2958 52.4039 39.6901C52.8286 42.0881 52.9598 50.1863 52.9653 50.5288C52.969 50.7843 52.763 50.9964 52.5059 51H52.4986C52.2434 51 52.0356 50.797 52.032 50.5432C52.0301 50.4599 51.8952 42.1768 51.4851 39.8512C51.3794 39.2495 51.2426 38.7601 51.1023 38.3595C51.3866 42.3507 51.4577 50.1299 51.4614 50.5322C51.4632 50.7878 51.2572 50.998 50.9984 50.9998H50.9947C50.7395 50.9998 50.5299 50.795 50.528 50.5394C50.5025 47.5923 50.4132 42.5971 50.2327 39.3746C50.0541 42.5972 49.9629 47.5926 49.9374 50.5394C49.9356 50.795 49.726 50.9998 49.4708 50.9998H49.4671C49.2101 50.998 49.0023 50.7878 49.0041 50.5322C49.0077 50.128 49.0788 42.3486 49.3632 38.3595C49.2228 38.7601 49.0861 39.2513 48.9804 39.8512C48.5684 42.1767 48.4335 50.4597 48.4335 50.5432C48.4299 50.797 48.222 51 47.9668 51H47.9595C47.7025 50.9964 47.4965 50.7843 47.5002 50.5288C47.5056 50.1844 47.6369 42.0881 48.0616 39.6901C48.4845 37.2958 49.3377 36.3823 49.4817 36.2427C49.2082 36.0506 49.0296 35.737 49.0296 35.3818V33.1469C49.0296 32.6793 49.3413 32.286 49.7679 32.1483V29.1304L32.3136 35.271C32.2133 35.3073 32.1076 35.3236 32.0019 35.3236C31.8961 35.3236 31.7904 35.3055 31.6901 35.271L11.6216 28.2112C11.2479 28.0807 11 27.7291 11 27.3358V26.9878C11 26.5945 11.2497 26.2447 11.6216 26.1124L31.6883 19.0526C31.7885 19.0163 31.8943 19 32 19C32.1057 19 32.2115 19.0181 32.3117 19.0526L52.3784 26.1124C52.7521 26.2429 53 26.5945 53 26.9878V27.3358C53 27.7291 52.7503 28.079 52.3784 28.2112L50.6994 28.8024ZM32.3263 33.5584C37.3975 31.7658 45.1032 29.0235 50.2472 27.2057C50.3056 27.1876 50.2691 27.097 50.2162 27.1187C48.6376 27.4849 47.0936 27.9471 45.5314 28.3585C41.1163 29.6109 36.3548 31.1824 31.998 32.6904C26.0606 30.6368 19.874 28.6104 13.7817 27.1186C13.7252 27.0969 13.696 27.1893 13.7507 27.2057L22.8544 30.4319C24.3565 30.963 28.2267 32.3369 29.6813 32.8516C30.0568 32.9785 31.023 33.3355 31.3875 33.457C31.6755 33.5712 32.0219 33.6908 32.3245 33.5585L32.3263 33.5584Z" fill="#151419"/>
</svg>
