<svg width="12" height="7" viewBox="0 0 12 7" fill="none" xmlns="http://www.w3.org/2000/svg">
<path d="M6.59035 0.411044C6.44686 0.267563 6.25594 0.181371 6.05342 0.168636C5.8509 0.155902 5.65069 0.217501 5.49035 0.341877L5.41202 0.411044L0.412018 5.41104L0.342851 5.48938L0.297852 5.55354L0.252852 5.63354L0.238685 5.66354L0.216186 5.71938L0.189518 5.80938L0.181186 5.85354L0.172853 5.90354L0.16952 5.95104L0.167852 6.00021L0.16952 6.04938L0.173686 6.09771L0.181186 6.14771L0.189519 6.19104L0.216186 6.28104L0.238685 6.33688L0.29702 6.44688L0.351185 6.52188L0.412018 6.58938L0.490351 6.65854L0.554519 6.70354L0.634518 6.74854L0.66452 6.76271L0.720353 6.78521L0.810352 6.81188L0.854519 6.82021L0.90452 6.82854L0.952019 6.83188L1.00119 6.83354L11.0012 6.83354C11.7112 6.83354 12.082 6.01188 11.6537 5.48104L11.5904 5.41104L6.59035 0.411044Z" fill="white"/>
</svg>
