<svg width="17" height="17" viewBox="0 0 17 17" fill="none" xmlns="http://www.w3.org/2000/svg">
<path d="M2.11212 13.6452C1.5905 13.6324 1.10749 13.3778 0.809796 12.9595C0.500681 12.5455 0.417254 12.0097 0.584985 11.5246L0.809796 10.82C1.39201 9.38079 1.76962 7.87055 1.93385 6.33098H16.4526C16.2927 8.02046 15.8888 9.68002 15.2539 11.2589L14.8139 12.548C14.5917 13.2029 13.9647 13.6452 13.2587 13.6452H2.11212ZM13.2499 15.0167H2.00849C2.12089 15.8019 2.80762 16.3873 3.61993 16.3882H14.8605C15.7641 16.3839 16.4947 15.6699 16.5 14.7887V11.9171L16.1347 12.9595C15.7316 14.1835 14.5663 15.015 13.249 15.0167L13.2499 15.0167ZM14.8605 1.30194H13.6899V1.07392C13.6899 0.695045 13.3746 0.388185 12.9874 0.388185C12.5992 0.388185 12.2848 0.695045 12.2848 1.07392V1.3028H9.94275V1.07392C9.94275 0.695045 9.62837 0.388185 9.24021 0.388185C8.85206 0.388185 8.53768 0.695045 8.53768 1.07392V1.3028L6.1956 1.30194V1.07392C6.1956 0.695043 5.88123 0.388184 5.49307 0.388184C5.10579 0.388184 4.79054 0.695043 4.79054 1.07392V1.30279L3.61995 1.30194C2.71632 1.30708 1.98569 2.02024 1.98041 2.90229V4.9595H16.4991L16.5 2.90229C16.4947 2.02026 15.7641 1.3071 14.8605 1.30194Z" fill="black"/>
</svg>
