<svg width="24" height="24" viewBox="0 0 24 24" fill="none" xmlns="http://www.w3.org/2000/svg">
<path d="M11.2908 15.7071C11.463 15.8793 11.6921 15.9827 11.9351 15.998C12.1781 16.0133 12.4184 15.9394 12.6108 15.7901L12.7048 15.7071L18.7048 9.70714L18.7878 9.61314L18.8418 9.53614L18.8958 9.44014L18.9128 9.40414L18.9398 9.33714L18.9718 9.22914L18.9818 9.17614L18.9918 9.11614L18.9958 9.05914L18.9978 9.00014L18.9958 8.94114L18.9908 8.88314L18.9818 8.82314L18.9718 8.77114L18.9398 8.66314L18.9128 8.59614L18.8428 8.46414L18.7778 8.37414L18.7048 8.29314L18.6108 8.21014L18.5338 8.15614L18.4378 8.10214L18.4018 8.08514L18.3348 8.05814L18.2268 8.02614L18.1738 8.01614L18.1138 8.00614L18.0568 8.00214L17.9978 8.00014H5.9978C5.1458 8.00014 4.7008 8.98614 5.2148 9.62314L5.2908 9.70714L11.2908 15.7071Z" fill="#151419"/>
</svg>
