<svg width="16" height="16" viewBox="0 0 16 16" fill="none" xmlns="http://www.w3.org/2000/svg">
<path d="M9.87992 7.99984L15.6132 2.27984C15.8643 2.02877 16.0054 1.68824 16.0054 1.33317C16.0054 0.978105 15.8643 0.637579 15.6132 0.386507C15.3622 0.135435 15.0217 -0.00561523 14.6666 -0.00561523C14.3115 -0.00561523 13.971 0.135435 13.7199 0.386507L7.99992 6.11984L2.27992 0.386507C2.02885 0.135435 1.68832 -0.00561524 1.33325 -0.00561523C0.978183 -0.00561523 0.637657 0.135435 0.386585 0.386507C0.135514 0.637579 -0.00553703 0.978105 -0.00553703 1.33317C-0.00553704 1.68824 0.135514 2.02877 0.386585 2.27984L6.11992 7.99984L0.386585 13.7198C0.261614 13.8438 0.162422 13.9913 0.0947304 14.1537C0.0270388 14.3162 -0.0078125 14.4905 -0.0078125 14.6665C-0.0078125 14.8425 0.0270388 15.0168 0.0947304 15.1793C0.162422 15.3418 0.261614 15.4892 0.386585 15.6132C0.510536 15.7381 0.658004 15.8373 0.820483 15.905C0.982962 15.9727 1.15724 16.0076 1.33325 16.0076C1.50927 16.0076 1.68354 15.9727 1.84602 15.905C2.0085 15.8373 2.15597 15.7381 2.27992 15.6132L7.99992 9.87984L13.7199 15.6132C13.8439 15.7381 13.9913 15.8373 14.1538 15.905C14.3163 15.9727 14.4906 16.0076 14.6666 16.0076C14.8426 16.0076 15.0169 15.9727 15.1794 15.905C15.3418 15.8373 15.4893 15.7381 15.6132 15.6132C15.7382 15.4892 15.8374 15.3418 15.9051 15.1793C15.9728 15.0168 16.0076 14.8425 16.0076 14.6665C16.0076 14.4905 15.9728 14.3162 15.9051 14.1537C15.8374 13.9913 15.7382 13.8438 15.6132 13.7198L9.87992 7.99984Z" fill="black"/>
</svg>
