<svg width="10" height="10" viewBox="0 0 10 10" fill="none" xmlns="http://www.w3.org/2000/svg">
<path d="M6.17495 5.00048L9.75828 1.42548C9.9152 1.26856 10.0034 1.05573 10.0034 0.833813C10.0034 0.611895 9.9152 0.399066 9.75828 0.242147C9.60136 0.085227 9.38853 -0.00292969 9.16662 -0.00292969C8.9447 -0.00292969 8.73187 0.085227 8.57495 0.242147L4.99995 3.82548L1.42495 0.242147C1.26803 0.085227 1.0552 -0.00292969 0.833282 -0.00292969C0.611364 -0.00292969 0.398536 0.085227 0.241616 0.242147C0.084696 0.399066 -0.00346064 0.611895 -0.00346065 0.833813C-0.00346065 1.05573 0.084696 1.26856 0.241616 1.42548L3.82495 5.00048L0.241616 8.57548C0.163509 8.65295 0.101514 8.74512 0.0592065 8.84666C0.0168993 8.94821 -0.00488281 9.05714 -0.00488281 9.16715C-0.00488281 9.27716 0.0168993 9.38608 0.0592065 9.48763C0.101514 9.58918 0.163509 9.68134 0.241616 9.75881C0.319085 9.83692 0.411252 9.89891 0.512802 9.94122C0.614351 9.98353 0.723273 10.0053 0.833282 10.0053C0.943292 10.0053 1.05221 9.98353 1.15376 9.94122C1.25531 9.89891 1.34748 9.83692 1.42495 9.75881L4.99995 6.17548L8.57495 9.75881C8.65242 9.83692 8.74459 9.89891 8.84613 9.94122C8.94768 9.98353 9.05661 10.0053 9.16662 10.0053C9.27663 10.0053 9.38555 9.98353 9.4871 9.94122C9.58865 9.89891 9.68081 9.83692 9.75828 9.75881C9.83639 9.68134 9.89839 9.58918 9.94069 9.48763C9.983 9.38608 10.0048 9.27716 10.0048 9.16715C10.0048 9.05714 9.983 8.94821 9.94069 8.84666C9.89839 8.74512 9.83639 8.65295 9.75828 8.57548L6.17495 5.00048Z" fill="white"/>
</svg>
