<svg width="9" height="6" viewBox="0 0 9 6" fill="none" xmlns="http://www.w3.org/2000/svg">
<path d="M4.93245 4.93244C4.82225 5.04263 4.67562 5.10883 4.52009 5.11861C4.36455 5.12839 4.21079 5.08108 4.08765 4.98556L4.02749 4.93244L0.18749 1.09244L0.134369 1.03228L0.09981 0.983001L0.0652498 0.921561L0.0543693 0.898521L0.0370907 0.855641L0.0166096 0.786521L0.0102104 0.752601L0.00381031 0.714201L0.00125066 0.677721L-3.01259e-05 0.639961L0.00125066 0.602201L0.00445024 0.565081L0.0102104 0.526681L0.0166096 0.493401L0.0370907 0.424281L0.0543694 0.381401L0.0991702 0.296921L0.140769 0.239321L0.18749 0.187481L0.24765 0.134361L0.296931 0.0998013L0.358369 0.0652415L0.38141 0.0543611L0.42429 0.037081L0.49341 0.0166013L0.52733 0.0102012L0.565731 0.00380109L0.60221 0.00124095L0.63997 -3.88744e-05L8.31997 -3.8203e-05C8.86525 -3.81553e-05 9.15005 0.631002 8.82109 1.03868L8.77245 1.09244L4.93245 4.93244Z" fill="#151419"/>
</svg>
