<svg width="24" height="24" viewBox="0 0 24 24" fill="none" xmlns="http://www.w3.org/2000/svg">
<path fill-rule="evenodd" clip-rule="evenodd" d="M4 12C4 7.58173 7.58173 4 12 4C16.4183 4 20 7.58173 20 12C20 16.4183 16.4183 20 12 20C7.58173 20 4 16.4183 4 12ZM12.5333 8.13333C12.5333 7.83877 12.2946 7.6 12 7.6C11.7054 7.6 11.4667 7.83877 11.4667 8.13333V12C11.4667 12.1414 11.5229 12.2771 11.6229 12.3771L14.0229 14.7771C14.2311 14.9854 14.5689 14.9854 14.7771 14.7771C14.9854 14.5689 14.9854 14.2311 14.7771 14.0229L12.5333 11.7791V8.13333Z" fill="#151419"/>
</svg>
