<svg width="18" height="18" viewBox="0 0 18 18" fill="none" xmlns="http://www.w3.org/2000/svg">
<path fill-rule="evenodd" clip-rule="evenodd" d="M0 9C0 4.02945 4.02945 0 9 0C13.9706 0 18 4.02945 18 9C18 13.9706 13.9706 18 9 18C4.02945 18 0 13.9706 0 9ZM9.6 4.65C9.6 4.31862 9.33138 4.05 9 4.05C8.66862 4.05 8.4 4.31862 8.4 4.65V9C8.4 9.15912 8.46321 9.31173 8.57574 9.42426L11.2757 12.1243C11.51 12.3586 11.89 12.3586 12.1243 12.1243C12.3586 11.89 12.3586 11.51 12.1243 11.2757L9.6 8.75148V4.65Z" fill="#FDD900"/>
</svg>
