<svg width="13" height="13" viewBox="0 0 13 13" fill="none" xmlns="http://www.w3.org/2000/svg">
<path d="M6.17218 0.130934C6.2555 -0.0436626 6.50402 -0.0436628 6.58734 0.130934L8.3421 3.80833C8.37564 3.8786 8.44244 3.92713 8.51962 3.93731L12.5593 4.46981C12.7511 4.49509 12.8279 4.73146 12.6876 4.86465L9.73242 7.66991C9.67595 7.72351 9.65044 7.80204 9.66461 7.87859L10.4065 11.8851C10.4417 12.0753 10.2407 12.2214 10.0706 12.1291L6.48947 10.1855C6.42105 10.1483 6.33848 10.1483 6.27005 10.1855L2.68889 12.1291C2.51886 12.2214 2.3178 12.0753 2.35302 11.8851L3.09491 7.87859C3.10908 7.80204 3.08357 7.72351 3.0271 7.66991L0.0719405 4.86465C-0.0683657 4.73146 0.00843334 4.49509 0.20023 4.46981L4.2399 3.93731C4.31709 3.92713 4.38389 3.8786 4.41742 3.80833L6.17218 0.130934Z" fill="#333333"/>
</svg>
