<svg width="70" height="70" viewBox="0 0 70 70" fill="none" xmlns="http://www.w3.org/2000/svg">
<circle cx="35" cy="35" r="35" fill="white"/>
<path d="M44.7071 26.7071C44.3166 26.3166 43.6834 26.3166 43.2929 26.7071L35 35.0001L26.7071 26.7071C26.3166 26.3166 25.6834 26.3166 25.2929 26.7071C24.9024 27.0976 24.9024 27.7308 25.2929 28.1213L33.5858 35.4142L25.2929 43.7071C24.9024 44.0976 24.9024 44.7308 25.2929 45.1213C25.6834 45.5118 26.3166 45.5118 26.7071 45.1213L35 36.8284L43.2929 45.1213C43.6834 45.5118 44.3166 45.5118 44.7071 45.1213C45.0976 44.7308 45.0976 44.0976 44.7071 43.7071L36.4142 35.4142L44.7071 28.1213C45.0976 27.7308 45.0976 27.0976 44.7071 26.7071Z" fill="#151419" stroke="#151419" stroke-width="0.5"/>
</svg>
