<svg width="47" height="46" viewBox="0 0 47 46" fill="none" xmlns="http://www.w3.org/2000/svg">
<rect x="0.0761719" width="46" height="46" rx="23" fill="#F6B1C6"/>
<path d="M35.4836 31.2651C35.4458 31.9812 35.1261 32.6533 34.5945 33.1346C34.0629 33.6158 33.3625 33.8673 32.6462 33.8339H10.8198C10.0813 33.8397 9.36712 33.5704 8.8163 33.0784C8.55703 32.8523 8.34866 32.5737 8.20492 32.2612C8.06118 31.9486 7.98535 31.6091 7.98242 31.2651C7.99206 31.1002 8.06607 30.9456 8.18853 30.8346C8.31099 30.7237 8.4721 30.6653 8.63721 30.6719H17.351C17.45 30.6747 17.5465 30.7037 17.6308 30.7558C17.9859 31.0026 18.3981 31.1548 18.8284 31.198H24.6432C25.0791 31.216 25.5073 31.0792 25.852 30.8118C25.947 30.7305 26.0684 30.6867 26.1934 30.6887L33.8326 30.6719H34.8288C34.9939 30.6653 35.155 30.7237 35.2775 30.8346C35.4 30.9456 35.474 31.1002 35.4836 31.2651Z" fill="#151419"/>
<path d="M21.772 22.0429C22.1815 22.0429 22.5818 21.9214 22.9223 21.6938C23.2627 21.4663 23.5281 21.1429 23.6847 20.7645C23.8414 20.3861 23.8824 19.9698 23.8024 19.5682C23.7225 19.1666 23.5252 18.7976 23.2356 18.5081C22.946 18.2186 22.577 18.0214 22.1754 17.9416C21.7737 17.8617 21.3574 17.9028 20.9791 18.0596C20.6008 18.2163 20.2774 18.4818 20.05 18.8223C19.8225 19.1628 19.7011 19.5632 19.7012 19.9727C19.7018 20.5216 19.9202 21.0479 20.3084 21.4361C20.6967 21.8242 21.223 22.0424 21.772 22.0429Z" fill="#151419"/>
<path d="M24.1988 24.9766H19.3489C18.8406 24.9771 18.3533 25.1793 17.9938 25.5387C17.6344 25.8982 17.4322 26.3855 17.4316 26.8938V27.5141H26.1161V26.8938C26.1155 26.3855 25.9133 25.8982 25.5539 25.5388C25.1944 25.1793 24.7071 24.9772 24.1988 24.9766Z" fill="#151419"/>
<path d="M32.0741 19.3893C31.4538 19.3903 30.835 19.3284 30.2272 19.2047C29.1932 19.8741 28.0159 20.2901 26.791 20.4191C26.735 20.4247 26.679 20.4303 26.6287 20.4303C26.3921 20.4301 26.1605 20.3622 25.9613 20.2345C25.7621 20.1068 25.6037 19.9248 25.5048 19.7098C25.4058 19.4949 25.3706 19.2562 25.4031 19.0218C25.4357 18.7875 25.5347 18.5674 25.6884 18.3876C25.9793 18.034 26.1946 17.6244 26.3209 17.1843C25.9582 16.8179 25.6526 16.3991 25.4142 15.9419H10.3317C10.134 15.9557 9.94968 16.0469 9.81874 16.1956C9.68779 16.3444 9.62074 16.5387 9.6321 16.7366V29.5582H17.3497C17.6604 29.5577 17.965 29.645 18.2283 29.81C18.4077 29.939 18.6114 30.0304 18.8271 30.0786H24.6419C24.803 30.0876 24.9635 30.0528 25.1064 29.9779C25.4039 29.7134 25.7885 29.5679 26.1865 29.5694L33.8314 29.5582V19.2214C33.2525 19.3349 32.6639 19.3911 32.0741 19.3893ZM21.7709 16.7814C22.4018 16.7814 23.0186 16.9685 23.5432 17.319C24.0678 17.6695 24.4766 18.1677 24.7181 18.7506C24.9595 19.3335 25.0227 19.9749 24.8996 20.5937C24.7765 21.2125 24.4727 21.7809 24.0266 22.227C23.5804 22.6732 23.012 22.977 22.3932 23.1001C21.7744 23.2232 21.133 23.16 20.5501 22.9185C19.9672 22.6771 19.469 22.2682 19.1185 21.7436C18.768 21.219 18.5809 20.6023 18.5809 19.9714C18.5815 19.1255 18.9177 18.3145 19.5159 17.7163C20.114 17.1182 20.925 16.7819 21.7709 16.7814ZM27.2331 28.0751C27.2327 28.2234 27.1735 28.3655 27.0687 28.4704C26.9638 28.5752 26.8217 28.6343 26.6734 28.6347H16.874C16.8004 28.635 16.7275 28.6207 16.6595 28.5927C16.5915 28.5646 16.5297 28.5234 16.4777 28.4714C16.4256 28.4194 16.3844 28.3576 16.3564 28.2896C16.3284 28.2216 16.3141 28.1487 16.3143 28.0751V26.8942C16.3147 26.0894 16.6343 25.3175 17.2029 24.7479C17.7715 24.1782 18.5428 23.8572 19.3476 23.8553H24.1998C25.0046 23.8572 25.7759 24.1782 26.3445 24.7479C26.9131 25.3175 27.2327 26.0894 27.2331 26.8942V28.0751Z" fill="#151419"/>
<path d="M32.0753 9.34375C28.6838 9.34375 25.9863 11.3697 25.9863 13.8098C25.9939 14.5829 26.2555 15.3321 26.7307 15.942C26.9259 16.2095 27.1512 16.4536 27.4022 16.6696C27.6429 16.8766 27.3183 18.2142 26.5348 19.1208C26.5204 19.1397 26.512 19.1623 26.5106 19.186C26.5091 19.2096 26.5148 19.2332 26.5268 19.2536C26.5388 19.274 26.5566 19.2904 26.578 19.3006C26.5993 19.3109 26.6233 19.3145 26.6467 19.3111C27.8675 19.1596 29.0332 18.714 30.0438 18.0127C30.7071 18.1854 31.3899 18.2719 32.0753 18.2702C32.6662 18.2705 33.2555 18.2067 33.8326 18.0799C36.3398 17.5314 38.1699 15.8245 38.1699 13.8098C38.1699 11.3417 35.4388 9.34935 32.0753 9.34375ZM28.8954 12.1448H31.7051C31.8535 12.1448 31.9959 12.2038 32.1008 12.3087C32.2058 12.4137 32.2648 12.556 32.2648 12.7044C32.2648 12.8529 32.2058 12.9952 32.1008 13.1002C31.9959 13.2051 31.8535 13.2641 31.7051 13.2641H28.8954C28.747 13.2641 28.6046 13.2051 28.4997 13.1002C28.3947 12.9952 28.3357 12.8529 28.3357 12.7044C28.3357 12.556 28.3947 12.4137 28.4997 12.3087C28.6046 12.2038 28.747 12.1448 28.8954 12.1448ZM35.0769 15.3688H28.8954C28.747 15.3688 28.6046 15.3098 28.4997 15.2049C28.3947 15.0999 28.3357 14.9576 28.3357 14.8091C28.3357 14.6607 28.3947 14.5184 28.4997 14.4134C28.6046 14.3085 28.747 14.2495 28.8954 14.2495H35.0769C35.2253 14.2495 35.3677 14.3085 35.4726 14.4134C35.5776 14.5184 35.6366 14.6607 35.6366 14.8091C35.6366 14.9576 35.5776 15.0999 35.4726 15.2049C35.3677 15.3098 35.2254 15.3688 35.0769 15.3688Z" fill="#151419"/>
</svg>
