<svg width="48" height="48" viewBox="0 0 48 48" fill="none" xmlns="http://www.w3.org/2000/svg">
<rect width="48" height="48" rx="24" fill="black" fill-opacity="0.1"/>
<path d="M34.484 34.4274H33.4987V21.7832C33.4987 21.0442 32.8966 20.4421 32.1576 20.4421H30.8987C30.1871 18.4989 27.6692 17.0211 24.6313 16.8568V14.8863H27.3682C27.6419 14.8863 27.8882 14.6674 27.8882 14.3663V12.4505C27.8882 12.1768 27.6692 11.9305 27.3682 11.9305H24.6313V11.5474C24.6313 11.2463 24.385 11 24.084 11C23.7829 11 23.5366 11.2463 23.5366 11.5474V16.8842C20.4713 17.0484 17.9808 18.5263 17.2692 20.4695H16.0103C15.2713 20.4695 14.6692 21.0716 14.6692 21.8105V34.4547H13.684C13.3008 34.4547 12.9998 34.7558 12.9998 35.1389V36.3158C12.9998 36.6989 13.3008 37 13.684 37H34.484C34.8671 37 35.1682 36.6989 35.1682 36.3158V35.1389C35.1955 34.7558 34.8671 34.4274 34.484 34.4274ZM20.444 31.7453C20.444 31.9642 20.2524 32.1558 20.0334 32.1558H17.8713C17.6524 32.1558 17.4608 31.9642 17.4608 31.7453V29.5832C17.4608 29.3642 17.6524 29.1726 17.8713 29.1726H20.0334C20.2524 29.1726 20.444 29.3642 20.444 29.5832V31.7453ZM20.444 26.08C20.444 26.2989 20.2524 26.4905 20.0334 26.4905H17.8713C17.6524 26.4905 17.4608 26.2989 17.4608 26.08V23.9179C17.4608 23.6989 17.6524 23.5074 17.8713 23.5074H20.0334C20.2524 23.5074 20.444 23.6989 20.444 23.9179V26.08ZM25.5619 34.4274H22.6061V29.5832C22.6061 29.3642 22.7977 29.1726 23.0166 29.1726H25.1787C25.3977 29.1726 25.5892 29.3642 25.5892 29.5832V34.4274H25.5619ZM25.5619 26.08C25.5619 26.2989 25.3703 26.4905 25.1513 26.4905H22.9892C22.7703 26.4905 22.5787 26.2989 22.5787 26.08V23.9179C22.5787 23.6989 22.7703 23.5074 22.9892 23.5074H25.1513C25.3703 23.5074 25.5619 23.6989 25.5619 23.9179V26.08ZM30.6798 31.7453C30.6798 31.9642 30.4882 32.1558 30.2692 32.1558H28.1071C27.8882 32.1558 27.6966 31.9642 27.6966 31.7453V29.5832C27.6966 29.3642 27.8882 29.1726 28.1071 29.1726H30.2692C30.4882 29.1726 30.6798 29.3642 30.6798 29.5832V31.7453ZM30.6798 26.08C30.6798 26.2989 30.4882 26.4905 30.2692 26.4905H28.1071C27.8882 26.4905 27.6966 26.2989 27.6966 26.08V23.9179C27.6966 23.6989 27.8882 23.5074 28.1071 23.5074H30.2692C30.4882 23.5074 30.6798 23.6989 30.6798 23.9179V26.08Z" fill="black"/>
</svg>
