<svg width="48" height="48" viewBox="0 0 48 48" fill="none" xmlns="http://www.w3.org/2000/svg">
<rect width="48" height="48" rx="24" fill="#151419" fill-opacity="0.5"/>
<rect x="0.5" y="0.5" width="47" height="47" rx="23.5" stroke="white" stroke-opacity="0.5"/>
<path fill-rule="evenodd" clip-rule="evenodd" d="M17.8632 28.3793C18.0167 28.5319 18.1728 28.6265 18.401 28.6265H23.9418L29.0984 33.7831C29.5486 34.2333 30.3093 33.9054 30.3093 33.2809V31.2513L32.8551 33.7971C33.4753 34.4172 34.4172 33.4753 33.7971 32.8551L15.1449 14.2029C14.5247 13.5828 13.5828 14.5247 14.2029 15.1449L18.4314 19.3734C18.0029 19.3734 17.6907 19.6848 17.6907 20.0829V27.9162C17.6907 28.0879 17.7522 28.2509 17.8632 28.3793ZM30.3093 27.4833L22.1994 19.3734H23.9411L29.0977 14.2167C29.5479 13.7665 30.3086 14.0944 30.3086 14.7189L30.3093 27.4833Z" fill="white"/>
</svg>
