<svg width="48" height="49" viewBox="0 0 48 49" fill="none" xmlns="http://www.w3.org/2000/svg">
<g clip-path="url(#clip0_4086_7920)">
<rect y="48.082" width="48" height="48" rx="24" transform="rotate(-90 0 48.082)" fill="#212025"/>
<path d="M33.1298 22.9908L27.2631 17.3337C26.6382 16.7312 25.6251 16.7312 25.0003 17.3337C24.3754 17.9363 24.3754 18.9132 25.0003 19.5157L28.1356 22.5388L15.9984 22.5388C15.1148 22.5388 14.3984 23.2296 14.3984 24.0816C14.3984 24.9337 15.1148 25.6245 15.9984 25.6245L28.1356 25.6245L25.0005 28.648C24.3756 29.2505 24.3756 30.2274 25.0005 30.8299C25.6253 31.4325 26.6385 31.4325 27.2633 30.8299L33.13 25.1729C33.7546 24.5702 33.7546 23.5933 33.1298 22.9908Z" fill="white"/>
</g>
<rect x="0.5" y="47.582" width="47" height="47" rx="23.5" transform="rotate(-90 0.5 47.582)" stroke="#F7F6F6" stroke-opacity="0.2"/>
<defs>
<clipPath id="clip0_4086_7920">
<rect y="48.082" width="48" height="48" rx="24" transform="rotate(-90 0 48.082)" fill="white"/>
</clipPath>
</defs>
</svg>
