<svg width="48" height="49" viewBox="0 0 48 49" fill="none" xmlns="http://www.w3.org/2000/svg">
<g clip-path="url(#clip0_1_3054)">
<rect width="48" height="48" rx="24" transform="matrix(4.37114e-08 -1 -1 -4.37114e-08 48 48.9414)" fill="white"/>
<path d="M14.8702 23.8504L20.7369 18.1933C21.3618 17.5908 22.3749 17.5908 22.9997 18.1933C23.6246 18.7959 23.6246 19.7728 22.9997 20.3753L19.8644 23.3984L32.0016 23.3984C32.8852 23.3984 33.6016 24.0892 33.6016 24.9412C33.6016 25.7933 32.8852 26.4841 32.0016 26.4841L19.8644 26.4841L22.9995 29.5076C23.6244 30.1101 23.6244 31.087 22.9995 31.6896C22.3747 32.2921 21.3615 32.2921 20.7367 31.6896L14.87 26.0325C14.2454 25.4298 14.2454 24.4529 14.8702 23.8504Z" fill="black"/>
</g>
<rect x="-0.5" y="-0.5" width="47" height="47" rx="23.5" transform="matrix(4.37114e-08 -1 -1 -4.37114e-08 47 47.9414)" stroke="#151419" stroke-opacity="0.2"/>
<defs>
<clipPath id="clip0_1_3054">
<rect width="48" height="48" rx="24" transform="matrix(4.37114e-08 -1 -1 -4.37114e-08 48 48.9414)" fill="white"/>
</clipPath>
</defs>
</svg>
