<svg width="64" height="64" viewBox="0 0 64 64" fill="none" xmlns="http://www.w3.org/2000/svg">
<rect width="64" height="64" rx="32" fill="#F6B1C6"/>
<path fill-rule="evenodd" clip-rule="evenodd" d="M32.8066 32.7714C32.8055 32.7714 32.8046 32.7705 32.8045 32.7694C32.8027 32.6971 32.8152 32.6251 32.8414 32.5576C32.8679 32.4895 32.9077 32.4274 32.9585 32.375C33.0094 32.3226 33.0702 32.281 33.1374 32.2525C33.2047 32.2241 33.2769 32.2094 33.3499 32.2094C33.4229 32.2094 33.4951 32.2241 33.5623 32.2525C33.6296 32.281 33.6904 32.3226 33.7412 32.375C33.7921 32.4274 33.8319 32.4895 33.8584 32.5576C33.8848 32.6257 33.8973 32.6984 33.8952 32.7714V34.1527C33.8952 34.1811 33.9172 34.2047 33.9455 34.2069C34.741 34.2698 35.5172 34.4856 36.2314 34.8427C37.0376 35.2204 37.686 35.8692 38.0635 36.6761C38.0945 36.7424 38.1118 36.8144 38.1143 36.8875C38.1168 36.9607 38.1045 37.0337 38.0782 37.102C38.0518 37.1703 38.012 37.2326 37.961 37.2851C37.91 37.3376 37.849 37.3793 37.7815 37.4076C37.7141 37.4359 37.6416 37.4503 37.5685 37.45C37.4953 37.4496 37.423 37.4344 37.3558 37.4053C37.2887 37.3763 37.2281 37.334 37.1777 37.2809C37.1273 37.2278 37.0881 37.1651 37.0625 37.0965C36.783 36.5267 36.3146 36.0716 35.7372 35.8091C34.9952 35.4458 34.1784 35.2619 33.3525 35.2724C32.3659 35.2512 31.395 35.5218 30.5613 36.0502C30.2647 36.2202 30.0145 36.4605 29.8324 36.7499C29.6633 37.0186 29.5579 37.322 29.5235 37.637C29.5182 37.6857 29.5182 37.7349 29.5236 37.7836C29.5579 38.0985 29.6634 38.4018 29.8325 38.6704C30.0146 38.9598 30.2648 39.2 30.5613 39.37C31.3949 39.8986 32.3659 40.1691 33.3525 40.1477C34.5578 40.128 35.7421 40.4654 36.7564 41.1175C37.2167 41.3675 37.6011 41.7373 37.869 42.1878C38.1369 42.6383 38.2783 43.1528 38.2783 43.6771C38.2783 44.2013 38.1369 44.7159 37.869 45.1664C37.6011 45.6169 37.2167 45.9867 36.7564 46.2367C35.9447 46.7645 35.0174 47.0857 34.0554 47.1735C33.9606 47.1821 33.898 47.2794 33.8975 47.3746V48.6185C33.8997 48.6915 33.8871 48.7642 33.8607 48.8323C33.8343 48.9004 33.7944 48.9625 33.7436 49.0149C33.6927 49.0673 33.6319 49.109 33.5647 49.1374C33.4974 49.1659 33.4252 49.1805 33.3522 49.1805C33.2792 49.1805 33.207 49.1659 33.1398 49.1374C33.0725 49.109 33.0117 49.0673 32.9609 49.0149C32.91 48.9625 32.8702 48.9004 32.8437 48.8323C32.8173 48.7642 32.8048 48.6915 32.8069 48.6185V47.3746C32.8068 47.279 32.7443 47.1815 32.6492 47.1723C31.8869 47.0985 31.1443 46.8841 30.4591 46.5394C29.6496 46.1565 29.0018 45.499 28.6306 44.6835C28.6038 44.6174 28.5902 44.5466 28.5907 44.4753C28.5912 44.404 28.6057 44.3334 28.6334 44.2677C28.6611 44.2019 28.7015 44.1423 28.7522 44.0922C28.8029 44.0421 28.863 44.0024 28.9291 43.9756C28.9951 43.9487 29.0658 43.9351 29.1371 43.9356C29.2083 43.9361 29.2788 43.9506 29.3445 43.9783C29.4102 44.0061 29.4698 44.0465 29.5198 44.0973C29.5699 44.148 29.6095 44.2082 29.6363 44.2743C29.9115 44.848 30.379 45.3069 30.9575 45.571C31.7023 45.9392 32.5237 46.1255 33.3543 46.1147C34.3408 46.1362 35.3116 45.8656 36.145 45.337C36.4578 45.1871 36.7219 44.9518 36.9067 44.6581C37.0916 44.3644 37.1897 44.0244 37.1897 43.6773C37.1897 43.3302 37.0916 42.9902 36.9067 42.6965C36.7219 42.4028 36.4578 42.1675 36.145 42.0176C35.3116 41.4888 34.3408 41.2181 33.3543 41.2394C32.148 41.26 30.9626 40.9225 29.9476 40.2697C29.4874 40.0196 29.1031 39.6497 28.8353 39.1992C28.5676 38.7488 28.4262 38.2343 28.4262 37.7101C28.4262 37.1859 28.5676 36.6714 28.8353 36.2209C29.1031 35.7704 29.4874 35.4006 29.9476 35.1505C30.79 34.6027 31.757 34.2776 32.7584 34.2052C32.7867 34.2031 32.8088 34.1797 32.8088 34.1513V32.7736C32.8088 32.7724 32.8078 32.7714 32.8066 32.7714ZM41.3331 32.7023C39.4855 30.853 37.0545 29.7021 34.4542 29.4458C31.854 29.1894 29.2454 29.8435 27.0729 31.2965C24.9004 32.7495 23.2985 34.9116 22.54 37.4143C21.7816 39.9171 21.9136 42.6056 22.9135 45.0218C23.9135 47.4381 25.7195 49.4325 28.0238 50.6653C30.3282 51.8981 32.9883 52.293 35.5509 51.7827C38.1135 51.2724 40.4201 49.8885 42.0776 47.8667C43.7351 45.845 44.6409 43.3105 44.6408 40.6952C44.6428 39.2105 44.3515 37.74 43.7839 36.3683C43.2162 34.9966 42.3833 33.7508 41.3331 32.7023ZM43.9142 15.3465L33.6516 12.0957C33.4551 12.0334 33.2442 12.0334 33.0477 12.0957L16.7095 17.271C15.7788 17.5658 15.7788 18.8829 16.7095 19.1777L33.0477 24.3527C33.2442 24.4149 33.4551 24.4149 33.6516 24.3527L49.9902 19.1777C50.9209 18.8829 50.9209 17.5658 49.9902 17.271L43.9142 15.3465ZM43.4636 33.5411C43.7124 33.8931 44.146 34.0754 44.5631 33.9671C44.6951 33.9328 44.8271 33.8978 44.9591 33.8622C45.4488 33.7295 45.9273 33.5894 46.3946 33.4418C46.74 33.3379 47.0421 33.1241 47.2552 32.8329C47.4682 32.5416 47.5806 32.1888 47.5753 31.8279V22.4526C47.5753 21.7764 46.918 21.2951 46.2733 21.4993L33.5139 25.5409C33.4059 25.5757 33.2897 25.5757 33.1817 25.5409L20.4265 21.4994C19.7818 21.2952 19.1245 21.7764 19.1245 22.4527V31.8279C19.1192 32.1888 19.2316 32.5416 19.4446 32.8329C19.6577 33.1241 19.9598 33.3379 20.3052 33.4418C20.7718 33.5888 21.2502 33.7289 21.7402 33.8622C21.8726 33.898 22.0049 33.9332 22.1373 33.9675C22.5541 34.0758 22.9872 33.8934 23.2357 33.5418C24.308 32.0244 25.7093 30.7651 27.3381 29.8603C29.1774 28.8385 31.2463 28.3024 33.3499 28.3024C35.4534 28.3024 37.5224 28.8385 39.3616 29.8603C40.9903 30.765 42.3914 32.0241 43.4636 33.5411ZM16.6227 23.5042V29.1942C16.6228 29.2373 16.6176 29.2803 16.6073 29.3221C17.3188 29.447 17.9638 29.8186 18.4291 30.3717C18.8944 30.9248 19.1504 31.6242 19.1522 32.3473C19.1541 33.0704 18.9016 33.7711 18.4391 34.3265C17.9766 34.882 17.3336 35.2569 16.6227 35.3854V37.2506C16.6185 37.3926 16.5592 37.5274 16.4574 37.6263C16.3556 37.7253 16.2193 37.7807 16.0773 37.7807C15.9354 37.7807 15.7991 37.7253 15.6973 37.6263C15.5955 37.5274 15.5362 37.3926 15.532 37.2506V35.3854C14.8211 35.2569 14.1781 34.882 13.7156 34.3265C13.2531 33.7711 13.0006 33.0704 13.0025 32.3473C13.0043 31.6242 13.2603 30.9248 13.7256 30.3717C14.1909 29.8186 14.8359 29.447 15.5474 29.3221C15.5371 29.2803 15.5319 29.2373 15.532 29.1942V19.5L16.6227 19.8658V23.506V23.5042Z" fill="#151419"/>
</svg>
