<svg width="16" height="19" viewBox="0 0 16 19" fill="none" xmlns="http://www.w3.org/2000/svg">
<path d="M8.54957 0L8.56667 0.000949857L8.58187 0.00189994L8.66071 0.00664945L8.67116 0.00854939H8.68161L8.7177 0.0170986L8.7671 0.0246981L8.7823 0.0303977L8.79275 0.0313475L8.8203 0.0417966L8.86969 0.0550958L8.88774 0.0636449L8.90199 0.0674448L8.92859 0.0807437L8.96658 0.0968924L8.98653 0.108292L9.00743 0.117791L9.02928 0.13204L9.05873 0.148188L9.09102 0.170987L9.10812 0.181436L9.12047 0.192835L9.14327 0.208984L9.17937 0.241281L9.20027 0.25743L9.20787 0.266929L9.22116 0.278328L9.25536 0.317275L9.28006 0.342923L9.28576 0.351472C9.39975 0.491111 9.47194 0.657348 9.49284 0.838784L9.49379 0.850183L9.49569 0.88913L9.49949 0.949926V6.64948H14.2491C14.4156 6.64944 14.5792 6.69315 14.7235 6.77625C14.8677 6.85934 14.9876 6.97889 15.0711 7.12292C15.1546 7.26694 15.1988 7.43039 15.1993 7.59688C15.1997 7.76337 15.1564 7.92705 15.0737 8.07152L15.0167 8.15796L7.41725 18.6071C6.8777 19.3509 5.69979 18.9681 5.69979 18.0486V12.349H0.950163C0.783674 12.3491 0.620099 12.3054 0.475829 12.2223C0.331558 12.1392 0.21166 12.0196 0.128148 11.8756C0.044637 11.7316 0.000445853 11.5681 3.3561e-06 11.4016C-0.000439141 11.2351 0.0428826 11.0715 0.125627 10.927L0.182623 10.8406L7.78203 0.391369L7.79153 0.37902L7.80863 0.356222L7.83997 0.320125L7.85707 0.299227L7.86562 0.291627L7.87797 0.278328L7.91597 0.244131L7.94256 0.219433L7.95016 0.213733C8.0615 0.122618 8.19207 0.05798 8.33203 0.0246981L8.34248 0.0237482L8.36813 0.0189985L8.43843 0.00664945L8.44888 0.00569959L8.48782 0.00379965L8.54957 0Z" fill="#FDD900"/>
</svg>
