<svg width="29" height="28" viewBox="0 0 29 28" fill="none" xmlns="http://www.w3.org/2000/svg">
<path d="M21.3594 5.20422C18.762 5.58203 16.2827 6.38486 14.1103 7.89608V21.3317C16.3771 20.1275 18.7856 19.3246 21.3594 19.183V5.20422ZM5.56248 6.2668L4.78326 6.17235V20.4108C7.94737 20.5289 10.9462 21.4262 13.7797 22.7957C16.6369 21.4262 19.6121 20.5289 22.7762 20.4108V6.17235L22.0206 6.2668V19.5136C22.0206 19.6788 21.8789 19.8441 21.69 19.8441C18.8565 19.915 16.4243 20.8359 13.9686 22.1818C13.7561 22.3235 13.52 22.1346 13.3311 22.0401C11.017 20.765 8.53769 19.915 5.89306 19.8441C5.70416 19.8441 5.56248 19.6788 5.56248 19.5136V6.2668ZM6.22364 5.20422V19.183C8.79743 19.3246 11.2059 20.1275 13.4491 21.3317V7.89608C11.3004 6.38486 8.79743 5.58203 6.22364 5.20422Z" fill="black"/>
</svg>
