<svg width="28" height="16" viewBox="0 0 28 16" fill="none" xmlns="http://www.w3.org/2000/svg">
<mask id="mask0_4086_8243" style="mask-type:alpha" maskUnits="userSpaceOnUse" x="6" y="4" width="15" height="9">
<path d="M7.33489 12.7735C7.02943 13.0755 6.53456 13.0755 6.2291 12.7735C5.92363 12.4716 5.92363 11.9824 6.2291 11.6805L11.1974 6.76933C11.4778 6.49257 11.9184 6.46985 12.2248 6.7016L15.5468 8.8862L18.1984 5.80105L16.0985 6.07882C15.6717 6.13395 15.2805 5.83637 15.2248 5.4145C15.1695 4.99262 15.47 4.60594 15.8968 4.55082L19.9659 4.0127C20.1877 3.97254 20.4251 4.02721 20.6106 4.18258C20.7976 4.3393 20.8916 4.56431 20.8867 4.78887L20.9997 8.82388C21.0114 9.24915 20.6723 9.6034 20.2425 9.61501C19.8123 9.6266 19.4539 9.29134 19.4422 8.86595L19.3845 6.80274L16.29 10.4037C16.0383 10.7003 15.5958 10.7695 15.2615 10.5508L11.8512 8.30812L7.33489 12.7735Z" fill="black"/>
</mask>
<g mask="url(#mask0_4086_8243)">
<rect x="6" y="4" width="15" height="9" fill="#151419"/>
</g>
</svg>
