<svg width="64" height="64" viewBox="0 0 64 64" fill="none" xmlns="http://www.w3.org/2000/svg">
<rect width="64" height="64" rx="32" fill="#FDD900"/>
<path d="M33.0371 22.8512L34.831 22.4608C35.6596 22.2816 36.5024 22.6525 36.9282 23.3835L37.8491 24.9609C37.9219 25.0833 38.0265 25.1774 38.1561 25.2341L39.831 25.9687C40.6082 26.3094 41.0731 27.1061 40.9879 27.9489L40.8105 29.7321L42.1927 29.9113C45.0672 27.5266 48.204 25.2432 51.5295 23.121C51.8223 22.9365 51.934 22.571 51.7956 22.2676C50.055 18.435 45.8802 14.3398 41.4014 12.0755C41.0767 11.9105 40.6846 12.024 40.4894 12.3381C38.2147 16.0429 35.6455 19.574 32.8669 22.8599C32.9255 22.8635 32.9821 22.8636 33.0371 22.8512Z" fill="#151419"/>
<path d="M29.0336 41.3738C28.2138 41.553 27.3621 41.1857 26.9363 40.4547L26.0101 38.8737C25.9391 38.7531 25.8326 38.6572 25.7031 38.6005L24.0281 37.8659C23.251 37.5252 22.7861 36.7285 22.8712 35.8839L23.054 34.0635C23.0682 33.9233 23.038 33.7813 22.9653 33.6607L22.6388 33.1035C19.4733 35.7988 16.017 38.359 12.3332 40.7119C12.0351 40.8964 11.9197 41.2619 12.0581 41.5654C13.797 45.3944 17.9754 49.4913 22.4592 51.7574C22.7821 51.9225 23.1689 51.8107 23.3605 51.5002C25.378 48.2158 27.6154 45.0737 30.0073 42.1457L29.876 41.1893L29.0336 41.3738Z" fill="#151419"/>
<path d="M34.1494 45.0994C34.4564 45.0568 34.7704 45.1491 35.0046 45.3532L36.866 47.0068L35.9433 40.3691L35.1395 41.2705C35.1165 41.2971 35.0881 41.3149 35.0633 41.3397C35.0029 41.4018 34.9408 41.4604 34.8734 41.5118C34.8326 41.5438 34.7882 41.5722 34.7456 41.6005C34.6871 41.6378 34.6285 41.6733 34.5664 41.7035C34.5168 41.7283 34.4688 41.7549 34.4174 41.7744C34.3482 41.8028 34.2772 41.8223 34.2062 41.8436C34.1264 41.8667 34.0466 41.8827 33.9649 41.8951C33.894 41.9057 33.823 41.9146 33.752 41.9181C33.7307 41.9181 33.7094 41.9252 33.6864 41.9252C33.6562 41.9252 33.626 41.9182 33.5959 41.9164C33.5214 41.9128 33.4486 41.9057 33.3741 41.8933C33.3315 41.8862 33.2907 41.8809 33.2481 41.872C33.1399 41.8472 33.0316 41.8135 32.9269 41.7691C32.9198 41.7656 32.911 41.7656 32.9021 41.762L31.8215 41.2882C31.8127 41.2847 31.8056 41.2811 31.7967 41.2776L31.2271 41.0292C31.2005 41.0185 31.1721 41.015 31.1455 41.0079L32.0611 47.6615L33.3918 45.5837C33.5675 45.314 33.8424 45.142 34.1494 45.0994Z" fill="#151419"/>
<path d="M45.5966 33.268L47.6691 31.9141L41.4447 31.1104L41.8191 31.7509C41.8688 31.8361 41.9096 31.9248 41.9469 32.0153C42.2113 32.654 42.1048 33.3886 41.6612 33.9422C41.6381 33.9724 41.6186 34.0043 41.592 34.0327L40.3766 35.3972C40.3393 35.438 40.3145 35.4859 40.2879 35.5356C40.2506 35.6101 40.2222 35.6917 40.2133 35.7787L40.208 35.8337L47.0642 36.7226L45.3981 34.8826C45.1869 34.6449 45.0911 34.3344 45.1319 34.0238C45.1692 33.7169 45.3394 33.4401 45.5966 33.268Z" fill="#151419"/>
<path d="M36.3988 32.766L34.4346 31.3909C34.2607 31.2703 34.1596 31.0716 34.1613 30.8586L34.1808 28.4615C34.1808 28.4455 34.1808 28.4083 34.1347 28.3852C34.0886 28.3604 34.0584 28.3834 34.046 28.3923L32.1315 29.8348C31.9629 29.9626 31.7411 29.9981 31.5406 29.9307L29.2659 29.1712C29.25 29.1659 29.2162 29.1553 29.179 29.1925C29.1417 29.2298 29.1541 29.2653 29.1595 29.2795L29.9402 31.5453C30.0094 31.7458 29.9757 31.9658 29.8497 32.1362L28.4249 34.0649C28.4143 34.0773 28.393 34.1075 28.4178 34.1536C28.4427 34.1997 28.4764 34.1997 28.4941 34.1997L30.8912 34.1589H30.9019C31.1095 34.1589 31.3047 34.2583 31.4253 34.4286L32.8182 36.3804C32.827 36.3929 32.8448 36.4212 32.8998 36.4141C32.9512 36.4053 32.9619 36.3698 32.9672 36.3556L33.6699 34.0631C33.732 33.8608 33.8899 33.7029 34.0904 33.6391L36.3757 32.9169C36.3899 32.9116 36.4254 32.9009 36.4343 32.8495C36.4431 32.7963 36.413 32.7749 36.3988 32.766Z" fill="#151419"/>
<path d="M39.2091 34.863C39.2712 34.7548 39.3262 34.6412 39.4096 34.5454L40.6339 33.1738C40.6481 33.1579 40.6552 33.1401 40.6676 33.1241C40.7811 32.9698 40.8255 32.7799 40.7882 32.5971C40.7723 32.5315 40.7474 32.4676 40.7119 32.4091L39.8691 30.9576L39.7875 30.8192C39.5781 30.4608 39.4894 30.0527 39.532 29.6411L39.713 27.8224C39.7414 27.5349 39.5817 27.2634 39.3173 27.1481L37.6423 26.4135C37.2626 26.2485 36.9521 25.9699 36.7409 25.6115L35.8201 24.0323C35.6746 23.7821 35.3889 23.6579 35.105 23.7183L33.3111 24.1086C32.9119 24.1956 32.4861 24.153 32.1152 23.9897L30.442 23.2569C30.1777 23.1416 29.8707 23.209 29.6791 23.4237L28.4619 24.79C28.1868 25.0987 27.8267 25.3098 27.4221 25.3985L25.6353 25.7871C25.3532 25.8492 25.1456 26.0834 25.1154 26.3691L24.9327 28.1931C24.8919 28.6048 24.7251 28.9862 24.4483 29.295L23.2311 30.6595C23.0394 30.8759 23.0075 31.1882 23.153 31.4366L24.0775 33.0122C24.2886 33.3724 24.3773 33.7823 24.3347 34.1957L24.152 36.0144C24.1218 36.3019 24.2815 36.5734 24.5459 36.6905L26.2209 37.4251C26.6006 37.5919 26.9111 37.8687 27.1205 38.2235L28.0485 39.8062C28.1922 40.0547 28.4796 40.1806 28.7635 40.1185L30.5503 39.7299C30.568 39.7264 30.5858 39.7282 30.6035 39.7246C30.7082 39.7033 30.8147 39.6927 30.9229 39.6891C30.9371 39.6891 30.9531 39.6838 30.9673 39.6838C30.9886 39.6838 31.0099 39.6891 31.0311 39.6909C31.1199 39.6945 31.2086 39.7033 31.2973 39.7193C31.331 39.7246 31.363 39.7299 31.3967 39.737C31.5155 39.7637 31.6309 39.7991 31.7427 39.8488C31.7444 39.8488 31.7462 39.8488 31.7462 39.8506L31.9307 39.9322L32.3016 40.0955C32.3069 40.0972 32.314 40.1008 32.3193 40.1026L33.4194 40.5834C33.682 40.7005 33.9908 40.6313 34.1771 40.4166L35.4014 39.0468C35.5274 38.9084 35.6746 38.7949 35.8308 38.6991C35.8822 38.6671 35.9372 38.6458 35.9922 38.6192C36.0632 38.5837 36.1289 38.5394 36.2034 38.5128C36.2336 38.5021 36.2637 38.5074 36.2939 38.5021C36.3453 38.4861 36.3879 38.456 36.4412 38.4453L38.2297 38.0532C38.5118 37.9911 38.7212 37.7569 38.7496 37.4694L38.9306 35.6507C38.9589 35.3615 39.0671 35.1043 39.2091 34.863ZM37.7044 33.0443C37.6246 33.5642 37.2626 33.9847 36.7623 34.1426L34.7981 34.7636L34.1948 36.7332C34.0422 37.2353 33.6252 37.599 33.1054 37.6842C33.0308 37.6966 32.9545 37.702 32.88 37.702C32.4418 37.702 32.0301 37.4926 31.7693 37.1271L30.5716 35.4521L28.5134 35.4876C27.9758 35.5071 27.5127 35.2126 27.2713 34.7459C27.03 34.2793 27.0744 33.7257 27.3867 33.3034L28.611 31.6479L27.942 29.7014C27.7717 29.2046 27.8959 28.6634 28.265 28.2908C28.634 27.9182 29.1734 27.7887 29.672 27.9555L31.6256 28.6084L33.2704 27.3699C33.6909 27.0541 34.2427 27.0044 34.7112 27.2404C35.1814 27.4764 35.4689 27.9501 35.4653 28.4754L35.4476 30.5336L37.135 31.7153C37.5679 32.0152 37.7861 32.5244 37.7044 33.0443Z" fill="#151419"/>
<path d="M22.1199 23.3657C21.9548 23.3657 21.7916 23.3036 21.6656 23.1776L18.5747 20.0867C18.3228 19.8347 18.3228 19.4284 18.5747 19.1782C18.8267 18.9263 19.233 18.9263 19.4832 19.1782L22.5741 22.2691C22.8261 22.5193 22.8261 22.9274 22.5741 23.1776C22.4499 23.3018 22.2849 23.3657 22.1199 23.3657Z" fill="#151419"/>
<path d="M25.6514 21.1065C25.6265 21.1065 25.6035 21.1047 25.5786 21.103C25.2255 21.0639 24.9718 20.7445 25.0126 20.3915L25.2646 18.17C25.3054 17.8169 25.6212 17.5578 25.9761 17.604C26.3292 17.6448 26.5829 17.9624 26.5421 18.3155L26.2901 20.5352C26.2529 20.8652 25.9743 21.1065 25.6514 21.1065Z" fill="#151419"/>
<path d="M17.5453 27.5121C17.2597 27.5121 16.9988 27.3205 16.9243 27.0295C16.8356 26.6853 17.0432 26.3357 17.3856 26.247L19.6532 25.6632C19.9921 25.5745 20.347 25.7803 20.4375 26.1245C20.5262 26.4687 20.3186 26.8183 19.9762 26.907L17.7086 27.4908C17.6536 27.505 17.5986 27.5121 17.5453 27.5121Z" fill="#151419"/>
</svg>
