<svg width="37" height="37" viewBox="0 0 37 37" fill="none" xmlns="http://www.w3.org/2000/svg">
<rect x="0.838379" y="0.724182" width="36" height="36" rx="18" fill="#151419" fill-opacity="0.5"/>
<rect x="1.19411" y="1.07991" width="35.2885" height="35.2885" rx="17.6443" stroke="white" stroke-opacity="0.5" stroke-width="0.711458"/>
<path d="M17.4535 12.3381C17.266 12.3381 17.1038 12.4068 16.9668 12.5437L13.3647 16.1457H10.5307C10.3432 16.1457 10.1809 16.2143 10.0439 16.3512C9.90689 16.4882 9.83838 16.6506 9.83838 16.8381V20.9916C9.83838 21.1791 9.90689 21.3414 10.0439 21.4783C10.181 21.6153 10.3433 21.684 10.5307 21.684H13.3646L16.9667 25.286C17.1037 25.4229 17.2659 25.4915 17.4534 25.4915C17.641 25.4915 17.8032 25.4229 17.9402 25.286C18.0772 25.1491 18.1457 24.9868 18.1457 24.7993V13.0305C18.1457 12.843 18.0772 12.6807 17.9403 12.5437C17.8032 12.4068 17.6411 12.3381 17.4535 12.3381Z" fill="white"/>
<path d="M21.8414 20.4452C22.1479 19.9729 22.3011 19.4628 22.3011 18.9148C22.3011 18.3667 22.1479 17.8543 21.8414 17.3783C21.5347 16.9023 21.1293 16.5671 20.6244 16.3723C20.5523 16.3364 20.4621 16.3183 20.354 16.3183C20.1665 16.3183 20.0042 16.3851 19.8673 16.5184C19.7304 16.6518 19.6616 16.8159 19.6616 17.0105C19.6616 17.162 19.7049 17.29 19.7916 17.3946C19.8782 17.4992 19.9826 17.5894 20.1053 17.6651C20.2277 17.7407 20.3504 17.8237 20.4731 17.9139C20.5958 18.004 20.7002 18.132 20.7868 18.2978C20.8731 18.4638 20.9165 18.6693 20.9165 18.9145C20.9165 19.1597 20.8732 19.3652 20.7868 19.5312C20.7002 19.6972 20.5958 19.825 20.4731 19.9153C20.3504 20.0054 20.2277 20.0884 20.1053 20.1641C19.9826 20.2396 19.8782 20.3299 19.7916 20.4344C19.705 20.5392 19.6616 20.667 19.6616 20.8185C19.6616 21.0133 19.7304 21.1772 19.8673 21.3107C20.0042 21.4441 20.1665 21.5109 20.354 21.5109C20.4621 21.5109 20.5523 21.4928 20.6244 21.457C21.1293 21.2548 21.5348 20.9175 21.8414 20.4452Z" fill="white"/>
<path d="M24.15 21.9705C24.7629 21.0368 25.0695 20.0182 25.0695 18.9148C25.0695 17.8114 24.7629 16.793 24.15 15.8587C23.537 14.925 22.7255 14.2454 21.7161 13.8198C21.6225 13.7839 21.5286 13.7658 21.435 13.7658C21.2476 13.7658 21.0852 13.8343 20.9481 13.9713C20.8112 14.1083 20.7427 14.2706 20.7427 14.458C20.7427 14.7394 20.8833 14.9521 21.1646 15.0964C21.5683 15.3055 21.8424 15.4641 21.9865 15.5722C22.5203 15.9617 22.9366 16.4502 23.2359 17.0379C23.5351 17.6257 23.6847 18.2513 23.6847 18.9147C23.6847 19.5781 23.5351 20.2037 23.2359 20.7915C22.9366 21.3793 22.5201 21.8676 21.9865 22.257C21.8424 22.3652 21.5683 22.5239 21.1646 22.733C20.8833 22.8773 20.7427 23.09 20.7427 23.3713C20.7427 23.5588 20.8112 23.7212 20.9481 23.8581C21.0852 23.9952 21.2509 24.0637 21.4457 24.0637C21.5322 24.0637 21.6225 24.0455 21.7161 24.0097C22.7255 23.584 23.537 22.9044 24.15 21.9705Z" fill="white"/>
<path d="M26.4651 14.3449C25.5493 12.9569 24.3305 11.9346 22.8089 11.2783C22.7153 11.2424 22.6214 11.2243 22.5278 11.2243C22.3404 11.2243 22.178 11.2929 22.0411 11.4298C21.904 11.5668 21.8354 11.7292 21.8354 11.9167C21.8354 12.1762 21.976 12.389 22.2574 12.5549C22.308 12.5835 22.3888 12.6214 22.5006 12.6684C22.6124 12.7151 22.6935 12.753 22.7441 12.7818C23.0757 12.9619 23.3714 13.1459 23.6312 13.3334C24.5181 13.9895 25.2106 14.808 25.7081 15.7888C26.2057 16.7695 26.4543 17.8114 26.4543 18.9148C26.4543 20.0184 26.2057 21.0602 25.7081 22.0409C25.2106 23.0216 24.5181 23.8403 23.6312 24.4963C23.3714 24.6837 23.0757 24.8676 22.7441 25.0479C22.6935 25.0766 22.6124 25.1144 22.5006 25.1613C22.3888 25.208 22.308 25.2459 22.2574 25.2748C21.976 25.4406 21.8354 25.6534 21.8354 25.913C21.8354 26.1005 21.904 26.2628 22.0411 26.3997C22.178 26.5367 22.3404 26.6054 22.5278 26.6054C22.6214 26.6054 22.7153 26.5873 22.8089 26.5512C24.3305 25.8951 25.5493 24.8728 26.4651 23.4846C27.3809 22.0965 27.8387 20.5731 27.8387 18.9146C27.8387 17.2561 27.381 15.7329 26.4651 14.3449Z" fill="white"/>
</svg>
