<svg width="16" height="17" viewBox="0 0 16 17" fill="none" xmlns="http://www.w3.org/2000/svg">
<path d="M1.61212 14.1692C1.0905 14.1563 0.60749 13.9017 0.309796 13.4834C0.00068127 13.0694 -0.0827459 12.5337 0.0849852 12.0485L0.309796 11.3439C0.89201 9.90472 1.26962 8.39447 1.43385 6.85491H15.9526C15.7927 8.54439 15.3888 10.2039 14.7539 11.7828L14.3139 13.072C14.0917 13.7269 13.4647 14.1692 12.7587 14.1692H1.61212ZM12.7499 15.5406H1.50849C1.62089 16.3258 2.30762 16.9113 3.11993 16.9121H14.3605C15.2641 16.9078 15.9947 16.1938 16 15.3126V12.4411L15.6347 13.4834C15.2316 14.7074 14.0663 15.5389 12.749 15.5406L12.7499 15.5406ZM14.3605 1.82587H13.1899V1.59785C13.1899 1.21897 12.8746 0.912111 12.4874 0.912111C12.0992 0.912111 11.7848 1.21897 11.7848 1.59785V1.82672H9.44275V1.59785C9.44275 1.21897 9.12837 0.912111 8.74021 0.912111C8.35206 0.912111 8.03768 1.21897 8.03768 1.59785V1.82672L5.6956 1.82586V1.59785C5.6956 1.21897 5.38123 0.912109 4.99307 0.912109C4.60579 0.912109 4.29054 1.21897 4.29054 1.59785V1.82672L3.11995 1.82586C2.21632 1.83101 1.48569 2.54417 1.48041 3.42621V5.48343H15.9991L16 3.42621C15.9947 2.54419 15.2641 1.83102 14.3605 1.82587Z" fill="black"/>
</svg>
