<svg width="64" height="64" viewBox="0 0 64 64" fill="none" xmlns="http://www.w3.org/2000/svg">
<rect width="64" height="64" rx="32" fill="white"/>
<path d="M42.702 24.4133C41.1607 24.6031 39.4928 24.7041 37.7754 24.7041C36.0443 24.7041 34.3764 24.6031 32.8349 24.4133C31.0285 25.9425 29.1196 28.0021 27.6673 30.2501C28.8048 30.6298 29.6259 31.6905 29.6259 32.9666V34.4703C29.6259 35.7961 28.7295 36.896 27.5287 37.2365C27.9581 37.7412 28.2233 38.3861 28.2233 39.0942V40.6099C28.2233 41.33 27.9581 41.9749 27.5287 42.4796C28.7295 42.8201 29.6259 43.92 29.6259 45.2338V45.865C31.8241 47.3054 34.6551 48 37.7754 48C44.6984 48 50.3212 44.5513 50.3212 37.2485C50.3212 32.5734 46.3164 27.4826 42.702 24.412L42.702 24.4133ZM38.6972 41.6087V42.9857C38.6972 43.1244 38.5827 43.2389 38.4321 43.2389H37.1047C36.9525 43.2389 36.8395 43.1259 36.8395 42.9857V41.6463C35.4745 41.5574 34.3762 40.5088 34.2496 39.1573C34.2376 39.0052 34.3641 38.8786 34.5027 38.8786H35.8542C35.9808 38.8786 36.0938 38.9539 36.1194 39.0805C36.1947 39.4978 36.5744 39.8007 37.0038 39.8007H38.191C38.8991 39.8007 39.5184 39.296 39.5937 38.6135C39.6826 37.8179 39.0498 37.1475 38.2663 37.1475H37.4075C35.7397 37.1475 34.2617 35.9346 34.0839 34.2667C33.9196 32.5236 35.1702 31.0199 36.838 30.7924V29.453C36.838 29.3008 36.951 29.1878 37.1032 29.1878H38.4305C38.5827 29.1878 38.6957 29.3008 38.6957 29.453V30.7803C40.0607 30.8813 41.147 31.9299 41.2856 33.2693C41.2977 33.4215 41.1711 33.5481 41.0205 33.5481H39.681C39.5665 33.5481 39.4415 33.4727 39.4159 33.3582C39.327 32.9288 38.9608 32.638 38.5194 32.638H37.3322C36.6376 32.638 36.0184 33.1307 35.9295 33.8132C35.8542 34.6087 36.4854 35.2912 37.2568 35.2912H38.2678C40.1376 35.2912 41.6291 36.8958 41.4514 38.7912C41.2992 40.2572 40.1119 41.3691 38.6972 41.6087Z" fill="#151419"/>
<path d="M37.7753 22.7455C39.3919 22.7455 40.9211 22.6445 42.3493 22.4683C43.2849 20.4719 44.1317 18.3868 44.1317 17.478C44.1317 16.113 42.4382 15.4064 41.4031 16.8588C40.0381 18.7542 39.458 16 37.8911 16C36.3498 16.0121 35.5287 18.5523 34.3279 16.8467C33.2416 15.2934 31.3718 16.2396 31.3718 17.4404C31.3718 18.6276 32.1297 20.5983 33.002 22.4441C34.48 22.646 36.0846 22.7469 37.7782 22.7469L37.7753 22.7455Z" fill="#151419"/>
<path d="M16.3173 43.9969H26.7375C27.4245 43.9969 27.9805 44.684 27.9805 45.24V46.7541C27.9805 47.4412 27.4245 47.9971 26.7375 47.9971H16.3173C15.6303 47.9971 15.0743 47.3101 15.0743 46.7541V45.24C15.0743 44.5529 15.6303 43.9969 16.3173 43.9969Z" fill="#151419"/>
<path d="M14.9222 37.8588H25.3423C26.0293 37.8588 26.5853 38.5458 26.5853 39.1018V40.616C26.5853 41.303 26.0294 41.859 25.3423 41.859H14.9222C14.2352 41.859 13.6792 41.1719 13.6792 40.616V39.1018C13.6792 38.4148 14.2352 37.8588 14.9222 37.8588Z" fill="#151419"/>
<path d="M16.3173 31.7192H26.7375C27.4245 31.7192 27.9805 32.4063 27.9805 32.9622V34.4764C27.9805 35.1634 27.4245 35.7194 26.7375 35.7194H16.3173C15.6303 35.7194 15.0743 35.0324 15.0743 34.4764V32.9622C15.0743 32.2752 15.6303 31.7192 16.3173 31.7192Z" fill="#151419"/>
<path d="M14.9222 25.5807H25.3423C26.0293 25.5807 26.5853 26.2677 26.5853 26.8237V28.3379C26.5853 29.0249 26.0294 29.5809 25.3423 29.5809H14.9222C14.2352 29.5809 13.6792 28.8939 13.6792 28.3379V26.8237C13.6792 26.1367 14.2352 25.5807 14.9222 25.5807Z" fill="#151419"/>
</svg>
