<svg width="64" height="64" viewBox="0 0 64 64" fill="none" xmlns="http://www.w3.org/2000/svg">
<rect width="64" height="64" rx="32" fill="white"/>
<path d="M47.3252 20.9017C43.4559 17.0324 37.184 17.0332 33.3151 20.9017L32.2382 21.9786L31.1608 20.9017C27.2924 17.0332 21.0192 17.0324 17.1507 20.9017C13.2814 24.7705 13.2814 31.0437 17.1499 34.9121L32.2377 50L47.3252 34.9121C51.194 31.0437 51.194 24.7705 47.3252 20.9017ZM41.1979 35.937C41.1979 36.1801 40.9999 36.3776 40.7568 36.3776H34.7126V42.4219C34.7126 42.6654 34.5151 42.8629 34.2716 42.8629H29.9694C29.7263 42.8629 29.5284 42.6654 29.5284 42.4219V36.3776H23.4833C23.2398 36.3776 23.0423 36.1801 23.0423 35.937V31.6344C23.0423 31.3913 23.2398 31.1934 23.4833 31.1934H29.528V25.1487C29.528 24.9061 29.7259 24.7082 29.969 24.7082H34.2711C34.5147 24.7082 34.7122 24.9061 34.7122 25.1487V31.1934H40.7564C40.9995 31.1934 41.1974 31.3913 41.1974 31.6344L41.1979 35.937Z" fill="#151419"/>
</svg>
