<svg width="64" height="64" viewBox="0 0 64 64" fill="none" xmlns="http://www.w3.org/2000/svg">
<rect width="64" height="64" rx="32" fill="white"/>
<path d="M45.9286 17H18.0714C17.4792 17 17 17.4797 17 18.0714V32C17 32.5917 17.4792 33.0714 18.0714 33.0714H30.9286V35.2143H28.7857C28.1935 35.2143 27.7143 35.694 27.7143 36.2857C27.7143 36.8774 28.1935 37.3571 28.7857 37.3571H35.2143C35.8065 37.3571 36.2857 36.8774 36.2857 36.2857C36.2857 35.694 35.8065 35.2143 35.2143 35.2143H33.0714V33.0714H45.9286C46.5208 33.0714 47 32.5917 47 32V18.0714C47 17.4797 46.5208 17 45.9286 17Z" fill="#151419"/>
<path d="M45.9286 38.4285H18.0714C17.4792 38.4285 17 38.9082 17 39.4999V45.9285C17 46.5202 17.4792 46.9999 18.0714 46.9999H45.9286C46.5208 46.9999 47 46.5202 47 45.9285V39.4999C47 38.9082 46.5208 38.4285 45.9286 38.4285ZM33.0714 43.7856H21.2857C20.6935 43.7856 20.2143 43.3059 20.2143 42.7142C20.2143 42.1225 20.6935 41.6428 21.2857 41.6428H33.0714C33.6636 41.6428 34.1429 42.1225 34.1429 42.7142C34.1429 43.3059 33.6636 43.7856 33.0714 43.7856ZM36.3181 43.7856C35.7259 43.7856 35.2415 43.3059 35.2415 42.7142C35.2415 42.1225 35.7155 41.6428 36.3066 41.6428H36.3181C36.9093 41.6428 37.3896 42.1225 37.3896 42.7142C37.3896 43.3059 36.9093 43.7856 36.3181 43.7856ZM39.5324 43.7856C38.9402 43.7856 38.4558 43.3059 38.4558 42.7142C38.4558 42.1225 38.9298 41.6428 39.5209 41.6428H39.5324C40.1236 41.6428 40.6039 42.1225 40.6039 42.7142C40.6039 43.3059 40.1236 43.7856 39.5324 43.7856ZM42.7467 43.7856C42.1545 43.7856 41.6701 43.3059 41.6701 42.7142C41.6701 42.1225 42.144 41.6428 42.7352 41.6428H42.7467C43.3379 41.6428 43.8181 42.1225 43.8181 42.7142C43.8181 43.3059 43.3379 43.7856 42.7467 43.7856Z" fill="#151419"/>
</svg>
