<svg xmlns="http://www.w3.org/2000/svg" width="143.635" height="117.063" viewBox="0 0 143.635 117.063">
  <path id="Path_1" data-name="Path 1" d="M82.018-504.437a29.1,29.1,0,0,0,29.425-29.426c0-18.419-13.477-29.425-29.425-29.425a27.665,27.665,0,0,0-17.071,6.065,29.409,29.409,0,0,1-1.348-9.659c0-17.97,16.173-37.287,35.041-45.149l-4.268-8.311c-32.57,15.274-47.4,41.106-47.4,70.981,0,7.412,1.348,20.216,7.862,30.324C60.454-510.277,68.54-504.437,82.018-504.437Zm78.168,0c16.173,0,29.425-12.354,29.425-29.426,0-18.419-13.253-29.425-29.425-29.425a28.169,28.169,0,0,0-17.071,6.065,29.41,29.41,0,0,1-1.348-9.659c0-17.97,16.173-37.287,35.041-45.149l-4.268-8.311c-32.57,15.274-47.4,41.106-47.4,70.981,0,7.412,1.348,20.216,7.862,30.324C138.622-510.277,146.933-504.437,160.186-504.437Z" transform="translate(190.112 -503.937) rotate(180)" fill="none" stroke="#f60" stroke-width="1" opacity="0.377"/>
</svg>
