<svg width="159" height="141" viewBox="0 0 159 141" fill="none" xmlns="http://www.w3.org/2000/svg">
<path fill-rule="evenodd" clip-rule="evenodd" d="M88.5554 47.2266C67.107 27.0658 44.5993 14.2206 32.6011 16.5542C20.603 18.8878 22.5953 35.723 35.7604 57.4946C11.6508 65.946 -0.680392 77.6633 7.07248 87.0554C14.8253 96.4476 40.4128 100.79 69.8742 98.8217C91.3226 118.983 113.83 131.828 125.829 129.494C137.827 127.161 135.834 110.325 122.669 88.5528C146.776 80.1015 159.106 68.3849 151.353 58.9932C143.601 49.6014 118.015 45.2593 88.5554 47.2266Z" fill="#BDCD36"/>
<path d="M51.7143 59.463C50.0348 58.9172 48.8541 58.1172 48.1721 57.0631C47.5018 56.0128 47.3886 54.785 47.8326 53.3797L50.1433 54.1308C49.8688 55.0149 49.9242 55.7308 50.3097 56.2787C50.7066 56.8304 51.4032 57.2681 52.3993 57.5918C53.2101 57.8554 53.8788 57.9062 54.4052 57.7443C54.9354 57.5709 55.2946 57.1946 55.4829 56.6155C55.641 56.129 55.5761 55.6981 55.2883 55.3228C55.0121 54.9513 54.4253 54.5108 53.5279 54.0014L52.5532 53.4541C50.0626 52.0939 49.143 50.4119 49.7943 48.4081C50.1406 47.3425 50.8209 46.6287 51.835 46.2667C52.8528 45.8932 54.0799 45.9399 55.5162 46.4067C57.1493 46.9375 58.27 47.686 58.8781 48.652C59.4977 49.6218 59.6274 50.7397 59.2671 52.0057L56.9911 51.2659C57.1744 50.5443 57.1064 49.9459 56.787 49.4707C56.4792 48.9993 55.862 48.613 54.9354 48.3118C54.2172 48.0784 53.6238 48.0327 53.1549 48.1749C52.6861 48.3171 52.3726 48.6314 52.2145 49.1179C52.0526 49.616 52.1021 50.0547 52.363 50.434C52.6355 50.8171 53.1934 51.2482 54.0366 51.7271L55.046 52.2858C56.3998 53.0459 57.301 53.8191 57.7499 54.6053C58.214 55.3837 58.2823 56.2767 57.9548 57.2845C57.5633 58.4891 56.8182 59.2842 55.7195 59.6699C54.6246 60.044 53.2896 59.9751 51.7143 59.463ZM65.4551 53.7096L64.9129 55.3775L63.1408 54.8015L61.5652 59.6489C61.4711 59.9385 61.4805 60.1657 61.5934 60.3305C61.7179 60.499 61.9655 60.6435 62.3362 60.764L63.0833 61.0068L62.5411 62.6747C62.0512 62.5667 61.6614 62.4656 61.3718 62.3715C60.3989 62.0553 59.7449 61.6442 59.4099 61.1383C59.0902 60.6246 59.0602 59.9681 59.32 59.1689L60.969 54.0956L59.579 53.6439L60.1212 51.9759L61.5111 52.4277L62.3582 49.8216L64.53 50.5274L63.6829 53.1336L65.4551 53.7096ZM71.8337 65.6951L69.6445 64.9835C69.6005 64.7643 69.638 64.3731 69.757 63.8099C68.8724 64.4828 67.7698 64.6047 66.4494 64.1755C65.4648 63.8555 64.7544 63.3621 64.318 62.6952C63.8932 62.032 63.8182 61.2777 64.0931 60.4321C64.6239 58.799 66.0737 58.2393 68.4424 58.753L69.8371 59.0719C70.3076 59.1608 70.6658 59.162 70.9117 59.0754C71.1613 58.9772 71.3369 58.7718 71.4386 58.459C71.5628 58.0768 71.5258 57.7574 71.3274 57.5008C71.1444 57.2365 70.7575 57.0083 70.1668 56.8163C69.5298 56.6092 69.0365 56.5705 68.687 56.7002C68.3412 56.8184 68.0604 57.1305 67.8447 57.6367L65.6903 56.9365C66.4803 54.9393 68.1552 54.3567 70.715 55.1887C73.2053 55.9981 74.1587 57.3005 73.5752 59.0959L72.0222 63.8738C71.7662 64.6614 71.7034 65.2685 71.8337 65.6951ZM67.4788 62.7813C68.1622 63.0034 68.7784 62.9988 69.3275 62.7674C69.8803 62.5245 70.2715 62.0497 70.5012 61.3432L70.7666 60.5266C70.4978 60.6441 70.1166 60.6547 69.6229 60.5583L68.3963 60.3132C67.7945 60.1945 67.3324 60.198 67.0098 60.3236C66.7025 60.4415 66.4868 60.6915 66.3626 61.0738C66.2383 61.456 66.2679 61.7986 66.4512 62.1015C66.6498 62.3965 66.9924 62.6231 67.4788 62.7813ZM81.0364 58.5435C82.0094 58.8597 82.6816 59.392 83.0531 60.1402C83.44 60.8807 83.4659 61.7663 83.1308 62.7972L81.1995 68.7392L79.0103 68.0277L80.8231 62.4505C81.192 61.3154 80.8147 60.5653 79.6912 60.2001C79.1352 60.0194 78.5944 60.0677 78.0688 60.3451C77.5586 60.6147 77.1887 61.1028 76.959 61.8093L75.327 66.8305L73.1378 66.119L76.0517 57.1538L78.1714 57.8428L77.7535 59.1285C78.7607 58.3545 79.855 58.1595 81.0364 58.5435ZM91.908 63.5946L93.3932 59.0252L95.5824 59.7367L91.5616 72.1072L89.442 71.4183L89.8485 70.1673C88.8721 70.9257 87.77 71.1053 86.5422 70.7063C85.3028 70.3034 84.4634 69.5568 84.0238 68.4662C83.5727 67.3719 83.5768 66.1182 84.0361 64.7051C84.5029 63.2688 85.2386 62.2465 86.2431 61.6381C87.2245 61.0222 88.3407 60.9176 89.5916 61.3242C90.7963 61.7157 91.5684 62.4725 91.908 63.5946ZM86.2548 65.5031C85.9536 66.4297 85.9285 67.1963 86.1796 67.803C86.4306 68.4097 86.9152 68.8297 87.6333 69.0631C88.3515 69.2965 89 69.232 89.5788 68.8694C90.1461 68.5031 90.5804 67.8567 90.8815 66.9301C91.1827 66.0034 91.2116 65.2252 90.968 64.5954C90.7245 63.9655 90.2379 63.532 89.5082 63.2949C88.8016 63.0652 88.1552 63.1432 87.5688 63.5289C86.9939 63.9184 86.5559 64.5764 86.2548 65.5031ZM103.507 71.0339C103.048 72.447 102.262 73.4465 101.15 74.0326C100.037 74.6187 98.7975 74.6896 97.4307 74.2454C96.0639 73.8011 95.1028 73.0149 94.5475 71.8867C93.9767 70.7663 93.9229 69.4938 94.386 68.0691C94.849 66.6444 95.6408 65.6467 96.7611 65.076C97.8737 64.4899 99.1134 64.419 100.48 64.8632C101.847 65.3075 102.81 66.0879 103.369 67.2045C103.928 68.3211 103.974 69.5976 103.507 71.0339ZM96.5408 71.1323C96.7959 71.7659 97.2883 72.2012 98.018 72.4384C98.7477 72.6756 99.3962 72.6111 99.9635 72.2448C100.546 71.8706 100.986 71.2261 101.284 70.311C101.581 69.396 101.602 68.6217 101.347 67.9881C101.107 67.3466 100.623 66.9073 99.8928 66.6702C99.1631 66.433 98.5088 66.4957 97.93 66.8582C97.3627 67.2245 96.9284 67.871 96.6273 68.7976C96.3261 69.7242 96.2973 70.5024 96.5408 71.1323ZM110.358 73.8559L111.99 68.8348L114.179 69.5463L111.265 78.5114L109.145 77.8225L109.569 76.5194C108.558 77.305 107.456 77.5039 106.263 77.1161C105.302 76.8037 104.628 76.2772 104.241 75.5367C103.869 74.7885 103.851 73.8989 104.186 72.868L106.117 66.926L108.307 67.6376L106.494 73.2147C106.125 74.3498 106.502 75.1 107.626 75.4652C108.182 75.6459 108.715 75.6014 109.225 75.3319C109.751 75.0545 110.128 74.5625 110.358 73.8559ZM120.632 71.6437L120.09 73.3116L118.318 72.7356L116.742 77.583C116.648 77.8726 116.657 78.0998 116.77 78.2645C116.895 78.4331 117.142 78.5776 117.513 78.6981L118.26 78.9409L117.718 80.6088C117.228 80.5008 116.838 80.3997 116.549 80.3056C115.576 79.9894 114.922 79.5783 114.587 79.0724C114.267 78.5587 114.237 77.9022 114.497 77.103L116.146 72.0297L114.756 71.5779L115.298 69.91L116.688 70.3618L117.535 67.7556L119.707 68.4615L118.86 71.0677L120.632 71.6437ZM39.4772 65.6853L44.9154 67.4529C46.2937 67.9009 47.2466 68.614 47.7738 69.5922C48.3165 70.5626 48.3864 71.6674 47.9836 72.9068C47.5845 74.1346 46.8783 74.9872 45.8651 75.4647C44.8672 75.9344 43.6791 75.9452 42.3007 75.4972L39.2081 74.492L37.802 78.8182L35.4565 78.0558L39.4772 65.6853ZM39.8632 72.4766L42.8516 73.4479C43.535 73.67 44.1108 73.6715 44.579 73.4523C45.0626 73.2253 45.4098 72.7874 45.6207 72.1388C45.8315 71.4902 45.808 70.9319 45.5503 70.4639C45.3042 69.9997 44.8394 69.6566 44.1561 69.4344L41.1677 68.4631L39.8632 72.4766ZM55.9763 79.9422L55.8069 80.4634L49.1005 78.2836C48.9331 79.0744 48.9823 79.7307 49.2481 80.2525C49.5292 80.7665 50.0057 81.1327 50.6775 81.3511C51.6737 81.6749 52.4963 81.4684 53.1456 80.7317L55.2479 81.4151C54.7188 82.2548 53.9951 82.8264 53.0769 83.1299C52.1624 83.4217 51.1724 83.3945 50.1067 83.0481C48.7747 82.6152 47.8368 81.8365 47.293 80.712C46.7492 79.5876 46.707 78.3188 47.1663 76.9057C47.6256 75.4926 48.3999 74.4893 49.4893 73.8957C50.5903 73.3059 51.801 73.2255 53.1214 73.6547C54.4766 74.0952 55.4089 74.8912 55.9182 76.0429C56.4276 77.1945 56.4469 78.4943 55.9763 79.9422ZM52.5507 75.3517C51.265 74.9339 50.2863 75.4034 49.6148 76.7603L54.1147 78.2229C54.2366 77.5326 54.1628 76.9323 53.8932 76.422C53.6237 75.9118 53.1761 75.555 52.5507 75.3517ZM63.7382 77.1823C63.9351 77.2463 64.1108 77.3162 64.2655 77.3921L63.6104 79.4075L63.0544 79.2268C62.2205 78.9557 61.508 78.9611 60.9169 79.2428C60.3413 79.5167 59.9198 80.0649 59.6525 80.8873L58.1729 85.4393L55.9838 84.7278L58.8977 75.7627L61.0173 76.4516L60.4978 78.0501C61.3723 77.0537 62.4525 76.7644 63.7382 77.1823ZM70.9371 77.7741L70.1726 77.5256C69.4197 77.2809 68.9266 77.5176 68.6932 78.2357L68.4842 78.8786L70.3259 79.4772L69.7838 81.1451L67.9421 80.5465L65.5703 87.8437L63.3985 87.1378L65.7703 79.8406L64.3804 79.3888L64.9225 77.7209L66.3124 78.1727L66.5327 77.4951C66.815 76.6264 67.2785 76.0278 67.9231 75.6995C68.5715 75.3595 69.3879 75.3496 70.3725 75.6696C70.8126 75.8126 71.1834 75.9523 71.4849 76.0887L70.9371 77.7741ZM78.3619 87.0452C77.9026 88.4583 77.1167 89.4579 76.0041 90.044C74.8916 90.6301 73.6519 90.701 72.2851 90.2567C70.9184 89.8125 69.9573 89.0263 69.4019 87.8981C68.8312 86.7777 68.7774 85.5052 69.2404 84.0805C69.7035 82.6558 70.4952 81.6581 71.6156 81.0874C72.7282 80.5013 73.9678 80.4304 75.3346 80.8746C76.7014 81.3189 77.6643 82.0993 78.2235 83.2159C78.7826 84.3325 78.8288 85.609 78.3619 87.0452ZM71.3952 87.1436C71.6503 87.7772 72.1427 88.2126 72.8724 88.4498C73.6022 88.687 74.2507 88.6224 74.818 88.2561C75.4006 87.882 75.8406 87.2374 76.138 86.3224C76.4354 85.4074 76.4566 84.633 76.2015 83.9994C75.9618 83.358 75.477 82.9187 74.7473 82.6815C74.0176 82.4444 73.3633 82.507 72.7844 82.8696C72.2171 83.2359 71.7829 83.8823 71.4817 84.809C71.1805 85.7356 71.1517 86.5138 71.3952 87.1436ZM86.0329 84.4287C86.2298 84.4927 86.4056 84.5627 86.5602 84.6385L85.9051 86.6539L85.3492 86.4732C84.5152 86.2022 83.8027 86.2075 83.2117 86.4892C82.636 86.7632 82.2145 87.3113 81.9472 88.1337L80.4676 92.6858L78.2785 91.9742L81.1924 83.0091L83.3121 83.698L82.7925 85.2965C83.6671 84.3001 84.7472 84.0108 86.0329 84.4287ZM98.009 88.2445C98.9935 88.5645 99.6639 89.1025 100.02 89.8586C100.388 90.6184 100.408 91.5022 100.08 92.5099L98.1547 98.4346L95.9655 97.723L97.7782 92.1459C98.1472 91.0108 97.8162 90.2757 96.7853 89.9406C96.2294 89.7599 95.7118 89.8158 95.2325 90.1082C94.7686 90.3929 94.4124 90.9174 94.1639 91.6819L92.5601 96.6162L90.3884 95.9103L92.2011 90.3331C92.57 89.198 92.2333 88.461 91.1908 88.1222C90.6464 87.9453 90.1346 88.003 89.6554 88.2955C89.1915 88.5801 88.8353 89.1047 88.5868 89.8691L86.983 94.8034L84.7938 94.0919L87.7078 85.1268L89.8274 85.8157L89.4095 87.1014C90.3472 86.3048 91.3604 86.0835 92.4492 86.4374C93.816 86.8816 94.5619 87.7388 94.687 89.0088C95.7202 88.1152 96.8275 87.8604 98.009 88.2445ZM109.796 97.4351L109.626 97.9563L102.92 95.7765C102.753 96.5673 102.802 97.2236 103.068 97.7455C103.349 98.2595 103.825 98.6256 104.497 98.844C105.493 99.1678 106.316 98.9613 106.965 98.2247L109.067 98.908C108.538 99.7477 107.815 100.319 106.896 100.623C105.982 100.915 104.992 100.887 103.926 100.541C102.594 100.108 101.656 99.3294 101.113 98.205C100.569 97.0805 100.527 95.8118 100.986 94.3986C101.445 92.9855 102.219 91.9822 103.309 91.3886C104.41 90.7988 105.621 90.7184 106.941 91.1476C108.296 91.5881 109.228 92.3842 109.738 93.5358C110.247 94.6875 110.266 95.9872 109.796 97.4351ZM106.37 92.8446C105.085 92.4268 104.106 92.8963 103.434 94.2532L107.934 95.7158C108.056 95.0255 107.982 94.4252 107.713 93.9149C107.443 93.4047 106.996 93.0479 106.37 92.8446ZM117.558 94.6752C117.755 94.7392 117.93 94.8091 118.085 94.885L117.43 96.9004L116.874 96.7197C116.04 96.4486 115.328 96.454 114.736 96.7357C114.161 97.0096 113.739 97.5578 113.472 98.3802L111.992 102.932L109.803 102.221L112.717 93.2556L114.837 93.9445L114.317 95.543C115.192 94.5466 116.272 94.2573 117.558 94.6752Z" fill="#2F3F45"/>
<path d="M46.2339 4.15173L45.7759 6.21779C44.2316 13.1849 48.3976 20.1453 55.2676 22.0762C48.2876 20.5914 41.363 24.8167 39.4909 31.7029L38.9357 33.745L39.3936 31.679C40.9379 24.7118 36.772 17.7515 29.9019 15.8206C36.882 17.3053 43.8065 13.0801 45.6787 6.19381L46.2339 4.15173Z" fill="#F6B1C6" stroke="#211F27" stroke-width="0.570906"/>
<path d="M116.718 118.658L116.465 119.963C115.614 124.367 118.351 128.669 122.7 129.765C118.289 128.951 114.011 131.724 112.952 136.083L112.638 137.376L112.891 136.07C113.742 131.666 111.005 127.364 106.656 126.268C111.067 127.082 115.345 124.309 116.404 119.95L116.718 118.658Z" fill="#F6B1C6" stroke="#211F27" stroke-width="0.570906"/>
</svg>
