<svg width="81" height="81" viewBox="0 0 81 81" fill="none" xmlns="http://www.w3.org/2000/svg">
<circle cx="40.9706" cy="40.9409" r="40" transform="rotate(9.35534 40.9706 40.9409)" fill="#0045C0"/>
<path d="M49.7143 21.5255L23.1469 27.3434C20.3198 27.9626 18.5352 30.7479 19.1458 33.5363L23.1149 51.661C23.7341 54.4881 26.5194 56.2727 29.3465 55.6536L37.5956 53.8471L41.9394 59.2271C43.1476 60.6671 45.4713 60.1583 45.9586 58.3064L47.6564 51.6033L55.9441 49.7884C58.7713 49.1693 60.5558 46.3839 59.9367 43.5568L55.9761 25.4708C55.3267 22.6909 52.5414 20.9063 49.7143 21.5255Z" fill="white"/>
<path fill-rule="evenodd" clip-rule="evenodd" d="M39.7389 43.756C38.0615 44.1876 37.4807 45.5619 37.7001 46.7589C37.9305 48.0163 39.05 49.0791 40.78 48.7621C42.6287 48.4233 43.4251 46.8853 43.1892 45.598C42.949 44.2817 41.7974 43.3788 39.7389 43.756ZM43.8339 32.4588C43.1106 30.3646 40.9921 28.5567 37.8904 29.1251C34.1929 29.8027 32.2366 31.7381 32.6425 33.9531C32.7796 34.7011 33.2741 35.3845 34.3684 35.8021C35.1173 35.015 36.7203 33.6699 38.0623 33.424C38.7482 33.2983 39.6483 33.5041 39.8183 34.4318C40.1035 35.9883 37.4652 37.3998 36.3995 38.6464C36.3022 39.963 37.0183 41.6879 38.0456 42.5827C39.3119 42.599 41.4179 42.1505 41.8646 40.5524C41.5196 39.8425 41.3967 39.6793 41.2705 38.9909C43.3596 36.9377 44.8407 35.77 43.8339 32.4588Z" fill="#0045C0"/>
</svg>
