<svg width="174" height="174" viewBox="0 0 174 174" fill="none" xmlns="http://www.w3.org/2000/svg">
<rect x="20.2332" y="64.0263" width="99.1843" height="99.1843" rx="16" transform="rotate(-26.1637 20.2332 64.0263)" fill="#F6B1C6"/>
<rect x="28.6524" y="66.5827" width="85.9027" height="85.9027" rx="15.5" transform="rotate(-26.1637 28.6524 66.5827)" fill="#F6B1C6" stroke="#E290A9"/>
<path d="M78.2729 63.7145L88.3095 67.2946L87.5777 69.346L83.7123 67.9672L80.1382 77.9868L77.8325 77.1643L81.4066 67.1447L77.5411 65.7658L78.2729 63.7145ZM92.9488 72.4659C93.8982 72.8046 94.5454 73.3476 94.8903 74.0949C95.2506 74.835 95.2514 75.708 94.8926 76.7139L92.8243 82.512L90.6881 81.7501L92.6294 76.3079C93.0245 75.2003 92.6739 74.4509 91.5775 74.0598C91.035 73.8663 90.5011 73.8988 89.9757 74.1573C89.4656 74.4086 89.0876 74.8789 88.8417 75.5684L87.094 80.468L84.9578 79.706L89.2636 67.635L91.3998 68.397L89.7972 72.8897C90.7906 72.212 91.8411 72.0708 92.9488 72.4659ZM104.323 81.855L104.141 82.3637L97.5972 80.0293C97.4102 80.8035 97.4403 81.4513 97.6875 81.9726C97.9501 82.4867 98.4091 82.8607 99.0647 83.0945C100.037 83.4412 100.853 83.2609 101.513 82.5535L103.564 83.2853C103.02 84.0976 102.291 84.6403 101.378 84.9135C100.469 85.1754 99.4949 85.1208 98.455 84.7499C97.1553 84.2863 96.2533 83.4931 95.7492 82.3705C95.2451 81.2479 95.2389 79.9971 95.7308 78.6182C96.2227 77.2393 97.0133 76.2728 98.1029 75.7186C99.2037 75.1685 100.398 75.1232 101.687 75.5828C103.009 76.0545 103.905 76.8646 104.375 78.0131C104.844 79.1616 104.827 80.4422 104.323 81.855ZM101.077 77.2383C99.8226 76.7907 98.8457 77.2258 98.1463 78.5434L102.537 80.1097C102.677 79.4332 102.621 78.84 102.37 78.3299C102.118 77.8198 101.688 77.456 101.077 77.2383ZM58.2815 92.4863L55.9928 91.6699L60.2987 79.5989L62.5874 80.4153L58.2815 92.4863ZM73.3245 87.7618C74.2852 88.1045 74.9304 88.6531 75.26 89.4077C75.6009 90.1664 75.596 91.0373 75.2452 92.0207L73.183 97.8019L71.0469 97.0399L72.9881 91.5977C73.3832 90.4901 73.0778 89.7569 72.0719 89.398C71.5294 89.2045 71.018 89.2451 70.5379 89.5197C70.073 89.7871 69.7075 90.2937 69.4415 91.0397L67.724 95.8545L65.6047 95.0986L67.546 89.6565C67.9411 88.5488 67.6301 87.8136 66.6128 87.4507C66.0816 87.2612 65.5759 87.3038 65.0957 87.5784C64.6309 87.8458 64.2654 88.3525 63.9993 89.0984L62.2818 93.9133L60.1457 93.1513L63.2662 84.4032L65.3345 85.141L64.887 86.3956C65.8328 85.6372 66.8369 85.4476 67.8993 85.8265C69.233 86.3023 69.9437 87.1673 70.0313 88.4217C71.0739 87.5705 72.1716 87.3505 73.3245 87.7618ZM82.9558 91.1973C84.1538 91.6247 84.9617 92.3779 85.3795 93.457C85.7819 94.5433 85.7351 95.7816 85.2392 97.1718C84.7474 98.5507 84.0019 99.5334 83.0028 100.12C81.9924 100.702 80.8881 100.78 79.6901 100.352C78.5033 99.929 77.7584 99.16 77.4552 98.0454L75.8647 102.504L73.7286 101.742L78.0344 89.6712L80.0858 90.4029L79.6383 91.6575C80.618 90.9113 81.7238 90.7579 82.9558 91.1973ZM78.426 97.0921C78.6369 97.7152 79.0984 98.1537 79.8104 98.4077C80.5112 98.6577 81.1557 98.6009 81.744 98.2375C82.317 97.8813 82.7668 97.2454 83.0933 96.3299C83.4118 95.437 83.456 94.6883 83.2257 94.0838C83.0107 93.472 82.5416 93.0371 81.8182 92.7791C81.1061 92.5251 80.4656 92.5705 79.8967 92.9154C79.3277 93.2603 78.882 93.8849 78.5595 94.7891C78.2329 95.7046 78.1884 96.4722 78.426 97.0921ZM92.7804 104.792L90.6443 104.03C90.607 103.813 90.6549 103.429 90.7879 102.878C89.8978 103.516 88.8085 103.605 87.52 103.145C86.5593 102.803 85.8734 102.297 85.4623 101.628C85.0625 100.963 85.0097 100.218 85.304 99.3927C85.8725 97.799 87.316 97.2883 89.6345 97.8605L90.9992 98.2136C91.4602 98.3143 91.8129 98.3255 92.0575 98.2471C92.3061 98.1574 92.4848 97.96 92.5936 97.6548C92.7267 97.2818 92.6991 96.9662 92.5109 96.708C92.3381 96.4425 91.9635 96.2069 91.387 96.0013C90.7654 95.7795 90.2807 95.7277 89.9328 95.8456C89.589 95.9523 89.3037 96.2519 89.0771 96.7444L86.9748 95.9945C87.8087 94.0496 89.4746 93.5227 91.9725 94.4137C94.4025 95.2805 95.305 96.5898 94.6801 98.3417L93.0171 103.004C92.7429 103.773 92.664 104.369 92.7804 104.792ZM88.5729 101.801C89.2398 102.039 89.8468 102.051 90.394 101.839C90.9452 101.615 91.3438 101.159 91.5898 100.469L91.874 99.6723C91.606 99.7805 91.2303 99.7803 90.7467 99.6715L89.5455 99.3959C88.9562 99.2621 88.5009 99.2526 88.1797 99.3674C87.8738 99.4748 87.6543 99.7151 87.5213 100.088C87.3882 100.461 87.4077 100.799 87.5798 101.103C87.7672 101.399 88.0982 101.632 88.5729 101.801ZM97.8309 106.823C96.5424 106.364 95.6461 105.573 95.142 104.45C94.6451 103.343 94.6447 102.094 95.1406 100.704C95.6405 99.3022 96.4332 98.33 97.5187 97.7872C98.5929 97.2403 99.7855 97.2007 101.097 97.6683C102.238 98.0756 103.062 98.7133 103.567 99.5817C104.077 100.439 104.211 101.404 103.968 102.477L101.832 101.715C101.912 101.17 101.83 100.701 101.588 100.309C101.346 99.9167 100.97 99.6299 100.462 99.4485C99.7948 99.2106 99.1825 99.2661 98.6249 99.6151C98.0825 99.9567 97.6501 100.58 97.3276 101.484C97.0051 102.388 96.9492 103.152 97.1602 103.775C97.3751 104.387 97.8104 104.809 98.4659 105.043C98.9858 105.229 99.4714 105.243 99.9225 105.085C100.389 104.92 100.759 104.581 101.031 104.066L103.167 104.828C102.679 105.839 101.95 106.528 100.978 106.895C100.01 107.25 98.9612 107.227 97.8309 106.823ZM110.641 101.302L110.061 102.93L108.332 102.313L106.644 107.043C106.543 107.326 106.546 107.55 106.653 107.715C106.771 107.885 107.011 108.034 107.372 108.163L108.101 108.423L107.521 110.051C107.041 109.93 106.66 109.82 106.378 109.719C105.428 109.381 104.796 108.957 104.48 108.45C104.179 107.935 104.168 107.288 104.446 106.508L106.212 101.557L104.856 101.073L105.437 99.4458L106.793 99.9296L107.7 97.3866L109.819 98.1425L108.912 100.686L110.641 101.302Z" fill="#4B2D36"/>
<path d="M75.7471 43.6854C78.8801 40.7912 80.2626 36.4464 79.3723 32.2683C82.2299 35.4813 86.5901 37.0088 90.8253 36.2882C87.6923 39.1823 86.3098 43.5272 87.2001 47.7052C84.3426 44.4923 79.9823 42.9648 75.7471 43.6854Z" fill="white" stroke="#E290A9"/>
<path d="M79.531 136.516C82.7101 133.672 84.1623 129.35 83.3393 125.158C86.1448 128.417 90.4799 130.014 94.7262 129.362C91.547 132.205 90.0948 136.527 90.9179 140.719C88.1123 137.461 83.7772 135.863 79.531 136.516Z" fill="white" stroke="#E290A9"/>
</svg>
