<svg width="160" height="120" viewBox="0 0 160 120" fill="none" xmlns="http://www.w3.org/2000/svg">
<path fill-rule="evenodd" clip-rule="evenodd" d="M19.9701 60.9234C17.7359 54.6839 20.9827 47.8147 27.2222 45.5804L111.196 15.5106C117.436 13.2763 124.305 16.5232 126.539 22.7626L127.597 25.7154C127.894 25.5556 128.203 25.4173 128.525 25.302C133.875 23.3863 140.611 28.5314 143.569 36.794C146.528 45.0565 144.59 53.3076 139.24 55.2233C138.918 55.3386 138.591 55.4283 138.26 55.4934L139.877 60.0102C142.111 66.2496 138.865 73.1189 132.625 75.3532L48.6509 105.423C42.4114 107.657 35.5421 104.41 33.3079 98.171L31.7408 93.7948C31.4512 93.9454 31.1504 94.0771 30.8387 94.1887C25.3026 96.1711 18.4163 91.08 15.4576 82.8175C12.4989 74.5549 14.5883 66.2498 20.1243 64.2674C20.4361 64.1558 20.7521 64.0666 21.0715 63.9991L19.9701 60.9234Z" fill="#FDD900"/>
<mask id="path-2-inside-1_6482_1244" fill="white">
<path fill-rule="evenodd" clip-rule="evenodd" d="M25.6189 63.5054C23.3847 57.266 26.6315 50.3967 32.871 48.1624L108.324 21.144C114.563 18.9097 121.432 22.1566 123.667 28.396L123.997 29.3176C124.27 29.174 124.555 29.0487 124.851 28.9429C129.773 27.1804 135.82 31.4955 138.357 38.581C140.894 45.6665 138.961 52.8392 134.039 54.6017C133.743 54.7075 133.444 54.7914 133.141 54.8542L133.952 57.1187C136.186 63.3581 132.939 70.2274 126.7 72.4617L51.247 99.4801C45.0076 101.714 38.1383 98.4675 35.904 92.228L35.137 90.0859C34.8703 90.2213 34.5939 90.3407 34.308 90.4431C29.2146 92.267 23.0288 88.0016 20.4916 80.9161C17.9544 73.8306 20.0266 66.6081 25.12 64.7843C25.4059 64.6819 25.6953 64.5987 25.9873 64.5341L25.6189 63.5054Z"/>
</mask>
<path fill-rule="evenodd" clip-rule="evenodd" d="M25.6189 63.5054C23.3847 57.266 26.6315 50.3967 32.871 48.1624L108.324 21.144C114.563 18.9097 121.432 22.1566 123.667 28.396L123.997 29.3176C124.27 29.174 124.555 29.0487 124.851 28.9429C129.773 27.1804 135.82 31.4955 138.357 38.581C140.894 45.6665 138.961 52.8392 134.039 54.6017C133.743 54.7075 133.444 54.7914 133.141 54.8542L133.952 57.1187C136.186 63.3581 132.939 70.2274 126.7 72.4617L51.247 99.4801C45.0076 101.714 38.1383 98.4675 35.904 92.228L35.137 90.0859C34.8703 90.2213 34.5939 90.3407 34.308 90.4431C29.2146 92.267 23.0288 88.0016 20.4916 80.9161C17.9544 73.8306 20.0266 66.6081 25.12 64.7843C25.4059 64.6819 25.6953 64.5987 25.9873 64.5341L25.6189 63.5054Z" fill="#FDD900"/>
<path d="M32.871 48.1624L33.2081 49.1039L32.871 48.1624ZM25.6189 63.5054L24.6774 63.8425L25.6189 63.5054ZM108.324 21.144L107.987 20.2025L108.324 21.144ZM123.997 29.3176L123.055 29.6548L123.443 30.7377L124.461 30.2031L123.997 29.3176ZM133.141 54.8542L132.938 53.875L131.812 54.1084L132.199 55.1913L133.141 54.8542ZM35.137 90.0859L36.0784 89.7488L35.6958 88.6803L34.684 89.1943L35.137 90.0859ZM25.9873 64.5341L26.2032 65.5105L27.3113 65.2654L26.9287 64.197L25.9873 64.5341ZM32.5338 47.2209C25.7744 49.6414 22.257 57.0831 24.6774 63.8425L26.5604 63.1683C24.5123 57.4488 27.4886 51.1519 33.2081 49.1039L32.5338 47.2209ZM107.987 20.2025L32.5338 47.2209L33.2081 49.1039L108.661 22.0854L107.987 20.2025ZM124.608 28.0589C122.188 21.2995 114.746 17.7821 107.987 20.2025L108.661 22.0854C114.38 20.0374 120.677 23.0137 122.725 28.7332L124.608 28.0589ZM124.938 28.9805L124.608 28.0589L122.725 28.7332L123.055 29.6548L124.938 28.9805ZM124.513 28.0014C124.174 28.123 123.846 28.2671 123.532 28.4322L124.461 30.2031C124.694 30.0809 124.936 29.9744 125.188 29.8843L124.513 28.0014ZM139.298 38.2439C137.969 34.5332 135.709 31.5066 133.079 29.6299C130.453 27.7559 127.369 26.9788 124.513 28.0014L125.188 29.8843C127.254 29.1444 129.655 29.6437 131.917 31.2579C134.176 32.8696 136.207 35.5433 137.415 38.9181L139.298 38.2439ZM134.376 55.5432C137.232 54.5205 139.121 51.9628 139.96 48.8477C140.801 45.7283 140.627 41.9545 139.298 38.2439L137.415 38.9181C138.624 42.2929 138.751 45.6483 138.029 48.3272C137.306 51.0105 135.768 52.9204 133.702 53.6602L134.376 55.5432ZM133.344 55.8333C133.692 55.7613 134.036 55.6648 134.376 55.5432L133.702 53.6602C133.45 53.7503 133.195 53.8216 132.938 53.875L133.344 55.8333ZM134.893 56.7815L134.082 54.517L132.199 55.1913L133.01 57.4558L134.893 56.7815ZM127.037 73.4031C133.796 70.9827 137.314 63.5409 134.893 56.7815L133.01 57.4558C135.058 63.1753 132.082 69.4721 126.363 71.5202L127.037 73.4031ZM51.5841 100.422L127.037 73.4031L126.363 71.5202L50.9099 98.5386L51.5841 100.422ZM34.9626 92.5651C37.383 99.3246 44.8247 102.842 51.5841 100.422L50.9099 98.5386C45.1904 100.587 38.8935 97.6104 36.8455 91.8909L34.9626 92.5651ZM34.1955 90.423L34.9626 92.5651L36.8455 91.8909L36.0784 89.7488L34.1955 90.423ZM34.684 89.1943C34.4547 89.3108 34.217 89.4135 33.9709 89.5017L34.6451 91.3846C34.9709 91.2679 35.2859 91.1318 35.5899 90.9774L34.684 89.1943ZM33.9709 89.5017C31.8045 90.2774 29.3198 89.7908 27.0089 88.1973C24.6996 86.605 22.639 83.9468 21.4331 80.579L19.5501 81.2532C20.8814 84.9709 23.1823 87.9881 25.8736 89.8439C28.5632 91.6985 31.7181 92.4327 34.6451 91.3846L33.9709 89.5017ZM21.4331 80.579C20.2271 77.2111 20.1319 73.8492 20.9055 71.1528C21.6797 68.4546 23.2907 66.5015 25.4571 65.7257L24.7828 63.8428C21.8559 64.8909 19.8841 67.4609 18.9831 70.6013C18.0816 73.7435 18.2189 77.5355 19.5501 81.2532L21.4331 80.579ZM25.4571 65.7257C25.7032 65.6376 25.9521 65.566 26.2032 65.5105L25.7713 63.5577C25.4384 63.6313 25.1086 63.7262 24.7828 63.8428L25.4571 65.7257ZM24.6774 63.8425L25.0458 64.8712L26.9287 64.197L26.5604 63.1683L24.6774 63.8425Z" fill="#E4C403" mask="url(#path-2-inside-1_6482_1244)"/>
<path d="M53.0318 97.5633L53.0994 101.093L56.0117 99.0975L54.3053 102.188L57.8253 101.916L54.8021 103.74L57.9866 105.264L54.4567 105.331L56.4525 108.244L53.3617 106.537L53.6338 110.057L51.8104 107.034L50.286 110.219L50.2185 106.689L47.3061 108.685L49.0126 105.594L45.4925 105.866L48.5158 104.042L45.3312 102.518L48.8611 102.451L46.8654 99.5382L49.9562 101.245L49.684 97.7246L51.5075 100.748L53.0318 97.5633Z" fill="#0045C0"/>
<path d="M112.947 6.40534L115.012 11.1226L117.819 6.8055L117.249 11.9233L121.839 9.58814L118.786 13.7352L123.928 14.0077L119.211 16.0727L123.528 18.8798L118.41 18.3096L120.745 22.8992L116.598 19.8464L116.326 24.9887L114.261 20.2714L111.454 24.5886L112.024 19.4707L107.434 21.8059L110.487 17.6589L105.345 17.3864L110.062 15.3213L105.745 12.5142L110.863 13.0845L108.527 8.49489L112.675 11.5476L112.947 6.40534Z" fill="#0045C0"/>
<path d="M38.3309 57.9722L47.0933 54.8679L47.6062 56.3157L44.047 57.5767L47.3382 66.8669L45.6944 67.4493L42.4031 58.1591L38.8438 59.42L38.3309 57.9722ZM56.9203 56.4278L55.3334 51.9486L56.9472 51.3769L60.7514 62.115L59.1377 62.6867L57.4439 57.9058L51.909 59.8667L53.6027 64.6476L51.989 65.2193L48.1848 54.4812L49.7985 53.9095L51.3854 58.3887L56.9203 56.4278ZM69.6786 55.5914L70.3773 57.228C70.6234 57.7632 70.899 58.1578 71.2041 58.4119L69.5451 58.9996C69.2407 58.7793 68.9731 58.3592 68.7422 57.7394L68.2908 56.6092C68.0149 55.9261 67.6863 55.4937 67.305 55.3119C66.9202 55.1201 66.4161 55.1346 65.7928 55.3554L62.6709 56.4614L64.2364 60.8803L62.6227 61.452L58.8184 50.714L63.5088 49.0523C64.655 48.6462 65.6493 48.5939 66.4916 48.8952C67.3404 49.183 67.9286 49.7893 68.2563 50.7143C68.4879 51.3679 68.5229 51.9778 68.3615 52.5443C68.2065 53.0971 67.8745 53.5655 67.3656 53.9495C67.9418 53.9151 68.4147 54.0361 68.7842 54.3126C69.1502 54.579 69.4483 55.0053 69.6786 55.5914ZM62.1954 55.1192L65.3022 54.0185C65.9255 53.7977 66.3562 53.4641 66.5941 53.0176C66.8421 52.5677 66.861 52.0461 66.6508 51.4529C66.4478 50.8798 66.1086 50.5133 65.6333 50.3536C65.168 50.1902 64.5936 50.2297 63.9099 50.4719L60.9237 51.5298L62.1954 55.1192ZM74.1042 57.3844L72.4905 57.9561L68.6862 47.2181L70.3 46.6464L74.1042 57.3844ZM79.3836 50.4557L79.3735 43.4318L81.0476 42.8388L80.9306 54.966L79.0906 55.6178L71.2898 46.2957L72.994 45.6919L77.4532 51.1396C78.1956 52.0534 78.8664 52.9248 79.4656 53.7536C79.4383 53.1975 79.411 52.0981 79.3836 50.4557ZM87.4478 52.6571L85.8341 53.2288L82.0299 42.4908L83.6436 41.9191L87.4478 52.6571ZM93.8835 41.9578L92.7294 38.7002L94.2828 38.1499L98.087 48.8879L96.232 49.5451L91.0858 45.5121C89.5862 44.3459 88.4796 43.4422 87.7659 42.8011C88.23 43.9833 88.8877 45.7759 89.739 48.1789L90.8931 51.4365L89.3246 51.9922L85.5204 41.2542L87.3754 40.597L92.5367 44.6246C93.9338 45.7253 95.0422 46.634 95.8619 47.3507C95.3943 46.1584 94.7348 44.3608 93.8835 41.9578ZM103.453 42.1831L102.967 40.8107L107.642 39.1544L109.64 44.7949L108.404 45.233L107.609 43.9018C107.2 45.3028 106.232 46.274 104.704 46.8154C103.155 47.3639 101.74 47.2825 100.458 46.571C99.1599 45.8768 98.2133 44.6901 97.6184 43.011C97.0165 41.3118 97.0081 39.7871 97.5935 38.4368C98.1652 37.0799 99.2404 36.1219 100.819 35.5627C102.136 35.0961 103.348 35.0514 104.455 35.4288C105.555 35.8198 106.394 36.5581 106.971 37.6437L105.312 38.2315C104.905 37.561 104.34 37.1161 103.617 36.8969C102.904 36.6741 102.146 36.7051 101.342 36.9901C100.266 37.3712 99.5447 38.051 99.1784 39.0295C98.7985 40.0015 98.8366 41.131 99.2925 42.4179C99.7484 43.7049 100.43 44.6064 101.337 45.1225C102.258 45.645 103.256 45.7157 104.332 45.3346C105.267 45.0033 105.953 44.4321 106.39 43.621C106.83 42.8199 106.907 41.9666 106.62 41.0611L103.453 42.1831ZM56.6647 81.0804L56.8197 74.7619L59.0668 73.9658L62.871 84.7039L61.3176 85.2542L60.1261 81.891C59.2677 79.4679 58.6449 77.646 58.2576 76.4252C58.2745 77.1435 58.2667 78.0798 58.2343 79.2342L58.0449 86.4136L56.6876 86.8945L51.9906 81.4462C51.3453 80.679 50.7602 79.9697 50.2352 79.3183C50.6993 80.5005 51.357 82.2931 52.2083 84.6961L53.3998 88.0593L51.8464 88.6096L48.0422 77.8716L50.2743 77.0808L54.5012 82.0166C55.3739 83.0427 56.0989 83.9232 56.6761 84.658C56.6552 83.545 56.6515 82.3525 56.6647 81.0804ZM66.3619 83.4671L64.7482 84.0388L60.944 73.3008L62.5577 72.7291L66.3619 83.4671ZM72.7976 72.7678L71.6435 69.5102L73.1969 68.9599L77.0011 79.6979L75.1461 80.3551L69.9999 76.3221C68.5004 75.1559 67.3938 74.2522 66.68 73.6111C67.1441 74.7933 67.8018 76.5859 68.6531 78.9889L69.8072 82.2465L68.2388 82.8022L64.4345 72.0642L66.2896 71.407L71.4508 75.4346C72.8479 76.5353 73.9563 77.444 74.7761 78.1607C74.3084 76.9684 73.6489 75.1708 72.7976 72.7678ZM75.0829 68.2917L78.9136 66.9346C80.5726 66.3469 82.0488 66.3614 83.3424 66.9782C84.6158 67.602 85.5482 68.7485 86.1395 70.4175C86.7308 72.0866 86.7281 73.5643 86.1315 74.8507C85.5147 76.1443 84.3768 77.0849 82.7178 77.6726L78.8871 79.0298L75.0829 68.2917ZM79.9986 77.0404L82.2005 76.2603C83.3769 75.8436 84.1556 75.1829 84.5368 74.2784C84.928 73.3703 84.8992 72.2828 84.4504 71.0159C84.0016 69.7491 83.3393 68.886 82.4637 68.4267C81.5981 67.9639 80.5771 67.9408 79.4008 68.3576L77.1989 69.1377L79.9986 77.0404ZM93.4114 74.1558C91.9937 74.658 90.7738 74.7281 89.7515 74.366C88.7393 74.0004 88.0091 73.201 87.5609 71.9679L89.1747 71.3962C89.7747 72.9942 91.035 73.453 92.9554 72.7727C93.7497 72.4913 94.3045 72.1249 94.6199 71.6737C94.9419 71.2089 94.9995 70.6849 94.7929 70.1017C94.6255 69.6291 94.3213 69.3295 93.8804 69.2028C93.4358 69.0661 92.7205 69.0593 91.7343 69.1823L90.7449 69.3122C89.5605 69.4828 88.5978 69.4165 87.8567 69.1132C87.1155 68.81 86.5882 68.216 86.2748 67.3312C85.9613 66.4464 86.0538 65.6215 86.5523 64.8565C87.0472 64.0814 87.8778 63.4872 89.0441 63.074C90.4517 62.5753 91.6143 62.503 92.5318 62.8569C93.4594 63.2072 94.1202 63.9067 94.5143 64.9553L92.9157 65.5217C92.6197 64.8457 92.2085 64.4199 91.6823 64.2442C91.1626 64.0549 90.4503 64.1205 89.5454 64.4411C88.8416 64.6904 88.35 65.0117 88.0706 65.4049C87.7912 65.7981 87.737 66.236 87.908 66.7186C88.0825 67.2113 88.3802 67.5245 88.801 67.6584C89.229 67.8123 89.9242 67.8262 90.8867 67.7003L91.8913 67.5651C93.2105 67.3919 94.2238 67.4573 94.9313 67.7611C95.6487 68.0615 96.1553 68.6289 96.4509 69.4634C96.8036 70.4588 96.7094 71.3748 96.1684 72.2115C95.6375 73.0446 94.7185 73.6927 93.4114 74.1558ZM102.642 58.5282L103.155 59.9761L97.1072 62.1186L98.1811 65.15L103.656 63.2105L104.158 64.6282L98.6833 66.5677L99.8855 69.961L105.888 67.8345L106.401 69.2823L98.7847 71.9805L94.9805 61.2425L102.642 58.5282ZM103.227 58.3208L111.99 55.2165L112.503 56.6644L108.943 57.9253L112.235 67.2155L110.591 67.7979L107.3 58.5077L103.74 59.7687L103.227 58.3208Z" fill="#39484D"/>
</svg>
