<svg width="64" height="64" viewBox="0 0 64 64" fill="none" xmlns="http://www.w3.org/2000/svg">
<rect width="64" height="64" rx="32" fill="white"/>
<path fill-rule="evenodd" clip-rule="evenodd" d="M48.2428 24.132H43.7782V26.8138C43.7782 28.0409 44.7841 29.0453 46.0097 29.0453C47.2369 29.0453 48.2412 28.0394 48.2412 26.8138L48.2428 24.132ZM42.6884 24.132H38.2238V26.8138C38.2238 28.0409 39.2297 29.0453 40.4553 29.0453C41.6825 29.0453 42.6868 28.0394 42.6868 26.8138V24.132H42.6884ZM37.1325 24.132H32.6679V26.8138C32.6679 28.0409 33.6737 29.0453 34.8994 29.0453C36.1265 29.0453 37.1309 28.0394 37.1309 26.8138L37.1325 24.132ZM31.5765 24.132H27.1119V26.8138C27.1119 28.0409 28.1178 29.0453 29.3434 29.0453C30.5706 29.0453 31.5749 28.0394 31.5749 26.8138L31.5765 24.132ZM26.0222 24.132H21.5576V26.8138C21.5576 28.0409 22.5634 29.0453 23.789 29.0453C25.0162 29.0453 26.0205 28.0394 26.0205 26.8138L26.0222 24.132ZM20.4662 24.132H16.0001L16.0031 26.8138C16.0031 28.0409 17.009 29.0453 18.2346 29.0453C19.4618 29.0453 20.4661 28.0394 20.4661 26.8138L20.4662 24.132ZM16.365 23.0407H47.8802L43.6172 15H21.0462C20.8005 15 20.6066 15.1145 20.4921 15.3297L16.365 23.0407ZM45.7281 30.1244V46.8758C45.7281 47.5764 45.1542 48.1503 44.4536 48.1503H19.7897C19.0891 48.1503 18.5152 47.5764 18.5152 46.8758V30.1244C19.547 30.0374 20.4598 29.4711 21.0108 28.6332C22.328 30.6342 25.2495 30.6342 26.5667 28.6332C27.8839 30.6342 30.8039 30.6342 32.1227 28.6332C33.4399 30.6342 36.3598 30.6342 37.6786 28.6332C38.9958 30.6342 41.9173 30.6342 43.2345 28.6332C43.7856 29.4711 44.6963 30.0374 45.7281 30.1244Z" fill="#151419"/>
<path fill-rule="evenodd" clip-rule="evenodd" d="M26.1882 33C24.7947 33 23.6657 34.1558 23.6657 35.5831C23.6657 37.009 24.7947 38.1661 26.1882 38.1661C27.5804 38.1661 28.7107 37.0103 28.7107 35.5831C28.7094 34.1558 27.5804 33 26.1882 33ZM32.0007 36.0387C30.6863 36.0387 29.6208 37.13 29.6208 38.4752C29.6208 39.8219 30.6863 40.9118 32.0007 40.9118C33.3151 40.9118 34.3806 39.8205 34.3806 38.4752C34.3806 37.13 33.3151 36.0387 32.0007 36.0387ZM37.8132 33C36.4198 33 35.2907 34.1558 35.2907 35.5831C35.2907 37.009 36.4197 38.1661 37.8132 38.1661C39.2067 38.1661 40.3358 37.0103 40.3358 35.5831C40.3345 34.1558 39.2054 33 37.8132 33ZM35.7561 46C35.8637 46 35.9518 45.9086 35.9518 45.7971V44.0365C35.9518 42.7328 35.2518 41.5891 34.2213 40.9924C32.9601 42.1684 31.0403 42.1684 29.7777 40.9924C28.7471 41.5905 28.0472 42.7328 28.0472 44.0365V45.7971C28.0472 45.9086 28.1353 46 28.2429 46H35.7561ZM41.7926 43.5553C41.9067 43.5553 42 43.4586 42 43.3403V41.4749C42 40.0705 41.2339 38.8434 40.1152 38.2185C38.8034 39.4267 36.8215 39.4267 35.5096 38.2185C35.4396 38.2575 35.3709 38.2991 35.3035 38.3422C35.3294 39.0356 35.1532 39.6902 34.8239 40.2438C35.9296 40.9481 36.7061 42.1563 36.8539 43.554L41.7926 43.5553ZM22.2074 43.5553H27.1461C27.2926 42.1563 28.0704 40.9481 29.1761 40.2452C28.8468 39.6915 28.6693 39.037 28.6965 38.3435C28.6291 38.3005 28.5604 38.2588 28.4904 38.2199C27.1786 39.4281 25.1966 39.4281 23.8848 38.2199C22.7648 38.8448 22 40.0718 22 41.4762V43.3417C22 43.4586 22.0933 43.5553 22.2074 43.5553Z" fill="white"/>
</svg>
