<svg width="64" height="64" viewBox="0 0 64 64" fill="none" xmlns="http://www.w3.org/2000/svg">
<rect width="64" height="64" rx="32" fill="white"/>
<path d="M48.1891 17.5256H15.5175C14.6416 17.5256 13.8971 18.3577 13.8971 19.4088V40.3869C13.8971 41.1752 14.6416 41.8759 15.5175 41.8759H28.1307C27.6927 42.7519 26.773 44.0657 24.9774 45.073H21.5175C21.1234 45.073 20.8168 45.3796 20.8168 45.7738C20.8168 46.1679 21.1234 46.4745 21.5175 46.4745H42.4956C42.8898 46.4745 43.1964 46.1679 43.1964 45.7738C43.1964 45.3796 42.8898 45.073 42.4956 45.073H38.773C36.9774 44.1095 36.0577 42.7519 35.6197 41.8759H48.2767C49.1526 41.8759 49.8971 41.1752 49.8971 40.3869V19.4088C49.8095 18.3577 49.065 17.5256 48.1891 17.5256ZM32.1161 38.2409C32.6416 38.3285 33.0796 38.7664 33.1672 39.292C33.3424 40.2555 32.5102 41.0438 31.5905 40.8686C31.065 40.781 30.627 40.3431 30.5394 39.8175C30.3642 38.8978 31.1526 38.0657 32.1161 38.2409ZM48.3205 36.0949H15.3861V20.4161C15.3861 19.4964 16.0431 18.7956 16.8752 18.7956H46.8752C47.6635 18.7956 48.3642 19.4964 48.3642 20.4161V36.0949H48.3205Z" fill="#151419"/>
<path d="M37.7295 22.7163C36.7384 21.039 35.671 20.8484 34.0699 20.8103C33.8031 21.3821 33.1169 21.9158 31.859 21.9158C30.601 21.9158 29.9148 21.3821 29.648 20.8103C28.0469 20.8484 26.9795 21.039 25.9884 22.7163C25.6072 23.3263 25.1497 24.2793 24.921 24.9273L27.2845 26.8715L27.7038 26.4521V33.1995C27.7038 33.1995 28.8856 33.8094 31.8971 33.8094C34.9086 33.8094 36.0903 33.1995 36.0903 33.1995V26.4521L36.4715 26.8715L38.8731 24.9273C38.6063 24.2793 38.0726 23.3263 37.7295 22.7163Z" fill="#151419"/>
</svg>
