<svg width="124" height="124" viewBox="0 0 124 124" fill="none" xmlns="http://www.w3.org/2000/svg">
<rect x="14.3877" y="45.4863" width="70.5288" height="70.5288" rx="11.3774" transform="rotate(-26.1637 14.3877 45.4863)" fill="#F6B1C6"/>
<rect x="20.3743" y="47.3039" width="61.0844" height="61.0844" rx="11.0219" transform="rotate(-26.1637 20.3743 47.3039)" fill="#F6B1C6" stroke="#E290A9" stroke-width="0.711088"/>
<path d="M52.7687 55.9095C51.6033 55.4938 50.7923 54.91 50.3357 54.1583C49.8871 53.4094 49.8323 52.5473 50.1711 51.5719L51.7745 52.1439C51.5647 52.7575 51.5892 53.2601 51.8483 53.6514C52.1153 54.0457 52.5945 54.3661 53.2856 54.6126C53.8482 54.8133 54.3155 54.8622 54.6874 54.7593C55.0622 54.6484 55.3212 54.392 55.4646 53.9901C55.585 53.6526 55.5481 53.3495 55.354 53.081C55.1679 52.8153 54.7657 52.4951 54.1474 52.1206L53.4757 51.7179C51.7585 50.7158 51.1478 49.5195 51.6438 48.1291C51.9076 47.3897 52.3981 46.9033 53.1156 46.67C53.8358 46.4287 54.6943 46.4857 55.6909 46.8412C56.8241 47.2455 57.594 47.7919 58.0007 48.4805C58.4154 49.172 58.484 49.9575 58.2065 50.837L56.6272 50.2736C56.7699 49.7719 56.7342 49.3515 56.52 49.0123C56.3138 48.676 55.8892 48.3932 55.2462 48.1639C54.7479 47.9861 54.3332 47.9424 54.002 48.0326C53.6709 48.1229 53.4451 48.3368 53.3247 48.6743C53.2014 49.0199 53.2274 49.3281 53.4025 49.599C53.5857 49.8727 53.9679 50.1857 54.5489 50.5379L55.2447 50.9492C56.1777 51.5085 56.7935 52.0679 57.0922 52.6274C57.4018 53.1818 57.4319 53.8086 57.1825 54.5078C56.8843 55.3436 56.3467 55.8857 55.5696 56.134C54.7953 56.3742 53.8617 56.2994 52.7687 55.9095ZM59.3546 48.3655L66.4914 50.9113L65.9711 52.3701L63.2224 51.3896L60.6809 58.5144L59.0414 57.9296L61.5829 50.8047L58.8342 49.8243L59.3546 48.3655ZM70.7344 62.1006L69.0105 61.4856L69.0105 59.3521L65.2492 58.0104L63.911 59.6666L62.2353 59.0689L68.5642 51.6507L70.4689 52.3301L70.7344 62.1006ZM66.8946 55.9882L66.238 56.8003L69.0108 57.7894L69.0044 56.7407C68.9782 55.9251 68.9743 54.8184 68.9927 53.4207C68.2997 54.2969 67.6003 55.1527 66.8946 55.9882ZM77.1631 56.4575L78.6539 55.2498L80.4502 55.8906L75.3779 59.9383L74.1695 63.3259L72.542 62.7454L73.7504 59.3578L72.3609 53.005L74.2054 53.663L74.603 55.5579C74.9159 57.119 75.0879 57.9957 75.1189 58.188C75.4735 57.8796 76.1549 57.3028 77.1631 56.4575ZM34.8349 65.4245C33.7178 65.026 32.9438 64.4147 32.513 63.5906C32.0931 62.7613 32.0752 61.8082 32.4594 60.7313L34.3687 55.3786L35.9962 55.9591L34.0826 61.3239C33.8504 61.9749 33.8428 62.5293 34.06 62.9873C34.2771 63.4453 34.7032 63.7875 35.3381 64.014C35.973 64.2405 36.5195 64.2451 36.9774 64.028C37.4354 63.8108 37.7805 63.3768 38.0127 62.7258L39.9263 57.361L41.5538 57.9416L39.6445 63.2943C39.2546 64.3873 38.6361 65.1179 37.789 65.4862C36.9448 65.8464 35.9601 65.8258 34.8349 65.4245ZM42.8363 58.3991L46.6097 59.7451C47.5661 60.0862 48.2193 60.6046 48.5691 61.3001C48.9298 61.9905 48.9568 62.7657 48.6501 63.6257C48.3462 64.4776 47.8347 65.0607 47.1156 65.3749C46.4074 65.684 45.5751 65.668 44.6187 65.3268L42.4728 64.5613L41.402 67.5632L39.7745 66.9826L42.8363 58.3991ZM42.9716 63.1629L45.0452 63.9026C45.5194 64.0717 45.9226 64.0842 46.2549 63.94C46.5981 63.7906 46.85 63.4909 47.0105 63.0408C47.1711 62.5907 47.1657 62.1993 46.9946 61.8664C46.8314 61.5364 46.5128 61.2869 46.0386 61.1177L43.965 60.3781L42.9716 63.1629ZM50.6536 61.1876L53.9327 62.3573C55.3071 62.8475 56.2318 63.6077 56.7069 64.6378C57.1791 65.676 57.1787 66.8582 56.7056 68.1843C56.2326 69.5104 55.4862 70.4219 54.4664 70.9188C53.4437 71.4237 52.2452 71.4311 50.8709 70.9408L47.5918 69.7711L50.6536 61.1876ZM49.7181 68.9532L51.3456 69.5338C52.1895 69.8348 52.928 69.8219 53.5609 69.495C54.1968 69.1602 54.6824 68.5225 55.0179 67.5822C55.3533 66.6419 55.3794 65.8449 55.0962 65.1912C54.8158 64.5295 54.2537 64.0481 53.4098 63.7471L51.7823 63.1666L49.7181 68.9532ZM63.4815 75.4391L61.7575 74.8242L61.7576 72.6907L57.9962 71.3489L56.658 73.0052L54.9823 72.4074L61.3112 64.9892L63.216 65.6687L63.4815 75.4391ZM59.6417 69.3267L58.9851 70.1389L61.7578 71.1279L61.7514 70.0793C61.7253 69.2636 61.7214 68.157 61.7398 66.7593C61.0468 67.6355 60.3474 68.4913 59.6417 69.3267ZM65.358 66.4328L72.4949 68.9786L71.9746 70.4373L69.2259 69.4568L66.6844 76.5817L65.0448 75.9968L67.5863 68.872L64.8377 67.8915L65.358 66.4328ZM79.6458 71.5294L79.1255 72.9881L74.4238 71.311L73.7014 73.3363L77.957 74.8543L77.4581 76.2528L73.2025 74.7348L72.4027 76.9771L77.0802 78.6456L76.5599 80.1043L70.2548 77.8553L73.3167 69.2717L79.6458 71.5294ZM80.6512 71.888L83.9304 73.0577C85.3047 73.548 86.2294 74.3081 86.7045 75.3383C87.1767 76.3765 87.1763 77.5586 86.7033 78.8847C86.2302 80.2108 85.4838 81.1223 84.464 81.6192C83.4413 82.1242 82.2428 82.1315 80.8685 81.6413L77.5894 80.4716L80.6512 71.888ZM79.7157 79.6537L81.3432 80.2342C82.1871 80.5353 82.9256 80.5223 83.5586 80.1955C84.1944 79.8606 84.6801 79.223 85.0155 78.2827C85.3509 77.3423 85.377 76.5453 85.0938 75.8917C84.8134 75.23 84.2513 74.7486 83.4074 74.4476L81.7799 73.867L79.7157 79.6537Z" fill="#4B2D36"/>
<path d="M56.4381 22.9003C58.4708 25.1877 61.5737 26.274 64.5876 25.76C62.3573 27.8185 61.3727 30.9097 62.007 33.8825C59.974 31.5956 56.8717 30.5094 53.858 31.0238C56.089 28.965 57.0729 25.8738 56.4381 22.9003Z" fill="white" stroke="#E290A9" stroke-width="0.711088"/>
<path d="M59.26 88.9533C61.2556 91.2731 64.3406 92.4091 67.3624 91.9436C65.0993 93.966 64.0651 97.041 64.6516 100.024C62.6556 97.7043 59.5712 96.5683 56.5496 97.0342C58.8134 95.0116 59.8469 91.9365 59.26 88.9533Z" fill="white" stroke="#E290A9" stroke-width="0.711088"/>
</svg>
