<svg width="85" height="38" viewBox="0 0 85 38" fill="none" xmlns="http://www.w3.org/2000/svg">
<path d="M84.0204 26.6407C85.0219 24.0273 84.9812 23.6121 83.7259 22.3517C82.6529 21.2412 81.487 20.8943 78.2907 20.7883C70.8397 20.4705 67.8126 22.947 74.8354 23.6002C76.9065 23.7746 78.5788 24.1557 78.6032 24.4048C78.6927 25.3183 72.5408 29.2747 68.3528 31.0266C56.0753 36.2121 41.0967 34.3682 35.6439 27.0635C33.9425 24.6731 33.327 23.0985 33.8888 22.4146C34.0761 22.1867 35.3804 21.8074 36.8295 21.6234C43.3037 20.5279 48.1611 16.1952 47.0475 12.5315C46.2888 9.92296 40.4303 8.31721 36.3595 9.55452C33.8421 10.3881 31.367 12.9363 30.2401 15.9811L29.2467 18.6775L24.6908 17.531C16.1017 15.4383 9.67501 11.4568 5.59315 5.73644C4.52506 4.24814 3.05479 2.5058 2.27975 1.86911L0.874584 0.791116L1.21156 2.51874C1.63482 4.69905 4.1471 8.51912 7.36608 11.8507C10.6307 15.2198 17.2576 18.6786 24.1534 20.6019L29.626 22.1197L30.9399 25.2608C36.4315 38.0952 58.6347 41.369 73.6903 31.5935C75.5857 30.4016 77.4811 29.2098 77.8719 28.92C78.3832 28.5764 78.5606 29.104 78.3375 30.6769C78.1648 31.9096 78.3162 33.0266 78.7477 33.152C79.8387 33.59 82.8267 29.8597 84.0204 26.6407ZM37.5006 18.2041C34.1527 19.119 32.7264 18.2527 33.7605 15.9715C34.8988 13.4705 38.3475 11.8749 41.3061 12.5492C44.3477 13.2153 44.3477 13.2153 43.7061 14.3681C42.9685 15.8237 40.5243 17.4047 37.5006 18.2041Z" fill="#F26722"/>
</svg>
