<svg width="64" height="64" viewBox="0 0 64 64" fill="none" xmlns="http://www.w3.org/2000/svg">
<rect width="64" height="64" rx="32" fill="white"/>
<path d="M29.9844 38.5888L32.1977 36.377C32.3981 36.1767 32.6141 35.9998 32.8442 35.8464C33.8022 35.2093 34.9903 34.9839 36.1314 35.2453L40.2295 36.1892C40.2843 36.2018 40.3454 36.208 40.4033 36.208H41.3581V44.3571L35.8859 38.8848C35.8859 38.8848 32.9399 41.8214 32.8617 41.8809C32.4829 42.1705 32.018 42.3286 31.5374 42.3286C30.9551 42.3286 30.3978 42.0969 29.9877 41.6868C29.5776 41.2766 29.3428 40.7178 29.3428 40.1371C29.3428 39.5548 29.5745 38.9975 29.9846 38.5874L29.9844 38.5888ZM20.2248 34.0338C20.6819 34.0338 21.1186 34.2154 21.4426 34.5379C21.7667 34.8603 21.9467 35.2986 21.9467 35.7557V47.026C21.9467 47.483 21.7651 47.9198 21.4426 48.2438C21.1186 48.5663 20.6819 48.7478 20.2248 48.7478H17.7219C17.2648 48.7478 16.8281 48.5663 16.504 48.2438C16.1816 47.9198 16 47.4831 16 47.026V35.7557C16 35.2986 16.1816 34.8603 16.504 34.5379C16.828 34.2154 17.2648 34.0338 17.7219 34.0338H20.2248ZM44.0192 34.0338H46.5222C46.9793 34.0338 47.416 34.2154 47.74 34.5379C48.064 34.8603 48.2441 35.2986 48.2441 35.7557V47.026C48.2441 47.483 48.0625 47.9198 47.74 48.2438C47.416 48.5663 46.9793 48.7478 46.5222 48.7478H44.0192C43.5622 48.7478 43.1254 48.5663 42.8014 48.2438C42.479 47.9198 42.2974 47.4831 42.2974 47.026V35.7557C42.2974 35.2986 42.479 34.8603 42.8014 34.5379C43.1254 34.2154 43.5621 34.0338 44.0192 34.0338ZM28.5382 46.8209C28.4505 46.9085 28.4004 47.0259 28.4004 47.1496C28.4004 47.2717 28.4505 47.3906 28.5382 47.4767L28.9217 47.8618C29.1565 48.0966 29.2895 48.4143 29.2895 48.7477C29.2895 49.0796 29.1549 49.3989 28.9217 49.6337C28.4333 50.1221 27.6413 50.1221 27.1513 49.6337L24.8534 47.3358C24.5435 47.0243 24.1365 46.8333 23.6966 46.7926C23.5886 46.7911 23.4806 46.7864 23.371 46.7864H22.8874V36.2081H23.8422C23.9001 36.2081 23.9612 36.2019 24.016 36.1893L28.1125 35.2454C29.2537 34.9825 30.4417 35.2094 31.3997 35.8465L29.3225 37.9253C28.7339 38.5122 28.4052 39.309 28.4052 40.1386C28.4052 40.9682 28.7339 41.765 29.3225 42.352C29.9095 42.9389 30.7062 43.2692 31.5374 43.2692C32.223 43.2692 32.8883 43.0423 33.4315 42.6306L36.5292 45.7252C36.764 45.96 36.8955 46.2778 36.8955 46.6112C36.8955 46.943 36.764 47.2608 36.5292 47.4956H36.5261C36.0377 47.984 35.2457 47.984 34.7557 47.4956L32.1025 44.8439C31.9241 44.6639 31.6313 44.6639 31.4529 44.8439L31.4404 44.8564C31.3543 44.9425 31.3058 45.0599 31.3058 45.182C31.3058 45.3041 31.3527 45.4215 31.4404 45.5076L32.7271 46.7927C33.2155 47.2811 33.2155 48.0732 32.7271 48.5616C32.2387 49.0515 31.4435 49.0515 30.9551 48.5616L29.2035 46.81C29.0219 46.6284 28.7308 46.6284 28.5492 46.81L28.5382 46.8209ZM34.1154 41.9857L35.8842 40.2138L39.8711 44.2007C40.3595 44.6891 40.3595 45.4811 39.8711 45.9695V45.971C39.3811 46.4594 38.5875 46.4594 38.0991 45.971L34.1154 41.9857ZM37.545 32.0975C33.7194 34.6193 28.5148 34.1982 25.1475 30.8328C21.2999 26.9852 21.2999 20.735 25.1475 16.8857C28.9982 13.0381 35.2453 13.0381 39.0962 16.8857C42.4616 20.2511 42.8827 25.4543 40.361 29.2816L41.3362 32.4889C41.3863 32.6548 41.3409 32.8349 41.2203 32.957C41.0967 33.0791 40.9151 33.1245 40.7492 33.0744L37.5434 32.0976L37.545 32.0975ZM32.1229 31.2163C36.1834 31.2163 39.4813 27.9197 39.4813 23.8594C39.4813 19.7989 36.1832 16.5026 32.1229 16.5026C28.0626 16.5026 24.766 19.8007 24.766 23.8594C24.766 27.9199 28.0626 31.2163 32.1229 31.2163ZM26.0355 21.8242H28.6606C28.5713 22.4691 28.5228 23.1531 28.5228 23.8591C28.5228 24.5666 28.5698 25.2491 28.6606 25.894H26.0355C25.8226 25.2553 25.7068 24.5697 25.7068 23.8591C25.7068 23.1484 25.8226 22.4628 26.0355 21.8242ZM26.4362 26.8332H28.8218C29.0581 27.9633 29.426 28.937 29.8768 29.6648C29.9378 29.7588 29.9973 29.8496 30.0584 29.9372C28.4915 29.405 27.197 28.2811 26.4378 26.8347L26.4362 26.8332ZM34.191 29.9357C34.252 29.848 34.3131 29.7572 34.3726 29.6633C34.8218 28.937 35.1897 27.9618 35.4276 26.8316H37.8131C37.0524 28.278 35.7594 29.4019 34.191 29.9341L34.191 29.9357ZM30.0571 17.781C29.9961 17.8686 29.9366 17.9594 29.8756 18.0533C29.4263 18.7796 29.0585 19.7533 28.8206 20.8834H26.435C27.1942 19.4371 28.4887 18.3132 30.0556 17.7794L30.0571 17.781ZM38.2126 25.894H35.5907C35.6768 25.2491 35.7253 24.5666 35.7253 23.8591C35.7253 23.1516 35.6784 22.469 35.5907 21.8242H38.2126C38.4255 22.4644 38.5413 23.1484 38.5413 23.8591C38.5413 24.5697 38.4255 25.2553 38.2126 25.894ZM37.8135 20.885H35.4279C35.1916 19.7548 34.8237 18.7812 34.3729 18.0549C34.3134 17.9594 34.2524 17.8686 34.1913 17.7825C35.7598 18.3163 37.0527 19.4386 37.8135 20.8865L37.8135 20.885ZM34.4715 20.885H29.7803C29.99 19.9583 30.2984 19.1584 30.6772 18.5495C31.0936 17.8795 31.571 17.4413 32.1267 17.4413C32.6808 17.4413 33.1598 17.8796 33.5762 18.5495C33.955 19.1584 34.2634 19.9599 34.4731 20.885H34.4715ZM29.6064 21.8242H34.6451C34.7374 22.466 34.7875 23.15 34.7875 23.8591C34.7875 24.5697 34.7374 25.2522 34.6451 25.894H29.6064C29.514 25.2522 29.4639 24.5697 29.4639 23.8591C29.4639 23.15 29.514 22.4644 29.6064 21.8242ZM29.7801 26.8332H34.4714C34.2616 27.7599 33.9532 28.5597 33.5744 29.1686C33.1596 29.8386 32.6806 30.2769 32.125 30.2769C31.5708 30.2769 31.0919 29.8386 30.6755 29.1686C30.2967 28.5597 29.9899 27.7583 29.7785 26.8332H29.7801Z" fill="#151419"/>
</svg>
