<svg width="64" height="64" viewBox="0 0 64 64" fill="none" xmlns="http://www.w3.org/2000/svg">
<rect width="64" height="64" rx="32" fill="white"/>
<path d="M26.6053 31.7091H26.608C26.404 31.5106 26.102 31.4534 25.8408 31.5622C25.5797 31.6738 25.411 31.9295 25.411 32.2151C25.411 32.4001 25.4872 32.5769 25.6205 32.7075L29.4317 36.4751H29.4344C29.7064 36.7499 30.1498 36.7499 30.4246 36.4751L38.3816 28.5125C38.6563 28.2378 38.6563 27.7944 38.3816 27.5223C38.1095 27.2476 37.6662 27.2476 37.3914 27.5223L30.5852 34.3285C30.218 34.6957 29.6223 34.6957 29.255 34.3285L26.6053 31.7091ZM35.1229 18.0314C37.2094 20.2811 39.8426 21.9513 42.7672 22.8762V36.1459C40.7868 42.1442 37.547 43.8174 32.0003 45.7374C26.4537 43.8169 23.2083 42.1466 21.2334 36.1459V22.8762C24.1577 21.9513 26.7909 20.281 28.8777 18.0314H35.1229ZM36.056 26.1868L29.9108 32.3319L27.9304 30.3733L27.9332 30.376C26.9158 29.4022 25.3054 29.4239 24.3152 30.4223C23.3223 31.4206 23.3114 33.0283 24.288 34.0403C25.5284 35.2807 26.7879 36.513 28.0365 37.748C28.5153 38.2621 29.1818 38.556 29.8809 38.5695C30.5827 38.5804 31.2601 38.3084 31.7551 37.8106L39.7177 29.848C40.7052 28.8334 40.6915 27.2121 39.6905 26.211C38.6895 25.2099 37.0707 25.1994 36.056 26.1868ZM32 50C24.1412 47.3559 19.7149 45.0436 17.2017 36.7741V19.2556C21.1978 19.6365 24.5054 16.995 27.1225 14H36.8776C39.4945 16.9923 42.8023 19.6337 46.7984 19.2556V36.7685C44.2848 45.041 39.859 47.353 32 50ZM44.5595 36.7386C44.6248 36.5482 44.6574 36.3496 44.6547 36.1483V22.8757C44.6629 22.0242 44.0943 21.2789 43.2728 21.0558C40.6667 20.2153 38.3218 18.7136 36.4639 16.7006C36.113 16.3361 35.6288 16.1348 35.1228 16.1403H28.877C28.371 16.1348 27.8868 16.3361 27.5359 16.7006C25.6779 18.7136 23.333 20.2126 20.727 21.0531C19.9055 21.2762 19.337 22.0242 19.3451 22.8757V36.1455C19.3424 36.3441 19.375 36.5454 19.4403 36.7358C21.5975 43.2917 25.1883 45.3808 31.3821 47.5243C31.782 47.6685 32.2172 47.6685 32.6171 47.5243C38.8111 45.3808 42.4028 43.2916 44.5595 36.7386Z" fill="#151419"/>
</svg>
