<svg width="64" height="64" viewBox="0 0 64 64" fill="none" xmlns="http://www.w3.org/2000/svg">
<rect width="64" height="64" rx="32" fill="white"/>
<path fill-rule="evenodd" clip-rule="evenodd" d="M40.3984 46.3997C40.3984 45.0737 39.3244 43.9997 37.9984 43.9997H25.9986C24.6727 43.9997 23.5987 45.0737 23.5987 46.3997V48.7996H40.3984V46.3997ZM31.4437 19.9356C30.3862 19.6851 29.5987 18.7341 29.5987 17.6002C29.5987 16.2757 30.6742 15.2002 31.9987 15.2002C33.3231 15.2002 34.3986 16.2757 34.3986 17.6002C34.3986 18.7341 33.6111 19.6851 32.5536 19.9356C34.0086 26.3375 34.9356 32.8489 35.3241 39.4052L35.5266 42.7996H28.4676L28.6701 39.4052C29.0586 32.8489 29.9871 26.3375 31.4406 19.9356H31.4437ZM18.8948 18.3306L14.1037 29.1124C14.0302 29.2774 13.9972 29.4514 14.0002 29.6194C14.0107 32.9223 16.6956 35.5982 20.0001 35.5982C23.3045 35.5982 25.9896 32.9207 26 29.6194C26.003 29.4499 25.97 29.2759 25.8965 29.1124L21.9801 20.2986C23.7966 20.4741 26.4921 20.5356 29.2176 19.8831C28.7122 19.2681 28.4061 18.4821 28.4002 17.6242C24.2722 18.5601 20.2672 17.6302 20.2672 17.6302C19.6927 17.4982 19.1183 17.8056 18.8948 18.3306ZM42.02 20.2986L38.1037 29.1124C38.0302 29.2774 37.9972 29.4514 38.0002 29.6194C38.0107 32.9223 40.6956 35.5982 44.0001 35.5982C47.3045 35.5982 49.9896 32.9207 50 29.6194V29.6134C50.0015 29.4409 49.967 29.2699 49.8965 29.1124L45.1054 18.3306C44.8819 17.8056 44.3074 17.4981 43.7329 17.6301C43.7329 17.6301 39.7278 18.5601 35.5999 17.6241C35.5939 18.4821 35.2879 19.2681 34.7824 19.8831C37.5079 20.5356 40.2033 20.4741 42.02 20.2986ZM41.0465 28.4001H46.9535L44 21.7551L41.0465 28.4001ZM17.0469 28.4001H22.9539L20.0004 21.7551L17.0469 28.4001Z" fill="#151419"/>
</svg>
