<svg width="64" height="64" viewBox="0 0 64 64" fill="none" xmlns="http://www.w3.org/2000/svg">
<rect width="64" height="64" rx="32" fill="white"/>
<path fill-rule="evenodd" clip-rule="evenodd" d="M23.067 15.1157H40.9334C42.1753 15.1173 43.1822 16.1242 43.1837 17.3661V28.43C43.1822 29.6735 42.1753 30.6788 40.9334 30.6819H35.8895C35.3479 30.671 34.8468 30.962 34.5853 31.4351L32.6493 34.8014C32.5154 35.0333 32.268 35.1765 32.0003 35.1765C31.7326 35.1765 31.4852 35.0333 31.3513 34.8014L29.4153 31.4351C29.1539 30.962 28.6527 30.671 28.1112 30.6819H23.0673C21.8253 30.6788 20.8184 29.6735 20.8169 28.43V17.3661C20.8184 16.1242 21.8251 15.1173 23.067 15.1157ZM45.8326 34.6379C46.6388 34.6379 47.3656 35.1234 47.6737 35.8673C47.9819 36.6112 47.8107 37.4687 47.2411 38.0383C46.6715 38.6079 45.8155 38.7791 45.0701 38.4694C44.3262 38.1613 43.8406 37.436 43.8406 36.6299C43.8406 35.5296 44.7323 34.6379 45.8326 34.6379ZM36.168 46.8922C36.168 44.592 34.302 42.726 32.0002 42.726C29.6984 42.726 27.8324 44.592 27.8324 46.8922C27.8324 48.6088 31.0431 48.8842 32.0002 48.8842C32.9557 48.8842 36.168 48.6259 36.168 46.8922ZM43.084 45.1943C43.084 46.9109 39.8734 47.1863 38.9162 47.1863V47.1879C38.2937 47.1816 37.6743 47.1163 37.0642 46.9918C37.0658 46.9653 37.0658 46.9373 37.0642 46.9093C37.0642 45.4464 36.4308 44.055 35.3274 43.0964C36.2783 41.4747 38.1988 40.6935 40.0119 41.1884C41.8266 41.6833 43.0825 43.3314 43.0794 45.2115L43.084 45.1943ZM20.916 45.1943V45.1958C20.9129 43.3158 22.1704 41.6677 23.9835 41.1727C25.7965 40.6778 27.717 41.459 28.6696 43.0791C27.5662 44.0394 26.9327 45.4307 26.9327 46.8921C26.9296 46.9201 26.9296 46.9481 26.9327 46.9761C26.3227 47.1006 25.7017 47.166 25.0792 47.1722C24.1237 47.1722 20.9114 46.9138 20.9114 45.1801L20.916 45.1943ZM50 43.501V43.5026C49.9984 41.6257 48.7425 39.9823 46.931 39.4858C45.121 38.9909 43.2037 39.7675 42.2465 41.3829C43.3499 42.3432 43.9833 43.7329 43.9833 45.1958V45.283C44.5934 45.4059 45.2112 45.4713 45.8322 45.4791C46.7877 45.4791 50 45.216 50 43.487L50 43.501ZM14 43.501C14 45.2145 17.2106 45.4931 18.1678 45.4931V45.4946C18.7887 45.4868 19.4066 45.4215 20.0166 45.2985V45.2114C20.0166 43.75 20.65 42.3587 21.7535 41.3985C20.7979 39.7861 18.8852 39.0096 17.0753 39.4998C15.2669 39.9916 14.0094 41.6288 14.0001 43.5026L14 43.501ZM18.1678 34.6224C17.3616 34.6224 16.6348 35.1064 16.3267 35.8519C16.0185 36.5958 16.1897 37.4533 16.7593 38.0229C17.3289 38.5925 18.1849 38.7622 18.9303 38.454C19.6742 38.1458 20.1598 37.419 20.1598 36.6144C20.1598 36.0853 19.9497 35.5795 19.5762 35.206C19.2027 34.8309 18.6954 34.6224 18.1678 34.6224ZM25.0838 36.3157C24.2776 36.3157 23.5508 36.7997 23.2427 37.5451C22.9345 38.289 23.1057 39.1465 23.6753 39.7162C24.2449 40.2858 25.1009 40.4554 25.8463 40.1472C26.5903 39.8391 27.0758 39.1123 27.0758 38.3077C27.0758 37.7786 26.8657 37.2727 26.4922 36.8992C26.1187 36.5242 25.6114 36.3157 25.0838 36.3157ZM31.9998 38.012C32.8059 38.012 33.5312 38.4976 33.8409 39.2415C34.149 39.987 33.9778 40.8429 33.4083 41.4125C32.8387 41.9821 31.9812 42.1533 31.2372 41.8451C30.4933 41.537 30.0078 40.8102 30.0078 40.004C30.0078 38.9038 30.8995 38.012 31.9998 38.012ZM38.9158 36.3157C39.722 36.3157 40.4488 36.7997 40.7569 37.5451C41.0651 38.289 40.8939 39.1465 40.3243 39.7162C39.7547 40.2858 38.8987 40.4554 38.1533 40.1472C37.4093 39.8391 36.9238 39.1123 36.9238 38.3077C36.9238 37.2074 37.8155 36.3157 38.9158 36.3157ZM35.892 19.1032L36.6483 17.7928H36.6499C36.7728 17.5733 36.6965 17.2932 36.4755 17.1702C36.2561 17.0457 35.976 17.122 35.853 17.343L35.0967 18.6534H35.0951C35.036 18.7592 35.0204 18.8837 35.0531 19.002C35.0858 19.1187 35.1636 19.2168 35.2679 19.2775C35.4889 19.402 35.7675 19.3242 35.892 19.1032ZM36.4304 23.5574L37.7409 24.3138V24.3153C37.9556 24.4383 38.2295 24.3636 38.3525 24.1503C38.4754 23.9356 38.4023 23.6617 38.1875 23.5387L36.8771 22.7824L36.8756 22.7808C36.6624 22.6579 36.3884 22.7326 36.2639 22.9473C36.141 23.1605 36.2157 23.4345 36.4304 23.5574ZM37.0841 21.2354L38.547 20.837H38.5454C38.7711 20.7623 38.9003 20.5242 38.838 20.2939C38.7773 20.0635 38.5486 19.9219 38.3151 19.9686L36.8522 20.367C36.7308 20.3919 36.625 20.4651 36.5596 20.5709C36.4942 20.6767 36.474 20.8043 36.5067 20.9242C36.5378 21.044 36.6187 21.1452 36.7277 21.2043C36.8366 21.2634 36.9658 21.2743 37.0841 21.2354ZM28.1386 22.0634L26.4967 22.5023H26.4982C26.3301 22.5474 26.187 22.6563 26.0998 22.8057C26.0127 22.9536 25.9847 23.1279 26.0236 23.296L26.2352 24.0928C26.2757 24.2609 26.3831 24.4041 26.534 24.4912C26.6834 24.5737 26.8577 24.5955 27.0243 24.5535L28.6693 24.1115L28.123 22.0836L28.1386 22.0634ZM29.6093 23.9963L34.2595 24.4787L32.7608 18.9524L28.9712 21.693L29.6093 23.9963ZM35.5854 22.4027C35.9138 21.8471 35.8998 21.153 35.5496 20.6114C35.1995 20.0698 34.5738 19.771 33.9326 19.841L33.458 18.0793C33.4222 17.9361 33.3163 17.8194 33.1763 17.768C33.0362 17.7182 32.8806 17.7415 32.7607 17.8287L28.2631 21.1L26.271 21.6338C25.8742 21.7396 25.5364 21.998 25.331 22.3528C25.1256 22.7076 25.0696 23.1294 25.1754 23.5262L25.387 24.3231H25.3855C25.4944 24.7168 25.7528 25.0545 26.1076 25.26C26.2695 25.3518 26.4484 25.4156 26.6336 25.4467L28.1028 28.0084C28.2646 28.3383 28.5572 28.5873 28.9089 28.6947C29.2606 28.8021 29.6419 28.7601 29.961 28.5765C30.28 28.3928 30.5088 28.0862 30.5928 27.7283C30.6784 27.3688 30.6099 26.9921 30.406 26.6856L29.3618 24.8771L34.7885 25.439C34.9395 25.4623 35.092 25.4094 35.1947 25.2958C35.2959 25.1822 35.3348 25.025 35.2943 24.8771L34.7885 23.1123C35.1216 22.9769 35.4002 22.7372 35.5853 22.4307L35.5854 22.4027ZM34.8119 21.9529C34.9224 21.763 34.9536 21.5389 34.9007 21.3273C34.84 21.1156 34.6968 20.9382 34.5022 20.837C34.3949 20.7763 34.275 20.739 34.1505 20.7296L34.5489 22.2112C34.6501 22.1443 34.7357 22.0572 34.7964 21.9529L34.8119 21.9529ZM29.474 27.7298C29.5767 27.6723 29.653 27.5758 29.6857 27.4622C29.7137 27.3517 29.6981 27.2349 29.6406 27.1353L28.4453 25.0842L27.58 25.3145L28.8826 27.5649L28.8842 27.5664C28.9387 27.666 29.032 27.7392 29.1425 27.7656C29.2546 27.7983 29.3729 27.7859 29.474 27.7298Z" fill="#151419"/>
</svg>
