<svg width="64" height="64" viewBox="0 0 64 64" fill="none" xmlns="http://www.w3.org/2000/svg">
<rect width="64" height="64" rx="32" fill="white"/>
<path d="M24.0014 35.6924H43.0782C43.3149 35.6919 43.5465 35.6232 43.7452 35.4944C43.9438 35.3656 44.1011 35.1822 44.1982 34.9663L49.1212 23.8895C49.2054 23.7022 49.2414 23.4969 49.2259 23.2922C49.2105 23.0875 49.144 22.8899 49.0327 22.7175C48.9214 22.545 48.7687 22.4031 48.5886 22.3047C48.4084 22.2063 48.2065 22.1545 48.0012 22.1541H22.0076L20.9245 16.9726C20.8645 16.6927 20.7087 16.4425 20.4841 16.265C20.2595 16.0875 19.98 15.9939 19.6938 16.0003H16.0015C15.6751 16.0003 15.362 16.13 15.1312 16.3608C14.9004 16.5916 14.7708 16.9046 14.7708 17.2311C14.7708 17.5575 14.9004 17.8705 15.1312 18.1013C15.362 18.3322 15.6751 18.4618 16.0015 18.4618H18.6969L21.9707 33.7601C21.2214 34.1539 20.6061 34.7615 20.2028 35.5056C19.7995 36.2498 19.6265 37.097 19.7056 37.9398C19.7847 38.7825 20.1125 39.5827 20.6472 40.2388C21.182 40.8949 21.8997 41.3772 22.7091 41.6247C22.3499 42.2549 22.1592 42.967 22.1553 43.6923C22.1553 44.8348 22.6091 45.9305 23.417 46.7383C24.2248 47.5462 25.3205 48 26.4629 48C27.6054 48 28.7011 47.5462 29.5089 46.7383C30.3168 45.9305 30.7706 44.8348 30.7706 43.6923C30.768 43.0524 30.6207 42.4213 30.3398 41.8462H34.8936C34.6128 42.4213 34.4655 43.0524 34.4629 43.6923C34.4629 44.8348 34.9167 45.9305 35.7246 46.7383C36.5324 47.5462 37.6281 48 38.7705 48C39.913 48 41.0087 47.5462 41.8165 46.7383C42.6243 45.9305 43.0782 44.8348 43.0782 43.6923C43.0755 43.0524 42.9283 42.4213 42.6474 41.8462H44.3089C44.6353 41.8462 44.9484 41.7165 45.1792 41.4857C45.41 41.2549 45.5397 40.9419 45.5397 40.6155C45.5397 40.289 45.41 39.976 45.1792 39.7452C44.9484 39.5144 44.6353 39.3847 44.3089 39.3847H24.0014C23.5118 39.3847 23.0422 39.1902 22.696 38.844C22.3498 38.4978 22.1553 38.0282 22.1553 37.5386C22.1553 37.0489 22.3498 36.5794 22.696 36.2331C23.0422 35.8869 23.5118 35.6924 24.0014 35.6924Z" fill="#151419"/>
</svg>
