<svg width="64" height="64" viewBox="0 0 64 64" fill="none" xmlns="http://www.w3.org/2000/svg">
<rect width="64" height="64" rx="32" fill="white"/>
<path d="M44.745 22.177C43.7695 19.6391 42.0083 17.4794 39.7186 16.0131C37.4288 14.5469 34.7304 13.8509 32.0171 14.0268C29.3039 14.2026 26.7178 15.2411 24.6365 16.9906C22.5552 18.7401 21.0875 21.1091 20.4477 23.7517C20.4364 23.7984 20.4311 23.8464 20.432 23.8945C20.4941 24.2941 20.6317 24.6781 20.8376 25.0261C20.9142 25.185 21.0248 25.4175 21.0593 25.5182C21.0179 27.1913 20.308 28.398 18.4553 29.9512C18.2854 30.0924 18.1556 30.2756 18.0788 30.4827C18.0019 30.6897 17.9808 30.9133 18.0175 31.1311C18.137 31.8614 18.9366 32.3312 20.455 32.5595L19.8006 34.0495C19.7462 34.1733 19.7386 34.3126 19.7792 34.4415C19.8197 34.5705 19.9057 34.6803 20.0211 34.7507L20.4845 35.0329L20.0472 35.3523C19.977 35.4037 19.9198 35.4707 19.88 35.5481C19.8403 35.6254 19.8192 35.711 19.8183 35.798C19.8175 35.8849 19.8369 35.9709 19.8751 36.049C19.9133 36.1271 19.9692 36.1953 20.0384 36.248C20.4254 36.5436 20.7029 36.9597 20.8272 37.4306C20.5312 38.1497 20.0414 39.7708 20.8441 41.239C21.5958 42.6092 23.1517 42.3671 24.5254 42.1519C26.2578 41.8804 27.3435 41.787 27.7892 43.2169L29.4654 49.5842C29.4858 49.6614 29.5225 49.7334 29.5731 49.7953C29.6237 49.8571 29.687 49.9074 29.7587 49.9427C29.8304 49.978 29.9088 49.9974 29.9887 49.9998C30.0686 50.0022 30.148 49.9874 30.2217 49.9564L40.8956 45.4652C41.0251 45.4109 41.1293 45.3098 41.1876 45.182C41.2459 45.0543 41.2539 44.9093 41.21 44.7759C40.8253 43.6209 40.3825 42.4861 39.8835 41.3757C38.7898 38.8624 38.5301 38.2654 40.7286 36.7769C40.7401 36.7692 40.7512 36.7608 40.7623 36.752C42.8928 35.0641 44.4282 32.7397 45.1447 30.1178C45.8611 27.4959 45.7211 24.7137 44.745 22.177ZM39.8678 30.7294C39.0805 32.0933 37.9064 33.1931 36.494 33.8897C35.0816 34.5864 33.4944 34.8485 31.933 34.643C30.3716 34.4376 28.9063 33.7737 27.7222 32.7353C26.5381 31.697 25.6886 30.3309 25.281 28.8097C24.8734 27.2885 24.926 25.6806 25.4322 24.1894C25.9385 22.6981 26.8756 21.3905 28.125 20.4318C29.3744 19.4732 30.8801 18.9066 32.4516 18.8036C34.023 18.7007 35.5897 19.0661 36.9535 19.8537C38.7811 20.9105 40.1144 22.6494 40.6608 24.6886C41.2072 26.7277 40.922 28.9004 39.8678 30.7294ZM33.0544 26.1834C33.7615 26.4999 34.5568 26.5604 35.3037 26.3544C36.0506 26.1484 36.7024 25.6888 37.1473 25.0545C37.8198 24.0783 38.0499 22.5117 36.713 21.0148C36.6096 20.9474 36.5038 20.8823 36.3956 20.8194C35.3589 20.2181 34.1819 19.9011 32.9835 19.9004C32.3814 19.901 31.782 19.9804 31.2005 20.1367C30.1727 20.4123 29.2233 20.9238 28.4277 21.6305C27.6321 22.3372 27.0122 23.2197 26.6173 24.2079C26.2223 25.196 26.0632 26.2627 26.1526 27.3231C26.242 28.3835 26.5773 29.4084 27.1321 30.3165C27.1592 29.5 27.4014 28.7052 27.8344 28.0124C28.8048 26.4469 30.7954 25.2735 33.0544 26.1834ZM32.743 22.4056C32.997 21.9661 33.4151 21.6455 33.9054 21.5141C34.3957 21.3828 34.9181 21.4515 35.3578 21.7052C35.6859 21.8945 35.9504 22.1768 36.118 22.5165C36.2856 22.8562 36.3486 23.2379 36.2992 23.6134C36.2498 23.9889 36.0902 24.3414 35.8404 24.6261C35.5907 24.9109 35.2621 25.1152 34.8963 25.2132C34.5304 25.3112 34.1437 25.2985 33.7851 25.1767C33.4265 25.0549 33.112 24.8295 32.8815 24.5289C32.651 24.2284 32.5148 23.8662 32.4902 23.4883C32.4655 23.1103 32.5535 22.7335 32.743 22.4056ZM38.066 25.6875C37.4796 26.5334 36.6171 27.149 35.6264 27.4285C34.6357 27.708 33.5787 27.634 32.6366 27.2193C30.9792 26.5518 29.5064 27.4322 28.7822 28.6013C28.0875 29.7226 27.9397 31.3459 29.177 32.4461C29.298 32.5265 29.4213 32.6039 29.5489 32.6759C30.8688 33.438 32.4054 33.7378 33.915 33.5278C35.4246 33.3178 36.821 32.6099 37.8827 31.5164C38.9445 30.4229 39.6109 29.0063 39.7764 27.4911C39.9419 25.976 39.597 24.4489 38.7963 23.152C38.842 24.0548 38.5853 24.947 38.0668 25.6875H38.066ZM33.234 31.1973C33.0447 31.5254 32.7623 31.7899 32.4227 31.9575C32.083 32.1251 31.7013 32.1882 31.3258 32.1388C30.9502 32.0894 30.5978 31.9297 30.313 31.68C30.0283 31.4302 29.824 31.1017 29.726 30.7358C29.628 30.37 29.6407 29.9833 29.7625 29.6246C29.8843 29.266 30.1097 28.9515 30.4103 28.721C30.7108 28.4905 31.073 28.3544 31.4509 28.3297C31.8289 28.3051 32.2056 28.393 32.5336 28.5826C32.973 28.8365 33.2937 29.2546 33.425 29.745C33.5564 30.2353 33.4877 30.7577 33.234 31.1973ZM33.7096 22.964C33.7885 22.8272 33.9061 22.7169 34.0477 22.6471C34.1892 22.5772 34.3483 22.5509 34.5048 22.5715C34.6614 22.592 34.8083 22.6585 34.927 22.7626C35.0457 22.8667 35.1308 23.0036 35.1717 23.1561C35.2126 23.3085 35.2073 23.4697 35.1566 23.6192C35.1059 23.7687 35.012 23.8998 34.8867 23.9959C34.7615 24.092 34.6106 24.1488 34.453 24.1591C34.2955 24.1694 34.1385 24.1328 34.0018 24.0538C33.8186 23.9479 33.685 23.7737 33.6302 23.5693C33.5754 23.365 33.604 23.1473 33.7096 22.964ZM32.2674 30.6398C32.1885 30.7766 32.0708 30.8869 31.9291 30.9568C31.7875 31.0267 31.6283 31.0531 31.4717 31.0325C31.3151 31.0119 31.1682 30.9453 31.0494 30.8412C30.9306 30.7371 30.8454 30.6001 30.8045 30.4475C30.7636 30.295 30.7689 30.1337 30.8197 29.9841C30.8705 29.8346 30.9645 29.7034 31.0898 29.6073C31.2151 29.5112 31.3661 29.4544 31.5237 29.4441C31.6813 29.4338 31.8385 29.4705 31.9752 29.5495C32.1584 29.6555 32.2921 29.8298 32.3468 30.0342C32.4016 30.2386 32.373 30.4564 32.2674 30.6398Z" fill="#151419"/>
</svg>
