<svg width="64" height="64" viewBox="0 0 64 64" fill="none" xmlns="http://www.w3.org/2000/svg">
<rect width="64" height="64" rx="32" fill="white"/>
<path d="M49 26.3078V45.9617C48.9995 46.2634 48.9393 46.562 48.8231 46.8404C48.7069 47.1188 48.5369 47.3716 48.3228 47.5841C48.1087 47.7967 47.8547 47.9649 47.5754 48.079C47.2962 48.1932 46.9971 48.2511 46.6954 48.2495H30.7188C30.1124 48.2484 29.5311 48.007 29.1023 47.5782C28.6735 47.1494 28.4321 46.5681 28.431 45.9617V45.3111H42.4977C43.4381 45.3099 44.3397 44.9359 45.0046 44.2709C45.6696 43.6059 46.0437 42.7044 46.0448 41.764V22.4249L48.3116 24.6917C48.5277 24.902 48.6999 25.1532 48.818 25.4306C48.9362 25.7081 48.9981 26.0063 49 26.3078ZM39.8699 21.7239H44.7645C44.686 21.258 44.4645 20.8282 44.1306 20.4939L40.0588 16.4221C39.7239 16.0892 39.2943 15.8678 38.8289 15.7883V20.6661C38.8266 20.8042 38.8519 20.9414 38.9032 21.0696C38.9545 21.1979 39.0309 21.3146 39.1278 21.4131C39.2247 21.5115 39.3402 21.5897 39.4676 21.6431C39.595 21.6964 39.7318 21.7239 39.8699 21.7239ZM44.8022 41.764V22.9832H39.8699C39.5664 22.9832 39.2659 22.9232 38.9857 22.8065C38.7055 22.6899 38.4512 22.5189 38.2373 22.3035C38.0235 22.0881 37.8544 21.8326 37.7398 21.5515C37.6252 21.2705 37.5673 20.9696 37.5695 20.6661V15.7505H26.521C25.9146 15.7516 25.3334 15.993 24.9046 16.4218C24.4758 16.8506 24.2344 17.4318 24.2333 18.0383V21.3335C25.6951 20.6582 27.2986 20.3464 28.907 20.4244C30.5154 20.5025 32.0811 20.9681 33.4707 21.7818C34.8603 22.5954 36.0327 23.7329 36.8879 25.0973C37.7431 26.4617 38.2559 28.0126 38.3824 29.6179C38.509 31.2232 38.2457 32.8353 37.6149 34.3169C36.9841 35.7985 36.0046 37.1057 34.7596 38.1271C33.5147 39.1485 32.0414 39.8538 30.4651 40.183C28.8888 40.5122 27.2563 40.4555 25.7067 40.0177L24.2333 41.4869V41.764C24.2344 42.3704 24.4758 42.9516 24.9046 43.3804C25.3334 43.8092 25.9146 44.0506 26.521 44.0517H42.4977C42.7994 44.0534 43.0984 43.9955 43.3777 43.8813C43.6569 43.7671 43.9109 43.5989 44.125 43.3864C44.3391 43.1738 44.5092 42.9211 44.6254 42.6427C44.7416 42.3643 44.8017 42.0657 44.8022 41.764ZM19.3093 34.4557L16.0519 37.7005C15.7178 38.0354 15.453 38.4328 15.2725 38.8701C15.092 39.3073 14.9994 39.7758 15 40.2488C15.0006 40.7218 15.0943 41.1901 15.2759 41.6269C15.4574 42.0637 15.7233 42.4604 16.0581 42.7945C16.393 43.1286 16.7904 43.3934 17.2277 43.5739C17.6649 43.7543 18.1334 43.8469 18.6064 43.8464C19.0795 43.8458 19.5477 43.752 19.9845 43.5705C20.4213 43.3889 20.8181 43.1231 21.1521 42.7882L24.397 39.5559C22.1254 38.5484 20.3112 36.7298 19.3093 34.4557ZM34.6269 36.5797C33.405 37.8028 31.8477 38.636 30.1521 38.9739C28.4566 39.3118 26.6989 39.1392 25.1014 38.478C23.504 37.8167 22.1385 36.6965 21.1778 35.2591C20.2171 33.8217 19.7043 32.1316 19.7043 30.4027C19.7043 28.6738 20.2171 26.9838 21.1778 25.5464C22.1385 24.1089 23.504 22.9887 25.1014 22.3275C26.6989 21.6663 28.4566 21.4937 30.1521 21.8316C31.8477 22.1695 33.405 23.0026 34.6269 24.2257C35.4411 25.0352 36.0872 25.9977 36.5281 27.0578C36.969 28.1178 37.196 29.2546 37.196 30.4027C37.196 31.5509 36.969 32.6876 36.5281 33.7477C36.0872 34.8078 35.4411 35.7703 34.6269 36.5797ZM25.2869 27.2355C25.3458 27.1774 25.3925 27.1081 25.4245 27.0317C25.4564 26.9553 25.4728 26.8734 25.4728 26.7906C25.4728 26.7078 25.4564 26.6258 25.4245 26.5495C25.3925 26.4731 25.3458 26.4038 25.2869 26.3456C25.1683 26.2287 25.0085 26.1632 24.8419 26.1632C24.6754 26.1632 24.5156 26.2287 24.397 26.3456C23.3222 27.4223 22.7185 28.8814 22.7185 30.4027C22.7185 31.9241 23.3222 33.3832 24.397 34.4599C24.515 34.5778 24.6751 34.644 24.8419 34.644C25.0088 34.644 25.1688 34.5778 25.2869 34.4599C25.3458 34.4017 25.3925 34.3324 25.4245 34.256C25.4564 34.1796 25.4728 34.0977 25.4728 34.0149C25.4728 33.9321 25.4564 33.8502 25.4245 33.7738C25.3925 33.6974 25.3458 33.6281 25.2869 33.5699C24.4479 32.7294 23.9767 31.5903 23.9767 30.4027C23.9767 29.2151 24.4479 28.0761 25.2869 27.2355ZM32.507 26.3456C32.3877 26.2344 32.2298 26.1738 32.0667 26.1767C31.9035 26.1796 31.7479 26.2457 31.6325 26.361C31.5172 26.4764 31.4511 26.632 31.4482 26.7952C31.4453 26.9583 31.5059 27.1162 31.6171 27.2355C32.4561 28.0761 32.9273 29.2151 32.9273 30.4027C32.9273 31.5903 32.4561 32.7294 31.6171 33.5699C31.5002 33.6885 31.4347 33.8484 31.4347 34.0149C31.4347 34.1814 31.5002 34.3413 31.6171 34.4599C31.7359 34.5768 31.8954 34.6431 32.0621 34.6446C32.1448 34.6447 32.2267 34.6285 32.3031 34.5968C32.3794 34.5651 32.4488 34.5185 32.507 34.4599C33.5813 33.3827 34.1842 31.9232 34.1834 30.4019C34.1826 28.8805 33.5782 27.4217 32.5028 26.3456H32.507Z" fill="#151419"/>
</svg>
