<svg width="64" height="64" viewBox="0 0 64 64" fill="none" xmlns="http://www.w3.org/2000/svg">
<rect width="64" height="64" rx="32" fill="white"/>
<path fill-rule="evenodd" clip-rule="evenodd" d="M14 16.5135C14 16.2002 14.2537 15.9465 14.567 15.9465H15.9454V14.5681C15.9454 14.2548 16.1992 14.001 16.5125 14.001C16.8258 14.001 17.0795 14.2548 17.0795 14.5681V15.9465H26.0155C26.3288 15.9465 26.5826 16.2002 26.5826 16.5135C26.5826 16.8268 26.3288 17.0805 26.0155 17.0805H17.0795V25.4981C17.0795 25.8114 16.8258 26.0651 16.5125 26.0651C16.1992 26.0651 15.9454 25.8114 15.9454 25.4981V17.0805H14.567C14.2538 17.0805 14 16.8268 14 16.5135ZM26.0172 46.9197H17.0796V37.9836C17.0796 37.6704 16.8258 37.4166 16.5126 37.4166C16.1993 37.4166 15.9455 37.6703 15.9455 37.9836V46.9197H14.5671C14.2538 46.9197 14.0001 47.1734 14.0001 47.4867C14.0001 47.8 14.2538 48.0537 14.5671 48.0537H15.9455V49.4321C15.9455 49.7454 16.1993 49.9992 16.5126 49.9992C16.8258 49.9992 17.0796 49.7454 17.0796 49.4321V48.0537H26.0156C26.3289 48.0537 26.5827 47.8 26.5827 47.4867C26.5827 47.1734 26.3289 46.9197 26.0156 46.9197H26.0172ZM37.9827 17.0805H46.9188V26.0165C46.9188 26.3298 47.1725 26.5836 47.4858 26.5836C47.7991 26.5836 48.0528 26.3298 48.0528 26.0165V17.0805H49.4312C49.7445 17.0805 49.9983 16.8267 49.9983 16.5135C49.9983 16.2002 49.7445 15.9464 49.4312 15.9464H48.0528V14.568C48.0528 14.2547 47.7991 14.001 47.4858 14.001C47.1725 14.001 46.9188 14.2547 46.9188 14.568V15.9464H37.9827C37.6695 15.9464 37.4157 16.2002 37.4157 16.5135C37.4157 16.8267 37.6694 17.0805 37.9827 17.0805ZM49.433 46.9197H48.0546V37.9836C48.0546 37.6704 47.8008 37.4166 47.4875 37.4166C47.1742 37.4166 46.9205 37.6703 46.9205 37.9836V46.9197H37.9845C37.6712 46.9197 37.4174 47.1734 37.4174 47.4867C37.4174 47.8 37.6712 48.0537 37.9845 48.0537H46.9205V49.4321C46.9205 49.7454 47.1742 49.9992 47.4875 49.9992C47.8008 49.9992 48.0546 49.7454 48.0546 49.4321V48.0537H49.433C49.7462 48.0537 50 47.8 50 47.4867C50 47.1734 49.7463 46.9197 49.433 46.9197ZM35.5784 21.037H24.7532C23.6486 21.037 22.7532 21.9325 22.7532 23.037V27.1537L26.4247 24.0367C26.5767 23.9082 26.7756 23.8816 26.9557 23.9646C27.1358 24.0476 27.2439 24.2184 27.2439 24.4173V42.9646H30.1981V32.5153C29.1157 32.2584 28.3106 31.2857 28.3106 30.125C28.3106 28.7685 29.4102 27.6674 30.7682 27.6674C32.1247 27.6674 33.2259 28.767 33.2259 30.125C33.2259 31.2857 32.4208 32.2584 31.3384 32.5153V42.9646H32.9894V35.1594L35.5801 32.4684V21.0409C35.5801 21.0395 35.5795 21.038 35.5784 21.037V21.037ZM26.1066 42.9631V25.7988L19.3981 31.494V42.9631H26.1066ZM41.7344 41.1242V29.7899L42.7917 34.3431C43.5498 33.3782 44.0025 32.1627 44.0025 30.8391C44.0025 28.7386 42.8606 26.9044 41.1658 25.9238C39.4694 26.9044 38.3291 28.7386 38.3291 30.8391C38.3291 32.6953 39.2204 34.3415 40.5972 35.3767V41.1237H41.7359L41.7344 41.1242ZM45.3542 42.393C45.3542 42.0781 45.0989 41.8228 44.7856 41.8228H38.9087V35.6155L36.5169 33.1313L34.1251 35.6155V42.9616H44.7842C45.099 42.9616 45.3528 42.7063 45.3528 42.3915L45.3542 42.393ZM32.0149 30.1219C32.0149 29.4327 31.4558 28.8751 30.7681 28.8751C30.0789 28.8751 29.5213 29.4343 29.5213 30.1219C29.5213 30.8111 30.0804 31.3688 30.7681 31.3688C31.4573 31.3688 32.0149 30.8096 32.0149 30.1219Z" fill="#151419"/>
</svg>
