<svg width="91" height="66" viewBox="0 0 91 66" fill="none" xmlns="http://www.w3.org/2000/svg">
<path fill-rule="evenodd" clip-rule="evenodd" d="M61.164 6.14944C65.6008 4.55351 70.4818 6.86054 72.0651 11.3019L72.3635 12.139C72.5659 12.0169 72.7787 11.9129 73.0037 11.8319C76.0585 10.7331 80.0107 13.9831 81.8316 19.0907C83.6524 24.1983 82.6523 29.2296 79.5975 30.3285C79.3724 30.4094 79.1421 30.4637 78.9085 30.4985L79.5191 32.2112C81.1021 36.6525 78.7883 41.5467 74.3516 43.1425L29.5661 59.2519C25.1294 60.8478 20.2487 58.5414 18.6652 54.1003L18.0773 52.451C17.9129 52.539 17.7431 52.6179 17.5655 52.6818C14.4044 53.8187 10.3654 50.5998 8.5446 45.4925C6.72381 40.3849 7.81059 35.3225 10.9717 34.1853C11.1492 34.1214 11.3301 34.0732 11.5126 34.0363L11.2113 33.191C9.62798 28.7496 11.9416 23.8547 16.3784 22.2588L61.164 6.14944Z" fill="#FDD900"/>
<mask id="path-2-inside-1_25035_2983" fill="white">
<path d="M59.7111 10.9411C63.8005 9.47025 68.2643 11.316 70.1783 15.0915C70.3852 14.968 70.6037 14.8627 70.8344 14.7797C73.6132 13.7804 77.0282 16.2322 78.4629 20.2563C79.8976 24.2806 78.8084 28.3534 76.0296 29.3531C75.8189 29.4289 75.6038 29.482 75.3868 29.5189C76.7238 33.8614 74.4188 38.5359 70.1019 40.0887L30.8115 54.2215C26.5103 55.7686 21.792 53.6486 20.0651 49.471C19.9116 49.5499 19.7532 49.6216 19.5883 49.6809C16.7127 50.715 13.2186 48.2909 11.7839 44.2666C10.3493 40.2423 11.5173 36.1412 14.3928 35.1067C14.5773 35.0403 14.7647 34.9879 14.9536 34.9495C14.05 30.8135 16.3331 26.5442 20.4207 25.0739L59.7111 10.9411Z"/>
</mask>
<path d="M59.7111 10.9411C63.8005 9.47025 68.2643 11.316 70.1783 15.0915C70.3852 14.968 70.6037 14.8627 70.8344 14.7797C73.6132 13.7804 77.0282 16.2322 78.4629 20.2563C79.8976 24.2806 78.8084 28.3534 76.0296 29.3531C75.8189 29.4289 75.6038 29.482 75.3868 29.5189C76.7238 33.8614 74.4188 38.5359 70.1019 40.0887L30.8115 54.2215C26.5103 55.7686 21.792 53.6486 20.0651 49.471C19.9116 49.5499 19.7532 49.6216 19.5883 49.6809C16.7127 50.715 13.2186 48.2909 11.7839 44.2666C10.3493 40.2423 11.5173 36.1412 14.3928 35.1067C14.5773 35.0403 14.7647 34.9879 14.9536 34.9495C14.05 30.8135 16.3331 26.5442 20.4207 25.0739L59.7111 10.9411Z" fill="#FDD900"/>
<path d="M59.7111 10.9411L59.4722 10.271L59.4722 10.271L59.7111 10.9411ZM70.1783 15.0915L69.5444 15.4151L69.888 16.0929L70.5412 15.703L70.1783 15.0915ZM70.8344 14.7797L70.5955 14.1096L70.5955 14.1096L70.8344 14.7797ZM78.4629 20.2563L79.1324 20.0155L79.1324 20.0154L78.4629 20.2563ZM76.0296 29.3531L76.2685 30.0232L76.2685 30.0232L76.0296 29.3531ZM75.3868 29.5189L75.2693 28.8169L74.4683 28.9532L74.7076 29.7302L75.3868 29.5189ZM70.1019 40.0887L70.3408 40.7589L70.3408 40.7589L70.1019 40.0887ZM30.8115 54.2215L31.0504 54.8916V54.8916L30.8115 54.2215ZM20.0651 49.471L20.7219 49.1974L20.4275 48.4852L19.7418 48.8376L20.0651 49.471ZM19.5883 49.6809L19.8272 50.3511L19.8272 50.3511L19.5883 49.6809ZM11.7839 44.2666L11.1145 44.5074L11.1145 44.5074L11.7839 44.2666ZM14.3928 35.1067L14.1539 34.4365L14.1538 34.4365L14.3928 35.1067ZM14.9536 34.9495L15.0934 35.6474L15.8026 35.5033L15.648 34.7958L14.9536 34.9495ZM20.4207 25.0739L20.6596 25.744V25.744L20.4207 25.0739ZM59.7111 10.9411L59.95 11.6113C63.6978 10.2633 67.79 11.9545 69.5444 15.4151L70.1783 15.0915L70.8122 14.7679C68.7385 10.6775 63.9032 8.67723 59.4722 10.271L59.7111 10.9411ZM70.1783 15.0915L70.5412 15.703C70.7113 15.6014 70.8885 15.5164 71.0733 15.4499L70.8344 14.7797L70.5955 14.1096C70.3189 14.2091 70.059 14.3345 69.8154 14.48L70.1783 15.0915ZM70.8344 14.7797L71.0732 15.4499C72.1804 15.0517 73.4859 15.3146 74.7378 16.2133C75.9869 17.1101 77.1185 18.6039 77.7935 20.4971L78.4629 20.2563L79.1324 20.0154C78.3727 17.8846 77.0793 16.1404 75.5676 15.0551C74.0586 13.9718 72.2672 13.5084 70.5955 14.1096L70.8344 14.7797ZM78.4629 20.2563L77.7935 20.4971C78.4684 22.3905 78.5382 24.2664 78.1397 25.756C77.7404 27.249 76.8978 28.2846 75.7907 28.683L76.0296 29.3531L76.2685 30.0232C77.9402 29.4218 79.0316 27.9212 79.5129 26.1218C79.9951 24.319 79.8921 22.1465 79.1324 20.0155L78.4629 20.2563ZM76.0296 29.3531L75.7907 28.6829C75.6255 28.7424 75.4518 28.7858 75.2693 28.8169L75.3868 29.5189L75.5044 30.2209C75.7557 30.1782 76.0122 30.1154 76.2685 30.0232L76.0296 29.3531ZM75.3868 29.5189L74.7076 29.7302C75.933 33.7104 73.8199 37.9952 69.863 39.4186L70.1019 40.0887L70.3408 40.7589C75.0178 39.0765 77.5146 34.0124 76.0661 29.3077L75.3868 29.5189ZM70.1019 40.0887L69.863 39.4186L30.5726 53.5513L30.8115 54.2215L31.0504 54.8916L70.3408 40.7589L70.1019 40.0887ZM30.8115 54.2215L30.5726 53.5513C26.6299 54.9695 22.3046 53.0261 20.7219 49.1974L20.0651 49.471L19.4083 49.7447C21.2793 54.271 26.3906 56.5678 31.0504 54.8916L30.8115 54.2215ZM20.0651 49.471L19.7418 48.8376C19.6091 48.9058 19.4792 48.9641 19.3494 49.0108L19.5883 49.6809L19.8272 50.3511C20.0272 50.2792 20.2142 50.194 20.3884 50.1045L20.0651 49.471ZM19.5883 49.6809L19.3495 49.0108C18.1836 49.43 16.8299 49.172 15.5513 48.285C14.2741 47.3989 13.1266 45.9142 12.4534 44.0258L11.7839 44.2666L11.1145 44.5074C11.8759 46.6434 13.1928 48.3829 14.7402 49.4564C16.2863 50.529 18.1175 50.9659 19.8272 50.3511L19.5883 49.6809ZM11.7839 44.2666L12.4534 44.0258C11.7802 42.1374 11.7286 40.2586 12.1556 38.7595C12.583 37.2588 13.4659 36.1963 14.6317 35.7768L14.3928 35.1067L14.1538 34.4365C12.4442 35.0516 11.3054 36.5569 10.7886 38.3715C10.2713 40.1876 10.353 42.3715 11.1145 44.5074L11.7839 44.2666ZM14.3928 35.1067L14.6317 35.7768C14.7839 35.722 14.9382 35.679 15.0934 35.6474L14.9536 34.9495L14.8138 34.2517C14.5912 34.2969 14.3707 34.3585 14.1539 34.4365L14.3928 35.1067ZM14.9536 34.9495L15.648 34.7958C14.8198 31.005 16.9134 27.0915 20.6596 25.744L20.4207 25.0739L20.1818 24.4037C15.7528 25.9968 13.2802 30.6221 14.2592 35.1033L14.9536 34.9495ZM20.4207 25.0739L20.6596 25.744L59.95 11.6113L59.7111 10.9411L59.4722 10.271L20.1818 24.4037L20.4207 25.0739Z" fill="#E4C403" mask="url(#path-2-inside-1_25035_2983)"/>
<path d="M35.1415 38.9244L39.2907 37.4479L39.7457 38.738L33.8894 40.8219L33.7118 40.2101C33.5189 39.5909 33.4589 38.9882 33.5094 38.4098C33.5652 37.7021 33.9661 36.999 34.7043 36.2778L35.352 35.5888C35.7356 35.1975 35.9837 34.8545 36.1033 34.5445C36.2157 34.2497 36.2137 33.9193 36.0899 33.5685C35.9622 33.2064 35.7341 32.9564 35.4321 32.8218C35.1188 32.6913 34.7511 32.6948 34.3441 32.8396C33.417 33.1695 33.1291 33.8324 33.4724 34.8056L32.0027 35.3286C31.688 34.4725 31.6972 33.705 32.023 33.0414C32.3488 32.3778 32.9846 31.8714 33.9342 31.5334C34.7935 31.2277 35.5629 31.2086 36.2234 31.4576C36.8765 31.7219 37.3401 32.2066 37.5876 32.9082C37.8031 33.5193 37.8172 34.1002 37.6297 34.6509C37.4422 35.2016 37.0392 35.7908 36.4321 36.4145L35.8257 37.0761C35.4759 37.4553 35.2578 37.7749 35.16 38.0389C35.0623 38.303 35.0524 38.5995 35.1415 38.9244ZM43.6788 37.5423C42.6161 37.9204 41.6857 37.8439 40.8875 37.3128C40.0894 36.7816 39.4508 35.837 38.9718 34.479C38.4928 33.121 38.3969 31.9833 38.6841 31.066C38.9713 30.1486 39.6463 29.5008 40.709 29.1227C41.7604 28.7485 42.6908 28.825 43.5003 29.3522C44.2984 29.8833 44.9483 30.8239 45.4273 32.1819C45.9063 33.5399 45.9909 34.6816 45.7037 35.599C45.4052 36.5204 44.7302 37.1681 43.6788 37.5423ZM43.2238 36.2522C44.3091 35.866 44.5198 34.6956 43.8332 32.7491C43.1466 30.8027 42.2494 30.0266 41.1641 30.4128C40.0787 30.799 39.8793 31.9653 40.5659 33.9118C41.2525 35.8582 42.1384 36.6384 43.2238 36.2522ZM48.7435 34.0842L52.8927 32.6078L53.3477 33.8979L47.4914 35.9818L47.3138 35.3699C47.1208 34.7508 47.0609 34.148 47.1114 33.5696C47.1672 32.862 47.5681 32.1588 48.3063 31.4377L48.954 30.7486C49.3376 30.3574 49.5857 30.0144 49.7053 29.7043C49.8177 29.4096 49.8157 29.0791 49.6919 28.7283C49.5642 28.3662 49.336 28.1162 49.0341 27.9817C48.7208 27.8511 48.3531 27.8546 47.9461 27.9995C47.019 28.3293 46.7311 28.9922 47.0744 29.9654L45.6047 30.4884C45.29 29.6324 45.2992 28.8649 45.625 28.2013C45.9508 27.5376 46.5866 27.0312 47.5362 26.6933C48.3955 26.3875 49.1649 26.3684 49.8254 26.6174C50.4785 26.8818 50.9421 27.3664 51.1896 28.068C51.4051 28.6791 51.4192 29.26 51.2317 29.8108C51.0442 30.3615 50.6412 30.9507 50.0341 31.5743L49.4276 32.2359C49.0779 32.6151 48.8598 32.9347 48.762 33.1988C48.6643 33.4628 48.6544 33.7593 48.7435 34.0842ZM57.8452 28.7566L58.9192 28.3744L59.3743 29.6645L58.3003 30.0467L58.9549 31.9026L57.4287 32.4457L56.774 30.5898L52.8623 31.9817L52.3514 30.5332L54.4396 24.4406L56.1128 23.8451L57.8452 28.7566ZM56.3529 29.2876L55.1993 26.0171L53.7639 30.2089L56.3529 29.2876Z" fill="#39484D"/>
</svg>
