<svg width="86" height="86" viewBox="0 0 86 86" fill="none" xmlns="http://www.w3.org/2000/svg">
<rect x="6.93127" y="34.3179" width="52.0059" height="52.0059" rx="11.3774" transform="rotate(-31.7765 6.93127 34.3179)" fill="#9DDAF0"/>
<rect x="12.6278" y="35.9431" width="44.3315" height="43.7159" rx="9.64446" transform="rotate(-31.7765 12.6278 35.9431)" fill="#9DDAF0" stroke="#66BCDB" stroke-width="0.711088"/>
<path d="M30.6592 47.0268L35.3561 46.9596L35.377 48.4186L28.7475 48.5135L28.7762 47.8346C28.7919 47.1431 28.9365 46.5138 29.1844 45.947C29.4817 45.2515 30.1264 44.6791 31.118 44.2041L32.0073 43.7305C32.5284 43.467 32.8959 43.2058 33.1224 42.9337C33.3363 42.6746 33.4467 42.3402 33.4411 41.9435C33.4352 41.5339 33.2897 41.2032 33.0302 40.9637C32.758 40.7244 32.385 40.6017 31.9243 40.6083C30.8748 40.6233 30.3581 41.1939 30.3739 42.2946L28.7101 42.3184C28.6834 41.3459 28.954 40.574 29.5092 40.0156C30.0645 39.4572 30.8795 39.1639 31.9546 39.1485C32.9272 39.1346 33.7116 39.3794 34.2945 39.8575C34.8647 40.3486 35.1684 40.9971 35.1798 41.7906C35.1897 42.4817 35.0061 43.0732 34.6291 43.565C34.2521 44.0568 33.6442 44.5136 32.8182 44.935L31.9799 45.395C31.4972 45.6579 31.168 45.9059 30.9793 46.139C30.7906 46.3721 30.6796 46.6681 30.6592 47.0268ZM39.76 48.5608C38.557 48.578 37.6425 48.1814 37.0164 47.3711C36.3904 46.5608 36.0664 45.3878 36.0444 43.852C36.0225 42.3162 36.3128 41.1343 36.9154 40.3065C37.518 39.4786 38.4208 39.0561 39.6238 39.0388C40.8141 39.0218 41.7286 39.4184 42.3675 40.2285C42.9935 41.0388 43.3303 42.2117 43.3523 43.7474C43.3742 45.2832 43.0711 46.4653 42.4685 47.2931C41.8531 48.1212 40.9503 48.5437 39.76 48.5608ZM39.7392 47.1018C40.9678 47.0842 41.5792 45.9746 41.5477 43.7733C41.5162 41.572 40.8733 40.4803 39.6447 40.4978C38.4161 40.5154 37.8175 41.6249 37.849 43.8262C37.8805 46.0275 38.5105 47.1193 39.7392 47.1018ZM46.0571 46.8066L50.7541 46.7394L50.7749 48.1984L44.1454 48.2932L44.1741 47.6144C44.1898 46.9229 44.3344 46.2936 44.5823 45.7268C44.8796 45.0313 45.5243 44.4588 46.516 43.9838L47.4052 43.5103C47.9263 43.2468 48.2938 42.9855 48.5203 42.7135C48.7342 42.4544 48.8447 42.12 48.839 41.7232C48.8331 41.3137 48.6876 40.9829 48.4281 40.7434C48.1559 40.5041 47.7829 40.3814 47.3222 40.388C46.2727 40.403 45.756 40.9737 45.7718 42.0743L44.108 42.0981C44.0813 41.1256 44.3519 40.3537 44.9071 39.7953C45.4624 39.237 46.2774 38.9437 47.3525 38.9283C48.3252 38.9144 49.1095 39.1592 49.6924 39.6373C50.2627 40.1284 50.5664 40.7769 50.5777 41.5704C50.5876 42.2615 50.404 42.8529 50.0271 43.3448C49.6501 43.8366 49.0422 44.2933 48.2161 44.7147L47.3778 45.1748C46.8952 45.4377 46.5659 45.6856 46.3772 45.9187C46.1885 46.1518 46.0776 46.4479 46.0571 46.8066ZM54.8944 42.1487C55.8799 42.1346 56.652 42.4179 57.2233 42.9858C57.7693 43.5668 58.0483 44.2797 58.0606 45.1372C58.0741 46.0843 57.7651 46.8567 57.1463 47.4416C56.5148 48.0395 55.6997 48.3328 54.7014 48.347C53.7672 48.3604 52.983 48.1284 52.3485 47.6254C51.7273 47.1479 51.3718 46.4617 51.2954 45.5924L52.9464 45.5688C53.0038 46.0032 53.2007 46.346 53.5115 46.5975C53.8223 46.8491 54.2207 46.9586 54.6815 46.952C55.1934 46.9447 55.6136 46.7851 55.9288 46.4478C56.2439 46.1104 56.4043 45.6857 56.3968 45.161C56.3895 44.649 56.217 44.2291 55.8923 43.9009C55.5676 43.5727 55.1429 43.4124 54.631 43.4197C53.8631 43.4307 53.3299 43.7455 53.0443 44.3641L51.4574 44.3868L52.2261 39.0634L57.499 38.988L57.5198 40.447L53.6036 40.503L53.2392 42.774C53.7199 42.3703 54.2801 42.1574 54.8944 42.1487Z" fill="#151419"/>
<path d="M34.5493 17.7164C36.0432 19.0311 38.1176 19.5164 40.0393 19.0024C38.7346 20.4845 38.2763 22.5359 38.8285 24.4329C37.3344 23.1184 35.2608 22.6334 33.3391 23.1478C34.6444 21.6656 35.1017 19.6138 34.5493 17.7164Z" fill="white" stroke="#66BCDB" stroke-width="0.5"/>
<path d="M45.0017 64.585C45.8645 65.2563 46.9818 65.5326 48.0584 65.3434C47.3893 66.1957 47.1211 67.3001 47.325 68.3645C46.462 67.6934 45.3453 67.4151 44.2687 67.6047C44.9378 66.7524 45.2056 65.6494 45.0017 64.585Z" fill="white" stroke="#66BCDB" stroke-width="0.5"/>
</svg>
