<svg width="102" height="104" viewBox="0 0 102 104" fill="none" xmlns="http://www.w3.org/2000/svg">
<path d="M34.3744 19.1694C35.9161 18.3847 37.8196 18.6266 39.884 19.0508C40.8936 19.2582 41.9489 19.5096 42.9552 19.6703C43.9661 19.8317 44.9713 19.9096 45.9105 19.7604C46.8789 19.6062 47.8343 19.2197 48.7639 18.7529C49.69 18.2877 50.6236 17.7248 51.5231 17.2158C53.248 16.2398 54.8527 15.4656 56.3955 15.5871L56.7032 15.6233C58.3583 15.8852 59.7324 17.188 61.1555 18.745C61.8514 19.5064 62.5616 20.3299 63.2925 21.0553C64.0263 21.7835 64.8084 22.4415 65.6737 22.8808C66.5323 23.3168 67.5213 23.557 68.5399 23.7176C69.5543 23.8774 70.6387 23.9643 71.6652 24.0773C73.6335 24.2938 75.4034 24.6116 76.6051 25.6381L76.8372 25.853C77.9891 27.0054 78.3188 28.8434 78.5518 30.9414C78.6656 31.967 78.7572 33.0529 78.9268 34.0807C79.097 35.1121 79.3509 36.1193 79.8021 37.0058C80.2529 37.8915 80.918 38.6895 81.6517 39.4339C82.3827 40.1756 83.2069 40.8887 83.9692 41.5843C85.4313 42.9186 86.6578 44.1866 87.0138 45.6648L87.0736 45.9631C87.3382 47.6369 86.5174 49.3567 85.4694 51.1902C84.9572 52.0865 84.3892 53.0137 83.9216 53.9275C83.4521 54.8453 83.064 55.7858 82.9107 56.7356C82.7558 57.6944 82.8273 58.7147 82.9842 59.7368C83.1405 60.7547 83.3879 61.8127 83.5943 62.8232C83.9898 64.7608 84.231 66.5318 83.6317 67.9752L83.5006 68.2601C82.7451 69.7361 81.0855 70.6339 79.1613 71.5087C78.2204 71.9366 77.2164 72.3605 76.2953 72.8361C75.3707 73.3135 74.4957 73.8593 73.8007 74.5529C73.1274 75.2246 72.5995 76.0838 72.1351 76.9963C71.6729 77.9045 71.2551 78.9057 70.8287 79.844C69.9569 81.7627 69.0323 83.4442 67.4908 84.2289C65.9491 85.0136 64.0455 84.7717 61.9812 84.3476C60.9716 84.1401 59.9163 83.8888 58.91 83.7281C58.0253 83.5868 57.145 83.5093 56.3095 83.5921L55.9543 83.6371C54.9858 83.7913 54.0305 84.1777 53.1009 84.6446C52.1748 85.1097 51.2412 85.6727 50.3417 86.1817C48.502 87.2227 46.7989 88.0352 45.162 87.775C43.5068 87.5131 42.1324 86.2095 40.7092 84.6524C40.0134 83.8911 39.3035 83.0683 38.5727 82.343C37.8389 81.6147 37.0573 80.9556 36.1919 80.5162C35.3333 80.0803 34.3439 79.8413 33.3253 79.6808C32.3109 79.5209 31.2265 79.434 30.2 79.3211C28.1008 79.0901 26.2272 78.7434 25.028 77.5453C23.8759 76.3929 23.5457 74.5538 23.3125 72.4552C23.1986 71.4294 23.1071 70.3435 22.9375 69.3159C22.7674 68.2846 22.5144 67.277 22.0635 66.3912C21.6127 65.5056 20.9471 64.7087 20.2135 63.9644C19.4825 63.2227 18.6583 62.5096 17.896 61.814C16.3366 60.391 15.0447 59.0429 14.7916 57.4352C14.527 55.7614 15.3478 54.0417 16.3958 52.2081C16.9081 51.3117 17.4755 50.3839 17.9431 49.47C18.4127 48.5522 18.8021 47.6121 18.9554 46.6623C19.1102 45.7036 19.0378 44.6835 18.881 43.6615C18.7247 42.6435 18.4768 41.5849 18.2705 40.5742C17.8749 38.6367 17.6337 36.8656 18.233 35.4222L18.3646 35.1383C19.12 33.6621 20.7793 32.7637 22.7035 31.8887C23.6445 31.4609 24.6496 31.0375 25.5708 30.5618C26.4952 30.0844 27.3692 29.538 28.064 28.8445C28.7373 28.1729 29.2658 27.3144 29.7301 26.4021C30.1923 25.4938 30.6101 24.4927 31.0365 23.5543C31.9083 21.6355 32.8328 19.9542 34.3744 19.1694Z" fill="#FDD900" stroke="#82C2D9" stroke-width="0.762852"/>
<path d="M62.1575 60.5779L57.281 62.4429L53.3238 57.8193L42.6843 61.8883L42.8563 67.9595L38.1162 69.7723L38.072 41.958L43.4599 39.8975L62.1575 60.5779ZM42.4992 54.4541L42.5826 57.432L50.4259 54.4324L48.4669 52.1718C46.879 50.4728 44.8337 48.0889 42.2838 44.9988C42.4114 48.1944 42.4789 51.3348 42.4992 54.4541ZM68.537 58.1381L63.9334 59.8987L54.6477 35.6188L59.2514 33.8582L68.537 58.1381Z" fill="#070607"/>
</svg>
