<svg width="209" height="92" viewBox="0 0 209 92" fill="none" xmlns="http://www.w3.org/2000/svg">
<path d="M76.0695 12.2952C52.1984 15.6273 25.8955 24.6209 10.6732 38.4411C-3.82292 51.5648 -3.4158 68.9195 15.7049 80.0476C34.2165 90.8007 61.9062 91.9623 84.2911 91.8848C107.84 91.7901 131.78 89.6805 153.995 84.3342C173.336 79.6889 195.541 72.2993 205.045 58.4599C211.595 48.8705 208.252 38.1127 199.881 29.4679C178.217 7.11178 133.303 -1.98585 97.9438 1.67426C73.7805 4.16591 52.8181 13.6492 38.2689 27.4424C36.8896 28.7515 39.9323 30.1283 41.2307 28.838C69.6953 1.88642 120.062 -2.60697 162.204 11.2308C178.334 16.5369 194.341 25.1523 201.858 37.0665C209.469 49.1355 201.959 60.6911 188.989 68.5331C170.015 79.9989 143.638 84.9977 119.386 87.4502C94.0761 90.0318 66.9426 90.7882 41.793 86.0696C30.479 83.9492 19.3704 80.2333 11.5476 73.7373C2.1653 65.909 1.58795 55.2622 7.63997 46.4279C19.3882 29.1872 50.7276 18.7235 75.7574 14.9554L76.927 14.7869C79.1646 14.4824 78.3074 11.9835 76.0695 12.2952Z" fill="#F26722"/>
</svg>
