<svg width="64" height="64" viewBox="0 0 64 64" fill="none" xmlns="http://www.w3.org/2000/svg">
<rect width="64" height="64" rx="32" fill="white"/>
<path fill-rule="evenodd" clip-rule="evenodd" d="M16.4221 37.1021C16.5016 37.1815 16.553 37.2937 16.553 37.4168C16.553 37.5399 16.5016 37.6521 16.4221 37.7316C16.3426 37.8111 16.2304 37.8625 16.1073 37.8625C15.9842 37.8625 15.872 37.8111 15.7926 37.7316C15.7131 37.6521 15.6617 37.5399 15.6617 37.4168C15.6617 37.2937 15.7131 37.1815 15.7926 37.1021C15.872 37.0179 15.9842 36.9712 16.1073 36.9712C16.2304 36.9712 16.3426 37.0179 16.4221 37.1021ZM19.964 35.0717V46.7679C19.964 47.2104 19.601 47.5735 19.1584 47.5735H13.0594C12.6168 47.5735 12.2538 47.2151 12.2538 46.7679V35.0717C12.2538 34.6291 12.6122 34.266 13.0594 34.266H19.1584C19.6025 34.266 19.964 34.6291 19.964 35.0717ZM17.8307 37.4168C17.8307 36.9416 17.6391 36.5115 17.3243 36.1998C17.0127 35.8882 16.5826 35.6934 16.1073 35.6934C15.632 35.6934 15.202 35.8851 14.8903 36.1998C14.5786 36.5115 14.3839 36.9416 14.3839 37.4168C14.3839 37.8921 14.5755 38.3222 14.8903 38.6339C15.202 38.9455 15.632 39.1403 16.1073 39.1403C16.5826 39.1403 17.0127 38.9486 17.3243 38.6339C17.6391 38.3238 17.8307 37.8921 17.8307 37.4168ZM48.6749 37.7924L41.4665 39.547C41.6457 39.9537 41.7299 40.4134 41.6862 40.9151C41.6068 41.8205 41.1003 42.6261 40.3414 43.1248C39.4953 43.6826 38.4669 43.7917 37.4898 43.5751L28.0108 41.5213C27.7116 41.4574 27.5199 41.1583 27.5838 40.8544L27.615 40.6986C27.6789 40.3994 27.9781 40.2077 28.2773 40.2716L37.7595 42.3254C40.4927 42.9191 41.5445 39.7371 38.8799 38.9502L28.7076 35.963C26.9 35.4332 25.2326 35.3802 23.394 35.7994L21.2405 36.2902V45.1661L29.4306 47.5581C31.8833 48.2718 34.2128 48.1206 36.5549 47.1077L50.1866 41.2034C52.5084 40.1983 52.421 36.8824 48.6749 37.7924ZM40.6049 38.4468L43.6279 37.7082C43.1807 35.0997 40.8947 33.1003 38.1631 33.1003H36.488V27.9986L38.0198 28.1778C39.2321 28.3258 40.633 27.4844 41.1316 26.3188L41.7783 24.8104C41.8422 24.6592 41.8344 24.4987 41.7503 24.3601C41.6708 24.2167 41.5352 24.1326 41.3747 24.1123L39.6559 23.905C38.4436 23.757 37.0427 24.5985 36.5441 25.7641L36.4927 25.8841V22.2144L37.2983 21.1376C38.0322 20.1606 38.0042 18.529 37.2422 17.5115L36.2573 16.1995C36.1576 16.0686 36.0174 16 35.8537 16C35.6901 16 35.5468 16.0717 35.4502 16.1995L34.4123 17.5832C33.6831 18.5602 33.7065 20.1918 34.4684 21.2093L35.2149 22.2112V25.8809L35.1634 25.761C34.6601 24.5923 33.2639 23.7539 32.0516 23.9019L30.3328 24.1092C30.1692 24.1294 30.0383 24.2136 29.9541 24.3569C29.8747 24.5003 29.8622 24.6608 29.9261 24.8073L30.5728 26.3157C31.0761 27.4844 32.4754 28.3227 33.6846 28.1747L35.2117 27.9955V33.0972H33.5397C31.944 33.0972 30.4995 33.7829 29.4819 34.869L39.2318 37.7331C39.7476 37.8889 40.2184 38.1274 40.6049 38.4468Z" fill="#151419"/>
</svg>
