<svg width="64" height="64" viewBox="0 0 64 64" fill="none" xmlns="http://www.w3.org/2000/svg">
<rect width="64" height="64" rx="32" fill="white"/>
<path d="M16.399 35.1678C16.3601 35.1101 16.3299 35.0471 16.3092 34.9806C16.0173 34.0768 14.9544 33.652 14.0898 33.8391H14.0449C13.5135 33.9636 13.0489 34.2845 12.7443 34.7374C11.3277 36.9231 14.8028 39.1406 16.1632 36.8969C16.2456 36.764 16.2755 36.5226 16.3878 36.4216H18.508V39.3109C18.508 40.1249 18.4257 41.0232 18.639 41.8129C18.9871 43.0966 20.1174 43.9705 21.3918 44.2138C21.7913 44.2656 22.1947 44.28 22.5969 44.2569H31.4034V46.0571C31.2822 46.1213 31.1572 46.1781 31.0292 46.2274C29.3712 47.1743 29.8746 49.7492 31.7777 49.9869L32.0902 50C34.4051 49.8933 34.7269 46.5511 32.6516 46.0552V44.807C32.6375 44.6256 32.6412 44.4432 32.6628 44.2625H41.1419C41.6899 44.2913 42.2394 44.2619 42.7812 44.1745C44.1379 43.8901 45.2906 42.8122 45.4909 41.4087C45.5461 40.8384 45.5611 40.265 45.5358 39.6927V36.8108C45.5242 36.6863 45.5242 36.561 45.5358 36.4365H47.1133C47.3006 36.4204 47.4891 36.4274 47.6747 36.4571C48.7451 39.2885 52.3868 37.3441 51.4305 34.9993C50.7886 33.4274 48.3634 33.3956 47.7608 34.932C47.7371 35.0181 47.7005 35.1001 47.6523 35.1752H45.519V28.7004L47.6074 28.7135C47.6822 28.8408 47.6953 28.983 47.7646 29.1121C48.6254 30.7177 51.133 30.437 51.5297 28.6705C52.0481 26.3837 48.936 25.1449 47.8188 27.1397C47.6186 27.4971 47.7646 27.4204 47.3173 27.4223H45.5133V23.3914C45.5133 21.7241 44.7143 20.2345 42.9721 19.8115C42.4259 19.708 41.8691 19.6716 41.3141 19.703H32.6647V17.8916C32.7864 17.8148 32.9248 17.7999 33.039 17.7306C34.7681 16.7538 34.0439 13.8962 32.0079 14.0029C29.6219 14.2069 29.3974 17.289 31.2088 17.798C31.5101 17.8841 31.396 18.1928 31.396 18.4923L31.366 19.7142C30.7765 19.6731 30.1627 19.7049 29.5695 19.7049H23.293C22.6119 19.7049 21.8933 19.6506 21.2233 19.7891C19.7693 20.0866 18.5436 21.4284 18.5099 22.9329V26.1891C18.5099 26.5952 18.5286 27.0106 18.5099 27.4148H16.356C16.0098 26.9189 16.0903 26.6663 15.3604 26.3088C12.9764 25.1542 11.1462 28.8969 13.6107 29.9879C14.5988 30.4239 15.8133 30.0721 16.2587 29.0522C16.2893 28.9231 16.3446 28.8011 16.4215 28.6929H17.7202C17.9804 28.6826 18.241 28.6882 18.5005 28.7098V34.6494C18.5197 34.8217 18.5121 34.9959 18.4781 35.1659L16.399 35.1678ZM40.2886 22.8394C41.5087 22.7907 41.6565 24.183 40.6404 24.5236C39.4371 24.6695 39.1358 23.0658 40.2886 22.8394ZM40.3765 39.5093C41.4525 39.4288 41.7014 40.8791 40.5374 41.1673C39.3098 41.1935 39.1658 39.717 40.369 39.5093H40.3765ZM26.2704 30.9909C26.3539 30.8463 26.4169 30.6907 26.4575 30.5287L26.7232 29.8045C26.8521 29.4982 27.0008 29.2006 27.1686 28.9137L26.697 28.0585C26.4893 27.5701 27.4886 26.8235 27.8685 26.6588C28.1885 26.728 28.4991 26.9582 28.7967 27.1023C29.2027 26.99 29.5751 26.7523 29.9831 26.6232L30.8364 26.3818C31.555 26.1853 30.6156 25.5846 31.9817 25.4274C32.6292 25.2571 32.9174 25.7755 33.0633 26.3032C33.3622 26.4365 33.6765 26.5321 33.999 26.5877C34.2628 26.6588 35.3314 27.1247 35.4306 27.1173C35.9115 27.0798 35.9489 26.335 36.7124 26.99C36.8472 27.106 37.4329 27.7385 37.4348 27.9051C37.4348 28.3673 36.7873 28.5806 37.0605 29.1027L37.2645 29.535C37.3972 29.8498 37.5091 30.173 37.5994 30.5025C37.6874 30.7982 37.6088 30.9535 37.882 31.004C38.3008 31.0796 38.7007 31.2367 39.0591 31.4663C38.5332 32.6396 39.3753 32.6377 37.7997 32.9633C37.5714 33.4181 37.5096 34.0281 37.2252 34.5876C36.5496 35.9238 38.1253 35.6281 36.879 36.8613C35.9021 37.8269 35.8703 36.9156 35.3819 36.953C35.221 36.9859 35.0667 37.0454 34.9253 37.1289C34.3995 37.366 33.8473 37.5394 33.2804 37.6454C32.704 37.7671 33.3496 38.4969 32.2025 38.5811C30.5538 38.5175 31.729 37.812 30.6306 37.608C30.2535 37.5479 29.8852 37.4417 29.534 37.2917C28.2577 36.7079 29.1073 36.8744 28.1492 37.2917C27.6495 37.5125 26.7775 36.5788 26.6839 36.2644C26.5904 35.95 26.9029 35.5645 27.0451 35.2857C27.1686 35.0386 26.916 34.7467 26.8074 34.5221C26.6217 34.0676 26.4606 33.6035 26.3246 33.1317C26.1375 32.5703 25.389 33.3451 25.2598 32.1231C25.1532 31.1013 25.2916 31.1762 26.2704 30.9909ZM23.5513 22.8412C24.6254 22.7477 24.8425 24.2429 23.7104 24.5255C22.61 24.5554 22.2975 23.0265 23.5513 22.8412ZM23.5401 39.5074C24.5824 39.4325 24.85 40.9053 23.6804 41.1916C22.5108 41.1897 22.3686 39.7713 23.5401 39.5074Z" fill="#151419"/>
<path d="M31.5027 36.0174C31.8137 36.0468 32.1266 36.0512 32.4383 36.0305C32.9748 35.9787 33.4956 35.8205 33.9702 35.565C34.4448 35.3096 34.8636 34.9621 35.2023 34.5428C37.4479 31.6759 35.1742 27.806 31.701 28.023C30.6018 28.121 29.5856 28.6489 28.8734 29.492C26.8898 31.9135 28.4692 35.6469 31.5027 36.0174Z" fill="#151419"/>
</svg>
