<svg width="64" height="64" viewBox="0 0 64 64" fill="none" xmlns="http://www.w3.org/2000/svg">
<rect width="64" height="64" rx="32" fill="white"/>
<path fill-rule="evenodd" clip-rule="evenodd" d="M20.965 37.4683C17.5666 36.7252 15 33.6828 15 30.073C15 26.373 17.7128 23.1939 21.363 22.6001C21.3116 17.8617 25.1329 14.0001 29.8635 14.0001C32.6867 14.0001 35.1833 15.3728 36.7303 17.4886C37.4656 16.9896 38.3502 16.6927 39.3094 16.6927C42.4528 16.6927 44.6245 19.7786 43.6498 22.7106C46.9596 23.5189 49.4361 26.5163 49.4361 30.0653C49.4361 33.6798 46.8694 36.7208 43.4711 37.4606L43.4727 29.5041C43.4727 28.2293 42.1279 27.1364 39.9514 26.4011C35.6592 24.9506 28.78 24.9506 24.4906 26.4011C22.3141 27.1364 20.9693 28.2293 20.9693 29.5041V37.4686L20.965 37.4683ZM22.1309 35.3276C22.1309 36.0459 23.1741 36.7579 24.8593 37.3299C28.8996 38.698 35.5316 38.698 39.5723 37.3299C41.2576 36.7609 42.3007 36.0474 42.3007 35.3276V31.4364C38.3365 34.4462 26.0937 34.4462 22.1293 31.4364L22.1309 35.3276ZM22.1309 41.1465C22.1309 41.8648 23.1741 42.5768 24.8593 43.1489C28.8996 44.5169 35.5316 44.5169 39.5723 43.1489C41.2576 42.5799 42.3007 41.8663 42.3007 41.1465V37.2553C38.3365 40.2651 26.0937 40.2651 22.1293 37.2553L22.1309 41.1465ZM42.3067 43.0805V46.9717C42.3067 47.6899 41.2635 48.402 39.5783 48.974C35.538 50.3421 28.906 50.3421 24.8653 48.974C23.1801 48.405 22.1369 47.6914 22.1369 46.9717V43.0805C26.095 46.0856 38.3424 46.0856 42.3067 43.0805ZM33.0428 35.4412H31.3903C31.07 35.4412 30.8057 35.7008 30.8057 36.0258C30.8057 36.346 31.0654 36.6103 31.3903 36.6103H33.0428C33.3631 36.6103 33.6274 36.3507 33.6274 36.0258C33.6274 35.7008 33.3678 35.4412 33.0428 35.4412ZM33.0428 41.2617C33.3631 41.2617 33.6274 41.5213 33.6274 41.8463C33.6274 42.1665 33.3678 42.4308 33.0428 42.4308H31.3903C31.07 42.4308 30.8057 42.1712 30.8057 41.8463C30.8057 41.526 31.0654 41.2617 31.3903 41.2617H33.0428ZM33.3196 47.0838H31.667C31.3468 47.0838 31.0825 47.3434 31.0825 47.6684C31.0825 47.9886 31.3421 48.2529 31.667 48.2529H33.3196C33.6398 48.2529 33.9041 47.9933 33.9041 47.6684C33.9041 47.345 33.6445 47.0838 33.3196 47.0838ZM22.1311 29.5041C22.1311 30.2223 23.1742 30.9344 24.8594 31.5064C28.8998 32.8745 35.5317 32.8745 39.5725 31.5064C41.2577 30.9374 42.3008 30.2238 42.3008 29.5041C42.3008 28.7858 41.2577 28.0738 39.5725 27.5018C35.5321 26.1337 28.9002 26.1337 24.8594 27.5018C23.1758 28.0754 22.1311 28.7859 22.1311 29.5041Z" fill="#151419"/>
</svg>
