<svg width="64" height="64" viewBox="0 0 64 64" fill="none" xmlns="http://www.w3.org/2000/svg">
<rect width="64" height="64" rx="32" fill="white"/>
<path fill-rule="evenodd" clip-rule="evenodd" d="M17.2039 28.2013L31.3051 16.3437C31.7101 16.0037 32.2901 16.0037 32.6951 16.3437L46.7962 28.2013C47.365 28.6788 47.44 29.5338 46.9612 30.1026L46 31.2451C45.5212 31.8138 44.6675 31.8876 44.0987 31.4101L32.3474 21.5301C32.1449 21.3601 31.8549 21.3601 31.6524 21.5301L19.901 31.4101C19.3322 31.8876 18.4772 31.8138 17.9997 31.2451L17.0385 30.1026C16.5597 29.5338 16.6347 28.6788 17.2035 28.2013H17.2039ZM37.6053 16H42.7653C43.1415 16 43.449 16.3075 43.449 16.6838V24.2249L36.9216 18.7363V16.6837C36.9216 16.3075 37.229 16 37.6053 16ZM43.5854 33.5876V47.73C43.5854 47.8787 43.4642 48 43.3154 48H39.9266C39.7779 48 39.6566 47.8787 39.6566 47.73V36.1575C39.6566 35.1725 38.8516 34.3675 37.8666 34.3675H33.6602C32.6752 34.3675 31.8702 35.1725 31.8702 36.1575V47.73C31.8702 47.8787 31.7489 48 31.6002 48H20.6866C20.5378 48 20.4166 47.8787 20.4166 47.73V33.5876C20.4166 32.6801 20.7803 31.8988 21.4753 31.3151L31.6542 22.7576C31.8567 22.5864 32.1467 22.5864 32.3492 22.7576L42.5281 31.3151C43.2231 31.8988 43.5869 32.6801 43.5869 33.5876H43.5854ZM33.3841 40.585C33.7141 40.585 33.9816 40.8525 33.9816 41.1825C33.9816 41.5125 33.7141 41.7813 33.3841 41.7813C33.0541 41.7813 32.7866 41.5138 32.7866 41.1825C32.7866 40.8525 33.0541 40.585 33.3841 40.585ZM23.899 37.2375H29.0977C29.2465 37.2375 29.3677 37.3588 29.3677 37.5075V42.655C29.3677 42.8038 29.2465 42.925 29.0977 42.925H23.899C23.7502 42.925 23.629 42.8038 23.629 42.655V37.5075C23.629 37.3588 23.7502 37.2375 23.899 37.2375Z" fill="#151419"/>
</svg>
