<svg width="15" height="16" viewBox="0 0 15 16" fill="none" xmlns="http://www.w3.org/2000/svg">
<g clip-path="url(#clip0_13_852)">
<path d="M2.70336 15.8474C2.43268 15.8475 2.17304 15.7415 1.98139 15.5528C1.78973 15.3641 1.6817 15.1081 1.68097 14.8408V12.8273C1.68177 12.5787 1.77654 12.3394 1.94671 12.1562C1.77666 11.9729 1.68191 11.7337 1.68097 11.4851V9.47219C1.68162 9.20494 1.78963 8.94886 1.9813 8.76015C2.17297 8.57143 2.43265 8.46549 2.70336 8.46557H3.795C3.74996 8.31606 3.72664 8.161 3.72574 8.00503V5.83064L1.43323 4.87553C1.2791 4.81163 1.14752 4.70422 1.05498 4.56678C0.962449 4.42933 0.913086 4.26798 0.913086 4.10294C0.913086 3.93791 0.962449 3.77655 1.05498 3.63911C1.14752 3.50166 1.2791 3.39426 1.43323 3.33036L7.28442 0.892721C7.45262 0.823053 7.6332 0.78717 7.8156 0.78717C7.99801 0.78717 8.17858 0.823053 8.34678 0.892721L14.1977 3.33036C14.3518 3.39426 14.4834 3.50166 14.5759 3.63911C14.6685 3.77655 14.7178 3.93791 14.7178 4.10294C14.7178 4.26798 14.6685 4.42933 14.5759 4.56678C14.4834 4.70422 14.3518 4.81163 14.1977 4.87553L13.2696 5.26288V7.45834C13.2696 7.54757 13.2337 7.63315 13.1697 7.69625C13.1058 7.75934 13.0191 7.79479 12.9288 7.79479C12.8384 7.79479 12.7517 7.75934 12.6878 7.69625C12.6239 7.63315 12.588 7.54757 12.588 7.45834V5.54631L11.9064 5.83034V8.00443C11.9055 8.1604 11.8821 8.31546 11.8371 8.46496H12.9288C13.1995 8.46488 13.4591 8.57083 13.6508 8.75954C13.8425 8.94826 13.9505 9.20434 13.9511 9.47159V11.4845C13.9502 11.7331 13.8555 11.9723 13.6854 12.1556C13.8556 12.3388 13.9504 12.5781 13.9511 12.8267V14.8402C13.9506 15.1078 13.8425 15.3641 13.6505 15.553C13.4586 15.7419 13.1985 15.8478 12.9275 15.8474H2.70336ZM2.36256 12.8273V14.8411C2.3628 14.9302 2.39882 15.0155 2.4627 15.0784C2.52659 15.1413 2.61313 15.1767 2.70336 15.1767H12.9275C12.9723 15.1768 13.0167 15.1683 13.0581 15.1515C13.0995 15.1347 13.1372 15.11 13.169 15.0789C13.2007 15.0477 13.226 15.0107 13.2432 14.9699C13.2605 14.9291 13.2694 14.8853 13.2696 14.8411V12.8273C13.2694 12.7382 13.2334 12.6528 13.1695 12.5899C13.1056 12.527 13.019 12.4917 12.9288 12.4917H2.70336C2.61311 12.4917 2.52651 12.527 2.46261 12.5899C2.39871 12.6528 2.36272 12.7382 2.36256 12.8273ZM2.36256 9.47219V11.4851C2.3628 11.5742 2.39882 11.6595 2.4627 11.7224C2.52659 11.7853 2.61313 11.8207 2.70336 11.8207H12.9275C12.9723 11.8208 13.0167 11.8123 13.0581 11.7955C13.0995 11.7787 13.1372 11.754 13.169 11.7229C13.2007 11.6917 13.226 11.6547 13.2432 11.6139C13.2605 11.5731 13.2694 11.5293 13.2696 11.4851V9.47219C13.2694 9.38309 13.2334 9.2977 13.1695 9.23478C13.1056 9.17186 13.019 9.13657 12.9288 9.13665H11.4557C11.2767 9.33069 11.054 9.4805 10.8056 9.57399C8.87885 10.2933 6.75236 10.2933 4.82563 9.57399C4.5772 9.48049 4.3545 9.33068 4.17546 9.13665H2.70336C2.61311 9.13657 2.52651 9.17186 2.46261 9.23478C2.39871 9.2977 2.36272 9.38309 2.36256 9.47219ZM4.40673 8.00503C4.40765 8.20938 4.47117 8.40868 4.58896 8.57673C4.70674 8.74477 4.87327 8.87371 5.06666 8.94659C6.8376 9.60763 8.79208 9.60763 10.563 8.94659C10.7564 8.87371 10.9229 8.74477 11.0407 8.57673C11.1585 8.40868 11.222 8.20938 11.223 8.00503V6.11468L8.34586 7.31377C8.17766 7.38344 7.99709 7.41932 7.81469 7.41932C7.63228 7.41932 7.45171 7.38344 7.28351 7.31377L4.40642 6.11468L4.40673 8.00503ZM7.54986 1.51019L1.69836 3.94812C1.66751 3.96092 1.64117 3.98243 1.62266 4.00994C1.60414 4.03746 1.59426 4.06976 1.59426 4.10279C1.59426 4.13583 1.60414 4.16813 1.62266 4.19564C1.64117 4.22316 1.66751 4.24466 1.69836 4.25746L7.54986 6.69479C7.63395 6.72946 7.72417 6.7473 7.8153 6.7473C7.90642 6.7473 7.99664 6.72946 8.08073 6.69479L13.9316 4.25746C13.9625 4.24466 13.9888 4.22316 14.0073 4.19564C14.0258 4.16813 14.0357 4.13583 14.0357 4.10279C14.0357 4.06976 14.0258 4.03746 14.0073 4.00994C13.9888 3.98243 13.9625 3.96092 13.9316 3.94812L8.08073 1.51019C7.99666 1.47546 7.90643 1.45758 7.8153 1.45758C7.72416 1.45758 7.63393 1.47546 7.54986 1.51019ZM3.72574 14.5056V13.1631C3.72574 13.0739 3.76165 12.9883 3.82556 12.9252C3.88947 12.8621 3.97616 12.8267 4.06654 12.8267C4.15693 12.8267 4.24361 12.8621 4.30752 12.9252C4.37143 12.9883 4.40734 13.0739 4.40734 13.1631V14.5053C4.40734 14.5945 4.37143 14.6801 4.30752 14.7432C4.24361 14.8063 4.15693 14.8417 4.06654 14.8417C3.97616 14.8417 3.88947 14.8063 3.82556 14.7432C3.76165 14.6801 3.72574 14.5948 3.72574 14.5056ZM11.2236 14.5056V13.1628C11.2236 13.0736 11.2595 12.988 11.3234 12.9249C11.3873 12.8618 11.474 12.8264 11.5644 12.8264C11.6547 12.8264 11.7414 12.8618 11.8053 12.9249C11.8692 12.988 11.9052 13.0736 11.9052 13.1628V14.505C11.9052 14.5942 11.8692 14.6798 11.8053 14.7429C11.7414 14.806 11.6547 14.8414 11.5644 14.8414C11.474 14.8414 11.3873 14.806 11.3234 14.7429C11.2595 14.6798 11.2236 14.5942 11.2236 14.505V14.5056ZM11.2236 11.1505V9.80773C11.2236 9.7185 11.2595 9.63292 11.3234 9.56983C11.3873 9.50673 11.474 9.47128 11.5644 9.47128C11.6547 9.47128 11.7414 9.50673 11.8053 9.56983C11.8692 9.63292 11.9052 9.7185 11.9052 9.80773V11.1487C11.9052 11.2379 11.8692 11.3235 11.8053 11.3866C11.7414 11.4497 11.6547 11.4851 11.5644 11.4851C11.474 11.4851 11.3873 11.4497 11.3234 11.3866C11.2595 11.3235 11.2236 11.2379 11.2236 11.1487V11.1505ZM3.72574 11.1505V9.80773C3.72574 9.7185 3.76165 9.63292 3.82556 9.56983C3.88947 9.50673 3.97616 9.47128 4.06654 9.47128C4.15693 9.47128 4.24361 9.50673 4.30752 9.56983C4.37143 9.63292 4.40734 9.7185 4.40734 9.80773V11.1487C4.40734 11.2379 4.37143 11.3235 4.30752 11.3866C4.24361 11.4497 4.15693 11.4851 4.06654 11.4851C3.97616 11.4851 3.88947 11.4497 3.82556 11.3866C3.76165 11.3235 3.72574 11.2379 3.72574 11.1487V11.1505Z" fill="#FF6600" stroke="#FF6600" stroke-width="0.347542"/>
</g>
<defs>
<clipPath id="clip0_13_852">
<rect width="13.8051" height="15.0601" fill="white" transform="translate(0.913086 0.78717)"/>
</clipPath>
</defs>
</svg>
