<svg width="64" height="64" viewBox="0 0 64 64" fill="none" xmlns="http://www.w3.org/2000/svg">
<rect width="64" height="64" rx="32" fill="white"/>
<path fill-rule="evenodd" clip-rule="evenodd" d="M44.3667 35.9567C44.5724 36.1624 44.7001 36.4456 44.7001 36.7569C44.7001 37.0693 44.5731 37.3529 44.3686 37.557L44.3664 37.5589C44.1622 37.7634 43.8786 37.8904 43.5662 37.8904H42.0637H37.3025H35.8C35.4875 37.8904 35.2043 37.7634 34.9998 37.5589L34.9976 37.557C34.793 37.3525 34.666 37.0693 34.666 36.7569C34.666 36.4456 34.7938 36.1624 34.9994 35.9567C35.2051 35.7511 35.4887 35.6233 35.7996 35.6233H43.5658C43.8779 35.6233 44.1611 35.7511 44.3667 35.9567ZM45.5643 19.436C44.0596 17.9313 41.9801 17 39.6835 17C35.0905 17 31.3669 20.7235 31.3669 25.3165C31.3669 27.8391 32.1626 28.8483 32.9777 29.8826C33.8543 30.994 34.7503 32.1317 34.9159 34.7801C35.1864 34.6584 35.4857 34.5906 35.8003 34.5906H43.5666C43.8505 34.5906 44.1225 34.646 44.3716 34.7464C44.5537 32.15 45.4632 31.0127 46.3521 29.9005C47.186 28.858 48 27.8402 48 25.3165C48 23.0202 47.0691 20.9412 45.5643 19.436ZM42.0641 38.9228H37.3029C36.9916 38.9228 36.7084 39.0506 36.5027 39.2562C36.2971 39.4619 36.1693 39.7455 36.1693 40.0564C36.1693 40.3677 36.2971 40.6509 36.5027 40.8565C36.7084 41.0622 36.9919 41.1899 37.3029 41.1899H42.0641C42.3753 41.1899 42.6585 41.0622 42.8642 40.8565C43.0699 40.6509 43.1976 40.3673 43.1976 40.0564C43.1976 39.7451 43.0699 39.4619 42.8642 39.2562C42.6589 39.0506 42.3753 38.9228 42.0641 38.9228ZM22.6024 28.1017C22.6024 27.6709 22.7807 27.2772 23.0661 26.9918V26.9899C23.3516 26.7044 23.746 26.5261 24.1783 26.5261H30.3956C30.3701 26.2905 30.3521 26.041 30.3428 25.7751H24.1783C23.5392 25.7751 22.9571 26.0373 22.5353 26.4591C22.1135 26.8813 21.8513 27.4626 21.8513 28.1021V28.6827H22.6024V28.1017ZM27.6037 38.1032C27.2512 38.1032 26.932 38.2459 26.7013 38.4771L26.7001 38.4759C26.4698 38.7067 26.3274 39.0262 26.3274 39.3795C26.3274 39.7327 26.4698 40.0523 26.7001 40.283L26.7013 40.2819C26.932 40.5126 27.2512 40.6557 27.6037 40.6557C27.9562 40.6557 28.2753 40.513 28.5061 40.2819L28.5072 40.283C28.7376 40.0523 28.8799 39.7327 28.8799 39.3795C28.8799 39.0262 28.7376 38.7067 28.5072 38.4759L28.5061 38.4771C28.275 38.2463 27.9558 38.1032 27.6037 38.1032ZM35.7726 41.5866C35.3804 41.1944 35.1369 40.6527 35.1369 40.0564C35.1369 39.6308 35.2609 39.2334 35.4744 38.8981C35.0099 38.8269 34.5922 38.6063 34.2723 38.2871L34.2701 38.2849C34.0599 38.074 33.8925 37.8211 33.7824 37.5402C33.452 37.6941 33.1002 37.8537 32.7432 38.0163C31.7603 38.4628 30.7342 38.9292 29.9116 39.3858C29.9097 40.0193 29.6516 40.5932 29.2354 41.0097V41.0116C28.8178 41.4293 28.2405 41.6878 27.6033 41.6878C26.9661 41.6878 26.3888 41.4293 25.9712 41.0116V41.0097C25.5688 40.6074 25.3141 40.0575 25.2961 39.4491L16 34.906V45.7702C16 46.095 16.1319 46.3894 16.3443 46.6018L16.3461 46.6037C16.5585 46.8161 16.853 46.9479 17.1777 46.9479H38.0288C38.3536 46.9479 38.6481 46.8161 38.8605 46.6037L38.8623 46.6018C39.0747 46.3894 39.2066 46.095 39.2066 45.7702V42.222H37.3025C36.7069 42.2223 36.1648 41.9788 35.7726 41.5866ZM25.9712 37.7492V37.7473C26.3888 37.3297 26.9661 37.0712 27.6033 37.0712C28.2405 37.0712 28.8178 37.3297 29.2354 37.7473V37.7492C29.4096 37.9234 29.5561 38.1253 29.6677 38.3474C30.4825 37.9118 31.419 37.4859 32.3199 37.0768C32.7777 36.8685 33.2261 36.6647 33.6546 36.4609C33.6928 36.183 33.7842 35.9215 33.9183 35.687H33.9108C33.9108 32.7318 33.0279 31.6121 32.1671 30.5201C31.9595 30.2568 31.7531 29.9949 31.5576 29.7147H17.1777C16.853 29.7147 16.5585 29.8466 16.3461 30.059L16.3443 30.0609C16.1319 30.2733 16 30.5677 16 30.8925V33.7578L25.5108 38.4059C25.625 38.1605 25.782 37.9384 25.9712 37.7492Z" fill="#151419"/>
</svg>
