<svg width="64" height="64" viewBox="0 0 64 64" fill="none" xmlns="http://www.w3.org/2000/svg">
<rect width="64" height="64" rx="32" fill="white"/>
<path fill-rule="evenodd" clip-rule="evenodd" d="M36.2811 45.9877H30.5644V48.0362C30.5644 48.4173 30.7679 48.7724 31.0927 49.0366C31.4479 49.3224 31.9416 49.5 32.4916 49.5H34.3495C34.8996 49.5 35.3976 49.3224 35.7484 49.0366C36.0732 48.7724 36.2768 48.4216 36.2768 48.0362V45.9877H36.2811ZM27.8836 42.4364V42.5143C27.8836 42.8608 27.9399 43.1899 28.0611 43.4888C28.1824 43.7876 28.3643 44.0604 28.6111 44.3073C28.858 44.5541 29.1308 44.7404 29.4253 44.866C29.7198 44.9872 30.0447 45.0522 30.3955 45.0522H36.424C37.117 45.0522 37.7449 44.7707 38.1997 44.316C38.6544 43.8612 38.9403 43.2332 38.9403 42.5403V42.4407H27.8792L27.8836 42.4364ZM12.981 33.138C12.7212 33.138 12.5133 32.9301 12.5133 32.6702C12.5133 32.4104 12.7212 32.2025 12.981 32.2025H18.4726C18.7324 32.2025 18.9403 32.4104 18.9403 32.6702C18.9403 32.9301 18.7324 33.138 18.4726 33.138H12.981ZM15.4843 22.8522C15.2591 22.7222 15.1855 22.4364 15.3154 22.2155C15.4453 21.9947 15.7311 21.9167 15.952 22.0466L20.7073 24.7924C20.9282 24.9223 21.0061 25.2082 20.8762 25.429C20.7463 25.6499 20.4604 25.7279 20.2396 25.5979L15.4843 22.8522ZM22.7991 15.1995C22.6692 14.9787 22.7471 14.6928 22.9724 14.5629C23.1932 14.433 23.4791 14.5109 23.609 14.7361L26.3548 19.4914C26.4847 19.7123 26.4067 19.9981 26.1815 20.1281C25.9606 20.258 25.6748 20.18 25.5449 19.9548L22.7991 15.1995ZM43.8991 18.543C43.6696 18.4477 43.4357 18.3654 43.2018 18.2918C43.0329 18.2441 42.8987 18.1099 42.864 17.928L42.3703 15.3251H39.2434L38.7497 17.928C38.7194 18.0925 38.5981 18.2355 38.4292 18.2874C38.191 18.3611 37.9528 18.4477 37.719 18.543C37.4851 18.6382 37.2599 18.7465 37.0433 18.8591C36.8918 18.9414 36.7012 18.9414 36.5539 18.8375L34.3625 17.3433L32.1495 19.5564L33.6436 21.7478C33.7389 21.8864 33.7562 22.0683 33.6696 22.2285C33.5527 22.4494 33.4444 22.6789 33.3448 22.9128C33.2495 23.1423 33.1672 23.3762 33.0936 23.6057C33.0459 23.7746 32.9117 23.9089 32.7298 23.9436L30.1269 24.4373V27.5642L32.7298 28.0579C32.8944 28.0882 33.0373 28.2095 33.0893 28.3784C33.1629 28.6166 33.2495 28.8548 33.3448 29.0886C33.4401 29.3225 33.5483 29.5477 33.6609 29.7642C33.7432 29.9158 33.7432 30.1064 33.6393 30.2536L32.1451 32.445L34.3582 34.6581L36.5496 33.164C36.6882 33.0687 36.8701 33.0514 37.0303 33.138C37.2512 33.2549 37.4808 33.3632 37.7146 33.4628C37.9442 33.5581 38.178 33.6404 38.4119 33.714C38.5808 33.7616 38.7151 33.8959 38.7497 34.0778L39.2434 36.6806H42.3703L42.864 34.0778C42.8943 33.9132 43.0156 33.7703 43.1845 33.7183C43.4227 33.6447 43.6609 33.5581 43.8948 33.4628C44.1286 33.3675 44.3538 33.2592 44.5704 33.1466C44.722 33.0644 44.9125 33.0644 45.0598 33.1683L47.2512 34.6624L49.4643 32.4494L47.9701 30.258C47.8748 30.1194 47.8575 29.9375 47.9441 29.7772C48.0611 29.5564 48.1693 29.3268 48.2689 29.093C48.3642 28.8634 48.4465 28.6295 48.5201 28.3957C48.5678 28.2268 48.702 28.0925 48.8839 28.0579L51.4868 27.5642V24.4373L48.8839 23.9436C48.7194 23.9132 48.5764 23.792 48.5245 23.6231C48.4508 23.3849 48.3642 23.1467 48.2689 22.9128C48.1737 22.6789 48.0654 22.4537 47.9528 22.2372C47.8705 22.0856 47.8705 21.8951 47.9744 21.7478L49.4686 19.5564L47.2555 17.3433L45.0641 18.8375C44.9255 18.9327 44.7436 18.9501 44.5834 18.8634C44.3625 18.7465 44.133 18.6382 43.8991 18.5386V18.543ZM31.6298 20.4442L32.7211 22.0423C32.6388 22.2112 32.5609 22.3801 32.4916 22.5533C32.4223 22.7222 32.353 22.8998 32.2924 23.0774L29.6116 23.5841C29.3777 23.6101 29.2001 23.8093 29.2001 24.0475V27.9496C29.2001 28.1705 29.356 28.3654 29.5813 28.4087L32.2924 28.924C32.353 29.1016 32.418 29.2748 32.4916 29.4481C32.5652 29.6213 32.6388 29.7902 32.7211 29.9591L31.1837 32.2155C31.0408 32.3974 31.0537 32.6659 31.2227 32.8348L33.9814 35.5936C34.1373 35.7495 34.3842 35.7755 34.5747 35.6499L36.8571 34.0951C37.026 34.1774 37.1949 34.2553 37.3682 34.3246C37.5371 34.3939 37.7146 34.4632 37.8922 34.5239L38.3989 37.2047C38.4249 37.4385 38.6241 37.6161 38.8623 37.6161H41.4262C41.201 37.8803 40.9584 38.1358 40.7073 38.3783C40.2309 38.8374 39.7112 39.2488 39.1568 39.6083C39.0182 39.6992 38.9446 39.8465 38.9446 39.9981V41.4922H27.8922L27.9052 40.0024C27.9052 39.8378 27.8229 39.6906 27.693 39.6083C26.2292 38.6555 25.0209 37.3433 24.1807 35.8015C23.3751 34.316 22.916 32.6096 22.916 30.7993C22.916 28.1705 23.8818 25.7668 25.4756 23.9262C27.0304 22.1289 29.1871 20.8643 31.6298 20.4442ZM43.5656 23.2506C44.2716 23.9565 44.7046 24.9267 44.7046 26.0007C44.7046 27.0748 44.2672 28.0492 43.5656 28.7508C42.8597 29.4567 41.8896 29.8898 40.8155 29.8898C39.7415 29.8898 38.767 29.4524 38.0654 28.7508C37.3595 28.0449 36.9264 27.0748 36.9264 26.0007C36.9264 24.9267 37.3638 23.9522 38.0654 23.2506C38.7714 22.5447 39.7415 22.1116 40.8155 22.1116C41.8896 22.1116 42.864 22.549 43.5656 23.2506ZM40.8155 21.1761C42.1494 21.1761 43.3534 21.7175 44.2282 22.588C45.1031 23.4585 45.6401 24.6668 45.6401 26.0007C45.6401 27.3346 45.0988 28.5386 44.2282 29.4134C43.3534 30.2883 42.1494 30.8253 40.8155 30.8253C39.4816 30.8253 38.2776 30.2839 37.4028 29.4134C36.528 28.5386 35.9909 27.3346 35.9909 26.0007C35.9909 24.6668 36.5323 23.4628 37.4028 22.588C38.2776 21.7132 39.4816 21.1761 40.8155 21.1761Z" fill="#151419"/>
</svg>
