<svg width="64" height="64" viewBox="0 0 64 64" fill="none" xmlns="http://www.w3.org/2000/svg">
<rect width="64" height="64" rx="32" fill="white"/>
<path fill-rule="evenodd" clip-rule="evenodd" d="M45.5899 35.7884H43.8061C43.505 34.0948 42.0315 32.8597 40.3104 32.8597C38.5908 32.8597 37.1173 34.0948 36.8162 35.7884H36.1635C36.1864 35.6096 36.1986 35.4292 36.1986 35.2488C36.1298 32.9759 34.2666 31.1707 31.9937 31.1707C29.7208 31.1707 27.8592 32.9759 27.7887 35.2488C27.7887 35.4292 27.801 35.6096 27.8239 35.7884H27.1712C26.8701 34.0948 25.3965 32.8597 23.677 32.8597C21.9558 32.8597 20.4838 34.0948 20.1827 35.7884H18.4097C17.9954 35.7884 17.6591 35.4521 17.6591 35.0363V17.8663H46.3421L46.3406 35.0363C46.3406 35.2366 46.2626 35.4276 46.1205 35.5683C45.9798 35.7089 45.7886 35.7884 45.5899 35.7884ZM32 31.9457C30.6625 31.9457 29.4565 32.7512 28.9444 33.9878C28.4339 35.2244 28.7167 36.6459 29.6628 37.5921C30.609 38.5367 32.032 38.8195 33.2686 38.3059C34.5036 37.7923 35.3076 36.5863 35.3061 35.2488C35.3061 34.3714 34.9576 33.5308 34.337 32.9117C33.718 32.2926 32.8758 31.9441 32 31.9457ZM40.3199 33.7539C39.2468 33.7493 38.2762 34.3913 37.8635 35.3818C37.4493 36.3723 37.674 37.5126 38.4321 38.2738C39.1887 39.0335 40.3306 39.2612 41.321 38.8501C42.3131 38.4389 42.9581 37.4713 42.9566 36.3983C42.955 34.937 41.7689 33.754 40.3076 33.754L40.3199 33.7539ZM23.6848 33.7539C22.6132 33.7524 21.6457 34.3974 21.2345 35.3864C20.8233 36.3769 21.0496 37.5172 21.8077 38.2753C22.5658 39.0335 23.7062 39.2597 24.6966 38.8501C25.6871 38.4389 26.3322 37.4713 26.3306 36.3983C26.3276 34.9386 25.1445 33.7555 23.6848 33.7539ZM32 50.1413C29.4794 50.1444 27.0613 49.1371 25.2899 47.3441C25.053 47.1194 24.9307 46.8 24.9567 46.4744C25.2226 42.7295 27.8914 39.8222 32.0001 39.8222C36.1088 39.8222 38.7701 42.7494 39.0436 46.4744C39.0711 46.7969 38.9534 47.1164 38.7226 47.3441C36.948 49.1386 34.525 50.1475 32 50.1413ZM40.3199 48.3331C42.2978 48.3361 44.1993 47.5627 45.613 46.1779C45.8591 45.944 45.9829 45.6108 45.9462 45.273C45.6956 42.3153 43.551 40.0498 40.3107 40.0498C39.2591 40.033 38.2212 40.3036 37.3102 40.8325C38.8784 42.2739 39.8185 44.2732 39.9285 46.4007C39.9729 46.9815 39.7589 47.5547 39.3446 47.9659C39.259 48.0561 39.1688 48.1386 39.0817 48.2242H39.0832C39.4883 48.2884 39.8995 48.3205 40.3106 48.3221L40.3199 48.3331ZM23.6848 48.3331C24.0959 48.3331 24.5071 48.2994 24.9137 48.2352C24.8235 48.1497 24.7379 48.0671 24.6508 47.9769C24.2365 47.5673 24.0225 46.9941 24.0684 46.4117C24.1784 44.2855 25.117 42.2862 26.6822 40.8435C25.7727 40.3146 24.7363 40.044 23.6847 40.0609C20.4366 40.0502 18.3043 42.3154 18.0507 45.273C18.014 45.6108 18.1363 45.944 18.3824 46.1779C19.7963 47.5628 21.6978 48.3362 23.6772 48.3331L23.6848 48.3331ZM17.3261 14.1414H46.6738C47.4534 14.1414 48.0862 14.7742 48.0862 15.5537C48.0862 16.3348 47.4534 16.9661 46.6738 16.9661H17.3261C16.5465 16.9661 15.9137 16.3348 15.9137 15.5537C15.9137 14.7742 16.5465 14.1414 17.3261 14.1414ZM28.5087 26.9687H41.9735C42.2227 26.9687 42.4244 26.7669 42.4244 26.5178C42.4244 26.2702 42.2226 26.0684 41.9735 26.0684H28.5087C28.2611 26.0684 28.0594 26.2702 28.0594 26.5178C28.0594 26.7669 28.2611 26.9687 28.5087 26.9687ZM28.5087 23.8612H41.9735C42.2227 23.8612 42.4244 23.6594 42.4244 23.4118C42.4244 23.1627 42.2226 22.9609 41.9735 22.9609H28.5087C28.2611 22.9609 28.0594 23.1627 28.0594 23.4118C28.0594 23.6594 28.2611 23.8612 28.5087 23.8612ZM28.5087 20.7506H41.9735C42.2227 20.7506 42.4244 20.5489 42.4244 20.2997C42.4244 20.0521 42.2226 19.8504 41.9735 19.8504H28.5087C28.2611 19.8504 28.0594 20.0521 28.0594 20.2997C28.0594 20.5489 28.2611 20.7506 28.5087 20.7506ZM22.0264 30.0793H41.9829C42.2305 30.0793 42.4323 29.8775 42.4323 29.6284C42.4323 29.3808 42.2305 29.179 41.9829 29.179H22.0264C21.7773 29.179 21.5755 29.3808 21.5755 29.6284C21.5755 29.8776 21.7773 30.0793 22.0264 30.0793ZM22.4177 20.2967C22.2007 20.2967 22.0264 20.471 22.0264 20.688V26.1663C22.0264 26.2702 22.0677 26.3696 22.141 26.4429C22.2144 26.5163 22.3138 26.5576 22.4177 26.5576H26.0021C26.1045 26.5576 26.2054 26.5163 26.2788 26.4429C26.3522 26.3696 26.3934 26.2702 26.3934 26.1663V20.688C26.3934 20.5841 26.3522 20.4847 26.2788 20.4114C26.2054 20.338 26.1045 20.2967 26.0021 20.2967H22.4177Z" fill="#151419"/>
</svg>
