<svg width="64" height="64" viewBox="0 0 64 64" fill="none" xmlns="http://www.w3.org/2000/svg">
<rect width="64" height="64" rx="32" fill="white"/>
<path d="M24.0002 37.4092H20.9088V45.1366H24.0002V37.4092Z" fill="#151419"/>
<path d="M30.1822 37.4092H27.0912V45.1366H30.1822V37.4092Z" fill="#151419"/>
<path d="M36.3637 37.4092H33.2727V45.1366H36.3637V37.4092Z" fill="#151419"/>
<path d="M42.5457 37.4092H39.4543V45.1366H42.5457V37.4092Z" fill="#151419"/>
<path d="M45.6367 33.5457H17.8182V36.6366H45.6367V33.5457Z" fill="#151419"/>
<path d="M45.6367 45.9092H17.8182V49.0002H45.6367V45.9092Z" fill="#151419"/>
<path d="M42.5067 32.7726C42.5241 32.516 42.5457 32.261 42.5457 32C42.5457 26.5517 38.5129 22.0573 33.2727 21.3047V16.5455C33.2727 15.6925 32.5799 15 31.7272 15C30.8731 15 30.1817 15.6925 30.1817 16.5455V21.3051C24.9416 22.0573 20.9088 26.5517 20.9088 32C20.9088 32.261 20.9296 32.516 20.9481 32.7726H42.5067Z" fill="#151419"/>
</svg>
