<svg width="64" height="64" viewBox="0 0 64 64" fill="none" xmlns="http://www.w3.org/2000/svg">
<rect width="64" height="64" rx="32" fill="white"/>
<path d="M42.9445 21.3334H34.6482V19.5556C34.6482 17.2647 36.5054 15.4075 38.7963 15.4075C41.0873 15.4075 42.9445 17.2647 42.9445 19.5556V21.3334Z" fill="#151419"/>
<path d="M45.3149 30.8149H32.2778C31.6233 30.8149 31.0927 30.2842 31.0927 29.6297V23.7037C31.0927 23.0492 31.6233 22.5186 32.2778 22.5186H45.3149C45.9694 22.5186 46.5001 23.0492 46.5001 23.7037V29.6297C46.5001 30.2842 45.9694 30.8149 45.3149 30.8149Z" fill="#151419"/>
<path d="M41.7593 32H35.8334V34.3704H41.7593V32Z" fill="#151419"/>
<path d="M17.5 47.4075H22.7963C23.4509 47.4075 23.9815 46.8769 23.9815 46.2223V39.1112C23.9815 38.4567 23.4509 37.926 22.7963 37.926H17.5V47.4075Z" fill="#151419"/>
<path d="M46.5 40.889C46.5 39.9072 45.704 39.1112 44.7222 39.1112H43.537C44.5188 39.1112 45.3148 38.3153 45.3148 37.3334C45.3148 36.3516 44.5188 35.5557 43.537 35.5557H35.9612C35.102 35.5557 34.2589 35.7892 33.5221 36.2313L29.8482 38.4356C29.1114 38.8777 28.2683 39.1112 27.4091 39.1112H25.1666V46.2223H27.5682C28.3325 46.2223 29.0918 46.3456 29.8169 46.5872L34.0087 47.9845C35.2172 48.3873 36.4827 48.5927 37.7566 48.5927H42.3518C43.0064 48.5927 43.537 48.062 43.537 47.4075C43.537 46.7529 43.0064 46.2223 42.3518 46.2223H43.537C44.5188 46.2223 45.3148 45.4264 45.3148 44.4446C45.3148 43.4627 44.5188 42.6668 43.537 42.6668H44.7222C45.704 42.6668 46.5 41.8708 46.5 40.889Z" fill="#151419"/>
</svg>
