<svg width="64" height="64" viewBox="0 0 64 64" fill="none" xmlns="http://www.w3.org/2000/svg">
<rect width="64" height="64" rx="32" fill="white"/>
<path fill-rule="evenodd" clip-rule="evenodd" d="M20.9557 31.4337L27.2916 20.4716L35.7263 25.335L33.256 29.6089L37.2874 31.5373L35.5486 34.5464L31.8602 32.0234L29.3894 36.2977L20.9557 31.4337ZM16.3331 43.051C18.523 43.051 32.4374 43.051 34.6263 43.051C35.8725 43.051 36.8893 44.0677 36.8893 45.312V48H14.0701V45.312C14.0701 44.0677 15.0879 43.051 16.3331 43.051ZM38.2091 31.9788L42.0266 33.8057L39.8848 37.5119L36.3917 35.1235L38.2091 31.9788ZM42.9494 34.2458L46.7679 36.0737L44.2216 40.48L40.7274 38.09L42.9494 34.2458ZM47.6902 36.5157L48.9228 37.1054C49.855 37.5499 50.181 38.6862 49.7279 39.4703L49.1876 40.406L48.6464 41.3417C48.1933 42.1258 47.0453 42.4119 46.1937 41.8283L45.0657 41.0566L47.6902 36.5157ZM27.1309 17.0054L27.1299 17.0069C26.5757 17.9666 26.9081 19.2043 27.8684 19.7584L36.0562 24.4799C37.0165 25.034 38.2561 24.7024 38.8109 23.7427L38.8114 23.7417C39.3656 22.7825 39.0337 21.5438 38.0734 20.9902L29.8855 16.2683C28.9253 15.7146 27.6856 16.0457 27.1309 17.0054ZM17.8691 33.0291L17.8696 33.0281C18.4248 32.0684 19.6645 31.7368 20.6243 32.2904L28.8126 37.0128C29.7724 37.5664 30.1048 38.8047 29.5506 39.7644L29.5501 39.7649C28.9954 40.7246 27.7552 41.0566 26.7954 40.5025L18.6071 35.7806C17.6473 35.2265 17.3149 33.9887 17.8691 33.0291Z" fill="#151419"/>
</svg>
