<svg width="64" height="64" viewBox="0 0 64 64" fill="none" xmlns="http://www.w3.org/2000/svg">
<rect width="64" height="64" rx="32" fill="white"/>
<path fill-rule="evenodd" clip-rule="evenodd" d="M39.8154 42.3562C39.1157 42.955 38.3168 43.4417 37.4475 43.7892V41.0146C39.1606 39.9579 40.3037 38.0639 40.3037 35.9023C40.3037 32.5866 37.6156 29.8998 34.3013 29.8998C30.9855 29.8998 28.2975 32.5864 28.2975 35.9023C28.2975 36.2465 28.3264 36.586 28.3824 36.9142H28.2895C27.4746 36.9142 26.8118 37.577 26.8118 38.3936V39.9034C26.1745 38.7122 25.8111 37.3497 25.8111 35.9024C25.8111 31.2131 29.612 27.4136 34.3015 27.4136C38.9895 27.4136 42.7902 31.2129 42.7902 35.9024C42.7902 37.7131 42.2235 39.391 41.2564 40.7695L43.9174 43.3536L44.0134 43.2543C44.308 42.9501 44.8011 42.9421 45.1053 43.2367L49.7676 47.7612C50.0718 48.0558 50.0782 48.5458 49.782 48.8532L48.0993 50.5855C47.8047 50.8913 47.3148 50.8977 47.0074 50.6031L42.3484 46.0786C42.041 45.784 42.033 45.2909 42.3308 44.9867L42.4253 44.889L39.8154 42.3562ZM25.0778 39.0549H16.5522V26.5236C16.9428 26.6197 17.3511 26.6709 17.7722 26.6709C19.2948 26.6709 20.6621 26.0001 21.5939 24.937C22.5225 26.0001 23.8898 26.6709 25.4124 26.6709C26.9398 26.6709 28.307 26.0001 29.2372 24.937C29.8905 25.6815 30.7566 26.2354 31.7413 26.498C27.6008 27.6219 24.5575 31.407 24.5575 35.9024C24.5575 37.0055 24.74 38.0654 25.0778 39.0549ZM21.112 20.9712H14.2755L18.1596 13.5214C18.2717 13.3037 18.4782 13.1804 18.72 13.1804H23.1613L21.112 20.9712ZM24.4582 13.1804H28.6081V20.9712H22.4089L24.4582 13.1804ZM29.8635 13.1804H34.0134L36.0628 20.9712H29.8635V13.1804ZM35.3103 13.1804H39.7581C39.9935 13.1804 40.2 13.3037 40.3121 13.5215L44.1962 20.9712H37.3597L35.3103 13.1804ZM44.4728 22.2262C44.1718 24.037 42.5948 25.4171 40.7008 25.4171C38.8051 25.4171 37.2281 24.037 36.9287 22.2262H44.4728ZM36.8264 22.2262C36.527 24.037 34.9547 25.4171 33.0591 25.4171C31.1635 25.4171 29.588 24.037 29.2871 22.2262H36.8264ZM29.1844 22.2262C28.885 24.037 27.3128 25.4171 25.4124 25.4171C23.5167 25.4171 21.9445 24.037 21.6467 22.2262H29.1844ZM21.5441 22.2262C21.2431 24.037 19.6677 25.4171 17.772 25.4171C15.8764 25.4171 14.2994 24.037 14 22.2262H21.5441ZM36.1919 35.4058V46.264C36.1919 46.3873 36.0926 46.4866 35.9677 46.4866H33.5726C33.4493 46.4866 33.3484 46.3873 33.3484 46.264V35.4058C33.3484 35.2826 33.4493 35.1817 33.5726 35.1817H35.9677C36.0926 35.1817 36.1919 35.2826 36.1919 35.4058ZM30.9099 38.3934V46.2641C30.9099 46.3873 30.8107 46.4866 30.6858 46.4866H28.289C28.1657 46.4866 28.0665 46.3873 28.0665 46.2641V38.3934C28.0665 38.2701 28.1657 38.1693 28.289 38.1693H30.6858C30.8107 38.1693 30.9099 38.2701 30.9099 38.3934ZM22.7798 41.2529C22.7798 41.192 22.8038 41.136 22.8455 41.0944C22.8871 41.0511 22.9447 41.0287 23.004 41.0287H25.4039C25.4632 41.0287 25.5208 41.0511 25.5625 41.0944C25.6041 41.136 25.6281 41.192 25.6281 41.2529V46.2643C25.6281 46.3235 25.6041 46.3796 25.5625 46.4228C25.5208 46.4644 25.4632 46.4869 25.4039 46.4869H23.004C22.9447 46.4869 22.8871 46.4644 22.8455 46.4228C22.8038 46.3796 22.7798 46.3235 22.7798 46.2643V41.2529Z" fill="#151419"/>
</svg>
