<svg width="64" height="64" viewBox="0 0 64 64" fill="none" xmlns="http://www.w3.org/2000/svg">
<rect width="64" height="64" rx="32" fill="white"/>
<path fill-rule="evenodd" clip-rule="evenodd" d="M24.9541 28.4173H19.7807C19.2649 28.4157 18.848 27.9988 18.845 27.483V25.8625C18.8495 23.4811 20.5446 21.4377 22.8848 20.9933C25.225 20.5505 27.5503 21.8317 28.4236 24.0472C26.7392 24.9936 25.4928 26.5623 24.9541 28.4173ZM31.9961 17.0281C33.2408 17.0265 34.3637 17.7752 34.8415 18.9255C35.3193 20.0743 35.0576 21.3997 34.1781 22.2807C33.2971 23.1617 31.9733 23.4249 30.823 22.9487C29.6726 22.4724 28.9225 21.351 28.9225 20.1048C28.9225 18.4066 30.298 17.0296 31.9961 17.0281ZM40.1763 15.4973C41.138 15.4973 42.0038 16.0771 42.372 16.9657C42.7402 17.8527 42.5348 18.8753 41.8547 19.5554C41.1745 20.2341 40.152 20.4364 39.2649 20.0682C38.3763 19.6985 37.7981 18.8311 37.7996 17.8695C37.8026 16.5594 38.8662 15.4973 40.1763 15.4973ZM23.8159 15.4973C24.7776 15.4973 25.6434 16.0771 26.0116 16.9657C26.3798 17.8527 26.1744 18.8753 25.4943 19.5554C24.8141 20.2341 23.7916 20.4364 22.9045 20.0682C22.0159 19.6985 21.4376 18.8311 21.4392 17.8695C21.4422 16.5594 22.5058 15.4973 23.8159 15.4973ZM24.423 40.0609C24.5098 40.1461 24.5569 40.2603 24.5569 40.3805C24.5569 40.5007 24.5098 40.6163 24.423 40.7C24.2465 40.8765 23.9605 40.8765 23.7855 40.7L20.6996 37.6187C20.4805 37.4118 20.3116 37.1577 20.2051 36.8746L16.6141 29.5284C16.3463 28.8878 15.9492 28.3111 15.4455 27.8333C15.164 27.5412 14.7501 27.4164 14.3545 27.5031C13.8478 27.7055 13.9878 28.4845 14.1445 28.8969L17.3658 37.4666C17.7629 38.6596 18.4568 39.7308 19.3789 40.5829L22.4951 43.6596V43.6611C23.2361 44.3732 23.647 45.3608 23.6333 46.3879V48.1879V48.1864C23.6333 48.3614 23.7748 48.5029 23.9483 48.5029H29.7913C29.9663 48.5029 30.1063 48.3614 30.1063 48.1864V44.3032C30.1063 43.1346 29.9039 41.7484 29.207 40.7746C28.8144 40.1903 28.2773 39.7186 27.6488 39.4036C27.2 39.1708 26.7876 38.8726 26.4255 38.5196L24.143 36.2448C23.3366 35.4353 22.4571 35.2908 21.8058 35.4886C21.462 35.5738 21.1759 35.8096 21.0268 36.1307C20.9279 36.4517 21.045 36.8002 21.3189 36.9965L24.385 40.0625L24.423 40.0609ZM39.5845 40.0609C39.4993 40.1461 39.4506 40.2603 39.4506 40.3805C39.4506 40.5007 39.4993 40.6163 39.5845 40.7C39.761 40.8765 40.047 40.8765 40.2235 40.7L43.2926 37.6187C43.5117 37.4118 43.6806 37.1577 43.7871 36.8746L47.3751 29.5284C47.6414 28.8878 48.04 28.3111 48.5437 27.8333C48.8252 27.5412 49.2375 27.4164 49.6347 27.5031C50.1445 27.6857 50.0242 28.4891 49.8493 28.8969L46.6265 37.4437C46.2294 38.6351 45.5355 39.7078 44.6134 40.5599L41.4971 43.6366C40.7561 44.3487 40.3453 45.3363 40.3589 46.3634V48.1634C40.3589 48.3384 40.2174 48.4784 40.044 48.4784H34.201C34.026 48.4784 33.886 48.3384 33.886 48.1634V44.3031C33.886 43.1345 34.0884 41.7483 34.7853 40.7745C35.1778 40.1902 35.715 39.7185 36.3434 39.4035C36.7922 39.1707 37.2046 38.8724 37.5668 38.5194L39.8492 36.2446C40.6556 35.4382 41.5351 35.2906 42.1864 35.4884C42.5303 35.5736 42.8164 35.8095 42.9655 36.1305C43.0644 36.4516 42.9472 36.8 42.6733 36.9963L39.6073 40.0624L39.5845 40.0609ZM38.4159 30.4398C38.4159 28.1437 37.191 26.0225 35.2022 24.8738C33.2134 23.725 30.7635 23.725 28.7749 24.8738C26.7863 26.0226 25.5613 28.1437 25.5613 30.4398V32.5396C25.5613 32.8607 25.6891 33.1681 25.9158 33.3948C26.144 33.6215 26.4514 33.7478 26.7725 33.7478H37.2077C37.5287 33.7478 37.8376 33.6215 38.0643 33.3948C38.291 33.1681 38.4189 32.8607 38.4189 32.5396V30.4322L38.4159 30.4398ZM45.1474 25.8628C45.1428 23.4815 43.4477 21.4381 41.1075 20.9936C38.7673 20.5509 36.4421 21.832 35.5688 24.0475C37.2532 24.994 38.4994 26.5627 39.038 28.4177H44.2114C44.7272 28.4162 45.1442 27.9992 45.1472 27.4834L45.1474 25.8628Z" fill="#151419"/>
</svg>
