<svg width="42" height="29" viewBox="0 0 42 29" fill="none" xmlns="http://www.w3.org/2000/svg">
<path d="M12.0343 1.53601C11.7535 2.3782 11.4728 5.37265 11.4728 8.36709V13.7945L6.79399 15.9468C0.99225 18.6605 -0.692126 20.4384 1.27298 21.6549C2.48947 22.4035 8.57194 22.0292 12.5021 20.9999C13.5315 20.7192 14.5608 21.8421 15.7773 24.5558C16.9938 27.3631 18.1167 28.5796 19.4268 28.5796C21.0176 28.5796 21.2983 27.831 21.5791 23.1522C21.7662 20.2513 22.2341 17.8183 22.702 17.8183C24.4799 17.8183 40.8558 10.3322 41.5108 9.20928C43.3824 6.21483 38.3292 5.74695 28.3166 7.99278C19.5204 9.95789 19.5204 9.95789 17.3681 4.71761C15.403 0.0387917 13.1572 -1.27128 12.0343 1.53601Z" fill="#F6B1C6"/>
</svg>
