<svg id="ind" xmlns="http://www.w3.org/2000/svg" width="64" height="64" viewBox="0 0 64 64">
  <rect id="Rectangle_2937" data-name="Rectangle 2937" width="64" height="64" rx="32" fill="#f78da7"/>
  <path id="Path_11744" data-name="Path 11744" d="M31.893,35.234H33.5a4.022,4.022,0,0,1,2.9-3.15,9.113,9.113,0,0,0-4.545-4.044,8.244,8.244,0,0,1-4.724,1.5,7.99,7.99,0,0,1-4.724-1.5,9.1,9.1,0,0,0-5.726,8.446v3.722a1.589,1.589,0,0,0,1.575,1.575h10.45a2.1,2.1,0,0,1-.143-.823V38.6A3.353,3.353,0,0,1,31.893,35.234Z" fill="#151419"/>
  <path id="Path_11745" data-name="Path 11745" d="M27.133,27.467a6.245,6.245,0,1,0-6.263-6.227A6.247,6.247,0,0,0,27.133,27.467Z" fill="#151419"/>
  <path id="Path_11746" data-name="Path 11746" d="M39.48,45.183H38.192a1.857,1.857,0,0,1-1.861-1.789,39.188,39.188,0,0,1-4.867-.5v4.545a1.52,1.52,0,0,0,1.5,1.539h11.7a1.528,1.528,0,0,0,1.539-1.539V42.928a38.767,38.767,0,0,1-4.867.465A1.834,1.834,0,0,1,39.48,45.183Z" fill="#151419"/>
  <path id="Path_11747" data-name="Path 11747" d="M45.779,37.059H42.415V35.949a2.192,2.192,0,0,0-2.183-2.183H37.44a2.192,2.192,0,0,0-2.183,2.183v1.109H31.893a1.489,1.489,0,0,0-1.5,1.5v2.362a.425.425,0,0,0,.358.43A38.885,38.885,0,0,0,36.366,42a1.848,1.848,0,0,1,1.861-1.861h1.288A1.848,1.848,0,0,1,41.377,42a37.706,37.706,0,0,0,5.583-.644.425.425,0,0,0,.358-.43V38.562A1.52,1.52,0,0,0,45.779,37.059Zm-5.225-.143H37.118v-.966a.321.321,0,0,1,.322-.322h2.792a.321.321,0,0,1,.322.322Z" fill="#151419"/>
  <path id="Path_11748" data-name="Path 11748" d="M39.48,43.823a.489.489,0,0,0,.5-.5V42.034a.489.489,0,0,0-.5-.5H38.192a.489.489,0,0,0-.5.5v1.288a.489.489,0,0,0,.5.5Z" fill="#151419"/>
</svg>
