<svg width="64" height="64" viewBox="0 0 64 64" fill="none" xmlns="http://www.w3.org/2000/svg">
<rect width="64" height="64" rx="32" fill="white"/>
<path fill-rule="evenodd" clip-rule="evenodd" d="M38.2742 37.4984V30.5486C38.282 30.0367 38.6912 29.6237 39.2031 29.6101H40.8106V33.4321C40.8242 33.6086 40.9308 33.7656 41.0899 33.8412C41.2508 33.9188 41.4389 33.9052 41.5863 33.8044L42.678 33.0346L43.7949 33.818V33.8199C43.9423 33.9052 44.1226 33.9091 44.2739 33.8315C44.4251 33.752 44.524 33.6027 44.5395 33.4321V29.6101H46.1471C46.6726 29.6101 47.0972 30.0348 47.1011 30.5583V37.5081C47.0972 38.0317 46.6726 38.4564 46.1471 38.4564H39.1973C38.6815 38.4409 38.2704 38.0142 38.2742 37.4984ZM46.4812 42.6507C46.3358 42.7438 46.1516 42.7535 45.9965 42.6778C45.8413 42.6003 45.7366 42.451 45.7211 42.2784V39.3949H44.102C43.5765 39.3949 43.1498 39.8215 43.1498 40.347V47.2968C43.1518 47.8223 43.5784 48.2451 44.102 48.2451H51.0518C51.5753 48.2431 51.998 47.8204 52 47.2968V40.347C52 39.8235 51.5773 39.3969 51.0518 39.3949H49.4384V42.2784C49.4248 42.4471 49.324 42.5964 49.1747 42.674C49.0254 42.7515 48.847 42.7496 48.6996 42.6662L47.5827 41.8828L46.4812 42.6507ZM34.3037 39.3949C33.7802 39.3969 33.3555 39.8235 33.3555 40.347V47.2968C33.3613 47.8185 33.784 48.2373 34.3037 48.2412H41.2535C41.7751 48.2373 42.1998 47.8145 42.2018 47.2929V40.3431C42.1998 39.8195 41.7752 39.3969 41.2535 39.3949H39.6402V42.2783C39.6421 42.4548 39.5432 42.6177 39.3861 42.6991C39.2291 42.7806 39.039 42.7689 38.8956 42.6662L37.7786 41.8808L36.6869 42.6507C36.5395 42.7476 36.3534 42.7612 36.1963 42.6836C36.0373 42.608 35.9326 42.4529 35.9171 42.2784V39.3949L34.3037 39.3949ZM38.0617 40.9229L38.6919 41.365V39.3794H36.8653V41.365L37.5052 40.919C37.672 40.7969 37.8969 40.7988 38.0617 40.9229ZM46.6596 41.365L47.3053 40.919C47.4682 40.7969 47.6912 40.7969 47.8561 40.919L48.4863 41.3612V39.3755H46.6596V41.365ZM12 28.4583V26.0751C11.9981 25.759 12.225 25.4895 12.5352 25.4352L13.9061 25.187C14.1466 25.1385 14.3386 24.9562 14.4026 24.7197C14.612 24.0022 14.9086 23.3099 15.281 22.6603C15.407 22.4431 15.3934 22.1736 15.2461 21.97L14.4471 20.8046C14.2668 20.5428 14.2998 20.1918 14.5266 19.9688L16.2195 18.276V18.2779C16.4406 18.0471 16.7954 18.0103 17.0591 18.1926L18.2052 18.9876C18.4088 19.1331 18.6783 19.1466 18.8955 19.0225C19.5509 18.6522 20.249 18.3613 20.9742 18.1577C21.2127 18.0956 21.395 17.9037 21.4415 17.6613L21.6897 16.2903V16.2923C21.744 15.9801 22.0136 15.7532 22.3297 15.7551H24.7283C25.0405 15.7532 25.3101 15.9743 25.3683 16.2806L25.6223 17.6516C25.6649 17.892 25.8453 18.086 26.0838 18.148C26.809 18.3516 27.5071 18.6425 28.1625 19.0109C28.3739 19.137 28.6396 19.1292 28.8432 18.9915L29.9989 18.1926C30.2606 18.0161 30.6097 18.053 30.8288 18.2779L32.5275 19.9708V19.9689C32.7486 20.1938 32.7796 20.5448 32.6012 20.8046L31.8217 21.9506C31.6627 22.1562 31.6452 22.4374 31.7771 22.6604C32.1474 23.3177 32.4363 24.0158 32.64 24.741C32.7059 24.9776 32.8979 25.1579 33.1364 25.2064L34.5073 25.4546C34.8195 25.5089 35.0464 25.7804 35.0425 26.0965V28.4932C35.0367 28.7977 34.8195 29.0556 34.5228 29.1137L33.1519 29.3678C32.9114 29.4124 32.7175 29.5927 32.6555 29.8293C32.4519 30.5545 32.161 31.2526 31.7926 31.908C31.6684 32.1213 31.6801 32.387 31.8216 32.5886L32.6167 33.7347C32.7951 33.9984 32.7602 34.3532 32.5314 34.5743L30.8288 36.2768C30.6058 36.4998 30.2549 36.5309 29.995 36.3505L28.8432 35.5671C28.6396 35.4198 28.37 35.4062 28.1529 35.5322C27.4974 35.9026 26.7993 36.1915 26.0741 36.3971C25.8356 36.4591 25.6572 36.6511 25.6107 36.8935L25.3683 38.2683C25.314 38.5786 25.0445 38.8054 24.7284 38.8035H22.3297C22.0136 38.8054 21.7441 38.5786 21.6898 38.2683L21.4416 36.8974C21.3931 36.6569 21.2108 36.4649 20.9742 36.401C20.2568 36.1915 19.5645 35.8949 18.9149 35.5225C18.6977 35.3965 18.4282 35.4101 18.2246 35.5575L17.0786 36.3525V36.3506C16.8187 36.5309 16.4677 36.4999 16.2447 36.2769L14.5325 34.5743C14.3076 34.3552 14.2707 34.0062 14.4472 33.7444L15.2461 32.5887C15.3935 32.3851 15.4071 32.1155 15.281 31.8984C14.9107 31.243 14.6217 30.5448 14.4181 29.8196C14.3561 29.5811 14.1622 29.4008 13.9217 29.3562L12.5352 29.1138C12.225 29.0595 11.9981 28.79 12 28.4739L12 28.4583ZM18.1258 27.2774C18.1258 29.4627 19.4424 31.4348 21.463 32.2708C23.4835 33.1085 25.8085 32.6451 27.3539 31.0996C28.8993 29.5541 29.3629 27.2291 28.5252 25.2086C27.6894 23.1881 25.7174 21.8714 23.5317 21.8714C22.0968 21.8694 20.7219 22.4395 19.7078 23.4537C18.6937 24.4679 18.1238 25.8424 18.1258 27.2774ZM42.9464 32.0786L43.5824 32.5208V29.6101H41.75V32.5285L42.3899 32.0825C42.5586 31.9565 42.7913 31.9603 42.9561 32.0922L42.9464 32.0786Z" fill="#151419"/>
</svg>
