<svg width="64" height="64" viewBox="0 0 64 64" fill="none" xmlns="http://www.w3.org/2000/svg">
<rect width="64" height="64" rx="32" fill="white"/>
<path d="M28.115 15.9185C28.115 15.411 27.704 15 27.1965 15H26.5143C26.0068 15 25.5958 15.411 25.5958 15.9185V18.5706H28.1165V15.9185H28.115Z" fill="#151419"/>
<path d="M33.2597 15.9185C33.2597 15.411 32.8487 15 32.3412 15H31.659C31.1515 15 30.7405 15.411 30.7405 15.9185V18.5706H33.2611V15.9185H33.2597Z" fill="#151419"/>
<path d="M38.4054 15.9185C38.4054 15.411 37.9944 15 37.4869 15H36.8047C36.2972 15 35.8862 15.411 35.8862 15.9185V18.5706H38.4069V15.9185H38.4054Z" fill="#151419"/>
<path d="M35.8849 48.0815C35.8849 48.589 36.2959 49 36.8033 49H37.4856C37.9931 49 38.4041 48.589 38.4041 48.0815V45.4294H35.8834V48.0815H35.8849Z" fill="#151419"/>
<path d="M30.7402 48.0815C30.7402 48.589 31.1512 49 31.6587 49H32.3409C32.8484 49 33.2594 48.589 33.2594 48.0815V45.4294H30.7388V48.0815H30.7402Z" fill="#151419"/>
<path d="M25.5942 48.0815C25.5942 48.589 26.0052 49 26.5127 49H27.1949C27.7024 49 28.1134 48.589 28.1134 48.0815V45.4294H25.5928V48.0815H25.5942Z" fill="#151419"/>
<path d="M48.0815 25.5945H45.4294V28.1151H48.0815C48.589 28.1151 49 27.7041 49 27.1966V26.5144C49 26.0069 48.589 25.5959 48.0815 25.5959V25.5945Z" fill="#151419"/>
<path d="M48.0815 30.739H45.4294V33.2597H48.0815C48.589 33.2597 49 32.8486 49 32.3412V31.6589C49 31.1514 48.589 30.7404 48.0815 30.7404V30.739Z" fill="#151419"/>
<path d="M48.0815 35.8848H45.4294V38.4054H48.0815C48.589 38.4054 49 37.9944 49 37.4869V36.8047C49 36.2972 48.589 35.8862 48.0815 35.8862V35.8848Z" fill="#151419"/>
<path d="M15 36.8037V37.4859C15 37.9934 15.411 38.4044 15.9185 38.4044H18.5706V35.8838H15.9185C15.411 35.8838 15 36.2948 15 36.8023V36.8037Z" fill="#151419"/>
<path d="M15 31.6587V32.3409C15 32.8484 15.411 33.2594 15.9185 33.2594H18.5706V30.7388H15.9185C15.411 30.7388 15 31.1498 15 31.6573V31.6587Z" fill="#151419"/>
<path d="M15 26.5127V27.1949C15 27.7024 15.411 28.1134 15.9185 28.1134H18.5706V25.5928H15.9185C15.411 25.5928 15 26.0038 15 26.5113V26.5127Z" fill="#151419"/>
<path d="M40.2411 20.2791H23.7626C21.8348 20.2791 20.2802 21.8337 20.2802 23.7615V40.24C20.2802 42.1678 21.8348 43.7225 23.7626 43.7225H40.2411C42.1689 43.7225 43.7236 42.1678 43.7236 40.24V23.7615C43.7236 21.8337 42.1689 20.2791 40.2411 20.2791ZM35.9603 27.8857C35.5661 27.4915 35.5773 26.8498 35.9715 26.4555C36.3755 26.0613 37.0186 26.0725 37.4115 26.4653L40.262 29.3984C40.6451 29.7926 40.6451 30.4133 40.262 30.8076L37.4115 33.7406C37.2046 33.9377 36.9445 34.0412 36.6859 34.0412C36.4273 34.0412 36.1672 33.9475 35.9715 33.7504C35.5773 33.3561 35.5675 32.7145 35.9603 32.3202L38.1259 30.103L35.9603 27.8857ZM29.918 33.9602L32.1255 25.7205C32.2709 25.1808 32.8301 24.8607 33.3684 25.0047C33.908 25.1501 34.2281 25.7093 34.0841 26.2489L31.8669 34.4776C31.7523 34.9333 31.3384 35.2339 30.8925 35.2339C30.81 35.2339 30.7163 35.2241 30.6338 35.2032C30.0844 35.0578 29.7741 34.4985 29.9194 33.9589L29.918 33.9602ZM23.7318 29.4L26.5922 26.4669C26.9865 26.0727 27.6281 26.0629 28.0224 26.4571C28.4264 26.8514 28.4376 27.493 28.0433 27.8873L25.8778 30.1046L28.0433 32.3218C28.4376 32.7161 28.4264 33.3577 28.0224 33.752C27.8253 33.9491 27.5764 34.0428 27.3178 34.0428C27.0591 34.0428 26.7893 33.9393 26.5922 33.7422L23.7318 30.8092C23.3488 30.4149 23.3488 29.7942 23.7318 29.4ZM39.6917 39.028H24.3009C23.8354 39.028 23.4509 38.6449 23.4509 38.1682C23.4509 37.6915 23.834 37.3085 24.3009 37.3085H39.6917C40.1684 37.3085 40.5515 37.6915 40.5515 38.1682C40.5515 38.6449 40.1684 39.028 39.6917 39.028Z" fill="#151419"/>
</svg>
