<svg width="114" height="90" viewBox="0 0 114 90" fill="none" xmlns="http://www.w3.org/2000/svg">
<path d="M54.3248 16.7486C49.9903 11.9574 42.3586 8.36983 35.2884 7.23474C28.2181 6.09965 19.9319 9.10157 17.4018 15.7958C15.4422 20.9799 17.3178 26.7071 18.1896 32.1796C19.3563 39.4982 18.6501 47.1064 16.1549 54.0851C14.8524 57.7308 13.0609 61.7295 14.5833 65.2899C16.5921 69.988 22.8281 70.7339 27.94 70.7766C36.7914 70.8503 45.6428 70.924 54.4956 70.9977C58.6076 71.0313 63.3884 70.7443 65.771 67.3946C68.6206 63.3881 66.0672 57.7347 62.6705 54.182C59.2725 50.6281 54.8849 47.6068 53.3948 42.9229C50.7185 34.5157 60.7664 23.8668 54.3261 16.7473L54.3248 16.7486Z" fill="#FFBC03"/>
<path d="M50.5829 76.6738C46.4318 78.9178 47.3616 85.4904 52.8152 87.6883C59.5535 90.4028 105.839 88.5149 110.426 85.5616C110.475 85.5295 110.525 85.4974 110.574 85.4639C114.849 82.5595 113.395 75.9827 106.835 74.6785C94.2502 72.1776 58.8912 72.1832 50.5844 76.6752L50.5829 76.6738Z" fill="#264BA6" stroke="black" stroke-width="0.0787872" stroke-miterlimit="10"/>
<path d="M22.1254 27.9342C19.9719 29.8777 18.9739 32.7665 18.1738 35.5556C17.3754 38.3446 16.6471 41.258 14.842 43.5288C13.0386 45.7997 9.78907 47.2301 7.16634 45.9888C4.51559 44.7317 3.61391 41.4769 3.00462 38.6073C0.952655 28.948 -1.10807 18.9858 0.68653 9.27393C1.43939 5.19626 3.62442 0.589836 7.73536 0.0505816C10.7345 -0.343354 13.4746 1.63508 15.8522 3.50496C19.7688 6.58641 23.8132 9.82369 25.986 14.3076C28.1587 18.7914 26.9332 23.5939 22.1236 27.9342H22.1254Z" fill="#0045C0"/>
</svg>
