<svg width="49" height="49" viewBox="0 0 49 49" fill="none" xmlns="http://www.w3.org/2000/svg">
<path fill-rule="evenodd" clip-rule="evenodd" d="M0.41864 24.76C0.41864 11.5052 11.1638 0.76001 24.4186 0.76001C37.6735 0.76001 48.4186 11.5052 48.4186 24.76C48.4186 38.0148 37.6735 48.76 24.4186 48.76C11.1638 48.76 0.41864 38.0148 0.41864 24.76Z" fill="#D9D9D9" fill-opacity="0.5"/>
<path d="M21.9528 18.1432V21.1172H19.6177V24.7534H21.9528V35.5604H26.7459V24.7545H29.9632C29.9632 24.7545 30.2647 23.011 30.4108 21.1042H26.7656V18.6172C26.7656 18.246 27.2873 17.746 27.8044 17.746H30.4177V13.9604H26.8653C21.8334 13.9604 21.9528 17.5999 21.9528 18.1432Z" fill="#231F20"/>
</svg>
