<svg width="48" height="48" viewBox="0 0 48 48" fill="none" xmlns="http://www.w3.org/2000/svg">
<path fill-rule="evenodd" clip-rule="evenodd" d="M0 24C0 10.7452 10.7452 0 24 0C37.2548 0 48 10.7452 48 24C48 37.2548 37.2548 48 24 48C10.7452 48 0 37.2548 0 24Z" fill="#D9D9D9" fill-opacity="0.5"/>
<path d="M19.5815 16.0978C19.555 14.907 18.6971 14 17.3039 14C15.9108 14 15 14.907 15 16.0978C15 17.2639 15.8839 18.197 17.2511 18.197H17.2771C18.6971 18.197 19.5815 17.2639 19.5815 16.0978Z" fill="#231F20"/>
<path d="M19.3132 19.8548H15.2408V31.9997H19.3132V19.8548Z" fill="#231F20"/>
<path d="M29.3111 19.5695C31.9909 19.5695 34 21.3057 34 25.0361L33.9998 31.9997H29.9276V25.5021C29.9276 23.8701 29.3383 22.7564 27.864 22.7564C26.7389 22.7564 26.0688 23.5072 25.7745 24.2323C25.6668 24.4922 25.6404 24.8543 25.6404 25.2173V32H21.5674C21.5674 32 21.6211 20.9947 21.5674 19.8551H25.6404V21.5753C26.1809 20.7483 27.1489 19.5695 29.3111 19.5695Z" fill="#231F20"/>
</svg>
