<svg width="51" height="44" viewBox="0 0 51 44" fill="none" xmlns="http://www.w3.org/2000/svg">
<path d="M21.8077 7.78461V15.5692L17.8269 13.5385C15.6375 12.4554 13.5808 11.5077 13.1827 11.5077C11.6567 11.5077 12.7183 13.6062 15.5712 16.1785C17.6279 18.0062 18.3577 19.0215 17.7606 19.2246C17.2298 19.4277 13.3154 20.5108 8.93655 21.5938C0.775979 23.6246 -0.882674 24.5046 0.377902 25.7908C0.842325 26.2646 4.02694 26.0615 11.126 24.9785C16.6991 24.1662 21.4096 23.6923 21.6087 23.8954C21.8077 24.1662 20.6798 26.5354 19.1539 29.2431C17.5616 31.9508 16.2346 34.3877 16.1019 34.5908C15.9692 34.8615 16.301 35.4031 16.7654 35.8092C17.5616 36.4862 18.225 36.1477 20.3481 34.2523C21.8077 32.8985 23.2673 31.8154 23.599 31.8154C23.9308 31.8154 24.5942 33.8462 25.125 36.3508C26.2529 42.1723 27.049 44 28.5087 44C30.3 44 30.6317 41.9015 30.101 34.1169C29.8356 30.1908 29.8356 27.0769 30.1673 27.0769C30.499 27.0769 33.1529 28.16 36.0721 29.4462C41.8442 32.0185 43.7019 32.3569 43.7019 30.8677C43.7019 29.5138 42.6404 28.5662 37.5317 24.9785C35.0769 23.3538 33.0865 21.7969 33.0865 21.5938C33.0865 21.3908 36.4702 20.24 40.5837 19.0215C47.9481 16.8554 51 15.4338 51 14.2154C51 13.2 46.8202 13.4031 40.1856 14.6215C37.001 15.2308 34.1481 15.5692 33.949 15.2985C33.75 15.0954 34.2144 13.3354 35.0106 11.44C37.9962 4.06154 36.1385 3.38461 31.4942 10.2215C29.7692 12.8615 28.0442 14.7569 27.7789 14.4185C27.5135 14.1477 26.7837 11.44 26.1202 8.46154C24.7933 2.09846 23.9308 0 22.6702 0C22.0067 0 21.8077 1.76 21.8077 7.78461Z" fill="#FDD900"/>
<path d="M22.3077 15.5692V16.3856L21.5805 16.0146L17.6025 13.9853C16.5114 13.4455 15.4579 12.9418 14.63 12.5738C14.215 12.3894 13.8626 12.2417 13.5934 12.1411C13.4584 12.0906 13.3507 12.0544 13.2701 12.0315C13.2027 12.0123 13.1742 12.0084 13.1728 12.0077C13.0676 12.0086 13.0115 12.0239 12.9873 12.0333C12.9795 12.0947 12.9931 12.284 13.1803 12.6514C13.5699 13.4157 14.4942 14.534 15.9047 15.8059C16.9351 16.7217 17.6676 17.4631 18.0671 18.019C18.2576 18.2841 18.4252 18.5768 18.4567 18.8659C18.4741 19.0261 18.4525 19.2131 18.3409 19.3839C18.2328 19.5493 18.0769 19.6434 17.9312 19.6947C17.6238 19.8104 16.4872 20.1377 14.9224 20.5618C13.3268 20.9942 11.2502 21.5367 9.0573 22.079C4.96361 23.0978 2.56571 23.8136 1.34679 24.4193C1.04709 24.5682 0.839225 24.7008 0.701367 24.8163C0.562358 24.9328 0.519162 25.0113 0.5065 25.0466C0.506392 25.0469 0.506259 25.0473 0.506108 25.0477C0.500095 25.0637 0.464301 25.1586 0.717444 25.4227C0.728975 25.4279 0.756384 25.4391 0.80734 25.4523C0.910355 25.479 1.06605 25.5028 1.28715 25.5171C1.72807 25.5456 2.36504 25.5326 3.22762 25.4698C4.94891 25.3443 7.50403 25.0253 11.0506 24.4842L11.0539 24.4837C13.8457 24.0768 16.4238 23.7543 18.3316 23.5588C19.2845 23.4611 20.0758 23.3946 20.6449 23.3654C20.9279 23.3508 21.1659 23.345 21.3451 23.3505C21.4331 23.3532 21.5209 23.359 21.5984 23.3714C21.6366 23.3776 21.6857 23.3873 21.7368 23.4046C21.7759 23.4178 21.8765 23.4544 21.9658 23.5454L21.9905 23.5707L22.0115 23.5992C22.1045 23.7257 22.1242 23.8602 22.1294 23.9354C22.1353 24.0189 22.1276 24.0997 22.1171 24.1679C22.096 24.3051 22.0521 24.4615 21.9976 24.6236C21.8873 24.952 21.7084 25.3776 21.4816 25.8659C21.0264 26.8466 20.3561 28.1281 19.5894 29.4886L19.5895 29.4886L19.5849 29.4965C18.791 30.8465 18.063 32.1295 17.5163 33.1013C17.349 33.3987 17.1967 33.6706 17.064 33.9076C16.84 34.3076 16.6717 34.608 16.5811 34.7636C16.5911 34.7954 16.6105 34.8422 16.645 34.9031C16.7361 35.0643 16.8948 35.2577 17.0919 35.4305C17.2496 35.5641 17.3578 35.6107 17.4431 35.6246C17.5261 35.6382 17.6492 35.6308 17.8553 35.5388C18.3012 35.3398 18.9383 34.8405 20.0116 33.8824C20.7511 33.1968 21.493 32.5771 22.0972 32.1256C22.3989 31.9002 22.6736 31.7112 22.9008 31.576C23.0139 31.5088 23.1239 31.4496 23.2253 31.4057C23.3107 31.3687 23.4493 31.3154 23.599 31.3154C23.8816 31.3154 24.0587 31.512 24.1204 31.5853C24.207 31.6881 24.2824 31.8157 24.3481 31.9445C24.4821 32.2069 24.6219 32.5664 24.7617 32.9857C25.0432 33.8298 25.3463 34.983 25.6141 36.2471L25.6142 36.2471L25.6159 36.2557C26.1806 39.1702 26.6531 41.0302 27.1499 42.1567C27.3973 42.7175 27.6329 43.054 27.8535 43.2484C28.0582 43.4289 28.2636 43.5 28.5087 43.5C28.8458 43.5 29.0501 43.4083 29.2093 43.2238C29.3936 43.0103 29.5669 42.6149 29.6819 41.8984C29.9118 40.4667 29.8682 38.0537 29.6021 34.1509L29.6021 34.1506C29.469 32.1808 29.4018 30.4075 29.4102 29.1213C29.4144 28.4812 29.4373 27.9468 29.4833 27.5651C29.5057 27.3788 29.5366 27.2011 29.5844 27.0589C29.6074 26.9906 29.6454 26.8961 29.7117 26.8093C29.7777 26.7229 29.9272 26.5769 30.1673 26.5769C30.2917 26.5769 30.4371 26.6169 30.5367 26.646C30.6601 26.6821 30.8127 26.733 30.9873 26.7953C31.3377 26.9203 31.799 27.0987 32.3364 27.3155C33.4127 27.7496 34.811 28.3442 36.2737 28.9886L36.2756 28.9895C39.1699 30.2793 41.0244 30.9809 42.1428 31.1884C42.7159 31.2947 42.9837 31.2477 43.0907 31.192C43.1292 31.172 43.2019 31.1331 43.2019 30.8677C43.2019 30.6045 43.1527 30.3735 43.0153 30.1167C42.8717 29.8481 42.6217 29.5331 42.1891 29.1241C41.3175 28.3001 39.8094 27.1891 37.25 25.3916C36.0165 24.575 34.8977 23.7744 34.0841 23.1497C33.6776 22.8375 33.3415 22.5649 33.1038 22.3537C32.9862 22.2492 32.8836 22.1517 32.8068 22.0672C32.7692 22.0258 32.7277 21.9765 32.6924 21.9232C32.6747 21.8965 32.6522 21.8592 32.6328 21.814C32.6155 21.7735 32.5865 21.695 32.5865 21.5938C32.5865 21.42 32.6718 21.3025 32.7057 21.26C32.7473 21.208 32.7916 21.171 32.8203 21.1489C32.8793 21.1033 32.9468 21.0645 33.0059 21.0332C33.1288 20.968 33.2955 20.8942 33.4908 20.8146C33.8856 20.6537 34.4476 20.4491 35.1307 20.2154C36.4993 19.7471 38.3806 19.1526 40.4416 18.5421L40.4426 18.5419C44.1215 17.4597 46.6956 16.5713 48.3436 15.8092C49.1701 15.4271 49.7348 15.0896 50.0857 14.7936C50.3706 14.5532 50.4639 14.384 50.4905 14.2823C50.4317 14.2499 50.3225 14.2069 50.1399 14.1683C49.7066 14.0768 49.0269 14.0427 48.1011 14.0804C46.262 14.1551 43.5859 14.5055 40.2776 15.113C38.6776 15.419 37.1556 15.6582 36.0032 15.7869C35.4288 15.8511 34.9345 15.8892 34.5642 15.8926C34.3813 15.8943 34.2109 15.8878 34.0695 15.8666C33.9995 15.8561 33.9191 15.8396 33.8411 15.8102C33.7793 15.787 33.6628 15.7356 33.5685 15.6231C33.4948 15.5384 33.459 15.4478 33.4404 15.3859C33.4189 15.3141 33.4099 15.2442 33.406 15.1857C33.3981 15.069 33.407 14.9406 33.4229 14.8142C33.455 14.5579 33.5259 14.2343 33.6241 13.8728C33.8214 13.1464 34.1438 12.2127 34.5483 11.2494C35.289 9.41861 35.7171 8.03191 35.8812 7.08961C35.9641 6.61361 35.9727 6.28776 35.9408 6.08818C35.9333 6.04136 35.925 6.00801 35.9176 5.98483C35.8751 5.99596 35.8007 6.02286 35.6861 6.08942C35.4566 6.22273 35.1531 6.46581 34.7768 6.84308C34.0284 7.59346 33.0625 8.80294 31.9103 10.4989C31.0386 11.8325 30.1622 12.986 29.4621 13.77C29.115 14.1587 28.7953 14.4746 28.5308 14.6752C28.4039 14.7714 28.2546 14.8686 28.098 14.9193C27.9542 14.9658 27.6304 15.0173 27.4015 14.7468C27.3077 14.6417 27.2426 14.5027 27.2011 14.4087C27.1464 14.2846 27.0883 14.1301 27.0281 13.9545C26.9072 13.6021 26.7672 13.134 26.6168 12.5883C26.3154 11.4949 25.9651 10.0649 25.6322 8.57025L25.6321 8.57026L25.6307 8.56361C24.9669 5.38042 24.4272 3.30638 23.9074 2.03365C23.6471 1.3962 23.4076 1.00071 23.1905 0.770073C23.0199 0.58897 22.8763 0.521587 22.7445 0.504635C22.7362 0.519989 22.7262 0.540489 22.7145 0.567444C22.6336 0.754646 22.5525 1.10063 22.4871 1.68834C22.3579 2.84961 22.3077 4.76864 22.3077 7.78461V15.5692ZM16.5722 34.7257C16.5721 34.7256 16.5722 34.7263 16.5724 34.7278L16.5722 34.7257ZM35.8962 5.93779C35.896 5.93806 35.8975 5.94064 35.9011 5.94446C35.8983 5.93943 35.8965 5.93753 35.8962 5.93779ZM22.7713 0.46376C22.7712 0.463474 22.7695 0.465004 22.7663 0.469204C22.7697 0.466148 22.7713 0.464046 22.7713 0.46376Z" stroke="black" stroke-opacity="0.1"/>
</svg>
