<svg width="119" height="52" viewBox="0 0 119 52" fill="none" xmlns="http://www.w3.org/2000/svg">
<path d="M117.471 36.4346C118.879 32.7595 118.822 32.1756 117.056 30.4031C115.547 28.8414 113.908 28.3536 109.413 28.2045C98.9346 27.7575 94.6776 31.2402 104.554 32.1589C107.466 32.404 109.818 32.94 109.852 33.2903C109.978 34.5749 101.327 40.1389 95.4373 42.6025C78.1715 49.895 57.1072 47.3019 49.4389 37.0293C47.0462 33.6676 46.1807 31.4533 46.9708 30.4916C47.2341 30.171 49.0683 29.6376 51.1063 29.3789C60.2108 27.8382 67.0417 21.7452 65.4757 16.593C64.4088 12.9246 56.17 10.6664 50.4453 12.4065C46.9051 13.5787 43.4244 17.1622 41.8396 21.4442L40.4426 25.2361L34.0357 23.6237C21.9568 20.6807 12.919 15.0816 7.17868 7.03712C5.67663 4.94412 3.609 2.49388 2.51907 1.5985L0.542989 0.082526L1.01688 2.51208C1.61211 5.57823 5.14512 10.9504 9.67195 15.6356C14.2629 20.3736 23.5824 25.2376 33.2798 27.9424L40.9759 30.0769L42.8237 34.4941C50.5465 52.5431 81.7708 57.1471 102.943 43.3997C105.609 41.7237 108.274 40.0476 108.824 39.6401C109.543 39.1569 109.793 39.8988 109.479 42.1108C109.236 43.8443 109.449 45.4151 110.056 45.5914C111.59 46.2075 115.792 40.9616 117.471 36.4346ZM52.0499 24.5703C47.3419 25.857 45.3361 24.6387 46.7903 21.4306C48.391 17.9135 53.2411 15.6696 57.4017 16.6178C61.6791 17.5546 61.6791 17.5546 60.7768 19.1757C59.7394 21.2228 56.3023 23.4461 52.0499 24.5703Z" fill="#F26722"/>
</svg>
