<svg width="10" height="7" viewBox="0 0 10 7" fill="none" xmlns="http://www.w3.org/2000/svg">
<path d="M5.48325 6.13734C5.36074 6.25984 5.19775 6.33343 5.02484 6.3443C4.85194 6.35517 4.68101 6.30258 4.54413 6.1964L4.47725 6.13734L0.208497 1.86859L0.149447 1.80172L0.111029 1.74693L0.0726094 1.67863L0.0605149 1.65302L0.041306 1.60535L0.0185379 1.52852L0.0114254 1.49081L0.00431008 1.44812L0.00146432 1.40757L4.14434e-05 1.36559L0.00146433 1.32362L0.00502154 1.28235L0.0114255 1.23966L0.018538 1.20267L0.041306 1.12583L0.0605149 1.07816L0.110318 0.984251L0.156561 0.92022L0.208498 0.862592L0.275375 0.803541L0.330159 0.765122L0.398457 0.726703L0.424071 0.714608L0.471738 0.695399L0.548576 0.672632L0.586282 0.665517L0.628971 0.658403L0.669524 0.655557L0.7115 0.654134L9.249 0.654135C9.85516 0.654135 10.1718 1.35563 9.80607 1.80883L9.752 1.86859L5.48325 6.13734Z" fill="#151419"/>
</svg>
