<svg width="64" height="64" viewBox="0 0 64 64" fill="none" xmlns="http://www.w3.org/2000/svg">
<rect width="64" height="64" rx="32" fill="white"/>
<path d="M26.6187 23.0982C26.5417 23.7902 26.5 24.4359 26.5 25V39.9989C26.5 42.2094 28.2876 44 30.4998 44H33.5002C35.7092 44 37.5 42.207 37.5 39.9989V25C37.5 24.4358 37.4583 23.7898 37.3812 23.0977C39.1672 23.4994 40.5 25.0918 40.5 26.9969V34.3164C40.7314 34.4115 40.9788 34.5179 41.2392 34.6353C42.2781 35.1038 43.3175 35.6541 44.2933 36.2854C45.3551 36.9725 46.2682 37.7036 47 38.482V35.5003C47 35.2237 47.226 35 47.5047 35H48.4953C48.7783 35 49 35.224 49 35.5003V46.4997C49 46.7763 48.774 47 48.4953 47H47.5047C47.2217 47 47 46.776 47 46.4997V45H42V48C42 48.5523 41.5523 49 41 49H37C36.7348 49 36.4804 48.8946 36.2929 48.7071L34.5858 47H29.4142L27.7071 48.7071C27.5196 48.8946 27.2652 49 27 49H23C22.4477 49 22 48.5523 22 48V45H17V46.4997C17 46.7763 16.774 47 16.4953 47H15.5047C15.2217 47 15 46.776 15 46.4997V35.5003C15 35.2237 15.226 35 15.5047 35H16.4953C16.7783 35 17 35.224 17 35.5003V38.482C17.7318 37.7036 18.6449 36.9725 19.7067 36.2854C20.6825 35.6541 21.7219 35.1038 22.7608 34.6353C23.0212 34.5179 23.2686 34.4115 23.5 34.3164V26.9969C23.5 25.0962 24.8347 23.5012 26.6187 23.0982ZM32 15C33.2155 15 33.8734 16.4253 34.5912 19.1173C35.134 21.1526 35.5 23.4586 35.5 25V39.9989C35.5 41.1024 34.6046 42 33.5002 42H30.4998C29.3919 42 28.5 41.1045 28.5 39.9989V25C28.5 23.4586 28.866 21.1526 29.4088 19.1173C30.1266 16.4253 30.7845 15 32 15ZM32.4953 30C32.774 30 33 29.7776 33 29.5022V24.9978C33 24.7229 32.7783 24.5 32.4953 24.5H31.5047C31.226 24.5 31 24.7224 31 24.9978V29.5022C31 29.7771 31.2217 30 31.5047 30H32.4953Z" fill="#151419"/>
</svg>
