<svg width="64" height="64" viewBox="0 0 64 64" fill="none" xmlns="http://www.w3.org/2000/svg">
<rect width="64" height="64" rx="32" fill="white"/>
<path fill-rule="evenodd" clip-rule="evenodd" d="M40.7748 16C42.69 15.9943 44.5304 16.7512 45.8875 18.1038C47.2459 19.455 48.01 21.2911 48.0129 23.2077C48.0157 25.123 47.2574 26.9619 45.9047 28.319C44.5521 29.6745 42.7145 30.4386 40.7994 30.44C38.8826 30.4415 37.0452 29.6817 35.6896 28.3276C34.334 26.9735 33.5728 25.1359 33.5728 23.2193C33.5743 21.3054 34.3355 19.4692 35.6881 18.1154C37.0422 16.7613 38.8784 16.0001 40.7935 16.0001L40.7748 16ZM32.0602 35.4738H45.709C46.3494 35.4753 46.8674 35.9948 46.8689 36.6336V37.6222C46.8689 38.2626 46.3508 38.7835 45.709 38.7864H32.0602C31.7508 38.7878 31.453 38.6655 31.2328 38.4468C31.0126 38.2295 30.8889 37.9316 30.8889 37.6222V36.6336C30.8903 35.9947 31.4098 35.4753 32.0487 35.4738L32.0602 35.4738ZM21.3109 15H30.0341C30.5853 15.0015 31.0299 15.4475 31.0328 15.9972V17.3902C31.0299 17.9413 30.5853 18.3859 30.0341 18.3888H21.3109C20.7598 18.3859 20.3151 17.9413 20.3123 17.3902V15.9972C20.3151 15.4475 20.7598 15.0015 21.3109 15ZM30.3218 26.3421C32.0313 27.1738 33.489 28.4459 34.5468 30.0259C31.4947 29.6014 28.3849 29.8518 25.4408 30.7626C23.0838 31.3958 20.7885 32.0145 16.0873 31.2346C17.1406 29.1006 18.8731 27.3766 21.0129 26.3348C21.5496 26.0844 21.8892 25.5419 21.882 24.949V19.3788H29.4526V24.9564C29.444 25.5493 29.7851 26.0917 30.3218 26.3421ZM35.6302 43.1321L39.8551 40.6944C40.9488 40.0627 42.346 40.4383 42.9777 41.5319C43.608 42.6256 43.2324 44.0228 42.1388 44.6545L37.9139 47.1037C36.8202 47.7339 35.423 47.3598 34.7913 46.2662C34.161 45.1725 34.5366 43.7739 35.6302 43.1436V43.1321ZM38.665 42.5205L39.9615 44.7682L41.6451 43.7882C42.2653 43.4299 42.4783 42.6371 42.12 42.0168C41.7631 41.3952 40.9688 41.1837 40.3486 41.5405L38.665 42.5133V42.5205ZM35.6489 45.7597C36.0043 46.3655 36.7756 46.5813 37.3944 46.2489L39.1039 45.2618L37.8074 43.0141L36.1238 43.9868C35.5093 44.3509 35.2978 45.138 35.6489 45.7597ZM19.9364 35.9413C20.5206 35.9413 21.0473 36.2939 21.2704 36.8335C21.4949 37.3731 21.3711 37.9933 20.9581 38.4063C20.5451 38.8193 19.9235 38.9431 19.3839 38.72C18.8443 38.497 18.4931 37.9703 18.4931 37.3861C18.4931 36.5874 19.1392 35.9413 19.9364 35.9413ZM35.1796 31.1049C30.3907 30.4603 28.015 31.1049 25.6983 31.7237C23.1901 32.4014 20.7539 33.0576 15.6816 32.177C14.6355 34.9629 14.7996 38.0582 16.1321 40.719C17.466 43.3797 19.8475 45.3624 22.7054 46.1927C25.5632 47.0216 28.6371 46.6216 31.1866 45.089V39.5921C30.411 39.2438 29.9103 38.4725 29.9088 37.6221V36.6335C29.9102 35.4463 30.8729 34.4837 32.0601 34.4793H36.2419C36.0793 33.3037 35.7207 32.1626 35.1796 31.1049ZM45.5908 39.7762H32.1781V47.0631C32.1795 48.1323 33.0458 48.9986 34.1164 49H43.6526C44.7232 48.9986 45.5895 48.1323 45.5909 47.0631L45.5908 39.7762ZM40.1068 19.5281C39.9557 19.5266 39.809 19.5885 39.7025 19.6979C39.596 19.8058 39.5384 19.954 39.5442 20.1066V21.8635C39.5442 21.9024 39.5298 21.9398 39.5025 21.9672C39.4751 21.9931 39.4391 22.0089 39.4003 22.0074H37.6433C37.3325 22.0089 37.0821 22.2607 37.0792 22.5715V23.9054V23.904C37.0792 24.2163 37.3311 24.4681 37.6433 24.4681H39.4003C39.4391 24.4666 39.4751 24.4825 39.5025 24.5084C39.5298 24.5357 39.5442 24.5731 39.5442 24.612V26.369C39.5442 26.6798 39.796 26.933 40.1068 26.933H41.4407C41.7516 26.9301 42.0019 26.6798 42.0048 26.369V24.5933C42.0034 24.5544 42.0178 24.5184 42.0451 24.4911C42.0724 24.4638 42.1099 24.4494 42.1487 24.4494H43.9057C44.0539 24.4494 44.1978 24.3904 44.3028 24.2839C44.4079 24.1788 44.4669 24.0349 44.4655 23.8867V22.5528C44.4655 22.2434 44.2151 21.9916 43.9057 21.9887H42.1487C42.1099 21.9902 42.0724 21.9758 42.0451 21.9484C42.0178 21.9211 42.0034 21.8837 42.0048 21.8448V20.1065C42.0019 19.7971 41.7501 19.5468 41.4408 19.5468L40.1068 19.5281Z" fill="#151419"/>
</svg>
