<svg width="124" height="124" viewBox="0 0 124 124" fill="none" xmlns="http://www.w3.org/2000/svg">
<path d="M124 56.6667L80.871 58.2401L121.34 43.1541L117.047 32.9821L78.681 50.8459L109.875 22.1971L102.068 14.3871L72.6846 45.9964L90.6344 6.71326L80.405 2.55556L65.9068 42.319L67.7061 2.70444e-07L56.6667 2.26348e-07L58.2401 43.129L43.1541 2.6595L32.9821 6.94982L50.8459 45.319L22.1971 14.1219L14.3871 21.9319L45.9964 51.3154L6.71326 33.3656L2.55556 43.595L42.319 58.0932L-2.24859e-07 56.2939L-2.68955e-07 67.3333L43.129 65.7599L2.6595 80.8459L6.94982 91.0179L45.319 73.1541L14.1219 101.803L21.9319 109.613L51.3154 78.0036L33.3656 117.287L43.595 121.444L58.0932 81.681L56.2903 124L67.3333 124L65.7599 80.871L80.8459 121.341L91.0179 117.047L73.1541 78.681L101.803 109.875L109.613 102.068L78.0036 72.6846L117.287 90.6344L121.444 80.405L81.681 65.9068L124 67.7061L124 56.6667Z" fill="#F26722"/>
</svg>
