<svg width="251" height="273" viewBox="0 0 251 273" fill="none" xmlns="http://www.w3.org/2000/svg">
<path d="M158.451 180.225C162.848 211.751 155.122 244.635 137.079 271.555C136.119 272.987 133.891 273.006 132.91 271.585C101.323 225.976 85.3033 171.206 86.8842 116.847C87.3696 100.11 85.6778 88.1522 80.1601 76.283C77.1766 69.8562 69.4828 70.2705 67.8915 77.1177C37.6139 207.435 27.5182 210.639 23.1135 209.863C16.1313 208.635 -7.78905 175.359 2.55888 128.344C10.8724 90.5645 36.6905 51.4405 39.6381 11.6669C40.3859 1.60294 52.8856 -3.52313 61.3388 2.7281C90.4772 24.2842 120.247 34.1611 147.011 45.4277C202.775 68.905 243.328 121.357 250.126 178.243C250.401 180.574 248.347 182.55 245.853 182.38C190.317 178.553 161.213 113.873 130.449 83.1794C113.434 66.2082 103.364 61.1084 100.738 66.3849C98.117 71.656 153.875 147.507 158.439 180.219L158.451 180.225Z" fill="#FFBC03"/>
</svg>
