<svg width="60" height="60" viewBox="0 0 60 60" fill="none" xmlns="http://www.w3.org/2000/svg">
<path d="M60 27.4194L39.1311 28.1807L58.7131 20.881L56.6354 15.9591L38.0715 24.6028L53.1651 10.7405L49.3878 6.9615L35.17 22.2563L43.8554 3.24835L38.9057 1.23656L31.8904 20.4769L32.761 1.3086e-07L27.4194 1.09523e-07L28.1807 20.8689L20.881 1.28685L15.9591 3.36282L24.6028 21.9285L10.7405 6.83316L6.9615 10.6122L22.2563 24.83L3.24835 16.1446L1.23656 21.0943L20.4769 28.1096L-1.08803e-07 27.239L-1.3014e-07 32.5806L20.8689 31.8193L1.28685 39.119L3.36282 44.0409L21.9285 35.3972L6.83316 49.2595L10.6122 53.0385L24.83 37.7437L16.1446 56.7517L21.0943 58.7634L28.1096 39.5231L27.2373 60L32.5806 60L31.8193 39.1311L39.119 58.7132L44.0409 56.6354L35.3972 38.0715L49.2595 53.1651L53.0385 49.3878L37.7437 35.17L56.7517 43.8554L58.7634 38.9057L39.5231 31.8904L60 32.761L60 27.4194Z" fill="#F26722"/>
</svg>
