<svg width="313" height="189" viewBox="0 0 313 189" fill="none" xmlns="http://www.w3.org/2000/svg">
<g clip-path="url(#clip0_246_9)">
<path d="M305.807 73.8243L312.805 72.1354V15.85H-0.184998V72.1354L6.81327 73.8243C15.2933 75.8711 21.4506 84.499 21.4506 94.35C21.4506 104.201 15.2933 112.829 6.81327 114.876L-0.184998 116.565V172.85H312.815V116.565L305.817 114.876C297.337 112.829 291.179 104.201 291.179 94.35C291.179 84.499 297.337 75.8711 305.817 73.8243H305.807Z" fill="white"/>
<path d="M281.222 94.35C281.222 80.5748 290.445 69.04 302.815 66.0501V23.85H9.815V66.0501C22.1853 69.0483 31.4081 80.5748 31.4081 94.35C31.4081 108.125 22.1853 119.66 9.815 122.65V164.85H302.815V122.65C290.445 119.652 281.222 108.125 281.222 94.35Z" fill="#0045C0" stroke="black" stroke-width="2.44" stroke-miterlimit="10"/>
</g>
<defs>
<clipPath id="clip0_246_9">
<rect width="312.63" height="188.69" fill="white"/>
</clipPath>
</defs>
</svg>
