<svg width="64" height="64" viewBox="0 0 64 64" fill="none" xmlns="http://www.w3.org/2000/svg">
<rect width="64" height="64" rx="32" fill="white"/>
<path fill-rule="evenodd" clip-rule="evenodd" d="M25.3032 18.9848C26.101 17.5334 27.0623 16.2248 28.1567 15.0923C28.1789 15.0701 28.1837 15.0384 28.1694 15.0098C28.1551 14.9813 28.1266 14.967 28.0965 14.9702C25.503 15.2969 23.097 16.3851 21.1093 18.0696C21.0887 18.087 21.0792 18.114 21.0855 18.1394C21.0919 18.1663 21.1093 18.1854 21.1363 18.1933C22.4147 18.5549 23.8074 18.8341 25.2318 19.0197C25.2604 19.0261 25.2889 19.0117 25.3032 18.9848ZM32.0158 26.2574L32.4108 25.5737C32.5551 25.3231 32.8771 25.2375 33.1277 25.3818L39.92 29.3028C40.1706 29.4472 40.2562 29.7692 40.1119 30.0198L39.7169 30.7034C39.5726 30.954 39.2506 31.0397 39 30.8954L38.7208 30.7336C38.6859 30.7129 38.6415 30.7256 38.6225 30.7605L37.3916 32.8924C37.371 32.9273 37.3837 32.9717 37.4186 32.9907L47.694 38.9229C47.9859 39.091 48.0874 39.4686 47.9177 39.7604L47.4577 40.5567C47.2896 40.8485 46.912 40.95 46.6202 40.7819L36.3431 34.8497C36.3082 34.8291 36.2638 34.8418 36.2448 34.8767L35.0139 37.0085C34.9933 37.0434 35.006 37.0878 35.0409 37.1069L35.32 37.2686C35.5707 37.413 35.6563 37.735 35.512 37.9856L35.117 38.6692C34.9727 38.9199 34.6507 39.0055 34.4001 38.8612L27.6078 34.9417C27.3572 34.7974 27.2716 34.4754 27.4159 34.2248L27.8109 33.5411C27.9552 33.2905 28.2772 33.2049 28.5278 33.3492L28.5421 33.3571C28.577 33.3777 28.6214 33.3651 28.6404 33.3302L32.2474 27.0821C32.268 27.0472 32.2554 27.0028 32.2205 26.9837L32.2062 26.9758C31.9571 26.8299 31.8715 26.508 32.0158 26.2574ZM18.7315 46.029H41.0966C42.1356 46.029 42.9826 46.876 42.9826 47.915V48.9571C42.9826 48.9968 42.9509 49.0301 42.9096 49.0301L16.9183 49.0285C16.8787 49.0285 16.8453 48.9968 16.8453 48.9555V47.9134C16.8469 46.876 17.6941 46.029 18.7315 46.029ZM38.4828 44.8711C38.4447 43.829 37.6168 43.0295 36.5984 43.0295H23.2316C22.2133 43.0295 21.3853 43.829 21.3472 44.8711C21.3472 44.8917 21.3536 44.9092 21.3679 44.9234C21.3821 44.9377 21.3996 44.9457 21.4202 44.9457H38.4115C38.4322 44.9457 38.4496 44.9377 38.4639 44.9234C38.4766 44.9092 38.4844 44.8917 38.4828 44.8711ZM36.4065 36.853C36.7205 37.3431 36.7586 37.9887 36.4477 38.5264L36.0528 39.21C35.6594 39.8921 34.833 40.176 34.116 39.9175C34.0827 39.9048 34.0462 39.9191 34.0288 39.9492C33.6529 40.6011 33.2405 41.2292 32.79 41.8288C32.7725 41.851 32.7709 41.8796 32.7836 41.905C32.7963 41.9304 32.8201 41.9446 32.8487 41.9446H36.3827C36.3954 41.9446 36.4081 41.9415 36.4192 41.9351C37.5501 41.28 38.5827 40.4631 39.4884 39.5146C39.793 39.1958 40.0832 38.8627 40.3592 38.5153C40.3735 38.4979 40.3783 38.4788 40.3735 38.4566C40.3688 38.436 40.3577 38.4186 40.3386 38.4075L36.7443 36.3327C36.7094 36.3121 36.665 36.3248 36.646 36.3597L36.4049 36.7784C36.3922 36.8022 36.3922 36.8292 36.4065 36.853ZM42.5673 34.618C43.1209 33.154 43.454 31.571 43.519 29.9166C43.5206 29.896 43.5127 29.8786 43.4984 29.8643C43.4841 29.85 43.4667 29.8421 43.446 29.8421H41.3269C41.2888 29.8421 41.2587 29.8706 41.2555 29.9071C41.2349 30.1308 41.1667 30.3544 41.0477 30.5622L40.6527 31.2459C40.3419 31.7836 39.7629 32.0754 39.1808 32.0469C39.1538 32.0453 39.1284 32.0596 39.1142 32.0834L38.8731 32.5005C38.8524 32.5354 38.8651 32.5798 38.9 32.5989L42.4626 34.6562C42.4816 34.6673 42.5022 34.6688 42.5228 34.6609C42.5451 34.653 42.5609 34.6387 42.5673 34.618ZM23.8153 29.915C23.939 34.3244 25.43 38.6596 28.1788 41.9207C28.1931 41.9381 28.2121 41.9461 28.2343 41.9461H31.2877C31.3099 41.9461 31.329 41.9365 31.3432 41.9207C31.9952 41.1482 32.5757 40.3155 33.0833 39.4351C33.1039 39.4002 33.0912 39.3558 33.0563 39.3368L27.0669 35.8789C26.3008 35.4364 26.0359 34.4498 26.4784 33.6836L26.8734 33C27.1208 32.5717 27.538 32.3005 27.9917 32.2212C28.0139 32.218 28.0313 32.2053 28.0424 32.1863L29.3336 29.9497C29.3463 29.9275 29.3463 29.9006 29.3336 29.8768C29.3209 29.8546 29.2971 29.8403 29.2717 29.8403H23.8865C23.8659 29.8403 23.8484 29.8482 23.8342 29.8625C23.8215 29.8768 23.8137 29.8944 23.8153 29.915ZM24.483 37.9413C25.0953 39.353 25.8535 40.6584 26.7323 41.8306C26.7497 41.8528 26.7513 41.8813 26.7386 41.9067C26.7259 41.9321 26.7021 41.9464 26.6736 41.9464L23.1411 41.948C23.1284 41.948 23.1158 41.9448 23.1047 41.9384C21.9721 41.2833 20.9395 40.4649 20.0306 39.5147C17.6625 37.0371 16.1508 33.6617 16.0017 29.915C16.0001 29.8944 16.0081 29.8769 16.0223 29.8626C16.0366 29.8483 16.0541 29.8404 16.0747 29.8404H22.6606C22.7003 29.8404 22.732 29.8721 22.7336 29.9102C22.8081 32.7971 23.433 35.5223 24.483 37.9413ZM22.7319 28.6875C22.7303 28.7271 22.6986 28.7573 22.6589 28.7573H16.073C16.0523 28.7573 16.0349 28.7493 16.0206 28.7351C16.0063 28.7208 16 28.7017 16 28.6827C16.1507 24.9219 17.6766 21.5258 20.0671 19.0436C20.0862 19.023 20.1147 19.0166 20.1417 19.0245C21.528 19.4623 23.0476 19.8034 24.6608 20.0349C24.6846 20.0381 24.702 20.0508 24.7147 20.0714C24.7258 20.0921 24.7258 20.1143 24.7163 20.1365C23.5124 22.7108 22.8128 25.6245 22.7319 28.6875ZM35.3341 25.2676C34.9915 23.4879 34.4236 21.7939 33.6543 20.2345C33.64 20.2075 33.6131 20.1917 33.5813 20.1948C31.0752 20.4581 28.4438 20.4581 25.9376 20.1948C25.9075 20.1917 25.8789 20.2075 25.8646 20.2345C24.6147 22.7645 23.8977 25.6497 23.8121 28.6843C23.8121 28.7049 23.8184 28.7223 23.8327 28.7366C23.847 28.7509 23.8644 28.7588 23.8851 28.7588H29.9776C30.0046 28.7588 30.0268 28.7461 30.0395 28.7223L30.9547 27.1378C30.9658 27.1187 30.9674 27.0981 30.9595 27.0775C30.8009 26.6444 30.8263 26.1464 31.0737 25.7181L31.4687 25.0344C31.9112 24.2683 32.8978 24.0034 33.6655 24.446L35.2247 25.3453C35.2501 25.3596 35.2787 25.358 35.3025 25.3422C35.3294 25.3231 35.3404 25.2962 35.3341 25.2676ZM39.3788 19.026C37.9941 19.4638 36.4697 19.8065 34.8597 20.0364C34.836 20.0396 34.8169 20.0523 34.8058 20.0729C34.7947 20.0935 34.7947 20.1158 34.8042 20.138C35.6624 21.97 36.2635 23.9765 36.5681 26.0848C36.5713 26.107 36.5839 26.126 36.603 26.1371L40.459 28.3641C40.6287 28.4625 40.7747 28.5878 40.8936 28.7305C40.9079 28.748 40.9269 28.7575 40.9491 28.7575H43.4458C43.4664 28.7575 43.4838 28.7496 43.4981 28.7353C43.5124 28.721 43.5187 28.702 43.5187 28.6829C43.3681 24.9189 41.8437 21.5277 39.4516 19.0438C39.4326 19.0248 39.4058 19.0165 39.3788 19.026ZM31.3656 15.0939C31.3434 15.0717 31.3386 15.04 31.3529 15.0114C31.3672 14.9828 31.3957 14.9686 31.4258 14.9717C34.0192 15.3001 36.4253 16.3866 38.413 18.0711C38.4336 18.0886 38.4431 18.1156 38.4368 18.1409C38.4304 18.1679 38.413 18.1869 38.386 18.1949C37.1076 18.5565 35.7149 18.8357 34.2905 19.0213C34.2603 19.0245 34.2318 19.0118 34.2175 18.9848C33.4212 17.535 32.46 16.2248 31.3656 15.0939ZM29.7128 15.0923C29.7397 15.0669 29.7826 15.0669 29.8095 15.0923C31.0436 16.2026 32.1285 17.543 33.0199 19.0593C33.0326 19.0815 33.0342 19.1069 33.0215 19.1291C33.0104 19.1513 32.9898 19.1656 32.9644 19.1688C30.8611 19.3575 28.661 19.3575 26.558 19.1688C26.5326 19.1672 26.512 19.1529 26.5009 19.1291C26.4898 19.1069 26.4898 19.0815 26.5024 19.0593C27.3939 17.5429 28.4787 16.2026 29.7128 15.0923Z" fill="#151419"/>
</svg>
