<svg width="64" height="64" viewBox="0 0 64 64" fill="none" xmlns="http://www.w3.org/2000/svg">
<rect width="64" height="64" rx="32" fill="white"/>
<path d="M42.9105 28.8496C42.3421 28.2796 41.5686 27.9578 40.7635 27.9561C40.2984 27.9561 39.8517 27.7711 39.5216 27.4427L34.5326 22.4537C34.2025 22.122 34.0175 21.6736 34.0192 21.2052C34.0159 20.4017 33.6941 19.6316 33.1257 19.0649L30.8953 16.8345H30.8936C30.0452 15.991 28.7616 15.7626 27.6731 16.261L16.8331 21.25C14.5978 22.2868 13.4826 24.8256 14.2327 27.1727C14.9811 29.5197 17.3615 30.9416 19.7837 30.4899L23.0309 29.8731C23.3093 29.8181 23.596 29.9048 23.796 30.1048L24.0144 30.3232L27.6983 26.6393C27.8217 26.5209 27.985 26.4542 28.1551 26.4526C28.3251 26.4526 28.4885 26.5209 28.6118 26.6393L35.3363 33.3638C35.588 33.6171 35.588 34.0239 35.3363 34.2772L31.6524 37.9612L31.8708 38.1795C32.0675 38.3762 32.1575 38.658 32.1091 38.9313L31.4924 42.1919C31.4357 42.4902 31.4074 42.7936 31.409 43.0987C31.4124 45.389 33.0076 47.3712 35.2463 47.861C37.4834 48.3528 39.762 47.2226 40.7256 45.1423L45.7146 34.3087C46.2147 33.2185 45.9863 31.9333 45.1429 31.0815L42.9105 28.8496ZM41.7786 31.5767C42.0503 31.8484 42.132 32.2569 41.9853 32.6119C41.8386 32.967 41.4919 33.1987 41.1069 33.1987C40.7235 33.1987 40.3767 32.967 40.23 32.6119C40.0817 32.2569 40.1634 31.8484 40.4351 31.5767C40.6134 31.3967 40.8551 31.2967 41.1068 31.2967C41.3602 31.2967 41.602 31.3967 41.7786 31.5767ZM40.4351 35.254C40.7068 34.9823 41.1152 34.9006 41.4703 35.0473C41.8253 35.1957 42.057 35.5424 42.057 35.9258C42.057 36.3108 41.8253 36.6576 41.4703 36.8043C41.1152 36.951 40.7068 36.8693 40.4351 36.5976C40.2567 36.4209 40.155 36.1775 40.155 35.9258C40.155 35.6741 40.2567 35.4324 40.4351 35.254ZM36.7578 36.5975C36.4861 36.3258 36.4044 35.9174 36.5511 35.5624C36.6995 35.2073 37.0445 34.9756 37.4296 34.9756C37.813 34.9756 38.1597 35.2073 38.3081 35.5624C38.4548 35.9174 38.3731 36.3258 38.1014 36.5975C37.923 36.7776 37.6813 36.8776 37.4296 36.8776C37.1779 36.8776 36.9362 36.7776 36.7578 36.5975ZM38.1014 31.5766C38.3731 31.8483 38.4547 32.2567 38.3081 32.6117C38.1597 32.9668 37.813 33.1985 37.4296 33.1985C37.0445 33.1985 36.6995 32.9668 36.5511 32.6117C36.4044 32.2567 36.4861 31.8483 36.7578 31.5766C36.9362 31.3965 37.1779 31.2965 37.4296 31.2965C37.6813 31.2965 37.923 31.3965 38.1014 31.5766ZM30.3668 23.4101L28.5981 25.1787L27.4346 24.0152L26.2644 25.1787L24.4958 23.4101L25.666 22.2466L24.4958 21.0764L26.2644 19.3078L27.4346 20.478L28.5981 19.3078L30.3668 21.0764L29.2032 22.2466L30.3668 23.4101ZM32.8038 27.846L31.2802 26.3158L32.187 25.409L33.7173 26.9392L32.8038 27.846ZM34.129 29.1713L35.0359 28.2578L36.5661 29.788L35.6576 30.6948L34.129 29.1713Z" fill="#151419"/>
<path d="M33.9741 33.8201L28.1547 28.0007L25.8343 30.3278L24.9275 31.2346L30.7401 37.0472L31.6452 36.1403L33.9741 33.8201Z" fill="#151419"/>
<path d="M49.3665 24.9189L46.9045 22.4568C45.8961 21.4485 45.805 19.8705 46.6311 18.7592C46.769 18.5738 46.772 18.3104 46.6086 18.147L45.9962 17.5346C45.9961 17.5344 45.996 17.5343 45.996 17.5341V17.5341C45.996 17.5336 45.9954 17.5334 45.995 17.5337C44.3841 19.1457 44.3844 21.7554 45.996 23.3671L48.4581 25.8291C48.8031 26.1742 48.8031 26.7343 48.4581 27.081C48.1113 27.4277 47.5512 27.4277 47.2045 27.081L42.9505 22.8269C41.8236 21.7034 40.06 21.5334 38.7381 22.4202L38.0947 21.7768V21.7784C37.898 21.5801 37.5962 21.5334 37.3495 21.6618L35.871 22.4269L39.5483 26.1042L40.3134 24.6256C40.4417 24.3789 40.3951 24.0772 40.1967 23.8805L39.68 23.3637H39.6816C40.4667 22.967 41.4169 23.117 42.042 23.7371L46.2961 27.9912V27.9895C47.1445 28.8363 48.5164 28.8347 49.3632 27.9879C50.2117 27.141 50.2117 25.7674 49.3665 24.9189Z" fill="#151419"/>
</svg>
