<svg width="64" height="64" viewBox="0 0 64 64" fill="none" xmlns="http://www.w3.org/2000/svg">
<rect width="64" height="64" rx="32" fill="white"/>
<path d="M21.881 36.8571V37.6667H17.4286C16.0868 37.6667 15 36.5799 15 35.2381V17.4286C15 16.0868 16.0868 15 17.4286 15H46.5714C47.9132 15 49 16.0868 49 17.4286V35.2381C49 36.5799 47.9132 37.6667 46.5714 37.6667H42.119V36.8571C42.119 35.74 41.2124 34.8334 40.0952 34.8334H38.4762V33.2143C38.4762 30.6077 36.4241 28.4806 33.8457 28.3632C35.3838 27.661 36.4524 26.1107 36.4524 24.3095C36.4524 21.8506 34.4589 19.8571 31.9999 19.8571C29.541 19.8571 27.5475 21.8506 27.5475 24.3095C27.5475 26.1108 28.6161 27.661 30.1542 28.3632C27.5758 28.4806 25.5237 30.6076 25.5237 33.2143V34.8334H23.9047C22.7875 34.8334 21.881 35.74 21.881 36.8571Z" fill="#151419"/>
<path d="M31.9999 21.4766C30.4355 21.4766 29.1665 22.7455 29.1665 24.3099C29.1665 25.8744 30.4354 27.1433 31.9999 27.1433C33.5643 27.1433 34.8332 25.8744 34.8332 24.3099C34.8332 22.7455 33.5643 21.4766 31.9999 21.4766Z" fill="#151419"/>
<path d="M36.8571 34.8335V33.2144C36.8571 31.4254 35.408 29.9763 33.619 29.9763H30.3809C28.5919 29.9763 27.1428 31.4254 27.1428 33.2144V34.8335H36.8571Z" fill="#151419"/>
<path d="M26.7381 42.1189C26.5155 42.1189 26.3334 42.301 26.3334 42.5237V48.5952C26.3334 48.8178 26.5155 49 26.7381 49H37.2617C37.4843 49 37.6664 48.8178 37.6664 48.5952V42.5237C37.6664 42.301 37.4843 42.1189 37.2617 42.1189H26.7381Z" fill="#151419"/>
<path d="M40.0951 40.4998C40.3177 40.4998 40.4999 40.3176 40.4999 40.095V36.8569C40.4999 36.6343 40.3177 36.4521 40.0951 36.4521H23.9046C23.682 36.4521 23.4999 36.6343 23.4999 36.8569V40.095C23.4999 40.3176 23.682 40.4998 23.9046 40.4998H40.0951Z" fill="#151419"/>
</svg>
