<svg width="36" height="30" viewBox="0 0 36 30" fill="none" xmlns="http://www.w3.org/2000/svg">
<g clip-path="url(#clip0_92_81)">
<path d="M30.8879 4.28568H25.5959L23.9759 1.07139C23.6159 0.321394 22.8599 -0.107178 22.0319 -0.107178H13.9679C13.1399 -0.107178 12.3839 0.357108 12.0239 1.07139L10.4039 4.28568H5.1119C2.7719 4.28568 0.899902 6.14282 0.899902 8.42854V24.5714C0.899902 26.8571 2.7719 28.75 5.1119 28.75H30.9239C33.2279 28.75 35.1359 26.8928 35.1359 24.5714V8.42854C35.0999 6.14282 33.2279 4.28568 30.8879 4.28568ZM17.9999 24.25C13.4639 24.25 9.7919 20.6071 9.7919 16.1071C9.7919 11.6071 13.4639 7.96425 17.9999 7.96425C22.5359 7.96425 26.2079 11.6071 26.2079 16.1071C26.2079 20.6071 22.5359 24.25 17.9999 24.25Z" fill="black"/>
<path d="M17.9999 10.5713C17.4239 10.5713 16.8839 10.6427 16.3439 10.8213C16.6319 11.2499 16.8119 11.7856 16.8119 12.3213C16.8119 13.7499 15.6239 14.9284 14.1839 14.9284C13.6079 14.9284 13.1039 14.7499 12.6719 14.4641C12.4919 14.9999 12.4199 15.5356 12.4199 16.107C12.4199 19.1427 14.9399 21.6427 17.9999 21.6427C21.0959 21.6427 23.5799 19.1427 23.5799 16.107C23.5799 13.0356 21.0959 10.5713 17.9999 10.5713Z" fill="black"/>
</g>
<defs>
<clipPath id="clip0_92_81">
<rect width="36" height="30" fill="white"/>
</clipPath>
</defs>
</svg>
