<svg width="38" height="26" viewBox="0 0 38 26" fill="none" xmlns="http://www.w3.org/2000/svg">
<path d="M36.9981 2.42651C36.6922 2.23697 36.3429 2.12894 35.9834 2.11272C35.6239 2.0965 35.2663 2.17262 34.9446 2.33383L29.4302 5.09116C29.1416 3.65661 28.3659 2.36598 27.2345 1.43808C26.103 0.510182 24.6855 0.00210816 23.2222 0H6.33333C4.65419 0.00184401 3.04436 0.669696 1.85703 1.85703C0.669696 3.04436 0.00184401 4.65419 0 6.33333V19C0.00184401 20.6791 0.669696 22.289 1.85703 23.4763C3.04436 24.6636 4.65419 25.3315 6.33333 25.3333H23.2222C24.6855 25.3312 26.103 24.8232 27.2345 23.8953C28.3659 22.9674 29.1416 21.6767 29.4302 20.2422L34.9446 22.9995C35.2665 23.1605 35.6242 23.2365 35.9837 23.2203C36.3432 23.2042 36.6926 23.0964 36.9988 22.9072C37.3049 22.718 37.5576 22.4536 37.7328 22.1393C37.9081 21.8249 38 21.471 38 21.1111V4.22222C37.9999 3.86232 37.9078 3.50842 37.7324 3.19413C37.5571 2.87984 37.3043 2.6156 36.9981 2.42651ZM16.8889 12.6667V16.8889H12.6667V12.6667H10.5556L14.7778 8.44444L19 12.6667H16.8889Z" fill="black"/>
</svg>
