<svg width="64" height="64" viewBox="0 0 64 64" fill="none" xmlns="http://www.w3.org/2000/svg">
<rect width="64" height="64" rx="32" fill="#FDD900"/>
<path d="M33.0371 22.8512L34.831 22.4608C35.6596 22.2816 36.5024 22.6525 36.9282 23.3835L37.8491 24.9609C37.9219 25.0833 38.0265 25.1774 38.1561 25.2341L39.831 25.9687C40.6082 26.3094 41.0731 27.1061 40.9879 27.9489L40.8105 29.7321L42.1927 29.9113C45.0672 27.5266 48.204 25.2432 51.5295 23.121C51.8223 22.9365 51.934 22.571 51.7956 22.2676C50.055 18.435 45.8802 14.3398 41.4014 12.0755C41.0767 11.9105 40.6846 12.024 40.4894 12.3381C38.2147 16.0429 35.6455 19.574 32.8669 22.8599C32.9255 22.8635 32.9821 22.8636 33.0371 22.8512Z" fill="#151419"/>
<path d="M29.0336 41.3734C28.2138 41.5526 27.3621 41.1853 26.9363 40.4543L26.0101 38.8734C25.9391 38.7527 25.8326 38.6569 25.7031 38.6001L24.0281 37.8655C23.251 37.5248 22.7861 36.7282 22.8712 35.8836L23.054 34.0631C23.0682 33.9229 23.038 33.781 22.9653 33.6603L22.6388 33.1031C19.4733 35.7984 16.017 38.3586 12.3332 40.7115C12.0351 40.8961 11.9197 41.2616 12.0581 41.565C13.797 45.3941 17.9754 49.4909 22.4592 51.7571C22.7821 51.9221 23.1689 51.8103 23.3605 51.4998C25.378 48.2155 27.6154 45.0733 30.0073 42.1453L29.876 41.1889L29.0336 41.3734Z" fill="#151419"/>
<path d="M34.1494 45.0999C34.4564 45.0573 34.7704 45.1496 35.0046 45.3537L36.866 47.0073L35.9433 40.3696L35.1395 41.271C35.1165 41.2976 35.0881 41.3154 35.0633 41.3402C35.0029 41.4023 34.9408 41.4609 34.8734 41.5123C34.8326 41.5443 34.7882 41.5726 34.7456 41.601C34.6871 41.6383 34.6285 41.6738 34.5664 41.7039C34.5168 41.7288 34.4688 41.7554 34.4174 41.7749C34.3482 41.8033 34.2772 41.8228 34.2062 41.8441C34.1264 41.8672 34.0466 41.8832 33.9649 41.8956C33.894 41.9062 33.823 41.9151 33.752 41.9186C33.7307 41.9186 33.7094 41.9257 33.6864 41.9257C33.6562 41.9257 33.626 41.9186 33.5959 41.9169C33.5214 41.9133 33.4486 41.9062 33.3741 41.8938C33.3315 41.8867 33.2907 41.8814 33.2481 41.8725C33.1399 41.8477 33.0316 41.814 32.9269 41.7696C32.9198 41.766 32.911 41.766 32.9021 41.7625L31.8215 41.2887C31.8127 41.2852 31.8056 41.2816 31.7967 41.2781L31.2271 41.0297C31.2005 41.019 31.1721 41.0155 31.1455 41.0084L32.0611 47.662L33.3918 45.5842C33.5675 45.3145 33.8424 45.1425 34.1494 45.0999Z" fill="#151419"/>
<path d="M45.5966 33.2681L47.6691 31.9142L41.4447 31.1105L41.8191 31.751C41.8688 31.8362 41.9096 31.9249 41.9469 32.0154C42.2113 32.6542 42.1048 33.3887 41.6612 33.9424C41.6381 33.9725 41.6186 34.0045 41.592 34.0328L40.3766 35.3973C40.3393 35.4381 40.3145 35.486 40.2879 35.5357C40.2506 35.6102 40.2222 35.6919 40.2133 35.7788L40.208 35.8338L47.0642 36.7227L45.3981 34.8827C45.1869 34.645 45.0911 34.3345 45.1319 34.024C45.1692 33.717 45.3394 33.4402 45.5966 33.2681Z" fill="#151419"/>
<path d="M36.3988 32.766L34.4346 31.3909C34.2607 31.2703 34.1596 31.0716 34.1613 30.8586L34.1808 28.4615C34.1808 28.4455 34.1808 28.4083 34.1347 28.3852C34.0886 28.3604 34.0584 28.3834 34.046 28.3923L32.1315 29.8348C31.9629 29.9626 31.7411 29.9981 31.5406 29.9307L29.2659 29.1712C29.25 29.1659 29.2162 29.1553 29.179 29.1925C29.1417 29.2298 29.1541 29.2653 29.1595 29.2795L29.9402 31.5453C30.0094 31.7458 29.9757 31.9658 29.8497 32.1362L28.4249 34.0649C28.4143 34.0773 28.393 34.1075 28.4178 34.1536C28.4427 34.1997 28.4764 34.1997 28.4941 34.1997L30.8912 34.1589H30.9019C31.1095 34.1589 31.3047 34.2583 31.4253 34.4286L32.8182 36.3804C32.827 36.3929 32.8448 36.4212 32.8998 36.4141C32.9512 36.4053 32.9619 36.3698 32.9672 36.3556L33.6699 34.0631C33.732 33.8608 33.8899 33.7029 34.0904 33.6391L36.3757 32.9169C36.3899 32.9116 36.4254 32.9009 36.4343 32.8495C36.4431 32.7963 36.413 32.7749 36.3988 32.766Z" fill="#151419"/>
<path d="M39.2091 34.8632C39.2712 34.755 39.3262 34.6414 39.4096 34.5456L40.6339 33.1741C40.6481 33.1581 40.6552 33.1404 40.6676 33.1244C40.7811 32.97 40.8255 32.7802 40.7882 32.5974C40.7723 32.5317 40.7474 32.4679 40.7119 32.4093L39.8691 30.9579L39.7875 30.8195C39.5781 30.4611 39.4894 30.053 39.532 29.6413L39.713 27.8226C39.7414 27.5352 39.5817 27.2637 39.3173 27.1483L37.6423 26.4138C37.2626 26.2487 36.9521 25.9702 36.7409 25.6118L35.8201 24.0326C35.6746 23.7824 35.3889 23.6582 35.105 23.7185L33.3111 24.1089C32.9119 24.1958 32.4861 24.1532 32.1152 23.99L30.442 23.2572C30.1777 23.1418 29.8707 23.2093 29.6791 23.424L28.4619 24.7902C28.1868 25.0989 27.8267 25.3101 27.4221 25.3988L25.6353 25.7874C25.3532 25.8495 25.1456 26.0837 25.1154 26.3693L24.9327 28.1933C24.8919 28.605 24.7251 28.9865 24.4483 29.2952L23.2311 30.6597C23.0394 30.8762 23.0075 31.1885 23.153 31.4368L24.0775 33.0125C24.2886 33.3727 24.3773 33.7825 24.3347 34.196L24.152 36.0147C24.1218 36.3021 24.2815 36.5736 24.5459 36.6907L26.2209 37.4253C26.6006 37.5921 26.9111 37.8689 27.1205 38.2238L28.0485 39.8065C28.1922 40.0549 28.4796 40.1809 28.7635 40.1188L30.5503 39.7302C30.568 39.7266 30.5858 39.7284 30.6035 39.7249C30.7082 39.7036 30.8147 39.6929 30.9229 39.6894C30.9371 39.6894 30.9531 39.6841 30.9673 39.6841C30.9886 39.6841 31.0099 39.6894 31.0311 39.6912C31.1199 39.6947 31.2086 39.7036 31.2973 39.7195C31.331 39.7249 31.363 39.7302 31.3967 39.7373C31.5155 39.7639 31.6309 39.7994 31.7427 39.8491C31.7444 39.8491 31.7462 39.8491 31.7462 39.8508L31.9307 39.9325L32.3016 40.0957C32.3069 40.0975 32.314 40.101 32.3193 40.1028L33.4194 40.5837C33.682 40.7008 33.9908 40.6316 34.1771 40.4169L35.4014 39.0471C35.5274 38.9087 35.6746 38.7951 35.8308 38.6993C35.8822 38.6674 35.9372 38.6461 35.9922 38.6195C36.0632 38.584 36.1289 38.5396 36.2034 38.513C36.2336 38.5024 36.2637 38.5077 36.2939 38.5024C36.3453 38.4864 36.3879 38.4562 36.4412 38.4456L38.2297 38.0535C38.5118 37.9913 38.7212 37.7571 38.7496 37.4697L38.9306 35.651C38.9589 35.3617 39.0671 35.1046 39.2091 34.8632ZM37.7044 33.0445C37.6246 33.5644 37.2626 33.9849 36.7623 34.1429L34.7981 34.7639L34.1948 36.7334C34.0422 37.2356 33.6252 37.5993 33.1054 37.6845C33.0308 37.6969 32.9545 37.7022 32.88 37.7022C32.4418 37.7022 32.0301 37.4928 31.7693 37.1273L30.5716 35.4524L28.5134 35.4878C27.9758 35.5074 27.5127 35.2128 27.2713 34.7462C27.03 34.2795 27.0744 33.7259 27.3867 33.3036L28.611 31.6482L27.942 29.7017C27.7717 29.2048 27.8959 28.6637 28.265 28.2911C28.634 27.9185 29.1734 27.7889 29.672 27.9557L31.6256 28.6087L33.2704 27.3702C33.6909 27.0543 34.2427 27.0046 34.7112 27.2406C35.1814 27.4766 35.4689 27.9504 35.4653 28.4756L35.4476 30.5338L37.135 31.7156C37.5679 32.0154 37.7861 32.5246 37.7044 33.0445Z" fill="#151419"/>
<path d="M22.1199 23.3656C21.9548 23.3656 21.7916 23.3035 21.6656 23.1775L18.5747 20.0866C18.3228 19.8346 18.3228 19.4283 18.5747 19.1781C18.8267 18.9261 19.233 18.9261 19.4832 19.1781L22.5741 22.269C22.8261 22.5192 22.8261 22.9273 22.5741 23.1775C22.4499 23.3017 22.2849 23.3656 22.1199 23.3656Z" fill="#151419"/>
<path d="M25.6514 21.1068C25.6265 21.1068 25.6035 21.105 25.5786 21.1032C25.2255 21.0642 24.9718 20.7448 25.0126 20.3917L25.2646 18.1702C25.3054 17.8171 25.6212 17.5581 25.9761 17.6042C26.3292 17.645 26.5829 17.9626 26.5421 18.3157L26.2901 20.5354C26.2529 20.8654 25.9743 21.1068 25.6514 21.1068Z" fill="#151419"/>
<path d="M17.5453 27.5125C17.2597 27.5125 16.9988 27.3208 16.9243 27.0298C16.8356 26.6856 17.0432 26.3361 17.3856 26.2473L19.6532 25.6636C19.9921 25.5748 20.347 25.7807 20.4375 26.1249C20.5262 26.4691 20.3186 26.8186 19.9762 26.9074L17.7086 27.4912C17.6536 27.5054 17.5986 27.5125 17.5453 27.5125Z" fill="#151419"/>
</svg>
