<svg width="174" height="175" viewBox="0 0 174 175" fill="none" xmlns="http://www.w3.org/2000/svg">
<rect x="20.2334" y="64.9087" width="99.1843" height="99.1843" rx="16" transform="rotate(-26.1637 20.2334 64.9087)" fill="#F6B1C6"/>
<rect x="28.6526" y="67.4651" width="85.9027" height="85.9027" rx="15.5" transform="rotate(-26.1637 28.6526 67.4651)" fill="#F6B1C6" stroke="#E290A9"/>
<path d="M68.3853 64.4304L67.6535 66.4818L61.4146 64.2563L60.3986 67.1045L66.0781 69.1304L65.3766 71.0971L59.6971 69.0711L57.8405 74.2759L55.5517 73.4595L59.8576 61.3885L68.3853 64.4304ZM72.0892 75.0204L73.8369 70.1208L75.9731 70.8828L72.8526 79.6309L70.7842 78.8931L71.2378 77.6216C70.2202 78.367 69.1293 78.5321 67.9652 78.1168C67.0271 77.7822 66.3779 77.2448 66.0176 76.5048C65.6726 75.7574 65.6795 74.8808 66.0383 73.8749L68.1066 68.0767L70.2428 68.8387L68.3015 74.2808C67.9064 75.3885 68.257 76.1378 69.3533 76.5289C69.8959 76.7224 70.4222 76.6936 70.9322 76.4423C71.4576 76.1838 71.8433 75.7099 72.0892 75.0204ZM82.2698 73.1289L81.6892 74.7564L79.96 74.1396L78.2727 78.8697C78.1719 79.1522 78.1748 79.3762 78.2814 79.5417C78.3994 79.7111 78.6392 79.8604 79.0008 79.9894L79.7298 80.2494L79.1493 81.877C78.6697 81.7569 78.2887 81.6464 78.0061 81.5457C77.0567 81.207 76.4241 80.7839 76.1083 80.2762C75.8078 79.7614 75.7967 79.114 76.0749 78.3341L77.8408 73.3836L76.4845 72.8998L77.065 71.2723L78.4213 71.7561L79.3285 69.213L81.4477 69.969L80.5405 72.512L82.2698 73.1289ZM87.5031 80.5187L89.2509 75.6191L91.387 76.3811L88.2665 85.1292L86.1982 84.3914L86.6517 83.1199C85.6341 83.8653 84.5432 84.0304 83.3791 83.6151C82.441 83.2805 81.7918 82.7431 81.4315 82.0031C81.0865 81.2557 81.0935 80.3791 81.4523 79.3732L83.5205 73.575L85.6567 74.337L83.7154 79.7792C83.3203 80.8868 83.6709 81.6361 84.7673 82.0272C85.3098 82.2207 85.8361 82.1919 86.3462 81.9407C86.8715 81.6821 87.2572 81.2082 87.5031 80.5187ZM97.8508 78.5339C98.0429 78.6024 98.2141 78.6762 98.3643 78.7553L97.6628 80.7219L97.1202 80.5284C96.3065 80.2381 95.6046 80.2234 95.0146 80.4844C94.44 80.7381 94.0095 81.2662 93.7233 82.0686L92.1388 86.5105L90.0027 85.7485L93.1232 77.0004L95.1916 77.7382L94.6352 79.2979C95.5244 78.3411 96.5962 78.0864 97.8508 78.5339ZM105.725 86.5983L105.544 87.1069L98.9997 84.7725C98.8127 85.5467 98.8428 86.1945 99.09 86.7159C99.3526 87.2299 99.8116 87.6039 100.467 87.8377C101.439 88.1845 102.255 88.0042 102.915 87.2968L104.967 88.0285C104.422 88.8408 103.693 89.3835 102.781 89.6567C101.872 89.9186 100.897 89.8641 99.8575 89.4932C98.5578 89.0295 97.6558 88.2364 97.1517 87.1137C96.6475 85.9911 96.6414 84.7403 97.1333 83.3614C97.6252 81.9825 98.4158 81.016 99.5054 80.4619C100.606 79.9117 101.801 79.8665 103.089 80.3261C104.412 80.7978 105.308 81.6079 105.777 82.7564C106.246 83.9048 106.229 85.1855 105.725 86.5983ZM102.48 81.9815C101.225 81.534 100.248 81.969 99.5488 83.2867L103.94 84.853C104.079 84.1765 104.023 83.5832 103.772 83.0731C103.521 82.5631 103.09 82.1992 102.48 81.9815ZM108.344 81.2449L109.154 78.9731L111.494 79.8077L110.617 82.266C110.077 83.7805 109.115 84.3165 107.731 83.8738L107.437 83.788L107.854 82.6182L108.131 82.698C108.63 82.8374 109.002 82.5625 109.248 81.873L109.344 81.6017L108.344 81.2449ZM111.522 93.6922C108.968 92.781 107.993 91.2994 108.597 89.2472L110.683 89.991C110.546 90.5537 110.584 91.0005 110.797 91.3314C111.021 91.6663 111.456 91.9486 112.1 92.1784C113.253 92.5897 113.954 92.4449 114.204 91.7442C114.317 91.4277 114.28 91.1403 114.091 90.8821C113.903 90.6239 113.507 90.3233 112.903 89.9805L111.963 89.4542C110.166 88.4563 109.526 87.2341 110.042 85.7874C110.336 84.9623 110.882 84.4309 111.68 84.1933C112.483 83.9444 113.46 84.0255 114.613 84.4368C117.111 85.3278 118.047 86.7763 117.42 88.7825L115.403 88.0628C115.566 87.5349 115.533 87.1091 115.304 86.7855C115.08 86.4506 114.668 86.1763 114.069 85.9626C113.052 85.5997 112.422 85.7574 112.18 86.4355C112.075 86.7294 112.106 87.0014 112.271 87.2516C112.441 87.4904 112.77 87.7478 113.257 88.0237L114.299 88.5863C115.293 89.1574 115.952 89.7368 116.278 90.3243C116.615 90.9158 116.65 91.5846 116.384 92.3306C116.07 93.2122 115.489 93.7694 114.641 94.0022C113.794 94.235 112.754 94.1316 111.522 93.6922ZM72.8369 88.3144L72.1052 90.3658L65.4932 88.0072L64.4773 90.8555L70.4619 92.9902L69.7604 94.9569L63.7757 92.8221L62.6509 95.9755L69.2289 98.3219L68.4972 100.373L59.6304 97.2104L63.9363 85.1394L72.8369 88.3144ZM73.6373 102.436C72.3488 101.977 71.4525 101.185 70.9484 100.063C70.4516 98.9555 70.4511 97.7068 70.947 96.3166C71.4469 94.9151 72.2396 93.9429 73.3251 93.4C74.3993 92.8531 75.5919 92.8135 76.903 93.2812C78.0446 93.6884 78.8681 94.3262 79.3738 95.1945C79.8835 96.0516 80.017 97.0166 79.7745 98.0894L77.6383 97.3275C77.718 96.7826 77.6367 96.314 77.3944 95.9218C77.1521 95.5296 76.7766 95.2428 76.268 95.0613C75.6012 94.8235 74.9889 94.879 74.4313 95.2279C73.889 95.5696 73.4565 96.1925 73.134 97.0967C72.8115 98.0009 72.7557 98.7645 72.9666 99.3876C73.1815 99.9994 73.6168 100.422 74.2723 100.656C74.7922 100.842 75.2778 100.855 75.7289 100.698C76.1954 100.533 76.565 100.193 76.8377 99.6792L78.9738 100.441C78.4858 101.452 77.756 102.141 76.7843 102.508C75.8165 102.863 74.7676 102.839 73.6373 102.436ZM86.973 96.8733C87.9224 97.2119 88.5695 97.7549 88.9145 98.5023C89.2748 99.2423 89.2756 100.115 88.9167 101.121L86.8485 106.919L84.7123 106.157L86.6536 100.715C87.0487 99.6076 86.6981 98.8583 85.6017 98.4672C85.0592 98.2737 84.5252 98.3062 83.9999 98.5647C83.4898 98.8159 83.1118 99.2863 82.8659 99.9757L81.1181 104.875L78.982 104.113L83.2878 92.0423L85.424 92.8043L83.8214 97.297C84.8148 96.6194 85.8653 96.4782 86.973 96.8733ZM98.6556 106.201C98.1638 107.579 97.3618 108.542 96.2497 109.088C95.1375 109.634 93.9146 109.669 92.5809 109.194C91.2473 108.718 90.3227 107.917 89.8073 106.79C89.2765 105.671 89.2591 104.416 89.755 103.026C90.2509 101.635 91.0585 100.675 92.1779 100.144C93.29 99.598 94.5129 99.5628 95.8466 100.039C97.1803 100.514 98.1069 101.31 98.6263 102.425C99.1458 103.541 99.1556 104.799 98.6556 106.201ZM91.7915 106.103C92.025 106.734 92.4978 107.176 93.2099 107.43C93.9219 107.684 94.5624 107.639 95.1314 107.294C95.7157 106.942 96.1671 106.319 96.4856 105.426C96.8041 104.534 96.8466 103.772 96.613 103.14C96.3949 102.502 95.9297 102.056 95.2177 101.802C94.5056 101.548 93.8595 101.591 93.2792 101.932C92.7103 102.277 92.2645 102.902 91.942 103.806C91.6195 104.71 91.5693 105.476 91.7915 106.103Z" fill="#4B2D36"/>
<path d="M75.7475 44.5679C78.8806 41.6737 80.2631 37.3289 79.3728 33.1508C82.2303 36.3638 86.5906 37.8913 90.8257 37.1707C87.6927 40.0648 86.3102 44.4097 87.2005 48.5877C84.343 45.3748 79.9827 43.8473 75.7475 44.5679Z" fill="white" stroke="#E290A9"/>
<path d="M79.5312 137.398C82.7104 134.554 84.1625 130.232 83.3395 126.041C86.145 129.299 90.4802 130.896 94.7264 130.244C91.5473 133.087 90.0951 137.41 90.9181 141.601C88.1126 138.343 83.7774 136.745 79.5312 137.398Z" fill="white" stroke="#E290A9"/>
</svg>
