<svg width="122" height="130" viewBox="0 0 122 130" fill="none" xmlns="http://www.w3.org/2000/svg">
<rect x="-0.509451" y="0.648184" width="111.707" height="111.707" rx="55.8535" transform="matrix(0.0852957 0.996356 -0.988296 0.152547 112.048 1.22658)" fill="#BDCD36" stroke="#EBFF43" stroke-width="1.12835"/>
<rect x="-0.509451" y="0.648184" width="96.7926" height="96.7926" rx="48.3963" transform="matrix(0.0852957 0.996356 -0.988296 0.152547 105.294 9.56667)" fill="#BDCD36" stroke="#EBFF43" stroke-width="1.12835"/>
<path d="M34.2898 65.042L33.913 63.6356L38.7041 62.3522L40.2525 68.1324L38.9852 68.4719L38.2982 67.0823C37.7803 68.4468 36.7383 69.3388 35.1722 69.7583C33.5854 70.1834 32.1811 69.9908 30.9592 69.1807C29.7195 68.3865 28.8692 67.129 28.4082 65.4083C27.9418 63.6671 28.0535 62.1464 28.7432 60.8463C29.4199 59.5387 30.5671 58.6682 32.1847 58.2349C33.5344 57.8733 34.7462 57.9242 35.82 58.3874C36.8862 58.8638 37.6642 59.6658 38.154 60.7934L36.454 61.2488C36.1007 60.5484 35.5725 60.0605 34.8692 59.785C34.1763 59.5069 33.4177 59.4782 32.5935 59.699C31.491 59.9943 30.7187 60.6153 30.2766 61.5619C29.8214 62.501 29.7705 63.63 30.1238 64.9488C30.477 66.2676 31.0855 67.22 31.9492 67.8058C32.8259 68.3991 33.8155 68.5481 34.918 68.2528C35.8762 67.9961 36.605 67.4807 37.1043 66.7064C37.6064 65.9425 37.7501 65.0979 37.5353 64.1726L34.2898 65.042ZM46.9935 66.5916C45.3656 67.0277 43.9252 66.8449 42.6724 66.0431C41.4017 65.2571 40.536 64.0038 40.075 62.2831C39.6169 60.5727 39.7388 59.0493 40.4409 57.7128C41.1279 56.4024 42.2854 55.5291 43.9133 55.0931C45.5206 54.6625 46.9596 54.8402 48.2303 55.6262C49.4961 56.4355 50.3582 57.6954 50.8163 59.4058C51.2745 61.1161 51.1563 62.633 50.4618 63.9565C49.7569 65.2827 48.6008 66.1611 46.9935 66.5916ZM43.6273 64.6609C44.4937 65.257 45.4833 65.406 46.5961 65.108C47.7088 64.8099 48.4914 64.1861 48.9438 63.2367C49.4018 62.3079 49.4541 61.1841 49.1008 59.8653C48.7475 58.5465 48.1391 57.5941 47.2754 57.0083C46.4014 56.4253 45.4132 56.2814 44.3108 56.5767C43.2083 56.8721 42.4243 57.4907 41.9588 58.4325C41.4989 59.395 41.4428 60.5253 41.7905 61.8235C42.1411 63.1321 42.7533 64.0779 43.6273 64.6609ZM52.4457 53.0725L54.996 62.5928L60.3898 61.1479L60.7872 62.6316L53.7397 64.5195L50.792 53.5154L52.4457 53.0725ZM59.078 51.2958L63.0036 50.2443C64.7036 49.7888 66.1742 49.9195 67.4152 50.6361C68.6356 51.3582 69.4749 52.5745 69.9331 54.2848C70.3912 55.9952 70.2723 57.4681 69.5763 58.7036C68.8597 59.9447 67.6513 60.7929 65.9513 61.2483L62.0257 62.2999L59.078 51.2958ZM63.2902 60.4041L65.5467 59.7996C66.7522 59.4767 67.5805 58.8794 68.0316 58.0076C68.493 57.1331 68.5499 56.0467 68.2021 54.7485C67.8543 53.4503 67.2621 52.5378 66.4253 52.0111C65.5988 51.4815 64.5828 51.3783 63.3773 51.7012L61.1208 52.3056L63.2902 60.4041ZM77.7658 46.2898L78.1633 47.7735L71.9658 49.4336L72.7979 52.5401L78.4081 51.0373L78.7973 52.4901L73.1871 53.9929L74.1186 57.4703L80.2697 55.8225L80.6672 57.3062L72.8624 59.397L69.9146 48.3929L77.7658 46.2898ZM87.388 47.2901L86.4937 43.9518L88.0856 43.5254L91.0333 54.5294L89.1324 55.0386L84.3194 50.6133C82.9162 49.3327 81.8841 48.3448 81.223 47.6495C81.5927 48.8646 82.1073 50.7034 82.767 53.1659L83.6612 56.5042L82.0539 56.9348L79.1062 45.9307L81.0072 45.4215L85.8356 49.8427C87.1418 51.0498 88.1753 52.0429 88.9361 52.8219C88.5637 51.5965 88.0476 49.7526 87.388 47.2901ZM46.3109 80.5972L50.2365 79.5457C51.9366 79.0903 53.4071 79.2209 54.6482 79.9375C55.8686 80.6596 56.7079 81.8759 57.166 83.5862C57.6242 85.2966 57.5053 86.7695 56.8093 88.0051C56.0927 89.2461 54.8843 90.0943 53.1843 90.5497L49.2587 91.6013L46.3109 80.5972ZM50.5232 89.7055L52.7796 89.1011C53.9851 88.7781 54.8134 88.1808 55.2646 87.309C55.726 86.4345 55.7828 85.3482 55.4351 84.0499C55.0873 82.7517 54.495 81.8392 53.6582 81.3125C52.8317 80.783 51.8157 80.6797 50.6103 81.0026L48.3538 81.607L50.5232 89.7055ZM69.0027 86.3123L67.2562 86.7801L65.4085 84.2108L60.4628 85.5356L60.1624 88.6804L58.4468 89.14L59.7956 76.985L61.6966 76.4758L69.0027 86.3123ZM60.6737 83.2926L60.6033 83.9575L64.4825 82.9183L64.0892 82.3777C63.1788 81.1639 62.204 79.8128 61.1648 78.3243C60.9617 80.4106 60.798 82.0667 60.6737 83.2926ZM71.5781 76.2968L72.3831 73.6131L74.2222 73.1205L71.8213 80.8531L72.9971 85.2423L71.3588 85.6812L70.1831 81.2919L64.2228 75.7991L66.0929 75.2981L68.1667 77.2272C68.4033 77.451 68.7936 77.8157 69.3377 78.3215C69.4849 78.4588 69.6493 78.619 69.8309 78.8023C70.0228 78.9827 70.1806 79.1392 70.3045 79.2717C70.4358 79.3911 70.5462 79.494 70.6357 79.5805C70.9155 78.5228 71.2296 77.4282 71.5781 76.2968ZM81.4631 83.2395C80.0103 83.6287 78.7886 83.6026 77.798 83.1612C76.8177 82.7171 76.1526 81.8627 75.8028 80.5982L77.4565 80.1552C77.929 81.7954 79.1493 82.352 81.1172 81.8248C81.9312 81.6068 82.5131 81.2852 82.8631 80.8602C83.2206 80.4221 83.3193 79.9043 83.1592 79.3067C83.0295 78.8224 82.7498 78.4998 82.3202 78.3388C81.8878 78.1675 81.1752 78.1044 80.1824 78.1495L79.1858 78.2012C77.9917 78.2781 77.0372 78.1363 76.3222 77.7756C75.6072 77.415 75.1282 76.7814 74.8854 75.8747C74.6425 74.968 74.7996 74.1529 75.3567 73.4294C75.9111 72.6957 76.7858 72.1687 77.981 71.8486C79.4235 71.4622 80.5882 71.4814 81.475 71.9064C82.3721 72.3287 82.9759 73.078 83.2863 74.1543L81.6481 74.5932C81.4061 73.896 81.0298 73.4392 80.519 73.2226C80.0158 72.993 79.3005 73.0024 78.3732 73.2508C77.652 73.444 77.1366 73.7256 76.8272 74.0956C76.5177 74.4657 76.4292 74.8979 76.5617 75.3925C76.6969 75.8974 76.9691 76.2331 77.3781 76.3996C77.7926 76.5867 78.4846 76.6553 79.454 76.6054L80.4661 76.5496C81.7948 76.4808 82.7999 76.6257 83.4812 76.9843C84.1728 77.3401 84.6332 77.9456 84.8623 78.8008C85.1355 79.8208 84.9696 80.7266 84.3645 81.5181C83.7696 82.3069 82.8025 82.8807 81.4631 83.2395Z" fill="#3E4501"/>
<path d="M80.9484 22.1209V22.1209C79.5835 26.8498 82.1514 31.821 86.7977 33.4448V33.4448V33.4448C82.0689 32.0799 77.0976 34.6478 75.4739 39.2941V39.2941V39.2941C76.8388 34.5653 74.2709 29.594 69.6245 27.9703V27.9703V27.9703C74.3534 29.3352 79.3246 26.7673 80.9484 22.1209V22.1209Z" fill="white"/>
<path d="M23.6225 82.3476V82.3476C28.1496 83.5132 32.7986 80.9384 34.2122 76.4825V76.4825V76.4825C33.0466 81.0096 35.6215 85.6585 40.0774 87.0722V87.0722V87.0722C35.5503 85.9066 30.9013 88.4814 29.4877 92.9373V92.9373V92.9373C30.6533 88.4102 28.0784 83.7613 23.6225 82.3476V82.3476Z" fill="white"/>
</svg>
