<svg width="82" height="86" viewBox="0 0 82 86" fill="none" xmlns="http://www.w3.org/2000/svg">
<rect x="-0.366378" y="0.313278" width="65.3165" height="65.3165" rx="32.6582" transform="matrix(-0.111609 0.993752 -0.999028 -0.0440824 77.1144 12.4898)" fill="#BDCD36" stroke="#EBFF43" stroke-width="0.659762"/>
<rect x="-0.366378" y="0.313278" width="56.5959" height="56.5959" rx="28.2979" transform="matrix(-0.111609 0.993752 -0.999028 -0.0440824 72.2866 16.498)" fill="#BDCD36" stroke="#EBFF43" stroke-width="0.659762"/>
<path d="M24.5794 40.376L24.5194 39.4461L27.6872 39.2415L27.934 43.0633L27.0961 43.1174L26.8392 42.1592C26.343 42.9505 25.5772 43.3797 24.5417 43.4465C23.4926 43.5143 22.6354 43.2173 21.9702 42.5557C21.2917 41.9017 20.9158 41.0059 20.8423 39.8682C20.7679 38.7169 21.0287 37.7766 21.6247 37.0471C22.2134 36.3114 23.0425 35.9089 24.112 35.8399C25.0045 35.7822 25.7586 35.9661 26.3744 36.3915C26.9838 36.8242 27.3715 37.4251 27.5375 38.1942L26.4134 38.2668C26.2795 37.7829 26.0092 37.4105 25.6024 37.1494C25.2024 36.8879 24.73 36.7748 24.185 36.81C23.456 36.8571 22.8935 37.1499 22.4973 37.6886C22.0938 38.2208 21.9203 38.923 21.9766 39.795C22.0329 40.667 22.2953 41.341 22.7639 41.8169C23.2397 42.2993 23.8421 42.5169 24.571 42.4698C25.2046 42.4289 25.7266 42.1968 26.1371 41.7735C26.548 41.3571 26.7441 40.845 26.7254 40.2374L24.5794 40.376ZM32.3578 42.9418C31.2815 43.0113 30.4004 42.7159 29.7147 42.0556C29.0159 41.4029 28.6297 40.5078 28.5562 39.3701C28.4832 38.2392 28.7508 37.2984 29.3591 36.5477C29.9545 35.8114 30.7905 35.4086 31.8669 35.3391C32.9296 35.2704 33.8104 35.5624 34.5093 36.2151C35.2022 36.8818 35.5852 37.7806 35.6582 38.9114C35.7313 40.0423 35.4668 40.9795 34.865 41.723C34.2563 42.4669 33.4206 42.8732 32.3578 42.9418ZM30.4874 41.3079C30.9564 41.7907 31.5587 42.0083 32.2945 41.9608C33.0302 41.9133 33.5996 41.62 34.0026 41.0809C34.4065 40.5554 34.5803 39.8567 34.524 38.9847C34.4676 38.1127 34.2052 37.4387 33.7367 36.9627C33.2613 36.4872 32.6591 36.273 31.9302 36.3201C31.2013 36.3671 30.6317 36.657 30.2214 37.1897C29.812 37.7361 29.6351 38.4385 29.6905 39.2968C29.7464 40.162 30.012 40.8324 30.4874 41.3079ZM37.4751 35.1411L37.8816 41.4358L41.448 41.2055L41.5113 42.1865L36.8516 42.4874L36.3817 35.2117L37.4751 35.1411ZM41.8603 34.8579L44.4559 34.6903C45.5799 34.6177 46.4864 34.8841 47.1754 35.4895C47.8508 36.0957 48.225 36.9643 48.298 38.0952C48.371 39.226 48.1117 40.1355 47.5199 40.8236C46.9145 41.5126 46.0498 41.8934 44.9257 41.966L42.3302 42.1336L41.8603 34.8579ZM43.3615 41.1024L44.8535 41.0061C45.6505 40.9546 46.2453 40.6836 46.6377 40.1931C47.037 39.7021 47.2089 39.0275 47.1535 38.1691C47.0981 37.3107 46.8408 36.6638 46.3817 36.2282C45.9294 35.7923 45.3047 35.6 44.5077 35.6515L43.0157 35.7478L43.3615 41.1024ZM54.2165 34.0599L54.2798 35.0409L50.1821 35.3055L50.3148 37.3595L54.0242 37.12L54.0862 38.0805L50.3768 38.3201L50.5253 40.6193L54.5923 40.3566L54.6557 41.3376L49.4952 41.6709L49.0254 34.3952L54.2165 34.0599ZM60.1298 35.8945L59.9873 33.6873L61.0398 33.6193L61.5096 40.895L60.2527 40.9762L57.7872 37.5952C57.0672 36.6156 56.5433 35.8661 56.2157 35.3469C56.2953 36.1558 56.3876 37.3744 56.4928 39.0025L56.6353 41.2098L55.5726 41.2784L55.1027 34.0027L56.3596 33.9215L58.8354 37.3018C59.5037 38.2232 60.0278 38.9761 60.4076 39.5604C60.3275 38.7446 60.2349 37.5227 60.1298 35.8945ZM30.1085 50.648L32.704 50.4804C33.8281 50.4078 34.7346 50.6742 35.4236 51.2796C36.0989 51.8859 36.4731 52.7545 36.5462 53.8853C36.6192 55.0162 36.3598 55.9257 35.7681 56.6138C35.1627 57.3028 34.2979 57.6836 33.1739 57.7562L30.5783 57.9238L30.1085 50.648ZM31.6097 56.8926L33.1016 56.7963C33.8987 56.7448 34.4934 56.4738 34.8859 55.9833C35.2852 55.4923 35.4571 54.8176 35.4017 53.9592C35.3462 53.1009 35.089 52.4539 34.6299 52.0184C34.1776 51.5824 33.5529 51.3902 32.7558 51.4416L31.2639 51.538L31.6097 56.8926ZM43.6328 57.0807L42.4781 57.1553L41.6407 55.311L38.3707 55.5222L37.7877 57.4582L36.6534 57.5314L39.0244 50.0723L40.2813 49.9911L43.6328 57.0807ZM38.7843 54.141L38.6568 54.5494L41.2217 54.3838L41.0427 53.9951C40.6235 53.1192 40.1812 52.149 39.7157 51.0845C39.3266 52.3684 39.0161 53.3872 38.7843 54.141ZM46.5052 51.1181L47.347 49.5348L48.5631 49.4563L46.0865 54.008L46.2739 56.9102L45.1907 56.9801L45.0033 54.078L41.9516 49.8832L43.188 49.8034L44.2476 51.2742C44.368 51.4442 44.5672 51.7221 44.8453 52.1078C44.9204 52.2124 45.0035 52.3336 45.0945 52.4713C45.1923 52.6087 45.2717 52.7267 45.3328 52.8254C45.4003 52.9168 45.4567 52.9952 45.5019 53.0607C45.8102 52.432 46.1447 51.7844 46.5052 51.1181ZM51.8382 56.715C50.8777 56.777 50.1142 56.6074 49.5479 56.2062C48.9883 55.8045 48.6781 55.1849 48.6172 54.3474L49.7106 54.2768C49.8014 55.3655 50.4974 55.8678 51.7986 55.7838C52.3368 55.749 52.7423 55.6202 53.0153 55.3974C53.2946 55.1673 53.4215 54.8547 53.3959 54.4595C53.3753 54.1393 53.2402 53.9018 52.9908 53.7469C52.7409 53.5852 52.3016 53.4562 51.6729 53.36L51.0409 53.2674C50.2819 53.1659 49.7006 52.9572 49.2971 52.6412C48.8936 52.3252 48.6725 51.8674 48.6338 51.2679C48.5951 50.6685 48.7959 50.1766 49.2363 49.7925C49.6762 49.4015 50.2913 49.1805 51.0816 49.1294C52.0353 49.0678 52.7638 49.226 53.2671 49.604C53.7772 49.9815 54.0621 50.5275 54.1219 51.2419L53.0388 51.3118C52.9743 50.844 52.7954 50.5101 52.502 50.3101C52.215 50.1029 51.765 50.0191 51.1518 50.0587C50.675 50.0895 50.3162 50.2016 50.0756 50.395C49.835 50.5884 49.7252 50.8486 49.7463 51.1756C49.7679 51.5094 49.8966 51.7542 50.1324 51.91C50.3691 52.0794 50.7947 52.2093 51.4094 52.2995L52.0516 52.3915C52.8941 52.5149 53.5067 52.7319 53.8893 53.0424C54.2788 53.3524 54.4917 53.7902 54.5282 54.3556C54.5718 55.0301 54.3541 55.5777 53.875 55.9986C53.4028 56.419 52.7238 56.6578 51.8382 56.715Z" fill="#3E4501"/>
<path d="M56.9622 20.8412C55.6378 23.3962 56.5405 26.5408 59.0186 28.0043C56.4636 26.6798 53.3189 27.5826 51.8555 30.0606C53.18 27.5056 52.2772 24.3609 49.7992 22.8975C52.3542 24.222 55.4988 23.3192 56.9622 20.8412Z" fill="white"/>
<path d="M17.1917 48.8054C19.6539 49.9924 22.6145 49.0488 23.9356 46.6559C22.7486 49.118 23.6923 52.0787 26.0852 53.3998C23.623 52.2127 20.6624 53.1564 19.3413 55.5493C20.5283 53.0871 19.5846 50.1265 17.1917 48.8054Z" fill="white"/>
</svg>
