<svg width="159" height="141" viewBox="0 0 159 141" fill="none" xmlns="http://www.w3.org/2000/svg">
<path fill-rule="evenodd" clip-rule="evenodd" d="M88.555 47.2266C67.1067 27.0659 44.599 14.2207 32.6008 16.5543C20.6027 18.8879 22.5949 35.723 35.76 57.4946C11.6503 65.946 -0.680971 77.6633 7.07192 87.0555C14.8248 96.4476 40.4124 100.79 69.8738 98.8218C91.3222 118.983 113.83 131.828 125.828 129.494C137.827 127.161 135.834 110.325 122.668 88.5528C146.776 80.1015 159.105 68.3849 151.353 58.9932C143.6 49.6015 118.015 45.2593 88.555 47.2266Z" fill="#9DDAF0"/>
<path d="M57.3912 53.8357L61.3731 48.6178L64.7785 49.7247L60.7577 62.0951L58.5164 61.3667L59.7418 57.5964C60.4948 55.2799 61.1824 53.243 61.8048 51.4859C61.2676 52.2718 60.6461 53.1199 59.9404 54.0303L55.1458 60.2711L53.2173 59.6443L52.9907 51.7715C52.9685 50.3427 52.9665 49.3048 52.9847 48.6576C52.4588 50.4332 51.8213 52.4735 51.0721 54.7785L49.8466 58.5487L47.588 57.8146L51.6088 45.4441L55.0141 46.551L55.1972 53.2571C55.2045 53.7076 55.1944 54.9402 55.1672 56.9548C55.9557 55.7895 56.697 54.7499 57.3912 53.8357ZM70.6118 65.298L68.4226 64.5865C68.3786 64.3673 68.4161 63.976 68.5351 63.4128C67.6505 64.0858 66.5479 64.2076 65.2275 63.7785C64.2429 63.4585 63.5325 62.965 63.0961 62.2981C62.6713 61.635 62.5963 60.8806 62.8712 60.0351C63.402 58.4019 64.8518 57.8422 67.2205 58.356L68.6152 58.6748C69.0857 58.7637 69.4439 58.7649 69.6898 58.6783C69.9394 58.5802 70.115 58.3747 70.2167 58.062C70.3409 57.6797 70.3039 57.3603 70.1055 57.1038C69.9225 56.8394 69.5356 56.6112 68.9449 56.4192C68.3079 56.2121 67.8146 56.1735 67.465 56.3032C67.1193 56.4213 66.8385 56.7335 66.6228 57.2396L64.4684 56.5394C65.2584 54.5422 66.9333 53.9596 69.4931 54.7917C71.9834 55.6011 72.9368 56.9035 72.3533 58.6988L70.8003 63.4767C70.5443 64.2644 70.4815 64.8715 70.6118 65.298ZM66.2569 62.3842C66.9403 62.6063 67.5565 62.6017 68.1056 62.3703C68.6584 62.1274 69.0496 61.6527 69.2793 60.9461L69.5447 60.1295C69.2759 60.2471 68.8947 60.2576 68.401 60.1612L67.1744 59.9162C66.5726 59.7974 66.1105 59.8009 65.7879 59.9266C65.4806 60.0444 65.2649 60.2945 65.1407 60.6767C65.0164 61.0589 65.046 61.4015 65.2293 61.7044C65.4279 61.9995 65.7705 62.2261 66.2569 62.3842ZM80.4827 68.5063L77.9808 67.6931L76.7299 62.6762L74.9343 63.591L74.0194 66.4056L71.865 65.7053L75.8858 53.3349L78.0402 54.0351L75.7249 61.1586L80.5819 58.6264L83.1881 59.4734L78.6989 61.7602L80.4827 68.5063ZM86.7119 59.3317L84.5575 58.6315L85.2238 56.5813L87.3782 57.2815L86.7119 59.3317ZM83.437 69.4666L81.2478 68.755L84.1617 59.7899L86.3509 60.5014L83.437 69.4666ZM93.0997 62.4645C94.0727 62.7807 94.7449 63.313 95.1164 64.0612C95.5033 64.8017 95.5292 65.6874 95.1941 66.7182L93.2628 72.6602L91.0736 71.9487L92.8864 66.3716C93.2553 65.2364 92.878 64.4863 91.7545 64.1211C91.1985 63.9404 90.6577 63.9887 90.1321 64.2661C89.6219 64.5357 89.252 65.0238 89.0223 65.7303L87.3903 70.7515L85.2011 70.04L88.1151 61.0748L90.2347 61.7638L89.8168 63.0495C90.824 62.2755 91.9183 62.0805 93.0997 62.4645ZM104.018 67.6077L104.419 66.3742L106.539 67.0631L103.721 75.7329C103.326 76.9491 102.627 77.7785 101.625 78.2213C100.635 78.6678 99.433 78.6614 98.0199 78.2021C96.7689 77.7955 95.8747 77.1975 95.3373 76.4081C94.8115 75.6225 94.6719 74.7319 94.9187 73.7363L97.0731 74.4366C96.8648 75.4318 97.3746 76.129 98.6024 76.528C99.3205 76.7615 99.9252 76.7531 100.416 76.5029C100.919 76.2565 101.285 75.78 101.515 75.0735L101.882 73.9441C100.943 74.6252 99.8834 74.7737 98.7019 74.3897C97.4857 73.9944 96.6444 73.2535 96.1779 72.167C95.7039 71.1037 95.6909 69.8828 96.1389 68.5045C96.5907 67.1145 97.3209 66.1288 98.3295 65.5474C99.3303 64.9506 100.439 64.8499 101.655 65.2452C102.917 65.6555 103.705 66.4431 104.018 67.6077ZM99.7757 72.7409C100.505 72.9781 101.152 72.9193 101.716 72.5646C102.279 72.2099 102.702 71.5982 102.984 70.7294C103.267 69.8607 103.284 69.1173 103.037 68.499C102.79 67.8808 102.301 67.453 101.571 67.2159C100.865 66.9862 100.222 67.0527 99.6434 67.4152C99.0798 67.7699 98.6569 68.3816 98.3745 69.2503C98.096 70.1075 98.0803 70.8452 98.3276 71.4634C98.5864 72.0854 99.0692 72.5112 99.7757 72.7409ZM117.203 80.4416L115.014 79.7301C114.97 79.5109 115.008 79.1196 115.127 78.5564C114.242 79.2294 113.139 79.3513 111.819 78.9221C110.834 78.6021 110.124 78.1086 109.688 77.4417C109.263 76.7786 109.188 76.0242 109.463 75.1787C109.994 73.5455 111.443 72.9858 113.812 73.4996L115.207 73.8184C115.677 73.9073 116.036 73.9085 116.281 73.8219C116.531 73.7238 116.707 73.5183 116.808 73.2056C116.932 72.8233 116.895 72.5039 116.697 72.2474C116.514 71.983 116.127 71.7548 115.536 71.5628C114.899 71.3557 114.406 71.3171 114.057 71.4468C113.711 71.5649 113.43 71.8771 113.214 72.3832L111.06 71.683C111.85 69.6858 113.525 69.1032 116.085 69.9353C118.575 70.7447 119.528 72.0471 118.945 73.8424L117.392 78.6203C117.136 79.408 117.073 80.0151 117.203 80.4416ZM112.849 77.5278C113.532 77.7499 114.148 77.7453 114.697 77.5139C115.25 77.271 115.641 76.7963 115.871 76.0897L116.136 75.2731C115.868 75.3907 115.486 75.4012 114.993 75.3048L113.766 75.0598C113.164 74.941 112.702 74.9445 112.379 75.0702C112.072 75.188 111.856 75.4381 111.732 75.8203C111.608 76.2025 111.638 76.5451 111.821 76.848C112.019 77.1431 112.362 77.3697 112.849 77.5278ZM44.3487 72.321L45.8339 67.7515L48.0231 68.4631L44.0023 80.8336L41.8826 80.1446L42.2892 78.8937C41.3128 79.652 40.2106 79.8317 38.9829 79.4326C37.7435 79.0298 36.904 78.2831 36.4645 77.1926C36.0134 76.0982 36.0175 74.8445 36.4768 73.4314C36.9436 71.9952 37.6793 70.9728 38.6838 70.3645C39.6652 69.7486 40.7814 69.6439 42.0323 70.0505C43.2369 70.442 44.0091 71.1989 44.3487 72.321ZM38.6954 74.2294C38.3943 75.156 38.3692 75.9227 38.6202 76.5293C38.8713 77.136 39.3559 77.556 40.074 77.7895C40.7922 78.0229 41.4407 77.9583 42.0195 77.5958C42.5868 77.2295 43.021 76.583 43.3222 75.6564C43.6234 74.7298 43.6522 73.9515 43.4087 73.3217C43.1652 72.6919 42.6786 72.2584 41.9489 72.0212C41.2423 71.7915 40.5958 71.8696 40.0094 72.2553C39.4346 72.6447 38.9966 73.3028 38.6954 74.2294ZM51.2334 71.9846L49.079 71.2843L49.7453 69.2342L51.8997 69.9344L51.2334 71.9846ZM47.9585 82.1194L45.7693 81.4079L48.6832 72.4428L50.8724 73.1543L47.9585 82.1194ZM57.9909 73.5663L57.2265 73.3178C56.4736 73.0731 55.9804 73.3098 55.747 74.0279L55.5381 74.6708L57.3797 75.2694L56.8376 76.9373L54.9959 76.3387L52.6241 83.6359L50.4524 82.93L52.8242 75.6328L51.4342 75.1811L51.9763 73.5131L53.3663 73.9649L53.5865 73.2873C53.8689 72.4186 54.3324 71.82 54.977 71.4917C55.6253 71.1517 56.4418 71.1418 57.4263 71.4618C57.8665 71.6048 58.2373 71.7446 58.5387 71.881L57.9909 73.5663ZM64.0482 75.535L63.2837 75.2866C62.5308 75.0419 62.0377 75.2786 61.8043 75.9967L61.5953 76.6396L63.437 77.2382L62.8949 78.9061L61.0532 78.3075L58.6814 85.6047L56.5096 84.8988L58.8814 77.6016L57.4915 77.1498L58.0336 75.4819L59.4235 75.9337L59.6438 75.2561C59.9261 74.3874 60.3896 73.7888 61.0342 73.4605C61.6826 73.1205 62.499 73.1106 63.4836 73.4306C63.9237 73.5736 64.2945 73.7133 64.5959 73.8497L64.0482 75.535ZM71.1616 84.8779L70.9922 85.3991L64.2857 83.2193C64.1183 84.0101 64.1675 84.6665 64.4333 85.1883C64.7145 85.7023 65.191 86.0685 65.8628 86.2868C66.8589 86.6106 67.6816 86.4041 68.3308 85.6675L70.4331 86.3508C69.9041 87.1905 69.1804 87.7621 68.2622 88.0656C67.3477 88.3575 66.3576 88.3302 65.292 87.9838C63.96 87.5509 63.0221 86.7722 62.4783 85.6478C61.9345 84.5234 61.8922 83.2546 62.3515 81.8415C62.8108 80.4284 63.5852 79.425 64.6746 78.8314C65.7756 78.2416 66.9863 78.1613 68.3067 78.5904C69.6619 79.0309 70.5942 79.827 71.1035 80.9786C71.6128 82.1303 71.6322 83.43 71.1616 84.8779ZM67.7359 80.2875C66.4502 79.8696 65.4716 80.3391 64.8 81.696L69.3 83.1586C69.4219 82.4683 69.3481 81.868 69.0785 81.3578C68.8089 80.8475 68.3614 80.4908 67.7359 80.2875ZM78.9234 82.118C79.1203 82.182 79.2961 82.252 79.4507 82.3278L78.7957 84.3432L78.2397 84.1625C77.4057 83.8915 76.6932 83.8968 76.1022 84.1786C75.5265 84.4525 75.105 85.0006 74.8377 85.823L73.3582 90.3751L71.169 89.6635L74.0829 80.6984L76.2026 81.3874L75.6831 82.9858C76.5576 81.9894 77.6377 81.7001 78.9234 82.118ZM87.1446 90.0728L86.9752 90.594L80.2687 88.4142C80.1013 89.2051 80.1505 89.8614 80.4163 90.3832C80.6975 90.8972 81.174 91.2634 81.8458 91.4817C82.8419 91.8055 83.6646 91.5991 84.3138 90.8624L86.4161 91.5457C85.887 92.3855 85.1634 92.9571 84.2451 93.2605C83.3306 93.5524 82.3406 93.5251 81.275 93.1788C79.9429 92.7458 79.005 91.9671 78.4612 90.8427C77.9175 89.7183 77.8752 88.4495 78.3345 87.0364C78.7938 85.6233 79.5682 84.6199 80.6576 84.0263C81.7585 83.4365 82.9692 83.3562 84.2897 83.7854C85.6449 84.2258 86.5771 85.0219 87.0865 86.1736C87.5958 87.3252 87.6152 88.625 87.1446 90.0728ZM83.7189 85.4824C82.4332 85.0645 81.4546 85.534 80.783 86.891L85.2829 88.3536C85.4049 87.6632 85.331 87.0629 85.0615 86.5527C84.7919 86.0425 84.3444 85.6857 83.7189 85.4824ZM95.0506 87.283C96.0236 87.5992 96.6958 88.1315 97.0673 88.8797C97.4542 89.6202 97.48 90.5059 97.145 91.5367L95.2137 97.4787L93.0245 96.7672L94.8372 91.1901C95.2062 90.0549 94.8289 89.3048 93.7053 88.9396C93.1494 88.7589 92.6086 88.8072 92.083 89.0846C91.5728 89.3542 91.2028 89.8423 90.9732 90.5488L89.3412 95.57L87.152 94.8585L90.0659 85.8933L92.1856 86.5823L91.7677 87.868C92.7749 87.094 93.8692 86.899 95.0506 87.283ZM100.956 99.5757C99.6355 99.1465 98.7034 98.3697 98.1596 97.2452C97.6236 96.1362 97.5872 94.8693 98.0502 93.4446C98.5171 92.0083 99.2933 90.9992 100.379 90.4172C101.453 89.8314 102.662 89.7568 104.005 90.1936C105.175 90.5738 106.029 91.1971 106.567 92.0635C107.109 92.9184 107.272 93.8935 107.057 94.989L104.868 94.2774C104.933 93.7223 104.837 93.2493 104.58 92.8584C104.323 92.4674 103.934 92.1873 103.412 92.0179C102.729 91.7957 102.11 91.8697 101.554 92.2398C101.013 92.602 100.593 93.2464 100.292 94.1731C99.9903 95.0997 99.9557 95.876 100.188 96.5021C100.423 97.1166 100.877 97.533 101.549 97.7514C102.082 97.9245 102.575 97.9247 103.028 97.7518C103.496 97.5712 103.862 97.216 104.123 96.6864L106.313 97.3979C105.847 98.4375 105.126 99.1573 104.151 99.5575C103.179 99.9461 102.114 99.9521 100.956 99.5757ZM116.328 99.5583L116.159 100.079L109.452 97.8997C109.285 98.6905 109.334 99.3468 109.6 99.8686C109.881 100.383 110.357 100.749 111.029 100.967C112.025 101.291 112.848 101.085 113.497 100.348L115.599 101.031C115.07 101.871 114.347 102.442 113.428 102.746C112.514 103.038 111.524 103.011 110.458 102.664C109.126 102.231 108.188 101.453 107.645 100.328C107.101 99.2037 107.059 97.9349 107.518 96.5218C107.977 95.1087 108.752 94.1054 109.841 93.5118C110.942 92.9219 112.153 92.8416 113.473 93.2708C114.828 93.7113 115.76 94.5073 116.27 95.659C116.779 96.8106 116.799 98.1104 116.328 99.5583ZM112.902 94.9678C111.617 94.55 110.638 95.0195 109.966 96.3764L114.466 97.839C114.588 97.1487 114.514 96.5484 114.245 96.0381C113.975 95.5279 113.528 95.1711 112.902 94.9678Z" fill="#2F3F45"/>
<path d="M46.2336 4.15173L45.7757 6.21779C44.2314 13.1849 48.3973 20.1453 55.2674 22.0762V22.0762V22.0762C48.2873 20.5914 41.3628 24.8167 39.4906 31.7029L38.9354 33.745L39.3934 31.679C40.9377 24.7118 36.7717 17.7515 29.9017 15.8206V15.8206V15.8206C36.8817 17.3053 43.8063 13.0801 45.6784 6.19381L46.2336 4.15173Z" fill="#E1C20D" stroke="#211F27" stroke-width="0.570906"/>
<path d="M116.717 118.658L116.465 119.964C115.614 124.367 118.35 128.669 122.7 129.765V129.765V129.765C118.289 128.951 114.01 131.725 112.952 136.083L112.638 137.376L112.89 136.07C113.741 131.666 111.005 127.364 106.656 126.268V126.268V126.268C111.067 127.082 115.345 124.309 116.403 119.95L116.717 118.658Z" fill="#E1C20D" stroke="#211F27" stroke-width="0.570906"/>
</svg>
