<svg width="150" height="159" viewBox="0 0 150 159" fill="none" xmlns="http://www.w3.org/2000/svg">
<rect x="20.2334" y="48.9672" width="99.1843" height="99.1843" rx="16" transform="rotate(-26.1637 20.2334 48.9672)" fill="#F6B1C6"/>
<rect x="28.6526" y="51.5236" width="85.9027" height="85.9027" rx="15.5" transform="rotate(-26.1637 28.6526 51.5236)" fill="#F6B1C6" stroke="#E290A9"/>
<path d="M52.7658 67.4489C51.127 66.8643 49.9865 66.0434 49.3443 64.9862C48.7135 63.933 48.6364 62.7206 49.1129 61.349L51.3677 62.1533C51.0726 63.0163 51.1072 63.723 51.4715 64.2734C51.847 64.8278 52.5208 65.2784 53.4928 65.6251C54.284 65.9073 54.9411 65.9761 55.4641 65.8314C55.9912 65.6754 56.3555 65.3148 56.5571 64.7497C56.7264 64.275 56.6746 63.8488 56.4016 63.4712C56.1399 63.0975 55.5743 62.6473 54.7047 62.1205L53.7601 61.5542C51.3452 60.145 50.4865 58.4627 51.1839 56.5074C51.5549 55.4675 52.2448 54.7836 53.2536 54.4555C54.2666 54.116 55.4738 54.1963 56.8753 54.6962C58.4689 55.2647 59.5517 56.0331 60.1236 57.0016C60.7067 57.974 60.8032 59.0787 60.413 60.3155L58.1921 59.5232C58.3928 58.8177 58.3425 58.2264 58.0412 57.7494C57.7513 57.2765 57.1542 56.8788 56.25 56.5563C55.5492 56.3063 54.966 56.2448 54.5003 56.3717C54.0346 56.4986 53.7171 56.7994 53.5477 57.2741C53.3744 57.7601 53.4109 58.1936 53.6572 58.5745C53.9149 58.9594 54.4522 59.3995 55.2693 59.8949L56.2479 60.4733C57.5599 61.2598 58.4259 62.0465 58.846 62.8333C59.2813 63.6129 59.3237 64.4944 58.9729 65.4777C58.5536 66.6532 57.7975 67.4154 56.7047 67.7646C55.6159 68.1024 54.303 67.9972 52.7658 67.4489ZM66.986 62.125C68.1841 62.5524 68.992 63.3056 69.4098 64.3847C69.8122 65.471 69.7654 66.7093 69.2695 68.0995C68.7776 69.4784 68.0322 70.4611 67.0331 71.0475C66.0227 71.6299 64.9184 71.7074 63.7204 71.28C62.5336 70.8567 61.7887 70.0877 61.4855 68.9731L59.895 73.4319L57.7589 72.6699L62.0647 60.5989L64.1161 61.3306L63.6686 62.5852C64.6483 61.839 65.7541 61.6856 66.986 62.125ZM62.4562 68.0198C62.6672 68.6429 63.1287 69.0814 63.8407 69.3354C64.5415 69.5854 65.186 69.5286 65.7743 69.1651C66.3473 68.8089 66.7971 68.1731 67.1236 67.2576C67.4421 66.3647 67.4862 65.616 67.256 65.0115C67.041 64.3997 66.5719 63.9648 65.8485 63.7068C65.1364 63.4528 64.4959 63.4982 63.927 63.8431C63.358 64.188 62.9123 64.8126 62.5898 65.7168C62.2632 66.6323 62.2187 67.3999 62.4562 68.0198ZM79.1146 71.6113C78.6227 72.9902 77.8207 73.9527 76.7086 74.4988C75.5965 75.0449 74.3736 75.0801 73.0399 74.6044C71.7062 74.1286 70.7816 73.3274 70.2662 72.2008C69.7354 71.0814 69.718 69.8266 70.2139 68.4364C70.7098 67.0462 71.5174 66.0857 72.6368 65.5549C73.7489 65.0088 74.9718 64.9736 76.3055 65.4494C77.6392 65.9251 78.5658 66.7207 79.0853 67.836C79.6047 68.9514 79.6145 70.2098 79.1146 71.6113ZM72.2504 71.5135C72.484 72.1446 72.9568 72.5872 73.6688 72.8412C74.3809 73.0952 75.0214 73.0497 75.5903 72.7048C76.1746 72.3527 76.626 71.7301 76.9445 70.8372C77.263 69.9444 77.3055 69.1823 77.072 68.5512C76.8538 67.9128 76.3886 67.4666 75.6766 67.2126C74.9645 66.9586 74.3184 67.002 73.7381 67.3429C73.1692 67.6878 72.7234 68.3123 72.4009 69.2165C72.0784 70.1207 72.0282 70.8864 72.2504 71.5135ZM86.1286 69.1827L85.5481 70.8103L83.8188 70.1934L82.1315 74.9235C82.0307 75.206 82.0336 75.43 82.1402 75.5955C82.2582 75.7649 82.498 75.9142 82.8596 76.0432L83.5886 76.3032L83.0081 77.9308C82.5286 77.8107 82.1475 77.7003 81.865 77.5995C80.9155 77.2608 80.2829 76.8377 79.9671 76.3301C79.6666 75.8152 79.6555 75.1678 79.9337 74.3879L81.6996 69.4375L80.3433 68.9537L80.9238 67.3261L82.2801 67.8099L83.1873 65.2669L85.3065 66.0228L84.3993 68.5659L86.1286 69.1827ZM86.395 79.1389L84.2588 78.377L88.5647 66.3059L90.7008 67.0679L86.395 79.1389ZM93.7614 70.625L91.6591 69.8751L92.3727 67.8745L94.475 68.6244L93.7614 70.625ZM90.2526 80.515L88.1164 79.753L91.237 71.0049L93.3731 71.7669L90.2526 80.515ZM100.972 75.8344L101.401 74.6306L103.47 75.3684L100.452 83.8283C100.029 85.0151 99.3174 85.8125 98.3182 86.2205C97.3304 86.6326 96.147 86.5927 94.7681 86.1008C93.5474 85.6654 92.6835 85.0514 92.1763 84.2589C91.6803 83.4705 91.5678 82.5895 91.8386 81.6159L93.9409 82.3658C93.708 83.3401 94.1906 84.041 95.3886 84.4684C96.0894 84.7183 96.6851 84.727 97.1758 84.4943C97.6778 84.2657 98.0517 83.8067 98.2977 83.1172L98.6908 82.0152C97.7474 82.6597 96.6993 82.7764 95.5464 82.3651C94.3597 81.9418 93.5518 81.1886 93.1227 80.1055C92.6856 79.045 92.707 77.8422 93.1867 76.4972C93.6705 75.1409 94.4172 74.1906 95.4268 73.6461C96.4292 73.0864 97.5237 73.0181 98.7105 73.4415C99.9425 73.8809 100.696 74.6785 100.972 75.8344ZM96.6501 80.7713C97.3621 81.0253 98.0006 80.9855 98.5655 80.6519C99.1305 80.3183 99.5641 79.7277 99.8665 78.88C100.169 78.0323 100.207 77.3005 99.9807 76.6847C99.7544 76.0689 99.2853 75.634 98.5732 75.38C97.8837 75.1341 97.2489 75.1815 96.6686 75.5224C96.1037 75.856 95.6701 76.4466 95.3677 77.2943C95.0694 78.1307 95.0333 78.8568 95.2596 79.4726C95.4971 80.0925 95.9606 80.5254 96.6501 80.7713ZM110.064 77.4915C111.014 77.8302 111.661 78.3732 112.006 79.1205C112.366 79.8606 112.367 80.7336 112.008 81.7395L109.94 87.5377L107.804 86.7757L109.745 81.3335C110.14 80.2259 109.79 79.4765 108.693 79.0855C108.151 78.8919 107.617 78.9244 107.091 79.1829C106.581 79.4342 106.203 79.9045 105.957 80.594L104.21 85.4936L102.073 84.7316L106.379 72.6606L108.515 73.4226L106.913 77.9153C107.906 77.2377 108.957 77.0964 110.064 77.4915ZM119.059 80.9294L118.479 82.5569L116.749 81.9401L115.062 86.6701C114.961 86.9527 114.964 87.1767 115.071 87.3421C115.189 87.5116 115.428 87.6608 115.79 87.7899L116.519 88.0499L115.939 89.6775C115.459 89.5574 115.078 89.4469 114.795 89.3461C113.846 89.0075 113.213 88.5843 112.898 88.0767C112.597 87.5618 112.586 86.9145 112.864 86.1346L114.63 81.1841L113.274 80.7003L113.854 79.0728L115.211 79.5566L116.118 77.0135L118.237 77.7695L117.33 80.3125L119.059 80.9294Z" fill="#4B2D36"/>
<path d="M75.7475 28.6276C78.8806 25.7334 80.2631 21.3886 79.3728 17.2105C82.2303 20.4235 86.5906 21.951 90.8257 21.2304C87.6927 24.1245 86.3102 28.4694 87.2005 32.6474C84.343 29.4345 79.9827 27.907 75.7475 28.6276Z" fill="white" stroke="#E290A9"/>
<path d="M79.5312 121.457C82.7104 118.614 84.1625 114.292 83.3395 110.1C86.145 113.359 90.4802 114.956 94.7264 114.304C91.5473 117.147 90.0951 121.469 90.9181 125.661C88.1126 122.402 83.7774 120.805 79.5312 121.457Z" fill="white" stroke="#E290A9"/>
</svg>
