<svg width="52" height="54" viewBox="0 0 52 54" fill="none" xmlns="http://www.w3.org/2000/svg">
<path d="M23.4751 1.65713C24.9233 0.399023 27.0767 0.399023 28.5249 1.65713L31.5208 4.25977C32.4518 5.0686 33.6713 5.46483 34.8999 5.35773L38.8535 5.01308C40.7646 4.84648 42.5067 6.11224 42.9389 7.9813L43.8328 11.8478C44.1106 13.0494 44.8643 14.0868 45.9212 14.7223L49.3223 16.7673C50.9663 17.7558 51.6318 19.8039 50.8827 21.57L49.3333 25.2235C48.8517 26.3589 48.8517 27.6411 49.3333 28.7765L50.8827 32.43C51.6318 34.1961 50.9663 36.2442 49.3223 37.2327L45.9212 39.2777C44.8643 39.9132 44.1106 40.9506 43.8328 42.1522L42.9389 46.0187C42.5067 47.8878 40.7646 49.1535 38.8535 48.9869L34.8999 48.6423C33.6713 48.5352 32.4518 48.9314 31.5208 49.7402L28.5249 52.3429C27.0767 53.601 24.9233 53.601 23.4751 52.3429L20.4792 49.7402C19.5482 48.9314 18.3287 48.5352 17.1001 48.6423L13.1465 48.9869C11.2354 49.1535 9.49325 47.8878 9.06113 46.0187L8.16721 42.1522C7.88941 40.9506 7.13572 39.9132 6.07878 39.2777L2.67775 37.2327C1.03369 36.2442 0.368241 34.1961 1.11726 32.43L2.66674 28.7765C3.14827 27.6411 3.14827 26.3589 2.66674 25.2235L1.11726 21.57C0.368241 19.8039 1.03369 17.7558 2.67775 16.7673L6.07878 14.7223C7.13572 14.0868 7.88941 13.0494 8.16721 11.8478L9.06113 7.9813C9.49325 6.11224 11.2354 4.84648 13.1465 5.01308L17.1001 5.35773C18.3287 5.46483 19.5482 5.0686 20.4792 4.25977L23.4751 1.65713Z" fill="#0045C0" stroke="#82C2D9" stroke-width="0.7"/>
</svg>
