<svg xmlns="http://www.w3.org/2000/svg" xmlns:xlink="http://www.w3.org/1999/xlink" width="30" height="30.198" viewBox="0 0 30 30.198">
  <defs>
    <clipPath id="clip-path">
      <rect id="Rectangle_2172" data-name="Rectangle 2172" width="30" height="30.198" fill="none"/>
    </clipPath>
  </defs>
  <g id="Group_14835" data-name="Group 14835" transform="translate(-33.45 -5.033)">
    <g id="Group_14664" data-name="Group 14664" transform="translate(33.45 5.033)">
      <g id="Group_14663" data-name="Group 14663" transform="translate(0)" clip-path="url(#clip-path)">
        <path id="Path_5466" data-name="Path 5466" d="M38.483,43.008c.292-.089.545-.163.8-.244a.906.906,0,0,1,.478-.116.386.386,0,0,1,.132.038c.26.152.527.292.788.442.243.139.486.28.735.408.176.092.359.181.524.281s.34.193.508.284c.244.132.477.287.738.4a4.921,4.921,0,0,1,.531.311,2.205,2.205,0,0,0,.308.145c.1.039.181.128.284.18.323.164.638.345.959.514.141.074.274.167.418.241a.169.169,0,0,0,.17.01c.218-.125.437-.248.647-.385.259-.169.548-.284.8-.46.329-.227.7-.383,1.027-.614.181-.127.395-.21.586-.328.226-.141.453-.283.685-.413.336-.188.663-.391,1-.575.134-.073.265-.15.4-.228a.584.584,0,0,1,.542-.02c.25.094.511.156.767.235a.8.8,0,0,1,.123.065,2.243,2.243,0,0,1-.375.209c-.3.165-.621.29-.93.439a4.256,4.256,0,0,1-.713.321,1.419,1.419,0,0,0-.268.128c-.541.284-1.109.51-1.655.782-.459.228-.921.452-1.387.666a4.738,4.738,0,0,0-.544.258,4.129,4.129,0,0,0-.674.334c-.068.06-.135.007-.2-.02-.291-.13-.582-.258-.868-.4s-.591-.283-.887-.422c-.46-.216-.927-.418-1.387-.636-.174-.082-.346-.175-.529-.241-.289-.1-.569-.235-.844-.367s-.569-.275-.855-.407c-.432-.2-.863-.4-1.3-.589-.164-.07-.33-.135-.531-.228" transform="translate(-31.084 -21.682)" fill="#f0592c"/>
        <path id="Path_5467" data-name="Path 5467" d="M39.079,50.522c.194-.106.411-.251.693-.393.387-.2.791-.356,1.188-.532.329-.145.659-.289.993-.425.2-.081.38-.2.579-.276.3-.12.592-.243.878-.386.241-.119.487-.229.733-.336.286-.125.57-.259.865-.368.239-.089.463-.226.7-.328.344-.148.686-.3,1.027-.46.231-.106.466-.2.7-.3a3.785,3.785,0,0,0,.427-.179c.148-.087.31-.139.457-.223.256-.146.548-.221.812-.349.308-.15.622-.288.931-.436.193-.093.407-.146.588-.254.253-.151.534-.236.795-.368s.541-.222.8-.353c.236-.118.487-.2.731-.305a5.1,5.1,0,0,0,.476-.25c-.249-.034-.5-.029-.746-.039-.453-.021-.907-.016-1.361-.019-1.108-.007-2.216-.014-3.325-.015a1.59,1.59,0,0,0-.758.1c-.2.1-.422.18-.63.274-.225.1-.449.213-.677.3-.432.17-.853.364-1.279.547-.329.141-.668.264-.988.431-.242.126-.514.194-.755.322-.3.161-.628.27-.935.42-.424.208-.877.353-1.3.562-.186.091-.384.164-.576.246-.293.125-.592.241-.881.373-.312.143-.633.262-.939.418a.157.157,0,0,1-.185-.027.886.886,0,0,0-.322-.165c-.277-.087-.532-.221-.8-.331-.526-.219-1.04-.466-1.56-.7-.291-.131-.586-.254-.877-.384-.4-.182-.806-.369-1.21-.55-.231-.1-.467-.2-.7-.3q-.471-.206-.94-.419c-.317-.144-.627-.3-.95-.431-.255-.1-.5-.223-.752-.327-.168-.069-.325-.178-.493-.234-.225-.076-.429-.189-.646-.276a1.366,1.366,0,0,0-.482-.136c-1-.021-2,.018-2.993-.032-.577-.029-1.155-.029-1.732-.037a.312.312,0,0,0-.21.036c.167.068.285.17.441.226.329.119.621.321.944.46s.613.317.927.459.589.314.9.447c.4.175.791.391,1.192.577.23.107.448.248.684.346.324.134.612.339.938.464s.639.326.967.47c.313.137.615.3.922.453a3.441,3.441,0,0,0,.468.231c.163.053.277.181.454.221a3.147,3.147,0,0,1,.581.283c.313.146.614.317.932.457s.636.319.958.474c.2.095.393.192.586.3.267.145.552.253.82.4s.528.268.792.4c.3.153.616.293.92.451a.628.628,0,0,0,.664.046Zm7.974-4.641c-.124.038-.228.141-.354.192-.361.145-.7.349-1.058.494a4.884,4.884,0,0,0-.477.237c-.037.02-.062.068-.095,0a.044.044,0,0,0-.036,0c-.12.185-.339.214-.513.308s-.364.183-.549.268c-.332.151-.649.34-.988.475-.365.146-.712.327-1.063.5-.469.229-.938.46-1.411.682-.309.145-.612.3-.923.441-.166.076-.331.156-.495.237-.221.109-.438.225-.66.33-.1.049-.192-.03-.274-.067-.231-.1-.46-.219-.679-.345-.275-.159-.575-.262-.846-.429s-.551-.257-.819-.4-.545-.272-.818-.407c-.359-.178-.717-.358-1.077-.535-.252-.123-.508-.235-.752-.375-.364-.207-.759-.351-1.121-.565-.293-.174-.615-.292-.917-.455s-.619-.314-.931-.466a6.366,6.366,0,0,0-.638-.3.268.268,0,0,1-.125-.1c.351.128.7.241,1.056.363.253.088.512.167.764.258a10,10,0,0,1,.939.41c.116.056.238.09.352.153a5.868,5.868,0,0,0,.677.331c.316.126.624.27.931.415.514.242,1.04.455,1.544.719.351.183.725.32,1.083.489l.915.442c.192.1.41.16.611.249a.243.243,0,0,0,.214-.026c.444-.191.892-.372,1.33-.572.4-.18.8-.346,1.195-.533.345-.164.694-.325,1.05-.464.491-.192.961-.432,1.448-.632.258-.106.508-.232.766-.338.316-.129.623-.273.935-.407s.6-.263.9-.391a4.5,4.5,0,0,1,.709-.262c.209-.051.414-.123.618-.193a.161.161,0,0,1,.153,0,3.635,3.635,0,0,1-.573.265" transform="translate(-23.455 -22.156)" fill="#f0592c"/>
        <path id="Path_5468" data-name="Path 5468" d="M53.4,9.966a8.593,8.593,0,0,0-.189-.883,10.192,10.192,0,0,0-.93-2.258c-.138-.232-.275-.465-.431-.683a8.1,8.1,0,0,0-.61-.783c-.2-.222-.4-.448-.617-.654a9.559,9.559,0,0,0-1.17-.954,5.536,5.536,0,0,0-.854-.527,9.8,9.8,0,0,0-.984-.449,8.115,8.115,0,0,0-.887-.3c-.314-.062-.62-.153-.94-.2-.423-.062-.848-.089-1.272-.127-.376-.033-.752.034-1.128.034a.791.791,0,0,0-.242.006,1.609,1.609,0,0,1-.559.1,1.272,1.272,0,0,0-.446.09c-.208.074-.425.122-.635.192a6.492,6.492,0,0,0-1,.372,6.038,6.038,0,0,0-.8.42c-.173.126-.371.23-.553.35-.217.143-.423.3-.63.458a4.391,4.391,0,0,0-.583.491,4.742,4.742,0,0,0-.643.683c-.1.155-.257.247-.345.408s-.228.314-.33.475a8.515,8.515,0,0,0-.564.948c-.143.308-.29.612-.412.929a9.889,9.889,0,0,0-.359,1.129,5.9,5.9,0,0,0-.207,1.247q-.021.579-.034,1.158a8.849,8.849,0,0,0,.039,1.313,7.594,7.594,0,0,0,.232,1.117,9.172,9.172,0,0,0,.835,2.083A8,8,0,0,0,36.8,17.18a10.1,10.1,0,0,0,1.122,1.273c.271.242.539.484.828.705a9.338,9.338,0,0,0,3.125,1.532,8.383,8.383,0,0,0,1.279.259,8.077,8.077,0,0,0,.952.071A4.65,4.65,0,0,0,44.779,21a6.178,6.178,0,0,1,.746-.083c.381-.065.757-.135,1.13-.234a8.274,8.274,0,0,0,1.106-.366,10.835,10.835,0,0,0,1.469-.769,9.109,9.109,0,0,0,1.023-.768,8.394,8.394,0,0,0,1.05-1.058c.2-.239.381-.493.564-.747.223-.309.393-.647.584-.973a7.722,7.722,0,0,0,.44-.981,7.67,7.67,0,0,0,.254-.752c.072-.243.114-.5.187-.738a4.584,4.584,0,0,0,.148-1.019c.04-.541.011-1.088.008-1.631a5.367,5.367,0,0,0-.092-.919M52,8.259a.066.066,0,0,1,.064-.009c.037.027.02.071.013.105a2.418,2.418,0,0,0-.052.636,1.615,1.615,0,0,0,.44,1c.073.077.114.182.216.239-.391.021-.774.076-1.162.091a3.141,3.141,0,0,0-.7.082.629.629,0,0,1-.141.016c-.288.013-.57.064-.854.1-.181.025-.365.036-.547.065-.246.04-.494.086-.739.106-.321.027-.631.112-.953.13-.163.009-.324.053-.487.077-.227.033-.456.063-.684.093a.07.07,0,0,1-.084-.035c.258-.1.5-.228.758-.318.19-.065.365-.171.552-.247.446-.183.873-.408,1.316-.594s.863-.409,1.294-.615c.468-.224.93-.461,1.379-.719.124-.071.288-.078.377-.212M50.724,6.292c.027.066.047.135.067.2a2.5,2.5,0,0,0,.546.914,3.715,3.715,0,0,0,.459.426.713.713,0,0,0-.265.1c-.041.023-.076.042-.111,0-.011-.013-.026-.023-.032-.013l-1.133.5c-.246.1-.483.225-.734.316-.341.123-.654.3-.987.444-.272.115-.544.244-.809.382-.353.183-.718.343-1.076.518-.219.108-.433.227-.65.339-.01,0-.027,0-.048-.009.034-.1.135-.143.2-.193.215-.16.4-.353.617-.509.235-.169.44-.374.667-.554.172-.137.338-.292.5-.444.233-.217.483-.415.717-.63.209-.192.427-.375.636-.567.138-.127.283-.254.432-.372a3.524,3.524,0,0,0,.371-.362c.162-.174.349-.324.5-.511.045-.057.1-.046.131.024m-.766-.755a.934.934,0,0,0,.472.076c.073-.011.154,0,.181.074a.172.172,0,0,1-.087.2,9.181,9.181,0,0,0-1.026.775c-.249.205-.513.4-.744.623a6.452,6.452,0,0,1-.557.471c-.258.2-.485.442-.74.645-.357.284-.667.62-1.03.9-.111.085-.2.211-.313.3-.19.137-.316.344-.539.478a59.031,59.031,0,0,0,3.548-5.373,1.447,1.447,0,0,0,.836.844M46.543,4.6a6.163,6.163,0,0,0,.12-1.141.19.19,0,0,1,.1-.183.128.128,0,0,1,.155.028,2.36,2.36,0,0,1,.171.218,1.677,1.677,0,0,0,.843.666,2.233,2.233,0,0,0,.93.1c.037,0,.07,0,.084.027s-.032.035-.047.055q-.3.379-.6.757c-.243.3-.467.617-.7.927-.122.162-.222.349-.343.514a5.616,5.616,0,0,1-.578.78c-.059.057-.062.151-.111.223-.229.329-.459.659-.681.991-.193.291-.373.594-.556.893-.059.1-.124.191-.186.286l-.029-.013.13-.391c.11-.334.207-.672.332-1,.142-.37.241-.754.35-1.134.15-.52.294-1.044.4-1.577.068-.341.157-.682.214-1.024M44.412,2.883c.054-.041.087.029.113.05a2.238,2.238,0,0,0,1.348.507c.093,0,.1.057.071.123-.084.167-.139.346-.214.517a6.563,6.563,0,0,0-.2.644c-.2.621-.339,1.257-.487,1.89-.089.377-.182.754-.239,1.137-.062.41-.17.812-.206,1.227-.014.162-.055.322-.084.483l-.036-.005c.042-.437.031-.875.047-1.314.039-1.086.012-2.172-.012-3.258-.011-.5-.051-1-.083-1.5-.008-.122-.037-.242-.056-.363a.142.142,0,0,1,.04-.144m-2.371.326a1.518,1.518,0,0,0,.82.187,1.624,1.624,0,0,0,.627-.1,2.463,2.463,0,0,0,.454-.242c.069-.041.086-.036.083.049a3.547,3.547,0,0,1-.033.512,6.508,6.508,0,0,0-.046.864c-.059,1.189-.037,2.38-.03,3.57,0,.327.006.655.027.981a2.8,2.8,0,0,1,.005.564A62.116,62.116,0,0,0,41.964,3.2c.032,0,.061-.006.077,0m-2.3.985c.016-.054.162-.018.247-.013A1.99,1.99,0,0,0,41.1,3.95a2.141,2.141,0,0,0,.446-.361c.076-.072.114-.08.137.035.127.633.288,1.257.448,1.881.092.358.2.713.291,1.072.043.172.082.354.139.514.075.209.133.425.205.634.095.274.181.55.256.83.062.231.16.452.22.683a2.973,2.973,0,0,1,.117.458,1.08,1.08,0,0,1-.081-.1c-.234-.4-.464-.8-.7-1.194-.122-.2-.233-.418-.371-.6-.279-.374-.5-.781-.767-1.163s-.513-.733-.752-1.11c-.07-.112-.214-.19-.2-.349a6.22,6.22,0,0,1-.6-.75c-.062-.071-.165-.152-.142-.229m-1.67,1.561c.012-.041.05,0,.058-.006a2.564,2.564,0,0,0,.966-.553,2.1,2.1,0,0,0,.353-.488c.041-.084.072-.071.111,0,.153.275.3.554.461.826.2.336.405.666.607,1a.228.228,0,0,1,.047.116.116.116,0,0,0,.088.129c.076.028.079.144.13.217.167.239.313.493.472.736.216.328.438.652.65.983s.44.627.631.961c.067.116.176.208.238.331l-.032.026c-.2-.207-.4-.422-.615-.62-.149-.14-.3-.28-.448-.418-.363-.334-.742-.652-1.089-1-.084-.086-.191-.147-.273-.24a3.606,3.606,0,0,0-.374-.335l-.43-.36q-.632-.534-1.27-1.061c-.078-.064-.164-.119-.244-.18-.017-.013-.041-.041-.037-.055m-.588,1.273a1.249,1.249,0,0,0,.293-.748c0-.075-.013-.184.054-.2s.127.07.166.134c.075.123.2.186.3.29.286.324.611.61.928.906.238.221.467.452.712.665s.485.444.735.658c.216.187.418.4.629.586.247.223.51.434.769.647a4.539,4.539,0,0,1,.412.391C41.542,9.847,40.6,9.37,39.645,8.9c-.973-.485-1.956-.948-2.965-1.36a1.736,1.736,0,0,0,.8-.508M36.1,9.723a2.253,2.253,0,0,0,.433-.709,2.9,2.9,0,0,0,.152-.836c0-.034-.025-.081.022-.1s.055.026.083.038a4.34,4.34,0,0,1,.552.323c.238.147.491.269.731.414.263.159.55.287.828.426.388.193.768.407,1.162.587a7.145,7.145,0,0,0,.717.341c.121.039.224.145.351.187.287.094.531.281.817.373.064.021.093.095.173.09-.14.044-.255-.033-.381-.055a3.048,3.048,0,0,0-.324-.084,7.124,7.124,0,0,1-.7-.141c-.148-.024-.295-.058-.44-.1-.221-.059-.449-.084-.668-.151a2.283,2.283,0,0,0-.389-.057c-.289-.038-.575-.1-.861-.147-.356-.062-.716-.108-1.073-.145a6.444,6.444,0,0,0-1.123-.075c-.053,0-.129.029-.155-.031-.033-.077.05-.105.094-.153m.026,1.113c-.009-.064-.025-.133.025-.17s.1-.01.162.008a5.7,5.7,0,0,0,.841.215,2.9,2.9,0,0,1,.681.151.184.184,0,0,0,.07.009c.342,0,.671.1,1.01.13.279.027.558.079.838.113.371.045.743.077,1.114.119.2.024.411.013.607.053a4.918,4.918,0,0,0,.719.053.069.069,0,0,1-.079.051,3.01,3.01,0,0,0-.764.073c-.359.051-.722.066-1.079.145a3.181,3.181,0,0,1-.561.074,4.94,4.94,0,0,0-.534.069c-.222.032-.445.055-.663.1-.271.057-.546.1-.818.148-.236.04-.47.079-.7.133-.213.048-.434.061-.645.123-.186.054-.374.1-.553.15a2.129,2.129,0,0,0,.334-1.749M36.3,13a3.234,3.234,0,0,0,.585-.027,2.831,2.831,0,0,1,.4-.034c.241-.023.481-.057.719-.094a.884.884,0,0,1,.14-.018,6.764,6.764,0,0,0,.753-.1c.236-.024.47-.057.7-.095.389-.064.78-.12,1.168-.193.192-.034.39-.057.585-.084a6.539,6.539,0,0,0,.673-.133.407.407,0,0,1,.235,0c-.162.067-.326.131-.486.2-.231.1-.457.214-.69.308a2.375,2.375,0,0,1-.384.155c-.082.017-.138.092-.224.126-.3.123-.6.276-.893.419-.254.121-.508.242-.761.365s-.493.242-.739.366c-.338.171-.671.354-1.014.513-.127.059-.226.158-.358.208-.069.026-.092.016-.1-.05a2.238,2.238,0,0,1-.032-.282,2.746,2.746,0,0,0-.417-1.316c-.1-.177-.07-.228.141-.237m1.422,3.768a1.128,1.128,0,0,0-.284-.693,1.208,1.208,0,0,0-.327-.335,1.942,1.942,0,0,0-.462-.219c-.127-.031-.121-.072-.031-.15a.581.581,0,0,1,.224-.108c.3-.091.572-.234.867-.333.182-.061.36-.163.542-.243q.667-.3,1.333-.6.32-.146.636-.3c.261-.126.52-.256.78-.384l.857-.426.611-.3.026.03a56.935,56.935,0,0,0-4.731,4.158.3.3,0,0,1-.041-.093M39.6,18.559c-.012.027-.017.069-.064.061s-.031-.041-.041-.066a1.975,1.975,0,0,0-1-1.013,2.089,2.089,0,0,0-.65-.193,62.36,62.36,0,0,0,5.051-4.218c-.226.3-.411.621-.619.925-.256.375-.505.757-.74,1.145-.266.439-.567.858-.81,1.306-.227.419-.494.814-.7,1.243a2.68,2.68,0,0,1-.251.431,1.961,1.961,0,0,0-.173.378m2.251.57a1.969,1.969,0,0,0-.056.376c-.006.052-.012.118-.051.14-.057.031-.089-.042-.119-.075a1.8,1.8,0,0,0-1.088-.56,2.227,2.227,0,0,0-.655-.037c-.051,0-.06-.026-.025-.085.051-.087.149-.127.2-.221a4.207,4.207,0,0,1,.3-.429c.326-.432.6-.9.921-1.333.148-.2.252-.431.4-.635.171-.243.3-.516.477-.752a8.308,8.308,0,0,0,.482-.771c.259-.439.546-.864.769-1.324,0-.01.023-.013.046-.026-.06.205-.109.4-.175.594-.1.294-.2.588-.283.889-.091.335-.2.666-.3,1s-.181.64-.272.96c-.075.264-.142.53-.216.793-.049.174-.091.354-.136.531-.081.32-.122.649-.224.966m2.116.914c-.04.024-.078,0-.116-.026a1.806,1.806,0,0,0-1.2-.248c-.123.009-.2.121-.325.143a.383.383,0,0,0-.173.074.1.1,0,0,1-.121-.005c-.034-.033,0-.073.01-.106.087-.238.185-.471.263-.711.117-.359.251-.712.35-1.077.074-.272.19-.532.256-.805.1-.391.231-.77.332-1.16s.207-.807.328-1.205c.136-.448.243-.9.353-1.358,0-.011.02-.018.05-.042-.032.267-.026.516-.036.765q-.028.614-.027,1.229c0,1.13,0,2.262.01,3.393,0,.336.047.671.072,1.008,0,.046.022.1-.029.131m.172-7.317a1.091,1.091,0,0,1-.411-.147,1.021,1.021,0,0,1-.447-.442,1.134,1.134,0,0,1-.123-.773,1.156,1.156,0,0,1,.29-.587,1.2,1.2,0,0,1,.7-.351,1.062,1.062,0,0,1,.759.184,1.189,1.189,0,0,1,.432.558.973.973,0,0,1,.068.414,1.1,1.1,0,0,1-.31.79c-.025.028-.046.1-.111.035-.01-.011-.035.019-.031.034.037.108-.066.12-.114.143a1.4,1.4,0,0,1-.7.141m2.372,7.3c-.018.029-.052.022-.073,0a1.064,1.064,0,0,0-.531-.242,1.421,1.421,0,0,0-.678.007,3.177,3.177,0,0,0-.82.4c-.042.02-.02.074-.1.085.039-.263.05-.518.072-.77.028-.313.042-.626.054-.94.016-.395.042-.789.045-1.183.007-1.055,0-2.11.007-3.165a4.173,4.173,0,0,0-.023-.457c0-.029-.018-.074.036-.073.038,0,.034.036.042.063.1.34.2.678.291,1.019.129.466.27.927.417,1.388.19.6.386,1.188.593,1.779.112.318.229.635.339.954a5.894,5.894,0,0,0,.392.878c.07.13-.017.184-.067.263M48.474,18.8a2.2,2.2,0,0,0-.439.13,3.01,3.01,0,0,0-.845.465c-.02.014-.046.037-.061.016-.046-.063-.058-.058-.045.017a.085.085,0,0,1-.062.1c-.048,0-.054-.058-.062-.1-.035-.189-.057-.385-.109-.567-.092-.322-.165-.65-.26-.971s-.178-.672-.274-1.007c-.054-.188-.128-.371-.187-.558s-.1-.362-.158-.54c-.095-.291-.2-.58-.295-.87-.144-.422-.29-.842-.43-1.266-.025-.074-.107-.139-.053-.246,1.223,1.82,2.45,3.624,3.854,5.322a3.859,3.859,0,0,1-.573.08m.835-.329c-1.067-1.828-2.315-3.5-3.562-5.214a.729.729,0,0,1,.306.2c.275.236.542.484.814.724q.454.4.914.794c.175.149.361.286.533.437s.322.288.486.425.319.248.476.375c.377.3.756.6,1.156.875.05.034.094.089.158.129a1.713,1.713,0,0,0-1.281,1.253M52,15.384c-.06,0-.081.115-.16.055-.019-.015-.048-.04-.057-.014-.053.168-.227.18-.342.264a1.26,1.26,0,0,0-.541,1.02.533.533,0,0,1-.012.2c-.018.042.059.1-.013.123-.051.016-.07-.057-.1-.086-.221-.242-.468-.458-.692-.7a4.654,4.654,0,0,0-.424-.376c-.207-.171-.406-.35-.6-.537s-.407-.323-.593-.5-.419-.352-.618-.543c-.12-.115-.266-.212-.4-.32-.261-.215-.508-.448-.776-.652a6.506,6.506,0,0,1-.539-.452c-.03-.028-.082-.018-.1-.069.105-.067.18.018.248.052.242.12.494.22.729.35.329.183.682.312,1.019.473.406.2.829.364,1.247.539.4.167.8.337,1.205.49a9.81,9.81,0,0,0,1.238.426c.088.02.15.1.243.118.051.013.026.091.032.14M52.422,13c-.053.122-.116.239-.172.359a2.728,2.728,0,0,0-.255,1.121c0,.122-.066.144-.18.084-.465-.242-.929-.486-1.4-.71-.383-.18-.767-.362-1.155-.531-.253-.111-.5-.241-.76-.336-.239-.086-.477-.188-.711-.294-.332-.151-.675-.276-1.01-.419a1.831,1.831,0,0,0-.42-.164.724.724,0,0,1,.457.053,3.091,3.091,0,0,0,.422.076c.165.027.331.063.5.085.229.029.46.069.687.117.192.042.387.065.579.093.159.023.311.073.465.093.1.013.208.015.313.021.426.026.845.106,1.271.135.444.031.89.056,1.333.1.114.011.06.075.041.118m-.044-.709c-.25-.054-.5-.092-.752-.155a2.254,2.254,0,0,1-.641-.146c-.027-.016-.056-.026-.073.006a.066.066,0,0,1-.087.027,8.486,8.486,0,0,0-1.008-.152,2.314,2.314,0,0,0-.534-.067,4.926,4.926,0,0,1-.851-.073c-.675-.07-1.354-.085-2.03-.177.687-.08,1.374-.188,2.062-.25.669-.061,1.327-.181,1.99-.273a16.943,16.943,0,0,0,2.052-.377,1.494,1.494,0,0,0,.273,1.707c-.153.042-.277-.042-.4-.069" transform="translate(-29.337 -1.086)" fill="#f0592c"/>
        <path id="Path_5469" data-name="Path 5469" d="M53.443,9.9a8.612,8.612,0,0,0-.4-2.479,10.234,10.234,0,0,0-.927-2.172,9.7,9.7,0,0,0-.946-1.393c-.132-.156-.256-.32-.4-.469-.215-.229-.444-.444-.659-.672-.192-.2-.426-.354-.629-.544-.1-.094-.236-.148-.342-.238-.3-.256-.657-.429-.978-.654a3.663,3.663,0,0,0-.741-.352c-.074-.03-.118-.114-.187-.113a.943.943,0,0,1-.409-.136A9.289,9.289,0,0,0,45.442.241a6.392,6.392,0,0,0-.963-.166A2.786,2.786,0,0,1,43.887,0H42.454a.973.973,0,0,1-.319.056c-.245-.017-.477.092-.722.063a.05.05,0,0,0-.028,0A2.429,2.429,0,0,1,40.8.276c-.306.071-.605.164-.9.257a6.9,6.9,0,0,0-.947.375c-.119.058-.237.122-.357.171-.288.119-.538.3-.81.446a4.037,4.037,0,0,0-.48.329c-.093.068-.192.125-.283.193-.126.092-.238.2-.358.3a6.422,6.422,0,0,0-.528.467c-.23.24-.467.473-.692.72-.143.157-.275.326-.41.487a4.287,4.287,0,0,0-.3.426,10,10,0,0,0-.71,1.18,10.261,10.261,0,0,0-.436.966c-.133.391-.267.781-.379,1.181a8.037,8.037,0,0,0-.274,1.841c-.025.606-.038,1.211-.028,1.817a3.174,3.174,0,0,0,.039.512,9.965,9.965,0,0,0,.356,1.586c.069.2.123.4.19.592a11.923,11.923,0,0,0,.907,1.91c.151.272.363.511.538.77a8.7,8.7,0,0,0,1,1.182,7.23,7.23,0,0,0,.823.73c.322.243.641.491.985.7a9.305,9.305,0,0,0,1.378.735c.182.072.358.159.54.225s.354.116.533.168c.239.068.477.142.72.191s.481.107.729.134a6.223,6.223,0,0,0,.745.091,14.779,14.779,0,0,0,1.99-.044,9.229,9.229,0,0,0,1.123-.192,8.227,8.227,0,0,0,1.379-.437c.23-.109.479-.181.708-.3a9.888,9.888,0,0,0,1.268-.73,2.525,2.525,0,0,0,.32-.227c.093-.09.217-.12.313-.217.268-.27.591-.482.856-.763a4.965,4.965,0,0,0,.509-.515,8.758,8.758,0,0,0,.549-.692c.123-.224.3-.413.435-.634.119-.2.262-.378.367-.581.158-.3.285-.626.439-.933a4.059,4.059,0,0,1,.236-.535c.045-.066.033-.179.067-.27a5.761,5.761,0,0,0,.176-.564c.064-.25.115-.5.173-.756a6.81,6.81,0,0,0,.17-1.363c.013-.438-.015-.877-.018-1.315m-.33,1.444a6.19,6.19,0,0,1-.178,1.25c-.048.2-.079.4-.135.591a10.047,10.047,0,0,1-.5,1.424c-.148.319-.307.634-.475.943a3.04,3.04,0,0,1-.271.418c-.1.131-.171.293-.268.433a6.211,6.211,0,0,1-.635.791c-.14.145-.255.316-.4.456-.212.207-.44.4-.662.595a8.4,8.4,0,0,1-1.049.8,9.627,9.627,0,0,1-1.516.817,10.992,10.992,0,0,1-1.068.376c-.4.12-.813.2-1.224.279a11.56,11.56,0,0,1-2.388.1,5.825,5.825,0,0,1-.682-.1,8.288,8.288,0,0,1-1.058-.223c-.315-.085-.621-.185-.926-.3a6.2,6.2,0,0,1-.689-.3,9.732,9.732,0,0,1-.868-.45c-.232-.153-.48-.288-.7-.461s-.447-.335-.659-.52c-.3-.257-.577-.531-.847-.812a7.059,7.059,0,0,1-.707-.846c-.115-.164-.24-.321-.343-.493a11.932,11.932,0,0,1-.73-1.314,5.467,5.467,0,0,1-.281-.711c-.053-.189-.139-.368-.2-.557a7.919,7.919,0,0,1-.281-1.1c-.036-.221-.083-.44-.108-.664-.042-.367-.018-.733-.024-1.1a8.9,8.9,0,0,1,.027-1,9.563,9.563,0,0,1,.128-1.214c.065-.286.122-.577.2-.857a3.467,3.467,0,0,1,.166-.538c.2-.407.317-.846.537-1.242a7.307,7.307,0,0,1,.4-.674c.064-.091.1-.2.17-.3a11.466,11.466,0,0,1,.833-1.075c.1-.108.185-.236.292-.338.182-.173.356-.353.546-.519a11.379,11.379,0,0,1,.981-.8,10.023,10.023,0,0,1,1.158-.694c.258-.132.526-.241.789-.359a2.6,2.6,0,0,1,.625-.22c.194-.033.377-.132.57-.183Q41,.579,41.334.512c.372-.076.749-.106,1.124-.156A6.031,6.031,0,0,1,43.217.35,4.671,4.671,0,0,1,44.4.412a7.472,7.472,0,0,1,1.065.2c.3.078.592.177.891.256a3.973,3.973,0,0,1,.583.221c.249.11.5.221.739.345a9.573,9.573,0,0,1,1.207.736c.322.231.614.5.917.752a7.382,7.382,0,0,1,.7.68c.224.244.433.508.635.775a9.726,9.726,0,0,1,.952,1.541,7.388,7.388,0,0,1,.4.911c.1.305.222.606.309.916.079.28.117.572.184.856A6.576,6.576,0,0,1,53.1,9.781c.026.52.032,1.04.014,1.559" transform="translate(-28.252)" fill="#f0592c"/>
      </g>
    </g>
  </g>
</svg>
