<svg width="209" height="209" viewBox="0 0 209 209" fill="none" xmlns="http://www.w3.org/2000/svg">
<rect x="24.2998" y="76.8315" width="119.131" height="119.131" rx="16" transform="rotate(-26.1637 24.2998 76.8315)" fill="#FDD900"/>
<rect x="34.2776" y="79.8562" width="103.379" height="103.379" rx="15.5" transform="rotate(-26.1637 34.2776 79.8562)" fill="#FDD900" stroke="#E4C612"/>
<path d="M121.554 115.622C114.58 126.069 106.285 134.174 98.5328 138.844C90.7432 143.536 83.6716 144.669 78.9863 141.541C74.3011 138.413 72.6356 131.448 73.9818 122.455C75.3216 113.504 79.6271 102.735 86.6009 92.2886C93.5748 81.8419 101.869 73.7361 109.622 69.0664C117.412 64.3745 124.483 63.2417 129.168 66.3694C133.854 69.4971 135.519 76.4625 134.173 85.4559C132.833 94.4065 128.528 105.175 121.554 115.622Z" stroke="#E4C612"/>
<path d="M81.1957 92.8015C79.7284 93.6548 78.0718 93.8174 76.2258 93.2893C74.3799 92.7611 73.0599 91.7469 72.266 90.2467C71.4753 88.7349 71.3556 87.0156 71.9068 85.0889C72.4581 83.1622 73.469 81.7665 74.9396 80.9016C76.4069 80.0483 78.0635 79.8857 79.9095 80.4138C81.7554 80.942 83.0754 81.9562 83.8693 83.4564C84.655 84.9418 84.769 86.6594 84.2112 88.6092C83.6533 90.559 82.6482 91.9564 81.1957 92.8015ZM74.3469 85.7871C73.9607 87.1369 73.9958 88.3015 74.452 89.2807C74.9082 90.26 75.6959 90.9097 76.815 91.2299C77.9456 91.5534 78.9635 91.4202 79.8687 90.8304C80.759 90.2489 81.3989 89.2774 81.7884 87.9161C82.1779 86.5547 82.1486 85.3918 81.7006 84.4273C81.2444 83.4481 80.4509 82.7967 79.3203 82.4732C78.2012 82.153 77.1891 82.2878 76.2839 82.8776C75.3788 83.4674 74.7331 84.4372 74.3469 85.7871ZM91.3374 87.4278C92.3065 87.7051 92.9871 88.2056 93.3792 88.9293C93.786 89.6449 93.8426 90.516 93.5488 91.5428L91.8555 97.4614L89.675 96.8375L91.2643 91.2824C91.5878 90.1518 91.19 89.4264 90.0709 89.1062C89.5171 88.9477 88.9863 89.0143 88.4786 89.3059C87.9856 89.5892 87.6385 90.0828 87.4371 90.7865L86.0062 95.7879L83.8257 95.164L86.3805 86.2343L88.4918 86.8383L88.1254 88.119C89.09 87.3215 90.1606 87.0911 91.3374 87.4278ZM104.808 95.1197L106.767 92.0668L109.103 92.7352L103.606 100.823L101.322 100.17L101.247 96.1791C101.249 94.5571 101.249 93.5962 101.248 93.2962C101.177 93.4132 100.675 94.2306 99.7412 95.7483L97.584 99.1003L95.2996 98.4467L94.9125 88.6753L97.2487 89.3437L97.2969 92.9709C97.3229 93.8395 97.3217 94.9563 97.2932 96.3211C97.9826 95.1329 98.5624 94.1754 99.0324 93.4487L100.969 90.4082L103.046 91.0023L103.082 94.6072C103.096 95.4726 103.082 96.5918 103.039 97.9649C103.665 96.9085 104.255 95.9601 104.808 95.1197ZM115.076 104.105L112.896 103.481C112.845 103.267 112.868 102.88 112.965 102.321C112.118 103.015 111.037 103.174 109.721 102.797C108.741 102.517 108.024 102.056 107.571 101.415C107.129 100.776 107.029 100.036 107.27 99.1941C107.735 97.5674 109.143 96.9654 111.494 97.3882L112.878 97.6533C113.344 97.7243 113.697 97.7129 113.936 97.6191C114.179 97.5137 114.344 97.3052 114.433 96.9937C114.542 96.613 114.495 96.2998 114.29 96.0541C114.101 95.8002 113.712 95.5891 113.124 95.4207C112.489 95.2392 112.002 95.2184 111.662 95.3584C111.326 95.4868 111.061 95.8041 110.866 96.31L108.72 95.6961C109.428 93.7019 111.057 93.0695 113.606 93.7989C116.087 94.5086 117.071 95.7576 116.56 97.5458L115.198 102.305C114.974 103.089 114.933 103.689 115.076 104.105ZM110.686 101.388C111.367 101.583 111.973 101.557 112.506 101.31C113.042 101.051 113.41 100.57 113.612 99.8664L113.844 99.0531C113.584 99.1783 113.209 99.202 112.719 99.1244L111.503 98.9261C110.906 98.8303 110.451 98.8499 110.138 98.985C109.84 99.1118 109.636 99.3656 109.527 99.7463C109.418 100.127 109.459 100.463 109.65 100.755C109.856 101.039 110.201 101.25 110.686 101.388ZM123.746 96.7748C123.942 96.8309 124.118 96.8936 124.273 96.9629L123.698 98.9704L123.144 98.8119C122.314 98.5743 121.612 98.6045 121.04 98.9027C120.483 99.1926 120.087 99.7471 119.853 100.566L118.556 105.1L116.375 104.476L118.93 95.5467L121.041 96.1508L120.586 97.7429C121.412 96.7311 122.465 96.4084 123.746 96.7748ZM131.051 100.269L132.353 95.7175L134.533 96.3413L131.008 108.663L128.897 108.059L129.253 106.813C128.319 107.594 127.24 107.809 126.017 107.46C124.782 107.106 123.929 106.401 123.458 105.342C122.976 104.28 122.936 103.046 123.339 101.638C123.748 100.208 124.436 99.1753 125.404 98.5411C126.349 97.9002 127.444 97.758 128.69 98.1145C129.89 98.4578 130.677 99.1759 131.051 100.269ZM125.551 102.346C125.287 103.269 125.289 104.025 125.558 104.614C125.826 105.202 126.318 105.599 127.034 105.803C127.749 106.008 128.385 105.922 128.942 105.544C129.488 105.164 129.893 104.512 130.157 103.589C130.421 102.666 130.422 101.899 130.16 101.287C129.898 100.676 129.404 100.266 128.677 100.058C127.974 99.8565 127.34 99.956 126.776 100.356C126.224 100.76 125.815 101.423 125.551 102.346ZM136.212 110.414C133.605 109.668 132.537 108.252 133.009 106.165L135.138 106.774C135.037 107.344 135.104 107.788 135.338 108.104C135.583 108.424 136.035 108.678 136.692 108.866C137.869 109.203 138.56 109.014 138.764 108.298C138.857 107.975 138.801 107.691 138.597 107.445C138.392 107.2 137.978 106.925 137.353 106.621L136.382 106.156C134.524 105.275 133.807 104.097 134.229 102.62C134.47 101.778 134.982 101.212 135.763 100.924C136.548 100.625 137.528 100.643 138.705 100.98C141.255 101.709 142.281 103.095 141.784 105.137L139.725 104.548C139.854 104.011 139.794 103.588 139.545 103.279C139.3 102.96 138.871 102.712 138.26 102.537C137.221 102.24 136.603 102.438 136.405 103.13C136.319 103.43 136.367 103.699 136.548 103.939C136.733 104.166 137.077 104.402 137.581 104.646L138.657 105.141C139.685 105.647 140.381 106.183 140.743 106.749C141.117 107.318 141.195 107.983 140.977 108.744C140.72 109.644 140.175 110.237 139.345 110.524C138.514 110.81 137.47 110.774 136.212 110.414ZM66.8459 109.378L68.4148 112.598L65.6805 111.815L65.0727 110.537C63.7753 111.102 62.4228 111.183 61.0153 110.78C59.7116 110.407 58.7821 109.773 58.227 108.878C57.657 107.991 57.5221 107.022 57.8225 105.972C58.047 105.188 58.4535 104.574 59.0421 104.131C59.6423 103.691 60.4698 103.372 61.5248 103.175C61.1987 102.482 60.9912 101.899 60.9024 101.424C60.8251 100.953 60.8508 100.492 60.9795 100.042C61.2205 99.1998 61.7333 98.5852 62.5181 98.1981C63.2913 97.8077 64.2144 97.766 65.2873 98.073C66.3026 98.3635 67.0532 98.8591 67.5392 99.5598C68.0368 100.264 68.1618 101.048 67.9142 101.914C67.5412 103.217 66.3813 104.065 64.4345 104.457L65.8971 107.459C66.3292 106.908 66.6558 106.29 66.8769 105.605L68.8844 106.179C68.4751 107.435 67.7956 108.501 66.8459 109.378ZM64.8565 99.8407C64.4757 99.7317 64.1255 99.7563 63.8056 99.9145C63.4891 100.061 63.2797 100.313 63.1773 100.671C63.0321 101.178 63.2008 101.919 63.6834 102.894L63.7081 102.938C64.9379 102.654 65.6551 102.154 65.8597 101.438C65.9587 101.092 65.9144 100.767 65.7266 100.464C65.5388 100.161 65.2487 99.9529 64.8565 99.8407ZM61.7403 108.966C62.5826 109.206 63.4158 109.152 64.2401 108.801L62.271 104.755C61.1088 105.022 60.4039 105.588 60.1564 106.453C60.0045 106.984 60.0719 107.49 60.3586 107.971C60.6452 108.453 61.1058 108.784 61.7403 108.966ZM78.0694 115.641C76.4657 115.182 75.3246 114.393 74.6458 113.276C73.982 112.15 73.8712 110.814 74.3135 109.268L76.5118 101.584L78.8481 102.252L76.6448 109.953C76.3774 110.888 76.4167 111.667 76.7626 112.29C77.1086 112.913 77.7373 113.355 78.6487 113.616C79.5601 113.877 80.3274 113.834 80.9506 113.488C81.5738 113.142 82.0191 112.502 82.2864 111.567L84.4897 103.866L86.826 104.535L84.6277 112.218C84.1788 113.788 83.3765 114.869 82.2208 115.462C81.0684 116.043 79.6846 116.103 78.0694 115.641ZM92.5843 109.627C93.8072 109.977 94.6616 110.677 95.1475 111.727C95.6185 112.786 95.6511 114.024 95.2451 115.443C94.8424 116.851 94.1612 117.879 93.2017 118.528C92.2306 119.174 91.1336 119.322 89.9106 118.972C88.6992 118.626 87.9067 117.906 87.5329 116.813L86.2307 121.364L84.0502 120.74L87.5754 108.419L89.6694 109.018L89.303 110.298C90.233 109.491 91.3267 109.267 92.5843 109.627ZM88.4406 115.799C88.691 116.408 89.1796 116.816 89.9064 117.024C90.6217 117.228 91.2613 117.131 91.8252 116.73C92.3742 116.338 92.7824 115.675 93.0497 114.74C93.3105 113.829 93.3067 113.079 93.0382 112.49C92.7846 111.894 92.2886 111.49 91.5502 111.278C90.8233 111.07 90.1871 111.157 89.6413 111.537C89.0956 111.918 88.6907 112.57 88.4266 113.493C88.1593 114.427 88.1639 115.196 88.4406 115.799ZM106.493 117.444L108.452 114.391L110.788 115.06L105.291 123.148L103.007 122.494L102.932 118.504C102.934 116.882 102.934 115.921 102.933 115.621C102.862 115.738 102.36 116.555 101.426 118.073L99.269 121.425L96.9847 120.771L96.5975 111L98.9338 111.668L98.9819 115.296C99.008 116.164 99.0068 117.281 98.9783 118.646C99.6677 117.458 100.247 116.5 100.717 115.773L102.654 112.733L104.731 113.327L104.767 116.932C104.781 117.797 104.767 118.916 104.724 120.29C105.35 119.233 105.94 118.285 106.493 117.444ZM116.761 126.429L114.581 125.806C114.53 125.591 114.553 125.205 114.65 124.646C113.803 125.34 112.722 125.498 111.406 125.122C110.426 124.842 109.709 124.381 109.256 123.739C108.814 123.101 108.714 122.361 108.955 121.519C109.42 119.892 110.828 119.29 113.179 119.713L114.563 119.978C115.029 120.049 115.382 120.038 115.621 119.944C115.864 119.838 116.029 119.63 116.118 119.318C116.227 118.938 116.18 118.624 115.975 118.379C115.786 118.125 115.397 117.914 114.809 117.745C114.174 117.564 113.687 117.543 113.347 117.683C113.011 117.811 112.746 118.129 112.551 118.635L110.405 118.021C111.113 116.026 112.742 115.394 115.291 116.124C117.772 116.833 118.756 118.082 118.245 119.87L116.883 124.63C116.659 125.414 116.618 126.014 116.761 126.429ZM112.371 123.713C113.052 123.908 113.658 123.882 114.191 123.635C114.727 123.376 115.095 122.895 115.297 122.191L115.529 121.378C115.269 121.503 114.894 121.527 114.404 121.449L113.188 121.251C112.591 121.155 112.136 121.175 111.823 121.31C111.525 121.436 111.321 121.69 111.212 122.071C111.103 122.452 111.144 122.788 111.335 123.08C111.541 123.363 111.887 123.574 112.371 123.713ZM125.431 119.099C125.627 119.156 125.803 119.218 125.958 119.288L125.383 121.295L124.829 121.137C123.999 120.899 123.297 120.929 122.725 121.227C122.168 121.517 121.772 122.072 121.538 122.891L120.241 127.425L118.06 126.801L120.615 117.871L122.726 118.475L122.271 120.068C123.097 119.056 124.15 118.733 125.431 119.099ZM132.736 122.594L134.038 118.042L136.219 118.666L132.693 130.988L130.582 130.384L130.938 129.138C130.004 129.919 128.925 130.134 127.702 129.784C126.467 129.431 125.615 128.725 125.143 127.667C124.661 126.605 124.621 125.371 125.024 123.963C125.433 122.532 126.121 121.5 127.089 120.866C128.034 120.225 129.129 120.083 130.375 120.439C131.575 120.782 132.362 121.501 132.736 122.594ZM127.236 124.671C126.972 125.594 126.974 126.35 127.243 126.938C127.511 127.527 128.003 127.923 128.719 128.128C129.434 128.333 130.07 128.246 130.627 127.869C131.173 127.488 131.578 126.837 131.842 125.914C132.106 124.991 132.107 124.223 131.845 123.612C131.584 123 131.089 122.59 130.362 122.383C129.659 122.181 129.025 122.281 128.461 122.681C127.909 123.085 127.5 123.748 127.236 124.671ZM137.897 132.739C135.29 131.993 134.222 130.576 134.694 128.49L136.823 129.099C136.722 129.669 136.789 130.112 137.023 130.429C137.268 130.749 137.72 131.003 138.377 131.191C139.554 131.528 140.245 131.338 140.449 130.623C140.542 130.3 140.486 130.016 140.282 129.77C140.077 129.524 139.663 129.25 139.038 128.946L138.067 128.481C136.209 127.6 135.492 126.421 135.914 124.945C136.155 124.102 136.667 123.537 137.448 123.249C138.233 122.949 139.213 122.968 140.39 123.304C142.94 124.034 143.966 125.42 143.469 127.462L141.41 126.873C141.539 126.335 141.479 125.912 141.23 125.604C140.985 125.284 140.556 125.037 139.945 124.862C138.906 124.565 138.288 124.762 138.09 125.455C138.004 125.755 138.052 126.024 138.233 126.263C138.418 126.491 138.762 126.727 139.266 126.971L140.342 127.466C141.37 127.972 142.066 128.508 142.428 129.073C142.802 129.642 142.88 130.307 142.662 131.069C142.405 131.969 141.861 132.562 141.03 132.848C140.199 133.135 139.155 133.098 137.897 132.739Z" fill="#514600"/>
<path d="M102.462 58.6407L103.434 60.2189C106.711 65.5409 113.574 67.3772 119.07 64.4026C113.777 67.7248 111.999 74.6031 115.02 80.0742L115.916 81.6966L114.945 80.1184C111.668 74.7964 104.805 72.9601 99.3081 75.9347C104.602 72.6125 106.38 65.7342 103.358 60.2631L102.462 58.6407Z" fill="#E1C20D"/>
</svg>
