<svg width="57" height="57" viewBox="0 0 57 57" fill="none" xmlns="http://www.w3.org/2000/svg">
<rect x="0.334473" y="0.594482" width="56.2707" height="56.2707" rx="28.1353" fill="#F7F6F6"/>
<path d="M13.6987 14.946V40.2962C13.6987 43.1002 15.1293 43.4149 15.7302 43.4149H40.6512C41.7671 43.4149 42.6826 42.4993 42.6826 41.3834V14.946C42.6826 13.8301 41.7671 12.9146 40.6512 12.9146H15.7302C14.6143 12.9146 13.6987 13.8301 13.6987 14.946ZM29.6356 34.2305C30.0648 33.7727 30.637 33.5724 31.2951 33.5724C31.9818 33.5724 32.554 33.8013 32.9546 34.2305C33.3838 34.6596 33.584 35.3177 33.584 36.1475C33.584 36.9772 33.3551 37.6067 32.9546 38.0645C32.5254 38.5223 31.9532 38.7511 31.2951 38.7511C30.9517 38.7511 30.637 38.6939 30.3509 38.5795C30.0648 38.465 29.8073 38.2934 29.607 38.0645C29.4067 37.8356 29.235 37.5781 29.1206 37.2347C29.0061 36.92 28.9489 36.548 28.9489 36.1475C28.9775 35.3177 29.2064 34.6596 29.6356 34.2305ZM30.4164 29.1661C30.9886 29.1661 31.3489 29.7824 31.0683 30.281L26.6456 38.141C26.5131 38.3765 26.2638 38.5223 25.9936 38.5223C25.4214 38.5223 25.0611 37.906 25.3417 37.4073L29.7644 29.5474C29.8969 29.3119 30.1461 29.1661 30.4164 29.1661ZM25.1149 34.1446C24.7716 34.1446 24.4568 34.0874 24.1707 33.973C23.8846 33.8585 23.6271 33.6868 23.4268 33.4579C23.2265 33.229 23.0548 32.9715 22.9404 32.6282C22.8259 32.3135 22.7687 31.9415 22.7687 31.5409C22.7687 30.7112 22.9976 30.0531 23.3982 29.6239C23.8274 29.1661 24.3996 28.9659 25.0577 28.9659C25.7444 28.9659 26.3166 29.1948 26.7172 29.6239C27.1463 30.0531 27.3466 30.7112 27.3466 31.5409C27.3466 32.3707 27.1177 33.0001 26.7172 33.4579C26.3738 33.9157 25.8016 34.1446 25.1149 34.1446ZM36.8359 17.893C37.5682 17.893 38.162 18.4867 38.162 19.2191V23.8916C38.162 24.624 37.5682 25.2177 36.8359 25.2177H19.5741C18.8417 25.2177 18.248 24.624 18.248 23.8916V19.2191C18.248 18.4867 18.8417 17.893 19.5741 17.893H36.8359Z" fill="#151419"/>
</svg>
