<svg width="65" height="65" viewBox="0 0 65 65" fill="none" xmlns="http://www.w3.org/2000/svg">
<rect x="0.5" y="0.388184" width="64" height="64" rx="32" fill="#F6B1C6"/>
<g clip-path="url(#clip0_3989_2220)">
<path fill-rule="evenodd" clip-rule="evenodd" d="M34.9318 27.7625C35.3985 26.9541 36.4324 26.6773 37.2407 27.144C38.0489 27.6107 38.326 28.6443 37.8592 29.4527C37.3926 30.2609 36.3587 30.538 35.5505 30.0713C34.7421 29.6046 34.4651 28.5709 34.9318 27.7625ZM39.3258 30.2994C40.2602 28.681 39.7054 26.6115 38.087 25.6771C36.4686 24.7427 34.3996 25.2974 33.4652 26.9158C32.531 28.5339 33.0853 30.6036 34.7037 31.538C36.322 32.4723 38.3916 31.9176 39.3258 30.2994ZM34.62 33.3763C34.8539 32.9713 34.7152 32.4535 34.3101 32.2196C33.9051 31.9858 33.3872 32.1247 33.1535 32.5296L30.0322 37.9358C29.7984 38.3408 29.9371 38.8586 30.3421 39.0925C30.7471 39.3263 31.265 39.1874 31.4988 38.7825L34.62 33.3763ZM41.1697 19.2095C41.3729 19.1851 41.5905 19.2085 41.7679 19.3109C41.9254 19.4018 42.056 19.5415 42.1313 19.7234L42.1319 19.7247C42.1348 19.7318 42.1377 19.7389 42.1405 19.746C42.1447 19.7563 42.1488 19.7667 42.1533 19.7769L42.1541 19.7787L42.1752 19.8288C43.48 22.9277 44.9297 26.3719 43.6503 30.2408C42.4137 33.9808 38.6227 38.0314 35.0267 41.8737L34.9043 42.0045C34.6906 42.2328 34.3704 42.3278 34.0668 42.253L32.7212 41.9224L31.5037 42.4565C31.2518 42.5671 30.9625 42.5511 30.724 42.4143L27.272 40.4195C27.0338 40.2819 26.8752 40.0391 26.8451 39.7656L26.6999 38.4434L25.7408 37.4436C25.5244 37.2181 25.4467 36.8932 25.5377 36.5941L25.5894 36.424C27.1211 31.3889 28.7363 26.0798 31.3584 23.1398C34.0712 20.0978 37.7795 19.6338 41.1161 19.2163L41.1676 19.2099L41.1697 19.2095ZM27.4683 29.1046C26.8472 30.7008 26.292 32.399 25.7648 34.0936C25.5463 34.796 25.3329 35.4977 25.122 36.1909C25.0963 36.2756 25.0706 36.3601 25.0449 36.4445C25.0382 36.4665 25.0318 36.4889 25.0255 36.5123C24.4575 37.1498 23.8844 38.2336 23.2345 39.4954L23.2169 39.5296C23.0383 39.8748 22.651 40.0583 22.2707 39.9777C22.1799 39.9585 22.0949 39.9253 22.0177 39.8808C21.7709 39.7383 21.6044 39.4789 21.5871 39.1828L21.581 39.0775C21.4751 37.2668 21.3565 35.24 21.8558 33.6531C22.3883 31.9614 23.5777 30.8344 24.7249 30.1521C25.6617 29.5946 26.6026 29.317 27.4683 29.1046ZM35.531 42.0936C37.2 40.3108 38.9348 38.4577 40.4319 36.5931C40.6805 37.4491 40.9085 38.4026 40.8936 39.4925C40.8757 40.8272 40.4934 42.4201 39.294 43.7267C38.1694 44.9514 36.3559 45.8607 34.735 46.6734L34.6386 46.7218C34.3736 46.8547 34.0658 46.8402 33.8192 46.6978C33.7419 46.6531 33.6706 46.596 33.6085 46.5268C33.3484 46.2372 33.3144 45.8088 33.5247 45.482L33.5449 45.4507C34.3131 44.2574 34.9661 43.2181 35.2341 42.4081C35.2508 42.392 35.2671 42.3754 35.2831 42.3584C35.3655 42.2703 35.4482 42.182 35.531 42.0936ZM24.9784 41.2094C25.2169 40.7962 25.7452 40.6545 26.1584 40.8931C26.5717 41.1316 26.7133 41.6601 26.4748 42.0733L25.0729 44.5014C24.8344 44.9146 24.3059 45.0562 23.8927 44.8176C23.4795 44.5791 23.338 44.0506 23.5765 43.6374L24.9784 41.2094ZM29.6956 43.9329C29.9342 43.5197 30.4626 43.3781 30.8758 43.6167C31.2891 43.8552 31.4306 44.3836 31.192 44.7968L29.7902 47.2249C29.5516 47.6381 29.0232 47.7797 28.61 47.5411C28.1968 47.3026 28.0552 46.7741 28.2938 46.3609L29.6956 43.9329ZM26.2246 44.4978C26.4632 44.0846 26.9916 43.9429 27.4048 44.1815C27.818 44.4201 27.9596 44.9485 27.721 45.3617L26.3192 47.7898C26.0806 48.203 25.5522 48.3446 25.139 48.106C24.7258 47.8674 24.5842 47.339 24.8228 46.9258L26.2246 44.4978Z" fill="black"/>
</g>
<defs>
<clipPath id="clip0_3989_2220">
<rect width="40" height="40" fill="white" transform="translate(12 16.2368)"/>
</clipPath>
</defs>
</svg>
