<svg width="65" height="65" viewBox="0 0 65 65" fill="none" xmlns="http://www.w3.org/2000/svg">
<rect x="0.5" y="0.388184" width="64" height="64" rx="32" fill="#F6B1C6"/>
<g clip-path="url(#clip0_3989_2211)">
<path fill-rule="evenodd" clip-rule="evenodd" d="M13.5625 42.7418C13.5625 42.7418 13.5625 43.0093 13.5625 42.7406C13.5625 42.2231 13.9825 41.8031 14.5 41.8031H49.5C49.5 41.8031 50.4362 41.8831 50.4362 42.7906L50.4375 42.7418C50.4375 43.9368 49.9625 45.0843 49.1175 45.9293C48.2725 46.7743 47.125 47.2493 45.93 47.2493C39.2162 47.2493 24.7837 47.2493 18.07 47.2493C16.875 47.2493 15.7275 46.7743 14.8825 45.9293C14.0375 45.0843 13.5625 43.9368 13.5625 42.7418ZM15.61 43.6781C15.74 44.0218 15.9438 44.3381 16.2088 44.6031C16.7025 45.0968 17.3712 45.3743 18.07 45.3743C24.7837 45.3743 39.2162 45.3743 45.93 45.3743C46.6287 45.3743 47.2975 45.0968 47.7912 44.6031C48.0562 44.3381 48.26 44.0218 48.39 43.6781H15.61Z" fill="black"/>
<path fill-rule="evenodd" clip-rule="evenodd" d="M48.6061 39.6368H15.3936V42.7406C15.3936 43.2581 15.8136 43.6781 16.3311 43.6781H47.6686C48.1861 43.6781 48.6061 43.2581 48.6061 42.7406V39.6368ZM15.3936 37.7618H48.6061V22.1618C48.6061 21.2506 48.2436 20.3756 47.5998 19.7306C46.9548 19.0868 46.0811 18.7243 45.1686 18.7243H18.8311C17.9186 18.7243 17.0448 19.0868 16.3998 19.7306C15.7561 20.3756 15.3936 21.2506 15.3936 22.1618V37.7618ZM38.2848 33.8118V32.6006C38.2848 31.5143 37.8536 30.4731 37.0848 29.7043C36.3173 28.9368 35.2748 28.5056 34.1886 28.5056C32.8073 28.5056 31.1923 28.5056 29.8111 28.5056C28.7248 28.5056 27.6823 28.9368 26.9148 29.7043C26.1461 30.4731 25.7148 31.5143 25.7148 32.6006V33.8118C25.7148 35.1906 26.8336 36.3093 28.2136 36.3093C30.2398 36.3093 33.7598 36.3093 35.7861 36.3093C37.1661 36.3093 38.2848 35.1906 38.2848 33.8118ZM36.4098 32.6006V33.8118C36.4098 34.1556 36.1311 34.4343 35.7861 34.4343C33.7598 34.4343 30.2398 34.4343 28.2136 34.4343C27.8686 34.4343 27.5898 34.1556 27.5898 33.8118V32.6006C27.5898 32.0118 27.8236 31.4468 28.2398 31.0306C28.6573 30.6143 29.2223 30.3806 29.8111 30.3806H34.1886C34.7773 30.3806 35.3423 30.6143 35.7598 31.0306C36.1761 31.4468 36.4098 32.0118 36.4098 32.6006ZM31.9998 20.8943C30.0486 20.8943 28.4636 22.4781 28.4636 24.4306C28.4636 26.3818 30.0486 27.9668 31.9998 27.9668C33.9511 27.9668 35.5361 26.3818 35.5361 24.4306C35.5361 22.4781 33.9511 20.8943 31.9998 20.8943ZM31.9998 22.7693C32.9173 22.7693 33.6611 23.5131 33.6611 24.4306C33.6611 25.3468 32.9173 26.0918 31.9998 26.0918C31.0823 26.0918 30.3386 25.3468 30.3386 24.4306C30.3386 23.5131 31.0823 22.7693 31.9998 22.7693Z" fill="black"/>
</g>
<defs>
<clipPath id="clip0_3989_2211">
<rect width="40" height="36.25" fill="white" transform="translate(12 14.2368)"/>
</clipPath>
</defs>
</svg>
