<svg width="64" height="64" viewBox="0 0 64 64" fill="none" xmlns="http://www.w3.org/2000/svg">
<rect width="64" height="64" rx="32" fill="white"/>
<path d="M28.6828 16.1579H27.2822C27.501 16.0539 27.7402 16 27.9825 16C28.2248 16 28.464 16.0539 28.6828 16.1579ZM33.959 33.6318V46.9854C33.9565 47.2157 33.9784 47.4455 34.0243 47.6711C34.0327 47.7081 34.0326 47.7466 34.024 47.7836C34.0153 47.8206 33.9985 47.8551 33.9746 47.8847C33.9507 47.9142 33.9205 47.9379 33.8861 47.9541C33.8517 47.9703 33.8141 47.9784 33.7762 47.978L19.2667 47.9976C18.8338 47.9976 18.4186 47.8256 18.1124 47.5194C17.8063 47.2133 17.6343 46.7981 17.6343 46.3651V21.225C17.6343 20.7921 17.8063 20.3769 18.1124 20.0707C18.4186 19.7646 18.8338 19.5926 19.2667 19.5926H22.0517C22.1591 19.5926 22.2621 19.6352 22.338 19.7112C22.4139 19.7871 22.4566 19.8901 22.4566 19.9974V20.3827C22.4566 20.8156 22.6286 21.2309 22.9347 21.537C23.2409 21.8432 23.6561 22.0152 24.0891 22.0152H31.9249C32.3579 22.0152 32.7731 21.8432 33.0793 21.537C33.3854 21.2309 33.5574 20.8156 33.5574 20.3827V20.0072C33.5543 19.9056 33.5895 19.8066 33.656 19.7298C33.7226 19.653 33.8156 19.604 33.9165 19.5926H36.6493C37.0823 19.5926 37.4975 19.7646 37.8036 20.0707C38.1098 20.3769 38.2818 20.7921 38.2818 21.225V30.8207C38.2818 30.8874 38.2553 30.9513 38.2081 30.9985C38.161 31.0456 38.097 31.0721 38.0304 31.0721H36.522C35.846 31.0733 35.198 31.3421 34.7197 31.8198C34.4861 32.0509 34.3007 32.3261 34.1745 32.6295C34.0347 32.9453 33.9614 33.2865 33.959 33.6318ZM33.0415 29.6584C33.0415 29.4546 32.9608 29.2591 32.817 29.1147C32.6732 28.9703 32.4781 28.8887 32.2743 28.8879H23.6222C23.517 28.881 23.4115 28.8958 23.3123 28.9313C23.213 28.9669 23.1222 29.0224 23.0452 29.0945C22.9683 29.1665 22.907 29.2536 22.8651 29.3503C22.8232 29.4471 22.8015 29.5513 22.8015 29.6568C22.8015 29.7622 22.8232 29.8665 22.8651 29.9632C22.907 30.0599 22.9683 30.147 23.0452 30.219C23.1222 30.2911 23.213 30.3466 23.3123 30.3822C23.4115 30.4177 23.517 30.4325 23.6222 30.4257H32.2743C32.4778 30.4257 32.6729 30.3448 32.8168 30.2009C32.9607 30.057 33.0415 29.8619 33.0415 29.6584ZM33.0415 25.4891C33.0415 25.2856 32.9607 25.0904 32.8168 24.9465C32.6729 24.8026 32.4778 24.7218 32.2743 24.7218H23.6222C23.517 24.7149 23.4115 24.7297 23.3123 24.7653C23.213 24.8008 23.1222 24.8563 23.0452 24.9284C22.9683 25.0005 22.907 25.0876 22.8651 25.1843C22.8232 25.281 22.8015 25.3853 22.8015 25.4907C22.8015 25.5961 22.8232 25.7004 22.8651 25.7971C22.907 25.8938 22.9683 25.9809 23.0452 26.053C23.1222 26.125 23.213 26.1806 23.3123 26.2161C23.4115 26.2516 23.517 26.2664 23.6222 26.2596H32.2743C32.4781 26.2587 32.6732 26.1772 32.817 26.0328C32.9608 25.8883 33.0415 25.6928 33.0415 25.4891ZM46.3658 33.6318V46.9854C46.3662 47.1193 46.34 47.2519 46.2887 47.3756C46.2374 47.4992 46.162 47.6114 46.0668 47.7056C45.9717 47.7998 45.8588 47.8741 45.7347 47.9243C45.6106 47.9744 45.4777 47.9993 45.3438 47.9976H36.5285C36.4861 48.0008 36.4435 48.0008 36.4012 47.9976C36.1568 47.9673 35.9319 47.8486 35.7689 47.664C35.6059 47.4794 35.5161 47.2415 35.5164 46.9952V33.6318C35.5164 33.3634 35.623 33.106 35.8128 32.9161C36.0026 32.7263 36.2601 32.6197 36.5285 32.6197H45.3438C45.4777 32.618 45.6106 32.6429 45.7347 32.693C45.8588 32.7431 45.9717 32.8175 46.0668 32.9117C46.162 33.0059 46.2374 33.1181 46.2887 33.2417C46.34 33.3653 46.3662 33.498 46.3658 33.6318ZM38.6474 45.1571C38.6473 45.0446 38.6096 44.9354 38.5404 44.8467C38.4712 44.758 38.3745 44.6949 38.2654 44.6673C38.2242 44.6623 38.1826 44.6623 38.1414 44.6673H37.6157C37.5491 44.6669 37.4831 44.6797 37.4215 44.705C37.36 44.7302 37.304 44.7675 37.2569 44.8146C37.2098 44.8617 37.1726 44.9176 37.1473 44.9792C37.122 45.0408 37.1092 45.1068 37.1097 45.1734V45.6991C37.1092 45.7656 37.122 45.8316 37.1473 45.8932C37.1726 45.9548 37.2098 46.0108 37.2569 46.0579C37.304 46.1049 37.36 46.1422 37.4215 46.1675C37.4831 46.1928 37.5491 46.2056 37.6157 46.2051H38.1414C38.1826 46.2101 38.2242 46.2101 38.2654 46.2051C38.3745 46.1775 38.4712 46.1144 38.5404 46.0257C38.6096 45.9371 38.6473 45.8279 38.6474 45.7154V45.1571ZM38.6474 42.0815C38.6473 41.969 38.6096 41.8598 38.5404 41.7711C38.4712 41.6824 38.3745 41.6193 38.2654 41.5918C38.2242 41.5868 38.1826 41.5868 38.1414 41.5918H37.6157C37.5491 41.5913 37.4831 41.6041 37.4215 41.6294C37.36 41.6547 37.304 41.6919 37.2569 41.739C37.2098 41.7861 37.1726 41.8421 37.1473 41.9036C37.122 41.9652 37.1092 42.0312 37.1097 42.0978V42.6235C37.1164 42.7528 37.1728 42.8746 37.267 42.9634C37.3613 43.0522 37.4862 43.1012 37.6157 43.1002H38.1414C38.1832 43.0998 38.2249 43.0943 38.2654 43.0838C38.3745 43.0563 38.4712 42.9931 38.5404 42.9045C38.6096 42.8158 38.6473 42.7066 38.6474 42.5941V42.0815ZM41.723 45.1571C41.7235 45.0905 41.7107 45.0245 41.6854 44.9629C41.6601 44.9013 41.6228 44.8453 41.5758 44.7983C41.5287 44.7512 41.4727 44.7139 41.4111 44.6886C41.3495 44.6634 41.2835 44.6506 41.217 44.651H40.6913C40.6247 44.6506 40.5587 44.6634 40.4971 44.6886C40.4355 44.7139 40.3796 44.7512 40.3325 44.7983C40.2854 44.8453 40.2482 44.9013 40.2229 44.9629C40.1976 45.0245 40.1848 45.0905 40.1852 45.1571V45.6827C40.1848 45.7493 40.1976 45.8153 40.2229 45.8769C40.2482 45.9385 40.2854 45.9945 40.3325 46.0415C40.3796 46.0886 40.4355 46.1259 40.4971 46.1512C40.5587 46.1764 40.6247 46.1892 40.6913 46.1888H41.217C41.2835 46.1892 41.3495 46.1764 41.4111 46.1512C41.4727 46.1259 41.5287 46.0886 41.5758 46.0415C41.6228 45.9945 41.6601 45.9385 41.6854 45.8769C41.7107 45.8153 41.7235 45.7493 41.723 45.6827V45.1571ZM41.723 42.0815C41.7235 42.0149 41.7107 41.9489 41.6854 41.8873C41.6601 41.8257 41.6228 41.7698 41.5758 41.7227C41.5287 41.6756 41.4727 41.6383 41.4111 41.6131C41.3495 41.5878 41.2835 41.575 41.217 41.5754H40.6913C40.6247 41.575 40.5587 41.5878 40.4971 41.6131C40.4355 41.6383 40.3796 41.6756 40.3325 41.7227C40.2854 41.7698 40.2482 41.8257 40.2229 41.8873C40.1976 41.9489 40.1848 42.0149 40.1852 42.0815V42.6072C40.1878 42.7394 40.2424 42.8652 40.3371 42.9575C40.4318 43.0498 40.5591 43.101 40.6913 43.1002H41.217C41.2835 43.1006 41.3495 43.0878 41.4111 43.0625C41.4727 43.0372 41.5287 43 41.5758 42.9529C41.6228 42.9058 41.6601 42.8499 41.6854 42.7883C41.7107 42.7267 41.7235 42.6607 41.723 42.5941V42.0815ZM41.723 39.0059C41.7235 38.9393 41.7107 38.8733 41.6854 38.8117C41.6601 38.7502 41.6228 38.6942 41.5758 38.6471C41.5287 38.6 41.4727 38.5628 41.4111 38.5375C41.3495 38.5122 41.2835 38.4994 41.217 38.4999H37.6255C37.5589 38.4994 37.4929 38.5122 37.4313 38.5375C37.3697 38.5628 37.3138 38.6 37.2667 38.6471C37.2196 38.6942 37.1824 38.7502 37.1571 38.8117C37.1318 38.8733 37.119 38.9393 37.1195 39.0059V39.5316C37.119 39.5982 37.1318 39.6642 37.1571 39.7258C37.1824 39.7873 37.2196 39.8433 37.2667 39.8904C37.3138 39.9375 37.3697 39.9747 37.4313 40C37.4929 40.0253 37.5589 40.0381 37.6255 40.0376H41.217C41.2835 40.0381 41.3495 40.0253 41.4111 40C41.4727 39.9747 41.5287 39.9375 41.5758 39.8904C41.6228 39.8433 41.6601 39.7873 41.6854 39.7258C41.7107 39.6642 41.7235 39.5982 41.723 39.5316V39.0059ZM44.7986 45.1571C44.799 45.0905 44.7862 45.0245 44.761 44.9629C44.7357 44.9013 44.6984 44.8453 44.6513 44.7983C44.6043 44.7512 44.5483 44.7139 44.4867 44.6886C44.4251 44.6634 44.3591 44.6506 44.2925 44.651H43.7538C43.6872 44.6506 43.6212 44.6634 43.5596 44.6886C43.498 44.7139 43.4421 44.7512 43.395 44.7983C43.3479 44.8453 43.3107 44.9013 43.2854 44.9629C43.2601 45.0245 43.2473 45.0905 43.2477 45.1571V45.6827C43.2473 45.7493 43.2601 45.8153 43.2854 45.8769C43.3107 45.9385 43.3479 45.9945 43.395 46.0415C43.4421 46.0886 43.498 46.1259 43.5596 46.1512C43.6212 46.1764 43.6872 46.1892 43.7538 46.1888H44.2795C44.3461 46.1892 44.4121 46.1764 44.4736 46.1512C44.5352 46.1259 44.5912 46.0886 44.6383 46.0415C44.6854 45.9945 44.7226 45.9385 44.7479 45.8769C44.7732 45.8153 44.786 45.7493 44.7855 45.6827L44.7986 45.1571ZM44.7986 42.0815C44.799 42.0149 44.7862 41.9489 44.761 41.8873C44.7357 41.8257 44.6984 41.7698 44.6513 41.7227C44.6043 41.6756 44.5483 41.6383 44.4867 41.6131C44.4251 41.5878 44.3591 41.575 44.2925 41.5754H43.7538C43.6872 41.575 43.6212 41.5878 43.5596 41.6131C43.498 41.6383 43.4421 41.6756 43.395 41.7227C43.3479 41.7698 43.3107 41.8257 43.2854 41.8873C43.2601 41.9489 43.2473 42.0149 43.2477 42.0815V42.6072C43.2503 42.7394 43.3049 42.8652 43.3996 42.9575C43.4943 43.0498 43.6216 43.101 43.7538 43.1002H44.2795C44.3461 43.1006 44.4121 43.0878 44.4736 43.0625C44.5352 43.0372 44.5912 43 44.6383 42.9529C44.6854 42.9058 44.7226 42.8499 44.7479 42.7883C44.7732 42.7267 44.786 42.6607 44.7855 42.5941L44.7986 42.0815ZM44.7986 39.0059C44.799 38.9393 44.7862 38.8733 44.761 38.8117C44.7357 38.7502 44.6984 38.6942 44.6513 38.6471C44.6043 38.6 44.5483 38.5628 44.4867 38.5375C44.4251 38.5122 44.3591 38.4994 44.2925 38.4999H43.7538C43.6872 38.4994 43.6212 38.5122 43.5596 38.5375C43.498 38.5628 43.4421 38.6 43.395 38.6471C43.3479 38.6942 43.3107 38.7502 43.2854 38.8117C43.2601 38.8733 43.2473 38.9393 43.2477 39.0059V39.5316C43.2473 39.5982 43.2601 39.6642 43.2854 39.7258C43.3107 39.7873 43.3479 39.8433 43.395 39.8904C43.4421 39.9375 43.498 39.9747 43.5596 40C43.6212 40.0253 43.6872 40.0381 43.7538 40.0376H44.2795C44.3461 40.0381 44.4121 40.0253 44.4736 40C44.5352 39.9747 44.5912 39.9375 44.6383 39.8904C44.6854 39.8433 44.7226 39.7873 44.7479 39.7258C44.7732 39.6642 44.786 39.5982 44.7855 39.5316L44.7986 39.0059ZM44.7986 34.8986C44.7973 34.8306 44.7826 34.7635 44.7553 34.7012C44.728 34.6389 44.6886 34.5826 44.6395 34.5355C44.5903 34.4885 44.5323 34.4516 44.4688 34.4271C44.4054 34.4026 44.3377 34.3908 44.2697 34.3926H37.619C37.551 34.3908 37.4833 34.4026 37.4198 34.4271C37.3564 34.4516 37.2984 34.4885 37.2492 34.5355C37.2001 34.5826 37.1607 34.6389 37.1334 34.7012C37.1061 34.7635 37.0913 34.8306 37.0901 34.8986V36.456C37.0913 36.524 37.1061 36.5911 37.1334 36.6535C37.1607 36.7158 37.2001 36.7721 37.2492 36.8191C37.2984 36.8661 37.3564 36.903 37.4198 36.9275C37.4833 36.9521 37.551 36.9638 37.619 36.9621H44.2697C44.3377 36.9638 44.4054 36.9521 44.4688 36.9275C44.5323 36.903 44.5903 36.8661 44.6395 36.8191C44.6886 36.7721 44.728 36.7158 44.7553 36.6535C44.7826 36.5911 44.7973 36.524 44.7986 36.456V34.8986ZM24.4907 20.4741H31.4711C31.5374 20.4741 31.6031 20.461 31.6643 20.4355C31.7255 20.4101 31.7811 20.3727 31.8278 20.3257C31.8745 20.2787 31.9115 20.2228 31.9366 20.1615C31.9616 20.1001 31.9743 20.0343 31.9739 19.968V18.2017C31.9743 18.1354 31.9616 18.0697 31.9366 18.0083C31.9115 17.9469 31.8745 17.8911 31.8278 17.8441C31.7811 17.797 31.7255 17.7597 31.6643 17.7342C31.6031 17.7088 31.5374 17.6956 31.4711 17.6956H29.6395V17.6597C29.6394 17.4051 29.5814 17.1539 29.4697 16.9251C29.304 16.5861 29.0259 16.315 28.6828 16.1579H27.2822C26.9391 16.315 26.6611 16.5861 26.4953 16.9251C26.3836 17.1539 26.3256 17.4051 26.3256 17.6597V17.6956H24.4907C24.4241 17.6952 24.3581 17.708 24.2965 17.7333C24.2349 17.7586 24.1789 17.7958 24.1318 17.8429C24.0848 17.89 24.0475 17.9459 24.0222 18.0075C23.997 18.0691 23.9842 18.1351 23.9846 18.2017V19.968C23.9842 20.0346 23.997 20.1006 24.0222 20.1622C24.0475 20.2238 24.0848 20.2798 24.1318 20.3269C24.1789 20.3739 24.2349 20.4112 24.2965 20.4365C24.3581 20.4617 24.4241 20.4745 24.4907 20.4741Z" fill="#151419"/>
</svg>
