<svg width="64" height="64" viewBox="0 0 64 64" fill="none" xmlns="http://www.w3.org/2000/svg">
<rect width="64" height="64" rx="32" fill="white"/>
<path fill-rule="evenodd" clip-rule="evenodd" d="M27.3236 30.3493C27.8181 30.7909 28.4638 31.0463 29.1476 31.0463H29.6156C29.2899 31.7594 29.1079 32.5503 29.1079 33.3852C29.1079 36.4901 31.6288 39.0112 34.7339 39.0112C37.8388 39.0112 40.3599 36.4903 40.3599 33.3852C40.3599 30.2801 37.839 27.7593 34.7339 27.7593C34.5285 27.7593 34.326 27.7695 34.1249 27.7915V19.3471C34.1924 19.3354 34.2629 19.3281 34.3333 19.3266C34.6004 19.3192 34.8674 19.3192 35.1345 19.3207C35.9342 19.3457 36.5857 19.9708 36.6458 20.769C36.6781 21.1989 36.7133 21.6699 36.75 22.0808C36.7984 22.7206 37.2328 23.2649 37.8461 23.4542C38.1469 23.5481 38.4433 23.6567 38.731 23.7829C39.3238 24.0338 40.0105 23.8959 40.461 23.4337C40.7486 23.1387 41.0787 22.7998 41.3839 22.496C41.9401 21.9253 42.8381 21.8666 43.4646 22.3596C43.6745 22.5254 43.8784 22.6971 44.0809 22.8702C44.6766 23.4029 44.775 24.3009 44.3084 24.9509C44.0574 25.3002 43.7816 25.6846 43.5454 26.0236C43.1712 26.5445 43.1536 27.2415 43.5028 27.78C43.673 28.0456 43.83 28.3185 43.9694 28.6017C44.2629 29.1754 44.8777 29.51 45.5175 29.4455C45.9284 29.4044 46.3994 29.3574 46.8278 29.3193C47.6217 29.24 48.3465 29.7712 48.5094 30.5518C48.5637 30.813 48.6092 31.0756 48.6532 31.3398C48.7662 32.1307 48.2644 32.882 47.4896 33.0786C47.0714 33.1843 46.6136 33.3016 46.2159 33.4088C45.5938 33.5672 45.133 34.0911 45.0538 34.7264C45.0127 35.039 44.9584 35.3501 44.8836 35.6553C44.7398 36.2833 44.9951 36.9348 45.5277 37.2973C45.8696 37.5306 46.2599 37.7961 46.6121 38.0427C47.2709 38.4917 47.4852 39.3647 47.108 40.0676C46.9819 40.3024 46.8483 40.5328 46.7119 40.7631C46.2907 41.4425 45.4235 41.6949 44.703 41.3486C44.3142 41.1623 43.8887 40.9568 43.5145 40.7837C42.9363 40.5049 42.2467 40.6091 41.7771 41.0463C41.5453 41.2591 41.3032 41.4616 41.0493 41.6494C40.5358 42.0383 40.3127 42.7015 40.4873 43.3207C40.5989 43.7184 40.7265 44.1733 40.838 44.5885C41.0537 45.356 40.6561 46.163 39.9165 46.4594C39.6686 46.5577 39.4177 46.6487 39.1667 46.7382C38.4067 46.9877 37.5805 46.6238 37.2518 45.8945C37.0743 45.5027 36.8806 45.0713 36.7045 44.6971C36.4404 44.1131 35.8461 43.7492 35.2049 43.7815C34.8909 43.7962 34.5754 43.7962 34.2599 43.7756C33.6172 43.7433 33.0185 44.1072 32.7544 44.6942C32.5842 45.0713 32.3905 45.5012 32.2086 45.8915C31.943 46.4799 31.3531 46.8292 30.7368 46.8086C31.1036 45.9487 31.3047 45.0023 31.3047 44.0089C31.3047 41.2826 29.7786 38.91 27.5291 37.7094C27.4014 37.6419 27.3222 37.5084 27.3222 37.3646V30.3491L27.3236 30.3493Z" fill="#151419"/>
<path fill-rule="evenodd" clip-rule="evenodd" d="M22.1335 28.7791C22.6544 28.2802 23.3631 27.9735 24.1423 27.9735C24.9229 27.9735 25.6331 28.2817 26.1511 28.785V37.3646C26.1511 37.9428 26.4695 38.4739 26.9801 38.7454C28.8598 39.7476 30.1349 41.7314 30.1349 44.0089C30.1349 47.3163 27.4497 50 24.1438 50C20.8364 50 18.1527 47.3147 18.1527 44.0089C18.1527 41.7301 19.4264 39.7476 21.3016 38.7353C21.8079 38.4653 22.1248 37.9385 22.1248 37.3648C22.1336 35.491 22.1351 31.403 22.1366 28.7795L22.1335 28.7791ZM24.1423 41.4363H24.1584C25.5715 41.4451 26.716 42.5955 26.716 44.01C26.716 45.4246 25.5715 46.575 24.1584 46.5838H24.1423C22.7219 46.5838 21.5685 45.4305 21.5685 44.01C21.5685 42.5896 22.7219 41.4363 24.1423 41.4363Z" fill="#151419"/>
<path fill-rule="evenodd" clip-rule="evenodd" d="M20.5122 29.0154C20.2466 29.5304 19.7154 29.8547 19.1358 29.8547C18.4813 29.8708 17.6288 29.8708 16.8966 29.8708C16.4813 29.8708 16.0837 29.7065 15.7902 29.4115C15.4968 29.1181 15.3309 28.7204 15.3309 28.3052V15.5657C15.3309 15.1504 15.4967 14.7527 15.7902 14.4593C16.0837 14.1658 16.4813 14 16.8966 14H31.3866C31.8019 14 32.1995 14.1643 32.493 14.4593C32.7864 14.7528 32.9523 15.1504 32.9523 15.5657V28.3052C32.9523 28.7204 32.7865 29.1181 32.493 29.4115C32.1995 29.705 31.8019 29.8708 31.3866 29.8708H29.1489C28.562 29.8708 28.0249 29.5436 27.7564 29.0213C27.0961 27.6992 25.7241 26.7982 24.1408 26.7982C22.5591 26.7982 21.1856 27.6991 20.5106 29.0139L20.5122 29.0154ZM24.1424 17.6154C25.9047 17.6154 27.3339 19.0461 27.3339 20.8069C27.3339 22.5677 25.9032 23.9984 24.1424 23.9984C22.3801 23.9984 20.9509 22.5677 20.9509 20.8069C20.9509 19.0446 22.3801 17.6154 24.1424 17.6154Z" fill="#151419"/>
</svg>
