<svg width="64" height="64" viewBox="0 0 64 64" fill="none" xmlns="http://www.w3.org/2000/svg">
<rect width="64" height="64" rx="32" fill="white"/>
<path d="M50.75 44.5008C50.75 44.8323 50.6183 45.1502 50.3839 45.3847C50.1495 45.6191 49.8315 45.7508 49.5 45.7508H14.5C14.1685 45.7508 13.8505 45.6191 13.6161 45.3847C13.3817 45.1502 13.25 44.8323 13.25 44.5008C13.25 44.1693 13.3817 43.8513 13.6161 43.6169C13.8505 43.3825 14.1685 43.2508 14.5 43.2508H49.5C49.8315 43.2508 50.1495 43.3825 50.3839 43.6169C50.6183 43.8513 50.75 44.1693 50.75 44.5008ZM14.5469 27.3414C14.4725 27.0793 14.4859 26.8 14.5849 26.5462C14.6839 26.2923 14.8631 26.0778 15.0953 25.9352L31.3453 15.9352C31.5422 15.8141 31.7688 15.75 32 15.75C32.2312 15.75 32.4578 15.8141 32.6547 15.9352L48.9047 25.9352C49.1369 26.0776 49.3163 26.292 49.4155 26.5457C49.5147 26.7995 49.5283 27.0787 49.4541 27.3409C49.38 27.603 49.2223 27.8338 49.0049 27.9981C48.7875 28.1623 48.5224 28.2511 48.25 28.2508H44.5V38.2508H47C47.3315 38.2508 47.6495 38.3825 47.8839 38.6169C48.1183 38.8513 48.25 39.1693 48.25 39.5008C48.25 39.8323 48.1183 40.1502 47.8839 40.3847C47.6495 40.6191 47.3315 40.7508 47 40.7508H17C16.6685 40.7508 16.3505 40.6191 16.1161 40.3847C15.8817 40.1502 15.75 39.8323 15.75 39.5008C15.75 39.1693 15.8817 38.8513 16.1161 38.6169C16.3505 38.3825 16.6685 38.2508 17 38.2508H19.5V28.2508H15.75C15.4778 28.2509 15.213 28.1621 14.9958 27.998C14.7787 27.8338 14.6211 27.6033 14.5469 27.3414ZM34.5 37.0008C34.5 37.3323 34.6317 37.6502 34.8661 37.8847C35.1005 38.1191 35.4185 38.2508 35.75 38.2508C36.0815 38.2508 36.3995 38.1191 36.6339 37.8847C36.8683 37.6502 37 37.3323 37 37.0008V29.5008C37 29.1693 36.8683 28.8513 36.6339 28.6169C36.3995 28.3825 36.0815 28.2508 35.75 28.2508C35.4185 28.2508 35.1005 28.3825 34.8661 28.6169C34.6317 28.8513 34.5 29.1693 34.5 29.5008V37.0008ZM27 37.0008C27 37.3323 27.1317 37.6502 27.3661 37.8847C27.6005 38.1191 27.9185 38.2508 28.25 38.2508C28.5815 38.2508 28.8995 38.1191 29.1339 37.8847C29.3683 37.6502 29.5 37.3323 29.5 37.0008V29.5008C29.5 29.1693 29.3683 28.8513 29.1339 28.6169C28.8995 28.3825 28.5815 28.2508 28.25 28.2508C27.9185 28.2508 27.6005 28.3825 27.3661 28.6169C27.1317 28.8513 27 29.1693 27 29.5008V37.0008Z" fill="#151419"/>
</svg>
