<?xml version="1.0" encoding="UTF-8"?>
<svg id="Layer_1" data-name="Layer 1" xmlns="http://www.w3.org/2000/svg" xmlns:xlink="http://www.w3.org/1999/xlink" viewBox="0 0 150 150">
  <defs>
    <style>
      .cls-1 {
        fill: #fee8da;
      }

      .cls-2 {
        fill: url(#linear-gradient);
      }
    </style>
    <linearGradient id="linear-gradient" x1="40.2000008" y1="76.9999981" x2="109.8000031" y2="76.9999981" gradientTransform="translate(0 152) scale(1 -1)" gradientUnits="userSpaceOnUse">
      <stop offset="0" stop-color="#f60"/>
      <stop offset="0" stop-color="#ff5204"/>
      <stop offset="1" stop-color="#ff270d"/>
    </linearGradient>
  </defs>
  <circle id="Ellipse_113" data-name="Ellipse 113" class="cls-1" cx="75" cy="75" r="70"/>
  <path class="cls-2" d="m91,105.3000031l-.6999969-5.5999985c-.9000015-.1999969-1.6999969-.5-2.5999985-1-.8000031-.5-1.5999985-1.0999985-2.1999969-1.6999969l-4.8000031,1.0999985-2.5999985-4.5999985,4-3.8000031c-.1999969-.3000031-.3000031-.9000015-.3000031-1.6999969,0-.8000031.0999985-1.4000015.3000031-1.6999969l-4-3.9000015,2.5999985-4.5,4.8000031,1.0999985c.5999985-.5,1.3000031-1.0999985,2.1999969-1.5999985.8000031-.5,1.6999969-.8000031,2.5999985-1.0999985l.6999969-5.6999969h5.6999969l.9000015,5.6999969c.8000031.1999969,1.6999969.5999985,2.5,1.0999985s1.5999985,1,2.1999969,1.5l4.7000046-.9000092,2.8000031,4.5-4.1999969,3.9000015c.3000031.4000015.5,1,.4000015,1.6999969-.0999985.8000031-.1999969,1.3000031-.4000015,1.5999985l4.1999969,3.8000031-2.8000031,4.5999985-4.6999969-1.0999985c-.5999985.6999969-1.3000031,1.1999969-2.1999969,1.6999969-.8000031.5-1.6999969.8000031-2.5,1l-.9000015,5.5999985s-5.7000046,0-5.7000046.0000076Zm-50.7999992-2.5v-9.5999985c0-2.4000015.7000008-4.5,2-6.3000031s2.9000015-3.0999985,4.5999985-3.9000015c3.7999992-1.8000031,7.5999985-3,11.2000008-3.9000015s7-1.1999969,10.3000031-1.1999969h3.0999985c-1.9000015,3.4000015-2.8000031,7.8000031-2.6999969,13,.0999985,5.1999969,1.5,9.1999969,4.1999969,12h-32.7000008v-.0999985Zm53.7999992-8.7000046c1.8000031,0,3.3000031-.5,4.4000015-1.5999985s1.5999985-2.5999985,1.5999985-4.4000015-.5-3.3000031-1.5999985-4.4000015-2.5999985-1.6999969-4.4000015-1.6999969c-1.9000015,0-3.3000031.5999985-4.4000015,1.6999969s-1.5999985,2.5999985-1.5999985,4.4000015c0,1.9000015.5,3.3000031,1.5999985,4.4000015,1,1.0999985,2.5,1.5999985,4.4000015,1.5999985Zm-25.6999969-21.1999969c-4.1999969,0-7.5999985-1.3000031-10.2000008-4-2.7000008-2.6999969-4-6-4-10.0999985,0-4.2000008,1.2999992-7.5999985,4-10.2000008,2.7000008-2.5999985,6.1000023-3.9000015,10.2000008-3.9000015s7.5,1.2999992,10.1999969,3.9000015,4,6,4,10.2000008c0,4.0999985-1.3000031,7.5-4,10.0999985-2.6999969,2.6999969-6.0999985,4-10.1999969,4Z"/>
</svg>