<svg width="64" height="64" viewBox="0 0 64 64" fill="none" xmlns="http://www.w3.org/2000/svg">
<rect width="64" height="64" rx="32" fill="white"/>
<path d="M21.9331 40.5539L19.3577 48.2814H36.4416L35.6953 46.0412C35.6266 46.0426 35.5593 46.0426 35.4891 46.0426C30.2209 46.0426 25.4411 43.9514 21.9345 40.5537L21.9331 40.5539ZM40.1974 15.9958C39.7333 15.9958 39.3551 15.6191 39.3551 15.1536C39.3551 14.688 39.7318 14.3113 40.1974 14.3113C42.2772 14.3113 44.1609 15.155 45.5242 16.5186C46.8875 17.8822 47.7315 19.7644 47.7315 21.8455C47.7315 22.311 47.3548 22.6877 46.8892 22.6877C46.4237 22.6877 46.047 22.311 46.047 21.8455C46.047 20.2312 45.3924 18.7687 44.3339 17.7103C43.2754 16.6519 41.8129 15.9972 40.1973 15.9972L40.1974 15.9958ZM40.1974 19.2817C39.7333 19.2817 39.3551 18.905 39.3551 18.4394C39.3551 17.9753 39.7318 17.5972 40.1974 17.5972C41.3705 17.5972 42.4319 18.0727 43.201 18.8419C43.9688 19.6097 44.4457 20.671 44.4457 21.8441C44.4457 22.3096 44.069 22.6864 43.6035 22.6864C43.138 22.6864 42.7613 22.3097 42.7613 21.8441C42.7613 21.1365 42.4748 20.4948 42.0107 20.0322C41.548 19.5681 40.9063 19.2816 40.1987 19.2816L40.1974 19.2817ZM41.137 21.8356L38.3181 31.0628L47.7529 40.4977C48.0824 40.8271 48.0824 41.3585 47.7529 41.688C47.7171 41.7238 47.6756 41.7567 47.6355 41.7854C46.2675 42.8783 44.745 43.7907 43.1091 44.4868C43.069 44.5083 43.026 44.5255 42.983 44.5398C42.6436 44.6816 42.2984 44.8134 41.9489 44.9366C40.5093 45.4422 38.9953 45.7845 37.4284 45.9407L38.3737 48.7768C38.4196 48.8813 38.4468 48.9974 38.4468 49.1191C38.4468 49.5832 38.0701 49.9613 37.6045 49.9613H18.1929V49.9585C18.1055 49.9585 18.0167 49.9442 17.9294 49.9155C17.4896 49.7708 17.2518 49.2967 17.3965 48.8556L20.6279 39.1586C17.7417 35.761 16 31.358 16 26.5493C16 24.289 16.3867 22.1146 17.1001 20.0879C17.2218 19.7399 17.355 19.3933 17.4968 19.0538C17.5111 19.0108 17.5283 18.9693 17.5498 18.9277C18.2545 17.2719 19.1798 15.7336 20.2914 14.3526C20.5821 13.9916 21.1107 13.9329 21.4717 14.2237C21.496 14.2437 21.5189 14.2638 21.5404 14.2838L21.5418 14.2824L30.9682 23.7088L40.091 20.7352C40.5322 20.5905 41.0063 20.8326 41.151 21.2738C41.2126 21.4629 41.2025 21.6591 41.1381 21.831L41.137 21.8356ZM36.7727 31.8993L21.0309 16.1574C20.3619 17.0856 19.7804 18.0797 19.2977 19.131L42.9104 42.7438C43.9604 42.2611 44.9558 41.6795 45.884 41.0106L36.7727 31.8993Z" fill="#151419"/>
</svg>
