<svg width="64" height="64" viewBox="0 0 64 64" fill="none" xmlns="http://www.w3.org/2000/svg">
<rect width="64" height="64" rx="32" fill="white"/>
<path fill-rule="evenodd" clip-rule="evenodd" d="M45.3882 34.8995C45.5942 35.1055 45.7222 35.3892 45.7222 35.701C45.7222 36.014 45.595 36.2981 45.3901 36.5026L45.3878 36.5044C45.1833 36.7093 44.8993 36.8365 44.5863 36.8365H43.0812H38.3117H36.8066C36.4936 36.8365 36.2099 36.7093 36.005 36.5044L36.0028 36.5026C35.7979 36.2977 35.6707 36.014 35.6707 35.701C35.6707 35.3892 35.7986 35.1055 36.0046 34.8995C36.2107 34.6935 36.4947 34.5655 36.8062 34.5655H44.5859C44.8985 34.5655 45.1822 34.6935 45.3882 34.8995ZM46.5879 18.3501C45.0805 16.8427 42.9975 15.9098 40.6968 15.9098C36.0958 15.9098 32.3658 19.6398 32.3658 24.2408C32.3658 26.7677 33.1628 27.7787 33.9794 28.8148C34.8575 29.9281 35.7551 31.0678 35.921 33.7208C36.1919 33.5989 36.4917 33.5309 36.8069 33.5309H44.5867C44.8711 33.5309 45.1436 33.5865 45.3931 33.687C45.5755 31.0862 46.4866 29.9469 47.3771 28.8328C48.2124 27.7884 49.0278 26.7689 49.0278 24.2408C49.0278 21.9405 48.0953 19.8578 46.5879 18.3501ZM43.0815 37.8707H38.3121C38.0002 37.8707 37.7165 37.9987 37.5105 38.2047C37.3045 38.4107 37.1766 38.6948 37.1766 39.0063C37.1766 39.3181 37.3045 39.6018 37.5105 39.8078C37.7165 40.0138 38.0006 40.1418 38.3121 40.1418H43.0815C43.3934 40.1418 43.6771 40.0138 43.8831 39.8078C44.0891 39.6018 44.2171 39.3177 44.2171 39.0063C44.2171 38.6944 44.0891 38.4107 43.8831 38.2047C43.6774 37.9987 43.3934 37.8707 43.0815 37.8707ZM23.586 27.0308C23.586 26.5993 23.7646 26.2049 24.0506 25.9189V25.917C24.3365 25.6311 24.7317 25.4525 25.1647 25.4525H31.3928C31.3673 25.2164 31.3492 24.9665 31.3399 24.7001H25.1647C24.5245 24.7001 23.9414 24.9628 23.5188 25.3853C23.0963 25.8082 22.8336 26.3906 22.8336 27.0312V27.6128H23.586V27.0308ZM28.596 37.0497C28.2429 37.0497 27.9232 37.1927 27.692 37.4242L27.6909 37.4231C27.4601 37.6542 27.3175 37.9743 27.3175 38.3282C27.3175 38.682 27.4601 39.0021 27.6909 39.2333L27.692 39.2322C27.9232 39.4633 28.2429 39.6067 28.596 39.6067C28.9491 39.6067 29.2688 39.4637 29.5 39.2322L29.5011 39.2333C29.7319 39.0021 29.8745 38.682 29.8745 38.3282C29.8745 37.9743 29.7319 37.6542 29.5011 37.4231L29.5 37.4242C29.2685 37.193 28.9488 37.0497 28.596 37.0497ZM36.7792 40.5392C36.3863 40.1463 36.1424 39.6037 36.1424 39.0063C36.1424 38.58 36.2666 38.1818 36.4805 37.846C36.0151 37.7747 35.5967 37.5536 35.2763 37.2339L35.274 37.2317C35.0635 37.0204 34.8958 36.7671 34.7854 36.4857C34.4545 36.6399 34.1021 36.7998 33.7445 36.9626C32.7598 37.4099 31.732 37.8771 30.908 38.3346C30.9061 38.9691 30.6475 39.544 30.2306 39.9613V39.9632C29.8122 40.3816 29.2339 40.6405 28.5956 40.6405C27.9573 40.6405 27.3791 40.3816 26.9607 39.9632V39.9613C26.5576 39.5583 26.3025 39.0074 26.2845 38.398L16.9722 33.8469V44.73C16.9722 45.0553 17.1043 45.3503 17.317 45.5631L17.3189 45.5649C17.5317 45.7777 17.8266 45.9098 18.152 45.9098H39.0393C39.3647 45.9098 39.6596 45.7777 39.8724 45.5649L39.8743 45.5631C40.087 45.3503 40.2191 45.0553 40.2191 44.73V41.1756H38.3117C37.715 41.176 37.1721 40.9321 36.7792 40.5392ZM26.9607 36.6951V36.6932C27.3791 36.2748 27.9573 36.0159 28.5956 36.0159C29.2339 36.0159 29.8122 36.2748 30.2306 36.6932V36.6951C30.4051 36.8696 30.5518 37.0718 30.6637 37.2943C31.4798 36.8579 32.418 36.4313 33.3205 36.0215C33.779 35.8128 34.2282 35.6087 34.6575 35.4046C34.6958 35.1261 34.7873 34.8642 34.9217 34.6293H34.9142C34.9142 31.6689 34.0297 30.5473 33.1673 29.4534C32.9595 29.1896 32.7527 28.9273 32.5568 28.6466H18.152C17.8266 28.6466 17.5317 28.7787 17.3189 28.9915L17.317 28.9934C17.1043 29.2061 16.9722 29.5011 16.9722 29.8264V32.6967L26.4995 37.3529C26.6139 37.1071 26.7712 36.8846 26.9607 36.6951Z" fill="#151419"/>
</svg>
