<?xml version="1.0" encoding="utf-8"?>
<!-- Generator: Adobe Illustrator 27.7.0, SVG Export Plug-In . SVG Version: 6.00 Build 0)  -->
<svg version="1.1" id="Layer_1" xmlns="http://www.w3.org/2000/svg" xmlns:xlink="http://www.w3.org/1999/xlink" x="0px" y="0px"
	 viewBox="0 0 252 126" style="enable-background:new 0 0 252 126;" xml:space="preserve">
<style type="text/css">
	.st0{fill:#00A9C4;}
</style>
<g id="layer1" transform="translate(-225,-510.42265)">
	<path id="path4863" class="st0" d="M433.3,559.7c0,1.2-1,2.2-2.2,2.2c0,0-6.5,0-7.5,0c0,1.1,0,25.5,0,25.5c0,0.6-0.2,1.2-0.7,1.6
		c-0.5,0.4-1,0.7-1.6,0.7c-1.2,0-2.3-1-2.3-2.3c0,0,0-24.4,0-25.5c-1,0-7.5,0-7.5,0c-1.2,0-2.1-0.9-2.1-2.2c0-1.2,0.9-2.2,2.2-2.1
		h19.4C432.3,557.6,433.3,558.6,433.3,559.7z M439.3,566.2c0,4.7,3.3,7.3,6,8c2.6,0.7,4.1,1,5.4,1.2l1.9,0.4l0.1,0
		c2.4,0.5,5,1,4.7,4.7c-0.2,3.3-3.9,4.8-7.3,4.8c-2.6,0-5.7-1.1-7.2-2.6c-0.9-0.9-2.3-0.9-3.2,0c-0.5,0.4-0.7,1-0.7,1.6
		c0,0.6,0.2,1.2,0.7,1.6l0.1,0.1c2.3,2.1,6.7,3.6,10.7,3.6c6.6,0,11.6-4.2,11.6-9.5c0-5.9-3.8-7.6-7.1-8.4c-1.8-0.4-2.6-0.6-3.4-0.7
		c-0.8-0.1-1.5-0.2-3-0.6h-0.1c-2.4-0.6-4.5-1.4-4.5-4.3c0-2.4,3-4.7,6-4.7c3.2,0,4.9,0.5,6.6,1.9c0.9,0.8,2.3,0.7,3-0.1
		c0.4-0.4,0.6-1,0.6-1.5c0,0,0,0,0-0.1c0-0.6-0.2-1.1-0.7-1.5l-0.4-0.3l0.1,0.1c-2.4-1.9-5-2.7-8.7-2.7
		C444.3,557.2,439.3,561.2,439.3,566.2L439.3,566.2z M314.5,557.2c-1.2,0-2.3,1-2.3,2.3v29.7h18.1c1.2,0,2.2-1,2.2-2.2
		c0-1.2-1-2.2-2.2-2.2l0.1,0.1c-0.2,0-0.4-0.1-0.7-0.1c0,0-12,0-13,0v-25.4C316.8,558.2,315.7,557.2,314.5,557.2L314.5,557.2z
		 M301.2,585.7l-0.5-0.3c-0.5-0.3-1-0.8-1-1.6c0-0.5,0-6,0-10.8c0-3.6,0-6.9,0-6.9c0-6.1-6.1-8.9-12.2-8.9c-4.4,0-7.6,1-10.3,3.3
		c-0.9,0.9-1,2.3-0.2,3.2c0.8,1,2.2,1,3.1,0.3c2.1-1.8,4.2-2.5,7.9-2.5c2.8,0,7.1,1.5,7.1,4.7v3.5c-0.3,0.1-0.8,0.3-0.8,0.3
		c-1.6,0.3-3,0.4-7.4,0.4c-6.2,0-12.7,2.5-12.7,9.6v0c0,5.7,4.9,9.8,11.6,9.8c3.6,0,7.1-1.2,10-3.4c0.8,2,2.5,2.9,2.9,3.1
		c0.9,0.5,2,0.3,2.7-0.4c0.4-0.5,0.6-1,0.6-1.6c0,0,0,0,0,0C301.9,586.7,301.6,586.1,301.2,585.7L301.2,585.7z M295,581.3
		c-1.5,1.6-4.4,4.1-8.6,4.1c-3.5,0-7.5-1.6-7.7-5.1v-0.1c0-3.8,2.6-5.5,8.3-5.5l5.4-0.1c0.7,0,1.7-0.2,2.7-0.5L295,581.3z
		 M368.5,586.5c-0.1,0-12.4-28.9-12.4-28.9h-4.3l-0.1,0.3c-4.7,10.7-12.5,28.5-12.5,28.6c-0.5,1.1,0,2.5,1.2,2.9
		c1.1,0.5,2.5-0.1,2.9-1.2c0,0,2.7-6.3,3.4-7.9H361c0.3,0.7,3.3,7.9,3.3,7.9c0.5,1.1,1.8,1.7,2.9,1.2
		C368.4,589,369,587.7,368.5,586.5L368.5,586.5z M348.5,576.1c0.6-1.3,4.6-10.7,5.4-12.6c0.8,2,4.7,11.3,5.3,12.6H348.5z
		 M402.3,586.2l-0.1-0.1c0,0-5.9-8.3-7.6-10.8c4.4-1,7-4.2,7-8.7c0-5.9-4.1-9-12.2-9h-10.6v29.8c0,0.7,0.3,1.2,0.7,1.6
		c0.5,0.4,1,0.6,1.6,0.6c1.2,0,2.2-1,2.2-2.3c0-0.2,0-0.3,0-0.5c0,0,0-10.1,0-11.1h6.4c0.3,0.5,8.8,12.8,8.8,12.8
		c0.3,0.5,0.9,0.9,1.5,1c0.6,0.1,1.2,0,1.7-0.3c0.6-0.4,1-1.1,1-1.9C402.6,587,402.5,586.6,402.3,586.2L402.3,586.2z M389.4,571.7
		h-6.1v-9.8h6c4.8,0,7.7,0.9,7.7,5C397,570.2,394.7,571.7,389.4,571.7L389.4,571.7z M239.9,573.6c0,8.8,7.3,16,16.3,16.1
		c3.8,0,7.3-1.2,10.2-3.5c0-0.1,0.1-0.1,0.1-0.1c0.5-0.4,0.8-1,0.8-1.7c0-0.5-0.1-0.9-0.5-1.4c-0.8-0.9-2.2-1.1-3.1-0.3l-0.1,0.1
		c-2.1,1.8-4.6,2.6-7.4,2.6c-6.3,0-11.7-5.4-11.7-11.9c0-6.6,5.3-11.9,11.8-11.9c2.8,0,5.3,0.9,7.4,2.7c0.9,0.8,2.4,0.7,3.2-0.3
		c0.3-0.5,0.6-1,0.5-1.6c0-0.6-0.3-1.1-0.8-1.5c-2.9-2.4-6.4-3.6-10.2-3.6C247.2,557.3,239.9,564.6,239.9,573.6z"/>
</g>
</svg>
