<svg width="64" height="64" viewBox="0 0 64 64" fill="none" xmlns="http://www.w3.org/2000/svg">
<rect width="64" height="64" rx="32" fill="white"/>
<path d="M35.7362 43.4354C35.4175 43.2015 35 43.134 34.6138 43.2517C34.4804 43.2847 34.3297 43.3192 34.1445 43.3192H30.7963C30.6126 43.3192 30.4619 43.302 30.3269 43.2517C29.9423 43.134 29.5232 43.2015 29.2045 43.4354C28.8859 43.6693 28.6849 44.0555 28.6849 44.44V47.0693C28.6849 48.6767 30.0082 50 31.6156 50H33.2905C34.8979 50 36.2212 48.6767 36.2212 47.0693V44.44C36.2212 44.0382 36.0375 43.6693 35.7016 43.4354H35.7362Z" fill="#151419"/>
<path d="M34.1634 45.8135H30.8152C30.3804 45.8135 29.9785 45.7633 29.6096 45.6456C27.6333 45.1433 26.2112 43.3177 26.2112 41.208V40.3713C26.2112 39.6854 26.781 39.1155 27.467 39.1155H37.5132C38.1991 39.1155 38.769 39.6854 38.769 40.3713V41.208C38.769 43.3004 37.3452 45.1433 35.3203 45.6613C35.0189 45.7617 34.5998 45.8119 34.165 45.8119L34.1634 45.8135ZM28.7714 41.6271C28.9221 42.3978 29.5075 43.0163 30.2956 43.2172C30.4792 43.2674 30.6472 43.3004 30.8152 43.3004H34.1634C34.347 43.3004 34.4977 43.2831 34.6327 43.2329C35.4694 43.0147 36.0565 42.379 36.2228 41.6255H28.7714V41.6271Z" fill="#151419"/>
<path d="M42.7027 27.1951C41.866 23.2771 38.6669 20.0796 34.7332 19.2414C31.5686 18.5883 28.3366 19.3591 25.8752 21.3511C23.4139 23.343 22.0074 26.3067 22.0074 29.4712C22.0074 32.8037 23.5646 35.8835 26.1939 37.8425V40.3541C26.1939 41.04 26.7637 41.6099 27.4497 41.6099H32.4728C31.7868 41.6099 31.217 41.04 31.217 40.3541V35.2635L30.4133 34.8616C28.8389 34.0752 27.8688 32.5008 27.8688 30.7427V29.4696C27.8688 28.7837 28.4386 28.2138 29.1246 28.2138C29.8105 28.2138 30.3804 28.7837 30.3804 29.4696V30.7427C30.3804 31.5464 30.8152 32.2496 31.5357 32.6185L32.4728 33.0879L33.4099 32.6185C34.1304 32.2669 34.5652 31.5464 34.5652 30.7427V29.4696C34.5652 28.7837 35.135 28.2138 35.821 28.2138C36.507 28.2138 37.0768 28.7837 37.0768 29.4696V30.7427C37.0768 32.5008 36.1051 34.0752 34.5323 34.8616L33.7286 35.2635V40.3541C33.7286 41.04 33.1587 41.6099 32.4728 41.6099H37.4959C38.1819 41.6099 38.7517 41.04 38.7517 40.3541V37.8425C42.0167 35.3985 43.5566 31.2952 42.687 27.1763L42.7027 27.1951Z" fill="#151419"/>
<path d="M46.7211 31.5809H45.0462C44.3602 31.5809 43.7904 31.0111 43.7904 30.3251C43.7904 29.6392 44.3602 29.0693 45.0462 29.0693H46.7211C47.407 29.0693 47.9769 29.6392 47.9769 30.3251C47.9769 31.0111 47.407 31.5809 46.7211 31.5809Z" fill="#151419"/>
<path d="M19.9307 31.5809H18.2558C17.5698 31.5809 17 31.0111 17 30.3251C17 29.6392 17.5698 29.0693 18.2558 29.0693H19.9307C20.6166 29.0693 21.1865 29.6392 21.1865 30.3251C21.1865 31.0111 20.6166 31.5809 19.9307 31.5809Z" fill="#151419"/>
<path d="M32.4884 18.1865C31.8025 18.1865 31.2327 17.6166 31.2327 16.9307V15.2558C31.2327 14.5698 31.8025 14 32.4884 14C33.1744 14 33.7442 14.5698 33.7442 15.2558V16.9307C33.7442 17.6166 33.1744 18.1865 32.4884 18.1865Z" fill="#151419"/>
<path d="M44.0919 24.8845C43.6571 24.8845 43.2379 24.6663 43.0041 24.2488C42.6525 23.646 42.8706 22.8753 43.4561 22.5409L44.9129 21.7043C45.5156 21.3526 46.2864 21.5708 46.6207 22.1563C46.9723 22.7591 46.7541 23.5299 46.1686 23.8642L44.7119 24.7009C44.511 24.8186 44.2928 24.8688 44.0919 24.8688V24.8845Z" fill="#151419"/>
<path d="M39.1864 19.9775C38.9682 19.9775 38.7516 19.9273 38.5664 19.8096C37.9636 19.4579 37.7627 18.6872 38.1143 18.1017L38.951 16.645C39.3026 16.0422 40.056 15.8413 40.6588 16.1929C41.2616 16.5445 41.4625 17.3153 41.1109 17.9008L40.2742 19.3575C40.0404 19.7593 39.6212 19.9932 39.1864 19.9932V19.9775Z" fill="#151419"/>
<path d="M25.7905 19.9775C25.3557 19.9775 24.9365 19.7593 24.7027 19.3418L23.866 17.8851C23.5144 17.2823 23.7326 16.5116 24.3181 16.1772C24.9209 15.8256 25.6916 16.0438 26.0259 16.6293L26.8626 18.086C27.2142 18.6888 26.996 19.4595 26.4105 19.7939C26.2096 19.9116 25.9914 19.9618 25.7905 19.9618V19.9775Z" fill="#151419"/>
<path d="M20.8851 24.8844C20.6669 24.8844 20.4503 24.8342 20.265 24.7165L18.8083 23.8798C18.2056 23.5282 18.0046 22.7575 18.3562 22.172C18.7079 21.5692 19.4786 21.3683 20.0641 21.7199L21.5208 22.5565C22.1236 22.9082 22.3245 23.6789 21.9729 24.2644C21.739 24.6662 21.3199 24.9001 20.8851 24.9001V24.8844Z" fill="#151419"/>
</svg>
