<svg width="64" height="64" viewBox="0 0 64 64" fill="none" xmlns="http://www.w3.org/2000/svg">
<rect width="64" height="64" rx="32" fill="white"/>
<path fill-rule="evenodd" clip-rule="evenodd" d="M20.5889 31.7186C21.2792 32.4058 21.2882 33.5196 20.6085 34.2175C19.9288 34.9168 18.815 34.9364 18.1096 34.2657L18.075 34.234V34.2325C17.3937 33.5528 17.3787 32.4526 18.0418 31.7548L18.075 31.7186C18.7698 31.0253 19.8941 31.0253 20.5889 31.7186ZM20.0237 32.9755C20.0207 32.6967 19.8519 32.4465 19.5957 32.3411C19.338 32.234 19.0411 32.2913 18.8421 32.4857L18.8195 32.5068H18.821C18.5693 32.7811 18.5799 33.2046 18.8421 33.4669L18.8617 33.488H18.8632C19.0652 33.6749 19.3591 33.7246 19.6108 33.6131C19.8625 33.5031 20.0252 33.2529 20.0252 32.9786L20.0237 32.9755ZM37.8414 33.8633C39.659 35.6794 40.5271 38.237 40.191 40.7843C39.8564 43.3314 38.3553 45.5771 36.1321 46.8611C33.9075 48.1452 31.2112 48.3231 28.8391 47.3389C26.4654 46.3562 24.6837 44.3261 24.0193 41.8454C23.3546 39.3647 23.8822 36.7151 25.4451 34.6775C27.008 32.6399 29.4315 31.4447 31.9995 31.4447C34.1909 31.4416 36.2934 32.3124 37.8414 33.8633ZM39.1767 39.7067C39.1752 37.4746 38.1383 35.3707 36.3674 34.0126C34.598 32.6547 32.2965 32.198 30.1412 32.7752C27.9875 33.3525 26.2227 34.8988 25.3697 36.9607C24.5151 39.0225 24.6689 41.363 25.7841 43.2953C26.9009 45.2274 28.8512 46.5311 31.0623 46.822C33.2748 47.1129 35.4962 46.3593 37.0743 44.7813C38.4217 43.4369 39.1782 41.61 39.1767 39.7067ZM28.6914 28.1738C28.3975 28.1663 28.1624 27.9251 28.1624 27.6313C28.1624 27.3374 28.3975 27.0962 28.6914 27.0887H35.3076C35.6015 27.0962 35.8366 27.3374 35.8366 27.6313C35.8366 27.9252 35.6015 28.1663 35.3076 28.1738H28.6914ZM32.5709 21.4098C32.5739 21.5575 32.5196 21.6992 32.4172 21.8032C32.3147 21.9087 32.1745 21.9675 32.0283 21.9675C31.8821 21.9675 31.742 21.9087 31.6395 21.8032C31.537 21.6992 31.4812 21.5575 31.4857 21.4098V15.529C31.4933 15.2351 31.7344 15 32.0283 15C32.3222 15 32.5633 15.2351 32.5709 15.529L32.5709 21.4098ZM27.1453 22.3699C27.2719 22.6397 27.1544 22.9607 26.8846 23.0873C26.6133 23.2139 26.2923 23.0979 26.1657 22.8266L23.6774 17.511C23.5508 17.2412 23.6684 16.9187 23.9381 16.7921C24.2079 16.667 24.5305 16.783 24.6571 17.0528L27.1453 22.3684V22.3699ZM37.8915 22.8266C37.7649 23.0978 37.4423 23.2139 37.1726 23.0873C36.9013 22.9607 36.7852 22.6397 36.9118 22.3699L39.4001 17.0543V17.0528C39.5267 16.783 39.8478 16.667 40.119 16.7921C40.3888 16.9187 40.5049 17.2412 40.3798 17.511L37.8915 22.8266ZM16.0003 33.0329V46.4073C15.9972 47.2859 16.3469 48.1284 16.9709 48.7464C17.5993 49.3673 18.4479 49.714 19.3311 49.711H44.6963C45.5749 49.717 46.4174 49.3703 47.0384 48.7494C47.6593 48.1284 48.0045 47.2859 48 46.4073V33.0329C48.003 32.1482 47.6563 31.2997 47.0354 30.6712C46.4174 30.0472 45.5749 29.6991 44.6978 29.7006H42.8877C42.217 29.7006 41.5539 29.5499 40.9495 29.259C40.3482 28.9696 39.8207 28.5476 39.4062 28.0232L37.9925 26.1573C37.682 25.764 37.2857 25.4444 36.832 25.2274C36.3753 25.0073 35.8734 24.8943 35.3655 24.8943H28.6058C27.584 24.8943 26.6179 25.363 25.9864 26.1679L24.5772 27.9885L24.5561 28.0171H24.5576C23.7181 29.0812 22.4385 29.7021 21.0851 29.7036H19.3308V29.7067C18.4476 29.7067 17.6006 30.0563 16.9766 30.6818C16.3511 31.3057 16 32.1543 16 33.0375L16.0003 33.0329ZM35.6837 36.0231C33.9264 34.2657 31.1714 33.996 29.1065 35.3765C27.0402 36.757 26.2369 39.4049 27.1879 41.7006C28.1389 43.9963 30.5805 45.3012 33.0174 44.8159C35.4544 44.3306 37.2086 42.1904 37.2086 39.7067C37.2101 38.3247 36.6618 36.9982 35.6837 36.0231ZM36.1238 39.7065C36.1238 37.7397 34.7342 36.0457 32.805 35.663C30.8759 35.2787 28.9437 36.3111 28.1917 38.1287C27.4381 39.9463 28.0741 42.0414 29.7094 43.1341C31.3461 44.2268 33.5255 44.0128 34.9165 42.6217C35.6897 41.85 36.1253 40.7992 36.1238 39.7065Z" fill="#151419"/>
</svg>
