<svg width="64" height="64" viewBox="0 0 64 64" fill="none" xmlns="http://www.w3.org/2000/svg">
<rect width="64" height="64" rx="32" fill="white"/>
<path d="M48.0477 42.3745V39.8645C48.0477 38.9618 47.3212 38.2315 46.426 38.2315H43.4735V36.4953H46.5353C47.0865 36.4969 47.5237 36.0327 47.4996 35.483C47.4996 34.9477 47.0689 34.5157 46.5353 34.5157H43.4735V32.8214H46.4244C47.3196 32.8214 48.0477 32.0911 48.0477 31.1932V28.6832C51.1191 27.6128 50.391 22.9799 47.0817 22.9539C43.7708 22.9861 43.0427 27.6061 46.1174 28.6832V30.8853H43.4734V29.8826C43.4734 28.2818 42.1748 26.9793 40.5788 26.9793H39.5373V23.3731C39.5373 19.2494 36.1991 15.8947 32.0814 15.8947C27.9717 15.8947 24.6254 19.2494 24.6254 23.3731V26.9793H23.584C21.988 26.9793 20.6893 28.2818 20.6893 29.8826V30.8853H17.904C17.904 30.8853 17.9024 28.6816 17.904 28.6832C20.9883 27.6064 20.2361 22.9782 16.9396 22.9539C15.3179 22.9539 14 24.2758 14 25.9023C14 27.1856 14.8229 28.2898 15.9737 28.6832V31.1931C15.9737 32.0911 16.7018 32.8213 17.597 32.8213H20.6893V34.5156H17.4861C16.9476 34.514 16.5041 34.9638 16.5234 35.5054C16.5041 36.0471 16.9476 36.4968 17.4861 36.4952H20.6893V38.233H17.597C16.7018 38.233 15.9737 38.9632 15.9737 39.8612V42.3744C14.8229 42.7677 14 43.8704 14 45.1552C14 46.7818 15.3179 48.1036 16.9396 48.1036C20.2505 48.0714 20.9786 43.4514 17.904 42.3743V40.169H20.7826C20.8276 40.169 20.871 40.1609 20.9143 40.1561C21.5894 42.4194 23.6868 44.0782 26.1571 44.0782H38.0057C40.476 44.0782 42.5671 42.4259 43.2423 40.1689H46.1176V42.3759C43.0333 43.4511 43.7855 48.0825 47.082 48.1052C50.3768 48.0778 51.1322 43.4575 48.0463 42.3759L48.0477 42.3745ZM35.3828 34.2255C35.3828 35.1219 35.0099 35.9811 34.367 36.6065L34.2062 38.2073C34.097 39.31 33.184 40.137 32.0831 40.137C30.9837 40.137 30.0692 39.3116 29.9599 38.2073L29.8056 36.6065C29.002 35.8392 28.6484 34.7414 28.8412 33.6387C29.6031 29.7069 35.333 30.2437 35.3828 34.2255ZM26.5575 23.3731C26.8532 16.0268 37.3178 16.0284 37.6087 23.3731V26.9793H26.5575V23.3731Z" fill="#151419"/>
</svg>
