<svg width="64" height="64" viewBox="0 0 64 64" fill="none" xmlns="http://www.w3.org/2000/svg">
<rect width="64" height="64" rx="32" fill="white"/>
<path fill-rule="evenodd" clip-rule="evenodd" d="M17.8606 32.565L21.8573 28.5682C20.3578 27.7918 19.1293 26.5633 18.3529 25.0638L14.3561 29.0605C13.3893 30.0274 13.3893 31.5996 14.3561 32.565C15.3214 33.5318 16.8937 33.5318 17.8606 32.565ZM33.3796 23.7726H47.4795C49.0728 23.7726 50.369 25.0688 50.369 26.662V40.6876H21.1409L21.1393 30.4666L22.6712 28.9348C27.0667 30.6313 31.9705 28.2341 33.3796 23.7726ZM26.7889 37.5692C26.7889 37.8 26.9762 37.9873 27.207 37.9873H30.077C30.3078 37.9873 30.4951 37.8 30.4951 37.5692L30.4935 32.2038C30.4935 31.973 30.3062 31.7857 30.0754 31.7857H27.2054C26.9745 31.7857 26.7873 31.973 26.7873 32.2038L26.7889 37.5692ZM31.5299 37.5692C31.5299 37.8 31.7172 37.9873 31.948 37.9873H34.8181C35.0489 37.9873 35.2361 37.8 35.2361 37.5692V29.1463C35.2361 28.9154 35.0489 28.7298 34.8181 28.7298H31.948C31.7172 28.7298 31.5299 28.9171 31.5299 29.1463V37.5692ZM36.2726 37.5692C36.2726 37.8 36.4599 37.9873 36.6907 37.9873H39.5607C39.7916 37.9873 39.9788 37.8 39.9788 37.5692V30.7058C39.9788 30.475 39.7916 30.2877 39.5607 30.2877H36.6907C36.4599 30.2877 36.2726 30.475 36.2726 30.7058V37.5692ZM41.0153 37.5692C41.0153 37.8 41.2026 37.9873 41.4334 37.9873H44.3034C44.5343 37.9873 44.7215 37.8 44.7215 37.5692L44.7199 26.7751C44.7199 26.5443 44.5326 26.3571 44.3018 26.3571H41.4318C41.2009 26.3571 41.0137 26.5443 41.0137 26.7751L41.0153 37.5692ZM25.5996 28.6442C21.5625 28.6442 18.2775 25.3593 18.2775 21.3221C18.2775 17.285 21.5624 14 25.5996 14C29.6368 14 32.9217 17.2849 32.9217 21.3221C32.9217 25.3592 29.6368 28.6442 25.5996 28.6442ZM22.7619 17.9745C24.4132 16.5766 26.8264 16.5911 28.4649 18.0003C28.544 18.0681 28.6409 18.102 28.7377 18.102C29.1219 18.102 29.3043 17.621 29.0105 17.3676C27.0686 15.6904 24.1794 15.6759 22.2227 17.3369C22.0468 17.487 22.0258 17.7501 22.1743 17.9261C22.3228 18.102 22.5859 18.123 22.7619 17.9745ZM39.8173 44.8314H31.6898V46.8507C31.6898 47.0816 31.5025 47.2688 31.2717 47.2688L27.1038 47.2672C26.7568 47.2672 26.4759 47.5497 26.4759 47.8967V49.3721C26.4759 49.7191 26.7584 50 27.1038 50H44.4047C44.7518 50 45.0326 49.7191 45.0326 49.3721V47.8967C45.0326 47.5497 44.7501 47.2672 44.4047 47.2672H40.2352C40.0043 47.2672 39.8171 47.08 39.8171 46.8491L39.8173 44.8314ZM50.3386 41.5239H21.1701C21.3735 42.9202 22.5776 43.9969 24.0288 43.9969H47.4799C48.931 43.9969 50.1352 42.9202 50.3386 41.5239ZM41.8496 27.193V37.1527H43.8851V27.193H41.8496ZM37.1069 31.1235V37.1526H39.1424V31.1235H37.1069ZM32.3658 29.5642V37.1524H34.3997V29.5642H32.3658ZM27.6232 32.6215V37.1526H29.6587V32.6215H27.6232Z" fill="#151419" stroke="white" stroke-width="0.4"/>
</svg>
