<svg width="64" height="64" viewBox="0 0 64 64" fill="none" xmlns="http://www.w3.org/2000/svg">
<rect width="64" height="64" rx="32" fill="white"/>
<path d="M48.9749 28.9712H37.6687C36.5437 28.9712 35.6437 29.8712 35.6437 30.9962V38.6462C35.6437 39.7712 36.5437 40.6712 37.6687 40.6712H48.9749C50.0999 40.6712 50.9999 39.7712 50.9999 38.6462V30.9962C50.9999 29.8712 50.0999 28.9712 48.9749 28.9712ZM45.0937 35.1024L42.1124 37.6899C41.9999 37.8024 41.8312 37.8024 41.6624 37.7462C41.4937 37.6899 41.4374 37.5212 41.4374 37.3524V32.1774C41.4374 32.0087 41.5499 31.8399 41.6624 31.7837C41.8312 31.7274 41.9999 31.7274 42.1124 31.8399L45.0937 34.4274C45.2062 34.4837 45.2624 34.6524 45.2624 34.7649C45.2624 34.8774 45.2062 35.0462 45.0937 35.1024Z" fill="#151419"/>
<path d="M30.3 33.3587C30.4688 33.2462 30.5813 32.9649 30.525 32.7399L29.625 29.3087C31.0312 29.3087 32.2125 28.1274 32.2125 26.7212V20.0274C32.2125 18.5649 31.0312 17.4399 29.625 17.4399H17.5875C16.1812 17.3837 15 18.5649 15 20.0274V26.7212C15 28.1837 16.1812 29.3087 17.5875 29.3087H22.875C23.8313 29.3087 23.8875 29.5337 29.625 33.3587C29.85 33.4712 30.1313 33.4712 30.3 33.3587ZM17.7 21.1524H29.5687C29.85 21.1524 30.1312 21.4337 30.1312 21.7149C30.1312 22.0524 29.85 22.2774 29.5687 22.2774H17.7C17.4188 22.2774 17.1375 22.0524 17.1375 21.7149C17.1375 21.4337 17.4188 21.1524 17.7 21.1524ZM17.7 25.9337C17.4188 25.9337 17.1375 25.7087 17.1375 25.3712C17.1375 25.0899 17.4188 24.8087 17.7 24.8087H29.5687C29.85 24.8087 30.1312 25.0899 30.1312 25.3712C30.1312 25.7087 29.85 25.9337 29.5687 25.9337H17.7Z" fill="#151419"/>
<path d="M40.0312 42.4149H25.7999V32.1211C25.3499 31.8399 24.9562 31.5586 24.6749 31.3336V45.6211C24.6749 47.3086 26.0249 48.6586 27.7124 48.6586H38.1749C39.8624 48.6586 41.2124 47.3086 41.2124 45.6211V41.7399H40.0874V42.4149H40.0312ZM32.8874 46.6899C32.2687 46.6899 31.7624 46.1836 31.7624 45.5649C31.7624 44.9461 32.2687 44.4399 32.8874 44.4399C33.5062 44.4399 34.0124 44.9461 34.0124 45.5649C34.0124 46.1836 33.5624 46.6899 32.8874 46.6899Z" fill="#151419"/>
<path d="M40.0313 27.1713V27.8463H41.1563V23.8525C41.1563 22.2775 39.8625 20.9838 38.2875 20.9838H33.3938C33.3938 27.0588 33.3938 26.7775 33.3375 27.2275H40.0313V27.1713Z" fill="#151419"/>
</svg>
