<svg width="60" height="60" viewBox="0 0 60 60" fill="none" xmlns="http://www.w3.org/2000/svg">
<rect width="60" height="60" rx="30" fill="#EFEFD0"/>
<path d="M44.5576 41.5897V34.2362L32.4602 37.8695C31.8239 38.0591 31.1635 38.1563 30.4995 38.1581C29.8307 38.1552 29.1657 38.0581 28.524 37.8696L16.4414 34.2362V41.5897C16.4446 42.2579 16.7115 42.8978 17.184 43.3704C17.6565 43.8429 18.2964 44.1097 18.9647 44.1129H42.0344C42.7026 44.1097 43.3426 43.8429 43.8151 43.3704C44.2876 42.8978 44.5544 42.2579 44.5576 41.5897Z" fill="#151419"/>
<path d="M46 24.2874C45.9992 23.6184 45.7331 22.9771 45.26 22.5041C44.787 22.0311 44.1457 21.765 43.4767 21.7641H40.2325V20.6736C40.2385 19.7964 39.9511 18.9424 39.4159 18.2473C38.8808 17.5522 38.1287 17.0559 37.2791 16.8373C32.8317 15.7219 28.1778 15.7209 23.73 16.8344C22.8787 17.0523 22.1248 17.5485 21.588 18.2441C21.0512 18.9398 20.7624 19.7949 20.7675 20.6736V21.7641H17.5233C16.8543 21.765 16.213 22.0311 15.74 22.5041C15.2669 22.9771 15.0008 23.6184 15 24.2874V30.4237C14.9976 30.9671 15.1716 31.4965 15.496 31.9324C15.8204 32.3683 16.2776 32.6871 16.7988 32.8407L28.9462 36.4847C29.9592 36.7908 31.0401 36.7908 32.0531 36.4847L44.2012 32.8407C44.7224 32.6871 45.1796 32.3683 45.504 31.9324C45.8284 31.4965 46.0024 30.9671 46 30.4237V24.2874ZM22.9302 20.6736C22.9256 20.2769 23.0536 19.8901 23.2941 19.5746C23.5346 19.2591 23.8736 19.0331 24.2573 18.9325C28.3587 17.9056 32.6501 17.9066 36.751 18.9354C37.1332 19.0366 37.4706 19.2626 37.7095 19.5775C37.9485 19.8925 38.0753 20.2783 38.0698 20.6736V21.7641H22.9302V20.6736ZM30.5 33.6595C30.0722 33.6595 29.6541 33.5326 29.2984 33.295C28.9428 33.0573 28.6655 32.7195 28.5018 32.3243C28.3381 31.9291 28.2953 31.4943 28.3788 31.0747C28.4622 30.6552 28.6682 30.2698 28.9707 29.9674C29.2731 29.6649 29.6585 29.4589 30.0781 29.3755C30.4976 29.292 30.9325 29.3348 31.3277 29.4985C31.7229 29.6622 32.0606 29.9394 32.2983 30.2951C32.5359 30.6508 32.6628 31.0689 32.6628 31.4967C32.6628 32.0703 32.4349 32.6204 32.0293 33.026C31.6237 33.4316 31.0736 33.6594 30.5 33.6595Z" fill="#151419"/>
</svg>
