<svg width="60" height="60" viewBox="0 0 60 60" fill="none" xmlns="http://www.w3.org/2000/svg">
<rect width="60" height="60" rx="30" fill="#EFEFD0"/>
<path fill-rule="evenodd" clip-rule="evenodd" d="M11.6224 24.195C11.253 24.0887 11 23.7497 11 23.3668C11 22.9822 11.253 22.6448 11.6224 22.5369L28.9898 16.272C29.953 15.9093 31.0157 15.9093 31.9788 16.272L49.3462 22.5369C49.7157 22.6448 49.9687 22.9821 49.9687 23.3668C49.9687 23.7497 49.7157 24.0887 49.3462 24.195L31.9788 30.4616C31.0157 30.8242 29.953 30.8242 28.9898 30.4616L14.2609 25.1498V35.9893C14.8276 36.1344 15.2712 36.5747 15.4231 37.1397C15.5749 37.7048 15.4112 38.307 14.9946 38.7186L16.0792 42.9895V42.9878C16.1433 43.2307 16.0876 43.4888 15.9325 43.6845C15.7823 43.8852 15.5445 44.0033 15.2931 43.9999H12.4222C12.1709 44.0033 11.9331 43.8852 11.7829 43.6845C11.626 43.4888 11.5721 43.2307 11.6362 42.9878L12.7208 38.7169L12.7191 38.7186C12.407 38.4132 12.2333 37.9966 12.235 37.5614C12.235 36.8192 12.736 36.1732 13.4528 35.9893V24.8565L11.6224 24.195ZM42.4454 27.5467L32.2553 31.2256C31.1133 31.6523 29.8549 31.6523 28.713 31.2256L18.5229 27.5467V33.2294C18.5144 33.8519 18.8704 34.4237 19.4338 34.6885C25.4793 37.6083 35.5022 37.6083 41.5343 34.6885C42.0977 34.4237 42.4537 33.8519 42.4452 33.2294L42.4454 27.5467Z" fill="#151419"/>
</svg>
