<svg width="64" height="64" viewBox="0 0 64 64" fill="none" xmlns="http://www.w3.org/2000/svg">
<rect width="64" height="64" rx="32" fill="white"/>
<path fill-rule="evenodd" clip-rule="evenodd" d="M43.2 48H24V16H43.2C44.7469 16 46 17.2531 46 18.8V45.2C46 46.7469 44.7469 48 43.2 48ZM20.8 16H22.8V48H20.8C19.2531 48 18 46.7469 18 45.2V18.8C18 17.2531 19.2531 16 20.8 16ZM28.8 39.6C28.4688 39.6 28.2 39.8688 28.2 40.2C28.2 40.5312 28.4688 40.8 28.8 40.8H40.8C41.1312 40.8 41.4 40.5312 41.4 40.2C41.4 39.8688 41.1312 39.6 40.8 39.6H28.8ZM29.4 43.4C29.4 43.0688 29.6688 42.8 30 42.8H39.2C39.5312 42.8 39.8 43.0688 39.8 43.4C39.8 43.7312 39.5312 44 39.2 44H30C29.6688 44 29.4 43.7312 29.4 43.4ZM32.6266 25.9764L27.7018 28.5405C27.3049 28.7467 27.0564 29.1546 27.0549 29.6014L27.0533 30.3998C27.0518 30.6733 27.3174 30.8655 27.5768 30.7827L32.6736 29.1342C32.9251 29.053 33.1829 29.2311 33.197 29.4951L33.3517 32.6108C33.3736 33.067 33.1361 33.4967 32.7376 33.7186L31.5001 34.4092C31.3813 34.4749 31.3032 34.5983 31.2954 34.7342L31.236 35.742C31.2188 36.0295 31.5032 36.2405 31.7735 36.1405L34.5126 35.1342C34.6032 35.1014 34.7017 35.1014 34.7923 35.1342L37.4548 36.1389C37.7157 36.2373 37.9954 36.0436 37.9954 35.7655L37.9986 34.7577C37.9986 34.5983 37.9048 34.4545 37.7595 34.3905L36.6845 33.9155C36.2283 33.7124 35.9439 33.2498 35.972 32.7514L36.1423 29.6811C36.1564 29.4295 36.397 29.253 36.6408 29.3155L41.8956 30.6639C42.1487 30.7295 42.394 30.5389 42.3956 30.278L42.3971 29.6436C42.3987 29.2124 42.169 28.8139 41.7956 28.5998L37.0144 25.8498C36.6409 25.6358 36.4112 25.2374 36.4128 24.8061L36.4206 22.042C36.4206 22.042 36.4253 20.1967 34.6956 20.317C33.1394 20.4264 33.1644 21.9279 33.1847 22.2295C33.1863 22.2357 33.1863 22.242 33.1863 22.2482C33.1878 22.2764 33.1909 22.306 33.1909 22.3357L33.2722 24.8732C33.2863 25.3342 33.0359 25.7639 32.6266 25.9764Z" fill="#151419"/>
</svg>
