<svg width="64" height="64" viewBox="0 0 64 64" fill="none" xmlns="http://www.w3.org/2000/svg">
<rect width="64" height="64" rx="32" fill="white"/>
<path d="M32 20.2996C33.4634 20.2996 34.6498 19.1132 34.6498 17.6498C34.6498 16.1863 33.4634 15 32 15C30.5366 15 29.3502 16.1863 29.3502 17.6498C29.3502 19.1132 30.5366 20.2996 32 20.2996Z" fill="#151419"/>
<path d="M35.9491 22.8505V27.5288C35.9492 27.8169 35.8408 28.0946 35.6454 28.3064L34.9953 28.9869V35.2569C34.9981 35.5587 34.8816 35.8494 34.671 36.0656C34.4605 36.2818 34.173 36.4061 33.8713 36.4113H30.1287C29.827 36.4061 29.5395 36.2818 29.329 36.0656C29.1184 35.8494 29.0019 35.5587 29.0047 35.2569V28.9869L28.3546 28.3064C28.1592 28.0946 28.0508 27.8169 28.0508 27.5288V22.8505C28.0516 22.6043 28.1012 22.3606 28.1967 22.1336C28.3245 21.8253 28.54 21.5614 28.8165 21.3745C29.093 21.1877 29.4183 21.0861 29.752 21.0825H34.248C34.5817 21.0861 34.907 21.1877 35.1835 21.3745C35.46 21.5614 35.6755 21.8253 35.8033 22.1336C35.8988 22.3606 35.9483 22.6043 35.9491 22.8505Z" fill="#151419"/>
<path d="M37.4681 21.4678C38.7378 21.4678 39.7672 20.4385 39.7672 19.1687C39.7672 17.8989 38.7378 16.8696 37.4681 16.8696C36.1983 16.8696 35.1689 17.8989 35.1689 19.1687C35.1689 20.4385 36.1983 21.4678 37.4681 21.4678Z" fill="#151419"/>
<path d="M26.5319 21.4678C27.8017 21.4678 28.831 20.4385 28.831 19.1687C28.831 17.8989 27.8017 16.8696 26.5319 16.8696C25.2621 16.8696 24.2328 17.8989 24.2328 19.1687C24.2328 20.4385 25.2621 21.4678 26.5319 21.4678Z" fill="#151419"/>
<path d="M40.8461 23.7011V27.5773C40.8466 27.8423 40.7442 28.0972 40.5605 28.2881L40.0502 28.8289V33.9749C40.0524 34.1126 40.0274 34.2494 39.9766 34.3774C39.9259 34.5054 39.8504 34.6221 39.7544 34.7209C39.6585 34.8197 39.544 34.8985 39.4175 34.953C39.291 35.0074 39.155 35.0364 39.0173 35.0382H36.2104V29.4729L36.5263 29.1387C36.9396 28.705 37.1684 28.1278 37.1643 27.5287V22.8505C37.1651 22.6086 37.1344 22.3676 37.0731 22.1335H39.3272C39.7362 22.1407 40.1258 22.3096 40.4105 22.6035C40.6952 22.8973 40.8519 23.292 40.8461 23.7011Z" fill="#151419"/>
<path d="M27.4737 29.1387L27.7896 29.4729V35.0382H24.9827C24.845 35.0364 24.709 35.0074 24.5825 34.953C24.456 34.8985 24.3415 34.8197 24.2456 34.7209C24.1496 34.6221 24.0741 34.5054 24.0234 34.3774C23.9726 34.2494 23.9476 34.1126 23.9498 33.9749V28.8289L23.4395 28.2881C23.2557 28.0972 23.1534 27.8423 23.1539 27.5773V23.7011C23.1481 23.292 23.3048 22.8973 23.5895 22.6035C23.8742 22.3096 24.2637 22.1407 24.6728 22.1335H26.9269C26.8656 22.3676 26.8349 22.6086 26.8357 22.8505V27.5287C26.8327 28.1276 27.0613 28.7044 27.4737 29.1387Z" fill="#151419"/>
<path d="M29.6791 44.7471H22.0846C21.7491 44.7471 21.4771 45.0191 21.4771 45.3546V48.3924C21.4771 48.728 21.7491 49 22.0846 49H29.6791C30.0147 49 30.2867 48.728 30.2867 48.3924V45.3546C30.2867 45.0191 30.0147 44.7471 29.6791 44.7471Z" fill="#151419"/>
<path d="M29.4665 43.532H22.0846C22.0177 43.532 21.9509 43.5381 21.8841 43.5441C21.398 43.0034 20.1586 41.8551 16.574 38.3616C16.1511 37.9433 15.8796 37.3961 15.8024 36.8063C15.2921 32.8645 15.4007 28.8671 16.1244 24.9588C16.1381 24.8866 16.1684 24.8185 16.2129 24.7599C16.2575 24.7014 16.3151 24.6541 16.3811 24.6216C16.4471 24.5892 16.5198 24.5726 16.5933 24.5731C16.6669 24.5737 16.7393 24.5913 16.8049 24.6247C17.769 25.0767 18.5303 25.8717 18.9403 26.8545C19.3503 27.8373 19.3796 28.9376 19.0225 29.9408C18.8914 30.3293 18.9043 30.7519 19.0589 31.1317C19.1163 31.4194 19.1976 31.7019 19.3019 31.9762C17.9835 32.2617 17.6008 34.0358 18.6397 35.2084L21.6654 38.6229C21.7719 38.7429 21.9217 38.8158 22.0819 38.8257C22.2421 38.8355 22.3997 38.7815 22.5202 38.6755C22.6407 38.5695 22.7143 38.42 22.7249 38.2599C22.7355 38.0997 22.6822 37.9419 22.5767 37.8209L19.545 34.4003C18.743 33.4951 19.788 32.1159 21.1854 33.5011C22.0299 34.3335 22.9109 35.1294 23.7736 35.9435C24.1564 36.3263 24.7275 36.2352 25.2864 36.3445C26.2876 36.5311 27.2089 37.0161 27.9293 37.7359C29.6001 39.3945 29.4968 41.3083 29.4665 43.532Z" fill="#151419"/>
<path d="M41.9154 44.7471H34.3209C33.9853 44.7471 33.7133 45.0191 33.7133 45.3546V48.3924C33.7133 48.728 33.9853 49 34.3209 49H41.9154C42.251 49 42.523 48.728 42.523 48.3924V45.3546C42.523 45.0191 42.251 44.7471 41.9154 44.7471Z" fill="#151419"/>
<path d="M48.1976 36.8063C48.1204 37.3961 47.8489 37.9433 47.426 38.3616C43.8414 41.8551 42.6019 43.0034 42.122 43.5441H42.1159C42.049 43.5381 41.9822 43.532 41.9154 43.532H34.5335C34.5031 41.3083 34.3998 39.3945 36.0706 37.7359C36.7911 37.0161 37.7124 36.5311 38.7135 36.3445C39.2543 36.2413 39.8497 36.3202 40.2264 35.9435C41.0891 35.1294 41.9701 34.3335 42.8146 33.5011C44.212 32.1159 45.257 33.4951 44.455 34.4003L41.4233 37.8209C41.3178 37.9419 41.2645 38.0997 41.2751 38.2599C41.2857 38.42 41.3593 38.5695 41.4798 38.6755C41.6003 38.7815 41.7578 38.8355 41.918 38.8257C42.0782 38.8158 42.228 38.7429 42.3346 38.6229L45.3603 35.2084C46.3992 34.0358 46.0164 32.2617 44.698 31.9762C44.8023 31.7019 44.8836 31.4194 44.941 31.1317C45.0956 30.7519 45.1086 30.3293 44.9775 29.9408C44.6204 28.9376 44.6497 27.8373 45.0597 26.8545C45.4696 25.8717 46.2309 25.0767 47.1951 24.6247C47.2606 24.5913 47.3331 24.5737 47.4066 24.5731C47.4802 24.5726 47.5528 24.5892 47.6189 24.6216C47.6849 24.6541 47.7425 24.7014 47.787 24.7599C47.8316 24.8185 47.8619 24.8866 47.8756 24.9588C48.5992 28.8671 48.7079 32.8645 48.1976 36.8063Z" fill="#151419"/>
</svg>
