<?xml version="1.0" encoding="utf-8"?>
<!-- Generator: Adobe Illustrator 27.4.0, SVG Export Plug-In . SVG Version: 6.00 Build 0)  -->
<svg version="1.1" id="Layer_1" xmlns="http://www.w3.org/2000/svg" xmlns:xlink="http://www.w3.org/1999/xlink" x="0px" y="0px"
	 viewBox="0 0 252 126" style="enable-background:new 0 0 252 126;" xml:space="preserve">
<style type="text/css">
	.st0{fill:#252F3E;}
	.st1{fill-rule:evenodd;clip-rule:evenodd;fill:#FF9900;}
	.st2{fill:none;stroke:#D6CBFF;stroke-width:2.893;}
	.st3{fill-rule:evenodd;clip-rule:evenodd;fill:#7B58E5;}
	.st4{fill:none;stroke:#7B58E5;stroke-width:2.893;}
	.st5{fill:none;stroke:#72777C;stroke-width:2.0894;}
	.st6{fill:none;stroke:#72777C;stroke-width:1.9287;}
	.st7{fill:none;stroke:#7B58E5;stroke-width:1.9287;}
	.st8{fill:none;stroke:#72777C;stroke-width:2.0894;stroke-miterlimit:4;}
	.st9{fill:none;stroke:#72777C;stroke-width:1.9287;stroke-miterlimit:4;}
	.st10{fill:none;stroke:#787878;stroke-width:2.0894;}
	.st11{fill:none;stroke:#7B58E5;stroke-width:1.9287;stroke-miterlimit:4;}
	.st12{fill:none;stroke:#787878;stroke-width:2.0894;stroke-miterlimit:4;}
	.st13{fill:none;stroke:#787878;stroke-width:1.9287;}
	.st14{fill:#6C4DEA;}
	.st15{fill:#72777C;}
	.st16{fill-rule:evenodd;clip-rule:evenodd;fill:#002D72;}
	.st17{fill:#002D72;}
	.st18{fill:#332A86;}
	.st19{fill:#00356B;}
	.st20{fill:#000D74;}
	.st21{fill:#4285F4;}
	.st22{fill:#EA4335;}
	.st23{fill:#FBBC05;}
	.st24{fill:#34A853;}
	.st25{fill:#1C2B33;}
	.st26{fill:#0081FB;}
	.st27{fill:url(#Logo1_00000138548740082068129480000001601456781889290923_);}
	.st28{fill:url(#Logo2_00000168102115251859559600000007364813665022105503_);}
</style>
<g>
	<circle class="st2" cx="65.6" cy="63" r="43.7"/>
	<path class="st3" d="M67,95.6c-0.5,0-1,0-1.4,0C47.6,95.6,33,81,33,63c0-18,14.6-32.6,32.6-32.6c18,0,32.6,14.6,32.6,32.6
		c0,15.5-10.9,28.5-25.4,31.8v3C89,94.4,101.1,80.1,101.1,63c0-19.6-15.9-35.5-35.5-35.5C46,27.5,30.1,43.4,30.1,63
		c0,19.6,15.9,35.5,35.5,35.5c0.5,0,1,0,1.4,0V95.6z"/>
	<line class="st4" x1="65.6" y1="98.5" x2="65.6" y2="76.6"/>
	<path class="st5" d="M65.5,45.2v10"/>
	<circle class="st6" cx="65.6" cy="42.7" r="3.1"/>
	<line class="st5" x1="72.5" y1="52.4" x2="67.9" y2="57"/>
	<line class="st5" x1="65.5" y1="61.9" x2="65.5" y2="71.8"/>
	<circle class="st6" cx="65.6" cy="58.4" r="3.1"/>
	<circle class="st7" cx="74.2" cy="50.8" r="3.1"/>
	<line class="st8" x1="58.7" y1="52.4" x2="63.3" y2="57"/>
	<circle class="st9" cx="56.9" cy="50.8" r="3.1"/>
	<line class="st10" x1="72.4" y1="68.1" x2="67.7" y2="72.8"/>
	<line class="st8" x1="75.8" y1="68.1" x2="80.5" y2="72.8"/>
	<circle class="st11" cx="82.6" cy="74.2" r="3.1"/>
	<line class="st5" x1="80.9" y1="60.4" x2="76.2" y2="65.1"/>
	<circle class="st6" cx="74.1" cy="66.5" r="3.1"/>
	<circle class="st6" cx="82.6" cy="58.8" r="3.1"/>
	<line class="st12" x1="58.8" y1="68.1" x2="63.4" y2="72.8"/>
	<line class="st10" x1="55.4" y1="68.1" x2="50.7" y2="72.8"/>
	<circle class="st13" cx="48.6" cy="74.2" r="3.1"/>
	<line class="st12" x1="50.3" y1="60.4" x2="54.9" y2="65.1"/>
	<circle class="st11" cx="57.1" cy="66.5" r="3.1"/>
	<circle class="st9" cx="48.6" cy="58.8" r="3.1"/>
	<circle class="st6" cx="65.6" cy="74" r="3.1"/>
	<path class="st14" d="M134.9,58.3c-1.3,0-2.4-0.2-3.5-0.6s-1.8-1-2.5-1.9c-0.6-0.8-0.9-1.8-1-3h4.6c0.1,0.7,0.3,1.2,0.7,1.5
		c0.4,0.3,0.9,0.5,1.5,0.5c0.6,0,1.1-0.1,1.5-0.4c0.4-0.3,0.6-0.7,0.6-1.2c0-0.4-0.2-0.8-0.5-1.1c-0.3-0.3-0.6-0.5-1.1-0.7
		c-0.4-0.2-1-0.4-1.8-0.6c-1.1-0.4-2.1-0.7-2.8-1.1c-0.7-0.4-1.3-0.9-1.9-1.6c-0.5-0.7-0.8-1.6-0.8-2.7c0-1.6,0.6-2.9,1.8-3.8
		c1.2-0.9,2.7-1.4,4.6-1.4c1.9,0,3.5,0.5,4.7,1.4c1.2,0.9,1.8,2.2,1.9,3.9h-4.6c0-0.6-0.2-1-0.6-1.3c-0.4-0.3-0.9-0.5-1.5-0.5
		c-0.5,0-0.9,0.1-1.3,0.4c-0.3,0.3-0.5,0.7-0.5,1.2c0,0.6,0.3,1,0.8,1.3s1.4,0.7,2.5,1c1.1,0.4,2.1,0.8,2.8,1.1
		c0.7,0.4,1.3,0.9,1.9,1.5c0.5,0.7,0.8,1.5,0.8,2.6c0,1-0.3,1.9-0.8,2.7c-0.5,0.8-1.2,1.5-2.2,2C137.4,58,136.3,58.3,134.9,58.3z
		 M148.3,52.2v5.9H144V39.5h4.3v10.3l4.2-5.7h5.3l-5.8,7l5.9,7h-5.3L148.3,52.2 M161.7,42.6c-0.8,0-1.4-0.2-1.9-0.7
		c-0.5-0.5-0.7-1-0.7-1.7c0-0.7,0.2-1.2,0.7-1.7c0.5-0.5,1.1-0.7,1.9-0.7c0.7,0,1.3,0.2,1.8,0.7c0.5,0.4,0.7,1,0.7,1.7
		c0,0.7-0.2,1.2-0.7,1.7C163.1,42.4,162.5,42.6,161.7,42.6z M163.8,44.1v14h-4.3v-14H163.8z M171.3,39.5v18.6H167V39.5H171.3z
		 M178.7,39.5v18.6h-4.3V39.5H178.7z M187.5,58.3c-1.2,0-2.3-0.2-3.3-0.6c-1-0.4-1.7-1-2.3-1.7c-0.6-0.7-0.9-1.6-0.9-2.5h4.2
		c0.1,0.5,0.3,0.9,0.7,1.2c0.4,0.3,0.9,0.5,1.5,0.5c0.5,0,0.9-0.1,1.2-0.3c0.3-0.2,0.5-0.5,0.5-0.8c0-0.4-0.2-0.7-0.6-0.9
		c-0.4-0.2-1.1-0.4-2-0.7c-1-0.2-1.8-0.5-2.5-0.7c-0.7-0.3-1.2-0.7-1.7-1.2c-0.5-0.6-0.7-1.3-0.7-2.3c0-0.8,0.2-1.5,0.7-2.2
		c0.5-0.7,1.1-1.2,2-1.6c0.9-0.4,1.9-0.6,3.1-0.6c1.8,0,3.1,0.4,4.1,1.3c1,0.9,1.6,2,1.8,3.5h-4c-0.1-0.5-0.3-0.9-0.7-1.2
		c-0.4-0.3-0.8-0.4-1.4-0.4c-0.5,0-0.9,0.1-1.2,0.3c-0.3,0.2-0.4,0.4-0.4,0.8c0,0.4,0.2,0.7,0.6,0.9c0.4,0.2,1.1,0.4,2,0.6
		c1,0.3,1.9,0.5,2.5,0.8c0.7,0.3,1.2,0.7,1.7,1.3c0.5,0.6,0.8,1.3,0.8,2.3c0,0.8-0.2,1.6-0.7,2.2c-0.5,0.6-1.1,1.1-2,1.5
		C189.6,58.1,188.6,58.3,187.5,58.3z"/>
	<path class="st15" d="M143.2,84.7h-2.9l-8.6-13v13h-2.9V67.2h2.9l8.6,13v-13h2.9V84.7z M159.7,77.4c0,0.5,0,1-0.1,1.4H149
		c0.1,1.1,0.5,2,1.2,2.7c0.7,0.7,1.6,1,2.7,1c1.5,0,2.6-0.6,3.3-1.9h3.1c-0.4,1.3-1.2,2.3-2.3,3.1c-1.1,0.8-2.4,1.2-4.1,1.2
		c-1.3,0-2.5-0.3-3.6-0.9c-1-0.6-1.9-1.4-2.5-2.5c-0.6-1.1-0.9-2.3-0.9-3.8c0-1.4,0.3-2.7,0.9-3.7c0.6-1.1,1.4-1.9,2.4-2.5
		c1.1-0.6,2.3-0.9,3.6-0.9c1.3,0,2.5,0.3,3.5,0.9s1.8,1.4,2.4,2.4C159.4,74.9,159.7,76.1,159.7,77.4z M156.7,76.5
		c0-1.1-0.4-1.9-1.1-2.5c-0.7-0.6-1.7-1-2.7-1c-1,0-1.8,0.3-2.5,1c-0.7,0.6-1.1,1.5-1.3,2.5H156.7z M165.8,73.2v7.7
		c0,0.5,0.1,0.9,0.4,1.1c0.3,0.2,0.7,0.3,1.3,0.3h1.8v2.4H167c-1.3,0-2.3-0.3-3-0.9c-0.7-0.6-1-1.6-1-2.9v-7.7h-1.6v-2.3h1.6v-3.4
		h2.9v3.4h3.4v2.3H165.8z M190.5,70.8l-4.3,13.8h-3l-2.8-10.2l-2.8,10.2h-3l-4.3-13.8h2.9L176,82l2.9-11.1h3l2.8,11.1l2.9-11.1
		H190.5z M198.6,84.9c-1.3,0-2.5-0.3-3.5-0.9c-1.1-0.6-1.9-1.4-2.5-2.5c-0.6-1.1-0.9-2.3-0.9-3.8c0-1.4,0.3-2.7,0.9-3.7
		c0.6-1.1,1.5-1.9,2.5-2.5c1.1-0.6,2.3-0.9,3.6-0.9c1.3,0,2.5,0.3,3.6,0.9c1.1,0.6,1.9,1.4,2.5,2.5c0.6,1.1,0.9,2.3,0.9,3.7
		s-0.3,2.7-1,3.7c-0.6,1.1-1.5,1.9-2.6,2.5C201.1,84.6,199.9,84.9,198.6,84.9z M198.6,82.4c0.7,0,1.4-0.2,2.1-0.5
		c0.7-0.4,1.2-0.9,1.6-1.6c0.4-0.7,0.6-1.6,0.6-2.6c0-1-0.2-1.9-0.6-2.5c-0.4-0.7-0.9-1.2-1.5-1.6c-0.6-0.4-1.3-0.5-2.1-0.5
		c-0.7,0-1.4,0.2-2.1,0.5c-0.6,0.4-1.1,0.9-1.5,1.6c-0.4,0.7-0.6,1.5-0.6,2.5c0,1.5,0.4,2.6,1.1,3.5C196.5,82,197.4,82.4,198.6,82.4
		z M211.5,72.8c0.4-0.7,1-1.2,1.7-1.6c0.7-0.4,1.5-0.6,2.5-0.6v3h-0.7c-1.1,0-2,0.3-2.6,0.9c-0.6,0.6-0.9,1.6-0.9,3v7.3h-2.9V70.8
		h2.9V72.8z M223.8,77.8l6.4,6.9h-3.9l-5.1-6v6h-2.9V66.1h2.9v10.8l5-6.1h4L223.8,77.8z"/>
</g>
</svg>
