<?xml version="1.0" encoding="utf-8"?>
<!-- Generator: Adobe Illustrator 27.7.0, SVG Export Plug-In . SVG Version: 6.00 Build 0)  -->
<svg version="1.1" id="Layer_1" xmlns="http://www.w3.org/2000/svg" xmlns:xlink="http://www.w3.org/1999/xlink" x="0px" y="0px"
	 viewBox="0 0 252 126" style="enable-background:new 0 0 252 126;" xml:space="preserve">
<style type="text/css">
	.st0{fill:#00548F;}
	.st1{fill:#549DC5;}
</style>
<g>
	<path class="st0" d="M36.6,59.3V40.5h3.7v18.8H36.6z"/>
	<path class="st0" d="M45.7,47.4L45.7,47.4c0.9-1.2,2.6-1.9,4.2-1.9c1.6,0,3.1,0.7,3.8,1.9c1.1-1.1,2.8-1.9,4.3-1.9
		c2.9,0,4.5,1.8,4.5,4.9v8.8h-3.5v-8.2c0-1.6-0.5-3.2-2.2-3.2c-1.7,0-2.7,1-2.7,3.4v8h-3.5v-8.2c0-1.9-0.8-3.2-2.3-3.2
		c-1.6,0-2.7,1.2-2.7,3.4v7.9h-3.5V45.9h3.4C45.7,45.9,45.7,47.4,45.7,47.4z"/>
	<path class="st0" d="M71.4,47.7c2,0,3,2.3,3,4.6c0,2.4-0.8,5.2-3.1,5.2c-1.9,0-3.2-1.9-3.2-4.7C68,49.6,69.2,47.7,71.4,47.7z
		 M68,45.9h-3.5V66H68v-8.4c1,1.2,2.3,2,3.9,2c3.7,0,6.1-3.8,6.1-7.3c0-3-1.7-6.7-5.8-6.7c-1.6,0-3.3,0.8-4.2,2.2H68
		C68,47.7,68,45.9,68,45.9z"/>
	<path class="st0" d="M83,51c0-1.8,0.9-3.4,2.8-3.4c1.7,0,2.4,1.4,2.3,3.4H83z M91.4,52.9c0.3-4-1.4-7.4-5.5-7.4
		c-3.7,0-6.7,2.6-6.7,6.8c0,4.4,3,7.3,6.9,7.3c1.5,0,3.3-0.4,5.1-1.5l-1-1.9c-0.9,0.6-2.2,1.1-3.5,1.1c-2.2,0-3.9-1.9-3.8-4.4
		L91.4,52.9L91.4,52.9z"/>
	<path class="st0" d="M96.5,48.2L96.5,48.2l0.8-1c0.4-0.6,1.2-1.6,2.2-1.6c0.8,0,1.6,0.4,2.4,1.2l-1.3,2.5c-0.6-0.3-0.9-0.5-1.6-0.5
		c-1.2,0-2.4,1-2.4,3.9v6.6h-3.5V45.9h3.5L96.5,48.2L96.5,48.2z"/>
	<path class="st0" d="M106.5,45.9v13.4H103V45.9H106.5z M102.7,41.8c0-1,0.8-2.1,2-2.1c1.2,0,2.1,1,2.1,2.1c0,1.2-0.8,2.3-2.1,2.3
		C103.5,44.1,102.7,43,102.7,41.8z"/>
	<path class="st0" d="M115.9,51.5c0.3,3.9-1.5,5.7-2.9,5.7c-0.8,0-1.6-0.8-1.6-2c0-1.5,0.9-2.5,2.6-3.1L115.9,51.5z M115.9,57.3
		c0,0.7,0.1,1.5,0.3,2h3.7c-0.4-0.9-0.5-2.2-0.5-3.3v-5.5c0-4.2-3-5-5.4-5c-1.8,0-3.4,0.5-5,1.8l1.1,1.7c0.9-0.8,2-1.4,3.5-1.4
		c1.1,0,2.2,0.8,2.4,2l-3.1,0.9c-3,0.9-4.8,2.3-4.8,4.9c0,2.5,1.7,4.1,3.7,4.1c1.2,0,2.4-0.8,3.3-1.6L115.9,57.3z"/>
	<path class="st0" d="M121.5,59.3V39.6h3.5v19.7H121.5z"/>
	<path class="st0" d="M147.9,43.9c-0.9-0.5-2.4-1-3.8-1c-3.8,0-6.5,2.7-6.5,7c0,4.5,3,7.1,6.6,7.1c1.4,0,2.7-0.4,3.7-0.9l1,2.3
		c-1.1,0.7-3.1,1.3-4.9,1.3c-6.4,0-10.3-4.3-10.3-9.8c0-5.1,4-9.6,10.4-9.6c1.9,0,3.7,0.7,4.9,1.5L147.9,43.9z"/>
	<path class="st0" d="M155.8,57.6c-2.5,0-3.2-2.8-3.2-5.2c0-2.2,0.8-4.9,3.2-4.9c2.4,0,3.2,2.7,3.2,4.9
		C159,54.8,158.4,57.6,155.8,57.6z M155.8,59.6c4.1,0,6.9-3,6.9-7.2c0-4.3-3.3-6.9-6.9-6.9c-3.5,0-6.8,2.5-6.8,6.9
		C149,56.6,151.8,59.6,155.8,59.6z"/>
	<path class="st0" d="M164.2,59.3V39.6h3.5v19.7H164.2z"/>
	<path class="st0" d="M169.9,59.3V39.6h3.5v19.7H169.9z"/>
	<path class="st0" d="M178.6,51c0-1.8,0.9-3.4,2.8-3.4c1.7,0,2.4,1.4,2.3,3.4H178.6z M187,52.9c0.3-4-1.4-7.4-5.5-7.4
		c-3.7,0-6.7,2.6-6.7,6.8c0,4.4,3,7.3,6.9,7.3c1.5,0,3.3-0.4,5.1-1.5l-1-1.9c-0.9,0.6-2.2,1.1-3.5,1.1c-2.2,0-3.9-1.9-3.8-4.4
		L187,52.9L187,52.9z"/>
	<path class="st0" d="M206.9,51c0-1.8,0.9-3.4,2.8-3.4c1.7,0,2.4,1.4,2.3,3.4H206.9z M215.3,52.9c0.3-4-1.4-7.4-5.5-7.4
		c-3.7,0-6.7,2.6-6.7,6.8c0,4.4,3,7.3,6.9,7.3c1.5,0,3.3-0.4,5.1-1.5l-1-1.9c-0.9,0.6-2.2,1.1-3.5,1.1c-2.2,0-3.9-1.9-3.8-4.4
		L215.3,52.9L215.3,52.9z"/>
	<path class="st0" d="M195.1,47.7c2.1,0,3.2,2.2,3.2,4.5c0,2.7-1,5.3-3.3,5.3c-2,0-3-2.5-3-5.1C191.9,49.7,192.8,47.7,195.1,47.7z
		 M201.7,45.9h-3.5v1.6h-0.1c-0.7-1.2-2.3-2-3.9-2c-3.6,0-6.1,3.4-6.1,6.9c0,4.3,2.3,7.2,5.7,7.2c2,0,3.3-1.1,4.2-2.3h0.1v1.8
		c0,3.1-1.8,4.6-4.1,4.6c-1.8,0-3.3-0.3-4.5-1.2l-0.7,2.2c1.5,0.8,3.5,1.3,5.5,1.3c3.9,0,7.3-2,7.3-7.9V45.9z"/>
	<path class="st1" d="M36.6,67.3h3.7v16.3h7.8v2.5H36.6V67.3z"/>
	<path class="st1" d="M68.5,74.3c1.2-1.3,3-1.9,4.7-1.9c3.2,0,4.8,1.7,4.8,5.1v8.6h-3.5v-8.2c0-1.9-0.9-3.1-2.8-3.1
		c-1.8,0-3.2,1.2-3.2,3.4v8h-3.5V72.7h3.5L68.5,74.3L68.5,74.3z"/>
	<path class="st1" d="M87,74.5c2.2,0,3.3,2.2,3.3,4.5c0,2.7-1,5.3-3.5,5.3c-2.1,0-3.2-2.5-3.2-5.1C83.7,76.6,84.7,74.5,87,74.5z
		 M90.4,86.1h3.5V66.4h-3.5v7.9h-0.1c-0.8-1.2-2.4-1.9-4.2-1.9c-3.7,0-6.3,3.4-6.3,6.9c0,4.3,2.4,7.2,6,7.2c2.1,0,3.6-1.1,4.5-2.3
		h0.1V86.1z"/>
	<path class="st1" d="M102.9,84.5c-2.6,0-3.3-2.8-3.3-5.2c0-2.2,0.8-4.9,3.3-4.9c2.6,0,3.4,2.7,3.4,4.9
		C106.3,81.6,105.6,84.5,102.9,84.5z M102.9,86.4c4.3,0,7.2-3,7.2-7.2c0-4.3-3.5-6.9-7.2-6.9c-3.7,0-7.2,2.5-7.2,6.9
		C95.7,83.4,98.6,86.4,102.9,86.4z"/>
	<path class="st1" d="M115.5,74.3c1.2-1.3,3-1.9,4.7-1.9c3.2,0,4.8,1.7,4.8,5.1v8.6h-3.5v-8.2c0-1.9-0.9-3.1-2.8-3.1
		c-1.8,0-3.2,1.2-3.2,3.4v8h-3.5V72.7h3.5L115.5,74.3L115.5,74.3z"/>
	<path class="st1" d="M55.9,84.5c-2.6,0-3.3-2.8-3.3-5.2c0-2.2,0.8-4.9,3.3-4.9c2.6,0,3.4,2.7,3.4,4.9
		C59.2,81.6,58.6,84.5,55.9,84.5z M55.9,86.4c4.3,0,7.2-3,7.2-7.2c0-4.3-3.5-6.9-7.2-6.9c-3.7,0-7.2,2.5-7.2,6.9
		C48.7,83.4,51.6,86.4,55.9,86.4z"/>
</g>
</svg>
