<?xml version="1.0" encoding="utf-8"?>
<!-- Generator: Adobe Illustrator 27.7.0, SVG Export Plug-In . SVG Version: 6.00 Build 0)  -->
<svg version="1.1" id="Layer_1" xmlns="http://www.w3.org/2000/svg" xmlns:xlink="http://www.w3.org/1999/xlink" x="0px" y="0px"
	 viewBox="0 0 252 126" style="enable-background:new 0 0 252 126;" xml:space="preserve">
<style type="text/css">
	.st0{fill:#236CFF;}
</style>
<path class="st0" d="M128.6,66c0,9.4,7.8,16.3,17.7,16.3c9.9,0,17.7-6.9,17.7-16.3V44.4h-9.6v20.5c0,5.1-3.5,8.5-8.2,8.5
	c-4.6,0-8.2-3.4-8.2-8.5V44.4h-9.6L128.6,66z M189.7,53.1h11.5v28.6h9.6V53.1h11.5v-8.7h-32.5V53.1z M183.5,44.4h-9.6v37.2h9.6V44.4
	z M89.8,53.1h11.5v28.6h9.6V53.1h11.4v-8.7H89.8V53.1z M39.4,44.4h-9.6v37.2h9.6V44.4z M84.7,59.9c0-9.4-7.8-16.3-17.7-16.3
	c-9.9,0-17.7,6.9-17.7,16.3v21.7h9.6V61.1c0-5.1,3.5-8.5,8.2-8.5s8.2,3.4,8.2,8.5v20.5h9.6L84.7,59.9L84.7,59.9z"/>
</svg>
