<?xml version="1.0" encoding="utf-8"?>
<!-- Generator: Adobe Illustrator 27.4.0, SVG Export Plug-In . SVG Version: 6.00 Build 0)  -->
<svg version="1.1" id="Layer_1" xmlns="http://www.w3.org/2000/svg" xmlns:xlink="http://www.w3.org/1999/xlink" x="0px" y="0px"
	 viewBox="0 0 252 126" style="enable-background:new 0 0 252 126;" xml:space="preserve">
<style type="text/css">
	.st0{fill:#252F3E;}
	.st1{fill-rule:evenodd;clip-rule:evenodd;fill:#FF9900;}
	.st2{fill:none;stroke:#D6CBFF;stroke-width:2.893;}
	.st3{fill-rule:evenodd;clip-rule:evenodd;fill:#7B58E5;}
	.st4{fill:none;stroke:#7B58E5;stroke-width:2.893;}
	.st5{fill:none;stroke:#72777C;stroke-width:2.0894;}
	.st6{fill:none;stroke:#72777C;stroke-width:1.9287;}
	.st7{fill:none;stroke:#7B58E5;stroke-width:1.9287;}
	.st8{fill:none;stroke:#72777C;stroke-width:2.0894;stroke-miterlimit:4;}
	.st9{fill:none;stroke:#72777C;stroke-width:1.9287;stroke-miterlimit:4;}
	.st10{fill:none;stroke:#787878;stroke-width:2.0894;}
	.st11{fill:none;stroke:#7B58E5;stroke-width:1.9287;stroke-miterlimit:4;}
	.st12{fill:none;stroke:#787878;stroke-width:2.0894;stroke-miterlimit:4;}
	.st13{fill:none;stroke:#787878;stroke-width:1.9287;}
	.st14{fill:#6C4DEA;}
	.st15{fill:#72777C;}
	.st16{fill-rule:evenodd;clip-rule:evenodd;fill:#002D72;}
	.st17{fill:#002D72;}
	.st18{fill:#332A86;}
	.st19{fill:#00356B;}
	.st20{fill:#000D74;}
	.st21{fill:#4285F4;}
	.st22{fill:#EA4335;}
	.st23{fill:#FBBC05;}
	.st24{fill:#34A853;}
	.st25{fill:#1C2B33;}
	.st26{fill:#0081FB;}
	.st27{fill:url(#Logo1_00000170259660804778719260000006016840533227098006_);}
	.st28{fill:url(#Logo2_00000173871854463128318490000015194671309522759078_);}
</style>
<g>
	<defs>
		<rect id="SVGID_1_" width="252" height="126"/>
	</defs>
	<clipPath id="SVGID_00000117642350410148866760000014879843595701285522_">
		<use xlink:href="#SVGID_1_"  style="overflow:visible;"/>
	</clipPath>
</g>
<g transform="matrix(1.25 0 0 -1.25 -471.09 448.79)">
	<g>
		<path class="st16" d="M396.6,305.3c-0.5,0.2-1.1,0.4-1.6,0.5c-0.1-0.4-0.3-0.7-0.5-1.1c0.4-0.1,0.9-0.2,1.3-0.4
			C396.2,304.6,396.4,304.9,396.6,305.3 M389.6,304.3c0.4,0.2,0.8,0.3,1.3,0.4c-0.2,0.4-0.3,0.7-0.5,1.1c-0.5-0.1-1.1-0.3-1.6-0.5
			C389.1,304.9,389.3,304.6,389.6,304.3 M388.8,309.8c0.5-0.2,1.1-0.4,1.6-0.5c0.1,0.4,0.3,0.7,0.5,1.1c-0.4,0.1-0.9,0.2-1.3,0.4
			C389.3,310.5,389.1,310.2,388.8,309.8 M395.8,310.8c-0.4-0.2-0.9-0.3-1.3-0.4c0.2-0.4,0.3-0.7,0.5-1.1c0.5,0.1,1.1,0.3,1.6,0.5
			C396.4,310.2,396.2,310.5,395.8,310.8 M397.2,307.8c0,0.6-0.2,1.2-0.4,1.7c-0.6-0.2-1.1-0.4-1.7-0.5c0.1-0.4,0.1-0.8,0.2-1.2
			H397.2L397.2,307.8z M395.1,306.2c0.6-0.1,1.1-0.3,1.7-0.5c0.2,0.5,0.4,1.1,0.4,1.7h-1.9C395.3,307,395.2,306.6,395.1,306.2
			 M394.7,306.3c0.1,0.4,0.1,0.7,0.1,1.1h-1.9v-0.9C393.5,306.4,394.1,306.4,394.7,306.3 M394.1,304.8c0.2,0.4,0.4,0.7,0.5,1.1
			c-0.5,0.1-1.1,0.1-1.7,0.2v-1.1C393.3,304.9,393.7,304.8,394.1,304.8 M393.4,303.1c0.8,0.1,1.5,0.4,2.1,0.9
			c-0.4,0.1-0.8,0.2-1.1,0.3C394.1,303.9,393.8,303.5,393.4,303.1 M393.9,304.4c-0.3,0-0.6,0.1-0.9,0.1v-1.2
			C393.3,303.6,393.6,304,393.9,304.4 M391.1,304.3c-0.4-0.1-0.8-0.2-1.1-0.3c0.6-0.5,1.3-0.8,2.1-0.9
			C391.7,303.5,391.4,303.9,391.1,304.3 M391.6,304.4c0.3-0.4,0.6-0.8,0.9-1.1v1.2C392.2,304.4,391.9,304.4,391.6,304.4
			 M390.9,305.9c0.1-0.4,0.3-0.7,0.5-1.1c0.4,0.1,0.8,0.1,1.2,0.1v1.1C392,306,391.4,305.9,390.9,305.9 M390.7,306.3
			c0.6,0.1,1.2,0.2,1.8,0.2v0.9h-1.9C390.6,307,390.7,306.6,390.7,306.3 M388.2,307.4c0-0.6,0.2-1.2,0.4-1.7
			c0.6,0.2,1.1,0.4,1.7,0.5c-0.1,0.4-0.1,0.8-0.2,1.2H388.2L388.2,307.4z M390.3,309c-0.6,0.1-1.1,0.3-1.7,0.5
			c-0.2-0.5-0.4-1.1-0.4-1.7h1.9C390.2,308.2,390.2,308.6,390.3,309 M390.7,308.9c-0.1-0.4-0.1-0.7-0.1-1.1h1.9v0.9
			C391.9,308.7,391.3,308.8,390.7,308.9 M391.3,310.4c-0.2-0.3-0.4-0.7-0.5-1.1c0.5-0.1,1.1-0.1,1.7-0.2v1.1
			C392.1,310.3,391.7,310.3,391.3,310.4 M392.1,312c-0.8-0.1-1.5-0.4-2.1-0.9c0.4-0.1,0.7-0.2,1.1-0.3
			C391.4,311.3,391.7,311.7,392.1,312 M391.6,310.8c0.3,0,0.6-0.1,0.9-0.1v1.2C392.2,311.5,391.9,311.2,391.6,310.8 M394.3,310.8
			c0.4,0.1,0.8,0.2,1.1,0.3c-0.6,0.5-1.3,0.8-2.1,0.9C393.8,311.7,394.1,311.3,394.3,310.8 M393.9,310.8c-0.3,0.4-0.6,0.8-0.9,1.1
			v-1.2C393.3,310.7,393.6,310.7,393.9,310.8 M394.6,309.3c-0.1,0.4-0.3,0.7-0.5,1.1c-0.4-0.1-0.8-0.1-1.2-0.1v-1.1
			C393.5,309.1,394.1,309.2,394.6,309.3 M392.9,307.8h1.9c0,0.4-0.1,0.7-0.1,1.1c-0.6-0.1-1.2-0.2-1.8-0.2V307.8L392.9,307.8z
			 M392.7,312.5c-2.7,0-4.9-2.2-4.9-4.9c0-2.7,2.2-4.9,4.9-4.9c2.7,0,4.9,2.2,4.9,4.9C397.7,310.3,395.5,312.5,392.7,312.5
			 M398.5,315c-4.5,0-9.1-0.5-13.5-1.5c2-12.4,9.7-18.4,13.5-20.5V315z"/>
		<g>
			<path class="st17" d="M407.9,300.3C407.9,300.3,407.9,300.3,407.9,300.3L407.9,300.3L407.9,300.3z"/>
			<path class="st17" d="M410.6,304.8C410.6,304.8,410.6,304.8,410.6,304.8L410.6,304.8L410.6,304.8L410.6,304.8z"/>
			<path class="st17" d="M399.2,324.3c-4.8,0-9.5-0.5-14-1.5l0,0c-0.3-0.1-0.6-0.4-0.6-0.7l0-2.5c0-1.7,0.1-3.2,0.3-4.7
				c9.4,2,19.3,2,28.7,0c0.2,1.5,0.3,3.1,0.3,4.7l0,2.5c0,0.4-0.3,0.6-0.6,0.7l0,0C408.7,323.7,404,324.3,399.2,324.3L399.2,324.3z
				 M422.6,323c-0.1-0.1-0.2-0.5,0-0.6l0.6,0c1.4-0.1,1.6-0.4,1.6-3v-9c0-1.3-0.1-4.8-0.6-6c-0.2-0.3-0.5-0.6-0.9-0.6
				c-0.3,0-0.7,0.1-1,0.2c-0.3,0.1-0.6,0.1-0.9,0.1c-0.5,0-0.9-0.7-0.9-1.1c0-0.5,0.7-0.5,1-0.5c2.2,0,3.9,1.5,4.7,3.4
				c0.5,1.1,0.5,2.7,0.5,4.6v8.8c0,2.5,0,2.9,1.5,3l0.4,0c0.1,0.1,0.1,0.5,0,0.6c-0.9,0-1.8-0.1-2.7-0.1
				C424.8,322.9,424,323,422.6,323z M487.2,323c-0.1-0.1-0.2-0.5,0-0.6l0.6,0c1.2-0.1,1.4-0.5,1.4-3v-8.6c0-2.5,0-2.7-1.4-3
				l-0.4-0.1c-0.1-0.1-0.1-0.5,0-0.6c0.9,0,1.7,0.1,2.8,0.1c0.9,0,1.7,0,3-0.1c0.1,0.1,0.2,0.5,0,0.6l-0.7,0.1
				c-1.3,0.1-1.5,0.5-1.5,3v3.4c0,0.7,0,0.8,1.2,0.8h6.8c1.1,0,1.2,0,1.2-0.8v-3.4c0-2.5,0-2.7-1.4-3l-0.4-0.1
				c-0.1-0.1-0.1-0.5,0-0.6c1,0,1.9,0.1,2.9,0.1c0.9,0,1.7,0,2.9-0.1c0.1,0.1,0.2,0.5,0,0.6l-0.6,0.1c-1.4,0.2-1.4,0.5-1.4,3v8.6
				c0,2.5,0,2.9,1.4,3l0.5,0c0.1,0.1,0.1,0.5,0,0.6c-1.1,0-1.9-0.1-2.8-0.1c-1,0-1.8,0-2.9,0.1c-0.1-0.1-0.2-0.5,0-0.6l0.4,0
				c1.4-0.1,1.4-0.5,1.4-3v-2.7c0-0.7,0-0.8-1.2-0.8h-6.8c-1.1,0-1.2,0-1.2,0.8v2.7c0,2.5,0,2.9,1.4,3l0.5,0c0.1,0.1,0.1,0.5,0,0.6
				c-1,0-1.8-0.1-2.8-0.1C489.2,322.9,488.4,323,487.2,323L487.2,323z M394.4,322.9c1.6,0,3.3-0.3,4.7-0.8h0c2.2,0.8,5.4,1,7.3,0.6
				l0.8-0.6l0.2,0c0.1,0,0.1-0.1,0.2-0.1l2.3-5.2c0.1-0.1,0-0.3-0.2-0.2c-3.6,0.7-7.3,0.9-10.7,0.9h0c-3.3,0-7.1-0.2-10.7-0.9
				c-0.1,0-0.3,0.1-0.2,0.2l2.3,5.2c0,0,0.1,0.1,0.2,0.1l0.2,0l0.8,0.6C392.6,322.8,393.5,322.9,394.4,322.9L394.4,322.9z
				 M391.6,322l-0.8-0.6l-1.6-4.2c2.1,0.3,7,0.7,9.3,0.7c0.1,0,0.2,0.1,0.4,0.1c-2.9,0.9-6.2,1.1-8.5,0.6L391.6,322z M406.7,322
				l1.2-3.3c-2.3,0.4-5.7,0.3-8.5-0.6c0.2,0,0.3-0.1,0.4-0.1c2.4,0,7.2-0.4,9.3-0.7l-1.6,4.2L406.7,322z M435.6,320.8
				c-4.1,0-7.1-3.1-7.1-7.1c0-3.6,2.7-6.8,7.1-6.8c3.9,0,7,2.9,7,7C442.6,317.5,440.2,320.8,435.6,320.8z M511.2,320.8
				c-4.1,0-7.1-3.1-7.1-7.1c0-3.6,2.7-6.8,7.1-6.8c3.9,0,7,2.9,7,7C518.2,317.5,515.9,320.8,511.2,320.8L511.2,320.8z M477.3,320.8
				c-2.6,0-4.1-1.5-4.1-3.4c0-1.6,1.2-2.8,2.2-3.4l1.9-1.2c1.5-0.9,1.6-1.9,1.6-2.8c0-1.2-0.8-2.3-2.5-2.3c-2.3,0-3.1,2-3.4,3
				c-0.1,0.1-0.4,0.1-0.5-0.1c0-0.9,0.3-2.4,0.5-2.8c0.4-0.2,1.4-0.7,3.1-0.7c2.6,0,4.3,1.5,4.3,3.7c0,1.9-1.2,3.1-2.5,3.8l-1.6,1
				c-0.7,0.5-1.7,1.3-1.7,2.5c0,0.9,0.4,2.2,2.4,2.2c1.9,0,2.5-1.3,2.7-2.3c0.1-0.1,0.4-0.1,0.5,0.1c0,0.8-0.2,2-0.4,2.4
				c-0.2,0-0.4,0-0.7,0.1C478.6,320.7,477.9,320.8,477.3,320.8L477.3,320.8z M567.7,320.8c-2.6,0-4.1-1.5-4.1-3.4
				c0-1.6,1.2-2.8,2.2-3.4l1.9-1.2c1.5-0.9,1.6-1.9,1.6-2.8c0-1.2-0.8-2.3-2.5-2.3c-2.3,0-3.1,2-3.4,3c-0.1,0.1-0.4,0.1-0.5-0.1
				c0-0.9,0.3-2.4,0.5-2.8c0.4-0.2,1.4-0.7,3.1-0.7c2.6,0,4.3,1.5,4.3,3.7c0,1.9-1.2,3.1-2.5,3.8l-1.6,1c-0.7,0.5-1.7,1.3-1.7,2.5
				c0,0.9,0.4,2.2,2.4,2.2c1.9,0,2.5-1.3,2.7-2.3c0.1-0.1,0.4-0.1,0.5,0.1c0,0.8-0.2,2-0.4,2.4c-0.2,0-0.4,0-0.7,0.1
				C569,320.7,568.3,320.8,567.7,320.8L567.7,320.8z M442.8,320.5c-0.1-0.1-0.2-0.4,0-0.5l0.5,0c1-0.1,1.2-0.4,1.2-2.5v-7.2
				c0-2.1,0-2.3-1.2-2.5l-0.3-0.1c-0.1-0.1-0.1-0.4,0-0.5c0.8,0,1.5,0.1,2.3,0.1c0.8,0,1.5,0,2.5-0.1c0.1,0.1,0.2,0.4,0,0.5
				l-0.6,0.1c-1.1,0.1-1.2,0.4-1.2,2.5v2.8c0,0.6,0,0.6,1,0.6h5.7c1,0,1,0,1-0.6v-2.8c0-2.1,0-2.3-1.2-2.5l-0.4-0.1
				c-0.1-0.1-0.1-0.4,0-0.5c0.9,0,1.6,0.1,2.4,0.1c0.8,0,1.5,0,2.4-0.1c0.1,0.1,0.2,0.4,0,0.5l-0.5,0.1c-1.2,0.1-1.2,0.4-1.2,2.5
				v7.2c0,2.1,0,2.4,1.2,2.5l0.4,0c0.1,0.1,0.1,0.4,0,0.5c-0.9,0-1.6-0.1-2.4-0.1c-0.8,0-1.5,0-2.4,0.1c-0.1-0.1-0.2-0.4,0-0.5
				l0.4,0c1.2-0.1,1.2-0.4,1.2-2.5v-2.3c0-0.6,0-0.6-1-0.6h-5.7c-1,0-1,0-1,0.6v2.3c0,2.1,0,2.4,1.2,2.5l0.4,0
				c0.1,0.1,0.1,0.4,0,0.5c-0.9,0-1.5-0.1-2.3-0.1C444.5,320.5,443.8,320.5,442.8,320.5z M458.1,320.5c-0.2-0.1-0.2-0.4,0-0.5l0.3,0
				c0.5-0.1,1-0.2,1.2-0.5c0.4-0.5,0.4-0.9,0.4-1.4v-5.8c0-1,0-3.4-0.3-4.1c-0.1-0.2-0.4-0.3-0.9-0.4l-0.5-0.1
				c-0.1-0.1-0.1-0.4,0-0.5c0.7,0,1.2,0.1,2.1,0.1c0.7,0,1.4,0,2.3-0.1c0.1,0.1,0.2,0.3,0,0.5l-0.6,0.1c-0.5,0-0.9,0.2-1,0.4
				c-0.3,0.6-0.4,3.2-0.4,4.1v4.4c0,0.6,0,1.1,0.1,1.3h0c0.4-0.4,1.8-2.1,2.3-2.7l4.6-5.3c1.7-2,2.3-2.7,2.6-3
				c0.2,0,0.3,0.1,0.4,0.2c-0.1,0.5-0.1,2.9-0.1,3.5v4.8c0,0.9,0,3.4,0.3,4.1c0.1,0.2,0.5,0.3,1.1,0.4l0.3,0c0.1,0.1,0.1,0.4,0,0.5
				c-0.7,0-1.2-0.1-2.1-0.1c-0.8,0-1.4,0-2.4,0.1c-0.2-0.1-0.2-0.4,0-0.5l0.3,0c0.8-0.1,1.1-0.2,1.2-0.4c0.4-0.6,0.4-3.2,0.4-4.1
				v-4.3c0-0.4,0-0.7-0.1-0.8h0c-0.9,1-1.9,2.1-3.3,3.6l-1.9,2.2c-0.7,0.7-3,3.4-3.4,4.4c-0.3,0-0.6-0.1-0.9-0.1
				C460,320.5,458.9,320.5,458.1,320.5L458.1,320.5z M522.5,320.5c-1.7,0-2.9,0-4-0.2c-0.2-0.1-0.2-0.4,0-0.5l0.7-0.1
				c0.9-0.1,0.9-0.4,0.9-2.1v-7.4c0-2.1,0-2.3-1.2-2.5l-0.4-0.1c-0.1-0.1-0.1-0.4,0-0.5c0.9,0,1.6,0.1,2.4,0.1c0.8,0,1.5,0,2.6-0.1
				c0.1,0.1,0.2,0.4,0,0.5l-0.5,0.1c-1.3,0.1-1.3,0.4-1.3,2.5v8.9c0,0.6,0,0.7,1.1,0.7c2.1,0,3.2-1.3,3.2-3.2c0-1.7-0.8-3-2.9-3.4
				c-0.1,0-0.1-0.3,0-0.4c0.8,0,1.9,0.2,2.8,0.6c0.9,0.4,2,1.3,2,3.2c0,1.4-0.7,2.4-1.6,3C525.4,320.3,524.2,320.5,522.5,320.5
				L522.5,320.5z M542.2,320.5c-0.1-0.1-0.2-0.4,0-0.5l0.5,0c1.2-0.1,1.2-0.4,1.2-2.6v-7.1c0-2.1,0-2.4-1.2-2.5l-0.5-0.1
				c-0.1-0.1-0.1-0.4,0-0.5c1,0,1.7,0.1,2.5,0.1c0.8,0,1.5,0,2.5-0.1c0.1,0.1,0.2,0.4,0,0.5l-0.5,0.1c-1.2,0.1-1.2,0.4-1.2,2.5v7.1
				c0,2.1,0,2.5,1.2,2.6l0.5,0c0.1,0.1,0.1,0.4,0,0.5c-1,0-1.7-0.1-2.5-0.1C543.9,320.5,543.2,320.5,542.2,320.5z M548.5,320.5
				c-0.2-0.1-0.2-0.4,0-0.5l0.3,0c0.5-0.1,1-0.2,1.2-0.5c0.4-0.5,0.4-0.9,0.4-1.4v-5.8c0-1,0-3.4-0.3-4.1c-0.1-0.2-0.4-0.3-0.9-0.4
				l-0.5-0.1c-0.1-0.1-0.1-0.4,0-0.5c0.7,0,1.2,0.1,2.1,0.1c0.7,0,1.4,0,2.3-0.1c0.1,0.1,0.2,0.3,0,0.5l-0.6,0.1
				c-0.5,0-0.9,0.2-1,0.4c-0.3,0.6-0.4,3.2-0.4,4.1v4.4c0,0.6,0,1.1,0.1,1.3h0c0.4-0.4,1.8-2.1,2.3-2.7l4.7-5.3c1.7-2,2.3-2.7,2.6-3
				c0.2,0,0.3,0.1,0.4,0.2c-0.1,0.5-0.1,2.9-0.1,3.5v4.8c0,0.9,0,3.4,0.3,4.1c0.1,0.2,0.5,0.3,1.1,0.4l0.3,0c0.1,0.1,0.1,0.4,0,0.5
				c-0.7,0-1.2-0.1-2.1-0.1c-0.8,0-1.4,0-2.4,0.1c-0.2-0.1-0.2-0.4,0-0.5l0.3,0c0.8-0.1,1.1-0.2,1.2-0.4c0.4-0.6,0.4-3.2,0.4-4.1
				v-4.3c0-0.4,0-0.7-0.1-0.8h0c-0.9,1-1.9,2.1-3.3,3.6l-1.9,2.2c-0.7,0.7-3,3.4-3.4,4.4c-0.3,0-0.6-0.1-0.9-0.1
				C550.4,320.5,549.3,320.5,548.5,320.5L548.5,320.5z M528.5,320.5c-0.1-0.1-0.2-0.4,0-0.5l0.5,0c1.2-0.1,1.2-0.4,1.2-2.5v-7.2
				c0-2.1,0-2.3-1.1-2.5l-0.4-0.1c-0.1-0.1-0.1-0.4,0-0.5c0.8,0,1.5,0.1,2.3,0.1c0.8,0,1.5,0,2.4-0.1c0.1,0.1,0.2,0.4,0,0.5
				l-0.5,0.1c-1.1,0.1-1.2,0.4-1.2,2.5v2.6c0,0.7,0,1,0.3,1c0.5,0,0.8-0.4,1.9-1.7l1.6-1.8c0.8-0.9,1.3-1.4,1.7-1.9
				c0.1-0.2,0.3-0.3,0.3-0.5c0-0.1-0.2-0.2-0.5-0.2l-0.5-0.1c-0.1-0.1-0.1-0.5,0.1-0.5c0.9,0,1.6,0.1,2.4,0.1c0.9,0,1.7,0,2.2-0.1
				c0.1,0.1,0.2,0.4,0,0.5l-0.5,0.1c-0.7,0.1-1.1,0.3-1.6,0.8c-1.6,1.6-3.1,3.4-5,5.6c-0.3,0.3-0.4,0.5-0.4,0.6
				c0,0.2,0.2,0.3,0.5,0.6l1.8,1.7c1.1,1.1,2.2,2,2.8,2.3c0.6,0.3,1.3,0.5,1.9,0.6c0.1,0.1,0.1,0.4,0,0.5c-0.6,0-1.3-0.1-2-0.1
				c-0.7,0-1.5,0-2.2,0.1c-0.2-0.1-0.2-0.4,0-0.5l0.5-0.1c0.3-0.1,0.3-0.1,0.3-0.2s0-0.2-0.1-0.3c-0.2-0.3-1.2-1.3-1.6-1.7l-2.2-2.1
				c-0.2-0.2-0.7-0.7-1-1c-0.1-0.1-0.4-0.2-0.6-0.2c-0.2,0-0.3,0.4-0.3,0.8v2.3c0,2.1,0,2.4,1.2,2.5l0.4,0c0.1,0.1,0.1,0.4,0,0.5
				c-0.9,0-1.5-0.1-2.3-0.1C530.1,320.5,529.5,320.5,528.5,320.5L528.5,320.5z M435.3,320.2c3.8,0,5.3-3.6,5.3-6.9
				c0-3.9-2.3-5.8-4.7-5.8c-3.9,0-5.4,3.8-5.4,6.8C430.5,318.8,433.2,320.2,435.3,320.2z M510.9,320.2c3.8,0,5.3-3.6,5.3-6.9
				c0-3.9-2.3-5.8-4.7-5.8c-3.9,0-5.4,3.8-5.4,6.8C506.1,318.8,508.8,320.2,510.9,320.2z M399.8,315v-3l2.7-1.8v4.7
				C401.6,315,400.7,315,399.8,315z M405.2,314.7v-6.3l2.7-1.8v7.8C407,314.5,406.1,314.7,405.2,314.7z M410.6,314v-9.3l-2.7,1.8
				v-6.3l0,0c1,1.3,1.9,2.8,2.7,4.5v0l0,0c1.2,2.5,2.2,5.4,2.7,8.7C412.4,313.7,411.5,313.9,410.6,314z M402.5,310.2v-6.3l-2.7,1.8
				V293c0.8,0.4,1.7,1,2.7,1.8v9.1l2.7-1.8v6.3C405.2,308.4,402.5,310.2,402.5,310.2z M405.2,302.1v-5c0.9,0.9,1.8,2,2.7,3.1v0
				C407.9,300.3,405.2,302.1,405.2,302.1z M531.3,301.1C531.3,301.1,531.2,301.1,531.3,301.1c-0.2-0.4-0.3-1.1-0.5-1.6
				c0-0.1,0.2-0.1,0.3-0.1c0.1,0.3,0.2,0.5,0.5,0.7c0.3,0.2,0.8,0.3,1.3,0.3h0.6c0.3,0,0.3,0,0.3-0.3v-4.6c0-1.1-0.1-1.2-0.6-1.3
				l-0.4,0c-0.1,0-0.1-0.2,0-0.3c0.7,0,1,0,1.4,0c0.4,0,0.8,0,1.4,0c0.1,0,0.1,0.2,0,0.3l-0.3,0c-0.6,0.1-0.6,0.2-0.6,1.3v4.6
				c0,0.3,0,0.4,0.3,0.4h0.7c0.6,0,1-0.1,1.2-0.3c0.2-0.1,0.2-0.5,0.3-0.8c0-0.1,0.2-0.1,0.3,0c0,0.3,0,1.1,0.2,1.6
				c0,0-0.1,0.1-0.2,0c-0.1-0.3-0.2-0.3-0.8-0.3h-4.2C531.8,300.7,531.5,300.7,531.3,301.1C531.4,301.1,531.3,301.1,531.3,301.1z
				 M514.4,300.9c-1.3,0-2.1-0.8-2.1-1.8c0-0.8,0.6-1.4,1.1-1.8l1-0.6c0.8-0.5,0.8-1,0.8-1.4c0-0.6-0.4-1.2-1.3-1.2
				c-1.2,0-1.6,1-1.8,1.5c0,0.1-0.2,0-0.2,0c0-0.5,0.2-1.2,0.3-1.4c0.2-0.1,0.7-0.4,1.6-0.4c1.3,0,2.2,0.8,2.2,1.9
				c0,1-0.6,1.6-1.3,2l-0.8,0.5c-0.4,0.2-0.9,0.7-0.9,1.3c0,0.5,0.2,1.1,1.2,1.1c1,0,1.3-0.7,1.4-1.2c0-0.1,0.2,0,0.3,0
				c0,0.4-0.1,1-0.2,1.3c-0.1,0-0.2,0-0.4,0.1C515.1,300.8,514.7,300.9,514.4,300.9L514.4,300.9z M442.1,300.8c-0.1,0-0.1-0.2,0-0.2
				l0.3,0c0.6-0.1,0.6-0.2,0.6-1.3v-2.4c0-1.2,0.3-2,0.8-2.4c0.5-0.4,1.2-0.6,1.9-0.6c0.8,0,1.5,0.3,2,0.8c0.6,0.6,0.7,1.6,0.7,2.5
				v1.2c0,0.6,0,1.8,0.1,2.1c0.1,0.1,0.3,0.2,0.5,0.2l0.2,0c0,0.1,0.1,0.2,0,0.2c-0.4,0-0.6,0-1.1,0c-0.4,0-0.8,0-1.2,0
				c-0.1,0-0.1-0.2,0-0.2l0.3,0c0.3,0,0.4-0.1,0.5-0.2c0.2-0.3,0.2-1.5,0.2-2.1v-1.2c0-1.6-0.6-2.8-2.1-2.8c-1.6,0-2.1,1.1-2.1,2.8
				v2.2c0,1.1,0,1.3,0.6,1.3l0.3,0c0.1,0,0,0.2,0,0.2c-0.5,0-0.8,0-1.3,0C443,300.7,442.7,300.7,442.1,300.8L442.1,300.8z
				 M454.9,300.8c-0.1,0-0.1-0.2,0-0.3l0.2,0c0.2,0,0.5-0.1,0.6-0.2c0.2-0.2,0.2-0.5,0.2-0.7v-3c0-0.5,0-1.8-0.1-2.1
				c0-0.1-0.2-0.2-0.5-0.2l-0.3,0c-0.1-0.1-0.1-0.2,0-0.3c0.4,0,0.6,0,1.1,0c0.4,0,0.7,0,1.2,0c0.1,0.1,0.1,0.2,0,0.3l-0.3,0
				c-0.3,0-0.5,0.1-0.5,0.2c-0.2,0.3-0.2,1.7-0.2,2.1v2.3c0,0.3,0,0.5,0,0.7h0c0.2-0.2,0.9-1.1,1.2-1.4l2.4-2.7
				c0.9-1,1.2-1.4,1.3-1.6c0.1,0,0.2,0.1,0.2,0.1c0,0.3,0,1.5,0,1.8v2.5c0,0.5,0,1.8,0.2,2.1c0,0.1,0.2,0.2,0.6,0.2l0.1,0
				c0.1,0.1,0.1,0.2,0,0.3c-0.4,0-0.6,0-1.1,0c-0.4,0-0.7,0-1.2,0c-0.1,0-0.1-0.2,0-0.3l0.2,0c0.4-0.1,0.6-0.1,0.6-0.2
				c0.2-0.3,0.2-1.7,0.2-2.1v-2.2c0-0.2,0-0.4,0-0.4h0c-0.5,0.5-1,1.1-1.7,1.9l-1,1.1c-0.3,0.4-1.6,1.7-1.8,2.3c-0.1,0-0.3,0-0.5,0
				C455.9,300.7,455.4,300.7,454.9,300.8z M468.4,300.8c-0.1,0-0.1-0.2,0-0.3l0.3,0c0.6-0.1,0.6-0.2,0.6-1.3v-3.7
				c0-1.1,0-1.2-0.6-1.3l-0.3,0c-0.1-0.1,0-0.2,0-0.3c0.5,0,0.9,0,1.3,0c0.4,0,0.8,0,1.3,0c0.1,0,0.1,0.2,0,0.3l-0.3,0
				c-0.6,0.1-0.6,0.2-0.6,1.3v3.7c0,1.1,0,1.3,0.6,1.3l0.3,0c0.1,0,0,0.2,0,0.3c-0.5,0-0.9,0-1.3,0
				C469.2,300.7,468.9,300.7,468.4,300.8z M476.6,300.8c-0.1-0.1-0.1-0.2,0-0.3l0.2,0c0.4-0.1,0.6-0.3,0.8-0.8l1.8-4.5
				c0.2-0.4,0.4-0.9,0.5-1.4c0,0,0.1,0,0.2,0c0,0,0.1,0,0.1,0c0.2,0.5,0.7,1.7,1.1,2.7l0.6,1.3c0.5,1.1,0.9,1.9,1.2,2.4
				c0.1,0.2,0.3,0.3,0.5,0.4l0.3,0c0,0.1,0,0.2,0,0.3c-0.3,0-0.7,0-1,0c-0.4,0-0.8,0-1.1,0c-0.1,0-0.1-0.2,0-0.3l0.2,0
				c0.4,0,0.5-0.1,0.5-0.2c0-0.1,0-0.2-0.1-0.4c-0.2-0.4-0.7-1.6-1-2.3c-0.2-0.6-0.7-1.6-1-2.3c-0.5,1.2-1,2.4-1.5,3.6
				c-0.3,0.8-0.5,1.3-0.5,1.5c0,0.1,0.1,0.1,0.5,0.2l0.2,0c0.1,0.1,0.1,0.2,0,0.3c-0.4,0-0.8,0-1.3,0
				C477.3,300.7,476.9,300.7,476.6,300.8z M489.3,300.8c-0.1,0-0.1-0.2,0-0.3l0.2,0c0.6-0.1,0.6-0.2,0.6-1.3v-3.7
				c0-1.1,0-1.2-0.6-1.3l-0.3,0c-0.1-0.1,0-0.2,0-0.3c0.6,0,1,0,1.4,0h0.9c0.9,0,1.8,0,2.8,0c0.1,0.3,0.4,1.1,0.5,1.4
				c0,0.1-0.2,0.1-0.3,0.1c-0.3-0.5-0.5-0.9-0.7-1c-0.2-0.1-0.5-0.2-1.3-0.2c-0.9,0-1.1,0.1-1.3,0.2c-0.2,0.2-0.2,0.5-0.2,1.1v1.5
				c0,0.3,0,0.3,0.3,0.3h0.6c0.4,0,0.6,0,0.8-0.1c0.2-0.1,0.3-0.2,0.3-0.4l0.1-0.4c0-0.1,0.2-0.1,0.3,0c0,0.2,0,0.6,0,1
				c0,0.4,0,0.8,0,1c0,0.1-0.2,0.1-0.3,0l-0.1-0.4c-0.1-0.3-0.1-0.3-0.2-0.4c-0.1,0-0.4-0.1-0.9-0.1h-0.6c-0.3,0-0.3,0-0.3,0.3v2.1
				c0,0.4,0,0.4,0.3,0.4h0.7c0.5,0,0.8,0,1-0.1c0.5-0.1,0.6-0.5,0.8-1c0.1-0.1,0.2,0,0.3,0c0,0.5-0.1,1.2-0.2,1.4
				c-0.1,0-0.7,0-1.4,0h-1.9C490.1,300.7,489.8,300.7,489.3,300.8L489.3,300.8z M502.8,300.8c-1,0-1.7,0-2.3-0.1
				c-0.1,0-0.1-0.2,0-0.3l0.3,0c0.4-0.1,0.5-0.2,0.5-1.2v-3.7c0-1.1,0-1.2-0.6-1.3l-0.3,0c-0.1-0.1,0-0.2,0-0.3c0.5,0,0.9,0,1.3,0
				c0.4,0,0.8,0,1.2,0c0.1,0,0.1,0.2,0,0.3l-0.2,0c-0.6,0.1-0.6,0.2-0.6,1.3v1.3c0,0.2,0,0.2,0.5,0.2c0.4,0,0.6-0.1,0.7-0.3
				c0.3-0.5,0.7-1.2,1-1.6c0.7-1,1.3-1.3,2.1-1.3c0.2,0,0.4,0,0.5,0.1c0,0,0,0.1,0,0.1c-0.3,0-0.5,0.1-0.7,0.3
				c-0.7,0.6-1.3,1.4-2.1,2.8c0,0.1-0.1,0.2-0.1,0.2c0.5,0.2,1.3,0.7,1.3,1.7c0,0.7-0.4,1.2-0.9,1.4
				C504.1,300.7,503.5,300.8,502.8,300.8z M522.2,300.8c-0.1,0-0.1-0.2,0-0.3l0.3,0c0.6-0.1,0.6-0.2,0.6-1.3v-3.7
				c0-1.1,0-1.2-0.6-1.3l-0.3,0c-0.1-0.1,0-0.2,0-0.3c0.5,0,0.9,0,1.3,0c0.4,0,0.8,0,1.3,0c0.1,0,0.1,0.2,0,0.3l-0.3,0
				c-0.6,0.1-0.6,0.2-0.6,1.3v3.7c0,1.1,0,1.3,0.6,1.3l0.3,0c0.1,0,0,0.2,0,0.3c-0.5,0-0.9,0-1.3,0
				C523.1,300.7,522.7,300.7,522.2,300.8z M542.9,300.8c-0.1,0-0.1-0.2,0-0.3l0.3-0.1c0.3-0.1,0.5-0.1,0.8-0.8l1.2-2.4
				c0.3-0.6,0.3-0.7,0.3-1.3v-0.5c0-1.1,0-1.3-0.6-1.3l-0.3,0c-0.1-0.1,0-0.2,0-0.3c0.5,0,0.9,0,1.4,0c0.4,0,0.8,0,1.4,0
				c0.1,0,0.1,0.2,0,0.3l-0.4,0c-0.6,0-0.6,0.2-0.6,1.3v0.5c0,0.8,0,0.9,0.5,1.7l0.7,1.1c0.5,0.9,0.8,1.5,1.4,1.6l0.3,0.1
				c0.1,0.1,0.1,0.2,0,0.3c-0.3,0-0.6,0-1,0c-0.3,0-0.6,0-1,0c-0.1,0-0.1-0.2,0-0.3l0.2,0c0.3,0,0.4-0.1,0.4-0.2
				c0-0.1-0.4-0.8-0.7-1.4c-0.3-0.6-0.7-1.2-1-1.7c-0.4,0.7-0.8,1.5-1.2,2.3c-0.1,0.1-0.3,0.7-0.3,0.8c0,0.1,0.1,0.1,0.4,0.2l0.1,0
				c0.1,0.1,0.1,0.2,0,0.3c-0.3,0-0.6,0-1.1,0C543.6,300.7,543.2,300.7,542.9,300.8L542.9,300.8z M502.8,300.4
				c1.1,0,1.7-0.8,1.7-1.6c0-0.7-0.2-1.1-0.5-1.3c-0.3-0.2-0.7-0.3-1.1-0.3c-0.5,0-0.7,0-0.7,0.1c0,0,0,0.2,0,0.3v2.4
				C502.2,300.4,502.2,300.4,502.8,300.4L502.8,300.4z"/>
		</g>
	</g>
</g>
</svg>
