<?xml version="1.0" encoding="utf-8"?>
<!-- Generator: Adobe Illustrator 27.4.0, SVG Export Plug-In . SVG Version: 6.00 Build 0)  -->
<svg version="1.1" id="Layer_1" xmlns="http://www.w3.org/2000/svg" xmlns:xlink="http://www.w3.org/1999/xlink" x="0px" y="0px"
	 viewBox="0 0 252 126" style="enable-background:new 0 0 252 126;" xml:space="preserve">
<style type="text/css">
	.st0{fill:#252F3E;}
	.st1{fill-rule:evenodd;clip-rule:evenodd;fill:#FF9900;}
	.st2{fill:none;stroke:#D6CBFF;stroke-width:2.893;}
	.st3{fill-rule:evenodd;clip-rule:evenodd;fill:#7B58E5;}
	.st4{fill:none;stroke:#7B58E5;stroke-width:2.893;}
	.st5{fill:none;stroke:#72777C;stroke-width:2.0894;}
	.st6{fill:none;stroke:#72777C;stroke-width:1.9287;}
	.st7{fill:none;stroke:#7B58E5;stroke-width:1.9287;}
	.st8{fill:none;stroke:#72777C;stroke-width:2.0894;stroke-miterlimit:4;}
	.st9{fill:none;stroke:#72777C;stroke-width:1.9287;stroke-miterlimit:4;}
	.st10{fill:none;stroke:#787878;stroke-width:2.0894;}
	.st11{fill:none;stroke:#7B58E5;stroke-width:1.9287;stroke-miterlimit:4;}
	.st12{fill:none;stroke:#787878;stroke-width:2.0894;stroke-miterlimit:4;}
	.st13{fill:none;stroke:#787878;stroke-width:1.9287;}
	.st14{fill:#6C4DEA;}
	.st15{fill:#72777C;}
	.st16{fill-rule:evenodd;clip-rule:evenodd;fill:#002D72;}
	.st17{fill:#002D72;}
	.st18{fill:#332A86;}
	.st19{fill:#00356B;}
	.st20{fill:#000D74;}
	.st21{fill:#4285F4;}
	.st22{fill:#EA4335;}
	.st23{fill:#FBBC05;}
	.st24{fill:#34A853;}
	.st25{fill:#1C2B33;}
	.st26{fill:#0081FB;}
	.st27{fill:url(#Logo1_00000061469384168169482720000014134407280375757721_);}
	.st28{fill:url(#Logo2_00000018922929625990684870000003973206142573173142_);}
</style>
<g id="layer1" transform="translate(1809.6205,-3011.4315)">
	<g id="g2714" transform="matrix(0.25199933,0,0,0.25199933,-1353.5974,2252.5528)">
		<path id="path763" class="st25" d="M-1407.7,3192.9h27.9l47.5,86l47.5-86h27.3v141.3h-22.8v-108.3l-41.7,75h-21.4l-41.7-75v108.3
			h-22.8L-1407.7,3192.9z"/>
		<path id="path765" class="st25" d="M-1183.8,3336.7c-10.6,0-19.8-2.3-27.8-7c-8-4.7-14.2-11.1-18.7-19.4
			c-4.5-8.3-6.7-17.8-6.7-28.5c0-10.8,2.2-20.4,6.6-28.8c4.4-8.3,10.4-14.9,18.2-19.6c7.8-4.7,16.7-7.1,26.8-7.1
			c10,0,18.6,2.4,25.9,7.1c7.2,4.7,12.8,11.4,16.7,19.9c3.9,8.5,5.9,18.6,5.9,30.1v6.3h-77.4c1.4,8.6,4.9,15.4,10.4,20.3
			c5.5,4.9,12.6,7.4,21,7.4c6.8,0,12.6-1,17.6-3c4.9-2,9.5-5.1,13.8-9.2l12.1,14.8C-1151.5,3331.2-1166.3,3336.7-1183.8,3336.7
			L-1183.8,3336.7z M-1167.1,3252.9c-4.8-4.9-11-7.3-18.8-7.3c-7.5,0-13.8,2.5-18.9,7.5c-5.1,5-8.3,11.7-9.6,20.1h55.5
			C-1159.6,3264.5-1162.4,3257.8-1167.1,3252.9z"/>
		<path id="path767" class="st25" d="M-1109.4,3247.6h-21V3229h21v-30.9h22v30.9h31.9v18.7h-31.9v47.3c0,7.9,1.3,13.5,4,16.8
			c2.7,3.4,7.3,5,13.8,5c2.9,0,5.3-0.1,7.4-0.4c2-0.2,4.2-0.6,6.7-1v18.5c-2.8,0.8-5.6,1.4-8.4,1.8c-3.3,0.5-6.5,0.7-9.8,0.7
			c-23.7,0-35.6-13-35.6-38.9L-1109.4,3247.6z"/>
		<path id="path769" class="st25" d="M-940.9,3334.2h-21.6v-14.7c-3.8,5.5-8.7,9.8-14.6,12.8c-5.9,3-12.6,4.5-20.2,4.5
			c-9.3,0-17.5-2.4-24.7-7.1c-7.2-4.7-12.8-11.3-16.9-19.6c-4.1-8.3-6.2-17.8-6.2-28.5c0-10.8,2.1-20.3,6.3-28.6
			c4.2-8.3,9.9-14.8,17.3-19.5c7.4-4.7,15.8-7.1,25.4-7.1c7.2,0,13.7,1.4,19.4,4.2c5.6,2.7,10.5,6.8,14.2,11.9V3229h21.6V3334.2z
			 M-962.9,3265.8c-2.4-6-6.1-10.7-11.1-14.2c-5.1-3.5-10.9-5.2-17.6-5.2c-9.4,0-16.9,3.2-22.5,9.5c-5.6,6.3-8.4,14.9-8.4,25.6
			c0,10.8,2.7,19.4,8.1,25.7c5.4,6.3,12.7,9.5,21.9,9.5c6.8,0,12.8-1.7,18.2-5.2c5.3-3.5,9.1-8.2,11.5-14.1L-962.9,3265.8z"/>
		<path id="Logo0" class="st26" d="M-1654.2,3286.2c0,8.5,1.9,15.1,4.3,19.1c3.2,5.2,8,7.4,12.9,7.4c6.3,0,12.1-1.6,23.2-16.9
			c8.9-12.3,19.4-29.6,26.4-40.4l11.9-18.4c8.3-12.7,17.9-26.9,28.9-36.5c9-7.8,18.7-12.2,28.5-12.2c16.4,0,32,9.5,43.9,27.3
			c13.1,19.5,19.4,44.1,19.4,69.4c0,15.1-3,26.2-8,34.9c-4.9,8.5-14.4,16.9-30.4,16.9v-24.1c13.7,0,17.1-12.6,17.1-27
			c0-20.6-4.8-43.4-15.3-59.7c-7.5-11.6-17.2-18.6-27.9-18.6c-11.6,0-20.8,8.7-31.3,24.2c-5.6,8.3-11.3,18.3-17.7,29.7l-7,12.5
			c-14.2,25.1-17.7,30.8-24.8,40.3c-12.4,16.5-23,22.8-36.9,22.8c-16.5,0-27-7.2-33.5-18c-5.3-8.8-7.9-20.3-7.9-33.5L-1654.2,3286.2
			z"/>
		
			<linearGradient id="Logo1_00000165204142211053431070000016928026467157990580_" gradientUnits="userSpaceOnUse" x1="-1955.3904" y1="3335.2346" x2="-1926.6466" y2="3333.783" gradientTransform="matrix(1.3502 0 0 -1.3502 1010.3666 7761.9424)">
			<stop  offset="0" style="stop-color:#0064E1"/>
			<stop  offset="0.4" style="stop-color:#0064E1"/>
			<stop  offset="0.83" style="stop-color:#0073EE"/>
			<stop  offset="1" style="stop-color:#0082FB"/>
		</linearGradient>
		<path id="Logo1" style="fill:url(#Logo1_00000165204142211053431070000016928026467157990580_);" d="M-1659.3,3217.3
			c11.1-17.1,27.1-29,45.4-29c10.6,0,21.2,3.1,32.2,12.1c12.1,9.8,24.9,26,40.9,52.7l5.7,9.6c13.9,23.1,21.8,35,26.4,40.6
			c5.9,7.2,10.1,9.3,15.5,9.3c13.7,0,17.1-12.6,17.1-27l21.3-0.7c0,15.1-3,26.2-8,34.9c-4.9,8.5-14.4,16.9-30.4,16.9
			c-10,0-18.8-2.2-28.5-11.4c-7.5-7.1-16.3-19.6-23-30.9l-20.1-33.5c-10.1-16.8-19.3-29.4-24.6-35c-5.7-6.1-13.1-13.5-24.9-13.5
			c-9.5,0-17.6,6.7-24.4,16.9L-1659.3,3217.3z"/>
		
			<linearGradient id="Logo2_00000099657545990973736970000002543342140237199005_" gradientUnits="userSpaceOnUse" x1="-1967.4366" y1="3307.3242" x2="-1967.4366" y2="3317.9216" gradientTransform="matrix(1.3502 0 0 -1.3502 1010.3666 7761.9424)">
			<stop  offset="0" style="stop-color:#0082FB"/>
			<stop  offset="1" style="stop-color:#0064E0"/>
		</linearGradient>
		<path id="Logo2" style="fill:url(#Logo2_00000099657545990973736970000002543342140237199005_);" d="M-1614.3,3212.5
			c-9.5,0-17.6,6.7-24.4,16.9c-9.6,14.5-15.5,36-15.5,56.7c0,8.5,1.9,15.1,4.3,19.1l-20.6,13.6c-5.3-8.8-7.9-20.3-7.9-33.5
			c0-23.9,6.6-48.8,19-68.1c11.1-17.1,27.1-29,45.4-29L-1614.3,3212.5z"/>
	</g>
</g>
</svg>
