<?xml version="1.0" encoding="utf-8"?>
<!-- Generator: Adobe Illustrator 27.7.0, SVG Export Plug-In . SVG Version: 6.00 Build 0)  -->
<svg version="1.1" id="Layer_1" xmlns="http://www.w3.org/2000/svg" xmlns:xlink="http://www.w3.org/1999/xlink" x="0px" y="0px"
	 viewBox="0 0 252 126" style="enable-background:new 0 0 252 126;" xml:space="preserve">
<style type="text/css">
	.st0{fill:#004F39;}
	.st1{clip-path:url(#SVGID_00000089565260016609773000000009923485937993152170_);fill:#004F39;}
</style>
<g>
	<path class="st0" d="M74.3,74v6.4c0,1.1,0.3,2.6,2.2,2.6c1.7,0,2.4-1.2,2.4-2.7l0-6.3c0-0.4-0.2-0.6-0.4-0.7h1.7
		c-0.2,0.1-0.4,0.3-0.4,0.7l0,6.3c0,2.6-1.5,3.6-3.4,3.6c-1.7,0-3.9-0.8-3.9-3.5V74c0-0.4-0.2-0.6-0.5-0.7h2.8
		C74.5,73.4,74.3,73.6,74.3,74L74.3,74z"/>
	<path class="st0" d="M98.8,74c0-0.4-0.1-0.6-0.4-0.7h1.6c-0.2,0.1-0.4,0.3-0.4,0.7v10.2c0,0-7-8.7-7-8.8V83c0,0.3,0.2,0.6,0.4,0.7
		h-1.6c0.2-0.1,0.4-0.4,0.4-0.7v-8.2c0-0.6,0-0.6-0.3-1c-0.1-0.2-0.3-0.4-0.7-0.6h2.5l5.4,6.7V74L98.8,74z"/>
	<path class="st0" d="M114.3,73.3c-0.2,0.1-0.4,0.3-0.4,0.7v9c0,0.3,0.1,0.6,0.4,0.7h-2.6c0.2-0.1,0.4-0.4,0.4-0.7v-9
		c0-0.4-0.1-0.6-0.4-0.7H114.3L114.3,73.3z"/>
	<path class="st0" d="M132,74c0.1-0.4,0.1-0.6-0.3-0.8h1.8c-0.4,0.3-0.4,0.4-0.6,0.7c-0.2,0.6-3.8,10-3.8,10s-3.8-9.4-4.1-10
		c-0.2-0.3-0.4-0.6-0.8-0.7h3.2c-0.4,0.2-0.4,0.5-0.3,0.8c0,0.1,2.5,6.4,2.5,6.4S132,74.2,132,74L132,74z"/>
	<path class="st0" d="M149.7,74.6c-0.3-0.4-0.6-0.5-1.1-0.6c-0.4,0-2.5,0-2.5,0v3.5h2.2c0.2,0,0.5-0.2,0.5-0.4v1.6
		c-0.1-0.2-0.3-0.4-0.5-0.4h-2.2v4.5c0.3,0,1.2,0.1,1.9,0.1c1.3,0,1.8,0,2.4-1l-0.3,1.8h-6.3c0.2-0.2,0.4-0.3,0.4-0.7v-9
		c0-0.4-0.2-0.6-0.4-0.7h5.8L149.7,74.6L149.7,74.6z"/>
	<path class="st0" d="M163.5,74v4c0,0,0.4,0,0.7,0c1,0,2-0.6,2-2.1c0-0.7-0.4-1.9-1.8-1.9C163.9,74,163.5,74,163.5,74L163.5,74z
		 M165.6,78.4c1,0.1,1.4,0.8,1.6,1.2c0,0,1.7,2.9,2.3,3.5c0.3,0.4,0.9,0.6,0.9,0.6l-1.9,0c-0.6,0-1-0.4-1.3-0.7
		c-0.7-1-1.3-2.1-1.8-2.9c-0.4-0.6-0.7-1.3-1.3-1.3c-0.2,0-0.6,0-0.6,0V83c0,0.3,0.2,0.6,0.4,0.7h-2.6c0.2-0.1,0.4-0.4,0.4-0.7v-9
		c0-0.4-0.1-0.6-0.4-0.7h3.1c3,0,3.7,1.5,3.7,2.6C168.1,77.5,166.7,78.3,165.6,78.4L165.6,78.4z"/>
	<path class="st0" d="M186.4,80.6c0,1.9-1.6,3.2-3.4,3.2c-1.3,0-2.3-0.5-2.8-0.7l-0.1-2.6c0.3,1.1,1.2,2.5,2.7,2.5
		c1.4,0,1.9-1.1,1.9-1.8c0-1.5-1.3-1.7-2.6-2.4c-1.3-0.8-1.9-1.6-1.9-2.8c0-2.1,1.9-2.9,3.2-2.9c0.5,0,1.4,0.1,2.2,0.6l0.1,2.3
		c-0.2-0.8-1-2-2.4-2c-1.1,0-1.5,0.8-1.5,1.5c0,0.9,0.6,1.3,2,1.9C185,78,186.4,78.5,186.4,80.6L186.4,80.6z"/>
	<path class="st0" d="M200.4,73.3c-0.2,0.1-0.4,0.3-0.4,0.7v9c0,0.3,0.1,0.6,0.4,0.7h-2.6c0.2-0.1,0.4-0.4,0.4-0.7v-9
		c0-0.4-0.1-0.6-0.4-0.7H200.4L200.4,73.3z"/>
	<path class="st0" d="M216.2,74v9c0,0.3,0.2,0.6,0.4,0.7H214c0.2-0.1,0.4-0.4,0.4-0.7v-9c-1.1,0-2.3,0.1-2.3,0.1
		c-0.3,0-0.6,0.4-0.7,0.6v-1.5h8v1.5c-0.1-0.3-0.3-0.6-0.7-0.6C218.6,74.2,217.3,74,216.2,74L216.2,74z"/>
	<path class="st0" d="M237.7,73.3c-0.5,0.2-0.8,0.6-1,0.9l-2.3,4.7V83c0,0.3,0.3,0.6,0.5,0.7H232c0.2-0.1,0.5-0.3,0.5-0.7v-4.1
		l-2.9-4.9c-0.2-0.4-0.4-0.5-0.8-0.7h3.3c-0.4,0.2-0.6,0.2-0.2,0.9L234,78l1.9-4c0.2-0.3,0.1-0.7-0.3-0.8H237.7L237.7,73.3z"/>
	<path class="st0" d="M83.2,49.2h3.4c-0.3,0.2-0.5,0.5-0.5,1v12.6c0,0.5,0.2,0.8,0.5,1H83c0.3-0.2,0.5-0.5,0.5-1V52
		c0-0.3,0-0.5,0-0.5L83.4,52l-4.8,12l-4.9-11.6l-0.1-0.6c0,0,0,0.4,0,0.6v10.4c0,0.5,0.2,0.8,0.6,1h-2.2c0.3-0.2,0.5-0.5,0.5-1V50.2
		c0-0.4-0.3-0.8-0.6-1h3.6l4,9.8L83.2,49.2L83.2,49.2z"/>
	<path class="st0" d="M93.6,49.2c-0.3,0.2-0.5,0.5-0.5,1v12.6c0,0.5,0.2,0.8,0.5,1h-3.7c0.3-0.2,0.5-0.5,0.5-1V50.2
		c0-0.5-0.2-0.8-0.5-1H93.6L93.6,49.2z"/>
	<path class="st0" d="M109.1,53.4c-1.2-3-3.6-3.3-4.6-3.3c-3.5,0-5.4,2.7-5.4,6.1c0,2.9,1.4,6.5,5.6,6.5c1,0,3.2-0.3,4.6-3.3
		c0-0.1-0.2,3.1-0.2,3.1c-1.7,1-3.5,1.4-5.1,1.4c-4,0-7.5-2.9-7.5-7.4c0-3.7,2.6-7.5,7.8-7.5c1.7,0,3.2,0.3,4.7,1.1
		C108.9,50.1,109.1,53.5,109.1,53.4L109.1,53.4z"/>
	<path class="st0" d="M120.9,49.2h3.7c-0.3,0.2-0.6,0.5-0.6,1v12.6c0,0.5,0.2,0.8,0.6,1h-3.7c0.3-0.2,0.5-0.5,0.5-1v-6.5h-6.3v6.5
		c0,0.5,0.2,0.8,0.5,1H112c0.3-0.2,0.5-0.5,0.5-1V50.2c0-0.5-0.2-0.8-0.5-1h3.7c-0.3,0.2-0.5,0.5-0.5,1v5h6.3v-5
		C121.4,49.7,121.2,49.4,120.9,49.2L120.9,49.2z"/>
	<path class="st0" d="M131.5,49.2c-0.3,0.2-0.5,0.5-0.5,1v12.6c0,0.5,0.2,0.8,0.5,1h-3.7c0.3-0.2,0.5-0.5,0.5-1V50.2
		c0-0.5-0.2-0.8-0.5-1H131.5L131.5,49.2z"/>
	<path class="st0" d="M146.8,50.1l0.1,3.4c-1-2.9-3.6-3.3-4.5-3.3c-3.4,0-5.4,2.7-5.4,6.1c0,2.9,1.4,6.5,5.6,6.5
		c0.4,0,1.6,0,2.6-0.7v-3.7c0-0.5-0.2-0.8-0.5-1h3.6c-0.3,0.2-0.5,0.5-0.5,1v3.2c0,0.4,0.2,0.8,0.3,0.9c-1.7,1-4.6,1.6-6.2,1.6
		c-4,0-7.6-2.9-7.6-7.4c0-3.7,2.6-7.5,7.8-7.5C143.7,49,145.2,49.4,146.8,50.1L146.8,50.1z"/>
	<path class="st0" d="M157.1,58.6c-1-2.4-2.1-5.2-2.1-5.2s-1.4,3.6-2,5.2H157.1L157.1,58.6z M161.6,62.7c0.2,0.4,0.3,0.7,1,1h-4.3
		c0.5-0.3,0.6-0.6,0.5-1c-0.1-0.2-0.6-1.5-1.2-3h-5c-0.6,1.4-1.1,2.7-1.1,2.9c-0.2,0.5-0.1,0.8,0.5,1.1h-2.8c0.6-0.4,0.7-0.6,0.9-1
		c0.4-0.8,5.7-13.9,5.7-13.9S161.2,61.9,161.6,62.7L161.6,62.7z"/>
	<path class="st0" d="M174,50.2c0-0.5-0.2-0.8-0.5-1h2.2c-0.3,0.2-0.5,0.5-0.5,1v14.1c0,0-9.7-12.1-9.7-12.2v10.7
		c0,0.5,0.2,0.8,0.6,1h-2.2c0.3-0.2,0.5-0.5,0.5-1V51.4c0-0.8,0-0.9-0.4-1.3c-0.2-0.3-0.5-0.6-0.9-0.8h3.5l7.5,9.4V50.2L174,50.2z"
		/>
	<path class="st0" d="M192.3,59.5c0,2.7-2.2,4.5-4.7,4.5c-1.8,0-3.2-0.7-3.9-1l-0.1-3.6c0.4,1.5,1.6,3.5,3.7,3.5
		c2,0,2.6-1.5,2.6-2.6c0-2-1.8-2.3-3.6-3.4c-1.9-1.1-2.7-2.2-2.7-3.9c0-2.9,2.6-4,4.4-4c0.7,0,2,0.1,3.1,0.8l0.1,3.2
		c-0.3-1.1-1.4-2.8-3.4-2.8c-1.5,0-2.1,1.1-2.1,2c0,1.3,0.9,1.8,2.8,2.7C190.4,55.8,192.3,56.5,192.3,59.5L192.3,59.5z"/>
	<path class="st0" d="M200.4,50.3v12.5c0,0.5,0.2,0.8,0.5,1h-3.6c0.3-0.2,0.5-0.5,0.5-1V50.3c-1.5,0-3.2,0.1-3.2,0.1
		c-0.5,0-0.8,0.5-1,0.9v-2.1h11.1v2.1c-0.2-0.4-0.5-0.8-0.9-0.9C203.7,50.4,201.9,50.3,200.4,50.3L200.4,50.3z"/>
	<path class="st0" d="M210.7,58.6c-1-2.4-2.1-5.2-2.1-5.2s-1.4,3.6-2,5.2H210.7L210.7,58.6z M215.2,62.7c0.2,0.4,0.3,0.7,1,1h-4.3
		c0.5-0.3,0.6-0.6,0.5-1c-0.1-0.2-0.6-1.5-1.2-3h-5c-0.6,1.4-1.1,2.7-1.1,2.9c-0.2,0.5-0.1,0.8,0.5,1.1h-2.8c0.6-0.4,0.8-0.6,1-1
		c0.4-0.8,5.7-13.9,5.7-13.9S214.8,61.9,215.2,62.7L215.2,62.7z"/>
	<path class="st0" d="M221.5,50.3v12.5c0,0.5,0.2,0.8,0.5,1h-3.6c0.3-0.2,0.5-0.5,0.5-1V50.3c-1.5,0-3.2,0.1-3.2,0.1
		c-0.5,0-0.8,0.5-1,0.9v-2.1h11.1v2.1c-0.2-0.4-0.5-0.8-0.9-0.9C224.8,50.4,222.9,50.3,221.5,50.3L221.5,50.3z"/>
	<path class="st0" d="M236.1,51.1c-0.4-0.6-0.8-0.7-1.6-0.8c-0.6,0-3.4,0-3.4,0v4.9h3.1c0.3,0,0.6-0.3,0.7-0.6v2.3
		c-0.1-0.3-0.4-0.6-0.7-0.6h-3.1v6.3c0.4,0.1,1.6,0.2,2.6,0.1c1.8,0,2.6,0,3.3-1.3l-0.4,2.4h-8.7c0.3-0.2,0.6-0.4,0.6-1V50.2
		c0-0.5-0.3-0.8-0.6-1h8.1L236.1,51.1L236.1,51.1z"/>
	<g>
		<defs>
			<rect id="SVGID_1_" x="14.3" y="36.7" width="223.3" height="52.7"/>
		</defs>
		<clipPath id="SVGID_00000029007122792338273440000000468001707838190987_">
			<use xlink:href="#SVGID_1_"  style="overflow:visible;"/>
		</clipPath>
		<polygon style="clip-path:url(#SVGID_00000029007122792338273440000000468001707838190987_);fill:#004F39;" points="237.4,68.6 
			71.7,68.6 71.7,67.5 237.4,67.5 237.4,68.6 		"/>
		<path style="clip-path:url(#SVGID_00000029007122792338273440000000468001707838190987_);fill:#004F39;" d="M57,40.3
			c0,0-2.7,5.9-4.1,8.8c-6.8-3.1-15.7-3.6-23.3,0.9c-5,3.1-9,8.5-9.5,14.3c-0.1,3.9,1.6,8.2,1,12c-0.1,2.1-0.6,4.2-1.6,6
			c-1.3,2.1-2.7,3.9-5.3,4c0.6-0.7,4.4-2.6,2.9-11.4c-0.6-3.5-5.4-12.1-0.8-22.9C20.7,42.3,38.9,30.6,57,40.3L57,40.3z"/>
		<path style="clip-path:url(#SVGID_00000029007122792338273440000000468001707838190987_);fill:#004F39;" d="M36.2,57.5
			c2.4-0.8,5-0.9,7.5-0.3c4.7,0.8,8.3,3.7,10,7.9c1.8,4.4,3.1,8,6.2,11.8c0.1,0.1-4.8-0.7-4.8-0.9c1.2-8.8-7.1-9.1-9.4-5.9
			c1.7,1.9,4.7,2.9,7,2.5c-0.5,8.7,1.9,16.6,1.8,16.6c-2-0.3-11-5.6-13.7-7.9c-3.9,0.7-6.9,2.1-11.5,2.8c-0.1,0,0.8-3.3,0.7-5
			c0-4.6-3.5-8.9-1-14.5C30.4,61.3,32.7,58.8,36.2,57.5L36.2,57.5z"/>
	</g>
	<path class="st0" d="M39.4,54.9c0.3,0,0.7,0.1,0.7,0c0.1-0.3,0.3-2.5,2.2-4.1c2.1-1.8,4.8-1.6,4.7-1.6c-2.7-0.8-5.5-0.9-7.4-0.7
		L39.4,54.9L39.4,54.9z"/>
	<path class="st0" d="M22.3,62.8c-0.4,2.6-0.4,5-0.2,6.3c0,0,0.4-2.2,1.7-3.5c1.1-1.1,2.5-1.3,3-1.3c0,0,0.3-0.9,0.2-0.9L22.3,62.8
		L22.3,62.8z"/>
	<path class="st0" d="M27.5,62.3c0.1-0.4,0.3-0.7,0.5-1.1l-4.8-1.9c-0.3,0.6-0.5,1.5-0.6,2L27.5,62.3L27.5,62.3z"/>
	<path class="st0" d="M28.6,60.5c0,0,0.8-1,0.8-1L25,56.2c-0.5,0.6-0.8,1.2-1.1,1.9L28.6,60.5L28.6,60.5z"/>
	<path class="st0" d="M30.3,58.7c0,0,1-0.9,1-0.9l-3.8-4.3c-0.9,0.7-1.1,1.1-1.6,1.7L30.3,58.7L30.3,58.7z"/>
	<path class="st0" d="M32.2,57.2c0,0.1,1.1-0.6,1.1-0.7l-2.8-5.2c-1.1,0.5-1.8,1.1-2.1,1.3L32.2,57.2L32.2,57.2z"/>
	<path class="st0" d="M34.3,56.1c1.3-0.5,1.3-0.5,1.3-0.4l-1.6-5.8c-0.9,0.3-2.1,0.8-2.4,1L34.3,56.1L34.3,56.1z"/>
	<path class="st0" d="M36.7,55.3c0,0,1.2-0.3,1.2-0.3l0.1-6.3c0,0.1-1.5,0.3-2.6,0.6L36.7,55.3L36.7,55.3z"/>
</g>
</svg>
