<?xml version="1.0" encoding="utf-8"?>
<!-- Generator: Adobe Illustrator 27.7.0, SVG Export Plug-In . SVG Version: 6.00 Build 0)  -->
<svg version="1.1" id="Layer_1" xmlns="http://www.w3.org/2000/svg" xmlns:xlink="http://www.w3.org/1999/xlink" x="0px" y="0px"
	 viewBox="0 0 252 126" style="enable-background:new 0 0 252 126;" xml:space="preserve">
<style type="text/css">
	.st0{fill:#737373;}
	.st1{fill:#F25022;}
	.st2{fill:#7FBA00;}
	.st3{fill:#00A4EF;}
	.st4{fill:#FFB900;}
</style>
<g>
	<path class="st0" d="M106.9,48.5v29.1h-5V54.7h-0.1l-9,22.8h-3.4l-9.2-22.8h-0.1v22.8h-4.6V48.5h7.3L91.1,70h0.1l8.8-21.5
		C100,48.5,106.9,48.5,106.9,48.5z M111.1,50.7c0-0.8,0.3-1.5,0.9-2c0.6-0.5,1.3-0.8,2.1-0.8c0.9,0,1.6,0.3,2.2,0.8
		c0.5,0.5,0.9,1.2,0.9,2s-0.3,1.5-0.9,2c-0.6,0.5-1.3,0.8-2.2,0.8c-0.9,0-1.5-0.3-2.1-0.8C111.4,52.1,111.1,51.4,111.1,50.7z
		 M116.5,56.7v20.9h-4.9V56.7C111.6,56.7,116.5,56.7,116.5,56.7z M131.4,74c0.7,0,1.5-0.1,2.4-0.5c0.9-0.3,1.7-0.8,2.4-1.3v4.6
		c-0.8,0.5-1.7,0.8-2.7,1c-1,0.2-2.1,0.3-3.3,0.3c-3.1,0-5.6-0.9-7.5-2.9c-2-2-2.9-4.4-2.9-7.4c0-3.4,1-6.1,3-8.3
		c2-2.2,4.7-3.2,8.3-3.2c0.9,0,1.9,0.1,2.8,0.3c0.9,0.2,1.7,0.5,2.2,0.8v4.7c-0.7-0.5-1.5-1-2.3-1.3c-0.8-0.3-1.6-0.5-2.4-0.5
		c-2,0-3.5,0.6-4.7,1.9c-1.2,1.3-1.7,3-1.7,5.1c0,2.1,0.6,3.8,1.7,4.9C127.9,73.4,129.4,74,131.4,74z M150.2,56.3
		c0.4,0,0.7,0,1.1,0.1s0.6,0.1,0.8,0.2v5c-0.3-0.2-0.6-0.4-1.1-0.5s-1.1-0.3-1.8-0.3c-1.2,0-2.2,0.5-3,1.5c-0.8,1-1.3,2.6-1.3,4.7
		v10.5h-4.9V56.7h4.9V60h0.1c0.5-1.1,1.1-2,2-2.7C147.8,56.7,148.9,56.3,150.2,56.3z M152.3,67.4c0-3.4,1-6.2,2.9-8.2
		c2-2,4.6-3,8.1-3c3.2,0,5.8,0.9,7.6,2.9c1.8,2,2.8,4.6,2.8,7.9c0,3.4-1,6.1-2.9,8.1c-2,2-4.6,3-7.9,3c-3.2,0-5.8-0.9-7.7-2.8
		C153.2,73.3,152.3,70.7,152.3,67.4z M157.4,67.2c0,2.2,0.5,3.8,1.5,5c1,1.1,2.4,1.7,4.2,1.7c1.7,0,3.2-0.5,4.1-1.7
		c0.9-1.1,1.4-2.8,1.4-5.1c0-2.2-0.5-3.9-1.4-5.1c-0.9-1.1-2.4-1.7-4-1.7c-1.8,0-3.2,0.6-4.2,1.8C157.9,63.3,157.4,65,157.4,67.2z
		 M181,62.2c0,0.7,0.2,1.3,0.7,1.7c0.5,0.4,1.4,0.9,3,1.5c2,0.8,3.4,1.7,4.1,2.6c0.8,1,1.2,2.2,1.2,3.6c0,2-0.7,3.5-2.3,4.7
		c-1.5,1.2-3.6,1.7-6.1,1.7c-0.9,0-1.8-0.1-2.9-0.3c-1.1-0.2-2-0.5-2.7-0.8V72c0.9,0.6,1.9,1.1,2.9,1.5c1,0.3,2,0.5,2.8,0.5
		c1.1,0,2-0.1,2.4-0.5c0.5-0.3,0.8-0.8,0.8-1.5c0-0.7-0.3-1.2-0.8-1.7c-0.5-0.5-1.6-1-3.1-1.6c-1.8-0.7-3.1-1.6-3.8-2.6
		c-0.7-0.9-1.1-2.2-1.1-3.6c0-1.9,0.7-3.4,2.2-4.6s3.4-1.8,5.8-1.8c0.7,0,1.5,0.1,2.4,0.3c0.9,0.2,1.7,0.4,2.3,0.6v4.8
		c-0.7-0.4-1.4-0.8-2.3-1.1c-0.9-0.3-1.7-0.5-2.6-0.5c-0.9,0-1.7,0.2-2.2,0.5C181.2,61,181,61.5,181,62.2z M192,67.4
		c0-3.4,1-6.2,2.9-8.2c2-2,4.6-3,8.1-3c3.2,0,5.8,0.9,7.6,2.9s2.8,4.6,2.8,7.9c0,3.4-1,6.1-2.9,8.1c-2,2-4.6,3-7.9,3
		c-3.2,0-5.8-0.9-7.7-2.8C193,73.3,192,70.7,192,67.4z M197.1,67.2c0,2.2,0.5,3.8,1.5,5c1,1.1,2.4,1.7,4.2,1.7
		c1.7,0,3.2-0.5,4.1-1.7c0.9-1.1,1.4-2.8,1.4-5.1c0-2.2-0.5-3.9-1.4-5.1c-0.9-1.1-2.4-1.7-4-1.7c-1.8,0-3.2,0.6-4.2,1.8
		C197.6,63.3,197.1,65,197.1,67.2z M229.7,60.7h-7.3v16.8h-5V60.7h-3.5v-4h3.5v-2.9c0-2.2,0.7-4,2.2-5.4s3.2-2.1,5.4-2.1
		c0.6,0,1.1,0.1,1.6,0.1c0.5,0,0.9,0.1,1.2,0.3v4.2c-0.1-0.1-0.5-0.2-0.9-0.3c-0.4-0.1-0.9-0.2-1.4-0.2c-1,0-1.8,0.3-2.4,0.9
		c-0.5,0.6-0.8,1.6-0.8,2.8v2.5h7.3v-4.7l4.9-1.5v6.2h5v4h-5v9.8c0,1.3,0.3,2.2,0.7,2.7c0.5,0.5,1.2,0.8,2.2,0.8
		c0.3,0,0.6-0.1,1-0.2s0.7-0.3,1-0.5v4c-0.3,0.2-0.8,0.3-1.5,0.5c-0.7,0.1-1.4,0.2-2.2,0.2c-2.1,0-3.6-0.5-4.6-1.6
		c-1-1.1-1.5-2.8-1.5-5L229.7,60.7L229.7,60.7z"/>
	<rect x="12.4" y="38.8" class="st1" width="23" height="23"/>
	<rect x="37.9" y="38.8" class="st2" width="23" height="23"/>
	<rect x="12.4" y="64.2" class="st3" width="23" height="23"/>
	<rect x="37.9" y="64.2" class="st4" width="23" height="23"/>
</g>
</svg>
