<svg width="64" height="64" viewBox="0 0 64 64" fill="none" xmlns="http://www.w3.org/2000/svg">
<rect width="64" height="64" rx="32" fill="white"/>
<path d="M47.5571 29.4343H46.1771C46.0422 28.6888 45.8519 27.9512 45.5981 27.2375L46.8195 26.5316C47.4936 26.143 47.7315 25.2706 47.335 24.5965L46.1295 22.5106C45.9391 22.1854 45.6378 21.9475 45.2729 21.8523C44.9002 21.7492 44.5195 21.8048 44.1943 21.9951L42.9968 22.6851C42.505 22.1061 41.9737 21.5668 41.3947 21.0672L42.1006 19.8458C42.4892 19.1638 42.2592 18.2993 41.5771 17.9107L39.4913 16.7052C39.1582 16.5148 38.7775 16.4672 38.4127 16.5624C38.0478 16.6576 37.7385 16.8955 37.5561 17.2207L36.8661 18.4182C36.1444 18.1565 35.4148 17.9582 34.6693 17.8155V16.4196C34.6693 15.6345 34.0348 15 33.2496 15H30.8465C30.0614 15 29.4269 15.6345 29.4269 16.4196V17.7996C28.6814 17.9345 27.9438 18.1248 27.23 18.3786L26.5321 17.1572C26.1435 16.4831 25.2711 16.2452 24.5969 16.6417L22.5111 17.8472C22.1859 18.0376 21.948 18.3389 21.8528 18.7117C21.7577 19.0765 21.8052 19.4572 21.9956 19.7903L22.6856 20.9879C22.1066 21.4796 21.5673 22.011 21.0677 22.5899L19.8463 21.8841C19.5132 21.6937 19.1404 21.6382 18.7677 21.7413C18.4029 21.8365 18.0936 22.0744 17.9111 22.3996L16.7056 24.4854C16.5153 24.8185 16.4677 25.1992 16.5629 25.564C16.6581 25.9289 16.896 26.2382 17.2212 26.4206L18.4187 27.1106C18.157 27.8323 17.9587 28.5619 17.816 29.3074H16.4201C15.635 29.3074 15.0005 29.9419 15.0005 30.7271V33.1302C15.0005 33.9153 15.635 34.5498 16.4201 34.5498H17.8001C17.9349 35.2953 18.1253 36.0329 18.3791 36.7546L17.1577 37.4446C16.8325 37.6349 16.5946 37.9363 16.4994 38.3091C16.4043 38.6818 16.4519 39.0546 16.6422 39.3877L17.8477 41.4735C18.2363 42.1556 19.1087 42.3856 19.7829 41.989L20.9804 41.299C21.4721 41.878 22.0115 42.4173 22.5825 42.917L21.8766 44.1383C21.6863 44.4635 21.6387 44.8521 21.7339 45.2169C21.829 45.5818 22.067 45.8911 22.3921 46.0814L24.478 47.2869C25.1521 47.6755 26.0245 47.4455 26.4131 46.7714L27.1031 45.5738C27.8248 45.8355 28.5545 46.0338 29.3 46.1766V47.5804C29.3 48.3655 29.9345 49 30.7196 49H33.1227C33.9079 49 34.5424 48.3655 34.5424 47.5804V46.2004C35.2879 46.0655 36.0254 45.8752 36.7472 45.6214L37.453 46.8349C37.6434 47.16 37.9447 47.3979 38.3175 47.4931C38.6823 47.5883 39.063 47.5407 39.3961 47.3504L41.4819 46.1449C42.164 45.7562 42.394 44.8838 42.0054 44.2097L41.3154 43.0121C41.8944 42.5204 42.4337 41.9811 42.9333 41.4101L44.1547 42.1159C44.4878 42.3063 44.8605 42.3539 45.2333 42.2587C45.5981 42.1635 45.9074 41.9256 46.0978 41.6004L47.3033 39.5146C47.4936 39.1894 47.5412 38.8008 47.446 38.436C47.3508 38.0711 47.1129 37.7618 46.7878 37.5794L45.5902 36.8894C45.8519 36.1677 46.0502 35.4301 46.1929 34.6926H47.5967C48.3819 34.6926 49.0163 34.0581 49.0163 33.2729V30.8698C48.9767 30.0688 48.3422 29.4343 47.5571 29.4343ZM24.1211 37.2939C24.0338 37.167 23.9545 37.0401 23.8752 36.9053C23.7959 36.7784 23.7166 36.6436 23.6452 36.5087C23.5738 36.3739 23.5025 36.2391 23.4311 36.0963C23.2645 35.7474 23.1139 35.3905 22.9949 35.0257C22.6697 34.0739 22.4952 33.0508 22.4952 31.9881C22.4952 29.3709 23.558 26.9995 25.279 25.2785C25.4376 25.1199 25.6042 24.9613 25.7787 24.8106C25.8976 24.7154 26.0087 24.6123 26.1276 24.5171C26.2466 24.422 26.3655 24.3347 26.4924 24.2396C26.6193 24.1523 26.7462 24.0651 26.8731 23.9858C26.9366 23.9461 27 23.9065 27.0635 23.8668C27.2617 23.7478 27.46 23.6368 27.6662 23.5337C27.9359 23.3909 28.2214 23.2641 28.5069 23.153C28.5783 23.1292 28.6497 23.0975 28.721 23.0737C29.0145 22.9706 29.3079 22.8754 29.6093 22.7961C30.3627 22.5979 31.1638 22.4948 31.9807 22.4948C32.7975 22.4948 33.5906 22.5979 34.352 22.7961C34.6534 22.8754 34.9548 22.9706 35.2403 23.0737C35.383 23.1292 35.5258 23.1847 35.6686 23.2403C35.8113 23.3037 35.9541 23.3672 36.0889 23.4306C36.1603 23.4623 36.2237 23.4941 36.2951 23.5337C36.4299 23.6051 36.5648 23.6765 36.6996 23.7558C39.5468 25.3975 41.474 28.4747 41.474 31.9881C41.474 35.5015 39.5547 38.5787 36.6996 40.2204C36.5648 40.2997 36.4299 40.3711 36.2951 40.4425C36.2237 40.4742 36.1603 40.5139 36.0889 40.5456C35.9541 40.6091 35.8113 40.6804 35.6686 40.7359C35.5258 40.7994 35.383 40.8549 35.2403 40.9025C34.9468 41.0135 34.6534 41.1008 34.352 41.1801C33.5986 41.3784 32.7975 41.4815 31.9807 41.4815C31.1638 41.4815 30.3707 41.3784 29.6093 41.1801C29.3079 41.1008 29.0066 41.0135 28.721 40.9025C28.6497 40.8787 28.5783 40.847 28.5069 40.8232C28.2214 40.7122 27.9359 40.5853 27.6662 40.4425C27.46 40.3394 27.2617 40.2284 27.0635 40.1094C27 40.0697 26.9366 40.0301 26.8731 39.9904C26.7462 39.9111 26.6193 39.8239 26.4924 39.7366C26.3655 39.6494 26.2466 39.5542 26.1276 39.4591C26.0087 39.3639 25.8897 39.2687 25.7787 39.1656C25.6042 39.0149 25.4376 38.8642 25.279 38.6977C25.1204 38.5391 24.9618 38.3725 24.8111 38.198C24.6604 38.0236 24.5176 37.8491 24.3828 37.6667C24.2956 37.5398 24.2004 37.4208 24.1211 37.2939ZM45.1143 30.0926C45.1143 30.1085 45.1143 30.1164 45.1223 30.1243C45.1143 30.1164 45.1143 30.1005 45.1143 30.0926ZM44.3054 36.9132C44.2974 36.9291 44.2895 36.945 44.2895 36.9687C44.2974 36.9529 44.2974 36.9291 44.3054 36.9132ZM46.2405 25.5323L44.694 26.4285C44.6543 26.4444 44.6067 26.4682 44.5671 26.492C44.3688 26.6188 44.2736 26.8568 44.3212 27.0788C44.2816 26.8568 44.3767 26.6188 44.5671 26.492C44.6067 26.4682 44.6543 26.4444 44.694 26.4285L46.2405 25.5323C46.3436 25.4689 46.3912 25.3499 46.3595 25.2389C46.3912 25.342 46.3436 25.4689 46.2405 25.5323ZM40.1892 20.853C40.0861 20.9958 40.0544 21.1624 40.0861 21.3289C40.0464 21.1703 40.0782 20.9958 40.1892 20.853ZM36.1999 19.4096C35.962 19.3303 35.7241 19.2589 35.4782 19.1875C35.7161 19.2589 35.962 19.3303 36.1999 19.4096ZM33.5193 16.4196V18.3072C33.5193 18.4658 33.5827 18.6165 33.6937 18.7196C33.7334 18.7513 33.7731 18.7831 33.8127 18.8069C33.7651 18.7831 33.7255 18.7513 33.6937 18.7196C33.5827 18.6165 33.5193 18.4658 33.5193 18.3072V16.4196C33.5193 16.3483 33.4875 16.2848 33.44 16.2372C33.4875 16.2769 33.5193 16.3483 33.5193 16.4196ZM30.5848 16.4196C30.5848 16.3007 30.6641 16.1976 30.7672 16.1738C30.6641 16.2055 30.5848 16.3086 30.5848 16.4196ZM27.1824 19.6237C27.3569 19.5524 27.5393 19.4889 27.7138 19.4334C27.5393 19.4969 27.3569 19.5603 27.1824 19.6237ZM22.9632 19.0051C22.9711 18.9655 23.0028 18.8941 23.0821 18.8465L25.168 17.641L23.0901 18.8465C23.0028 18.8941 22.9711 18.9655 22.9632 19.0051C22.9552 19.0448 22.9473 19.1241 22.987 19.2034L23.9228 20.8293C24.0656 21.0751 24.0021 21.3923 23.7801 21.5748C24.0021 21.4003 24.0656 21.083 23.9228 20.8293L22.987 19.2034C22.9394 19.1162 22.9552 19.0448 22.9632 19.0051ZM21.6466 23.6844C21.9242 23.3434 22.2177 23.0103 22.519 22.701C22.2177 23.0182 21.9242 23.3434 21.6466 23.6844C21.6308 23.7003 21.6228 23.7161 21.599 23.732C21.6149 23.724 21.6308 23.7003 21.6466 23.6844ZM21.5039 23.8192C21.4642 23.843 21.4246 23.8589 21.3849 23.8747C21.4246 23.8589 21.4642 23.8351 21.5039 23.8192ZM19.6718 27.063C19.6004 27.2375 19.537 27.4199 19.4735 27.5944C19.537 27.4119 19.6004 27.2375 19.6718 27.063ZM19.0136 22.8754C18.9977 22.8834 18.9898 22.8913 18.9739 22.9072C18.9818 22.8913 18.9977 22.8834 19.0136 22.8754ZM17.8001 25.4133C17.7208 25.3658 17.6891 25.2944 17.6812 25.2547C17.6732 25.2151 17.6574 25.1358 17.7049 25.0564L18.9104 22.9706C18.9263 22.9389 18.9501 22.9151 18.9739 22.8992C18.9501 22.9151 18.9342 22.9389 18.9184 22.9706L17.7129 25.0564C17.6653 25.1358 17.6732 25.2151 17.6891 25.2547C17.697 25.2944 17.7208 25.3658 17.8001 25.4133ZM18.8787 29.9657C18.8629 30.0926 18.7994 30.1957 18.7201 30.2829C18.6725 30.3305 18.617 30.3702 18.5615 30.4019C18.6249 30.3702 18.6805 30.3305 18.7201 30.2829C18.7994 30.1957 18.8629 30.0926 18.8787 29.9657ZM16.1584 33.1222C16.1584 33.1936 16.1901 33.2571 16.2377 33.3046C16.1822 33.265 16.1584 33.1936 16.1584 33.1222ZM21.5673 40.1887C21.4087 39.9825 21.1311 39.9111 20.8932 40.0142C20.8694 40.0222 20.8456 40.038 20.8218 40.046L19.196 40.9818C19.0691 41.0532 18.9104 41.0056 18.8391 40.8866L17.6415 38.8087C17.5939 38.7294 17.6018 38.6501 17.6177 38.6105C17.6256 38.5708 17.6574 38.4994 17.7367 38.4518L19.3467 37.5239C19.6163 37.3891 19.7353 37.0718 19.6242 36.7943C19.2594 35.8584 19.0056 34.875 18.8629 33.8836C18.8311 33.6695 18.6884 33.495 18.498 33.4236C18.6884 33.495 18.8391 33.6695 18.8708 33.8836C19.0136 34.875 19.2673 35.8505 19.6322 36.7943C19.7432 37.0718 19.6163 37.3891 19.3546 37.5239L17.7446 38.4518C17.6653 38.4994 17.6336 38.5708 17.6256 38.6105C17.6177 38.6501 17.6018 38.7294 17.6494 38.8087L18.8549 40.8946C18.9263 41.0135 19.0849 41.0611 19.2118 40.9897L20.8377 40.0539C20.8615 40.038 20.8853 40.0301 20.9011 40.0222C21.1311 39.9191 21.4087 39.9825 21.5673 40.1887C22.1939 40.9818 22.9076 41.6956 23.6849 42.3221C23.899 42.4966 23.9625 42.7901 23.8356 43.0359C23.8276 43.0439 23.8276 43.0518 23.8197 43.0676C23.8276 43.0597 23.8276 43.0518 23.8356 43.0359C23.9545 42.7901 23.8911 42.4966 23.677 42.3301C22.9076 41.7035 22.1939 40.9818 21.5673 40.1887ZM25.2552 46.2955C25.2156 46.3035 25.1362 46.3193 25.0569 46.2718L22.9711 45.0662C22.8918 45.0187 22.8601 44.9473 22.8521 44.9076C22.8442 44.868 22.8283 44.7887 22.8759 44.7094C22.8283 44.7887 22.8363 44.868 22.8521 44.9076C22.8601 44.9473 22.8918 45.0187 22.9711 45.0662L25.0569 46.2718C25.1362 46.3114 25.2156 46.3035 25.2552 46.2955C25.279 46.2876 25.3028 46.2797 25.3345 46.2638C25.3028 46.2797 25.2711 46.2876 25.2552 46.2955ZM33.1227 47.8262H30.7196C30.5769 47.8262 30.4579 47.7073 30.4579 47.5645V45.6769C30.4579 45.3914 30.2517 45.1456 29.9662 45.1059C28.9828 44.9552 28.0073 44.6856 27.0635 44.3128C26.9921 44.289 26.9207 44.2732 26.8493 44.2732C26.7462 44.2732 26.6511 44.2969 26.5638 44.3525C26.6511 44.3049 26.7542 44.2732 26.8493 44.2732C26.9207 44.2732 26.9921 44.289 27.0635 44.3128C28.0073 44.6935 28.9828 44.9552 29.9662 45.1059C30.2438 45.1456 30.4579 45.3914 30.4579 45.6769V47.5645C30.4579 47.7073 30.5769 47.8262 30.7196 47.8262H33.1227C33.2417 47.8262 33.3369 47.7469 33.3765 47.6438C33.3448 47.7469 33.2417 47.8262 33.1227 47.8262ZM40.8951 45.1297L38.8092 46.3352C38.7299 46.3828 38.6506 46.3749 38.6109 46.359C38.5713 46.3511 38.4999 46.3193 38.4523 46.24L37.5403 44.6538C37.4847 44.5349 37.3975 44.4318 37.2785 44.3763C37.1279 44.2969 36.9613 44.2969 36.8027 44.3525C35.8668 44.7173 34.8834 44.9711 33.892 45.1138C33.6779 45.1456 33.5034 45.2883 33.432 45.4787C33.5034 45.2883 33.6779 45.1376 33.892 45.1059C34.8834 44.9631 35.8589 44.7094 36.8027 44.3445C36.9613 44.289 37.1279 44.289 37.2785 44.3683C37.3975 44.4318 37.4927 44.5269 37.5403 44.6459L38.4523 46.2321C38.4999 46.3114 38.5713 46.3431 38.6109 46.3511C38.6506 46.359 38.7299 46.3749 38.8092 46.3273L40.8951 45.1297C40.9347 45.1059 40.9664 45.0662 40.9902 45.0345C40.9664 45.0742 40.9347 45.1059 40.8951 45.1297ZM45.0667 41.0056C45.0191 41.0849 44.9478 41.1166 44.9081 41.1246C44.8685 41.1325 44.7892 41.1484 44.7098 41.1008L43.1157 40.1808C43.0919 40.1649 43.0681 40.1491 43.0364 40.1332C42.7906 40.0142 42.4971 40.0777 42.3306 40.2918C41.704 41.069 40.9823 41.7828 40.1892 42.4094C40.1654 42.4332 40.1416 42.449 40.1178 42.4728C40.1416 42.449 40.1654 42.4252 40.1892 42.4014C40.9823 41.7749 41.704 41.0611 42.3306 40.2839C42.4971 40.0697 42.7985 40.0063 43.0364 40.1332C43.0602 40.1491 43.084 40.1649 43.1157 40.1808L44.7098 41.1008C44.7892 41.1484 44.8685 41.1404 44.9081 41.1246C44.9478 41.1166 45.0191 41.0849 45.0667 41.0056ZM47.5571 33.5188H45.7091C45.5902 33.5108 45.4712 33.5426 45.3681 33.5981C45.3126 33.6298 45.265 33.6695 45.2254 33.7171C45.265 33.6695 45.3126 33.6298 45.3681 33.5902C45.4712 33.5267 45.5822 33.5029 45.7091 33.5108L47.5571 33.5188C47.676 33.5188 47.7712 33.4395 47.8108 33.3364C47.7791 33.4395 47.676 33.5188 47.5571 33.5188Z" fill="#151419"/>
<path d="M28.1262 32.5116H29.7203V38.7215C29.7203 39.0387 29.982 39.3005 30.2993 39.3005H33.6778C33.9951 39.3005 34.2568 39.0387 34.2568 38.7215V32.5116H35.8509C36.0571 32.5116 36.2475 32.4005 36.3506 32.2181C36.4537 32.0357 36.4537 31.8216 36.3506 31.6392L32.4961 24.9534C32.393 24.7709 32.2027 24.6678 31.9965 24.6678C31.7903 24.6678 31.5999 24.7789 31.4968 24.9534L27.6265 31.6471C27.5234 31.8295 27.5234 32.0436 27.6265 32.226C27.7296 32.4005 27.92 32.5116 28.1262 32.5116Z" fill="#151419"/>
</svg>
