<svg width="64" height="64" viewBox="0 0 64 64" fill="none" xmlns="http://www.w3.org/2000/svg">
<rect width="64" height="64" rx="32" fill="white"/>
<path d="M18.8571 49.1429H33.7143C34.472 49.1429 35.1988 48.8419 35.7346 48.3061C36.2704 47.7702 36.5714 47.0435 36.5714 46.2857V24.5715C36.5718 24.4645 36.5421 24.3595 36.4857 24.2686L34.1714 20.5715H34.2857C34.4373 20.5715 34.5826 20.5113 34.6898 20.4041C34.7969 20.2969 34.8571 20.1516 34.8571 20V15.4286C34.8571 15.2771 34.7969 15.1317 34.6898 15.0245C34.5826 14.9174 34.4373 14.8572 34.2857 14.8572H18.2857C18.1342 14.8572 17.9888 14.9174 17.8817 15.0245C17.7745 15.1317 17.7143 15.2771 17.7143 15.4286V20C17.7143 20.1516 17.7745 20.2969 17.8817 20.4041C17.9888 20.5113 18.1342 20.5715 18.2857 20.5715H18.4L16.1143 24.2686C16.0478 24.3564 16.0081 24.4616 16 24.5715V46.2857C16 47.0435 16.301 47.7702 16.8368 48.3061C17.3727 48.8419 18.0994 49.1429 18.8571 49.1429ZM32.5714 16H33.7143V19.4286H32.5714V16ZM29.1429 16H30.2857V19.4286H29.1429V16ZM25.7143 16H26.8571V19.4286H25.7143V16ZM22.2857 16H23.4286V19.4286H22.2857V16ZM18.8571 16H20V19.4286H18.8571V16ZM19.7429 20.5715H32.8286L34.9714 24H17.6L19.7429 20.5715ZM32.5714 34.2857C32.5714 35.5289 32.2028 36.7442 31.5121 37.7779C30.8214 38.8116 29.8397 39.6172 28.6912 40.093C27.5426 40.5687 26.2787 40.6932 25.0594 40.4507C23.8401 40.2081 22.7201 39.6095 21.841 38.7304C20.962 37.8513 20.3633 36.7313 20.1208 35.512C19.8782 34.2927 20.0027 33.0289 20.4785 31.8803C20.9542 30.7317 21.7599 29.7501 22.7936 29.0594C23.8272 28.3687 25.0425 28 26.2857 28C27.9528 28 29.5516 28.6623 30.7304 29.8411C31.9092 31.0199 32.5714 32.6187 32.5714 34.2857ZM17.1429 44.5715H35.4286V46.2857C35.4286 46.7404 35.248 47.1764 34.9265 47.4979C34.605 47.8194 34.1689 48 33.7143 48H18.8571C18.4025 48 17.9665 47.8194 17.645 47.4979C17.3235 47.1764 17.1429 46.7404 17.1429 46.2857V44.5715Z" fill="#151419"/>
<path d="M24.5715 30.8571V32.5714H22.8572C22.7056 32.5714 22.5603 32.6316 22.4531 32.7387C22.346 32.8459 22.2858 32.9912 22.2858 33.1428V35.4285C22.2858 35.5801 22.346 35.7254 22.4531 35.8326C22.5603 35.9397 22.7056 35.9999 22.8572 35.9999H24.5715V37.7142C24.5715 37.8658 24.6317 38.0111 24.7388 38.1183C24.846 38.2254 24.9914 38.2856 25.1429 38.2856H27.4286C27.5802 38.2856 27.7255 38.2254 27.8327 38.1183C27.9398 38.0111 28.0001 37.8658 28.0001 37.7142V35.9999H29.7143C29.8659 35.9999 30.0112 35.9397 30.1184 35.8326C30.2256 35.7254 30.2858 35.5801 30.2858 35.4285V33.1428C30.2858 32.9912 30.2256 32.8459 30.1184 32.7387C30.0112 32.6316 29.8659 32.5714 29.7143 32.5714H28.0001V30.8571C28.0001 30.7055 27.9398 30.5602 27.8327 30.453C27.7255 30.3458 27.5802 30.2856 27.4286 30.2856H25.1429C24.9914 30.2856 24.846 30.3458 24.7388 30.453C24.6317 30.5602 24.5715 30.7055 24.5715 30.8571Z" fill="#151419"/>
<path d="M39.2171 43.8344C38.886 44.174 38.6667 44.6067 38.5885 45.0744C38.3181 45.2867 38.099 45.5573 37.9477 45.866C37.7963 46.1746 37.7165 46.5135 37.7142 46.8573C37.7142 47.4635 37.955 48.0449 38.3837 48.4735C38.8124 48.9022 39.3937 49.143 39.9999 49.143H45.7142C46.3204 49.143 46.9018 48.9022 47.3305 48.4735C47.7591 48.0449 47.9999 47.4635 47.9999 46.8573C47.9999 46.2511 47.7591 45.6697 47.3305 45.241C46.9018 44.8124 46.3204 44.5716 45.7142 44.5716H44.9485L46.4971 43.023C46.7096 42.8107 46.8782 42.5586 46.9932 42.2811C47.1083 42.0037 47.1675 41.7062 47.1675 41.4059C47.1675 41.1055 47.1083 40.808 46.9932 40.5306C46.8782 40.2531 46.7096 40.001 46.4971 39.7887C46.2847 39.5753 46.0323 39.406 45.7543 39.2905C45.4762 39.175 45.1781 39.1155 44.8771 39.1155C44.576 39.1155 44.2779 39.175 43.9999 39.2905C43.7219 39.406 43.4695 39.5753 43.2571 39.7887L39.2171 43.8344ZM45.7142 45.7144C46.0173 45.7144 46.308 45.8348 46.5224 46.0492C46.7367 46.2635 46.8571 46.5542 46.8571 46.8573C46.8571 47.1604 46.7367 47.4511 46.5224 47.6654C46.308 47.8797 46.0173 48.0001 45.7142 48.0001H42.8571V45.7144H45.7142ZM43.3371 44.5716H40.0914L42.0457 42.6173L43.6685 44.2401L43.3371 44.5716Z" fill="#151419"/>
</svg>
