<svg width="64" height="64" viewBox="0 0 64 64" fill="none" xmlns="http://www.w3.org/2000/svg">
<rect width="64" height="64" rx="32" fill="white"/>
<path d="M15.997 27.1627C15.3051 26.9377 14.8439 26.2908 14.8439 25.5652V20.7502C14.8439 19.8221 15.6033 19.0627 16.5314 19.0627H41.2814C42.2095 19.0627 42.9689 19.8221 42.9689 20.7502V25.5652C42.9689 26.2908 42.5076 26.9377 41.8158 27.1627L31.7188 30.5321V29.1877C31.7188 28.8783 31.4657 28.6252 31.1563 28.6252H26.6563C26.347 28.6252 26.0938 28.8783 26.0938 29.1877V30.5321L15.997 27.1627ZM36.3989 40.7638C36.427 40.6907 36.4777 40.5051 36.3145 40.342C36.0277 40.0551 35.8702 39.6782 35.8702 39.2732C35.8702 38.8682 36.0277 38.4913 36.3145 38.2044L37.3608 37.1582C37.9345 36.5901 38.9245 36.5901 39.4983 37.1582C39.6614 37.3213 39.847 37.2707 39.9202 37.2426C39.9877 37.2144 40.1564 37.1188 40.1564 36.8882C40.1564 36.0557 40.837 35.3751 41.6695 35.3751H41.8439V28.3382L31.7189 31.7188V33.6875C31.7189 33.9969 31.4658 34.25 31.1564 34.25H26.6564C26.347 34.25 26.0939 33.9969 26.0939 33.6875V31.7188L15.9689 28.3382V41.0001C15.9689 41.9282 16.7283 42.6876 17.6564 42.6876H34.5314V42.5132C34.5314 41.6807 35.212 41.0001 36.0445 41.0001C36.2751 41.0001 36.3708 40.8313 36.3989 40.7638ZM26.0939 16.25H31.7189V17.9375H33.9689V15.125C33.9689 14.5062 33.4627 14 32.8439 14H24.9689C24.3501 14 23.8439 14.5062 23.8439 15.125V17.9375H26.0939V16.25ZM30.5939 33.125V29.75H27.2189V33.125H30.5939ZM42.4062 41C41.1659 41 40.1562 42.0097 40.1562 43.25C40.1562 44.4903 41.1659 45.5 42.4062 45.5C43.6465 45.5 44.6562 44.4903 44.6562 43.25C44.6562 42.0097 43.6465 41 42.4062 41ZM49.1562 42.5131V43.9869C49.1562 44.2006 48.9819 44.375 48.7681 44.375C48.1494 44.375 47.615 44.735 47.3731 45.3088C47.1369 45.8825 47.2606 46.5125 47.6994 46.9569C47.7725 47.03 47.8175 47.1256 47.8175 47.2269C47.8175 47.3281 47.7725 47.4294 47.6994 47.5025L46.6588 48.5431C46.5125 48.6894 46.2538 48.6894 46.1131 48.5431C45.6688 48.1044 45.0444 47.9806 44.465 48.2169C43.8913 48.4588 43.5313 48.9931 43.5313 49.6119C43.5313 49.8256 43.3569 50 43.1431 50H41.6694C41.4556 50 41.2813 49.8256 41.2813 49.6119C41.2813 48.9931 40.9213 48.4588 40.3475 48.2169C40.1562 48.1381 39.9594 48.0988 39.7625 48.0988C39.3744 48.0988 38.9919 48.2506 38.6994 48.5431C38.5587 48.6894 38.3 48.6894 38.1538 48.5431L37.1131 47.5025C37.04 47.4294 36.995 47.3282 36.995 47.2269C36.995 47.1257 37.04 47.03 37.1131 46.9569C37.5519 46.5125 37.6756 45.8825 37.4394 45.3088C37.1975 44.735 36.6632 44.375 36.0444 44.375C35.8306 44.375 35.6563 44.2006 35.6563 43.9869V42.5131C35.6563 42.2994 35.8306 42.125 36.0444 42.125C36.6632 42.125 37.1975 41.765 37.4394 41.1912C37.6756 40.6175 37.5519 39.9875 37.1131 39.5431C37.04 39.47 36.995 39.3744 36.995 39.2731C36.995 39.1719 37.04 39.0706 37.1131 38.9975L38.1538 37.9569C38.3 37.8106 38.5531 37.8106 38.6994 37.9569C39.1438 38.3957 39.7738 38.525 40.3475 38.2831C40.9212 38.0413 41.2813 37.5069 41.2813 36.8881C41.2813 36.6744 41.4556 36.5 41.6694 36.5H43.1431C43.3569 36.5 43.5313 36.6744 43.5313 36.8881C43.5313 37.5069 43.8913 38.0413 44.465 38.2831C45.0388 38.5194 45.6688 38.3956 46.1131 37.9569C46.2538 37.8106 46.5125 37.8106 46.6588 37.9569L47.6994 38.9975C47.7725 39.0706 47.8175 39.1719 47.8175 39.2731C47.8175 39.3744 47.7725 39.47 47.6994 39.5431C47.2606 39.9875 47.1369 40.6175 47.3731 41.1912C47.615 41.765 48.1494 42.125 48.7681 42.125C48.9819 42.125 49.1562 42.2994 49.1562 42.5131ZM45.7812 43.25C45.7812 41.3895 44.2667 39.875 42.4062 39.875C40.5458 39.875 39.0312 41.3895 39.0312 43.25C39.0312 45.1105 40.5458 46.625 42.4062 46.625C44.2667 46.625 45.7812 45.1105 45.7812 43.25Z" fill="#151419"/>
</svg>
