<svg width="64" height="64" viewBox="0 0 64 64" fill="none" xmlns="http://www.w3.org/2000/svg">
<rect width="64" height="64" rx="32" fill="white"/>
<path d="M47.7857 27.1429H16.2143C15.5437 27.1429 15 27.686 15 28.3572V30.7857C15 31.4569 15.5437 32 16.2143 32H47.7857C48.4563 32 49 31.4569 49 30.7857V28.3572C49 27.686 48.4563 27.1429 47.7857 27.1429Z" fill="#151419"/>
<path d="M34.4286 21.0714L33.2143 18.6429H29.5714L28.3571 21.0714C27.7276 22.3304 27.2794 24.2851 27.1429 25.9286H35.6429C35.5063 24.2851 35.0581 22.3304 34.4286 21.0714Z" fill="#151419"/>
<path d="M33.2143 16.2143C33.2143 15.5431 32.6706 15 32 15H30.7857C30.1151 15 29.5714 15.5431 29.5714 16.2143V17.4286H33.2143V16.2143Z" fill="#151419"/>
<path d="M18.6535 45.8386C18.8937 47.6411 20.4459 49 22.2644 49H41.7143C43.5327 49 45.085 47.6411 45.3168 45.8931C45.3168 45.8931 47.7859 33.2865 47.7857 33.2143H16.2143C16.2142 33.2857 18.6535 45.8386 18.6535 45.8386ZM39.304 45.8167L41.7326 36.1024C41.8126 35.7763 42.1417 35.5819 42.4684 35.6601C42.7939 35.742 42.9919 36.0716 42.9101 36.3965L40.4815 46.1108C40.4128 46.3871 40.1655 46.5709 39.8934 46.5709C39.8448 46.5709 39.7949 46.565 39.7457 46.5531C39.4202 46.4713 39.2222 46.1416 39.304 45.8167ZM35.6476 36.1751C35.6891 35.843 35.9915 35.6023 36.3253 35.6486C36.6579 35.6901 36.8939 35.9936 36.8524 36.3269L35.6381 46.0412C35.5996 46.3483 35.3381 46.5724 35.0363 46.5724C35.0114 46.5724 34.9859 46.5712 34.9604 46.5677C34.6278 46.5262 34.3918 46.2226 34.4333 45.8894L35.6476 36.1751ZM27.6747 35.6476C28.0085 35.6014 28.3109 35.8421 28.3524 36.1741L29.5667 45.8884C29.6082 46.2216 29.3722 46.5252 29.0396 46.5667C29.0141 46.5703 28.9886 46.5714 28.9637 46.5714C28.6619 46.5714 28.4004 46.3473 28.3619 46.0402L27.1476 36.3259C27.1061 35.9927 27.3421 35.6891 27.6747 35.6476ZM21.5316 35.6592C21.8583 35.5809 22.1874 35.7754 22.2674 36.1015L24.696 45.8158C24.7778 46.1407 24.5798 46.4703 24.2543 46.5522C24.205 46.564 24.1552 46.57 24.1066 46.57C23.8345 46.57 23.5872 46.3862 23.5184 46.1099L21.0899 36.3956C21.0081 36.0707 21.2061 35.741 21.5316 35.6592Z" fill="#151419"/>
<path d="M39.2857 18.6429H45.3571C46.0283 18.6429 46.5714 18.0992 46.5714 17.4286V16.2143C46.5714 15.5437 46.0283 15 45.3571 15H39.2857C38.6145 15 38.0714 15.5437 38.0714 16.2143V17.4286C38.0714 18.0992 38.6145 18.6429 39.2857 18.6429Z" fill="#151419"/>
<path d="M47.7857 24.7143C47.7857 23.1478 46.7643 21.7529 45.3571 21.2748V19.8571H39.2857V21.2748C37.8786 21.7529 36.8571 23.1478 36.8571 24.7143V25.9286H47.7857V24.7143Z" fill="#151419"/>
<path d="M18.6429 25.9286H25.9286L24.1709 22.4734L22.1078 24.5364C21.9893 24.655 21.8339 24.7143 21.6786 24.7143C21.5232 24.7143 21.3679 24.655 21.2493 24.5364C21.0121 24.2992 21.0121 23.915 21.2493 23.6779L23.5919 21.3353L22.1236 18.4492L19.6793 20.8936C19.5607 21.0121 19.4053 21.0714 19.25 21.0714C19.0947 21.0714 18.9393 21.0121 18.8207 20.8936C18.5836 20.6564 18.5836 20.2722 18.8207 20.035L21.5446 17.3111L21.3746 16.9768C20.8403 15.7747 19.6481 15 18.3326 15C15.9237 15 14.3123 17.4795 15.2907 19.6808L18.6429 25.9286Z" fill="#151419"/>
</svg>
