<svg width="64" height="64" viewBox="0 0 64 64" fill="none" xmlns="http://www.w3.org/2000/svg">
<rect width="64" height="64" rx="32" fill="white"/>
<path fill-rule="evenodd" clip-rule="evenodd" d="M36.2811 45.9877H30.5643V48.0362C30.5643 48.4173 30.7679 48.7724 31.0927 49.0366C31.4478 49.3224 31.9415 49.5 32.4916 49.5H34.3495C34.8995 49.5 35.3976 49.3224 35.7484 49.0366C36.0732 48.7724 36.2767 48.4216 36.2767 48.0362V45.9877H36.2811ZM27.8835 42.4364V42.5143C27.8835 42.8608 27.9398 43.1899 28.0611 43.4888C28.1823 43.7876 28.3642 44.0604 28.6111 44.3073C28.858 44.5541 29.1308 44.7404 29.4253 44.866C29.7198 44.9872 30.0446 45.0522 30.3954 45.0522H36.424C37.1169 45.0522 37.7449 44.7707 38.1996 44.316C38.6544 43.8612 38.9402 43.2332 38.9402 42.5403V42.4407H27.8792L27.8835 42.4364ZM12.981 33.138C12.7211 33.138 12.5133 32.9301 12.5133 32.6702C12.5133 32.4104 12.7211 32.2025 12.981 32.2025H18.4725C18.7324 32.2025 18.9403 32.4104 18.9403 32.6702C18.9403 32.9301 18.7324 33.138 18.4725 33.138H12.981ZM15.4842 22.8522C15.259 22.7222 15.1854 22.4364 15.3153 22.2155C15.4453 21.9947 15.7311 21.9167 15.952 22.0466L20.7073 24.7924C20.9281 24.9223 21.0061 25.2082 20.8762 25.429C20.7462 25.6499 20.4604 25.7279 20.2395 25.5979L15.4842 22.8522ZM22.7991 15.1995C22.6691 14.9787 22.7471 14.6928 22.9723 14.5629C23.1932 14.433 23.479 14.5109 23.6089 14.7361L26.3547 19.4914C26.4846 19.7123 26.4067 19.9981 26.1815 20.1281C25.9606 20.258 25.6748 20.18 25.5448 19.9548L22.7991 15.1995ZM43.8991 18.543C43.6695 18.4477 43.4357 18.3654 43.2018 18.2918C43.0329 18.2441 42.8986 18.1099 42.864 17.928L42.3703 15.3251H39.2434L38.7497 17.928C38.7193 18.0925 38.5981 18.2355 38.4292 18.2874C38.191 18.3611 37.9528 18.4477 37.7189 18.543C37.485 18.6382 37.2598 18.7465 37.0433 18.8591C36.8917 18.9414 36.7012 18.9414 36.5539 18.8375L34.3625 17.3433L32.1494 19.5564L33.6436 21.7478C33.7388 21.8864 33.7562 22.0683 33.6695 22.2285C33.5526 22.4494 33.4443 22.6789 33.3447 22.9128C33.2495 23.1423 33.1672 23.3762 33.0935 23.6057C33.0459 23.7746 32.9116 23.9089 32.7297 23.9436L30.1269 24.4373V27.5642L32.7297 28.0579C32.8943 28.0882 33.0372 28.2095 33.0892 28.3784C33.1628 28.6166 33.2495 28.8548 33.3447 29.0886C33.44 29.3225 33.5483 29.5477 33.6609 29.7642C33.7432 29.9158 33.7432 30.1064 33.6392 30.2536L32.1451 32.445L34.3582 34.6581L36.5496 33.164C36.6882 33.0687 36.8701 33.0514 37.0303 33.138C37.2512 33.2549 37.4807 33.3632 37.7146 33.4628C37.9441 33.5581 38.178 33.6404 38.4118 33.714C38.5807 33.7616 38.715 33.8959 38.7497 34.0778L39.2434 36.6806H42.3703L42.864 34.0778C42.8943 33.9132 43.0156 33.7703 43.1845 33.7183C43.4227 33.6447 43.6609 33.5581 43.8947 33.4628C44.1286 33.3675 44.3538 33.2592 44.5703 33.1466C44.7219 33.0644 44.9125 33.0644 45.0597 33.1683L47.2511 34.6624L49.4642 32.4494L47.9701 30.258C47.8748 30.1194 47.8575 29.9375 47.9441 29.7772C48.061 29.5564 48.1693 29.3268 48.2689 29.093C48.3642 28.8634 48.4465 28.6295 48.5201 28.3957C48.5677 28.2268 48.702 28.0925 48.8839 28.0579L51.4867 27.5642V24.4373L48.8839 23.9436C48.7193 23.9132 48.5764 23.792 48.5244 23.6231C48.4508 23.3849 48.3642 23.1467 48.2689 22.9128C48.1736 22.6789 48.0653 22.4537 47.9527 22.2372C47.8705 22.0856 47.8705 21.8951 47.9744 21.7478L49.4686 19.5564L47.2555 17.3433L45.0641 18.8375C44.9255 18.9327 44.7436 18.9501 44.5833 18.8634C44.3625 18.7465 44.1329 18.6382 43.8991 18.5386V18.543ZM31.6297 20.4442L32.7211 22.0423C32.6388 22.2112 32.5608 22.3801 32.4916 22.5533C32.4223 22.7222 32.353 22.8998 32.2923 23.0774L29.6115 23.5841C29.3777 23.6101 29.2001 23.8093 29.2001 24.0475V27.9496C29.2001 28.1705 29.356 28.3654 29.5812 28.4087L32.2923 28.924C32.353 29.1016 32.4179 29.2748 32.4916 29.4481C32.5652 29.6213 32.6388 29.7902 32.7211 29.9591L31.1836 32.2155C31.0407 32.3974 31.0537 32.6659 31.2226 32.8348L33.9814 35.5936C34.1373 35.7495 34.3841 35.7755 34.5747 35.6499L36.8571 34.0951C37.026 34.1774 37.1949 34.2553 37.3681 34.3246C37.537 34.3939 37.7146 34.4632 37.8921 34.5239L38.3989 37.2047C38.4248 37.4385 38.6241 37.6161 38.8623 37.6161H41.4261C41.2009 37.8803 40.9584 38.1358 40.7072 38.3783C40.2308 38.8374 39.7111 39.2488 39.1568 39.6083C39.0182 39.6992 38.9445 39.8465 38.9445 39.9981V41.4922H27.8922L27.9052 40.0024C27.9052 39.8378 27.8229 39.6906 27.6929 39.6083C26.2291 38.6555 25.0208 37.3433 24.1806 35.8015C23.3751 34.316 22.916 32.6096 22.916 30.7993C22.916 28.1705 23.8818 25.7668 25.4755 23.9262C27.0303 22.1289 29.1871 20.8643 31.6297 20.4442ZM43.5656 23.2506C44.2715 23.9565 44.7046 24.9267 44.7046 26.0007C44.7046 27.0748 44.2672 28.0492 43.5656 28.7508C42.8596 29.4567 41.8895 29.8898 40.8155 29.8898C39.7414 29.8898 38.767 29.4524 38.0654 28.7508C37.3594 28.0449 36.9264 27.0748 36.9264 26.0007C36.9264 24.9267 37.3638 23.9522 38.0654 23.2506C38.7713 22.5447 39.7414 22.1116 40.8155 22.1116C41.8895 22.1116 42.864 22.549 43.5656 23.2506ZM40.8155 21.1761C42.1494 21.1761 43.3534 21.7175 44.2282 22.588C45.103 23.4585 45.6401 24.6668 45.6401 26.0007C45.6401 27.3346 45.0987 28.5386 44.2282 29.4134C43.3534 30.2883 42.1494 30.8253 40.8155 30.8253C39.4816 30.8253 38.2776 30.2839 37.4028 29.4134C36.5279 28.5386 35.9909 27.3346 35.9909 26.0007C35.9909 24.6668 36.5322 23.4628 37.4028 22.588C38.2776 21.7132 39.4816 21.1761 40.8155 21.1761Z" fill="#151419"/>
</svg>
