<svg width="64" height="64" viewBox="0 0 64 64" fill="none" xmlns="http://www.w3.org/2000/svg">
<rect width="64" height="64" rx="32" fill="white"/>
<path fill-rule="evenodd" clip-rule="evenodd" d="M36.3484 31.5094L33.634 35.0461C33.5419 35.1671 33.4029 35.2304 33.2616 35.2305C33.2614 35.2305 33.2612 35.2307 33.2612 35.2309V35.2309C33.2612 35.2311 33.261 35.2313 33.2608 35.2313H21.6039C21.568 35.2313 21.5469 35.229 21.4296 35.2266C20.2666 35.2024 15.1332 35.0953 14.1719 39.7348L12.9017 45.868C12.6739 46.9682 13.5139 48 14.6374 48V48C15.475 48 16.1982 47.4137 16.3716 46.5943L17.342 42.0068C17.3943 41.7536 17.6429 41.5903 17.8969 41.6434C18.1274 41.6911 18.283 41.9013 18.2697 42.1295L18.2527 45.9912C18.2479 47.0992 19.1447 48 20.2527 48H27.3674C28.4719 48 29.3674 47.1046 29.3674 46V41.5746C29.3674 40.754 29.7019 40.0091 30.2412 39.4698C30.7805 38.9305 31.5253 38.596 32.346 38.596H33.9341C35.1143 38.596 35.5661 38.002 36.1788 37.1978L36.3156 37.0188L38.987 33.5376C39.4521 32.9319 39.4052 32.2449 39.0902 31.7142C38.9675 31.5071 38.8042 31.3219 38.6142 31.1734C38.4259 31.0256 38.2156 30.9154 37.9968 30.8553C37.4614 30.7075 36.8471 30.8599 36.3484 31.5094ZM44.0798 20.438C43.3667 19.2028 41.6268 19.0897 40.7598 20.2221L39.1646 22.3055C38.6734 22.9472 38.6165 23.8215 39.0206 24.5214L40.3229 26.777C40.7269 27.4768 41.5125 27.8648 42.3138 27.7601L44.9163 27.4204C46.3305 27.2358 47.1026 25.6725 46.3895 24.4373L45.2491 22.4619C45.2436 22.454 45.2389 22.4462 45.2342 22.4376L44.0798 20.438ZM48.9475 24.1344C48.6966 24.0672 48.5481 23.8101 48.6153 23.5592C48.6826 23.3083 48.9397 23.1598 49.1906 23.227L51.1914 23.7632C51.4423 23.8304 51.5908 24.0875 51.5236 24.3384C51.4564 24.5893 51.1992 24.7378 50.9484 24.6706L48.9475 24.1344ZM46.4613 18.5923C46.3941 18.8431 46.1369 18.9916 45.8861 18.9244C45.6352 18.8572 45.4867 18.6001 45.5539 18.3492L46.0901 16.3483C46.1573 16.0974 46.4144 15.9489 46.6653 16.0162C46.9162 16.0834 47.0647 16.3405 46.9975 16.5914L46.4613 18.5923ZM47.9432 21.3716C47.7189 21.5005 47.4328 21.4231 47.3038 21.1988C47.1749 20.9745 47.2523 20.6885 47.4766 20.5595L49.2703 19.5239C49.4946 19.3949 49.7807 19.4723 49.9096 19.6966C50.0386 19.9209 49.9612 20.207 49.7369 20.336L47.9432 21.3716ZM39.8687 29.4838C40.2563 29.2601 40.7519 29.3929 40.9757 29.7805L42.4043 32.2549C42.6422 32.667 42.3702 33.1865 41.8959 33.2257V33.2257C41.672 33.2442 41.4545 33.1456 41.3209 32.9649L39.6222 30.6676C39.3345 30.2786 39.4496 29.7257 39.8687 29.4838V29.4838ZM35.8878 24.9678C36.8444 24.4152 38.0679 24.7429 38.6202 25.6997L39.1018 26.5339C39.654 27.4905 39.3262 28.7136 38.3697 29.2658L38.2281 29.3476L37.9519 29.5067C37.9517 29.5069 37.9516 29.5072 37.9518 29.5074V29.5074C37.952 29.5076 37.952 29.5079 37.9518 29.5081C37.3618 29.8478 36.6851 29.9157 36.0702 29.7509C35.4553 29.586 34.9036 29.1891 34.5628 28.5985C34.5627 28.5983 34.5623 28.5982 34.5621 28.5984V28.5984C34.5619 28.5986 34.5616 28.5986 34.5615 28.5983C34.2217 28.0084 34.1538 27.3317 34.3187 26.7168C34.4836 26.1009 34.8806 25.5491 35.4699 25.2091L35.8878 24.9678ZM27.7081 25.2662C28.5866 26.1447 29.1298 27.3577 29.1298 28.6981C29.1298 30.0385 28.5866 31.2515 27.7081 32.13C26.8296 33.0085 25.6165 33.5517 24.2761 33.5517C22.9357 33.5517 21.7227 33.0085 20.8442 32.13C19.9657 31.2515 19.4225 30.0385 19.4225 28.6981C19.4225 27.3577 19.9657 26.1447 20.8442 25.2662C21.7227 24.3877 22.9357 23.8445 24.2761 23.8445C25.6165 23.8445 26.8296 24.3877 27.7081 25.2662Z" fill="#151419"/>
</svg>
