<svg width="64" height="64" viewBox="0 0 64 64" fill="none" xmlns="http://www.w3.org/2000/svg">
<rect width="64" height="64" rx="32" fill="white"/>
<path fill-rule="evenodd" clip-rule="evenodd" d="M34.6922 25.8357H37.3375C37.8031 25.8357 38.2078 26.1482 38.3266 26.5997L38.9422 28.945C39.0985 29.5404 38.9016 30.1482 38.4266 30.5404C37.8938 30.9794 37.1781 31.2419 36.4891 31.2419C35.8859 31.2419 35.2109 31.0904 34.6672 30.781L34.6922 25.8374V25.8357ZM29.3234 30.8496C28.7812 31.1559 28.1093 31.3059 27.5093 31.3059C26.8171 31.3059 26.0968 31.0403 25.5656 30.6012C25.0952 30.2121 24.8999 29.609 25.0515 29.0153L25.6734 26.6044C25.7905 26.1481 26.1952 25.8341 26.6624 25.8341H29.3078L29.3234 30.848L29.3234 30.8496ZM30.2859 25.8357H33.7093L33.7452 30.8092C33.2577 31.1233 32.664 31.3061 32.0859 31.3061C31.4874 31.3061 30.8171 31.1577 30.275 30.8514L30.2859 25.8343L30.2859 25.8357ZM33.6796 38.1592H30.3155V35.4249C30.3155 35.1796 30.5171 34.9796 30.7609 34.9796H33.2327C33.4781 34.9796 33.6781 35.1811 33.6781 35.4249V38.1592H33.6796ZM38.056 31.8984C37.5638 32.1063 37.0232 32.2234 36.4888 32.2234C35.7232 32.2234 34.906 32.0344 34.2326 31.6641C33.5967 32.0625 32.8357 32.2906 32.0857 32.2906C31.3076 32.2906 30.4795 32.0953 29.7982 31.7125C29.117 32.0953 28.2873 32.2906 27.5107 32.2906C26.97 32.2906 26.4263 32.1719 25.9294 31.9594V36.733C25.9294 37.5205 26.5701 38.1611 27.3576 38.1611H29.3357V35.4268C29.3357 34.6392 29.9763 33.9986 30.7638 33.9986H33.2357C34.0232 33.9986 34.6638 34.6393 34.6638 35.4268V38.1611L36.6419 38.1595C37.395 38.158 38.0669 37.5642 38.0669 36.733L38.0591 31.9002L38.056 31.8984ZM27.4904 45.7328C27.6717 45.7953 27.8061 45.9375 27.8654 46.1203L28.5639 48.2719C28.9045 49.325 29.8357 50 30.9435 50H33.056C34.1638 50 35.0935 49.325 35.4357 48.2719L36.1373 46.1141C36.1982 45.9282 36.3341 45.7922 36.5216 45.7297C37.4685 45.4188 38.3732 45.011 39.2216 44.5203C40.0763 44.0266 40.8716 43.4516 41.5982 42.8047C41.7373 42.6625 41.9435 42.5938 42.1513 42.6375L44.3763 43.111C45.4638 43.3422 46.5075 42.875 47.0622 41.9141L48.12 40.0844C48.6716 39.1282 48.5513 37.9844 47.8106 37.1594L46.2919 35.4719C46.1513 35.3172 46.1075 35.111 46.156 34.9235C46.3497 34.0781 46.4497 32.8875 46.4497 31.9985C46.4497 31.1078 46.3497 29.9188 46.156 29.0735C46.1075 28.886 46.1513 28.6797 46.2919 28.525L47.8106 26.8375C48.5528 26.0141 48.6731 24.8703 48.1185 23.9141L47.0638 22.0844C46.5013 21.1235 45.4638 20.6578 44.3763 20.8891L42.1513 21.3625C41.9435 21.4063 41.7372 21.336 41.5981 21.1953C40.8716 20.5485 40.0747 19.9735 39.2216 19.4813C38.2904 18.9422 37.5372 18.6235 36.5091 18.2672C36.3279 18.2047 36.1935 18.0625 36.1341 17.8797L35.4357 15.7281C35.0951 14.675 34.1638 14 33.056 14H30.9435C29.8357 14 28.906 14.675 28.5638 15.7281L27.8623 17.8859C27.7982 18.0734 27.667 18.2078 27.4779 18.2703C26.531 18.5812 25.6264 18.989 24.7779 19.4796C23.9248 19.9734 23.1279 20.5484 22.4014 21.1937C22.2623 21.3359 22.0576 21.4062 21.8482 21.3609L19.6248 20.8875C18.5373 20.6562 17.4936 21.1234 16.9373 22.0844L15.8795 23.914C15.3279 24.8703 15.4467 26.0156 16.1889 26.839L17.7076 28.5265C17.8467 28.6812 17.8904 28.8875 17.8436 29.075C17.6498 29.9203 17.5482 31.1109 17.5482 32C17.5482 32.8906 17.6482 34.0797 17.8436 34.925C17.8904 35.1125 17.8482 35.3187 17.7076 35.4734L16.1889 37.1609C15.4467 37.9844 15.3279 39.1281 15.881 40.0844L16.9373 41.914C17.4998 42.875 18.5357 43.3406 19.6248 43.1094L21.8482 42.6359C22.0561 42.5922 22.2623 42.6625 22.4014 42.8031C23.1279 43.4484 23.9248 44.025 24.7779 44.5187C25.7107 45.0578 26.4623 45.3765 27.4904 45.7312L27.4904 45.7328ZM31.9996 21.3721C26.1308 21.3721 21.3732 26.1301 21.3732 31.9984C21.3732 37.8668 26.1312 42.6248 31.9996 42.6248C37.868 42.6248 42.6244 37.8668 42.6244 31.9984C42.6244 26.1301 37.8664 21.3721 31.9996 21.3721Z" fill="#151419"/>
</svg>
