<?xml version="1.0" encoding="utf-8"?>
<!-- Generator: Adobe Illustrator 27.7.0, SVG Export Plug-In . SVG Version: 6.00 Build 0)  -->
<svg version="1.1" id="Layer_1" xmlns="http://www.w3.org/2000/svg" xmlns:xlink="http://www.w3.org/1999/xlink" x="0px" y="0px"
	 viewBox="0 0 252 126" style="enable-background:new 0 0 252 126;" xml:space="preserve">
<style type="text/css">
	.st0{fill:#003366;}
	.st1{fill:#996600;}
</style>
<g>
	<g>
		<path class="st0" d="M57.8,49.9h-1.6V38.5h-3.1V37h7.7v1.4h-3.1L57.8,49.9L57.8,49.9z"/>
		<path class="st0" d="M69.8,42.2V37h1.6v12.8h-1.6v-6.1h-6.1v6.1h-1.6V37h1.6v5.2L69.8,42.2L69.8,42.2z"/>
		<path class="st0" d="M73.9,37h6.9v1.4h-5.3v3.6h5.2v1.4h-5.1v4.8h5.3v1.4h-6.9L73.9,37L73.9,37z"/>
		<path class="st0" d="M95.5,42.2V37h1.6v12.8h-1.6v-6.1h-6.1v6.1h-1.6V37h1.6v5.2L95.5,42.2L95.5,42.2z"/>
		<path class="st0" d="M112.2,43.4c0,3.8-3,6.7-6.7,6.7s-6.7-2.9-6.7-6.7c0-3.6,3.1-6.7,6.7-6.7C109.1,36.8,112.2,39.8,112.2,43.4z
			 M110.6,43.4c0-2.8-2.1-5.2-5.1-5.2c-3,0-5.1,2.4-5.1,5.2c0,2.9,2.3,5.2,5.1,5.2S110.6,46.4,110.6,43.4z"/>
		<path class="st0" d="M113.7,36.4l9.6,10.1V37h1.6v13.3l-9.6-10.1v9.5h-1.6V36.4z"/>
		<path class="st0" d="M139,43.4v0.5c0,3.5-2.5,6.2-6.1,6.2c-3.6,0-6.5-3.1-6.5-6.6c0-3.7,3-6.7,6.6-6.7c2,0,4,0.9,5.2,2.5l-1.1,1.1
			c-0.9-1.2-2.4-2.1-4-2.1c-2.9,0-5.1,2.3-5.1,5.2c0,2.7,2.2,5.2,5,5.2c2,0,4.2-1.7,4.2-3.8H134v-1.4L139,43.4L139,43.4L139,43.4z"
			/>
		<path class="st0" d="M152.9,37h2.1l-5.7,5.7l5.9,7.1h-2.2l-4.8-6l-0.7,0.6v5.4h-1.6V37h1.6v5.5L152.9,37z"/>
		<path class="st0" d="M168.7,43.4c0,3.8-3,6.7-6.7,6.7c-3.7,0-6.7-2.9-6.7-6.7c0-3.6,3.1-6.7,6.7-6.7
			C165.7,36.8,168.7,39.8,168.7,43.4z M167.1,43.4c0-2.8-2.1-5.2-5.1-5.2c-3,0-5.1,2.4-5.1,5.2c0,2.9,2.3,5.2,5.1,5.2
			C164.8,48.6,167.1,46.4,167.1,43.4z"/>
		<path class="st0" d="M170.3,36.4l9.6,10.1V37h1.6v13.3l-9.6-10.1v9.5h-1.6V36.4z"/>
		<path class="st0" d="M195.6,43.4v0.5c0,3.5-2.5,6.2-6.1,6.2c-3.6,0-6.5-3.1-6.5-6.6c0-3.7,3-6.7,6.6-6.7c2,0,4,0.9,5.2,2.5
			l-1.1,1.1c-0.9-1.2-2.4-2.1-4-2.1c-2.9,0-5.1,2.3-5.1,5.2c0,2.7,2.2,5.2,5,5.2c2,0,4.2-1.7,4.2-3.8h-3.3v-1.4L195.6,43.4
			L195.6,43.4L195.6,43.4z"/>
		<path class="st0" d="M55.8,57.4v7.5c0,2.1,0.7,4,3.1,4c2.4,0,3.1-1.9,3.1-4v-7.5h1.6v8.1c0,2.8-1.8,5-4.7,5c-2.9,0-4.7-2.2-4.7-5
			v-8.1H55.8z"/>
		<path class="st0" d="M65.7,56.8l9.6,10.1v-9.5h1.6v13.3l-9.6-10.1v9.6h-1.6V56.8z"/>
		<path class="st0" d="M80.9,70.2h-1.6V57.4h1.6V70.2z"/>
		<path class="st0" d="M87.7,66.9l3.8-9.5h1.8L87.8,71l-5.6-13.5H84L87.7,66.9z"/>
		<path class="st0" d="M94.5,57.4h6.9v1.4h-5.3v3.6h5.1v1.4h-5.1v4.8h5.3v1.4h-6.9V57.4z"/>
		<path class="st0" d="M111.5,70.2h-1.9l-3.8-5.4h-0.7v5.4h-1.6V57.4h1.9c1.1,0,2.4,0,3.4,0.6c1.1,0.7,1.7,1.9,1.7,3.1
			c0,1.9-1.2,3.4-3.1,3.6L111.5,70.2z M105.1,63.5h0.5c1.6,0,3.4-0.3,3.4-2.3c0-2-1.9-2.3-3.5-2.3h-0.4V63.5L105.1,63.5z"/>
		<path class="st0" d="M118.6,59.8c-0.5-0.8-1.1-1.2-2.1-1.2c-1,0-2.1,0.7-2.1,1.8c0,1,1,1.5,1.8,1.9l0.9,0.3
			c1.8,0.7,3.2,1.7,3.2,3.8c0,2.3-1.8,4-4.1,4c-2.1,0-3.7-1.5-4-3.6l1.6-0.3c0,1.4,1.1,2.4,2.5,2.4c1.4,0,2.4-1.2,2.4-2.5
			c0-1.4-1.1-2-2.2-2.4l-0.9-0.3c-1.4-0.7-2.8-1.4-2.8-3.3c0-2.1,1.9-3.3,3.8-3.3c1.4,0,2.6,0.7,3.3,1.9L118.6,59.8z"/>
		<path class="st0" d="M123.8,70.2h-1.6V57.4h1.6V70.2z"/>
		<path class="st0" d="M129.8,70.2h-1.6V58.9h-3.1v-1.4h7.7v1.4h-3.1L129.8,70.2L129.8,70.2L129.8,70.2z"/>
		<path class="st0" d="M132.9,57.4h1.9l3.1,5.5l3.1-5.5h1.9l-4.2,7.2v5.6h-1.6v-5.5L132.9,57.4z"/>
		<path class="st0" d="M161.8,63.8c0,3.8-3,6.7-6.7,6.7s-6.7-2.9-6.7-6.7c0-3.6,3.1-6.7,6.7-6.7S161.8,60.2,161.8,63.8z M160.1,63.8
			c0-2.8-2.1-5.2-5.1-5.2c-3,0-5.1,2.4-5.1,5.2c0,2.9,2.3,5.2,5.1,5.2C157.8,69,160.1,66.7,160.1,63.8z"/>
		<path class="st0" d="M165.1,58.9v3.6h4.5v1.4h-4.5v6.3h-1.6V57.4h6.2v1.4L165.1,58.9L165.1,58.9z"/>
		<path class="st0" d="M182.5,59.8c-0.5-0.8-1.1-1.2-2.1-1.2c-1,0-2.1,0.7-2.1,1.8c0,1,1,1.5,1.8,1.9l0.9,0.3
			c1.8,0.7,3.2,1.7,3.2,3.8c0,2.3-1.8,4-4.1,4c-2.1,0-3.7-1.5-4-3.6l1.6-0.3c0,1.4,1.1,2.4,2.5,2.4c1.4,0,2.4-1.2,2.4-2.5
			c0-1.4-1.1-2-2.2-2.4l-0.9-0.3c-1.4-0.7-2.8-1.4-2.8-3.3c0-2.1,1.9-3.3,3.8-3.3c1.4,0,2.6,0.7,3.3,1.9L182.5,59.8z"/>
		<path class="st0" d="M195.4,59.8c-0.9-0.8-2.2-1.2-3.4-1.2c-2.9,0-5,2.4-5,5.2s2.2,5.2,5,5.2c1.2,0,2.4-0.5,3.4-1.3v1.9
			c-1,0.5-2.2,0.9-3.4,0.9c-3.6,0-6.7-2.9-6.7-6.6c0-3.8,3.1-6.7,6.8-6.7c1.1,0,2.2,0.3,3.2,0.9V59.8L195.4,59.8z"/>
		<path class="st0" d="M199,70.2h-1.6V57.4h1.6L199,70.2L199,70.2z"/>
		<path class="st0" d="M201.6,57.4h6.9v1.4h-5.3v3.6h5.1v1.4h-5.1v4.8h5.3v1.4h-6.9V57.4z"/>
		<path class="st0" d="M210.4,56.8l9.6,10.1v-9.5h1.6v13.3L212,60.6v9.6h-1.6V56.8L210.4,56.8z"/>
		<path class="st0" d="M233.4,59.8c-0.9-0.8-2.2-1.2-3.4-1.2c-2.9,0-5,2.4-5,5.2s2.2,5.2,5,5.2c1.2,0,2.4-0.5,3.4-1.3v1.9
			c-1,0.5-2.2,0.9-3.4,0.9c-3.6,0-6.7-2.9-6.7-6.6c0-3.8,3.1-6.7,6.8-6.7c1.1,0,2.2,0.3,3.2,0.9L233.4,59.8L233.4,59.8z"/>
		<path class="st0" d="M235.5,57.4h6.9v1.4h-5.3v3.6h5.1v1.4h-5.1v4.8h5.3v1.4h-6.9L235.5,57.4L235.5,57.4z"/>
		<path class="st0" d="M56.2,87.4l-1.4,3.2H53l6.1-13.3l6.1,13.3h-1.7l-1.4-3.2H56.2z M59.1,80.7l-2.3,5.2h4.6L59.1,80.7z"/>
		<path class="st0" d="M66.3,77.2L76,87.2v-9.5h1.6v13.3L67.9,81v9.5h-1.6V77.2z"/>
		<path class="st0" d="M79.8,77.8h2.6c3.9,0,7.2,2.1,7.2,6.3c0,4.4-3.2,6.5-7.2,6.5h-2.6V77.8z M81.4,89.1H82c3.3,0,6.1-1.2,6.1-4.9
			s-2.8-4.9-6.1-4.9h-0.5V89.1z"/>
		<path class="st0" d="M100,90.6h-1.6V79.2h-3.1v-1.4h7.7v1.4h-3.1L100,90.6L100,90.6z"/>
		<path class="st0" d="M104.4,77.8h6.9v1.4h-5.3v3.6h5.2v1.4H106v4.8h5.3v1.4h-6.9L104.4,77.8L104.4,77.8L104.4,77.8z"/>
		<path class="st0" d="M122.7,80.2c-0.9-0.8-2.2-1.2-3.4-1.2c-2.9,0-5,2.4-5,5.2s2.2,5.2,5,5.2c1.2,0,2.4-0.5,3.4-1.3v1.9
			c-1,0.5-2.2,0.9-3.4,0.9c-3.6,0-6.7-2.9-6.7-6.6s3.1-6.7,6.8-6.7c1.1,0,2.2,0.3,3.2,0.9L122.7,80.2L122.7,80.2z"/>
		<path class="st0" d="M132.4,82.9v-5.2h1.6v12.8h-1.6v-6.1h-6.1v6.1h-1.6V77.8h1.6v5.2C126.3,82.9,132.4,82.9,132.4,82.9z"/>
		<path class="st0" d="M136.3,77.2l9.6,10.1v-9.5h1.6v13.3L137.9,81v9.5h-1.6V77.2z"/>
		<path class="st0" d="M162.5,84.2c0,3.8-3,6.7-6.7,6.7c-3.7,0-6.7-2.9-6.7-6.7c0-3.6,3.1-6.7,6.7-6.7
			C159.4,77.5,162.5,80.5,162.5,84.2z M160.9,84.2c0-2.8-2.1-5.2-5.1-5.2c-3,0-5.1,2.4-5.1,5.2c0,2.9,2.3,5.2,5.1,5.2
			C158.5,89.4,160.9,87.1,160.9,84.2z"/>
		<path class="st0" d="M165.8,89.1h3.9v1.4h-5.5V77.8h1.6L165.8,89.1L165.8,89.1z"/>
		<path class="st0" d="M183.4,84.2c0,3.8-3,6.7-6.7,6.7c-3.7,0-6.7-2.9-6.7-6.7c0-3.6,3.1-6.7,6.7-6.7
			C180.4,77.5,183.4,80.5,183.4,84.2z M181.8,84.2c0-2.8-2.1-5.2-5.1-5.2c-3,0-5.1,2.4-5.1,5.2c0,2.9,2.3,5.2,5.1,5.2
			C179.5,89.3,181.8,87.1,181.8,84.2z"/>
		<path class="st0" d="M196.8,84.1v0.5c0,3.5-2.5,6.2-6.1,6.2c-3.6,0-6.5-3.1-6.5-6.6c0-3.7,3-6.7,6.6-6.7c2,0,4,0.9,5.2,2.5L195,81
			c-0.9-1.2-2.4-2.1-4-2.1c-2.9,0-5.1,2.3-5.1,5.2c0,2.7,2.2,5.2,5,5.2c2,0,4.2-1.7,4.2-3.8h-3.3v-1.4L196.8,84.1L196.8,84.1
			L196.8,84.1z"/>
		<path class="st0" d="M197.2,77.8h1.9l3.1,5.5l3.1-5.5h1.9L203,85v5.6h-1.6V85L197.2,77.8z"/>
	</g>
	<g>
		<g>
			<path class="st1" d="M37.7,90.9L31.2,80c0,0-0.2-0.2-0.2-0.7v-0.2v-0.5V59.1h-2.5v20.2V80c0.2,0.2,4.3,7.2,4.3,7.2H22.6
				c0,0,4.2-7,4.3-7.2v-0.6V59.1h-2.5v19.5v0.5v0.2c0,0.4-0.2,0.7-0.2,0.7l-6.6,10.9H37.7L37.7,90.9z"/>
		</g>
		<g>
			<path class="st1" d="M35.7,44.9c0,0,1.2-5.1-3.2-8.5c0,0-1.8-1.6-5.1-1.6c-3,0-4.7,1.6-4.7,1.6c-4,2.8-3,8.5-3,8.5H35.7z"/>
			<path class="st1" d="M20.1,46.3h15.1c0.1-0.3,0.2-0.5,0.3-0.9H19.9C19.9,45.7,20,46,20.1,46.3z"/>
			<path class="st1" d="M35,46.8H20.4c0.2,0.3,0.3,0.6,0.5,0.9h13.6C34.7,47.4,34.8,47.1,35,46.8z"/>
			<path class="st1" d="M21.9,48.9h11.6c0.2-0.2,0.4-0.4,0.6-0.7H21.3C21.5,48.5,21.7,48.7,21.9,48.9z"/>
			<path class="st1" d="M23.1,50h9.1c0.2-0.2,0.5-0.3,0.7-0.5H22.4C22.7,49.7,22.9,49.9,23.1,50z"/>
			<path class="st1" d="M24.4,50.7c1,0.4,2.1,0.7,3.3,0.7s2.3-0.2,3.3-0.7H24.4z"/>
		</g>
		<path class="st0" d="M43.3,51.8H31c0,0-1.1,0-2.1,0.7c-0.7,0.5-1.2,1.6-1.2,1.6l0,0c0,0-0.5-1.2-1.2-1.6c-0.9-0.7-2.1-0.7-2.1-0.7
			H12.1l-2.4,3.9h11.3c0,0,0.3,0,0.5,0c0.3,0,0.9,0.2,1.5,0.7c0.9,0.6,1.1,0.9,1.3,1.1c0.1,0.1,0.3,0.4,0.3,0.4h2.8h0.3l0,0h1h2.1
			c0,0,0.3-0.3,0.3-0.4c0.2-0.2,0.4-0.5,1.3-1.1c0.6-0.4,1.2-0.6,1.5-0.7c0.2,0,0.5,0,0.5,0h11.3L43.3,51.8z"/>
		<g>
			<g>
				<path class="st0" d="M10.8,56.9v18.5c0,0,0,0.2,0,0.2c0,0.2,0,0.4,0,0.5c0.2,2,0.8,3.5,2,5.4c1.8,3,5.1,5.1,5.1,5.1l1.6-2.4
					c0,0-2.1-1.1-3.8-3.7c-0.3-0.5-0.7-1-0.9-1.5c-0.2-0.4-0.3-0.8-0.5-1.2c-0.1-0.3-0.2-0.5-0.2-0.8c-0.1-0.3-0.1-0.6-0.2-0.9
					c0-0.1,0-0.5,0-0.5v-0.1V56.9H10.8z"/>
				<path class="st0" d="M15.5,56.9v18.7c0,0,0,0.1,0,0.2c0,0.1,0,0.2,0,0.3c0,0.1,0,0.2,0,0.2c0,0.3,0.1,0.5,0.2,0.9
					c0.2,0.7,0.6,1.4,1.1,2.2c1.4,2.2,3.4,3.3,3.4,3.3l1.5-2.4c0,0-0.5-0.3-1.1-0.9c-0.4-0.4-0.9-0.9-1.3-1.5
					c-0.4-0.7-0.7-1.3-0.8-1.8c-0.1-0.4-0.2-0.7-0.2-0.9c0-0.2,0-0.3,0-0.3v-18H15.5z"/>
			</g>
			<g>
				<path class="st0" d="M44.5,56.9v18.5c0,0,0,0.2,0,0.2c0,0.2,0,0.4,0,0.5c-0.2,2-0.8,3.5-2,5.4c-1.8,3-5.1,5.1-5.1,5.1l-1.6-2.4
					c0,0,2.1-1.1,3.8-3.7c0.3-0.5,0.7-1,0.9-1.5c0.2-0.4,0.3-0.8,0.5-1.2c0.1-0.3,0.2-0.5,0.2-0.8c0.1-0.3,0.1-0.6,0.2-0.9
					c0-0.1,0-0.5,0-0.5v-0.1V56.9H44.5z"/>
				<path class="st0" d="M39.8,56.9v18.7c0,0,0,0.1,0,0.2c0,0.1,0,0.2,0,0.3c0,0.1,0,0.2,0,0.2c0,0.3-0.1,0.5-0.2,0.9
					c-0.2,0.7-0.6,1.4-1.1,2.2c-1.4,2.2-3.4,3.3-3.4,3.3l-1.5-2.4c0,0,0.5-0.3,1.1-0.9c0.4-0.4,0.9-0.9,1.3-1.5
					c0.4-0.7,0.7-1.3,0.8-1.8c0.1-0.4,0.2-0.7,0.2-0.9c0-0.2,0-0.3,0-0.3v-18H39.8z"/>
			</g>
		</g>
	</g>
</g>
</svg>
