<?xml version="1.0" encoding="utf-8"?>
<!-- Generator: Adobe Illustrator 27.7.0, SVG Export Plug-In . SVG Version: 6.00 Build 0)  -->
<svg version="1.1" id="Layer_1" xmlns="http://www.w3.org/2000/svg" xmlns:xlink="http://www.w3.org/1999/xlink" x="0px" y="0px"
	 viewBox="0 0 252 126" style="enable-background:new 0 0 252 126;" xml:space="preserve">
<style type="text/css">
	.st0{fill:#005F99;}
	.st1{fill:#FEBF2C;}
	.st2{fill:#FFFFFF;}
	.st3{fill:#E92843;}
	.st4{fill-rule:evenodd;clip-rule:evenodd;fill:#FFDFA1;}
</style>
<g transform="matrix(1.041892 0 0 1.041892 -389.66536 -287.460709)">
	<g>
		<g>
			<path id="B" class="st0" d="M477.4,324.7h-4v-0.5h1.4v-8H472v1.1h-0.7V315h0.7v0.4h6.8V315h0.7v2.2h-0.7v-1.1H476v8h1.4
				L477.4,324.7z"/>
		</g>
		<path class="st0" d="M490.2,324.7h-3.3v-0.5h1.1v-3.9h-5.3v3.9h1.1v0.5h-3.3v-0.5h1.1v-8.2h-1.1v-0.5h3.3v0.5h-1.1v3.7h5.3v-3.7
			h-1.1v-0.5h3.3v0.5h-1.1v8.2h1.1V324.7z"/>
		<g>
			<path id="C" class="st0" d="M497.7,324.7h-6.4v-0.5h1.1v-8.2h-1.1v-0.5h5.6V315h0.6v2.2h-0.6v-1.2h-3.3v3.6h2.6v-1.1l0.6,0v2.8
				l-0.6,0v-1.1h-2.6v3.8h3.4v-1.2h0.6V324.7z"/>
		</g>
		<path class="st0" d="M511.5,315.9h-1.1v5.3c0,1.5-0.5,2.5-1.7,3.1c-0.6,0.3-1.3,0.5-1.9,0.5c-2,0-3.5-1.3-3.5-3.2v-5.7h-1.1v-0.5
			h3.3v0.5h-1.1v5.3c0,1.7,1,2.8,2.5,2.8c1.6,0,2.7-1.1,2.7-2.8v-5.3h-1.1v-0.5h2.8L511.5,315.9z M520.1,324.8h-0.4l-5.4-7.4v6.7
			h1.1v0.5h-2.8v-0.5h1.1v-7.7l-0.4-0.5h-1v-0.5h2l5.1,7.1v-6.4h-1.1v-0.5h2.8v0.5h-1.1L520.1,324.8z"/>
		<g>
			<path id="D" class="st0" d="M525.6,324.7h-3.3v-0.5h1.1v-8.2h-1.1v-0.5h3.3v0.5h-1.1v8.2h1.1V324.7z"/>
		</g>
		<path class="st0" d="M531.2,324.8h-0.5l-3.5-9h-0.8v-0.5h3.5v0.5h-1.3l2.7,6.9l2.7-6.9H533v-0.5h2.4v0.5h-0.7L531.2,324.8z"/>
		<g>
			<path id="C_00000033371425683905816560000008886528006573441970_" class="st0" d="M542.6,324.7h-6.4v-0.5h1.1v-8.2h-1.1v-0.5h5.6
				V315h0.6v2.2h-0.6v-1.2h-3.3v3.6h2.6v-1.1l0.6,0v2.8l-0.6,0v-1.1h-2.6v3.8h3.4v-1.2h0.6V324.7z"/>
		</g>
		<path class="st0" d="M546.2,319.8h1.3c1.1,0,1.8-0.8,1.8-1.9c0-1.2-0.7-1.9-1.8-1.9h-1.3L546.2,319.8z M552,324.6h-1.2
			c-0.8,0-1-0.1-1.4-0.8l-2.1-3.3h-1.1v3.6h1.1v0.5H544v-0.5h1.1v-8.2H544v-0.5h3.9c1.4,0,2.1,0.4,2.5,1.2c0.2,0.4,0.3,0.8,0.3,1.3
			c0,1.4-0.8,2.2-2.1,2.4l2,3.1c0.3,0.5,0.6,0.7,0.9,0.7h0.5L552,324.6z"/>
		<path class="st0" d="M553.8,324.7h-0.7v-2.5h0.7v1.1c0.9,0.6,1.2,0.7,1.8,0.7c1.1,0,1.9-0.6,1.9-1.5c0-0.8-0.5-1.4-2.1-2.2
			c-1.8-0.9-2.4-1.6-2.4-2.8c0-1.4,1.2-2.4,2.8-2.4c0.7,0,1.2,0.1,1.7,0.4v-0.5h0.6v2.4h-0.6v-1c-0.6-0.5-1.1-0.6-1.6-0.6
			c-1,0-1.6,0.6-1.6,1.4c0,0.7,0.4,1.1,2.2,2.1c1.7,1,2.3,1.6,2.3,2.8c0,1.5-1.2,2.6-2.8,2.6c-0.9,0-1.5-0.2-2.2-0.6L553.8,324.7z"
			/>
		<g>
			<path id="D_00000144310982708653672020000001253719530497169298_" class="st0" d="M563.4,324.7h-3.3v-0.5h1.1v-8.2h-1.1v-0.5h3.3
				v0.5h-1.1v8.2h1.1V324.7z"/>
		</g>
		<g>
			<path id="B_00000036965746386430202210000003486122474047988918_" class="st0" d="M570.4,324.7h-4v-0.5h1.4v-8H565v1.1h-0.7V315
				h0.7v0.4h6.8V315h0.7v2.2h-0.7v-1.1H569v8h1.4L570.4,324.7z"/>
		</g>
		<path class="st0" d="M579.2,324.7h-3.3v-0.5h1.1v-3.7l-2.9-4.5h-0.8v-0.5h3.5v0.5h-1.3l2.4,3.7l2.2-3.7h-1.3v-0.5h2.8v0.5h-0.7
			l-2.7,4.4v3.8h1.1L579.2,324.7z M586.6,320c0,2.4,1.3,4.1,3.1,4.1c1.8,0,3.1-1.7,3.1-4.1s-1.3-4.1-3.1-4.1
			C587.9,315.9,586.5,317.6,586.6,320 M585.1,320c0-2.6,2-4.8,4.5-4.8c2.4,0,4.5,2.2,4.5,4.8c0,2.6-2,4.8-4.5,4.8
			C587.2,324.8,585.1,322.6,585.1,320"/>
		<path class="st0" d="M598.4,324.7h-3.3v-0.5h1.1v-8.2h-1.1v-0.5h5.6V315h0.6v2.2h-0.6v-1.2h-3.3v3.6h2.6v-1.1l0.6,0v2.8l-0.6,0
			v-1.1h-2.6v3.9h1.1L598.4,324.7z M473.1,354.5h-1.7v-6.6h1.7v2.9c2.3,1.5,3.2,1.9,4.9,1.9c3,0,4.9-1.5,4.9-3.9
			c0-2.1-1.4-3.7-5.4-5.7c-4.6-2.4-6.2-4.3-6.2-7.3c0-3.7,3.1-6.4,7.3-6.4c1.8,0,3.2,0.3,4.4,1V329h1.7v6.3h-1.7v-2.6
			c-1.9-1.3-2.8-1.6-4.3-1.6c-2.6,0-4.1,1.5-4.1,3.9c0,1.9,1.1,3,5.7,5.6c4.6,2.7,5.9,4.3,5.9,7.3c0,3.8-3.2,6.8-7.3,6.8
			c-2,0.1-4-0.5-5.7-1.7L473.1,354.5z"/>
		<g>
			<path id="E" class="st0" d="M502.5,354.2h-8.8v-1.4h2.8V343l-7.6-11.8h-2.1v-1.4h9.1v1.4h-3.4l6.3,9.7l5.8-9.7h-3.4v-1.4h7.4v1.4
				h-1.9l-7.1,11.6v10.1h2.8L502.5,354.2z"/>
		</g>
		<path class="st0" d="M516.6,352.3h4.4c5.1,0,8.9-4.5,8.8-10.3c0-5.7-3.9-10.3-8.8-10.3h-4.5V352.3z M510.6,354.2v-1.4h2.8v-21.7
			h-2.8v-1.4h11c6.6,0,12.1,5.5,12.1,12.2c0,6.8-5.3,12.2-12.1,12.2L510.6,354.2z M554.8,354.6h-1.1l-14.2-19.5v17.7h2.8v1.4h-7.5
			v-1.4h2.8v-20.2l-1-1.4h-2.5v-1.3h5.3l13.5,18.5v-17.3h-2.8v-1.3h7.4v1.3h-2.8L554.8,354.6z M576.9,354.2h-16.8v-1.4h2.8v-21.7
			h-2.8v-1.4h14.7v-1h1.7v5.8h-1.7v-3.1h-8.7v9.5h7v-2.8l1.7,0v7.3l-1.7,0v-2.8h-7v9.9h9v-3.2h1.7L576.9,354.2z"/>
		<g>
			<path id="E_00000163066906909761526980000011393987457015130753_" class="st0" d="M595.1,354.2h-8.8v-1.4h2.8V343l-7.6-11.8h-2.1
				v-1.4h9.1v1.4h-3.4l6.3,9.7l5.8-9.7h-3.4v-1.4h7.4v1.4h-1.9l-7.1,11.6v10.1h2.8L595.1,354.2z"/>
		</g>
	</g>
	<path class="st1" d="M457.5,310.1v17.1c0,20.7-14.1,42-34.5,46c-19.6-3.7-34.5-25.3-34.5-46v-23c0,0,17.2-4.6,34.5-4.6
		c20.1,0,34.5,4.6,34.5,4.6L457.5,310.1z"/>
	<path class="st2" d="M423,367.8c16.5,0,29.3-15.3,29.3-32.2v-29l-0.4-0.1c0,0-14.9-4.6-28.9-4.6s-28.9,4.6-28.9,4.6l-0.4,0.1v29
		C393.7,352.4,406.6,367.8,423,367.8"/>
	<path class="st0" d="M429.7,365.7v-11.4h13c0.8,0,1.4,0.4,1.9,1c3.1-4.1,5.2-9,6.1-14.3h-21v-11l-6.7-0.2l-6.7,0.2v11h-21
		c0.9,5.2,3,10.1,6.1,14.3c0.4-0.6,1.1-1,1.9-1h13v11.4c2.2,0.6,4.4,0.9,6.7,0.9v0.1h0v-0.1C425.4,366.6,427.6,366.3,429.7,365.7"/>
	<g>
		<path class="st1" d="M444.5,351.5l-2.8-1.3l-1,3l-1.1-3l-2.8,1.4l1.3-2.8l-3-1l3-1.1l-1.4-2.8l2.8,1.3l1-2.9l1.1,3l2.8-1.4
			l-1.3,2.9l3,1l-3,1.1L444.5,351.5z M401.5,351.5l2.8-1.3l1,3l1.1-3l2.8,1.4l-1.3-2.8l2.9-1l-3-1.1l1.4-2.8l-2.8,1.3l-1-2.9l-1.1,3
			l-2.8-1.4l1.3,2.9l-3,1l3,1.1L401.5,351.5z M426.9,362.7l-2.8-1.3l-1,3l-1.1-3l-2.8,1.4l1.3-2.8l-3-1l3-1.1l-1.4-2.8l2.8,1.3l1-3
			l1.1,3l2.8-1.4l-1.3,2.8l3,1l-3,1.1L426.9,362.7z M426.9,341l-2.8-1.3l-1,3l-1.1-3l-2.8,1.4l1.3-2.8l-3-1l3-1.1l-1.4-2.8l2.8,1.3
			l1-3l1.1,3l2.8-1.4l-1.3,2.8l3,1l-3,1.1L426.9,341z"/>
		<g>
			<path id="F" class="st1" d="M432.3,343.1h1.2v0.9h-1.2V343.1z"/>
		</g>
		<g>
			<path id="F_00000060028865490773989850000017418470537777026692_" class="st1" d="M432.3,345.5h1.2v0.9h-1.2V345.5z"/>
		</g>
		<g>
			<path id="F_00000044140167986010338290000016982232649272586416_" class="st1" d="M432.3,347.9h1.2v0.9h-1.2V347.9z"/>
		</g>
		<g>
			<path id="F_00000064323718394784728210000005686884814086762887_" class="st1" d="M432.3,350.3h1.2v0.9h-1.2V350.3z"/>
		</g>
	</g>
	<path class="st2" d="M430.4,345.2H425v-0.8h5.4V345.2z M430.4,347.4H425v-0.8h5.4V347.4z M430.4,349.7H425v-0.8h5.4V349.7z
		 M426.1,342.5c-0.1,0-0.2,0-0.3,0c-1.2,0-2.2,0.9-2.2,2.2c0,0,0,0,0,0.1v7.3c0.4-0.5,1-0.8,1.7-0.8h6.4v-8.7H426.1z"/>
	<g>
		<g>
			<path id="G" class="st1" d="M413.7,343.1h-1.2v0.9h1.2V343.1z"/>
		</g>
		<g>
			<path id="G_00000106112598448208994200000011152019190430272177_" class="st1" d="M413.7,345.5h-1.2v0.9h1.2V345.5z"/>
		</g>
		<g>
			<path id="G_00000055673574046759936130000004902898836605669278_" class="st1" d="M413.7,347.9h-1.2v0.9h1.2V347.9z"/>
		</g>
		<g>
			<path id="G_00000075865907181889894960000004383265137253024422_" class="st1" d="M413.7,350.3h-1.2v0.9h1.2V350.3z"/>
		</g>
	</g>
	<path class="st2" d="M415.6,344.3h5.4v0.8h-5.4V344.3z M415.6,346.6h5.4v0.8h-5.4V346.6z M415.6,348.8h5.4v0.8h-5.4V348.8z
		 M414.3,342.5v8.7h6.4c0.7,0,1.3,0.3,1.7,0.8v-7.3c0-1.2-1-2.2-2.2-2.2c0,0,0,0,0,0c-0.1,0-0.2,0-0.3,0H414.3z"/>
	<path class="st3" d="M423,328.5c12.2,0,25,2,28.1,2.4v-23.5l-2.1-0.6l-6.6-1.6c-5.4-1.1-12.6-2.3-19.5-2.3
		c-10.3,0-21.3,2.6-26.1,3.9l-2.1,0.6v23.5C398,330.4,410.8,328.5,423,328.5"/>
	<path class="st4" d="M419.3,309.2c0.3,0.3,0.5,0.6,0.7,0.9c0,0,0.1,0.1,0.1,0c0.1-0.1,0.2-0.3,0.2-0.5c0-0.4-0.3-0.7-0.7-0.7
		c-0.1,0-0.3,0-0.4,0.1 M414.5,314.9c0-0.3-0.5-1.6-0.8-1.9c-0.5-0.8,0.2-3,1.3-3.3c0.2-0.1,0.3-0.4,0.2-0.6c-0.5-0.4-1-1-1.6-1
		c-0.8,0-1.5,0.7-1.5,1.5c0,0.9,0.7,1.1,0.7,1.4c-0.3,0.9-0.3,1.8,0.1,2.5c0.3,0.5,0.5,1.2,0.6,1.8c0.1,0.6,0.4,1,0.9,1.3
		c0.2,0.1,0.1,0.3,0.2,0.5c0,0.1,0.1,0.2,0.2,0.2c0.1,0.1,0,0.1-0.1,0.1c-0.7-0.1-1.8-0.4-2.2-1.3c-0.2-0.5-1,1.3-1.4,0.4
		c-0.5-0.9-0.7-1.6-0.9-2.5c-0.1-0.5-0.4,0.4-0.6,0.1c-0.2-0.6-0.4-1.2-0.4-1.8c0-2.2,1.6-4.1,3.8-4.6c0.4-0.1-0.5-0.8,0.1-0.8
		c0.4,0,1.7,0,2.6,0.5c0.2,0.1,0.3-0.3,0.7-0.5c0,0,0.1-0.1,0.2,0c0.4,0.2,0.5,0.6,0.7,0.5c1-0.5,2.2-0.5,2.6-0.5
		c0.6,0-0.3,0.7,0.1,0.8c2.2,0.5,3.8,2.4,3.8,4.6c0,0.6-0.1,1.2-0.4,1.8c-0.1,0.3-0.4-0.6-0.5-0.1c-0.2,0.9-0.5,1.7-0.9,2.5
		c-0.5,0.8-1.2-0.9-1.4-0.4c-0.4,0.9-1.4,1.2-2.1,1.3c-0.1,0-0.2,0-0.1-0.1c0,0,0.2-0.2,0.3-0.5c0,0,0-0.1,0.1-0.1
		c0.5-0.3,0.9-0.7,1-1.3c0.2-0.5,0.4-1.3,0.7-1.8c0.6-1.1-0.1-2.3,0.1-2.6c0.4-0.3,0.7-0.7,0.7-1.3c0-0.8-0.7-1.5-1.5-1.5
		c-0.5,0-0.9,0.2-1.1,0.5l0,0l-0.4,0.5c-0.1,0.2-0.1,0.5,0.1,0.6c1,0.3,1.7,2.6,1.3,3.3c-0.2,0.3-0.7,1.6-0.7,1.9
		c0,0.5-0.4,0.8-0.8,0.8c0,0,0,0,0,0c-0.4,0-0.6-0.2-0.8-0.5c0.3-0.2,0.9-0.6,0.9-1L418,313c0.5-0.1,0.7-0.3,0.8-0.8l0.1-0.1
		c0.2-0.2,0.3-0.6-0.1-0.5c-0.5,0.1-1.1,0.1-1.7,0.2c-0.1,0-0.1,0.1-0.1,0.2c0.1,0.7,0.2,1.3,0.4,2c-0.3,0-0.7,0-0.8,0
		c-0.2,0-0.5,0-0.7,0c0-0.4,0.4-1.9,0.4-1.9c0-0.1,0-0.1,0-0.2c-0.1-0.1-1.6-0.3-1.8-0.3c-0.1,0-0.2,0-0.2,0.1
		c-0.1,0.2,0.1,0.4,0.3,0.5c0.1,0.5,0.3,0.7,0.8,0.8c0,0.1-0.1,1.3-0.1,1.3c0,0.4,0.6,0.7,0.9,0.9c-0.1,0.4-0.4,0.6-0.7,0.6
		C414.9,315.8,414.5,315.5,414.5,314.9C414.5,315,414.5,315,414.5,314.9 M414.1,309.2c-0.1-0.1-0.3-0.2-0.5-0.2
		c-0.4,0-0.7,0.3-0.7,0.7c0,0.2,0.1,0.4,0.2,0.5c0.1,0,0.1,0,0.1,0c0.2-0.3,0.5-0.6,0.7-0.9C414.1,309.3,414.1,309.2,414.1,309.2
		 M417.8,316.8c-0.2,0.4-0.8,0.3-1.1,0.5c0,0-0.1,0-0.2,0c-0.3-0.3-0.9-0.1-1.1-0.6c0,0,0-0.1,0.1-0.1c0.4,0,0.8-0.2,1.1-0.5
		c0,0,0.1-0.1,0.2,0c0.2,0.3,0.6,0.5,1,0.5C417.8,316.6,417.9,316.7,417.8,316.8 M431.7,310.1c0,0,1.3,0,2.1-0.8
		c0,0,0.9-0.3,1.4,0.2c0.1,0.1,0.1,0.2-0.1,0.2c-0.2,0-0.4,0.1-0.6,0.3C434.1,310.3,432.2,311,431.7,310.1 M407.1,315.8
		c-0.4-0.4,0.5-2.6-1.6-3.1c-0.3,0,0.1,0.4,0,0.5c-0.6,0.5-0.5,0.7-0.5,1c0,0.1-0.2,0.1-0.3,0.1c-0.5-0.3-1.6-0.9-2.6,0.1
		c-0.2,0.2,0.4,0.2,0.4,0.3c-0.1,0.7,0.3,1.1,0.7,1.3c0.1,0.1,0.1,0.2,0,0.3c-0.1,0.1-0.4,0.3-0.5,0.6c0,0.2-0.8,0.1-0.5,0.4
		c1.1,1.1,2.2,0.5,2.6,0.1c0.3-0.3,1.6,0,1.4,0.6c-0.3,0.8-0.2,1.3,0,1.1c0.3-0.2,0.5-0.4,1-0.4c0.1,0,0.3,0.1,0.2,0.3
		c-0.2,0.4-0.3,0.7-0.2,1.3c0.1,0.2,0.2,0.2,0.3,0.1c0.5-0.7,1.6-0.6,2.2-0.4c0.8,0.5,3,1.3,6-1.6c0.1-0.1,0.1-0.4-0.2-0.3
		c-0.8,0.3-1.7,0.4-3.2-0.4c-0.1-0.1-0.7-0.3-0.9-0.3C409.9,317.1,407.9,316.5,407.1,315.8 M444,318.3c1.6,0,0,1.3-0.1,1.7
		c-0.1,0.3,0.2,0.5,0.5,0.7c0.2,0.1,0.2,0.2,0.1,0.3c-0.1,0.1-0.4,0.2-0.9,0.3c-0.2,0-0.2,0.1-0.2,0.2c0,0.2,0.3,0.4,0.7,0.5
		c0.2,0.1,0.2,0.2,0.1,0.4c-0.3,0.3-0.7,0.3-1.4,0.3c-0.7,0-1.2,0.8-0.8,1.1c0.3,0.2,0.8,0.7,0.3,2.1c-0.1,0.4-0.4-0.4-0.6-0.3
		c-0.5,0.3-1-0.1-1.3-0.4c-0.1-0.1-0.2-0.1-0.3,0c-0.2,0.4-0.8,1.1-2,0.4c-0.3-0.1-0.8,0.3-0.8,0.2c-0.2-0.7,0.1-1.4,0.7-1.7
		c0,0,0.2-0.2-0.1-0.2c-0.4,0-0.9-0.1-0.9-0.6c0-0.1-0.5-0.1-0.5-0.2c0.1-0.7,1.6-1.2,2.6-0.5c0.9,0.6,1.9-1.4,1.2-2.3
		c-0.6-0.7-3.9,1.2-5-1.2c-0.5-1,0.1-1.8-0.3-1.8c-0.5-0.1-2.5-0.5-4.8,1.3c-2.6,2.1-6.2,2.4-9.1,0.7c-0.2,0-0.3,0.1-0.2,0.2
		c0.2,0.4,0.1,0.8-0.1,1.1c-0.4,0.6-1.8,1.2-2,1.3c-1.6,0.5-1.5,1.7-1.3,2.3c0.1,0.2,0,0.3-0.2,0.2c-0.5-0.1-1.5-0.4-1.9-1.4
		c0-0.1-0.2-0.1-0.3,0c-0.6,0.4-0.4,1.1-0.2,1.3c0.1,0.1,0,0.2-0.1,0.2c-0.6,0.1-1-0.6-1.4-0.5c-0.3,0-0.7,0.3-0.9,0.4
		c-0.1,0.1-0.1,0.2-0.1,0.4c0.6,1.8-0.4,1.9-0.5,1.8c-0.1,0,0-0.3-0.3-0.4c-1,0.1-1.3-0.6-1.3-1.1c0-0.2-0.1-0.2-0.2-0.1
		c-0.4,0.3-1.3,0.8-1.9,0c-0.1-0.1-0.4,0-0.5,0.1c-0.1,0.1-0.1-0.1-0.1-0.2c0.1-1,0.8-1.5,1.2-1.7c0.1-0.1,0.2-0.1,0-0.2
		c-0.3-0.2-0.9-0.7-0.7-1.3c0-0.1-0.5-0.3-0.3-0.4c1.1-0.8,2.6,0.5,2.8,0.7s1.3,0.2,3.8-1.3c1.7-0.9,2.5-1.7,3-2.3
		c0.1-0.1,0.2-0.2,0.3-0.2c1.1,0,2.1-0.2,2.9-0.9c0.1-0.1,0.3-0.1,0.3,0c1.5,1,2.3-1.3,2.6-2.3c0-0.2,0.1-0.4,0.3-0.4l16,0.2
		c0,0,1.4,0.1,1.3-0.7c-0.1-1.4-5.8-1.3-10.1-0.8c-1.5,0.2-3.8,0.3-5.1-0.2c-0.5-0.2-1-0.5-1.2-1c-0.3-0.6-0.2-0.9-0.1-1.3
		c0.1-0.3,0.2-0.5,0.4-0.8c1.1-1.7,3.6-1.8,4.4-1.8c0.2,0,0.2-0.1,0.3-0.2c0.1-0.4,0.4-1.3,1.4-1.3c0.3,0,0.5-0.1,0.8-0.2
		c0.1-0.1,0.2,0,0.2,0.1c0,0.1-0.1,0.3-0.3,0.5c-0.7,0.6-0.6,0.9-0.5,1c0.1,0,0.1,0,0.2,0c2.3-2,3.6-0.7,4-0.2
		c0.1,0.1,0.1,0.2,0,0.2c-1.5,0.3-2.1,1.7-5.2,1.5c-0.4,0-2.9-0.2-3.7,1c-0.5,0.7-0.1,1.3,1.2,1.6c1,0.2,3.5-0.1,4.6-0.2
		c1.1-0.1,6-0.6,8.6,0c1.1,0.3,2.7,1.2,2.4,2.8c-0.2,1-1.2,1.4-1.2,1.4s-2.8,2,2.2,2 M435.3,321.4c-0.6,0.5-1.4,0.8-2.2,0.7
		c-0.5,0-0.7,0.1-0.8,0.3c-0.1,0.1-0.1,0.2-0.1,0.2c-0.1,0.2,0,0.5,0.1,0.7c0.1,0.2,0.1,0.3-0.1,0.3c-0.2,0-0.4,0.1-0.9-0.2
		c-0.2-0.1-0.3,0-0.3,0.1c-0.1,0.2,0.1,0.5,0.4,0.7c0.2,0.1,0.1,0.3-0.1,0.4c-0.4,0.1-0.8,0-1.4-0.4c-0.4-0.2-0.6-0.2-0.9,0.1
		c-0.1,0.2-0.1,0.3,0,0.4c0.2,0.2,0.4,0.7-0.2,1.5c-0.2,0.2-0.4-0.4-0.6-0.4c-0.8,0.4-1.5-0.1-1.7-0.5c-0.1-0.1-0.2-0.1-0.3,0
		c-0.4,0.3-1.3,0.7-1.6-0.1c-0.1-0.1-0.5,0.2-0.5-0.1c0-1.3,1.2-1.5,1.6-1.6c0.1,0,0.2-0.1,0.1-0.2c-0.2-0.3-0.4-0.6-0.3-1
		c0.1-0.3-0.7-0.4-0.4-0.5c1.5-0.7,2.3,0.7,2.6,0.8c0.4,0.3,2.4-0.4,2.6-1.4c0.1-0.2-0.5-0.3-1-0.4c-0.1,0-0.1-0.1,0-0.3
		c1.2-0.9,2.1-2,4.3-2.3c0.3,0,0.4,0.2,0.4,0.3c0,0.3,0.1,0.7,0.3,1c0.3,0.7,0.7,1.1,1.1,1.4C435.5,321.1,435.4,321.3,435.3,321.4"
		/>
	<path class="st2" d="M423,328.5c-12.2,0-25,2-28.1,2.4v-23.5l2.1-0.6c4.8-1.3,15.7-3.9,26.1-3.9c6.9,0,14,1.1,19.5,2.3l6.6,1.6
		l2.1,0.6v23.5C448,330.4,435.2,328.5,423,328.5 M451.9,306.4c0,0-14.9-4.6-28.9-4.6s-28.9,4.6-28.9,4.6l-0.4,0.1v29
		c0,16.9,12.9,32.2,29.4,32.2v-1.2c-7.9,0-14.9-3.7-20-9.4c-5.1-5.7-8.2-13.5-8.2-21.6v-3.4l8.6-1.2c5.4-0.6,12.6-1.3,19.5-1.3
		c6.9,0,14.1,0.6,19.5,1.3l8.6,1.2v3.4c0,8-2.9,15.6-8.2,21.6c-5.1,5.7-12.1,9.4-20,9.4v1.2c16.5,0,29.3-15.3,29.3-32.2v-29
		L451.9,306.4z"/>
</g>
</svg>
