<?xml version="1.0" encoding="utf-8"?>
<!-- Generator: Adobe Illustrator 27.7.0, SVG Export Plug-In . SVG Version: 6.00 Build 0)  -->
<svg version="1.1" id="Layer_1" xmlns="http://www.w3.org/2000/svg" xmlns:xlink="http://www.w3.org/1999/xlink" x="0px" y="0px"
	 viewBox="0 0 252 126" style="enable-background:new 0 0 252 126;" xml:space="preserve">
<style type="text/css">
	.st0{fill:url(#SVGID_1_);}
	.st1{fill:#CCCCCC;}
	.st2{fill:#FFD520;}
	.st3{fill:#E03A3E;}
</style>
<g>
	<g>
		<path d="M71,80.2l-8.4-17.7h-0.1l-0.9,14.9c-0.1,1.7,1.2,2,2.7,2.1v0.6h-6.9v-0.6c2.5,0,2.7-0.5,2.9-3.5L61,63
			c0.1-2.2,0.1-2.8-2-2.9v-0.6H64l8,16.7L80,59.5h4.8v0.6c-1.6,0.1-2.2,0.1-2.2,1.3l1.1,15c0.2,3,0.4,3,2.9,3v0.6h-8.5v-0.6
			c1.6,0,3.1-0.4,3-2.2l-0.9-14.9h-0.1l-8.3,17.8H71z"/>
		<path d="M99.9,69.6h-5.7l2.8-7.7L99.9,69.6z M100.5,71l2.2,6c0.1,0.4,0.4,0.8,0.4,1.4c0,0.9-0.7,1.2-2.6,1.2h-0.9v0.6h9.1v-0.6
			c-1.7,0-2.4-0.4-3-2.1l-6.9-18.3H96l0.3,0.7l-6.1,16.5c-1.1,2.9-1.4,3.2-3.6,3.2v0.6h7.7v-0.6h-0.5c-1.8,0-2.7-0.4-2.7-1.2
			c0-0.4,0.4-1.4,0.6-2.1l1.9-5.2C93.6,71,100.5,71,100.5,71z"/>
		<path d="M114.7,60c0.6-0.1,1-0.1,1.7-0.1c5.1,0,6.5,2.4,6.5,5.5c0,4-2.5,5.6-6.1,5.6c-0.8,0-1.3,0-2.1-0.1L114.7,60L114.7,60z
			 M114.7,71.4c0.5,0,0.9,0.1,1.7,0.1c0.9,0,1.4,0,2.2-0.1c0.8,0.5,1.9,1.5,3.5,3l2.2,2.2c3,3,4.4,4.2,10.3,3.9v-0.6
			c-2.5-0.1-4.5-1.4-6.5-3.3l-2.6-2.6c-1.5-1.5-2.5-2.5-3.8-3.5c2.7-0.8,4.4-2.9,4.4-5.3c0-3.4-2.7-5.9-8.9-5.9
			c-2.2,0-2.8,0-4.2,0.1c-1.4,0.1-3.4,0.2-4.2,0.2v0.6h0.7c1.9,0,2.5,0.6,2.5,2.7v13.9c0,2.2-0.7,2.7-2.7,2.7h-0.6v0.6h9.4v-0.6
			h-0.8c-1.9,0-2.7-0.5-2.7-2.5L114.7,71.4L114.7,71.4z"/>
		<path d="M145.9,62.6c1.1-1.8,0.4-2.4-1.7-2.4v-0.6h7.4v0.6c-2.2,0.1-3.2,1.1-4.1,2.6l-5.5,9.3v5c0,1.7,0.6,2.5,2.7,2.5h0.4v0.6
			H136v-0.6h0.6c2.1,0,2.7-0.8,2.7-2.4v-4.7l-5.9-9.2c-1.6-2.5-2.4-3-4.5-3.1v-0.6h8.8v0.6c-2.6,0-2.7,0.6-1.8,2.2l5.3,8.2
			L145.9,62.6z"/>
		<path d="M166.2,80.2h-14.8v-0.6h1.1c1.5,0,2.1-0.5,2.1-2.2V62.7c0-1.7-0.5-2.5-2.6-2.5h-0.4v-0.6h9.7v0.6H160
			c-2.2,0-2.7,0.2-2.7,2.3v15.2c0,0.9,0.4,1.2,1.3,1.2h4.8c1.9,0,2.5-0.8,4.6-3.7h0.6L166.2,80.2z"/>
		<path d="M181.3,69.6h-5.7l2.8-7.7L181.3,69.6z M181.9,71l2.2,6c0.1,0.4,0.4,0.8,0.4,1.4c0,0.9-0.7,1.2-2.6,1.2H181v0.6h9.1v-0.6
			c-1.7,0-2.4-0.4-3-2.1l-6.9-18.3h-2.9l0.3,0.7l-6.1,16.5c-1.1,2.9-1.4,3.2-3.6,3.2v0.6h7.7v-0.6H175c-1.8,0-2.7-0.4-2.7-1.2
			c0-0.4,0.4-1.4,0.6-2.1L175,71C175,71,181.9,71,181.9,71z"/>
		<path d="M211.6,80.4l-17.1-18v14.2c0,2.4,0.5,2.9,3.3,2.9v0.6h-7.7v-0.6h0.1c2,0,2.7-0.7,2.7-2.2V61.1c-0.8-0.5-1.6-0.8-2.8-0.8
			v-0.6h5.2L211,75.9V62.6c0-2-0.6-2.4-3.2-2.5v-0.6h7.7v0.6c-2.5,0-3,0.4-3,1.7v18.5H211.6z"/>
		<path d="M221.7,60c0.4,0,1.3-0.1,2.7-0.1c4.6,0,7,1.2,8.5,2.7c1.9,1.9,2.7,4.7,2.7,7.1c0,3.4-1.5,5.9-2.7,7.1
			c-2,2-3.9,2.7-8.4,2.7c-2.6,0-2.7-0.4-2.7-1.8L221.7,60L221.7,60z M218.9,77.1c0,1.9-0.8,2.4-2.6,2.4h-0.6v0.6h10.6
			c8.4,0,12.3-6,12.3-11c0-5.5-3.8-9.9-12.6-9.9c-1.7,0-3.8,0-5.6,0.1c-1.8,0.1-3.5,0.1-4.7,0.2v0.6h0.6c1.9,0,2.5,0.5,2.5,2.7V77.1
			z"/>
	</g>
	<g>
		<path d="M67,46.3h0.2c1.2,0.1,1.4,0.2,1.4,1.7v3.8c0,2.7-1.9,3.3-3.5,3.3c-2.2,0-3.5-1.2-3.5-3.3v-4.5c0-0.8,0.2-1,1.1-1H63v-0.7
			h-4.7v0.7h0.2c1.1,0,1.2,0.1,1.2,1v4.8c0,2.7,1.9,4.3,5,4.3c3.8,0,5.1-2.4,5.1-4.4v-4.4c0-0.9,0.3-1.3,1.3-1.3h0.2v-0.7H67
			C67,45.6,67,46.3,67,46.3z"/>
		<path d="M85,46.3h0.2c1.3,0,1.4,0.2,1.4,1v6l-7.4-7.7h-2.9v0.7h0.2c0.5,0,0.9,0.1,1.2,0.3v8c0,0.6-0.1,0.9-1.2,0.9h-0.3v0.7h4.3
			v-0.7h-0.2c-1.3,0-1.4-0.2-1.4-1.2v-6.5l8.1,8.5l0.1,0.1h0.7V47c0-0.4,0-0.6,1.3-0.6h0.2v-0.7h-4.3L85,46.3L85,46.3z"/>
		<path d="M94.4,46.3h0.2c0.9,0.1,1,0.2,1,0.9v7c0,1-0.1,1.2-1,1.2h-0.2v0.7h4.4v-0.7h-0.2c-1,0-1.2-0.2-1.2-1.1v-6.9
			c0-1,0.2-1.1,1.2-1.1h0.2v-0.7h-4.4V46.3z"/>
		<path d="M111.5,46.3h0.2c1.3,0,1.3,0.3,1.3,0.5s-0.1,0.5-0.3,0.9l-2.4,6.3l-2.7-6.9c-0.1-0.4-0.1-0.4-0.1-0.5
			c0.1-0.2,0.6-0.3,1.4-0.4h0.2v-0.7h-5v0.7h0.2c0.9,0,1,0.1,1.4,1.2l3.6,9h1.1l3.5-8.9c0.4-0.9,0.7-1.3,1.5-1.3h0.2v-0.7h-4.3
			L111.5,46.3L111.5,46.3z"/>
		<path d="M129.3,53.5c-0.4,1.4-0.7,1.7-1.7,1.7h-2.5c-0.5,0-0.6-0.1-0.6-0.7v-3.3h2.6c0.5,0,0.8,0,0.9,1.1v0.2h0.7V49H128v0.2
			c-0.1,0.9-0.4,1-0.7,1h-2.9v-3.6h3.2c0.4,0,0.8,0.1,1,1.5v0.2h0.7l-0.1-2.7h-8.3v0.7h0.6c0.9,0,1.1,0.3,1.1,1.1v6.9
			c0,0.9-0.1,1.2-1.3,1.2h-0.6v0.7h9.2l0.3-2.9h-0.7L129.3,53.5z"/>
		<path d="M146.1,54.1l-1.3-1.3c-0.6-0.6-1.1-1.1-1.6-1.4c1.2-0.5,1.9-1.5,1.9-2.7c0-1.9-1.7-3.1-4.6-3.1c-1.1,0-1.4,0-2.1,0.1h-0.4
			c-0.6,0.1-1.3,0.1-1.6,0.1h-0.2v0.7h0.6c0.9,0,1,0.2,1,1.1v6.9c0,1-0.3,1.2-1.1,1.2h-0.5v0.7h5.1v-0.7h-0.6c-0.9,0-1.1-0.2-1.1-1
			V52c0.1,0,0.4,0,0.6,0c0.4,0,0.6,0,0.9,0h0.1c0.4,0.3,1,0.8,1.6,1.4l1.1,1.1c1.4,1.4,2.2,2,4.5,2c0.2,0,0.4,0,0.7,0h0.2v-0.7h-0.2
			C148.1,55.6,147.2,55.1,146.1,54.1z M139.6,46.2c0.2,0,0.4,0,0.6,0c2.1,0,3,0.8,3,2.5c0,1.7-0.9,2.5-2.8,2.5h-0.4
			c-0.1,0-0.3,0-0.4,0V46.2z"/>
		<path d="M156.8,49.9c-1.2-0.7-2.2-1.4-2.2-2.4c0-0.8,0.6-1.3,1.6-1.3c1.1,0,2,0.7,2.5,1.8l0.1,0.1h0.6l-0.4-2.5h-0.6l0,0.1
			c-0.1,0.1-0.1,0.1-0.1,0.1c-0.2,0-0.4-0.1-0.6-0.1c-0.4-0.1-0.8-0.3-1.7-0.3c-1.8,0-3.1,1.1-3.1,2.6c0,1.6,1.5,2.6,2.9,3.5
			c1.2,0.8,2.3,1.4,2.3,2.5c0,1.2-1,1.7-2,1.7c-1.2,0-2.2-0.9-2.5-2.2l-0.1-0.1h-0.7l0.4,3h0.6l0.1-0.1c0-0.1,0.1-0.1,0.1-0.1
			c0.1,0,0.3,0.1,0.4,0.1c0.5,0.1,1.2,0.4,1.8,0.4c2,0,3.5-1.3,3.5-3C159.8,51.7,158.2,50.8,156.8,49.9z"/>
		<path d="M166.2,46.3h0.2c0.9,0.1,1,0.2,1,0.9v7c0,1-0.1,1.2-1,1.2h-0.2v0.7h4.4v-0.7h-0.2c-1,0-1.2-0.2-1.2-1.1v-6.9
			c0-1,0.2-1.1,1.2-1.1h0.2v-0.7h-4.4V46.3z"/>
		<path d="M186.4,45.4v0.1c0,0-0.1,0.1-0.3,0.1h-7.9c-0.1,0-0.2,0-0.3-0.1v-0.2h-0.7l-0.3,3.1h0.7v-0.1c0.3-1.5,0.6-1.7,1-1.7h2.7
			v7.9c0,0.7-0.1,1-1.1,1h-0.9v0.7h5.6v-0.7h-0.8c-0.9,0-1.1-0.3-1.1-1v-7.9h2.7c0.4,0,0.7,0.1,1,1.7v0.1h0.7l-0.4-3H186.4z"/>
		<path d="M200,46.3h0.2c0.6,0,0.8,0.1,0.9,0.2c0,0.1,0.1,0.2-0.2,0.6l-2.2,3.7l-2.5-3.8c-0.3-0.4-0.3-0.5-0.2-0.6
			c0-0.1,0.1-0.1,0.9-0.1h0.2v-0.7h-4.8v0.7h0.2c0.9,0,1.3,0.1,2.1,1.4l2.9,4.5v2.2c0,0.6-0.1,0.9-1.1,0.9h-0.5v0.7h5v-0.7h-0.4
			c-0.9,0-1.1-0.3-1.1-1v-2.4l2.7-4.5c0.4-0.7,0.9-1.1,1.9-1.2h0.2v-0.7h-4.1v0.6H200z"/>
		<path d="M219.3,45.4c-3.6,0-6.2,2.5-6.2,5.8c0,3,2.7,5.3,6.1,5.3c3.5,0,6.1-2.5,6.1-5.8C225.3,47.7,222.7,45.4,219.3,45.4z
			 M218.9,46.2c2.6,0,4.5,2,4.5,5c0,2.2-1.2,4.5-3.8,4.5s-4.5-2.2-4.5-5.1C215,48.8,216.1,46.2,218.9,46.2z"/>
		<path d="M234.8,46.6c0.9,0,1.2,0.3,1.2,1.2V48h0.7v-2.4h-7.8v0.7h0.2c0.9,0,1,0.3,1,1.3V54c0,1.3-0.1,1.4-1,1.4h-0.2v0.7h4.4v-0.7
			h-0.2c-1.2,0-1.2-0.3-1.2-1.1v-3.2h2.8c0.6,0,0.9,0.1,0.9,1v0.2h0.7V49h-0.7v0.2c-0.1,0.7-0.4,0.9-0.7,0.9h-3v-3.5H234.8z"/>
	</g>
	<g>
		<g>
			
				<radialGradient id="SVGID_1_" cx="31.6119" cy="65" r="18.271" gradientTransform="matrix(1 0 0 -1 0 128)" gradientUnits="userSpaceOnUse">
				<stop  offset="0" style="stop-color:#FFFFFF"/>
				<stop  offset="0.5149" style="stop-color:#FDFDFD"/>
				<stop  offset="0.7003" style="stop-color:#F6F6F6"/>
				<stop  offset="0.8325" style="stop-color:#EBEBEB"/>
				<stop  offset="0.9387" style="stop-color:#DADADA"/>
				<stop  offset="1" style="stop-color:#CCCCCC"/>
			</radialGradient>
			<path class="st0" d="M31.6,81.3c-10,0-18.3-8.2-18.3-18.3c0-10,8.2-18.3,18.3-18.3c10,0,18.3,8.2,18.3,18.3
				C49.9,73,41.7,81.3,31.6,81.3z"/>
		</g>
		<g>
			<path class="st1" d="M31.6,81.3c-10,0-18.3-8.2-18.3-18.3c0-10,8.2-18.3,18.3-18.3c10,0,18.3,8.2,18.3,18.3
				C49.9,73,41.7,81.3,31.6,81.3z M31.6,44.9c-10,0-18.1,8.1-18.1,18.1s8.1,18.1,18.1,18.1S49.7,73,49.7,63S41.5,44.9,31.6,44.9z"/>
		</g>
		<path class="st2" d="M49.7,62.6c0,0.1-0.3,0.4-0.6,0.6l0,0c-0.4,0.3-1.2,0.5-1.9,0.7c-0.9,0.2-1.9,0.4-3,0.6
			c-1.2,0.1-2.5,0.3-3.8,0.4l0,0c-1.7,0.1-2.9,0.2-4.3,0.3c-1.5,0.1-3,0.1-4.6,0.1c0,0.2,0,0.4,0,0.6c0,1.4,0,2.7,0,4
			c0.1,6.9,0.1,6.9,0.3,11.2c10,0,18.1-8.1,18.1-18.1C49.7,63,49.7,62.7,49.7,62.6z"/>
		<g>
			<path d="M31.3,65.9c0,1.4,0,2.7,0,4c2.9,2.7,2.9,2.7,4.1,4c0.3-2.3,0.5-5.1,0.5-8.1c0-0.2,0-0.4,0-0.6c-1.8,0.1-3,0.1-4.6,0.1
				C31.3,65.5,31.3,65.7,31.3,65.9z"/>
			<path d="M38,77c-0.6-1-1.2-1.7-2.5-3.1c-0.6,4.4-1.7,7.1-3.1,7.2c0.1,0,0.3,0,0.4,0c0.1,0,0.3,0,0.4-0.1
				C35.2,80.9,36.7,79.5,38,77z"/>
			<path d="M40,69.6c0,0-1,5.4-2,7.4c0.6,1.1,0.6,1.5,0.4,2.2c1.7-1.4,3.2-3.3,4.2-5.8C41.9,72.1,41.5,71.4,40,69.6z"/>
			<path d="M34.9,80.8c0.4-0.1,0.4-0.1,1.1-0.2l0.4-0.1c1.4-0.4,1.6-0.6,2-1.2c-1.2,0.9-2.5,1.4-3.9,1.7L34.9,80.8z"/>
			<path d="M42.9,76.4c2.6-3,4.2-7.1,4.2-11.9c0-0.2,0-0.4,0-0.6c-0.9,0.2-1.9,0.4-3,0.6c0,0.2,0,0.4,0,0.6c0,3.1-0.5,5.9-1.5,8.3
				C43.2,74.8,43.2,75.3,42.9,76.4z"/>
			<path d="M40.3,64.9c-1.7,0.1-2.9,0.2-4.3,0.3c2.5,2.6,3,3.2,4,4.4c0.1-1.3,0.2-2.7,0.2-4C40.3,65.3,40.3,65.1,40.3,64.9z"/>
		</g>
		<path d="M27.6,45.8c1-0.4,1.9-0.9,4-0.9l0,0C30.2,44.9,28.9,45.3,27.6,45.8"/>
		<g>
			<path class="st3" d="M43.7,64.4c-0.9-0.1-1.7-1.7-1.3-3.3c-1.3,0.9-2.8-0.9-2.6-2.7c0.1-0.9,0.7-1.7,1.8-1.4
				c-0.4-1.4-0.9-2.9-1.6-4.2c-0.9,0.1-1.9,0.2-3,0.3c0.9,1.4,0,2.8-1.3,2.6c-1-0.1-1.9-1.2-1.7-2.4c-0.8,0.6-2.5,0.4-2.6-1.4
				c-0.1,3.7-0.1,8.4-0.1,13.3c4.8,0.1,10.5-0.4,12.7-0.8l0,0C44,64.5,43.8,64.5,43.7,64.4z"/>
		</g>
		<g>
			<path class="st3" d="M19.9,68.1c1.4-0.5,3,1.8,2.5,3.4c-0.3,0.7-1,0.9-1.7,0.5c0.4,1.4,0.9,2.6,1.5,3.7c0.9,0.1,2,0.2,3.2,0.4
				c-0.9-1.2-0.2-2.1,1.1-2c1.1,0.1,2.5,0.9,2.2,2.2c0.9-0.4,2.6-0.1,2.8,1.2c-0.1-2.7-0.1-6.7-0.1-11.4c0-0.2,0-0.4,0-0.6
				c-1.5,0-3.1-0.1-4.6-0.1c-3.2-0.1-5.5-0.3-8.2-0.8l0,0C19.8,64.9,20.3,67,19.9,68.1z"/>
		</g>
		<path class="st3" d="M40.2,51.4L40.2,51.4L40.2,51.4L40.2,51.4L40.2,51.4L40.2,51.4c0.2,0,0.4-0.1,0.5-0.1c1-0.2,3.4-0.7,3.4-1.4
			c0,0,0.9,0.9,1.6,2.2c0.1,0.1,0.1,0.3,0.2,0.5c0.1,0.2,0.1,0.5,0.1,0.6c0,0.4-0.3,0.4-0.5,0.3h-0.1c-0.9-0.4-1.2-1.3-1.4-1.7
			c-0.5,0.1-1.2,0.5-1.9,0.6c-0.1,0-0.2,0.1-0.3,0.1c0.8,1.3,1.5,2.7,2,4.3c0.9-0.9,2.3,0.8,2.4,2.5c0.1,1-0.4,1.9-1.3,1.5
			c0.7,1.4,0.5,3.3-0.9,3.8C43.8,60.1,43.1,56.1,40.2,51.4L40.2,51.4L40.2,51.4"/>
		<path class="st3" d="M40.2,51.4L40.2,51.4L40.2,51.4L40.2,51.4L40.2,51.4c-2.3-3.5-4.1-4.8-6.5-5.7c-0.4-0.2-2-0.8-2.2-0.8l0,0
			l0,0c0.4,0.6,1.2,0.9,1.4,1c-0.1,0.2,0,0.6,0.7,1.2c0.1,0.1,0.2,0.1,0.4,0.2c1.2,0.6,1.4,0.1,1.5-0.1l0,0c0.4,0.3,1.1,0.8,1.8,1.7
			c0.4,0.5,0.9,1,1.2,1.4c-0.7,0.1-1.7,0.1-2.7,0.2c-0.1-1.2-0.9-1.7-1.4-1.9c-1-0.5-1.4,0.9-0.9,1.8c-0.9-0.5-1.9-0.1-2.2,1.4
			C35,52,37.5,51.8,40.2,51.4L40.2,51.4L40.2,51.4"/>
		<path class="st3" d="M40.4,48.1c0,0,0-0.1,0-0.1c0-0.1,0.1-0.1,0.1-0.1s0-0.1,0.1-0.1c0.2-0.1,0.7-0.1,2.2,0.9
			c-3.2-2.5-6.5-3.5-9.4-3.8c-0.4-0.1-1.2-0.1-1.2-0.1c0.9,0.1,1.5,0.3,1.7,0.4c0.1,0.1,0.2,0.1,0.2,0.1l0,0c0.2,0,0.4,0.1,0.6,0.1
			c0.3,0.1,0.7,0.3,1.2,0.4c0.4,0.2,1.1,0.6,1.1,0.9c-0.1,0.1-0.1,0.1-0.4,0c1.1,0.8,2.6,2.2,3.5,3.2c0.6-0.1,1.6-0.2,2-0.4
			C42.1,49.8,40.7,48.7,40.4,48.1z"/>
		<path class="st3" d="M21.9,76.6c-1.5-0.2-2.5-0.5-3-0.8c-0.1-0.1-0.1-0.1-0.1-0.1s-0.9-0.9-1.7-1.9c-0.6-0.7-1-1.5-1.1-1.6
			c0,0,0.1,0,0.2,0c0.8,0.3,2.1,2.5,2.1,2.5c0.5,0.2,1.2,0.4,1.9,0.5c-0.7-1.2-1.4-2.4-1.9-3.8c-1.2,0.6-2.6-2.4-2.1-3.7
			c0.1-0.3,0.4-0.8,1.2-0.2c-0.6-1.3-0.4-3.3,0.9-3.3C18.5,68.8,19.1,72.6,21.9,76.6"/>
		<path class="st3" d="M31.4,77.6c-0.1,0.6-1,1.2-2.3,0.7c0.6,0.8,0.1,1.4-0.9,1.2c-0.8-0.1-1.7-0.8-1.8-1.4c-1-0.1-1.9-0.1-2.7-0.3
			c0.8,0.9,1.6,1.6,2.5,2.2c0.1-0.1,0.3,0,0.8,0.1c0.7,0.2,1.4,0.6,2,0.8h-0.1c-0.5-0.1-0.6-0.1-0.9-0.1c-1.4-0.3-3.7-1-6-4.1l0,0
			l0,0l0,0c2.8,0.4,5.6,0.6,9.5,0.6C31.4,77.4,31.4,77.5,31.4,77.6"/>
		<path class="st2" d="M31.5,44.9c-9.7,0-17.9,7.9-18.1,17.8l0,0c0,0,0.1,0.2,0.5,0.4l0,0l0,0c0.4,0.2,0.9,0.5,1.7,0.7
			c0.9,0.2,1.9,0.4,2.8,0.6l0,0c2.7,0.4,5,0.6,8.2,0.8c1.5,0.1,3.1,0.1,4.6,0.1c0-0.9,0-6.2,0-11.3c0-0.6,0-1.4,0-2
			C31.5,48.7,31.5,45.3,31.5,44.9L31.5,44.9z"/>
		<path d="M40.3,79c-1,0.6-1.2,0.6-2.6,1.2c-0.4,0.1-0.7,0.2-1.2,0.4c2.5-0.6,5.8-3.4,6.4-4c-0.3,0.6-0.5,1.1-1.2,1.7
			C41.4,78.2,40.6,78.7,40.3,79z"/>
		<path d="M15.7,63.8c-0.7-0.2-1.3-0.4-1.7-0.7c0.1-6.5,3.8-12.3,9.1-15.5c-1.2,1.1-1.8,1.8-2.5,3.3C17.7,54.3,15.8,58.9,15.7,63.8"
			/>
		<path d="M23.2,47.5c1.3-0.9,2.1-1.7,4.2-2.2c1.4-0.4,2.7-0.5,4.3-0.5l0,0C28.5,44.9,25.6,46,23.2,47.5"/>
		<path d="M22.2,64.9c-1.3-0.1-2.6-0.3-3.7-0.5c0.1-3.3,0.8-6.4,1.9-9.2c0.4,1.8,0.9,2.8,2.2,5C22.3,61.7,22.2,63.3,22.2,64.9"/>
		<path d="M31.4,52c0,2,0,4-0.1,5.6c0,1.6,0,2.7,0,3c-1.8-1.9-2.7-2.9-4-4.5c0.9-5.6,2.5-10.1,4.3-11.1l0,0l0,0
			C31.5,45.4,31.5,48.6,31.4,52z"/>
		<g>
			<path d="M25,51.7c-1.2,2.4-2,5.3-2.5,8.4c1.1,1.7,1.8,2.6,4,5.1c0-3.2,0.3-6.4,0.7-9.2C26,54.1,25.5,53.3,25,51.7z"/>
		</g>
		<path d="M49,63.1c0,0.2,0,0.4,0,0.6c0,6.4-3.1,11.8-8,14.7l-0.1,0.1c2.3-1.4,5.2-3.8,7.1-7.7c1.9-3.9,1.7-8.2,1.7-8.2
			C49.7,62.8,49.4,63,49,63.1z"/>
		<g>
			<path d="M27.6,45.8c-2.7,1-5.1,2.8-6.9,5.1c-0.5,1.7-0.5,2.6-0.3,4.3c1.2-2.7,2.8-5.1,4.8-6.9C25.8,47.2,26.1,46.6,27.6,45.8z"/>
		</g>
		<path d="M25,51.8c-0.4-1.5-0.4-2.2,0.1-3.5c1.9-1.7,4-3,6.4-3.4C29,45.5,26.7,48.2,25,51.8"/>
	</g>
</g>
</svg>
