<?xml version="1.0" encoding="utf-8"?>
<!-- Generator: Adobe Illustrator 27.7.0, SVG Export Plug-In . SVG Version: 6.00 Build 0)  -->
<svg version="1.1" id="Layer_1" xmlns="http://www.w3.org/2000/svg" xmlns:xlink="http://www.w3.org/1999/xlink" x="0px" y="0px"
	 viewBox="0 0 252 126" style="enable-background:new 0 0 252 126;" xml:space="preserve">
<style type="text/css">
	.st0{fill:#FFCB05;}
	.st1{fill:#00274C;}
</style>
<g transform="matrix(1.25 0 0 -1.25 -244.64 770.03)">
	<g transform="translate(.20095 .20095)">
		<path class="st0" d="M229.9,554l-10,13.7v-10h4v-9.9h-18.4v9.9h3.7v15.4h-3.7v9.9h14.5l10-13.9l10,13.9h14.5v-9.9h-3.7v-15.4h3.7
			v-9.9H236v9.9h4v10L229.9,554z"/>
		<path class="st1" d="M328.3,582.5c-1.9,0-3.6-1.2-3.6-3.3c0-2.2,1.7-2.9,2.7-3.2c0.4-0.2,0.9-0.3,1.4-0.5c0.5-0.2,1.8-0.7,1.8-2
			c0-1.2-1.1-1.7-2.3-1.7c-1.7,0-2.7,1-3.4,2.8l-0.6-0.1l0.2-2.2l0.9-0.7c0.4-0.3,1.4-0.9,2.9-0.9c2.4,0,4,1.6,4,3.6
			c0,1.4-0.7,2.3-1.6,2.9c-0.5,0.3-1,0.4-1.6,0.7c-1.3,0.4-2.6,0.9-2.6,2.2c0,0.9,0.7,1.5,1.9,1.5c0.9,0,1.7-0.3,2.2-1
			c0.4-0.6,0.6-0.9,0.8-1.7l0.6,0.1l-0.4,3.4l-0.7-0.5C329.9,582.3,329.1,582.5,328.3,582.5L328.3,582.5z M372.3,582.4
			c-3.6,0-5.7-2.8-5.7-5.8c0-3.6,2.6-6,5.8-6c3,0,5.6,2,5.6,5.9C378,580,375.7,582.4,372.3,582.4L372.3,582.4z M350.1,582.3v-0.6
			c1.1-0.1,1.1-0.1,1.9-1.3l3-4.6v-2c0-1.2,0-1.5-0.3-1.8c-0.2-0.2-0.6-0.3-1.4-0.4V571h5.6v0.6c-1.7,0.1-1.7,0.3-1.7,2.3v2.3
			l1.8,2.9c1.3,2.1,1.6,2.4,2.8,2.5v0.6h-4.4v-0.6c0.8,0,1.2-0.1,1.2-0.6c0-0.3-0.2-0.6-0.4-1.2l-1.6-2.8l-1.7,2.8
			c-0.3,0.5-0.5,0.8-0.5,1.1c0,0.5,0.5,0.6,1.7,0.6v0.6H350.1L350.1,582.3z M313.8,582.3v-0.6c0.9-0.1,1.2-0.2,1.3-0.8
			c0-0.4,0.1-0.8,0.1-2.2v-4.1c0-0.5,0-1,0-1.5c0-1.2-0.1-1.4-1.4-1.5V571h4.7v0.6c-1.4,0-1.4,0.4-1.4,3l0,1.5c1.1,0,1.3,0.1,2-1.3
			l0.6-1.3c0.9-1.9,1.8-2.6,3.9-2.6c0.3,0,0.5,0,0.7,0v0.4c-0.9,0.1-1.3,0.4-2,1.8l-2,3.5c1.5,0.5,2.2,1.9,2.2,3
			c0,1.6-0.9,2.9-3.7,2.9L313.8,582.3L313.8,582.3z M303.8,582.3v-0.6c0.8-0.1,1.2-0.1,1.3-0.7c0.1-0.4,0.1-1.6,0.1-2v-4
			c0-0.3,0-1.7,0-1.9c0-1.2-0.2-1.3-1.3-1.5V571h8.6c0,0.8,0.1,2.2,0.2,2.9h-0.5c-0.4-2-1.5-1.9-3.1-1.9c-1.5,0-1.8,0.4-1.8,1.1v3.2
			h1.2c1.4,0,1.8-0.1,1.8-1.4h0.5v3.7h-0.5c-0.1-1-0.3-1.3-1.8-1.3h-1.2v4h1.4c1.9,0,2.6-0.1,2.9-1.7h0.5l-0.1,2.7L303.8,582.3
			L303.8,582.3z M338.9,582.3l-0.1-3.2h0.6c0.1,2,0.9,2,2.2,2h1.4v-8.3c0-0.9-0.3-1.3-1.3-1.3V571h4.7l0,0.5c-1,0-1.3,0.4-1.3,1.3
			v8.3h1.4c1.3,0,2.1,0,2.2-2h0.6l-0.1,3.2H338.9L338.9,582.3z M260.1,582.3v-0.6c0.8,0,1.2-0.2,1.3-0.9c0-0.3,0-0.8,0-2v-2.6
			c0-1.8,0-3.5,1.7-4.6c1.1-0.7,2.3-0.8,3-0.8c0.8,0,3.7,0.2,4.5,3.2c0.2,0.8,0.2,1.7,0.3,2.5c0,0.5,0.1,3.6,0.2,3.9
			c0.1,1.1,0.3,1.4,1.3,1.3v0.6h-4.3v-0.6c1-0.1,1.5-0.1,1.6-1.1c0-0.4,0-1.7,0-2.1c0-1.3,0-3.3-0.3-4.3c-0.4-1.3-1.3-2.2-2.9-2.2
			c-0.5,0-1.5,0.1-2.1,0.9c-0.7,1.1-0.7,2.2-0.7,3.6v2.6c0,2.4,0,2.4,1.5,2.6v0.6L260.1,582.3L260.1,582.3z M273.2,582.3v-0.6
			c0.8-0.1,1-0.2,1.6-0.8c0-1.2-0.1-7.9-0.2-8.6c-0.1-0.6-0.5-0.7-1.4-0.7V571h4.6v0.6c-1.7,0.2-1.9,0.2-1.9,2.1v5.8l4.5-5.5
			c0.5-0.6,1-1.3,1.5-1.9l1-1.3h0.7l0.2,8.7c0,1.8,0.1,2.1,1.4,2.1v0.6h-4.4v-0.6c1.8-0.1,1.8-0.2,1.9-1.9v-5l-3.1,3.9
			c-1.7,2.1-1.9,2.4-2.8,3.7L273.2,582.3L273.2,582.3z M286.3,582.3v-0.6c1.3-0.2,1.3-0.3,1.3-2.6v-4.6v-1.4c0-1.2-0.2-1.3-1.3-1.5
			V571h4.7v0.6c-0.9,0.1-1.2,0.2-1.3,0.9c0,0.3,0,1.6,0,2v4.5c0,2.4,0,2.5,1.3,2.6v0.6H286.3L286.3,582.3z M292.1,582.3v-0.6
			c1.1-0.2,1.2-0.4,2-2.6l3.1-8.3h0.6l3.4,8.2c0.9,2.2,1.1,2.5,2.2,2.7v0.6h-3.9v-0.6c0.7,0,1.5,0,1.5-0.9c0-0.3-0.2-0.8-0.3-1.2
			l-2.3-5.9l-2,5.7c-0.3,0.9-0.4,1.2-0.4,1.5c0,0.7,0.6,0.7,1.5,0.7v0.6L292.1,582.3L292.1,582.3z M333.1,582.3v-0.6
			c1.3-0.2,1.3-0.3,1.3-2.6v-4.6v-1.4c0-1.2-0.2-1.3-1.3-1.5V571h4.7v0.6c-0.9,0.1-1.2,0.2-1.3,0.9c0,0.3,0,1.6,0,2v4.5
			c0,2.4,0,2.5,1.3,2.6v0.6H333.1L333.1,582.3z M378.6,582.2v-0.6c0.8-0.1,1.2-0.1,1.3-0.7c0.1-0.4,0.1-1.6,0.1-2l0-4
			c0-0.3,0-1.7,0-1.9c0-1.2-0.2-1.3-1.3-1.5v-0.6h4.7v0.6c-1.2,0.1-1.3,0.2-1.3,1.5l0,3.2h1.2c1.3,0,1.9-0.1,2-1.4h0.5v3.7h-0.5
			c-0.1-1.2-0.4-1.3-1.8-1.3h-1.5l0,3.9c0.4,0,0.6,0.1,1.3,0.1c2.2,0,2.9,0,3.2-1.8h0.6l-0.2,2.8L378.6,582.2L378.6,582.2z
			 M372.3,581.4c0.9,0,1.7-0.5,2-0.9c0.8-0.9,1.2-2.1,1.3-3.6c0-1.5-0.1-2.6-0.9-3.8c-0.7-1.1-1.6-1.4-2.2-1.4
			c-0.6,0-1.5,0.3-2.3,1.3c-0.8,1.2-1,2.3-1,3.8c0,1.5,0.4,2.7,1.2,3.6C370.6,580.8,371.3,581.4,372.3,581.4L372.3,581.4z
			 M317.8,581.3c2.1,0,2.7-1.1,2.7-2.4c0-0.9-1-1.9-2.3-1.9c-0.3,0-0.8,0-1.1,0.1v4.2C317.3,581.2,317.5,581.3,317.8,581.3
			L317.8,581.3z M362.3,566.3c-0.8-0.6-1.4-0.9-3.4-1.6l0.3-0.4l-4.6-12.7c-0.7-1.8-1.2-2.1-3-2.2v-0.9h7v0.9c-1,0-2.3,0.1-2.3,1.3
			c0,0.4,0.1,0.7,0.2,1.1l0.5,1.5h6l0.5-1.7c0.1-0.3,0.2-0.7,0.2-1c0-0.9-0.9-1-2.1-1.1v-0.9h7.5h0.5h6.5v0.9
			c-2.6,0.3-2.8,0.4-2.8,3.1v8.8l6.7-8.3c0.8-0.9,1.5-1.9,2.3-2.9l1.5-1.9h1l0.2,13.2c0,2.8,0.2,3.2,2.1,3.2v0.9h-6.7v-0.9
			c2.7-0.1,2.8-0.2,2.8-2.9v-7.6l-4.8,5.9c-2.5,3.1-2.8,3.6-4.2,5.6h-5.1v-0.9c1.1-0.1,1.5-0.3,2.5-1.1c0-1.8-0.1-11.9-0.3-13
			c-0.2-0.9-0.7-1-1.8-1c-1.7,0.2-2,0.7-2.6,2.7l-3.8,11.6C362.7,565,362.6,565.1,362.3,566.3L362.3,566.3z M343.8,566
			c-4.6,0-8.3-3.5-8.3-9c0-4.5,2.8-8.9,8.7-8.9c3.3,0,5.2,1.2,6.6,2v1.3c0,3.2,0,3.7,1.6,3.8v0.9h-6.9v-0.9c1.9-0.2,2.2-0.2,2.3-2.4
			c0-0.8,0-1.2-0.3-1.6c-0.1-0.1-1.1-1.4-3-1.4c-3.3,0-5.3,3.4-5.3,7.3c0,4.9,2.5,7.4,5.5,7.4c1.7,0,2.8-0.7,3.4-1.3
			c1.3-1.3,1.8-2.5,2.2-3.5l0.7,0.1l-0.1,5.3l-0.9-1C348.4,564.9,346.7,566,343.8,566L343.8,566z M300,566c-5.8,0-8.6-4.5-8.6-9.2
			c0-5,3.3-8.8,8.5-8.8c4.7,0,6.5,3,7.3,4.2l-1,0.8c-0.9-1.3-2-2.9-5-2.9c-3.9,0-5.9,3.5-5.9,7.3c0,4.4,2.4,6.9,5.5,6.9
			c1.8,0,3.1-1.1,3.6-1.7c1.1-1.2,1.5-2,1.8-3l0.8,0.1l-0.1,5.2l-1.2-1.1C304.7,564.7,303.1,566,300,566L300,566z M260.8,565.6v-0.9
			c1.5,0,1.9-0.1,1.9-1.8c0-0.6,0-1.4,0-2l-0.2-7.1c0-0.9-0.1-2.4-0.1-2.8c-0.1-1.2-0.6-1.4-2-1.4v-0.9h5.9v0.9
			c-1.8,0.1-2,0.5-2,2.1l0.1,10l5.5-13.3h1.5l6,13.1v-8.6c0-3.2,0-3.3-2.2-3.4v-0.9h7.5v0.9c-1.4,0.1-1.8,0.4-1.9,1.6
			c-0.1,0.9-0.1,2.3-0.1,3.5v7c0,2.7,0,2.9,2,3v1h-5.2l-5.8-12.9l-5.3,12.9L260.8,565.6L260.8,565.6z M284.1,565.6v-0.9
			c2-0.3,2-0.4,2-3.9v-6.9v-2.2c0-1.8-0.4-2-2-2.2v-0.9h7.1v0.9c-1.3,0.1-1.8,0.3-1.9,1.4c0,0.5-0.1,2.4-0.1,3v6.9
			c0,3.6,0,3.7,2,3.9v0.9H284.1L284.1,565.6z M308.5,565.6v-0.9c1.3-0.1,1.8-0.3,1.9-1.3c0.1-0.5,0.1-1.6,0.1-2.8v-7.1
			c0-0.6,0-1.2,0-1.8c0-1.6,0-2.1-2-2.2v-0.9h7.3v0.9c-2.2,0.2-2.2,0.2-2.3,3.8v3.1c1.5,0.1,2.6,0.1,4.1,0.1c1.4,0,2.5-0.1,3.9-0.1
			v-3.1c0-1.2,0-1.9,0-2.4c-0.1-1.2-0.6-1.2-2.3-1.4v-0.9h7.4v0.9c-1.3,0.1-1.8,0.3-1.9,1.2c-0.1,0.5-0.1,2.7-0.1,3.3v7.2
			c0,3.2,0,3.3,2,3.5v0.9h-7.4v-0.9c2.3-0.2,2.3-0.3,2.4-3.5v-2.9c-1.4-0.1-2.6-0.1-4-0.1c-1.4,0-2.5,0-3.9,0.1v2.4
			c0,1,0,2.3,0.1,2.8c0.2,0.9,0.7,1,2.1,1.1v0.9L308.5,565.6L308.5,565.6z M327.9,565.6v-0.9c2-0.3,2-0.4,2-3.9v-6.9v-2.2
			c0-1.8-0.4-2-2-2.2v-0.9h7.1v0.9c-1.3,0.1-1.8,0.3-1.9,1.4c0,0.5-0.1,2.4-0.1,3v6.9c0,3.6,0,3.7,2,3.9v0.9H327.9L327.9,565.6z
			 M360.1,562.2l2.4-7.1h-4.9L360.1,562.2L360.1,562.2z"/>
	</g>
</g>
</svg>
