<?xml version="1.0" encoding="utf-8"?>
<!-- Generator: Adobe Illustrator 27.4.0, SVG Export Plug-In . SVG Version: 6.00 Build 0)  -->
<svg version="1.1" id="Layer_1" xmlns="http://www.w3.org/2000/svg" xmlns:xlink="http://www.w3.org/1999/xlink" x="0px" y="0px"
	 viewBox="0 0 252 126" style="enable-background:new 0 0 252 126;" xml:space="preserve">
<style type="text/css">
	.st0{fill:#252F3E;}
	.st1{fill-rule:evenodd;clip-rule:evenodd;fill:#FF9900;}
	.st2{fill:none;stroke:#D6CBFF;stroke-width:2.893;}
	.st3{fill-rule:evenodd;clip-rule:evenodd;fill:#7B58E5;}
	.st4{fill:none;stroke:#7B58E5;stroke-width:2.893;}
	.st5{fill:none;stroke:#72777C;stroke-width:2.0894;}
	.st6{fill:none;stroke:#72777C;stroke-width:1.9287;}
	.st7{fill:none;stroke:#7B58E5;stroke-width:1.9287;}
	.st8{fill:none;stroke:#72777C;stroke-width:2.0894;stroke-miterlimit:4;}
	.st9{fill:none;stroke:#72777C;stroke-width:1.9287;stroke-miterlimit:4;}
	.st10{fill:none;stroke:#787878;stroke-width:2.0894;}
	.st11{fill:none;stroke:#7B58E5;stroke-width:1.9287;stroke-miterlimit:4;}
	.st12{fill:none;stroke:#787878;stroke-width:2.0894;stroke-miterlimit:4;}
	.st13{fill:none;stroke:#787878;stroke-width:1.9287;}
	.st14{fill:#6C4DEA;}
	.st15{fill:#72777C;}
	.st16{fill-rule:evenodd;clip-rule:evenodd;fill:#002D72;}
	.st17{fill:#002D72;}
	.st18{fill:#332A86;}
	.st19{fill:#00356B;}
	.st20{fill:#000D74;}
	.st21{fill:#4285F4;}
	.st22{fill:#EA4335;}
	.st23{fill:#FBBC05;}
	.st24{fill:#34A853;}
	.st25{fill:#1C2B33;}
	.st26{fill:#0081FB;}
	.st27{fill:url(#Logo1_00000005950359205087554520000012169373333892969354_);}
	.st28{fill:url(#Logo2_00000003100964976778056870000018441286562235644845_);}
</style>
<g>
	<g>
		<g>
			<path class="st18" d="M197.9,67.6l-0.6,0.5l0.1,0.2h1.7c-0.3,1.8-0.5,3.4-0.9,6c-0.6,3.8-1,5.2-1.4,5.5c-0.1,0.1-0.3,0.2-0.5,0.2
				c-0.2,0-0.6-0.2-0.9-0.3c-0.2-0.1-0.5,0-0.6,0.1c-0.2,0.2-0.3,0.5-0.3,0.7c0,0.4,0.5,0.6,0.9,0.6c0.4,0,1.4-0.3,2.3-1.4
				c0.7-0.9,1.6-2.8,2.4-7.5c0.1-0.9,0.3-1.7,0.7-4l2.1-0.2l0.5-0.5h-2.4c0.6-3.8,1.1-4.9,2-4.9c0.6,0,1.1,0.2,1.6,0.7
				c0.1,0.1,0.4,0.1,0.6,0c0.2-0.1,0.4-0.5,0.4-0.8c0-0.4-0.5-0.9-1.2-0.9c-1.2,0-2.4,0.7-3.3,1.7c-0.8,1-1.3,2.5-1.6,4.2H197.9z
				 M188.7,72.9c0-3,1.5-4.7,2.2-4.9c0.2-0.1,0.5-0.2,0.7-0.2c1,0,1.6,0.8,1.6,2.4c0,2.7-1.4,5.1-2.2,5.4c-0.2,0.1-0.4,0.1-0.6,0.1
				C189.1,75.7,188.7,74.5,188.7,72.9 M192.2,67.1c-0.5,0-1.4,0.2-2.2,0.7c-1.4,0.8-2.9,2.7-2.9,5.6c0,1.4,0.7,3,2.6,3
				c0.9,0,2.2-0.6,3.1-1.4c1.4-1.2,2.1-3.3,2.1-5.2C194.8,68.2,193.9,67.1,192.2,67.1 M170,62.9l3.7,6.6v5.6l-1.2,1.2h3.9l-1.2-1.2
				v-5.6l3.8-6.6l1.2-1.2h-3.6l1.1,1.1l-3.1,5.5l-2.9-5.5l1.1-1.1h-4.1L170,62.9z M161.7,75.1V62.8h2.8l1.6,1.6v-2.6h-10.3v2.6
				l1.6-1.6h2.7v12.3l-1.1,1.2h3.9L161.7,75.1z M147.9,61.7l1.2,1.2v12.3l-1.2,1.2h3.9l-1.2-1.2V62.9l1.2-1.2H147.9z M143.1,72.2
				c0-1.4-0.7-2.3-1.4-2.8l-3-2.1c-1.1-0.8-1.6-1.8-1.6-2.5c0-1.5,1.3-2.1,2.1-2.1c0.4,0,0.7,0.2,0.9,0.2l1.3,1.4l1.4-2l-2.9-0.5
				c-0.2,0-0.3-0.1-0.7-0.1c-2.5,0-3.7,2.2-3.7,3.6c0,1.1,0.6,2.4,1.9,3.3l3,2.1c0.8,0.6,1,1.4,1,2.1c0,1.2-0.8,2.6-2.4,2.6
				c-0.4,0-0.7-0.1-1-0.2l-1.4-1.6l-1.3,2.3l2.8,0.5c0,0,0.5,0.1,0.9,0.1C140.8,76.5,143.1,75,143.1,72.2 M123.7,62.8h1.8
				c1.6,0,2.8,1.3,2.8,2.9c0,1.5-1.3,2.7-2.8,2.7h-1.8V62.8z M123.7,75.1v-5.6h2.2l3.5,6.8h2.4l-1.1-1.2l-3.3-6
				c1.6-0.5,2.7-2,2.7-3.4c0-2.5-2.3-4-4.7-4H121l1.1,1.2v12.3l-1.1,1.2h3.9L123.7,75.1z M116.6,76.3v-2.7l-1.6,1.6h-4.4v-6.1h3.3
				l1.2,1.2v-3.4l-1.2,1.2h-3.3v-5.2h4.4l1.6,1.6v-2.6h-8.7l1.1,1.2v12.3l-1.1,1.2H116.6z M97.1,61.7h-4.1l1.2,1.2l4.1,13.4H99
				l4.2-13.4l1.2-1.2h-3.5l1.1,1.1l-3.1,10.1l-3-10.1L97.1,61.7z M85.1,61.7l1.2,1.2v12.3l-1.2,1.2H89l-1.2-1.2V62.9l1.2-1.2H85.1z
				 M70.9,75V64.1l7.9,12.2h0.5V62.9l1.3-1.3h-3.8l1.3,1.3v9.3l-6.6-10.5h-3l1.2,1.3V75l-1.2,1.3h3.8L70.9,75z M53.9,72.4
				c0,2.4,2,4.2,4.5,4.2c2.4,0,4.7-1.8,4.7-4.2v-9.4l1.2-1.3h-3.8l1.3,1.3v9.4c0,1.7-1.3,3-3,3c-1.7,0-3.2-1.3-3.2-3v-9.4l1.3-1.3
				h-4.2l1.3,1.3V72.4z"/>
			<path class="st18" d="M202.6,105V90.3l10.4,16.4h0.8V88.8l1.7-1.7h-5.1l1.7,1.7v12.5l-8.8-14.1h-4.1l1.7,1.7V105l-1.7,1.7h5.1
				L202.6,105z M187.7,105.6c-3.9,0-5.3-4.7-5.3-8.7c0-4.1,1.4-8.7,5.3-8.7c4,0,5.3,4.7,5.3,8.7C193,100.9,191.7,105.6,187.7,105.6
				 M179.9,96.9c0,5,2.8,10.2,7.8,10.2c5,0,7.9-5.2,7.9-10.2c0-5-2.8-10.2-7.9-10.2C182.7,86.6,179.9,91.9,179.9,96.9 M172.1,105.1
				V88.5h3.7l2.1,2.1v-3.6h-13.8v3.6l2.1-2.1h3.7v16.6l-1.5,1.6h5.2L172.1,105.1z M157.8,97.8v6.3c-0.5,0.5-1.4,1.4-3.2,1.4
				c-4.3,0-6.5-4.4-6.5-8.6c0-4.2,2.8-8.6,6.5-8.6c1,0,1.7,0.2,2.4,0.9l2.2,2.1v-3.4c-1.2-0.6-2.3-1.1-4.5-1.1
				c-5.3,0-9.1,4.8-9.1,10.1c0,5.2,3.8,10.1,9.1,10.1c3,0,4.3-0.7,5.4-1.4v-7.7l1.5-1.6h-5.2L157.8,97.8z M129.8,105V90.3l10.4,16.4
				l0.8,0l0-17.9l1.7-1.7h-5.1l1.7,1.7v12.5l-8.8-14.1h-4.1l1.7,1.7V105l-1.7,1.7h5.1L129.8,105z M98.5,96.8h8.2v8.3l-1.6,1.6h5.3
				l-1.6-1.6V88.6l1.6-1.6h-5.3l1.6,1.6v6.7h-8.2v-6.7l1.6-1.6h-5.2l1.5,1.6v16.5l-1.5,1.6h5.2l-1.6-1.6V96.8z M90.2,101.2
				c0-1.9-0.9-3.1-1.8-3.8l-4-2.9c-1.4-1-2.2-2.4-2.2-3.4c0-2.1,1.8-2.8,2.8-2.8c0.6,0,1,0.2,1.3,0.2l1.7,1.9l1.8-2.7L86,87.1
				C85.7,87,85.6,87,85.1,87c-3.4,0-5,2.9-5,4.8c0,1.5,0.8,3.2,2.5,4.5l4,2.9c1.1,0.8,1.4,1.9,1.4,2.9c0,1.7-1,3.5-3.3,3.5
				c-0.5,0-1-0.1-1.4-0.3l-1.9-2.2l-1.7,3.1l3.8,0.7c0,0,0.6,0.1,1.2,0.1C87.1,106.9,90.2,104.9,90.2,101.2 M68.8,91.4l2.7,8.1H66
				L68.8,91.4z M64.1,105.1l1.4-4.1H72l1.4,4.1l-1.5,1.5h5.5l-1.6-1.6l-6.1-18h-1l-6.2,18l-1.6,1.6h4.7L64.1,105.1z M44.6,106.7
				l4.5-14.2l4.3,14.2h1l5.7-18l1.6-1.6H57l1.5,1.5l-4.2,13.5l-4-13.5l1.5-1.5h-5.5l1.6,1.6l0.4,1.3l-3.8,12.2l-4-13.5l1.5-1.5h-5.5
				l1.6,1.6l5.5,18H44.6z"/>
		</g>
		<polygon class="st18" points="115.8,87.1 117.3,88.6 117.3,105.1 115.8,106.7 121.1,106.7 119.5,105.1 119.5,88.6 121.1,87.1 		
			"/>
	</g>
	<polygon class="st18" points="104.4,18.9 104.4,23.9 107.5,23.9 113,46.1 120.8,46.1 124.5,32.2 128,46.1 135.8,46.1 141.6,23.9 
		144.6,23.9 144.6,18.9 133.9,18.9 133.9,23.9 137.4,23.9 133.6,38.3 128.8,18.9 123.9,18.9 118.7,38.5 115,23.9 118.8,23.9 
		118.8,18.9 	"/>
</g>
</svg>
