<?xml version="1.0" encoding="utf-8"?>
<!-- Generator: Adobe Illustrator 27.7.0, SVG Export Plug-In . SVG Version: 6.00 Build 0)  -->
<svg version="1.1" id="Layer_1" xmlns="http://www.w3.org/2000/svg" xmlns:xlink="http://www.w3.org/1999/xlink" x="0px" y="0px"
	 viewBox="0 0 252 126" style="enable-background:new 0 0 252 126;" xml:space="preserve">
<style type="text/css">
	.st0{fill:none;stroke:#000000;stroke-width:0.6055;}
	.st1{fill:#CFB87C;}
	.st2{fill:#FFFFFF;}
</style>
<g>
	<g>
		<path d="M65.7,51.7h1.3v8.5c0,3.2,1.5,4.4,4.1,4.4c2.6,0,4.1-1.2,4.1-4.4v-8.5h1.3v8.8c0,2.8-1.5,5.3-5.3,5.3s-5.3-2.4-5.3-5.3
			L65.7,51.7L65.7,51.7z"/>
		<path d="M78.7,55.5h1.2v1.8h0.1c0.4-1.2,1.8-2,3.1-2c2.8,0,3.7,1.5,3.7,3.9v6.4h-1.2v-6.2c0-1.8-0.6-3-2.5-3
			c-1.9,0-3.1,1.5-3.1,3.4v5.8h-1.2L78.7,55.5L78.7,55.5z"/>
		<path d="M89.1,51.7h1.2v1.9h-1.2V51.7z M89.1,55.5h1.2v9.9h-1.2V55.5z"/>
		<path d="M91.6,55.5h1.3l3.1,8.7h0.1l3.1-8.7h1.3l-3.8,9.9h-1.3L91.6,55.5z"/>
		<path d="M102.3,60.8c0,1.8,1,3.9,3.3,3.9c1.8,0,2.8-1,3.1-2.5h1.2c-0.5,2.2-1.8,3.5-4.3,3.5c-3.1,0-4.5-2.4-4.5-5.3
			c0-2.7,1.3-5.3,4.5-5.3c3.2,0,4.5,2.8,4.4,5.6L102.3,60.8L102.3,60.8L102.3,60.8z M108.7,59.8c-0.1-1.9-1.2-3.5-3.1-3.5
			c-2,0-3.1,1.8-3.3,3.5H108.7z"/>
		<path d="M111.6,55.5h1.1v2.3h0.1c0.7-1.6,2-2.5,3.8-2.4v1.2c-2.2-0.1-3.8,1.5-3.8,3.5v5.3h-1.2L111.6,55.5L111.6,55.5z"/>
		<path d="M123.6,58.4c-0.1-1.5-1.2-2.2-2.5-2.2c-1.1,0-2.4,0.4-2.4,1.8c0,1.1,1.2,1.5,2.1,1.7l1.6,0.4c1.4,0.2,2.8,1,2.8,2.8
			c0,2.2-2.1,3-4,3c-2.3,0-3.9-1.1-4.1-3.5h1.2c0.1,1.6,1.3,2.5,3,2.5c1.2,0,2.7-0.5,2.7-1.9c0-1.2-1.1-1.5-2.2-1.8l-1.5-0.3
			c-1.6-0.4-2.8-1-2.8-2.7c0-2.1,2-2.8,3.8-2.8c2,0,3.5,1,3.7,3.2h-1.2v-0.1H123.6z"/>
		<path d="M127,51.7h1.2v1.9H127V51.7z M127,55.5h1.2v9.9H127V55.5z"/>
		<path d="M132.4,55.5h2v1h-2v6.7c0,0.8,0.1,1.3,1,1.3c0.3,0,0.7,0,1-0.1v1c-0.4,0-0.7,0.1-1.1,0.1c-1.6,0-2.2-0.5-2.2-2.2v-6.7
			h-1.8v-1h1.8v-3h1.2L132.4,55.5C132.4,55.5,132.4,55.5,132.4,55.5z"/>
		<path d="M135.1,55.5h1.3l3.3,8.5l3.1-8.5h1.2l-4.3,11.4c-0.7,1.7-1.1,2.2-2.7,2.2c-0.5,0-0.7,0-0.9-0.1v-1
			c0.3,0.1,0.6,0.1,0.8,0.1c1.1,0,1.3-0.7,1.8-1.5l0.4-1.2L135.1,55.5z"/>
		<path d="M159.5,60.5c0,2.8-1.7,5.3-4.7,5.3s-4.7-2.4-4.7-5.3c0-2.8,1.7-5.3,4.7-5.3S159.5,57.6,159.5,60.5z M151.2,60.5
			c0,2.1,1.2,4.2,3.5,4.2s3.5-2.1,3.5-4.2c0-2.1-1.2-4.2-3.5-4.2S151.2,58.4,151.2,60.5z"/>
		<path d="M165.1,56.5h-2v8.9h-1.2v-8.9h-1.7v-1h1.7v-0.9c0-1.8,0.4-2.9,2.4-2.9c0.3,0,0.7,0,1,0.1v1c-0.3-0.1-0.6-0.1-0.9-0.1
			c-1.3,0-1.3,0.8-1.3,1.9v0.8h2L165.1,56.5C165,56.5,165.1,56.5,165.1,56.5z"/>
		<path d="M181.9,55.9c-0.4-2.1-2.2-3.3-4.2-3.3c-3.7,0-5.2,3-5.2,6.1c0,3,1.5,6.1,5.2,6.1c2.5,0,4.2-2,4.4-4.4h1.3
			c-0.4,3.3-2.5,5.5-5.8,5.5c-4.4,0-6.5-3.4-6.5-7.2c0-3.8,2.2-7.2,6.5-7.2c2.5,0,5.2,1.5,5.5,4.4h-1.3L181.9,55.9L181.9,55.9z"/>
		<path d="M194.1,60.5c0,2.8-1.7,5.3-4.7,5.3s-4.7-2.4-4.7-5.3c0-2.8,1.7-5.3,4.7-5.3C192.5,55.2,194.1,57.6,194.1,60.5z
			 M185.9,60.5c0,2.1,1.2,4.2,3.5,4.2s3.5-2.1,3.5-4.2c0-2.1-1.2-4.2-3.5-4.2S185.9,58.4,185.9,60.5z"/>
		<path d="M195.9,51.7h1.2v13.7h-1.2V51.7z"/>
		<path d="M208.4,60.5c0,2.8-1.7,5.3-4.7,5.3s-4.7-2.4-4.7-5.3c0-2.8,1.7-5.3,4.7-5.3S208.4,57.6,208.4,60.5z M200.2,60.5
			c0,2.1,1.2,4.2,3.5,4.2s3.5-2.1,3.5-4.2c0-2.1-1.2-4.2-3.5-4.2S200.2,58.4,200.2,60.5z"/>
		<path d="M210.2,55.5h1.1v2.3h0.1c0.7-1.6,2-2.5,3.8-2.4v1.2c-2.2-0.1-3.8,1.5-3.8,3.5v5.3h-1.2V55.5z"/>
		<path d="M216.1,58.6c0.1-2.3,1.8-3.3,4.1-3.3c1.8,0,3.7,0.5,3.7,3.2v5.3c0,0.4,0.2,0.7,0.7,0.7c0.1,0,0.3-0.1,0.4-0.1v1
			c-0.2,0.1-0.4,0.1-0.8,0.1c-1.2,0-1.4-0.7-1.4-1.8h-0.1c-0.8,1.3-1.8,2.1-3.6,2.1s-3.3-0.9-3.3-2.9c0-2.8,2.7-2.9,5.3-3.2
			c1-0.1,1.5-0.2,1.5-1.3c0-1.6-1.2-2.1-2.5-2.1c-1.5,0-2.7,0.7-2.7,2.3C217.5,58.6,216.1,58.6,216.1,58.6z M222.7,60L222.7,60
			c-0.2,0.3-0.7,0.4-1,0.4c-2.1,0.4-4.6,0.3-4.6,2.3c0,1.2,1.1,2,2.2,2c1.9,0,3.5-1.2,3.5-3.1L222.7,60L222.7,60z"/>
		<path d="M235.1,65.4H234v-1.8h-0.1c-0.5,1.3-2.1,2.2-3.5,2.2c-3,0-4.5-2.4-4.5-5.3c0-2.8,1.4-5.3,4.5-5.3c1.5,0,3,0.8,3.5,2.2h0.1
			v-5.8h1.2L235.1,65.4L235.1,65.4z M230.4,64.8c2.5,0,3.5-2.2,3.5-4.2c0-2.1-0.9-4.2-3.5-4.2c-2.3,0-3.3,2.2-3.3,4.2
			C227.1,62.6,228.1,64.8,230.4,64.8z"/>
		<path d="M246.2,60.5c0,2.8-1.7,5.3-4.7,5.3s-4.7-2.4-4.7-5.3c0-2.8,1.7-5.3,4.7-5.3C244.7,55.2,246.2,57.6,246.2,60.5z
			 M238.1,60.5c0,2.1,1.2,4.2,3.5,4.2s3.5-2.1,3.5-4.2c0-2.1-1.2-4.2-3.5-4.2C239.3,56.3,238.1,58.4,238.1,60.5z"/>
	</g>
	<line class="st0" x1="89.5" y1="73.6" x2="89.5" y2="80.6"/>
	<line class="st0" x1="143.8" y1="73.7" x2="143.8" y2="80.7"/>
	<line class="st0" x1="169" y1="73.6" x2="169" y2="80.6"/>
	<g>
		<path d="M65.4,74.9h1.5c0.4,0,0.8,0,1.1,0.1c0.2,0.2,0.5,0.4,0.5,0.8c0,0.4-0.2,0.8-0.7,0.9l0,0c0.5,0.1,0.8,0.5,0.8,1
			c0,0.6-0.4,1.2-1.3,1.2h-2v-4H65.4z M66,76.6h1.1c0.7,0,0.9-0.2,0.9-0.7c0-0.6-0.4-0.7-0.9-0.7H66V76.6z M66,78.5h1.3
			c0.4,0,0.8-0.2,0.8-0.8c0-0.5-0.4-0.7-0.9-0.7H66L66,78.5L66,78.5L66,78.5z"/>
		<path d="M70.9,75.8c1,0,1.5,0.7,1.5,1.5c0,0.9-0.5,1.5-1.5,1.5s-1.5-0.7-1.5-1.5S69.9,75.8,70.9,75.8z M70.9,78.6
			c0.5,0,0.9-0.4,0.9-1.2c0-0.7-0.4-1.2-0.9-1.2c-0.5,0-0.9,0.4-0.9,1.2S70.3,78.6,70.9,78.6z"/>
		<path d="M75.6,78.9h-0.4v-0.4l0,0c-0.2,0.4-0.5,0.5-1,0.5c-0.8,0-1-0.4-1-1.1v-2h0.5V78c0,0.4,0.2,0.6,0.6,0.6
			c0.6,0,0.9-0.4,0.9-1v-1.7h0.5L75.6,78.9L75.6,78.9z"/>
		<path d="M76.6,74.9H77V79h-0.5V74.9z"/>
		<path d="M80.7,78.9h-0.4v-0.4l0,0c-0.2,0.3-0.5,0.4-1,0.4c-0.9,0-1.3-0.7-1.3-1.5c0-0.8,0.4-1.5,1.3-1.5c0.3,0,0.8,0.1,1,0.4l0,0
			v-1.5h0.5L80.7,78.9L80.7,78.9L80.7,78.9z M79.4,78.6c0.7,0,0.9-0.6,0.9-1.2s-0.2-1.2-1-1.2c-0.7,0-0.9,0.6-0.9,1.2
			C78.4,78.1,78.7,78.6,79.4,78.6z"/>
		<path d="M84.3,78c-0.1,0.7-0.6,1-1.3,1c-1,0-1.4-0.7-1.4-1.5c0-0.9,0.6-1.5,1.4-1.5c1,0,1.4,1,1.3,1.8h-2.2c0,0.5,0.2,1,0.9,1
			c0.4,0,0.7-0.2,0.8-0.6h0.5V78z M83.8,77.2c0-0.4-0.4-0.8-0.8-0.8c-0.5,0-0.8,0.4-0.8,0.8H83.8z"/>
		<path d="M85,76h0.4v0.7l0,0c0.2-0.4,0.6-0.7,1.1-0.7v0.5c-0.8,0-1.1,0.4-1.1,1.2v1.3H85L85,76L85,76L85,76z"/>
		<path d="M95.8,76.1c-0.1-0.6-0.6-0.9-1.2-0.9c-1,0-1.4,0.8-1.4,1.7c0,1,0.4,1.8,1.4,1.8c0.7,0,1.2-0.5,1.2-1.2h0.6
			c-0.1,1-0.8,1.7-1.8,1.7c-1.3,0-1.9-1-1.9-2.1c0-1.2,0.7-2.2,1.9-2.2c0.8,0,1.5,0.4,1.7,1.3L95.8,76.1L95.8,76.1z"/>
		<path d="M98.4,75.8c1,0,1.5,0.7,1.5,1.5c0,0.9-0.5,1.5-1.5,1.5c-1,0-1.5-0.7-1.5-1.5C97,76.6,97.5,75.8,98.4,75.8z M98.4,78.6
			c0.5,0,0.9-0.4,0.9-1.2c0-0.7-0.4-1.2-0.9-1.2c-0.5,0-0.9,0.4-0.9,1.2S97.9,78.6,98.4,78.6z"/>
		<path d="M100.7,74.9h0.5V79h-0.5V74.9z"/>
		<path d="M103.5,75.8c1,0,1.5,0.7,1.5,1.5c0,0.9-0.5,1.5-1.5,1.5c-1,0-1.5-0.7-1.5-1.5C102.1,76.6,102.6,75.8,103.5,75.8z
			 M103.5,78.6c0.5,0,0.9-0.4,0.9-1.2c0-0.7-0.4-1.2-0.9-1.2c-0.5,0-0.9,0.4-0.9,1.2C102.6,78.2,103,78.6,103.5,78.6z"/>
		<path d="M105.7,76h0.4v0.7l0,0c0.2-0.4,0.6-0.7,1.1-0.7v0.5c-0.8,0-1.1,0.4-1.1,1.2v1.3h-0.5L105.7,76L105.7,76L105.7,76z"/>
		<path d="M110.6,78.9c-0.1,0.1-0.2,0.1-0.3,0.1c-0.2,0-0.4-0.1-0.4-0.4c-0.2,0.3-0.7,0.4-1,0.4c-0.5,0-1-0.2-1-0.8
			c0-0.7,0.5-0.8,1-0.9c0.5-0.1,1-0.1,1-0.4c0-0.4-0.3-0.5-0.7-0.5s-0.7,0.1-0.8,0.6H108c0-0.8,0.6-1,1.3-1c0.5,0,1.1,0.1,1.1,0.8
			v1.5c0,0.2,0,0.3,0.1,0.3c0.1,0,0.1,0,0.1,0L110.6,78.9L110.6,78.9z M109.8,77.4c-0.2,0.1-0.6,0.1-0.9,0.2
			c-0.3,0.1-0.6,0.2-0.6,0.5c0,0.3,0.2,0.4,0.6,0.4c0.7,0,0.9-0.4,0.9-0.7V77.4z"/>
		<path d="M113.9,78.9h-0.5v-0.4l0,0c-0.2,0.3-0.5,0.4-1,0.4c-0.9,0-1.3-0.7-1.3-1.5c0-0.8,0.4-1.5,1.3-1.5c0.3,0,0.8,0.1,1,0.4l0,0
			v-1.5h0.5V78.9z M112.6,78.6c0.7,0,0.9-0.6,0.9-1.2s-0.2-1.2-1-1.2c-0.7,0-0.9,0.6-0.9,1.2C111.6,78.1,111.9,78.6,112.6,78.6z"/>
		<path d="M116.2,75.8c1,0,1.5,0.7,1.5,1.5c0,0.9-0.5,1.5-1.5,1.5c-1,0-1.5-0.7-1.5-1.5S115.3,75.8,116.2,75.8z M116.2,78.6
			c0.5,0,0.9-0.4,0.9-1.2c0-0.7-0.4-1.2-0.9-1.2c-0.5,0-0.9,0.4-0.9,1.2C115.3,78.2,115.7,78.6,116.2,78.6z"/>
		<path d="M122.8,76.1c-0.1-0.6-0.4-0.8-1-0.8c-0.4,0-0.9,0.2-0.9,0.7c0,0.5,0.7,0.6,1.3,0.7c0.7,0.1,1.3,0.4,1.3,1.2
			c0,0.9-0.8,1.2-1.6,1.2c-0.9,0-1.8-0.4-1.8-1.5h0.5c0,0.7,0.6,1,1.2,1c0.5,0,1-0.1,1-0.8c0-0.6-0.7-0.7-1.3-0.8
			c-0.7-0.1-1.3-0.3-1.3-1.1c0-0.8,0.8-1.2,1.5-1.2c0.8,0,1.5,0.4,1.5,1.3h-0.5v0.1H122.8z"/>
		<path d="M124.3,76h0.5v0.4l0,0c0.2-0.3,0.5-0.4,1-0.4c0.9,0,1.3,0.7,1.3,1.5c0,0.8-0.4,1.5-1.3,1.5c-0.3,0-0.8-0.1-1-0.4l0,0v1.5
			h-0.5V76z M125.7,76.3c-0.7,0-0.9,0.6-0.9,1.2c0,0.6,0.2,1.2,1,1.2c0.7,0,0.9-0.6,0.9-1.2C126.6,76.9,126.3,76.3,125.7,76.3z"/>
		<path d="M128,76h0.4v0.7l0,0c0.2-0.4,0.6-0.7,1.1-0.7v0.5c-0.8,0-1.1,0.4-1.1,1.2v1.3h-0.5L128,76L128,76L128,76z"/>
		<path d="M130.6,75.4h-0.5v-0.6h0.5V75.4z M130.1,76h0.5v3h-0.5V76z"/>
		<path d="M131.7,76h0.4v0.4l0,0c0.2-0.4,0.5-0.5,1-0.5c0.8,0,1,0.4,1,1.1v2h-0.5v-2.1c0-0.4-0.2-0.6-0.6-0.6c-0.6,0-0.9,0.4-0.9,1
			V79h-0.5L131.7,76L131.7,76z"/>
		<path d="M137.7,78.7c0,1-0.4,1.5-1.4,1.5c-0.6,0-1.2-0.2-1.2-0.9h0.5c0,0.4,0.4,0.5,0.8,0.5c0.7,0,0.9-0.4,0.9-1.2v-0.2l0,0
			c-0.2,0.4-0.6,0.5-1,0.5c-0.9,0-1.3-0.7-1.3-1.5c0-0.7,0.3-1.6,1.4-1.6c0.4,0,0.7,0.2,0.9,0.5l0,0v-0.4h0.4V78.7L137.7,78.7z
			 M137.2,77.4c0-0.5-0.2-1.1-0.8-1.1c-0.7,0-0.9,0.5-0.9,1.1c0,0.5,0.2,1.2,0.8,1.2S137.2,77.9,137.2,77.4z"/>
		<path d="M138.9,78c0,0.4,0.4,0.6,0.8,0.6c0.3,0,0.7-0.1,0.7-0.4c0-0.4-0.5-0.4-1-0.6c-0.5-0.1-1-0.2-1-0.8c0-0.6,0.6-0.8,1.1-0.8
			c0.7,0,1.2,0.2,1.2,1h-0.5c-0.1-0.4-0.4-0.5-0.7-0.5c-0.4,0-0.7,0.1-0.7,0.4s0.5,0.4,1,0.5s1,0.2,1,0.8c0,0.7-0.7,1-1.3,1
			c-0.7,0-1.2-0.2-1.3-1C138.4,78,138.9,78,138.9,78z"/>
		<path d="M147.3,74.9h1.4c1.3,0,2,0.7,2,2c0,1.4-0.6,2.2-2,2.2h-1.4V74.9z M148,78.5h0.9c0.4,0,1.4-0.1,1.4-1.6
			c0-1-0.4-1.6-1.3-1.6H148L148,78.5L148,78.5L148,78.5z"/>
		<path d="M154.1,78c-0.1,0.7-0.6,1-1.3,1c-1,0-1.4-0.7-1.4-1.5c0-0.9,0.6-1.5,1.4-1.5c1,0,1.4,1,1.3,1.8h-2.2c0,0.5,0.2,1,0.9,1
			c0.4,0,0.7-0.2,0.8-0.6h0.5V78z M153.6,77.2c0-0.4-0.4-0.8-0.8-0.8c-0.5,0-0.8,0.4-0.8,0.8H153.6z"/>
		<path d="M154.9,76h0.4v0.4l0,0c0.2-0.4,0.5-0.5,1-0.5c0.8,0,1,0.4,1,1.1v2h-0.5v-2.1c0-0.4-0.2-0.6-0.6-0.6c-0.6,0-0.9,0.4-0.9,1
			V79h-0.5L154.9,76L154.9,76z"/>
		<path d="M159.7,78.9h-0.5l-1.1-3h0.6l0.8,2.5l0,0l0.8-2.5h0.5L159.7,78.9z"/>
		<path d="M164.1,78c-0.1,0.7-0.6,1-1.3,1c-1,0-1.4-0.7-1.4-1.5c0-0.9,0.6-1.5,1.4-1.5c1,0,1.4,1,1.3,1.8h-2.2c0,0.5,0.2,1,0.9,1
			c0.4,0,0.7-0.2,0.8-0.6h0.5L164.1,78L164.1,78z M163.6,77.2c0-0.4-0.4-0.8-0.8-0.8s-0.8,0.4-0.8,0.8H163.6z"/>
		<path d="M164.8,76h0.4v0.7l0,0c0.2-0.4,0.6-0.7,1.1-0.7v0.5c-0.8,0-1.1,0.4-1.1,1.2v1.3h-0.5L164.8,76L164.8,76L164.8,76z"/>
		<path d="M173.7,74.9h0.6L176,79h-0.6l-0.4-1.2h-1.8l-0.4,1.2h-0.6L173.7,74.9z M173.3,77.2h1.4l-0.7-1.9l0,0L173.3,77.2z"/>
		<path d="M176.5,76h0.4v0.4l0,0c0.2-0.4,0.5-0.5,1-0.5c0.8,0,1,0.4,1,1.1v2h-0.5v-2.1c0-0.4-0.2-0.6-0.6-0.6c-0.6,0-0.9,0.4-0.9,1
			V79h-0.5L176.5,76L176.5,76z"/>
		<path d="M180.2,78c0,0.4,0.4,0.6,0.8,0.6c0.3,0,0.7-0.1,0.7-0.4c0-0.4-0.5-0.4-1-0.6c-0.5-0.1-1-0.2-1-0.8c0-0.6,0.6-0.8,1.1-0.8
			c0.7,0,1.2,0.2,1.2,1h-0.5c-0.1-0.4-0.4-0.5-0.7-0.5s-0.7,0.1-0.7,0.4s0.5,0.4,1,0.5s1,0.2,1,0.8c0,0.7-0.7,1-1.3,1
			c-0.7,0-1.2-0.2-1.3-1C179.7,78,180.2,78,180.2,78z"/>
		<path d="M185.1,76.9c-0.1-0.4-0.3-0.6-0.8-0.6c-0.7,0-0.9,0.6-0.9,1.2c0,0.6,0.2,1.1,0.9,1.1c0.4,0,0.8-0.2,0.8-0.7h0.5
			c-0.1,0.7-0.6,1.2-1.3,1.2c-0.9,0-1.4-0.7-1.4-1.5c0-0.9,0.4-1.6,1.4-1.6c0.7,0,1.2,0.3,1.3,1L185.1,76.9L185.1,76.9z"/>
		<path d="M186.4,74.9h0.5v1.5l0,0c0.2-0.4,0.6-0.5,1-0.5c0.8,0,1,0.4,1,1.1v2h-0.5v-2.1c0-0.4-0.2-0.6-0.6-0.6
			c-0.6,0-0.9,0.4-0.9,1V79h-0.5L186.4,74.9L186.4,74.9z"/>
		<path d="M192.3,78.9h-0.4v-0.4l0,0c-0.2,0.4-0.5,0.5-1,0.5c-0.8,0-1-0.4-1-1.1v-2h0.5V78c0,0.4,0.2,0.6,0.6,0.6
			c0.6,0,0.9-0.4,0.9-1v-1.7h0.5L192.3,78.9L192.3,78.9z"/>
		<path d="M194,76h0.6v0.4H194v1.9c0,0.2,0.1,0.2,0.4,0.2h0.2v0.4h-0.4c-0.5,0-0.7-0.1-0.7-0.7v-1.9H193v-0.4h0.5V75h0.5L194,76
			L194,76L194,76z"/>
		<path d="M195.1,78.6l1.8-2.2h-1.7V76h2.3v0.3l-1.8,2.2h1.9v0.4h-2.5L195.1,78.6C195.2,78.6,195.1,78.6,195.1,78.6z"/>
		<path d="M200.3,74.9h0.8l1.3,3.5l1.3-3.5h0.8V79h-0.5v-3.4l0,0l-1.3,3.4h-0.4l-1.3-3.4l0,0V79h-0.5v-4.1
			C200.5,74.9,200.3,74.9,200.3,74.9z"/>
		<path d="M208,78c-0.1,0.7-0.6,1-1.3,1c-1,0-1.4-0.7-1.4-1.5c0-0.9,0.6-1.5,1.4-1.5c1,0,1.4,1,1.3,1.8h-2.2c0,0.5,0.2,1,0.9,1
			c0.4,0,0.7-0.2,0.8-0.6h0.5L208,78L208,78z M207.5,77.2c0-0.4-0.4-0.8-0.8-0.8c-0.5,0-0.8,0.4-0.8,0.8H207.5z"/>
		<path d="M211.5,78.9H211v-0.4l0,0c-0.2,0.3-0.5,0.4-1,0.4c-0.9,0-1.3-0.7-1.3-1.5c0-0.8,0.4-1.5,1.3-1.5c0.3,0,0.8,0.1,1,0.4l0,0
			v-1.5h0.5V78.9z M210.1,78.6c0.7,0,0.9-0.6,0.9-1.2s-0.2-1.2-1-1.2c-0.7,0-0.9,0.6-0.9,1.2C209.2,78.1,209.5,78.6,210.1,78.6z"/>
		<path d="M213,75.4h-0.5v-0.6h0.5V75.4z M212.5,76h0.5v3h-0.5V76z"/>
		<path d="M216,76.9c-0.1-0.4-0.3-0.6-0.8-0.6c-0.7,0-0.9,0.6-0.9,1.2c0,0.6,0.2,1.1,0.9,1.1c0.4,0,0.8-0.2,0.8-0.7h0.5
			c-0.1,0.7-0.6,1.2-1.3,1.2c-0.9,0-1.4-0.7-1.4-1.5c0-0.9,0.4-1.6,1.4-1.6c0.7,0,1.2,0.3,1.3,1L216,76.9L216,76.9z"/>
		<path d="M219.9,78.9c-0.1,0.1-0.2,0.1-0.3,0.1c-0.2,0-0.4-0.1-0.4-0.4c-0.2,0.3-0.7,0.4-1,0.4c-0.5,0-1-0.2-1-0.8
			c0-0.7,0.5-0.8,1-0.9c0.5-0.1,1-0.1,1-0.4c0-0.4-0.3-0.5-0.7-0.5s-0.7,0.1-0.8,0.6h-0.7c0-0.8,0.6-1,1.3-1c0.5,0,1.1,0.1,1.1,0.8
			v1.5c0,0.2,0,0.3,0.1,0.3c0.1,0,0.1,0,0.1,0v0.4H219.9z M219.2,77.4c-0.2,0.1-0.6,0.1-0.9,0.2c-0.3,0.1-0.6,0.2-0.6,0.5
			c0,0.3,0.2,0.4,0.6,0.4c0.7,0,0.9-0.4,0.9-0.7V77.4z"/>
		<path d="M220.7,74.9h0.5V79h-0.5V74.9z"/>
		<path d="M227,76.1c-0.1-0.6-0.6-0.9-1.2-0.9c-1,0-1.4,0.8-1.4,1.7c0,1,0.4,1.8,1.4,1.8c0.7,0,1.2-0.5,1.2-1.2h0.6
			c-0.1,1-0.8,1.7-1.8,1.7c-1.3,0-1.9-1-1.9-2.1c0-1.2,0.7-2.2,1.9-2.2c0.8,0,1.5,0.4,1.7,1.3L227,76.1L227,76.1z"/>
		<path d="M231.1,78.9c-0.1,0.1-0.2,0.1-0.3,0.1c-0.2,0-0.4-0.1-0.4-0.4c-0.2,0.3-0.7,0.4-1,0.4c-0.5,0-1-0.2-1-0.8
			c0-0.7,0.5-0.8,1-0.9c0.5-0.1,1-0.1,1-0.4c0-0.4-0.3-0.5-0.7-0.5c-0.4,0-0.7,0.1-0.8,0.6h-0.5c0-0.8,0.6-1,1.3-1
			c0.5,0,1.1,0.1,1.1,0.8v1.5c0,0.2,0,0.3,0.1,0.3c0.1,0,0.1,0,0.1,0L231.1,78.9L231.1,78.9z M230.3,77.4c-0.2,0.1-0.6,0.1-0.9,0.2
			c-0.3,0.1-0.6,0.2-0.6,0.5c0,0.3,0.2,0.4,0.6,0.4c0.7,0,0.9-0.4,0.9-0.7V77.4z"/>
		<path d="M231.8,76h0.4v0.4l0,0c0.2-0.3,0.6-0.5,1-0.5s0.7,0.1,0.8,0.5c0.2-0.3,0.6-0.5,1-0.5c0.6,0,1,0.2,1,0.9V79h-0.5v-2
			c0-0.4-0.1-0.7-0.6-0.7c-0.4,0-0.8,0.3-0.8,0.8V79h-0.5v-2c0-0.4-0.1-0.7-0.6-0.7c-0.6,0-0.8,0.5-0.8,0.8V79h-0.5L231.8,76
			L231.8,76z"/>
		<path d="M236.9,76h0.5v0.4l0,0c0.2-0.3,0.5-0.4,1-0.4c0.9,0,1.3,0.7,1.3,1.5c0,0.8-0.4,1.5-1.3,1.5c-0.3,0-0.8-0.1-1-0.4l0,0v1.5
			h-0.5V76z M238.4,76.3c-0.7,0-0.9,0.6-0.9,1.2c0,0.6,0.2,1.2,1,1.2c0.7,0,0.9-0.6,0.9-1.2C239.3,76.9,239,76.3,238.4,76.3z"/>
		<path d="M243.1,78.9h-0.4v-0.4l0,0c-0.2,0.4-0.5,0.5-1,0.5c-0.8,0-1-0.4-1-1.1v-2h0.5V78c0,0.4,0.2,0.6,0.6,0.6
			c0.6,0,0.9-0.4,0.9-1v-1.7h0.5L243.1,78.9L243.1,78.9z"/>
		<path d="M244.3,78c0,0.4,0.4,0.6,0.8,0.6c0.3,0,0.7-0.1,0.7-0.4c0-0.4-0.5-0.4-1-0.6c-0.5-0.1-1-0.2-1-0.8c0-0.6,0.6-0.8,1.1-0.8
			c0.7,0,1.2,0.2,1.2,1h-0.5c-0.1-0.4-0.4-0.5-0.7-0.5s-0.7,0.1-0.7,0.4s0.5,0.4,1,0.5c0.5,0.1,1,0.2,1,0.8c0,0.7-0.7,1-1.3,1
			s-1.2-0.2-1.3-1C243.7,78,244.3,78,244.3,78z"/>
	</g>
	<polygon class="st1" points="12,40 5.7,46.3 5.7,68.1 12,74.4 19,74.4 19,79.7 25.3,86 43.8,86 50.2,79.7 50.2,62.8 53.4,62.8 
		53.4,51.6 40.2,51.6 40.2,46.3 33.9,40 	"/>
	<polygon points="33.6,40.7 39.6,46.6 39.6,52.3 52.7,52.3 52.7,62.2 49.5,62.2 49.5,79.5 43.5,85.4 25.6,85.4 19.6,79.5 19.6,73.7 
		12.3,73.7 6.4,67.8 6.4,46.6 12.3,40.7 	"/>
	<polygon class="st2" points="13,72.1 21.3,72.1 21.3,78.7 26.3,83.7 42.8,83.7 47.8,78.7 47.8,60.6 51.1,60.6 51.1,53.9 41.1,53.9 
		41.1,77.1 27.9,77.1 27.9,72.1 32.9,72.1 37.9,67.1 37.9,60.6 31.3,60.6 31.3,65.4 27.9,65.4 27.9,53.9 17.9,53.9 17.9,60.6 
		21.3,60.6 21.3,65.4 14.7,65.4 14.7,48.9 31.3,48.9 31.3,53.9 37.9,53.9 37.9,47.3 32.9,42.3 13,42.3 8,47.3 8,67.1 	"/>
	<polygon class="st1" points="27.1,71.3 32.6,71.3 37,66.8 37,61.4 32,61.4 32,66.3 27.1,66.3 27.1,54.7 18.8,54.7 18.8,59.7 
		22.1,59.7 22.1,66.3 13.8,66.3 13.8,48.1 32,48.1 32,53.1 37,53.1 37,47.6 32.6,43.1 13.3,43.1 8.8,47.6 8.8,66.8 13.3,71.3 
		22.1,71.3 22.1,78.4 26.6,82.9 42.5,82.9 47.1,78.4 47.1,59.7 50.3,59.7 50.3,54.7 41.9,54.7 41.9,77.9 27.1,77.9 	"/>
</g>
</svg>
