<?xml version="1.0" encoding="utf-8"?>
<!-- Generator: Adobe Illustrator 27.7.0, SVG Export Plug-In . SVG Version: 6.00 Build 0)  -->
<svg version="1.1" id="Layer_1" xmlns="http://www.w3.org/2000/svg" xmlns:xlink="http://www.w3.org/1999/xlink" x="0px" y="0px"
	 viewBox="0 0 252 126" style="enable-background:new 0 0 252 126;" xml:space="preserve">
<style type="text/css">
	.st0{fill-rule:evenodd;clip-rule:evenodd;fill:#003A70;}
</style>
<g>
	<path class="st0" d="M143,118.8h3.7h0v-13.9h0.1l3,13.9h4.1l3-13.9h0.1v13.9h0h3.7v-18h-5.9l-2.8,12.7h-0.1l-2.8-12.7H143V118.8
		L143,118.8z M88.5,112.3c0,4.6,2.9,6.9,7.2,6.9c4.3,0,7.2-2.3,7.2-6.9v-11.5h-1.3h-1.8h-0.4v12c0,1.8-1.5,3.3-3.3,3.3h-0.8
		c-1.8,0-3.3-1.5-3.3-3.3v-12h-0.4H90h-1.5V112.3L88.5,112.3z M106.6,118.8h3.5v-11.8h0.1l7.2,11.8h3.3v-18h-3v12.3h0l-7.3-12.3
		h-3.8V118.8L106.6,118.8z M123.1,118.8h3.9l1.8-4.3h6.5l1.8,4.3h4l-7.2-18h-3.5L123.1,118.8L123.1,118.8z M132,105.1L132,105.1
		l2.4,6.6h-4.7L132,105.1z"/>
	<path class="st0" d="M125.5,72C125.5,72,125.5,72,125.5,72c7.8-2.9,13.3-12.1,13.5-22.3c0-0.1,0-0.2,0-0.2c0,0,0-13.5,0-13.5
		c0-0.1,0-0.1-0.1-0.1h-26.8c-0.1,0-0.1,0-0.1,0.1v13.5c0,0.1,0,0.1,0,0.2C112.2,60,117.8,69.1,125.5,72L125.5,72z M162.9,69.2
		c0.2,0.1,0.4,0.2,0.7,0.4l0,0c0-0.1-0.1-0.2-0.2-0.2C163.2,69.3,163.1,69.2,162.9,69.2L162.9,69.2L162.9,69.2z M162.5,70.6
		c-0.1,0-0.1-0.1-0.2-0.1C162.4,70.5,162.5,70.6,162.5,70.6L162.5,70.6z M144.6,62.2c-0.3,0-0.5,0.2-0.5,0.5c0,0.3,0.2,0.5,0.5,0.5
		c0.3,0,0.5-0.2,0.5-0.5C145.1,62.4,144.9,62.2,144.6,62.2L144.6,62.2z M143.6,62.9c0-0.3-0.2-0.5-0.5-0.5c-0.3,0-0.5,0.2-0.5,0.5
		c0,0.3,0.2,0.5,0.5,0.5C143.4,63.4,143.6,63.2,143.6,62.9L143.6,62.9z M142.2,63.1c0-0.3-0.2-0.5-0.5-0.5c-0.3,0-0.5,0.2-0.5,0.5
		c0,0.3,0.2,0.5,0.5,0.5C142,63.6,142.2,63.4,142.2,63.1L142.2,63.1z M147.3,70.8l-0.2-2.8c-0.6-0.3-1,0.1-1,0.1l0.1,2.1
		c-1,0.9-1.5,0.1-1.5,0.1l-0.1-2.1c-0.8-0.4-1,0.1-1,0.1l0.2,2.7C145.9,72.6,147.3,70.8,147.3,70.8L147.3,70.8z M145.2,69.8
		l-0.1-0.9c0-0.2,0.1-0.3,0.3-0.3c0.2,0,0.3,0.1,0.3,0.3l0.1,0.9c0,0.2-0.1,0.3-0.3,0.3C145.3,70,145.2,69.9,145.2,69.8L145.2,69.8z
		 M143.3,71.4l-0.2-2.7c-0.6-0.3-0.9,0.1-0.9,0.1l0.1,2c-0.9,0.8-1.4,0.1-1.4,0.1l-0.1-2c-0.8-0.4-1,0.1-1,0.1l0.2,2.6
		C142,73.1,143.3,71.4,143.3,71.4L143.3,71.4z M141.5,69.3c0.1,0,0.3,0.1,0.3,0.3l0,0.9c0,0.1-0.1,0.3-0.3,0.3
		c-0.1,0-0.3-0.1-0.3-0.3l0-0.9C141.3,69.4,141.4,69.3,141.5,69.3L141.5,69.3z M137.4,71c0,0,0.4,0.5,0.3-0.4
		c-0.1-0.8-0.1-0.8-0.1-0.8s0.2-0.3,0.4,0.1l0,1.1c0,0,0.2,0.2,0.5,0l-0.1-1.5c0,0,0.2-0.6,0.8-0.2l0.1,2.4c0,0-0.9,1.7-2.8,0.3
		l-0.1-1.4c0,0,0.1-0.7,0.8-0.2L137.4,71L137.4,71z M143.2,59.8c0.3,1.2,0.1,1.2-0.2,1.2c-0.3,0-0.6-1.7-1-0.6
		c-0.3,0.7-0.7,1.7,0.1,1.6c0.8-0.1,2.8,0.1,2.2-1.5C143.7,58.8,143,58.5,143.2,59.8L143.2,59.8z M145.1,64.8c0,0,0.3-0.2,0.2-0.7
		c-0.1-0.4-1.4-0.2-1.4-0.2l-3,0.2c0,0-0.4,0.6-0.2,0.8C140.6,64.9,144.8,65,145.1,64.8L145.1,64.8z M142.4,67.4
		c0,1.2-0.7,0.5-0.6-0.1c0.1-0.6,0-0.7-0.4-0.8c-0.3-0.1-0.1,0.4,0,1c0,0.6-0.5,0.5-0.5,0c0-0.4,0-1-0.3-1c-0.3,0,0,1.5-0.4,1.5
		c-0.4,0-0.3-1.2-0.2-2.1c0-0.8,1.3-0.8,1.3-0.8C142.1,65.2,142.3,66.2,142.4,67.4L142.4,67.4z M143.6,66.5c-0.3,0,0,1.4-0.4,1.4
		c-0.3,0-0.3-1.1-0.2-1.9c0-0.8,1.2-0.7,1.2-0.7c0.9,0,1.1,0.9,1.1,2c0,1.1-0.6,0.4-0.6-0.1c0.1-0.6,0-0.6-0.3-0.7
		c-0.3-0.1-0.1,0.4,0,1c0,0.6-0.5,0.4-0.5,0C143.9,67,143.9,66.5,143.6,66.5L143.6,66.5z M149.3,38.5V37c0-0.2-0.3-0.2-0.3-0.1
		c0,0.3,0,0.6,0,0.9l0,0.7C149.1,38.7,149.3,38.7,149.3,38.5L149.3,38.5z M149.1,34.4c0,0.1,0,0.3,0,0.4c0,0.2,0,0.3,0.1,0.4
		c0.1,0,0.2-0.1,0.2-0.3c0-0.2,0-0.4,0-0.6C149.4,34,149.1,34.1,149.1,34.4L149.1,34.4z M151.4,38.4v-1.7c0-0.2-0.3-0.3-0.3-0.2
		c0,0.4,0,0.7,0,1.1l0,0.8C151.1,38.7,151.4,38.7,151.4,38.4L151.4,38.4z M153.6,38.6v-2c0-0.3-0.3-0.3-0.3-0.2c0,0.4,0,0.8,0,1.3
		l0,0.9C153.3,38.9,153.6,38.9,153.6,38.6L153.6,38.6z M151.1,33.7c0,0.2,0,0.3,0,0.4c0,0.2,0,0.4,0.1,0.4c0.1,0,0.2-0.2,0.2-0.3
		c0-0.2,0-0.5,0-0.7C151.4,33.3,151.1,33.4,151.1,33.7L151.1,33.7z M153.2,33c0,0.2,0,0.4,0,0.6c0,0.3,0,0.4,0.1,0.5
		c0.1,0,0.2-0.2,0.2-0.4c0-0.3,0-0.6,0-0.9C153.5,32.5,153.1,32.6,153.2,33L153.2,33z M155.3,32.1c0,0.2,0.1,0.5,0.1,0.7
		c0,0.3,0,0.5,0.1,0.6c0.2-0.1,0.3-0.2,0.2-0.5c0-0.3,0-0.7,0-1C155.7,31.5,155.3,31.7,155.3,32.1L155.3,32.1z M156,38.6l0-2.2
		c0-0.3-0.4-0.4-0.4-0.2c0,0.5,0.1,0.9,0,1.4l0,1.1C155.6,39,156,39,156,38.6L156,38.6z M158.5,38.8v-2.5c0-0.4-0.4-0.4-0.4-0.2
		c0,0.5,0,1.1,0,1.7l0,1.2C158.2,39.1,158.5,39.1,158.5,38.8L158.5,38.8z M158,30.8c0,0.3,0.1,0.6,0.1,0.8c0,0.4,0,0.6,0.2,0.7
		c0.2-0.1,0.3-0.4,0.3-0.7c-0.1-0.3,0-0.9,0-1.3C158.5,29.9,158,30.3,158,30.8L158,30.8z M146.2,39.8c-0.4-0.4-0.9,0.2-0.9,0.5
		l0.2,1.6c0,0,0.3,0.2,0.6-0.1C146.2,41.6,146.4,40.1,146.2,39.8L146.2,39.8z M144.2,47h0.2l0.8-2.3l-0.5,0l0-0.1
		c-0.1-0.1-0.4-0.1-0.4,0V47L144.2,47z M144.2,40.1c-0.2,0.1-0.2,0.2-0.2,0.5v0.3l0.2,1.4c0,0.3,0.9,0.2,0.9-0.3v-1.7l-0.1-0.1
		c-0.1-0.1-0.1-0.2-0.2-0.2h-0.5l-0.1,0.1L144.2,40.1L144.2,40.1z M144.3,43.9C144.2,43.9,144.2,43.9,144.3,43.9l-0.1-0.8
		c0-0.3,0.3-0.5,1-0.5c0.8,0,0.3,1,0.3,1.1L144.3,43.9L144.3,43.9z M145.1,33.7c-0.5-0.6-0.8-0.8-1-0.6l-0.1,0v2l0.1,0.1
		c0.2,0.2,0.4,0.1,0.6-0.1l0.1-0.2h0.2l0.3,0.2c0.1,0.1,0.7,0.2,0.2-0.7C145.4,34.1,145.2,33.9,145.1,33.7L145.1,33.7z M149.2,39.9
		c-0.4-0.2-0.6-0.5-0.7-1l-0.2-1.1c0-0.4,0-0.6,0-1c0-0.3,0.5-0.3,0.5,0l0,1.9c0,0.3,0.6,0.3,0.6,0l0-1.8c0-0.2,0-0.3,0.2-0.4
		c0.1-0.1,0.2,0,0.3,0c0.1,0.2,0,0.7,0,2.2C149.9,39.6,149.8,39.9,149.2,39.9L149.2,39.9z M148,42.3c0.7,1.5-0.5,4.4-0.4,5.8
		c0,0.1,0.1,0.1,0.2,0.1c1.1-0.7,1.7-2.8,1.6-6.2h-0.2c0,0.5-0.2,0.8-0.3,1c-0.1-0.3-0.3-0.5-0.4-0.7L148,42.3L148,42.3z
		 M151.6,35.5c-0.5,0.1-0.8,0-0.9-0.3c-0.1-0.3-0.2-0.3-0.2-0.6c0-0.5,0-0.9,0.3-1c0.1,0,0.2,0.1,0.2,0.4c0,0.2,0,0.3,0,0.3
		c0,0.3,0.1,0.8,0.5,0.4c0.1-0.1,0.1-0.3,0.1-0.5l0-0.5c0-0.1,0-0.3,0.1-0.5c0.2-0.2,0.4-0.1,0.5,0c0.2,0.3,0.1,0.8,0.1,1.3
		C152.3,34.9,152.2,35.4,151.6,35.5L151.6,35.5z M149.5,35.8c-0.3,0.1-0.7,0-0.8-0.2c-0.1-0.2-0.3-0.4-0.3-0.7c0-0.4,0-0.5,0.1-0.6
		c0.1-0.1,0.3,0,0.4,0.1c0,0.1,0,0.3,0,0.4l0,0.2c0,0.4,0.3,0.5,0.5,0.3c0.1-0.1,0.1-0.2,0.2-0.4l0-0.5c0-0.1,0-0.2,0.1-0.4
		c0.2-0.2,0.4-0.1,0.4,0c0.2,0.3,0.2,0.6,0.1,0.9C150.1,35.2,150.1,35.7,149.5,35.8L149.5,35.8z M153.6,35c-0.5,0.1-0.8,0-1-0.3
		c-0.1-0.3-0.1-0.5-0.2-0.8c0-0.6,0-1,0.3-1.1c0.1,0,0.1,0.1,0.2,0.4c0,0.2,0,0.3,0,0.3l0.1,0.3c0,0.6,0.2,0.7,0.6,0.4
		c0.1-0.1,0.1-0.4,0.2-0.6l0-0.6c0-0.1,0-0.4,0-0.6c0.3-0.2,0.4-0.1,0.5,0.1c0.1,0.5,0.1,0.9,0.1,1.4
		C154.2,34.3,154.3,34.8,153.6,35L153.6,35z M151.1,39.9c-0.5-0.2-0.7-0.5-0.7-0.9l-0.1-1.5c0-0.5,0-0.7,0-1.1
		c0-0.3,0.5-0.3,0.5,0.1l0,2.3c0,0.4,0.7,0.5,0.7,0.1l0-2.1c0-0.3,0-0.4,0.2-0.5c0.1-0.1,0.2,0,0.3,0c0.2,0.2,0,0.9,0,2.5
		C152.1,39.9,151.8,40.2,151.1,39.9L151.1,39.9z M155.5,34.8c-0.5,0.1-0.5-0.1-0.7-0.4c-0.1-0.4-0.2-0.8-0.2-1.2
		c0-0.7,0-1.2,0.3-1.3c0.1,0,0.1,0.1,0.2,0.5c0,0.3,0,0.3,0,0.4l0.1,0.4c0.1,0.7,0.2,0.9,0.6,0.5c0.1-0.2,0.1-0.4,0.2-0.8l0-0.7
		c0-0.2,0-0.4,0-0.8c0.3-0.3,0.4-0.1,0.5,0.1c0.2,0.5,0.2,1.3,0.1,1.9C156.4,33.8,156.2,34.6,155.5,34.8L155.5,34.8z M153.2,40.5
		c-0.5-0.2-0.8-0.5-0.8-1l0.1-1.9c0-0.6,0-0.9,0-1.3c0-0.4,0.5-0.4,0.5,0l0,2.7c0,0.5,0.7,0.5,0.7,0.1l0-2.5c0-0.3,0-0.5,0.2-0.6
		c0.1-0.1,0.2,0,0.3,0c0.1,0.3,0,1,0,3C154.2,40.2,153.9,40.7,153.2,40.5L153.2,40.5z M155.6,40.7c-0.6-0.2-1-0.9-1-1.4l0.1-1.7
		c0-0.7,0.1-1,0.2-1.5c0-0.4,0.6-0.4,0.6,0l0,3c0,0.5,0.9,0.6,0.9,0.1l0-2.8c0-0.3,0-0.5,0.2-0.7c0.1-0.1,0.2,0,0.4,0
		c0.2,0.3,0,1,0,3.2C156.7,40.4,156.2,40.8,155.6,40.7L155.6,40.7z M144.4,39.6c-0.4-0.7-0.4-2.9-0.3-2.9h0.7c0,0.3,0.1,0.5,0.1,0.6
		l0.1,0.6c0,0.1,0.2,0.2,0.4,0.3c0,0,0.1,0,0.1-0.1v-1.4c0-0.1,0.1-0.1,0.3-0.2c0.1-0.1,0.3-0.1,0.4-0.1c0.4,0.6,0.4,2.2,0.4,2.3
		c-0.3,0.7-1.5,0.9-1.7,0.9H144.4L144.4,39.6z M158.1,41.2c-0.6-0.2-1-0.6-1-1.3l0.1-2.4c0-0.8,0-1.1,0-1.7c0-0.5,0.7-0.5,0.6,0
		l0.1,3.5c0,0.6,0.9,0.7,0.9,0.1l0.1-3.2c0-0.4,0-0.6,0.2-0.8c0.1-0.1,0.3,0,0.4,0c0.2,0.4,0,1.3,0,3.9
		C159.4,40.8,158.9,41.5,158.1,41.2L158.1,41.2z M158.7,34.4c-0.7,0.4-1.3,0-1.5-0.4c-0.2-0.4-0.3-1.1-0.3-1.7c-0.1-1.2,0-1.7,0.6-2
		c0.1,0,0.2,0.1,0.2,0.6c0,0.3,0,0.6,0,0.7l0.1,0.5c0.1,0.8,0.2,1,0.8,0.3c0.2-0.2,0.2-0.6,0.2-1l0-0.9c0-0.2,0-0.5,0.1-0.9
		c0.2-0.5,0.5-0.5,0.6-0.4c0.3,0.5,0.1,1.5,0.1,2.3C159.5,32.3,159.6,33.8,158.7,34.4L158.7,34.4z M157.9,54.3v-3.5
		c0-0.3,0-2.3,0.2-5.8c0.1-1.8-0.1-2.6-0.4-2.6h-0.3l-0.1,2.3c0,0.1,0,0.5-0.1,1.5l0.1,2.2l-0.4,1.2l-0.1,1.4
		c-0.1,0.9-0.1,1.4-0.1,1.4l0,3.1l0.1,0.4c0.1,0.3,0.1,0.6,0.1,0.8v2.1l-0.4,3l0,0c0.6,0.6,1.7-2.1,2.2-3.9
		c0.8-3.5,1.2-14.9,0.8-15.4c-0.1-0.2-0.5-0.1-1,0.2c0.2,0.5,0.2,2.4,0.1,5.7C158.4,51.7,158.2,53.7,157.9,54.3L157.9,54.3
		L157.9,54.3z M161.5,34c0.9-0.2,1.5-1.2,1.5-2c0.1-0.9,0.2-2.2,0.1-3.1c-0.2-0.4-0.4-0.6-0.9-0.3c-0.1,0.5-0.1,0.9-0.1,1.2l0,1.2
		c-0.1,0.5-0.1,1-0.3,1.2c-0.8,0.5-1,0.1-1-0.9l-0.1-0.6c0-0.1,0-0.2,0-0.6c0-0.6-0.1-0.8-0.3-0.8c-0.6,0.2-0.6,0.9-0.6,2
		c0,0.7,0.2,1.4,0.4,2C160.6,33.8,160.6,34.1,161.5,34L161.5,34z M161.6,42c0.5,0,1.7-0.6,1.7-2.5v-4.1c0-0.7-1.1-0.4-1.1,0.1V40
		c0,0.3-0.6,0.8-1.1,0.4c-0.3-0.4-0.3-0.9-0.2-1.4l0.1-3c0-1.3-1.1-1-1.1-0.3l0,2.7C159.8,40.8,160.3,41.9,161.6,42L161.6,42z
		 M148.2,51.7c-0.3,0.1-0.5,0.1-0.6,0c-0.1-0.1,0.1-0.5,0.5-1.4c0.8-2.1,1.3-4.1,1.6-6c0.2-1.4,0.3-2.3,0.3-2.5
		c0.2-0.1,0.4,0,0.6,0.1c0.2,0.2,0.6,0.1,1-0.2c0.6,0.4,0.2,4.8-1.1,7.3C149.6,50.6,148.9,51.5,148.2,51.7L148.2,51.7z M155.5,49.9
		v-0.3c0.1,0,0.2-0.1,0.2-0.2l-0.1-1.9l0.5-2.9v-0.8c0-0.1-0.1-0.6-0.3-1.5c0.4-0.4,0.8-0.5,1.1-0.3c0.1,0.1,0.5,7.2-1.8,12.3
		c-1.1,2.6-1.9,3.8-2.5,3.6c-0.1-0.1,0-0.6,0.3-1.6c0.8-2.4,1.3-5.2,1.4-8.3c0-1.1,0.1-1.9,0.2-2.4c0.2-1.5,0.3-2.3,0.3-2.3V42
		l0.1-0.1c0,0,0,0,0.1,0l0-0.1c0.3-0.3,0.5-0.1,0.8,0.6c0.2,0.6,0.2,1.6-0.2,3.2c-0.1,0.6-0.2,1.5-0.2,2.7v1.6H155.5L155.5,49.9z
		 M147.8,42.3c-1.4,4.4-2.1,7.1-2.1,7.2c-0.5,1.9-0.6,3.3-0.2,4.2h0.4c0.3-0.7,1.9-0.7,2.1,0.7c0.5,3.1-4.2,2.7-4.5-0.3
		c-0.2-1.6,0.1-3.4,0.6-4.8l1.5-4.2c1-2.8,1.5-5,1.5-6.6c-0.1-3-1.1-5.1-3-6.3c-0.3-0.1-0.3-0.5-0.1-1.2c0,0,0.1,0,0.1-0.1
		c0.8,0,1.7,0.7,2.8,2.2c0.6,0.8,1.2,4.7,1.3,6.5L147.8,42.3L147.8,42.3z M152.5,47.5h0.2c0.5-1.5,0.8-2.7,0.8-3.4V42
		c0-0.1,0.6-0.5,0.8-0.4c0.1,0.1,0.2,0.5,0.2,1.3c0,2-0.4,4.3-1.1,6.9c-0.4,1.2-1,2.5-2,4.1l-0.6,1c-0.4,0.6-1.8,1.1-0.8-0.8
		l0.6-1.1c1.1-2.5,1.7-5.7,1.7-9.6c0-1.1,0.1-1.6,0.2-1.6h0.2c0.2,0,0.3,0.3,0.2,1L152.5,47.5L152.5,47.5z M157.8,68.4
		c-0.1,0,0.2-1.2,0.7-3.5c0.4-1.6,0.6-3.6,0.8-5.8c0.1-1.3,0.2-2.4,0.3-3.5c0.6-6.1,0.7-10.4,0.2-12.9c0.1,0,0.2,0,0.2-0.1
		c0.1,0,0.2,0,0.3,0c0.5,0.3,0.7,0.5,0.7,0.5v1.9l0.1,0.1c0.2,0.2,0.2,0.3,0.2,0.3l-0.2,1.2c0,0.1,0,0.8-0.1,2.4
		c-0.1,3.4-0.3,5.8-0.6,7.1c-0.1,0.2-0.2,1-0.5,2.3c0,0,0.1,0,0.1,0l0,0h0.2c0,0,0.1,0,0.1-0.1l0.1-1.1c0-0.2,0.2-0.9,0.5-2.2
		c0.1-0.5,0.2-0.9,0.3-1.1c0.6-2.9,0.5-9.1,0.2-10.3c0-0.1,0-0.3,0-0.4c0.3-0.2,0.6-0.4,0.8-0.6l0.3-0.4l0.5,0
		c0.8,1.3,0.5,9.2-1,14.7l-0.3,1.1l-0.2,1.1c-0.8,4.9-2,8.1-3.5,9.4H157.8L157.8,68.4z M144.6,57L144.6,57L144.6,57L144.6,57
		L144.6,57z M145.1,57.9l-0.3-0.7h0.3v-0.1h2l1.1,0.8c1.6,1.2,2.5,1.7,2.7,1.6l0.6-0.3l0.6-0.1l0.6-0.1c1,0,2.3,1.1,2,1.5
		c-0.1,0.1-0.6,0.1-1.6-0.2c-0.1,0-0.1,0.1-0.1,0.3c1,0.8,1.4,1.4,1.1,2c-0.1,0.3-0.4,0.3-1-0.1c-0.7-0.6-1.4-0.8-1.9-0.6
		c-1.3,0.4-1.4,1.9-0.1,4.4c-0.1,0-0.2,0-0.2,0.1c-2.3,0-3.1-1.5-2.4-4.6c-1.2-1.1-2.1-2.1-2.8-2.9L145.1,57.9L145.1,57.9z
		 M162.3,27.5c0.1,0.6-0.5,0.7-1,0.8l-1.1,0.1c-0.6,0.1-2.3,0.9-5.1,2.6c-2.8,1.7-4.9,2.5-6.3,2.5c0-0.1-0.1-0.3-0.2-0.7
		c2-0.5,3.7-1.3,5-2.4c1.9-1,1.9-1.2,2.9-1.8c1.7-0.9,2.4-1.8,2.4-2.2c0.1-0.6-1-2.4-2.3-2.1l-0.4,0l1.7,1.2c0.2,0.1,0,0.4-0.3,0.2
		l-1.6-1c-0.2-0.3-0.5,0.1-0.2,0.2l1.5,1c0.4,0.3,0.1,0.6-0.3,0.4l-1.5-1c-0.2-0.2-0.4,0.1-0.2,0.3l1.3,1c0.4,0.3,0.1,0.7-0.3,0.4
		l-1.3-1c-0.2-0.2-0.5,0.1-0.3,0.3l1.2,0.9c0.3,0.3,0,0.6-0.3,0.4l-1.2-0.9c-0.3-0.1-0.5,0.1-0.2,0.3l0.9,0.8c0.4,0.3,0,0.7-0.3,0.3
		l-0.8-0.8c-0.3-0.2-0.5,0.1-0.3,0.3c0.3,0.3,0.5,0.5,0.8,0.8c0.3,0.3-0.1,0.6-0.4,0.2c-0.2-0.2-0.5-0.4-0.8-0.6
		c-0.3-0.3-0.6,0.1-0.3,0.4c0.2,0.2,0.5,0.3,0.7,0.7c0.3,0.3,0,0.5-0.2,0.3c-0.2-0.3-0.5-0.6-0.8-0.8c-0.3-0.2-0.5,0.1-0.3,0.3
		c0.2,0.2,0.3,0.4,0.6,0.8c0.3,0.3-0.1,0.5-0.3,0.3c-0.3-0.3-0.4-0.5-0.7-0.7c-0.3-0.3-0.6,0-0.4,0.3c0.2,0.3,0.3,0.4,0.5,0.7
		c0.2,0.3-0.2,0.6-0.4,0.3c-0.2-0.3-0.3-0.5-0.5-0.7c-0.2-0.3-0.6-0.1-0.4,0.2c0.1,0.2,0.3,0.4,0.5,0.8c0.2,0.2-0.2,0.5-0.4,0.2
		c-0.2-0.2-0.3-0.4-0.5-0.6c-0.2-0.3-0.5,0-0.3,0.2c0.1,0.3,0.2,0.5,0.4,0.8c0,0.3-0.2,0.5-0.4,0.1c-0.2-0.3-0.2-0.4-0.4-0.7
		c-0.1-0.3-0.5-0.1-0.4,0.2l0.4,0.7c0.1,0.2-0.2,0.4-0.3,0.2l-0.4-0.6c-0.2-0.3-0.5,0-0.3,0.3c0.2,0.3,0.2,0.5,0.2,0.6
		c0,0.2-0.2,0.3-0.4,0c-0.3-0.3-0.4-0.5-0.8-1c3-1.8,3.9-2.7,4.5-3.5c0.8-1.1,1.4-2.3,0.4-3.2c-1.4-1.3-2.9,0.7-0.5,1.5
		c-0.1,0.6-0.5,1.2-0.8,1.6c-1.6,1.6-2.9,2.5-4.6,3c-0.4-0.2-0.6-0.3-0.6-0.5V30c0.8-0.8,2.1-1.6,3.2-2.3c0.3-0.2,1.1-0.6,0.6-1.3
		c-0.5-0.7-1.4-1.2-1.2-2.1c0.2-0.8,1.4-1.1,2.2-1.2c2.3-0.5,4.9,0,6.9,0.1c1.4,0.2,2.2,1.2,2.7,1.5c0.4,0.3,1.2,1,1.5,1.6
		C162.3,26.6,162.5,27.2,162.3,27.5L162.3,27.5z M162,72.4c-0.2,0-0.3,0.1-0.3,0.3c0,0.2,0.1,0.3,0.3,0.3c0.2,0,0.3-0.1,0.3-0.3
		C162.3,72.5,162.2,72.4,162,72.4L162,72.4z M160.8,74.3c-0.1,0-0.3,0.1-0.3,0.3c0,0.1,0.1,0.3,0.3,0.3c0.1,0,0.3-0.1,0.3-0.3
		C161,74.4,160.9,74.3,160.8,74.3L160.8,74.3z M161.8,39.4c0,0.5-0.4,0.5-0.5,0.2l0-1.6c0.1-0.8,0-1.4,0-2.1c0-0.3,0.5-0.2,0.5,0.3
		V39.4L161.8,39.4z M161.2,29.7c0-0.6,0.6-0.8,0.7-0.3c0.1,0.5-0.1,1.2,0,1.6c0.1,0.5-0.1,0.7-0.4,0.7c-0.2-0.2-0.2-0.5-0.2-1
		C161.3,30.4,161.2,30,161.2,29.7L161.2,29.7z M114.2,18.5c-0.4,0-0.7,0.3-0.7,0.7c0,0.4,0.3,0.7,0.7,0.7c0.4,0,0.7-0.3,0.7-0.7
		C114.9,18.8,114.6,18.5,114.2,18.5L114.2,18.5z M116.4,23.5c0,0-0.4,0.1-0.4,0.7c0.1,0.5,0.2,0.9,0.9,0.8c0.7-0.1,0.2-1.3,0.1-1.5
		C116.9,23.4,116.4,23.5,116.4,23.5L116.4,23.5z M119,25.7c0,0.6,0,1.1,0.6,1c0.5-0.1,0.7-0.4,0.6-1.1C120,24.6,119,25.1,119,25.7
		L119,25.7z M119.5,26.2L119.5,26.2c0-0.1,0-0.4,0-0.5c0,0,0,0,0.1-0.1c0,0,0.1-0.1,0.1-0.1c0,0,0,0,0,0.1
		C119.7,26.1,119.7,26.2,119.5,26.2L119.5,26.2z M118.8,24.1c-0.1-0.5,0.9-1.1,1.1-0.3c0.1,0.6,0.1,0.8-0.5,1.1
		C118.8,25.2,118.9,24.6,118.8,24.1L118.8,24.1z M119.4,24.3c0,0,0-0.1,0-0.4c0,0-0.1,0.1-0.1,0.1C119.3,24.1,119.3,24.2,119.4,24.3
		C119.4,24.3,119.4,24.3,119.4,24.3L119.4,24.3L119.4,24.3z M118.6,21.6c0,0-0.4,0.3-0.3,1c0.2,0.7,0.6,0.7,0.9,0.6
		c0.3-0.2,0.5-0.3,0.3-1C119.3,21.5,118.9,21.2,118.6,21.6L118.6,21.6z M118.9,22L118.9,22C118.9,22,118.9,22,118.9,22
		C118.9,22,118.9,22,118.9,22C118.9,22,118.9,22,118.9,22L118.9,22z M119.1,22.7L119.1,22.7C119.1,22.7,119,22.7,119.1,22.7
		c-0.1,0.1-0.1,0.1-0.1,0.1c0,0-0.1-0.1-0.1-0.3c-0.1-0.3,0-0.4,0.1-0.4c0,0.1,0.1,0.2,0.1,0.3C119.1,22.5,119.1,22.6,119.1,22.7
		L119.1,22.7z M118,26.1c0,0-0.5,0.1-0.5,0.5c0,0.4-0.2,1.1,0.3,1c0.6-0.1,1.1-0.2,0.9-1C118.7,25.8,118.4,26,118,26.1L118,26.1z
		 M118.3,26.9L118.3,26.9c0,0.1-0.2,0.1-0.3,0.1c0,0,0-0.1,0-0.1c0-0.1,0-0.2,0-0.3c0,0,0.1,0,0.1-0.1c0,0,0.1,0,0.1,0
		c0,0,0,0.1,0,0.1C118.4,26.8,118.3,26.9,118.3,26.9L118.3,26.9z M117.5,24.9c0.1-0.9,1.1-0.7,1.2,0.2c0,0.7-0.3,0.8-0.8,0.8
		C117.3,25.9,117.5,24.9,117.5,24.9L117.5,24.9z M118.2,25.3c0,0,0-0.1,0-0.2c0-0.2-0.1-0.2-0.1-0.3c0,0,0,0,0,0c0,0,0,0-0.1,0.1
		c0,0,0,0,0,0c0,0.1,0,0.3,0,0.4C118.1,25.4,118.1,25.3,118.2,25.3L118.2,25.3L118.2,25.3z M117.5,22.8c0.3-0.1,0.6-0.4,0.8,0.2
		c0.2,0.6,0.3,1-0.2,1.2c-0.6,0.2-0.7-0.5-0.9-0.9C117.1,22.9,117.5,22.8,117.5,22.8L117.5,22.8z M117.9,23.7
		C117.9,23.7,117.9,23.7,117.9,23.7c0.1-0.1,0-0.4-0.1-0.5c0,0,0,0,0,0c0,0,0,0-0.1,0l-0.1,0C117.8,23.6,117.9,23.7,117.9,23.7
		C117.9,23.7,117.9,23.7,117.9,23.7L117.9,23.7L117.9,23.7z M116.4,26.8c0.5-0.4,1,0,0.8,0.6c-0.2,0.6-0.6,0.5-1,0.3
		C115.8,27.6,116.4,26.8,116.4,26.8L116.4,26.8z M116.8,27.3c0-0.1,0-0.1,0-0.1c0,0,0,0,0,0c-0.1,0.1-0.1,0.1-0.1,0.2
		c0,0,0.1,0,0.1,0C116.7,27.4,116.7,27.4,116.8,27.3L116.8,27.3L116.8,27.3z M116.4,25.2c0.3-0.2,0.9,0,0.9,0.4
		c0.1,0.5,0,0.9-0.6,0.9c-0.6,0-0.5-0.4-0.6-0.7C116.2,25.5,116.4,25.2,116.4,25.2L116.4,25.2z M116.9,26c0,0,0-0.1,0-0.3
		c0,0,0,0-0.1-0.1c0,0-0.1,0-0.1,0c0,0,0,0.1,0,0.1c0,0.1,0,0.1,0,0.1c0,0,0,0.1,0,0.1c0,0,0,0,0,0C116.8,26.1,116.8,26,116.9,26
		L116.9,26L116.9,26z M116.7,24.5L116.7,24.5c0,0,0-0.1-0.1-0.3c0-0.1,0-0.1,0-0.1c0,0,0.1,0,0.1,0c0.1,0.2,0.1,0.4,0.1,0.5
		C116.7,24.5,116.7,24.5,116.7,24.5L116.7,24.5z M107.8,22.7c0-0.1,0-0.2-0.2-0.4c-0.1-0.2-0.1-0.4,0-0.5l0.7-0.6
		c0.1-0.1,0.6-2.1,0.3-2.3c-0.1,0-2.2,0.6-2.5,2.1C105.8,22.7,107.7,22.8,107.8,22.7L107.8,22.7z M106.8,21.5v-0.6
		c0-0.1,0.9-1.3,1.1-0.8c0.1,0.3,0,0.6-0.3,0.9C107.2,21.3,106.9,21.5,106.8,21.5L106.8,21.5z M118.9,28.3h0.2
		c0.1,0,0.2,0.1,0.2,0.2v0.2H119c-0.1,0-0.1,0-0.1-0.1V28.3L118.9,28.3z M119.1,28.8h0.2c0.2,0,0.7,1.3,0.5,1.4
		C119.4,30.3,118.8,28.8,119.1,28.8L119.1,28.8z M120.5,28.7c0.1,0.2,0.3,0.4,0.4,0.7c0.2,0.4,0.3,0.7,0.3,0.7l0.2,0
		c0-0.1,0-0.3-0.1-0.5c0-0.1-0.1-0.1-0.1-0.3c-0.1-0.3-0.2-0.5-0.4-0.7c-0.2-0.6-0.5-1.3-0.7-1.3C119.8,27.5,120.3,28.3,120.5,28.7
		L120.5,28.7z M117.8,29.1h0.2l0.3,0.8v0.5H118C117.9,30.1,117.8,29.7,117.8,29.1L117.8,29.1z M116.2,29.1c0-0.1,0.3-0.2,0.3-0.1
		c0,0.4,0,0.8-0.1,1.2c-0.1,0.3-0.5,0.3-0.5,0.2C115.9,29.9,116,29.4,116.2,29.1L116.2,29.1z M114.4,29c0.1-0.1,0.5-0.1,0.4,0
		c-0.1,0.4-0.4,1-0.7,1.1c-0.3,0.1-0.4,0-0.3-0.3C113.8,29.8,114,29.3,114.4,29L114.4,29z M112.9,28.4c0.5,0.2-0.4,0.8-0.6,1
		l-0.2,0.3c-0.2,0.3-0.6,0.5-0.8,0.3c-0.2-0.1-0.2-0.4,0-0.5c0.3-0.1,0.5-0.4,0.7-0.6C112.5,28.7,112.6,28.4,112.9,28.4L112.9,28.4z
		 M114.5,16.7h0.5l0.3,0.1c0.4,0.1,0.6,0.3,0.6,0.3l0.1,1l0.6,0.7c0.2,0.3,0.4,0.5,0.4,0.8c0,0.3,0,0.5,0,0.5l-0.7,1l-0.7,1
		l-0.8,0.9L115,24c0.2,0.9,0.3,1.4,0.3,1.6v1.5c0,0.2-0.7,0.4-0.7,0l0-1.3c0-0.3-0.1-0.7-0.2-1.3l-0.8-1c-0.1-0.1,0-0.3,0.2-0.6
		c0.3-0.6,0.3-1.1,0.1-1.5l-0.6-1.1c-0.6-1.1-0.9-1.9-0.9-2.6c0.3-0.2,0.5-0.3,0.7-0.3l0.8-0.1L114.5,16.7L114.5,16.7z M109.8,20.4
		h0.6c0.5,0,0.8,0.2,0.9,0.5c0.2,0.4-0.1,0.9-0.9,1.7c0.7,0.2,1.1,0.3,1.2,0.2c0.2-0.1,0.8-0.8,0.5-1.2l-0.6-0.8
		c-0.1-0.2-0.4-0.8-0.8-1.9C110,18.7,109.2,20.1,109.8,20.4L109.8,20.4z M113.8,28.7c0.1-0.1,0.1-0.1,0.2-0.2c0.2-0.3,0-0.6-0.6-0.8
		c-0.3-0.1-1.5,0.7-3.5,2.3c-0.2,0.1-0.1,0.2,0,0.2c1.1,0.5,1.8,0.6,2,0.4l0.6-0.7C113,29.4,113.6,28.9,113.8,28.7L113.8,28.7z
		 M115.6,28.7c0.1-0.1,0-0.3-0.1-0.3c-0.6-0.1-1-0.4-1.1-0.2c-0.2,0.2-0.3,0.4-0.4,0.5c-0.1,0.2-0.3,0.4-0.6,0.8
		c-0.4,0.4-0.8,0.8-0.6,0.8c0.6,0.2,1,0.5,1.4,0.5C114.2,30.8,114.8,29.9,115.6,28.7L115.6,28.7z M115.8,28.9
		c-0.1,0.2-0.2,0.3-0.3,0.7c-0.3,0.5-0.4,0.9-0.5,1c0.1,0.3,1.1,0.2,1.7,0.2c0.3,0,0.5-0.7,0.4-2c0.1-0.2,0-0.4-0.2-0.4l-0.8,0
		C115.9,28.5,115.9,28.7,115.8,28.9L115.8,28.9z M117.3,28.7l0.1,0.6l0.1,1.1c0,0.2,0,0.4,0.2,0.5c0.6,0.1,0.9-0.1,1.1-0.4
		c0.1-0.2,0.1-0.4,0-0.7c-0.1-0.1-0.4-1.1-0.5-1.1C118.1,27.8,117.2,28.2,117.3,28.7L117.3,28.7z M118.7,29.1
		c-0.2-0.4-0.3-0.6-0.3-1.1c-0.1-0.3,0.4-0.6,0.8-0.5c0.2,0,0.4,0.9,0.6,1.3c0.3,0.8,1,1.8,0.7,1.9c-0.8,0.3-1.1,0-1.4-0.6
		L118.7,29.1L118.7,29.1z M119.9,28.7l-0.2-0.3c-0.4-0.9-0.4-1.4,0.1-1.6c0,0,0,0,0,0l0.1,0c0.4,0.1,0.7,0.2,0.8,0.4l0.4,0.9
		l0.7,1.4c0.3,0.5,0.4,0.8,0.4,1c-0.4,0.3-0.8,0.4-1.4,0.4C120.6,30.2,120.2,29.4,119.9,28.7L119.9,28.7z M117.3,21.5
		c0,0.1,0.1,0.2,0.2,0.4c0,0.1,0.1,0.1,0.1,0.2c0,0.2-0.1,0.3-0.3,0.5l-0.2,0.2H117c0-0.3-0.1-0.5-0.3-0.5h-0.2
		c-0.1,0-0.3,0.2-0.6,0.6c-0.2,0.3-0.2,0.6-0.2,0.9l0.4,3.6c0,0.4-0.1,0.5-0.5,0.5h-1.1c-0.3,0-0.5-0.2-0.5-0.5l0-1.4
		c0.2-0.7,0.1-1.1-0.1-1.4l-1-1c-0.1-0.1,0-0.5,0.3-1.3c0.1-0.4,0.2-0.7,0.1-0.7l-0.6-1l-0.4-1.1c-0.4-1-0.6-1.8-0.6-2.4
		c0.4-0.3,0.6-0.4,0.8-0.4l1-0.2l0.8-0.6c0.3-0.2,2.2,0.5,2.3,0.9l0.3,1.4l0.8,1.1l0.8,1.1c0.1,0.2,0,0.6-0.5,1.2h-0.3
		c0-0.1,0-0.2-0.2-0.2L117.3,21.5L117.3,21.5z M111.3,23.4c-0.6,0-1.6-0.2-3-0.7v-0.3c0.5-0.3,1.1-0.6,2-0.9v-0.4
		c0-0.1,0-0.1-0.2-0.1H109c-0.2,0-0.2-0.3-0.2-0.8c0.1-1.4,1.8-2.4,2.3-2.3c0.2,0.5,0.4,0.9,0.5,1.2l0.5,1.2l0.7,1.1
		c0.2,0.3-0.2,2-0.9,2H111.3L111.3,23.4z M127.9,28.7C127.9,28.7,127.8,28.7,127.9,28.7c-0.1,0-0.1,0.1-0.1,0.1c0,0,0.2,2,2.4,2
		c2,0,3.8-1.6,4.2-2c0.3,0.4,1.3,2,2.3,1.9c0.4,0,0.7-0.4,1-1c0.3,0.3,1.1,1,2.1,1c0.8-0.1,1.6-0.6,2.2-1.7c0,0,0-0.1,0-0.1
		c0,0-0.1,0-0.1,0c0,0-1.9,0.6-3.1-0.3c-0.6-0.5-1-1.3-1-2.4c0-1.7,0.1-2.7,0.3-3.3c0.6,0.3,1.2,0.5,1.9,0.5c2.1,0,2.5-1.2,2.5-1.3
		c0,0,0-0.1,0-0.1c0,0-0.1,0-0.1,0c-0.7,0.1-1.2,0-1.5,0c1-0.3,1.7-0.3,2,0c0.4,0.3,0.3,0.9,0.3,0.9c0,0,0,0.1,0.1,0.1
		c0,0,0.1,0,0.1,0c0.8-0.8,1-1.5,0.8-2.1c-0.3-1-2-1.4-3.5-1.7c-2.2-0.5-3-2.8-3-2.8c0,0,0-0.1-0.1-0.1c0,0-0.1,0-0.1,0
		c-0.5,0.3-0.9,0.6-1.2,1l-1.5-1.6c0,0,0,0-0.1,0c0,0-0.1,0-0.1,0c0,0-0.6,0.8-0.3,1.9c-0.3-0.3-0.7-0.8-0.7-1.4c0,0,0-0.1-0.1-0.1
		c0,0-0.1,0-0.1,0c0,0-1.5,1.4,0,3.5c-0.3,0.1-1.5,0.5-3.8-0.2c0,0-0.1,0-0.1,0c0,0,0,0,0,0.1c0,0-0.2,0.8,0.3,1.4
		c0.4,0.6,1.2,0.9,2.3,0.9c-0.4,0.3-1.4,0.8-3.4,0.2c0,0-0.1,0-0.1,0c0,0,0,0.1,0,0.1c0,0,0.6,2.5,3.7,2c-0.6,0.5-2.4,1.9-4.7,1.2
		c0,0-0.1,0-0.1,0c0,0,0,0,0,0.1c0,0.1,0,1.4,1.1,2c0.9,0.5,2.2,0.2,4-0.8C132.8,27.3,131.8,29,127.9,28.7L127.9,28.7z M134.4,29.1
		c0.1,0,0.2,0.1,0.2,0.2c0.1,0.2,0.8,1.2,1,1.5c0,0,0,0.1,0,0.1c0,0-0.1,0.1-0.1,0.1h-3.2c-0.1,0-0.1,0-0.1-0.1c0-0.1,0-0.1,0.1-0.1
		c0.2,0,1-0.8,1.3-1.2l0.2-0.2C134.1,29.2,134.3,29,134.4,29.1L134.4,29.1z M134,30.3L134,30.3c0.1-0.1,0.2-0.2,0.2-0.2l0.1-0.1
		c0.1,0.1,0.1,0.2,0.2,0.3H134L134,30.3z M133.2,22L133.2,22c0.1-0.2,0.1-0.4,0.1-0.5c-0.1-0.2-0.3-0.3-0.5-0.3
		c-1,0-1.7-0.3-2.1-0.7c-0.1-0.1-0.2-0.2-0.2-0.4c2.5,0.6,3.5,0,3.7-0.1c0.1-0.1,0.2-0.2,0.2-0.3c0-0.1,0-0.3-0.1-0.4
		c-0.6-0.8-0.7-1.5-0.6-1.9c0.3,0.5,0.8,0.9,0.8,0.9c0.2,0.2,0.4,0.2,0.6,0c0.2-0.1,0.3-0.4,0.2-0.6c-0.2-0.4-0.2-0.7-0.2-1.1l1,1.2
		c0,0.1-0.1,0.2-0.1,0.3c-0.2,0.7,0.1,1.2,0.2,1.4c-1.7,1.1-1.8,2.1-1.7,2.6c-0.2,0.3-0.9,1.2-2.1,1.5c-1.3,0.1-2-0.3-2.4-0.7
		C132.3,23.1,133.2,22,133.2,22L133.2,22z M137.6,17L137.6,17c0.2,0.3,0.4,0.7,0.7,1.1l-0.8,0.1l-0.5-0.6
		C137.1,17.4,137.3,17.2,137.6,17L137.6,17z M143.7,21.6L143.7,21.6c-0.1-0.1-0.1-0.2-0.2-0.2c-0.6-0.5-1.5-0.5-2.9,0
		c-0.2,0.1-0.3,0.2-0.3,0.5c0,0.2,0.1,0.4,0.3,0.5c0,0,0.3,0.1,0.8,0.2c-0.3,0.1-0.7,0.2-1.2,0.2c-0.6,0-1.2-0.2-1.7-0.5
		c0.2-0.3,0.4-0.5,0.7-0.7c0.1-0.1,0.2-0.1,0.3-0.2c0.5-0.4,0.9-1.1,1.2-1.7c0.1,0,0.1,0,0.2,0c0.8,0.2,2.8,0.6,3,1.3
		C143.8,21.2,143.8,21.4,143.7,21.6L143.7,21.6z M140.7,29.6L140.7,29.6c-0.3,0.3-0.6,0.4-1,0.5c-0.9,0.1-1.7-0.9-1.7-0.9
		c-0.1-0.1-0.2-0.1-0.3-0.2c-0.1-0.3-0.3-0.7-0.4-1.3c0.1,0,0.1,0,0.2,0c0.2,0.5,0.5,1,1,1.3C139.2,29.5,140,29.6,140.7,29.6
		L140.7,29.6z M136.7,18.3L136.7,18.3l0.4,0.4c0.1,0.1,0.2,0.2,0.4,0.2c0,0,0.3,0,0.7,0c-0.1,0.2-0.2,0.4-0.3,0.5
		c-0.3,0.2-0.6,0.1-0.9,0c0,0,0-0.1,0-0.1C136.9,19.2,136.6,18.8,136.7,18.3L136.7,18.3z M139.1,20.9L139.1,20.9
		c-0.1,0.1-0.2,0.1-0.3,0.2c-0.4,0.3-0.7,0.5-0.9,0.9c-0.1-0.1-0.2-0.1-0.3-0.2c0.2-0.4,0.7-0.8,1.2-1c0.7-0.3,0.7-1,0.7-1.5
		c0.1,0.1,0.3,0.2,0.4,0.2C139.8,20,139.4,20.6,139.1,20.9L139.1,20.9z M135.1,28.4L135.1,28.4c-0.1-0.1-0.4-0.3-0.3-1.5
		c0.4-0.2,0.7-0.6,1-0.9c-0.1,0.6,0.1,1,0.4,1.3c0.1,0.1,0.1,0.1,0.2,0.2C135.9,28,135.4,28.6,135.1,28.4L135.1,28.4z M135,24.5
		L135,24.5C135,24.5,135,24.5,135,24.5c0,0,0.6-0.2,1-0.6c0,0.2,0,0.3,0.1,0.5c-0.8,1.5-1.6,2-2,2.1C134,26.3,134.4,25.4,135,24.5
		L135,24.5z M137.3,27L137.3,27c-0.3,0.1-0.6,0-0.7-0.1c-0.4-0.4-0.2-1.4,0-2c0.2,0,0.4-0.1,0.6-0.2c0,0.4,0,0.9,0,1.5
		C137.3,26.4,137.3,26.7,137.3,27L137.3,27z M136.7,19.9L136.7,19.9c0.4,0.1,0.9,0.2,1.3,0c0.3-0.1,0.6-0.4,0.7-1.1c0,0,0.1,0,0.1,0
		l0,0.2l0,0c0,0,0.2,0.9-0.3,1.2c-0.6,0.3-1.1,0.7-1.4,1.2c-0.2-0.2-0.3-0.3-0.3-0.3c-0.1-0.2-0.4-0.2-0.6-0.2
		c-0.2,0.1-0.3,0.2-0.3,0.4c0,0-0.2,0.2-0.8,0.4C135.3,21.3,135.6,20.7,136.7,19.9C136.7,19.9,136.7,19.9,136.7,19.9L136.7,19.9z
		 M136.8,28.1L136.8,28.1c0.1,0.4,0.3,0.8,0.4,1.1c0,0,0,0.1-0.1,0.1c-0.1,0.5-0.3,0.7-0.5,0.8c-0.3,0-0.8-0.5-1.3-1.1
		C135.9,28.8,136.4,28.6,136.8,28.1L136.8,28.1z M136.7,24.1L136.7,24.1c-0.1-0.3-0.2-1-0.1-1.6c0,0,0-0.1-0.1-0.1c0,0-0.1,0-0.1,0
		c0,0-0.6,0.6-1.1,1c-0.1-0.1-0.2-0.5-0.2-1.1c0,0,0,0,0-0.1c1-0.2,1.3-0.5,1.4-0.7c0.2,0.2,0.6,0.6,1.1,0.9
		c-0.1,0.3-0.2,0.8-0.3,1.3C137.2,23.9,137,24,136.7,24.1L136.7,24.1z M133.4,24.3L133.4,24.3c0.1-0.1,0.1-0.2,0.1-0.4
		c0.2-0.1,0.5-0.3,0.9-0.6c0,0.2,0.1,0.4,0.2,0.6c-0.5,0.9-1.1,1.6-1.4,2c-0.1,0-0.1,0-0.2,0.1c-1.6,1-2.8,1.3-3.6,0.9
		c-0.3-0.2-0.5-0.5-0.6-0.8C131.5,26.4,133.3,24.4,133.4,24.3L133.4,24.3z M133.5,27.1L133.5,27.1c0.2,0.1,0.4,0.1,0.6,0.1
		c0,0.2,0.1,0.6,0.2,1c-0.1,0-0.1,0.1-0.2,0.1c0,0-1.9,1.9-3.9,1.9c-1,0-1.4-0.4-1.6-0.9C131.9,29.4,133.1,27.9,133.5,27.1
		L133.5,27.1z M150.2,10.5l-0.9,4.9l0.6,0.1l0.5-3l0.1,0l-0.3,3l0.3,0.1l0.8-2.9l0.1,0l-0.6,2.9l0.6,0.1l0.9-4.9l-0.7-0.1l-0.7,2.2
		l-0.1,0l0.2-2.3L150.2,10.5L150.2,10.5z M133.2,8.2l0.4,0l0.5-0.6l-0.6,0L133.2,8.2L133.2,8.2z M116.4,8.5l0.3,5l0.7,0l-0.3-5
		L116.4,8.5L116.4,8.5z M123.5,8.2v5h1.1v-0.5h-0.4V8.2H123.5L123.5,8.2z M131.1,8.2l0,0.5l0.3,0l-0.2,4.4l0.7,0l0.2-4.4l0.3,0
		l0-0.5L131.1,8.2L131.1,8.2z M101.4,10.4l0.8,4.9l0.7-0.1l-0.8-4.9L101.4,10.4L101.4,10.4z M127.4,8.1l-0.4,5l0.7,0l0.1-1.1l0.3,0
		l0,1.1l0.7,0l-0.3-5L127.4,8.1L127.4,8.1z M127.9,8.9L127.9,8.9l0.1,2.6l-0.2,0L127.9,8.9L127.9,8.9z M121.8,8.2l-0.2,5l0.7,0
		l0-1.1l0.3,0l0.1,1.1l0.7,0l-0.5-5L121.8,8.2L121.8,8.2z M122.3,8.9L122.3,8.9l0.2,2.6l-0.2,0L122.3,8.9L122.3,8.9z M134.2,9.3
		c0-0.4,0-0.7-0.1-0.8c-0.1-0.1-0.3-0.2-0.6-0.2c-0.3,0-0.5,0-0.7,0.1c-0.1,0.1-0.2,0.4-0.2,0.8l-0.2,3.1c0,0.4,0,0.7,0.1,0.8
		c0.1,0.1,0.3,0.2,0.7,0.2c0.3,0,0.5,0,0.6-0.1c0.1-0.1,0.2-0.4,0.2-0.8L134.2,9.3L134.2,9.3z M133.6,9l-0.2,3.6c0,0.1,0,0.1,0,0.1
		c0,0,0,0-0.1,0c0,0-0.1,0-0.1,0c0,0,0-0.1,0-0.1l0.2-3.6c0-0.1,0-0.1,0-0.1c0,0,0.1,0,0.1,0c0,0,0.1,0,0.1,0
		C133.6,8.9,133.6,8.9,133.6,9L133.6,9z M129.2,8.1l-0.2,4.1c0,0.4,0,0.7,0.1,0.8c0.1,0.1,0.3,0.2,0.7,0.2c0.3,0,0.5,0,0.6-0.1
		c0.1-0.1,0.2-0.4,0.2-0.8l0.2-4.1l-0.7,0l-0.2,4.3c0,0.1,0,0.1,0,0.1c0,0-0.1,0-0.1,0c0,0-0.1,0-0.1,0c0,0,0-0.1,0-0.1l0.2-4.3
		L129.2,8.1L129.2,8.1z M119,9.2l0.3,3.1c0,0.4,0,0.7-0.1,0.8c-0.1,0.1-0.3,0.2-0.6,0.2c-0.3,0-0.6,0-0.7-0.1
		c-0.1-0.1-0.2-0.4-0.2-0.8l-0.2-3.1c0-0.4,0-0.7,0.1-0.8c0.1-0.1,0.3-0.2,0.6-0.2c0.3,0,0.5,0,0.6,0.1C118.9,8.5,118.9,8.7,119,9.2
		L119,9.2z M118.3,9c0-0.1,0-0.1,0-0.1c0,0,0,0-0.1,0c0,0-0.1,0-0.1,0c0,0,0,0.1,0,0.1l0.3,3.6c0,0.1,0,0.1,0,0.1c0,0,0.1,0,0.1,0
		c0,0,0.1,0,0.1-0.1c0,0,0-0.1,0-0.1L118.3,9L118.3,9z M116.1,9.4l0.1,0.8l-0.7,0.1l-0.1-1c0-0.1,0-0.1,0-0.1c0,0-0.1,0-0.1,0
		c0,0-0.1,0-0.1,0.1c0,0,0,0.1,0,0.1l0.4,3.6c0,0.1,0,0.1,0,0.1c0,0,0.1,0,0.1,0c0,0,0.1,0,0.1,0c0,0,0-0.1,0-0.1l-0.1-1.4l0.7-0.1
		l0.1,1.2c0,0.4,0,0.7-0.1,0.8c-0.1,0.1-0.3,0.2-0.6,0.2c-0.3,0-0.6,0-0.7-0.1c-0.1-0.1-0.2-0.4-0.2-0.8l-0.3-3.1
		c0-0.4,0-0.7,0.1-0.8c0.1-0.1,0.3-0.2,0.6-0.2c0.3,0,0.5,0,0.6,0.1C116,8.7,116.1,9,116.1,9.4L116.1,9.4z M119.4,8.3l0.3,5l0.6,0
		l-0.2-2.6l0.1,0l0.6,2.6l0.6,0l-0.3-5l-0.6,0l0.2,2.4l0,0l-0.6-2.4L119.4,8.3L119.4,8.3z M112.8,8.8l0.2,5l0.7-0.1l-0.1-1.1l0.3,0
		l0.2,1.1l0.7-0.1l-0.9-4.9L112.8,8.8L112.8,8.8z M113.3,9.5L113.3,9.5l0.4,2.5l-0.2,0L113.3,9.5L113.3,9.5z M134.8,8.4l-0.4,5
		l0.6,0.1l0.2-2.6l0.1,0l0.2,2.7l0.6,0l0.4-5l-0.6,0l-0.2,2.4h0l-0.2-2.5L134.8,8.4L134.8,8.4z M110.8,9l0.6,0l0.6,2.4l0,0l-0.2-2.4
		l0.6-0.1l0.4,5l-0.6,0l-0.6-2.6l-0.1,0l0.2,2.6l-0.6,0L110.8,9L110.8,9z M93.2,12.4l1.5,4.8l0.6-0.2l-1.5-4.8L93.2,12.4L93.2,12.4z
		 M96.2,11.6l1.1,4.9l1.1-0.2l-0.1-0.5l-0.4,0.1l-0.4-1.9l0.4-0.1l-0.1-0.5l-0.4,0.1l-0.3-1.4l0.4-0.1l-0.1-0.5L96.2,11.6L96.2,11.6
		z M104.4,9.9l0.4,5l0.7-0.1l-0.1-1.1l0.3-0.1l0.2,1.1l0.7-0.1l-1.2-4.8L104.4,9.9L104.4,9.9z M105,10.6L105,10.6l0.5,2.5l-0.2,0
		L105,10.6L105,10.6z M101.3,11.4l0.1,0.8l-0.7,0.1l-0.2-1c0-0.1,0-0.1-0.1-0.1c0,0-0.1,0-0.1,0c0,0-0.1,0-0.1,0.1c0,0,0,0.1,0,0.1
		l0.2,1c0,0.1,0,0.1,0.1,0.2c0,0,0.1,0.1,0.2,0.1l0.5,0.2c0.1,0.1,0.2,0.1,0.3,0.2c0.1,0.1,0.1,0.2,0.1,0.4l0.2,1.1
		c0.1,0.4,0.1,0.7,0,0.8c-0.1,0.1-0.3,0.2-0.6,0.3c-0.3,0.1-0.5,0-0.6,0c-0.1-0.1-0.2-0.3-0.3-0.8l-0.2-1.2l0.7-0.1l0.3,1.4
		c0,0.1,0,0.1,0,0.1c0,0,0.1,0,0.1,0c0,0,0.1,0,0.1-0.1c0,0,0-0.1,0-0.1l-0.2-1.3c0-0.1,0-0.1-0.1-0.2c0,0-0.1-0.1-0.2-0.1l-0.5-0.2
		c-0.1,0-0.2-0.1-0.3-0.2c-0.1-0.1-0.1-0.2-0.1-0.4l-0.2-0.8c-0.1-0.4-0.1-0.7,0-0.8c0.1-0.1,0.3-0.2,0.6-0.3c0.3-0.1,0.5,0,0.7,0
		C101.1,10.7,101.2,11,101.3,11.4L101.3,11.4z M102.3,10.3l0.9-0.1c0.3,0,0.5,0,0.6,0.1c0.1,0.1,0.2,0.4,0.3,0.8l0.5,2.9
		c0.1,0.4,0.1,0.7,0,0.8c-0.1,0.1-0.2,0.2-0.5,0.3l-0.9,0.1L102.3,10.3L102.3,10.3z M103.1,10.7l0.6,3.9l0.1,0c0.1,0,0.1,0,0.1-0.1
		c0,0,0-0.1,0-0.2l0,0l-0.5-3.3c0-0.1,0-0.2-0.1-0.2C103.3,10.7,103.2,10.7,103.1,10.7L103.1,10.7L103.1,10.7z M94.2,12.1l0.7-0.2
		l0.9,3.3l0,0l-0.6-3.4l0.6-0.1l0.7,4.9l-0.8,0.2L94.2,12.1L94.2,12.1z M106,9.7l0.9-0.2c0.3-0.1,0.4,0,0.6,0.1
		c0.1,0.1,0.2,0.4,0.3,0.8l0.5,2.9c0.1,0.4,0.1,0.7,0,0.9c-0.1,0.1-0.2,0.2-0.5,0.2l-0.9,0.2L106,9.7L106,9.7z M106.8,10.1l0.7,3.9
		l0.1,0c0.1,0,0.1,0,0.1-0.1c0,0,0-0.1,0-0.2l0,0l-0.6-3.3c0-0.1,0-0.2-0.1-0.2C107,10.1,106.9,10.1,106.8,10.1L106.8,10.1
		L106.8,10.1z M97.5,11.3l0.9-0.2c0.3-0.1,0.5,0,0.6,0c0.1,0.1,0.2,0.3,0.3,0.8l0.2,0.7c0.1,0.2,0.1,0.3,0,0.5
		c0,0.1-0.1,0.2-0.2,0.3c0.1,0,0.2,0.1,0.3,0.2c0.1,0.1,0.1,0.2,0.2,0.4l0.4,1.7l-0.7,0.2l-0.5-2c0-0.1,0-0.1-0.1-0.1
		c0,0-0.1,0-0.1,0l-0.1,0l0.5,2.1l-0.6,0.2L97.5,11.3L97.5,11.3z M98.3,11.6L98.3,11.6c0.1,0,0.2,0,0.2,0c0,0,0.1,0.1,0.1,0.2
		l0.3,1.2c0,0.1,0,0.1,0,0.1c0,0-0.1,0.1-0.1,0.1c0,0,0,0,0,0c0,0,0,0,0,0L98.3,11.6L98.3,11.6z M89.1,13.5l1.4,3.8
		c0.2,0.4,0.3,0.6,0.4,0.7c0.1,0.1,0.4,0,0.7-0.1c0.3-0.1,0.5-0.2,0.5-0.4c0.1-0.1,0-0.4-0.1-0.8L90.6,13L90,13.2l1.5,4
		c0,0.1,0,0.1,0,0.1c0,0,0,0.1-0.1,0.1c0,0-0.1,0-0.1,0c0,0-0.1-0.1-0.1-0.1l-1.5-4.1L89.1,13.5L89.1,13.5z M91.2,13l0.6-0.2
		l1.1,2.2l0,0l-0.7-2.3l0.6-0.2l1.5,4.8l-0.5,0.2L92.4,15l0,0l0.8,2.5l-0.6,0.2L91.2,13L91.2,13z M138.4,9.6c0-0.4,0-0.7-0.1-0.8
		c-0.1-0.1-0.3-0.2-0.6-0.2c-0.3,0-0.5,0-0.7,0.1c-0.1,0.1-0.2,0.3-0.2,0.8l-0.3,3.1c0,0.4,0,0.7,0.1,0.8c0.1,0.1,0.3,0.2,0.6,0.2
		c0.3,0,0.5,0,0.6-0.1c0.1-0.1,0.2-0.4,0.2-0.8L138.4,9.6L138.4,9.6z M137.7,9.3l-0.3,3.6c0,0.1,0,0.1,0,0.1c0,0,0,0-0.1,0
		c0,0-0.1,0-0.1,0c0,0,0-0.1,0-0.1l0.3-3.6c0-0.1,0-0.1,0-0.1c0,0,0.1,0,0.1,0c0,0,0.1,0,0.1,0C137.7,9.2,137.7,9.2,137.7,9.3
		L137.7,9.3z M142,9.1l-1.1,4.9l0.7,0.1l0.2-1.1l0.3,0l-0.1,1.1l0.7,0.1l0.4-5L142,9.1L142,9.1z M142.3,9.9L142.3,9.9l-0.3,2.6
		l-0.2,0L142.3,9.9L142.3,9.9z M145.8,9.7l-0.7,4.9l0.9,0.1c0.3,0,0.5,0,0.6-0.1c0.1-0.1,0.2-0.4,0.3-0.8l0.4-3
		c0.1-0.4,0.1-0.7,0-0.8c-0.1-0.1-0.2-0.2-0.5-0.2L145.8,9.7L145.8,9.7z M146.3,10.4l0.3,0.1c0.1,0,0,0,0,0c0,0,0.1,0.1,0.1,0.2
		l-0.5,3.3l0,0c0,0.1-0.1,0.2-0.1,0.2c0,0,0,0-0.1,0l-0.3-0.1l0.2-1.7l0.3,0l0.1-0.7l-0.3,0L146.3,10.4L146.3,10.4z M139,8.7
		l0.7,0.1l0,2.3l0.1,0l0.5-2.2L141,9l-0.6,4.9l-0.6-0.1l0.4-3l-0.1,0l-0.6,3l-0.3,0l0.1-3l-0.1,0l-0.3,3l-0.6-0.1L139,8.7L139,8.7z
		 M153.1,11l0.4,0.1l0.6-0.5l-0.6-0.1L153.1,11L153.1,11z M156.3,11.9l-1.3,4.8l0.6,0.2L157,12L156.3,11.9L156.3,11.9z M152.7,11
		l1.1,0.2l-0.1,0.5l-0.4-0.1l-0.3,1.5l0.4,0.1l-0.1,0.5l-0.4-0.1l-0.4,1.9l0.4,0.1l-0.1,0.5l-1.1-0.2L152.7,11L152.7,11z
		 M158.6,13.4l-0.2,0.7l-0.6-0.2l0.3-1c0-0.1,0-0.1,0-0.1c0,0,0-0.1-0.1-0.1c0,0-0.1,0-0.1,0c0,0-0.1,0.1-0.1,0.1l-1,3.5
		c0,0.1,0,0.1,0,0.1c0,0,0,0.1,0.1,0.1c0,0,0.1,0,0.1,0c0,0,0-0.1,0.1-0.1l0.4-1.4l0.6,0.2l-0.3,1.2c-0.1,0.4-0.2,0.7-0.4,0.7
		c-0.1,0.1-0.3,0.1-0.6,0c-0.3-0.1-0.5-0.2-0.6-0.3c-0.1-0.1,0-0.4,0.1-0.8l0.8-3c0.1-0.4,0.2-0.7,0.4-0.7c0.1-0.1,0.4-0.1,0.7,0
		c0.3,0.1,0.5,0.2,0.6,0.3C158.8,12.7,158.8,13,158.6,13.4L158.6,13.4z M160.6,14c0.1-0.4,0.2-0.7,0.1-0.8c-0.1-0.1-0.2-0.2-0.6-0.3
		c-0.3-0.1-0.5-0.1-0.7-0.1c-0.1,0.1-0.3,0.3-0.4,0.7l-1,3c-0.1,0.4-0.2,0.7-0.1,0.8c0.1,0.1,0.3,0.2,0.6,0.3
		c0.3,0.1,0.5,0.1,0.6,0.1c0.1-0.1,0.3-0.3,0.4-0.7L160.6,14L160.6,14z M160,13.6c0-0.1,0-0.1,0-0.1c0,0,0-0.1-0.1-0.1
		c0,0-0.1,0-0.1,0c0,0-0.1,0.1-0.1,0.1l-1.1,3.4c0,0.1,0,0.1,0,0.1c0,0,0,0.1,0.1,0.1c0,0,0.1,0,0.1,0c0,0,0-0.1,0.1-0.1L160,13.6
		L160,13.6z M154.2,11.3l0.7,0.1l-0.2,1.8l0,0l0.6-1.7l0.6,0.1l-0.8,2.2l-0.2,2.7l-0.7-0.1l0.3-2.2l0,0l-0.7,2.2l-0.6-0.1l0.9-2.5
		L154.2,11.3L154.2,11.3z M87.4,90.7L87.4,90.7L87.4,90.7L87.4,90.7L87.4,90.7L87.4,90.7L87.4,90.7L87.4,90.7L87.4,90.7L87.4,90.7
		L87.4,90.7L87.4,90.7L87.4,90.7L87.4,90.7z M87.4,90.6L87.4,90.6L87.4,90.6L87.4,90.6L87.4,90.6L87.4,90.6L87.4,90.6L87.4,90.6
		L87.4,90.6L87.4,90.6L87.4,90.6L87.4,90.6z M87.3,90.7L87.3,90.7L87.3,90.7L87.3,90.7L87.3,90.7L87.3,90.7z M87.3,90.6L87.3,90.6
		L87.3,90.6L87.3,90.6L87.3,90.6L87.3,90.6L87.3,90.6L87.3,90.6L87.3,90.6L87.3,90.6L87.3,90.6L87.3,90.6L87.3,90.6L87.3,90.6z
		 M96.4,76.4c0.4,0.4,0.8-0.3,0.9-0.8c0-0.2,0-0.4-0.2-0.5c0,0,0,0-0.1,0c-0.2,0-0.3,0.1-0.3,0.1L96.3,76
		C96.2,76.1,96.2,76.3,96.4,76.4L96.4,76.4z M90.7,77.9H91c0.1,0,0.2-0.1,0.2-0.2v-0.1l-0.5-0.2c0,0,0,0-0.1,0c0,0,0,0,0,0.1l-0.1,0
		v0.2C90.5,77.9,90.6,77.9,90.7,77.9L90.7,77.9z M90.4,75.4v-0.3H90l-0.1,0l0,0v0.2C89.9,75.6,90.4,75.6,90.4,75.4L90.4,75.4z
		 M91.9,74.5v-0.4L91.6,74c-0.1,0-0.2,0-0.3,0.1l-0.1,0.1v0.4c0,0.1,0.1,0.2,0.2,0.2h0.2L91.9,74.5L91.9,74.5z M132.5,83.6
		c0.1-0.2,0-0.5-0.4-1.1c-0.2-0.3-0.4-0.5-0.4-0.7c-0.1,0-0.2,0-0.4-0.1c-0.3,0.2-0.1,0.7,0.6,1.6C132.2,83.7,132.4,83.8,132.5,83.6
		L132.5,83.6z M159.2,73.3c-0.2,0-0.3,0.2-0.3,0.3c0,0.2,0.2,0.3,0.3,0.3c0.2,0,0.3-0.2,0.3-0.3C159.5,73.5,159.3,73.3,159.2,73.3
		L159.2,73.3z M160.4,72.2c-0.2,0-0.3,0.1-0.3,0.3c0,0.2,0.1,0.3,0.3,0.3c0.2,0,0.3-0.1,0.3-0.3C160.7,72.4,160.6,72.2,160.4,72.2
		L160.4,72.2z M146.3,80.7c-0.2,0-0.4,0.2-0.4,0.4c0,0.2,0.2,0.4,0.4,0.4c0.2,0,0.4-0.2,0.4-0.4C146.7,80.9,146.6,80.7,146.3,80.7
		L146.3,80.7z M148.4,79.3c-0.2-0.1-0.5,0.1-0.6,0.3c-0.1,0.3,0,0.6,0.2,0.6c0.2,0.1,0.5-0.1,0.6-0.3
		C148.7,79.6,148.6,79.4,148.4,79.3L148.4,79.3z M147,77.9c-0.2,0-0.4,0.2-0.4,0.4c0,0.2,0.2,0.4,0.4,0.4s0.4-0.2,0.4-0.4
		C147.3,78.1,147.2,77.9,147,77.9L147,77.9z M149.6,75.7c-0.2,0-0.4,0.2-0.4,0.4c0,0.2,0.2,0.4,0.4,0.4c0.2,0,0.4-0.2,0.4-0.4
		C150,75.9,149.8,75.7,149.6,75.7L149.6,75.7z M150,77.1c-0.2,0-0.4,0.2-0.4,0.4c0,0.2,0.2,0.4,0.4,0.4c0.2,0,0.4-0.2,0.4-0.4
		C150.4,77.3,150.2,77.1,150,77.1L150,77.1z M151.2,76c-0.2,0-0.4,0.1-0.4,0.3c0,0.2,0.2,0.3,0.4,0.3c0.2,0,0.4-0.1,0.4-0.3
		C151.6,76.1,151.4,76,151.2,76L151.2,76z M152.1,77.5c-0.2,0-0.4,0.2-0.4,0.4c0,0.2,0.2,0.4,0.4,0.4c0.2,0,0.4-0.2,0.4-0.4
		C152.4,77.7,152.3,77.5,152.1,77.5L152.1,77.5z M150.5,78.8c-0.2,0-0.4,0.2-0.4,0.3c0,0.2,0.2,0.3,0.4,0.3c0.2,0,0.4-0.2,0.4-0.3
		C150.9,78.9,150.8,78.8,150.5,78.8L150.5,78.8z M149.8,85.9c0.1,0,0.2,0,0.2,0c0.3,0,0.7-0.8,0.5-0.8c-0.3,0-0.8-0.1-0.9,0.3
		C149.5,85.6,149.7,85.9,149.8,85.9L149.8,85.9z M152,86.5c0.1,0,0.7-0.4,0.7-0.5c0-0.1,0.1-0.4-0.1-0.4c-0.3-0.3-1-0.2-1,0.2
		C151.6,86.3,151.7,86.5,152,86.5L152,86.5z M154.5,84c-0.2,0-0.4,0.3-0.4,0.4c-0.1,0.3,0.5,0.6,0.8,0.2
		C155.1,84.2,155.2,84,154.5,84L154.5,84z M154.2,87.1c0.5,0.1,0.6-0.7,0.2-0.7c-0.2,0-0.5,0.1-0.5,0.4
		C153.9,87,154,87.1,154.2,87.1L154.2,87.1z M156.6,85.5c-0.1-0.8-0.8-0.1-0.9,0.2c-0.1,0.1,0.1,0.6,0.5,0.5
		C156.5,86.2,156.6,85.9,156.6,85.5L156.6,85.5z M157.7,88.2c0.4,0,0.8-0.3,0.8-0.8c0-0.2-1-0.4-1.1-0.1c0,0.2-0.1,0.4-0.1,0.5
		C157.2,88.1,157.5,88.2,157.7,88.2L157.7,88.2z M144.8,88.4c-0.1-0.8-0.8-0.1-0.9,0.2c-0.1,0.1,0.1,0.6,0.5,0.5
		C144.7,89.1,144.8,88.8,144.8,88.4L144.8,88.4z M142,90.4c0.5,0.1,0.6-0.7,0.2-0.7c-0.2,0-0.5,0.1-0.5,0.4
		C141.7,90.3,141.8,90.4,142,90.4L142,90.4z M141,88.8c0.5,0.1,0.6-0.7,0.2-0.7c-0.2,0-0.5,0.1-0.5,0.4
		C140.7,88.7,140.8,88.8,141,88.8L141,88.8z M141.2,86.2c-0.3-0.3-1.1,0-1.1,0.3c0,0.2-0.1,0.4,0.1,0.5
		C140.6,87.4,141.5,86.5,141.2,86.2L141.2,86.2z M144,85.9c-0.1-0.8-0.8-0.1-0.9,0.2c-0.1,0.1,0.1,0.6,0.5,0.5
		C143.8,86.6,144,86.3,144,85.9L144,85.9z M134.9,84.3c0.1,0.4,0.5,0.4,0.7,0c0.2-0.2,0.1-0.4,0-0.6
		C135.5,83.5,134.9,83.7,134.9,84.3L134.9,84.3z M136,81.7c0.4,0,0.5-0.5,0.2-0.8c-0.2-0.3-0.8-0.1-0.8,0.2
		C135.5,81.4,135.7,81.7,136,81.7L136,81.7z M138.2,81.3c0.1-0.3,0-0.9-0.4-0.8c-0.4,0.1-0.4,0.5-0.1,0.8
		C137.8,81.6,138.1,81.5,138.2,81.3L138.2,81.3z M138.7,79.2c0,0.2,0.5,0.3,0.7-0.2c0.1-0.4,0-0.5-0.5-0.4
		C138.6,78.7,138.7,79,138.7,79.2L138.7,79.2z M138.6,77.4c0-0.5-0.5-0.1-0.5,0.2c0,0.2,0.2,0.4,0.4,0.3
		C138.6,77.8,138.6,77.6,138.6,77.4L138.6,77.4z M142.2,75.2c0,0.1,0.3,0.1,0.3,0.1c0,0,0.1-0.1,0.2-0.2c0-0.1-0.1-0.1-0.1-0.1
		l-0.1-0.1h-0.2c-0.1,0-0.1,0-0.1,0.1V75.2L142.2,75.2z M139.7,80.9c0,0.1,0.5,0.5,0.8,0c0.2-0.3,0.1-0.4-0.3-0.4
		C140,80.4,139.7,80.6,139.7,80.9L139.7,80.9z M138.1,82.7l0.3-0.1c0.2,0,0.2-0.5,0-0.5l-0.3,0.2C137.9,82.2,137.9,82.7,138.1,82.7
		L138.1,82.7z M129.8,87.3v-0.1c0-0.1,0-0.1,0.2-0.1c0.1-0.1,0.1-0.2-0.1-0.4l0-0.1h-0.5c-0.1,0-0.3,0.1-0.5,0.3l0,0.3l0.1,0.1
		c0.1,0,0.1,0.1,0.1,0.2h0.5l0.1-0.1l0.1-0.1C129.7,87.3,129.7,87.3,129.8,87.3L129.8,87.3z M130.5,89.3h0.5l0.2-0.2v-0.5
		c0-0.1,0-0.2-0.2-0.2h-0.6c-0.1,0-0.2,0-0.2,0.2V89C130.2,89.1,130.4,89.3,130.5,89.3L130.5,89.3z M130,85v-0.5
		c0-0.2-0.8-0.7-0.8-0.4v0.3l0.5,0.5H130L130,85z M123.3,83.4v0.4l0.2,0.2c0.3,0.4,0.5,0.5,0.8,0.2c0.1-0.2-0.4-1-0.8-0.9
		C123.3,83.3,123.3,83.3,123.3,83.4L123.3,83.4z M120.5,80.5v0.3c0,0.1,0.7,0.9,1,0.8c0.4-0.2,0.2-0.6-0.4-1
		c-0.1-0.1-0.3-0.1-0.4-0.1C120.5,80.4,120.5,80.5,120.5,80.5L120.5,80.5z M125.9,83.8v-0.5c0-0.1-0.7-1.1-0.9-1.1h-0.3
		c-0.1,0-0.2,0.2-0.1,0.5C124.7,82.8,125.9,84.3,125.9,83.8L125.9,83.8z M127.1,83.4c0.3,0-0.2-1.5-0.5-1.5h-0.3
		c-0.3,0,0.2,1.5,0.6,1.5H127.1L127.1,83.4z M128.4,82.9h0.3c0.3,0-0.1-1.4-0.5-1.4H128C127.7,81.5,128,82.9,128.4,82.9L128.4,82.9z
		 M129.9,82.1v-0.3l-0.3-0.6h-0.2c0,0-0.1,0-0.1,0.1v0.4c0,0.1,0.1,0.2,0.2,0.3l0.1,0.1H129.9L129.9,82.1z M131.5,84.8
		c-0.1,0.2-1.5-0.8-1-1.4C130.8,83,131.7,84.5,131.5,84.8L131.5,84.8z M93,79.5h0.5v-0.5c0-0.2-0.5-0.2-0.5-0.1v0.4
		C92.9,79.5,92.9,79.5,93,79.5L93,79.5z M95,79.2h-0.2c0,0-0.1,0-0.1,0.1v0.2c0,0.1,0,0.1,0.1,0.1H95C95.1,79.6,95.1,79.2,95,79.2
		L95,79.2z M92.8,77c-0.1,0-0.5,0-0.5,0.1v0.2c0,0.1,0.4,0.3,0.5,0C92.9,77.2,92.9,77.1,92.8,77L92.8,77z M94.9,86.1h-0.2
		c-0.2,0-0.2-0.2-0.1-0.6c0.3-1.3-0.8-1.2-0.8-0.9l0,0.3l0,0.3l-0.2,0.3c0,0.1,0,0.2,0,0.4c0.2,0.7,0.4,1,0.7,1h0.5
		c0.1,0,0.2-0.1,0.2-0.3v-0.2L94.9,86.1L94.9,86.1z M97,85.4h0.4c0.1,0,0.4-0.8,0.2-0.8H97l-0.2,0.2v0.4L97,85.4L97,85.4z
		 M96.3,87.5h0.6c0.1,0,0.1,0,0.1-0.1v-0.5c0-0.3-0.8-0.1-0.8,0.2L96.3,87.5C96.2,87.5,96.2,87.5,96.3,87.5L96.3,87.5z M98.9,88
		c0.5,0.2,0.9-0.7,0.2-0.8C98.3,86.9,98.1,87.7,98.9,88L98.9,88z M102.5,87v-0.6l-0.5-0.2l-0.1,0l-0.3,0l-0.1,0.1c0,0-0.1,0.1-0.2,0
		C101.4,86.7,102.5,87.3,102.5,87L102.5,87z M99.5,83.2h-0.3c-0.3,0-0.5,0.8-0.1,0.8h0.3c0,0,0.1,0,0.1-0.1V83.2L99.5,83.2z
		 M107.4,86.6c0,0,0.1,0,0.1,0.1c0.4,0.3,0.6,0.2,0.6-0.1v-0.5c0-0.1,0-0.1-0.1-0.1l-0.4,0l-0.1,0.1c0,0.1-0.1,0.1-0.2,0.1V86.6
		L107.4,86.6z M107.8,89.7h0.5c0,0,0.1,0,0.1-0.1v-0.4l-0.2-0.3v-0.1h-0.4c0,0-0.5,0.3-0.5,0.5v0.2L107.8,89.7L107.8,89.7z
		 M111,88.5c0-0.1,0-0.1,0.1-0.2c-0.1-0.4-0.2-0.6-0.4-0.6h-0.5c-0.2,0-0.3,0.1-0.3,0.2v0.3l0.5,0.3H111L111,88.5z M110.5,89.8
		c0,0-0.1,0.1-0.1,0.2v0.2l0.5,0.3c0.6,0.4,0.6-0.7,0.2-0.7h-0.5l0,0.1L110.5,89.8L110.5,89.8z M113.2,88.3h0.3l0.3-0.2h0.1v-0.6
		c0-0.1,0-0.1-0.1-0.1h-0.5C112.8,87.5,112.5,88.3,113.2,88.3L113.2,88.3z M114.2,84c0.4,0-0.4-1.9-0.8-1.6
		c-0.5,0.3,0.2,1.6,0.5,1.6H114.2L114.2,84z M111.8,81.9c0.4,0.1,0.8-0.2,0.7-0.5c0-0.1-0.3-0.5-0.8-1c-0.3-0.3-0.6-0.4-0.8-0.1
		C110.8,80.5,111.4,81.7,111.8,81.9L111.8,81.9z M113.6,79.9l0.2,0.3c0.1,0.1,0.2,0.4,0.5,0.6c0.4,0.4,0.4,0.7,0.1,0.8
		c-0.6,0.2-1.4-1.3-1.5-1.4C112.6,79.7,113.1,79.4,113.6,79.9L113.6,79.9z M116.1,77.6c0-0.1-0.5-0.1-0.5,0v0.7l0.1,0.2
		c0.1,0.3,0.2,0.4,0.3,0.4h0.2c0,0,0-0.1,0.1-0.1L116.1,77.6L116.1,77.6z M117.6,77.6c-0.2-0.3-0.6,0-0.5,0.4
		c0.1,0.7,0.9,1.2,0.9,0.8v-0.5C117.9,78.1,117.8,77.8,117.6,77.6L117.6,77.6z M119.7,81.6c0.6,0.2,0.5-0.6-0.2-0.8
		C119,80.8,119.2,81.5,119.7,81.6L119.7,81.6z M109.6,81.9v-0.2l-0.2-0.3l-0.1-0.4c-0.2-0.5-0.1-0.7,0.1-0.9
		C109.9,80,111,82.6,109.6,81.9L109.6,81.9z M108.7,77.3c-0.2,0.2-0.1,0.7,0.4,1.5c0.3,0.4,1,0.3,0.6-0.5c-0.3-0.6-0.5-1-0.7-1.1
		l-0.1,0.1L108.7,77.3L108.7,77.3z M108.2,79.1v-0.5l-0.2-0.5l-0.1-0.5c-0.1-0.2-0.2-0.4-0.3-0.4h-0.1l-0.3,0.2v0.7l0.2,0.4
		c0.2,0.5,0.3,0.7,0.4,0.7h0.2L108.2,79.1L108.2,79.1z M108.3,82c0.1,0,0.1-0.1,0.1-0.2v-0.2l-0.3-1.1c-0.1-0.4-0.5,0-0.5,0v1
		C107.5,81.9,107.9,82.3,108.3,82L108.3,82z M106.2,82c0,0,0.1-0.1,0.1-0.2v-1.1c0-0.6-0.5-1-0.8-0.5c0,0,0,0.4,0,1
		c0,0.4,0.1,0.7,0.3,0.9h0.3l0,0L106.2,82L106.2,82z M104.2,84.7h0.3c0.3,0,0.8-2,0.1-1.8c-0.3,0.1-0.5,0.3-0.5,0.8v0.9
		C104.1,84.7,104.2,84.7,104.2,84.7L104.2,84.7z M104.2,81.5l0.2-1.4c0-0.1,0-0.1-0.1-0.1H104l-0.3,0.6v0.8c0,0,0,0.1,0.2,0.2
		c0,0,0.1,0,0.2,0C104.1,81.5,104.2,81.5,104.2,81.5L104.2,81.5z M102.1,81h0.2c0.3,0,0.8-1.3,0.2-1.2c-0.2,0-0.5,0.5-0.5,0.5v0.5
		C101.9,80.9,102,81,102.1,81L102.1,81z M100.6,79.4c-0.4,0.5-0.5,0.7-0.2,0.8c0.4,0.2,1.1-0.9,1-1.1
		C101.2,78.9,100.9,79,100.6,79.4L100.6,79.4z M99,79.1h0.4c0,0,0.5-0.3,0.5-0.4v-0.2l-0.1-0.1c-0.4-0.4-0.9,0.2-0.9,0.4
		C98.9,79,98.9,79.1,99,79.1L99,79.1z M101.2,77c-0.1,0.1-0.1,0.5,0,0.7c0.7,0,2.1-1.5,0.8-1.3C101.8,76.4,101.3,76.8,101.2,77
		L101.2,77z M103.3,77.9c-0.4,0.2-0.6,0.2-0.8,0c-0.3-0.5,1-1.4,1.1-1.2l0.2,0.2V77c0,0.1-0.1,0.2-0.2,0.3l-0.2,0.2L103.3,77.9
		L103.3,77.9z M104.5,78.4c0.1,0.6-1.2,0.6-0.6-0.5l0.2-0.3l0.1-0.4c0.1-0.2,0.2-0.3,0.2-0.3c1-0.4,0.4,1.5,0.2,1.5H104.5
		L104.5,78.4z M106,78.9h0.5c0.4,0,0.1-1.7-0.2-1.7h-0.4c-0.1,0-0.1,0.3-0.1,1l0,0.4l0.2,0.3V78.9L106,78.9z M99,76.2
		c0.1,0.3,0.3,0.4,0.6,0.3c0,0,0-0.1,0.1-0.1l-0.3-1.3c-0.1-0.3-0.6,0-0.6,0.2l0,0.5l0.1,0.1c0,0,0.1,0.1,0.1,0.1V76.2L99,76.2z
		 M97.7,76.6c0.2,0.2,0.6,0,0.6-0.2v-1c0-0.2-0.1-0.3-0.2-0.3h-0.4l-0.2,0.2v1C97.6,76.4,97.6,76.5,97.7,76.6L97.7,76.6z
		 M101.8,23.6c-0.2,0-0.4-0.2-1.3-0.4l-2.1-0.1c-1.2-0.1-2.3,0-3.5,0.5c-2.8,1.2-4.7,3.2-3.6,3.6l1.1,0.4c1.9,0.6,4.4,1.8,7.5,3.6
		c1.6,0.9,2.6,1.3,3.3,1.3c0,0,0-0.1,0.1-0.1c0-0.2-1-0.9-3.1-2.2c-1.8-1.1-2.9-2.3-3.1-3.5c-0.7-3.2,4.2-1.7,1.3-0.2
		c0.3,1.9,4.9,5.2,7.4,5.2c0.3-0.5,0.7-0.9,1.3-1.3c0-0.1,0-0.1,0-0.2c-3.6-1.1-5.5-2.3-5.6-3.4c-0.1-0.5,0.1-0.9,0.5-1.3
		c0.7-0.6,1-1,1-1.2c0-0.2-0.4-0.2-0.1-0.3C102.5,24.1,101.8,23.7,101.8,23.6L101.8,23.6z M102.5,38.3c0,0.1,0.1,0.4,0.2,0l0-2h-0.2
		C102.5,36.4,102.5,37.8,102.5,38.3L102.5,38.3z M100.9,34.1c0-0.1,0-0.3,0-0.4c0-0.2,0.1-0.3,0-0.4c-0.1,0-0.2,0-0.2,0.2
		c0,0.2-0.1,0.4-0.1,0.6C100.6,34.3,100.9,34.4,100.9,34.1L100.9,34.1z M103,34.7c0-0.1,0-0.3,0-0.4c0-0.2,0.1-0.3,0-0.4
		c-0.1,0-0.2,0-0.2,0.2c0,0.2-0.1,0.4-0.1,0.6C102.7,34.8,103,34.9,103,34.7L103,34.7z M100.4,38.3h0.2c0.2-0.2,0.2-0.5,0.2-0.9V36
		c0-0.1,0-0.2-0.1-0.2h-0.2c0,0,0,0.1-0.1,0.1l-0.1,1.3C100.3,37.8,100.3,38.1,100.4,38.3L100.4,38.3z M98.8,33.5
		c0,0.3-0.5,0.2-0.4,0c0-0.2,0.1-0.5,0.1-0.7c0-0.2,0.1-0.3,0.3-0.2c0.1,0.1,0.1,0.2,0,0.5C98.8,33.2,98.8,33.4,98.8,33.5L98.8,33.5
		z M96.3,32.8c0,0.3-0.5,0.2-0.4,0c0-0.2,0.1-0.5,0.1-0.8c0-0.2,0.1-0.3,0.3-0.2c0.1,0.1,0.1,0.3,0,0.5
		C96.3,32.5,96.3,32.7,96.3,32.8L96.3,32.8z M111.9,69.6l0.1-0.9c0-0.4-0.4-0.3-0.5,0l-0.1,0.7C111.4,69.7,111.9,69.9,111.9,69.6
		L111.9,69.6z M93.6,31.9c0,0.3-0.5,0.3-0.4,0c0-0.2,0.1-0.5,0.1-0.8c0-0.2,0.1-0.3,0.3-0.3c0.1,0.1,0.1,0.3,0,0.5
		C93.6,31.6,93.6,31.8,93.6,31.9L93.6,31.9z M104,67.5l-0.2,0.8c-0.1,0.4,0,0.6,0.2,0.8c0.3,0,0.4-0.1,0.4-0.5v-1.1
		C104.4,67.4,104.1,67.2,104,67.5L104,67.5z M107.5,69.5l0.4,0c0.2-0.5,0.2-1.1,0.2-1.4c0-0.3-0.5-0.1-0.5,0.2
		C107.6,68.7,107.5,69,107.5,69.5L107.5,69.5z M95.2,38.9h0.2c0,0,0-0.1,0.1-0.2c0-0.1,0-0.1,0.1-0.2l0-0.2l0.2-3.2
		c0-0.3,0-0.5-0.1-0.5h-0.2l-0.4,2.1v1.9C95.1,38.9,95.2,38.9,95.2,38.9L95.2,38.9z M90.5,31c-0.1,0.4-0.6,0.1-0.6-0.2
		c0-0.3,0.2-0.6,0.2-0.9c0-0.3,0.2-0.3,0.4-0.2c0.2,0.2,0.1,0.4,0.1,0.6C90.6,30.6,90.6,30.9,90.5,31L90.5,31z M97.8,38.5h0.2
		c0.5-1.5,0.4-3.3,0.3-3.3h-0.2c-0.2,0.5-0.4,1.4-0.5,2.7C97.6,38.3,97.7,38.5,97.8,38.5L97.8,38.5z M110.5,65.6
		c-0.2,0-0.4,0.2-0.4,0.4c0,0.2,0.2,0.4,0.4,0.4c0.2,0,0.4-0.2,0.4-0.4C110.9,65.8,110.7,65.6,110.5,65.6L110.5,65.6z M108.5,65.5
		c-0.2,0-0.4,0.2-0.4,0.4c0,0.2,0.2,0.4,0.4,0.4c0.2,0,0.4-0.2,0.4-0.4C108.9,65.7,108.7,65.5,108.5,65.5L108.5,65.5z M104.3,64.7
		c-0.2,0-0.4,0.2-0.4,0.4c0,0.2,0.2,0.4,0.4,0.4c0.2,0,0.4-0.2,0.4-0.4C104.7,64.9,104.5,64.7,104.3,64.7L104.3,64.7z M92.7,33.7
		l-0.3,4.8l0,0.5v0.2c0,0.1,0.1,0.1,0.2,0.1h0.2c0,0,0.2-1.3,0.4-3.8c0.1-1,0.1-1.6,0-1.7L92.7,33.7L92.7,33.7z M106.4,65
		c-0.2,0-0.5,0.2-0.5,0.5c0,0.2,0.2,0.5,0.5,0.5c0.2,0,0.5-0.2,0.5-0.5C106.9,65.2,106.7,65,106.4,65L106.4,65z M89.3,39.7l0.8-6.8
		c0-0.1-0.1-0.1-0.4-0.1c-0.5,1.4-0.7,6.9-0.5,6.9H89.3L89.3,39.7z M106.9,34h-0.2c-0.1,0.1-0.1,0.2-0.2,0.4l-0.2,0.4l-0.3,0.3
		c-0.2,0.1-0.3,0.2-0.3,0.3v0.2c0,0,0,0.1,0.1,0.1h0.4c0.1,0,0.2,0.1,0.3,0.2l0.2,0.3h0.2c0.1,0,0.1,0,0.1-0.1v-1.8
		C107,34.1,107,34,106.9,34L106.9,34z M107.1,44.5c-0.1-0.1-0.2,0-0.5,0.1c-0.1,0-0.3,0.1-0.6,0.2c-0.1,1.1,0.1,1.8,0.6,2.3
		c0.3-0.2,0.5-0.8,0.5-1.8C107.2,44.8,107.2,44.6,107.1,44.5L107.1,44.5z M107.7,60.4v-0.8c0-1.1-0.7-1.9-1.3-1.7
		c-0.1,0-0.1,0-0.1,0.1v1.3C106.3,59.4,106.6,60.3,107.7,60.4L107.7,60.4z M105.7,37.7h1c0.2,0,0.2-0.1,0.2-0.2v-0.4
		c0-0.1-0.1-0.2-0.2-0.2h-0.9c-0.3,0-0.4,0.1-0.4,0.2v0.3C105.5,37.7,105.6,37.7,105.7,37.7L105.7,37.7z M106.8,38.3l-0.2-0.1h-0.9
		l-0.1,0.1c0,0-0.1,0.1-0.1,0.1l-0.1,0.1v0.5c0,0.1,0,0.1,0.2,0.1h1c0.1,0,0.2-0.1,0.3-0.2C106.9,38.7,106.9,38.3,106.8,38.3
		L106.8,38.3z M102.3,38.5c0,0.2,0.5,0.6,0.7-0.1c0-0.4,0-1.8,0-2l0.2,0c0.1,0,0.1,0,0.1,0.2v2c0,1-1.3,1.2-1.6,0l0.1-2.4
		c0,0,0.1,0,0.1-0.1h0.3L102.3,38.5L102.3,38.5z M101.1,32.6c0.4,0.2,0.4,0.3,0.5,0.5c0.1,0.3,0.1,0.5,0.1,0.8
		c-0.1,0.4-0.1,0.6-0.4,0.5c-0.1,0-0.1-0.1-0.1-0.3c0-0.1,0-0.2,0-0.2l0-0.2c0-0.4,0-0.5-0.4-0.5c-0.1,0-0.2,0.2-0.2,0.3l-0.1,0.4
		c0,0.1,0,0.2-0.1,0.4c-0.2,0-0.3-0.1-0.4-0.3c-0.1-0.3,0-0.7,0.1-1C100.2,32.7,100.5,32.4,101.1,32.6L101.1,32.6z M106.9,40.1h-1.1
		c-0.4,0-0.5,0.1-0.5,0.3l0.1,2.3c0,0.1,0.1,0.2,0.2,0.2h0.3c0.1,0,0.2,0,0.2-0.2v-1.6c0-0.1,0-0.1,0.1-0.1h0.2
		c0.2,0.3,0.3,0.6,0.3,1.1c0,0.5,0.1,0.7,0.1,0.7h0.4c0.1,0,0.1,0,0.1-0.1v-2.3L106.9,40.1L106.9,40.1z M103.1,33.2
		c0.3,0.1,0.5,0.2,0.6,0.5c0.1,0.3,0.1,0.5,0.1,0.7c-0.1,0.4-0.1,0.5-0.2,0.5c-0.2,0-0.2-0.1-0.2-0.3c0-0.1,0-0.2,0-0.2l0-0.2
		c0-0.4,0-0.5-0.4-0.5c-0.1,0-0.2,0.1-0.3,0.3l-0.1,0.5c0,0.1,0,0.2-0.1,0.3c-0.3,0-0.3,0-0.4-0.2c-0.1-0.3-0.1-0.6,0-0.9
		C102.2,33.4,102.5,33,103.1,33.2L103.1,33.2z M98.9,31.6c0.5,0.2,0.6,0.3,0.7,0.6c0.1,0.3,0.1,0.6,0.1,0.9
		c-0.1,0.5-0.1,0.8-0.5,0.7c-0.1,0-0.1-0.1-0.1-0.4c0-0.2,0-0.2,0.1-0.3l0-0.3c0-0.5,0-0.7-0.6-0.6c-0.1,0-0.2,0.2-0.3,0.4l-0.1,0.5
		c0,0.1,0,0.3-0.1,0.5c-0.3,0-0.4-0.1-0.5-0.3c0-0.4,0-0.8,0.1-1.2C97.8,31.9,98.2,31.4,98.9,31.6L98.9,31.6z M96.5,30.8
		c0.5,0.2,0.6,0.4,0.7,0.7c0.1,0.4,0.1,0.7,0.1,1c-0.1,0.5-0.1,0.8-0.5,0.8c-0.1,0-0.1-0.2-0.1-0.4c0-0.2,0-0.2,0.1-0.3l0-0.3
		c0-0.5,0-0.7-0.6-0.7c-0.1,0-0.2,0.3-0.3,0.5l-0.1,0.6c0,0.1,0,0.3-0.1,0.5c-0.3,0-0.4-0.1-0.5-0.3c-0.2-0.4,0-1,0.1-1.4
		C95.4,31,95.8,30.6,96.5,30.8L96.5,30.8z M101.7,38.5c-0.1,0.9-0.4,1.3-0.8,1.3h-0.6c-0.2,0-1.2-0.7-0.9-2.6l0.2-1.6h0.4
		c0,0,0.1,0,0.1,0.1v2.6c0,0.1,0.1,0.3,0.2,0.6h0.5c0.2-0.5,0.4-1.1,0.4-1.9c0-0.7,0-1.1,0.1-1.1h0.3c0,0,0.1,0,0.1,0.1L101.7,38.5
		L101.7,38.5z M97.6,40.3c-0.5-0.1-0.8-0.4-0.8-0.8v-2l0.4-2.4h0.4c0.1,0,0.1,0.9-0.1,2.6c-0.1,1.1,0,1.7,0.4,1.6
		c0.3-0.5,0.5-0.9,0.5-1.2l0.2-1.4c0-0.3,0.1-0.8,0.3-1.4c0.1,0,0.1,0,0.2,0l0.1,0c0.2,0,0.2,0.7,0.1,2.3
		C99.1,39.6,98.5,40.6,97.6,40.3L97.6,40.3z M102.7,43.3h-0.2l-0.5-2.7c0-0.1-0.5-0.3-0.6,0.3c-0.3,1.6,1.1,7.4,1.9,7.4h0.2
		c0.2,0,0.2-0.1,0.2-0.2l-0.5-3v-4.4c0-0.2-0.1-0.3-0.2-0.3h-0.5c-0.2,0-0.2,0.1-0.2,0.2L102.7,43.3L102.7,43.3z M93.8,29.8
		c0.6,0.2,0.7,0.3,0.8,0.7c0.1,0.4,0.1,0.9,0,1.2c0,0.8-0.2,1-0.7,0.9c-0.1,0-0.1-0.2-0.1-0.5c0-0.2,0.1-0.4,0.1-0.5l0-0.3
		c0-0.5,0-0.7-0.6-0.7c-0.2,0.1-0.2,0.3-0.3,0.5L93,31.7c0,0.1-0.1,0.3-0.2,0.5c-0.3,0.1-0.5,0-0.6-0.2c-0.2-0.5,0.2-0.9,0.3-1.3
		C92.6,30.2,93,29.6,93.8,29.8L93.8,29.8z M94.8,40.8c-0.4,0-0.5-0.5-0.7-1.3c0-0.8,0.2-4,0.3-4.1c0.2-0.4,0.2-0.7,0.6-1
		c0,0,0,1.7-0.2,5.1c0,0.4,0.9,0.6,0.8,0.2l0.6-5h0.3c0.2,0,0.2,0.6,0.1,1.5c-0.2,3.1-0.5,4.7-1,4.7H94.8L94.8,40.8z M92.2,33.5
		c0,1.9-0.2,4.3,0,6.5c0,0.2,0.4,0.2,0.5,0.2c0.4-1.4,0.5-4,0.5-6c0-0.3,0.2-0.4,0.6-0.2c0.2,0,0.2,0.6,0.1,1.6c0,0.6,0,1.3,0,2.3
		c0,1.8-0.3,2.9-0.9,3.3c-0.6,0.5-1.1,0.5-1.5-0.1c-0.6-0.7-0.1-6.3,0.2-7.7L92.2,33.5L92.2,33.5z M90.8,28.5c0.7,0.4,0.8,0.6,0.9,1
		c0.1,0.5,0.1,0.9,0.1,1.3c-0.1,0.6-0.2,1-0.7,0.8c-0.1-0.1-0.2-0.2-0.1-0.5c0-0.2,0.1-0.3,0.1-0.3l0-0.4c0.1-0.6-0.1-0.9-0.8-1
		c-0.2,0-0.3,0.3-0.4,0.5l-0.1,0.7c0,0.1,0,0.4-0.2,0.6c-0.4,0-0.6-0.3-0.7-0.6c0-0.5,0.3-1.2,0.4-1.6C89.4,28.5,90,28.2,90.8,28.5
		L90.8,28.5z M111.1,69.7c0,0.5,0.7,0.9,0.9,0.3c0.2-0.6,0.3-0.9,0.5-1c0.2-0.1,0.4,0,0.6,0.1c0.1,0.1,0.1,0.4,0.1,0.9
		c-0.1,0.8-0.4,1.2-0.8,1.4c-0.1,0-1.5,0.1-2.1-0.5c-0.2-0.3-0.4-1-0.4-2.1c0-0.6,0.1-0.9,0.2-1C110.8,67.5,111.1,68.2,111.1,69.7
		L111.1,69.7z M107.5,71c-0.7-0.1-1.4-0.6-1.4-1.1l0.2-2.4c0-0.6,0.9-0.7,1-0.1l-0.1,2.1c0,0.5,1.2,1,1.3-0.1l0.1-1.1
		c0.1-0.6,1.1-1.2,1.1-0.2v0.8c0,0.8,0,1.3-0.1,1.4C109.2,71.1,108.2,71.2,107.5,71L107.5,71z M101.3,48c0-1.5-0.6-5.5-0.8-7.1
		c0.8-0.2,0.8,2.8,1,3.5c0.1,1.6,0.4,3.2,0.8,4.8c0.5,1.9,0.7,2.8,0.6,2.8h-0.3c-0.4,0-1-1-1.9-2.8c-0.5-1-0.9-3.3-1.3-6.7
		c-0.1-1.2,0-1.6,0.4-1.3c0.4,0.6,1,3.8,1.1,6.2L101.3,48L101.3,48z M88.7,41.8c-0.6,0-1.1-1.2-1.1-1.4l0.6-8.4c0,0,0.1,0,0.2-0.1
		c0.1-0.1,0.4,0,0.9,0.3l-0.6,6.5c-0.1,0.7,0.1,1.3,0.4,1.9c0.2,0,0.3,0,0.4,0c0.4-0.6,0.7-2.3,0.9-5c0.1-1.3,0.1-2.2,0.2-2.6
		c0.3,0,0.4,0,0.5,0c0.2,0.1,0.3,1,0.1,2.7l-0.1,1.3L91,38.4c-0.1,2.3-0.5,3.4-1.1,3.4H88.7L88.7,41.8z M95.9,43.2l1,9.4l-0.6-1
		l-0.4-3.1c0-0.3-0.1-1.6-0.2-3.9c-0.1-1.1-0.2-1.9-0.3-2.5h-0.4c-0.4,0-0.4,2.5,0.3,7.4c0.6,4.7,1.5,7.2,2.8,7.4
		c0.3,0.1,0.5-0.1,0.5-0.4l-0.2-1.2c0-0.2-0.1-1-0.2-2.4c-0.1-0.7-0.1-1.1-0.1-1.2l-0.3-1.2c-0.1-0.3-0.1-1.1-0.2-2.4
		c0-0.7-0.1-1.3-0.3-1.8c-0.1-0.2-0.4-0.7-0.2-1.3c0.2-1.4,0-2.4-0.4-3.5C96,41.7,95.8,42.2,95.9,43.2L95.9,43.2z M103.8,70.6
		c-1-0.2-1.5-0.5-1.5-1c-0.1-0.6-0.2-1,0-1.7c0-1.2,0.3-1.7,1-1.5c0.1,0,0.2,0.3,0.1,0.7c0,0.3,0,0.5,0,0.6l-0.1,0.6
		c-0.1,0.8,0.3,1.1,1.1,1c0.2-0.1,0.3-0.6,0.4-0.8l0-0.9c0-0.2,0.1-0.4,0.3-0.7c0.5-0.1,0.8,0,0.9,0.3c0.1,0.2-0.1,2.1-0.1,2.2
		C105.6,70.4,104.9,70.8,103.8,70.6L103.8,70.6z M97.2,41.4V42l0.2,2.4c0.1,4.8,0.4,6.2,1.5,8.3c0.7,1.4,1.5,2.3,2.2,2.6
		c0,0,0-0.1,0-0.1l-0.4-1.4c-0.2-0.6-0.4-1.8-0.4-3.7l-0.5-1.1L99,41.3h-0.4c-0.2,0-0.3,0.2-0.3,0.5l0.6,7.5c0,0.1-0.1,0.1-0.2,0.1
		c-0.1-0.4-0.3-2.4-0.7-6l-0.1-1.2C97.9,41.9,97.6,41.6,97.2,41.4L97.2,41.4z M93.7,52.9c-0.3-3-0.4-5.5-0.5-7.4
		c-0.1-2.3,0.1-3.2,0.7-3c0.5,0.6,0.3,1.2,0.4,2.4c-0.1,0.6,0,1.3,0.2,2c0.1,0.3,0.1,0.8-0.1,1.4c-0.2,0.9-0.3,1.4-0.2,1.6l0.4,0.5
		c0.6,0.9,0.8,1.9,0.4,3.2c-0.2,0.9-0.3,1.4-0.3,1.5l0.5,1.1c0.7,1.7,0.7,3.4,0,5.1h-0.2c-0.6,0-2-3.9-2.7-7.2
		c-0.3-1.4-0.6-11.5-0.5-11.6c0.4-0.4,1.1,0.4,1.1,0.5v1.1c0,5.8,0.4,10,1.1,12.4L93.7,52.9L93.7,52.9z M107.7,61.8v-0.2
		c0-0.6-0.9-1.1-1.2-0.4c-0.1,0.2-0.2,0.5-0.2,0.5H106l0,0l0,0l-0.2-1c-0.8-0.2-1.4,1.5-0.9,1.9c0.2,0.2,4.1,1.4,4.1,0.7V62
		C109,61.6,108.5,61.5,107.7,61.8L107.7,61.8z M103.8,55.9c-2.3-0.7-1.3-3.9,0.6-3.2c0.4,0.1,0.5,0.2,0.6,0.2
		c0.5-0.5,0.4-2.2-0.3-5.1c-1.4-5.7-1.5-10-0.5-12.9c0.9-2.5,2.6-3.3,2.7-3c0.2,0.4,0.1,0.8-0.2,1.1L106,34
		c-0.7,0.7-1.1,1.8-1.3,3.2c-0.3,2.5,0,5.6,1.1,9.2c1.2,3.8,1.2,6.1,1.1,6.7C106.7,55,105.3,56.3,103.8,55.9L103.8,55.9z
		 M104.8,64.2c-0.2,0-0.2-0.3,0-0.7c0.2-0.4,4.1,0.6,4.8,1c0.2,0.6-0.1,0.8-0.8,0.6L104.8,64.2L104.8,64.2z M91.4,58.7l0.6,0.5
		l-0.3-4.6l-0.5-11.5c-0.2-0.2-1-0.1-1.6,0.5c-0.2,2-0.2,4.9,0,8.8l0.5,7.2c-1-2.1-1.4-6.9-1.4-14.4c0-1.6-0.4-2.3-1.1-2.1
		c-0.5,3.5-0.1,8.5,1.1,15.1c1.1,5.5,2.2,8.8,3.4,9.9c0.6,0,0.7-1,0.3-2.9C92.2,64,92,60.8,91.4,58.7L91.4,58.7z M106.3,56.7V57
		c-0.3,0.2-0.8,0.7-1.8,1.5c-1.5,1.3-2.3,2.2-2.2,2.5l0.2,0.8l0.1,0.9c0.2,1.5-0.3,2.5-1.5,3.1c-0.6,0.3-1.1,0.4-1.4,0.3
		c-0.2-0.1,0-0.6,0.5-1.4c0.8-1.3,0-4.1-3.9-2.9c-0.3-0.6,0.1-1.7,1.9-1.9v-0.2h-1.9c-0.1,0-0.4-1.1,1.3-1.4c0.4-0.1,1.8,0.1,2,0.3
		l0.8,0.6c0.2,0,0.3,0,0.3,0l0.8-0.8c1-0.9,1.5-1.4,1.8-1.4l0.9,0C105.2,56.9,105.8,56.8,106.3,56.7L106.3,56.7z M151.4,22.4
		c0.9-0.2,6.5,0.2,7.9,0.3c1.2,0,2.6,0,2.6,0.5l-0.2,1.6c0,0.1,0.9,1.8,1.1,1.5c1.3-2.3,1.7-3,0.3-4.3c-0.6-0.6-2-0.9-2.7-0.9
		l-6.9,0c-3.1,0.1-4.5-0.7-4.3-1.5c1.3-0.2,3.8-0.2,8.2,0.8c2.5,0.5,3.8,0.2,4-1.1l0.2-1.2c0-0.3,0.2-0.6,0.5-1.1l0.7-1
		c0.4-0.5,1-2.2-0.1-3.3c-0.9-0.9-15.3-5.5-30-5.8c-14.6-0.4-27.9,0.9-39.8,3.8c-3,0.7-4.8,1.5-5.2,2.1c-0.6,0.8-0.3,2.1,0.7,3.6
		l1,3.2c0,0.3,0.6,1.2,1.7,1.4c0.5,0.1,2.5-0.3,6-1.1c2.4-0.5,3.7-0.6,3.9-0.2V20c-0.6,0.5-1.4,0.9-2.3,1.3
		c-0.7,0.2-1.1,0.3-1.3,0.3l-6.7-0.5c-0.4,0-2.9,1-3.2,2.3l0.4,3l0,0c0,0,0,0,0.1,0.1c0,0,0,0,0,0c0.8,0,1.4-0.5,2-1.5l-0.3-2
		c1.4-0.3,2.8,1.2,4.3,0.7c2.4-0.9,6.7-1.4,8.8,0.3c0.2-0.1,1.2-1.3,1.4-1.4c0.7-0.6,1-1.3,0.9-2c-0.1-0.9-0.9-2.2-2.3-3.9
		c4.2-2.1,31.4-3.1,44.9-0.3c-0.8,0.5-1,0.9-1.4,1.4c-0.9,1-1.3,2.6-1,3.8c0.2,0.7,0.9,1.3,2,1.8C148.4,23.7,149.4,22.8,151.4,22.4
		L151.4,22.4z M89,22.7l0.4,1.2v1c0,0.1-0.3,0.5-0.5,0.6c-0.1,0.1-0.2,0.1-0.4,0.1l-0.3-1.2C88.1,23.5,88.5,22.7,89,22.7L89,22.7z
		 M162.5,22.8c-0.1,0.8-0.7,2.3,0.1,2.8c0.1,0.1,0.2,0.1,0.4,0.1l0.3-1.2C163.4,23.6,163,22.8,162.5,22.8L162.5,22.8z M151.5,22
		l8.1,0.3h1.8l1.4,0.2c0-0.2-0.2-0.5-0.7-0.7c-0.4-0.3-1.1-0.4-1.9-0.4h-5l-3,0.1c-0.7,0.1-2.5-0.3-2.8-0.7l-1.1-1
		c-0.2-0.2-1.5,0.6-2.3,1.5c0,0.4,0.2,0.8,0.4,1.1c0.1,0.1,0.6,0.4,1,0.6C147.9,23.1,151.3,22,151.5,22L151.5,22z M145.8,21.1
		c0-0.5,0-1,0.1-1.5c0.3-1,1.3-2,2.4-3c1.6,0.1,10.2,2,12,3c-0.8,0.6-2.2,0.6-3.5,0.2c-4.6-1-7.7-1.1-9.6,0.1
		C146.8,20.1,146.3,20.5,145.8,21.1L145.8,21.1z M119.8,7.4h2l1.2,0c8-0.2,13.7-0.2,24.4,1.6c6.1,1,10.6,2.2,13.4,3.3
		c1.8,0.8,2.2,1.9,1.2,3.4l-0.7,1c-0.4,0.6-0.7,1.4-0.8,2.3c-4.3-1.5-15.7-4.1-24.7-4.6c-15.2-0.9-28.6,0.1-40.3,3.3
		c-1.9,0.5-3.4,1.1-4.4,1.6c-0.7,0.4-1.1,0.6-1.1,0.6c-0.2-0.5-0.3-0.8-0.3-1.1l-0.1-1.1c0-0.3-0.2-0.6-0.4-1l-0.7-0.9
		c-1.5-1.8-0.8-3.1,2-4c3.2-1,7.7-1.9,13.3-2.9C104.3,8.9,115.9,7.4,119.8,7.4L119.8,7.4z M104.6,20.4l-1.2-0.5l-1.2-0.4l-1.1-0.5
		c-0.3-0.1-2.5,0.1-6.4,0.9c-1.7,0.3-2.6,0.4-2.9,0.4c-0.3-0.1-0.5-0.1-0.6-0.1c0-0.1,0-0.1-0.1-0.1c1.3-1,4.4-2,9.3-3
		c0.9-0.2,1.4-0.3,1.6-0.2c0.1,0,1.5,1.6,1.9,2.2C104.3,19.5,104.4,19.9,104.6,20.4L104.6,20.4z M102.6,23.2
		c-2.9-1.1-6.8-0.2-9.7-0.4c-0.9-0.3-2-0.4-3.3-0.4v-0.2c0.5-0.3,2.2-0.4,5-0.3l3.7,0.2c0.3,0,1.4-0.5,3.2-1.5c0.6-0.3,1-0.5,1-0.5
		c0.1,0,2.1,0.8,2.2,1.1c0.1,0.3-0.4,0.9-1.1,1.4C103.2,22.8,102.9,23,102.6,23.2L102.6,23.2z M156,71.2c0,0,1.3-0.8,1-0.6
		c0.5-0.1,0.8-0.2,1-0.2c0.2,0,0.4,0.3,0.7,1c2.7-0.3,1.7-0.9,2.5-1.2c-0.1-0.8,0.3-2.4,1.4-1.9c0.7,0.3,1.1-0.2,0.7-0.7
		c-0.1-0.2-0.2-0.4-0.2-0.5c0.9-0.8,2.4-0.2,2,0.9c-0.1,0.2-0.3,0.2-0.6,0.2c-0.6,0-0.8,0.3-0.6,0.8c0.4,0.3,0.7,0.6,0.7,0.9
		c0,0.1-0.3,0.4-0.8,0.9c-0.7,0.6-0.1,1.5,0.1,2.3c0.2,0.4-0.7,2.5-3.4,3.6c-0.8,0.3-2.5,0.5-4.9,0.5c-1.5,2.2-2.1,3-4.3,3.9
		c-2.7,1-4,1.8-4.1,2.3c-0.1,0.7,0.7,0.9,2.3,0.5c3.5-0.8,9.5-3,10.6,0.8c0.7,1.6,0.2,4.6-1.8,5.2c-3.4,1.3-8.1-2.3-9.5-2.3
		c-2,3.9-5.4,5.1-10.1,3.7c-1.1-0.3-2.2-0.6-3.3-0.7c-0.4,0-0.7-0.1-1.1-0.2c-0.6,0.8-1.4,1.5-2.4,2.3c0,0,0,0.1,0,0.2
		c0.4,0.5,0.8,0.7,1.3,0.8l-0.4,0.5c-1.1,1.1-2.9-1-3.4-0.5c-0.1,0.3,0.4,0.7,0.4,0.8c-2.3-0.2-2.3-0.9-3.1-1.8
		c-0.2-0.3-0.7-0.5-1.3-0.6v0.2c0.7,0.5,0.9,0.8,0.7,1c-0.4,0.4-2-0.1-4.6-1.4c-0.4,0.5-0.6,1-0.6,1.6c0,1.3-1.2-0.3-1.8-0.1
		l-3.4,1.2c-0.6-0.5-0.3-1.3,1-2.6c0.4-0.5,0.7-0.8,0.7-1c0.1-1.1-0.5-1.2-2-0.2c-1.7,1.2-3.8,2.1-5.9,1.4c-1.8-0.6-4.1-1.1-4.7-3.1
		c-3.4,0.8-7.1,1.6-10.4,0.4c-0.3-0.4-0.6-0.5-0.8-0.6c-0.1,0.2-0.2,0.3-0.2,0.5l-1.2,0.8c-0.5-0.2-0.8-0.1-1,0.1
		c-0.1,0.1,0,0.9-0.1,0.9l-1.2-1.1c0.1-0.1,0.3-0.2,0.8-0.2c0.3-0.3,0.4-0.5,0.4-0.8c-1.1-0.5-0.7-1.3,1.1-2.4c0-0.1,0-0.3,0-0.4
		c-0.1-0.1-0.9-0.5-0.8-0.7c-0.1-0.7-0.3-1.6,0.4-2l1.8-1.2c0.6-0.4-0.6-1.9-1.8-1.6c-0.2-0.5-0.4-0.9-0.7-1
		c-1.9-0.9-3.4-2.9-3.1-5.3c0.6-0.6,0.9-1,0.9-1.3l-1.5-1.2c-0.2-0.2-0.1-0.5,0.4-1.1c0.3-0.4,0.2-0.7-0.3-1c0-0.1,0-0.2,0-0.4
		c0.2-0.3,0.5-0.5,0.9-0.6c0.7-0.2,1.1,0.4,0.5,0.7l0,0.4c0.1,0.2,0.2,0.2,0.3,0.2c0.8,0,1.4,0.6,1.4,1.4c0,0.1,0.5,0.2,1.6,0.5
		c0,0,0.1-0.1,0.1-0.2l0.1-1.1c1.3-1.1,1.6-1.4,3.1-2c0.2,0.1,0.3,0.6,0.3,1.4l2.1-0.8c2.9-1.6,2.9,1.7,1.7,1.2c0,0-0.1-0.2-0.3-0.5
		c0-0.1-0.1-0.2-0.2-0.2c-0.1,0-0.2,0-0.2,0c-0.1,0-0.2,0.1-0.3,0.3c0.4,0.4,0.6,0.7,0.7,1l2.5,4.1c0.8-0.5,1.8-1.2,2.8-2.3
		c0.3-0.3,0.6-0.6,1-0.9c0.5,0.1,0.9,0.3,1,0.5c0.4,0.6,0.9,1.2,1.7,1.4l1.6,1.7l1,0.9c0.7-1.2,1.2-1.8,1.5-1.8l2.1-0.3
		c1.6-0.4,2.9,0.1,4,1.7l0.7,1c0.4,0.5,5.4,3.7,7.9,3.1c1.5-1,3.8-2,5.2,0.1c1.4,0.9,2.1,1.2,2.2,0.7c0.8-2.5,2.9-5.5,5.4-5.2
		c0.5-0.1,0.8-0.3,0.9-0.6c0.3-1.2,2.7-2.9,3.9-0.5v0.2l-0.5,1.1l-0.4,1.1c-0.1,0.3-0.4,0.5-1,0.6c0.4,2.8-2,6-5,6.9
		c-0.5,0.1-1.1,0.7-1.6,1.5c0,0.2,2.5-0.6,2.6-0.6l4.4-1.9c0.2-0.1,0.6-0.2,1.1-0.2c0.1-0.4,0.1-0.7,0.2-1.1
		c0.3-2.3,1.2-4.5,2.6-6.4c0.6-0.8,4.8-3.2,7-1.7l0.6,0.4c0.9,0.6,2.9-1,2.9-1.6C155.3,72.7,155.4,72.4,156,71.2L156,71.2L156,71.2z
		 M119.5,82.9l0.4,0.1c0.3,0.1,2.6,1.6,3.8,3.3c-0.2,0.1-0.6,0-1.1-0.3l-0.3-0.2l-0.7,0.1l-0.7,0c-0.4,0-0.6,0-0.7,0.1l-2,0.2
		c-0.2,0-1.2-0.5-1.3-0.6c-0.4-0.5-0.3-1.6,0-1.6h0.5C117.9,86,120.3,84.5,119.5,82.9L119.5,82.9z M157.4,71.2
		c-0.7,0.1-1.2,0.8-0.6,1c1.1,0.6,1.6,0.4,1.2-0.4C157.8,71.4,157.6,71.2,157.4,71.2L157.4,71.2z M88.7,71.3c-0.2,0-0.3,0.1-0.5,0.2
		c-0.3,0.2-0.3,0.4,0.1,0.7c0.7,0.6,1.1,0.6,1.1-0.1c0-0.5,0-0.8-0.2-0.8H88.7L88.7,71.3z M92.7,72.1c0,0.3,0.3,0.5,0.4,0.5l1.1-0.2
		H94l-0.4-0.2v-0.3l0.1-0.2l0.1-0.2c0-0.1,0.1-0.1,0.1-0.2c-0.2-0.1-0.3-0.4-0.3-0.7c-0.5,0.1-0.8,0.2-0.8,0.4v0.2h0.5
		c0.1,0,0.1,0.1,0.1,0.2l-0.2,0.8l0,0l0,0.1c-0.1,0-0.2,0-0.3,0l-0.1,0L92.7,72.1L92.7,72.1z M94.4,72.2c0.1,0,0.2,0,0.3,0l0.1,0
		l1.4-0.5h1c0.2,0,0.5,0.5,0.5,0.6v1c-0.2,0-0.2,0-0.2,0.2v0.3c0,0,0.1,0.1,0.2,0.1h0.2c0,0,0.1-0.2,0.1-0.5c0-0.1,0.1-0.3,0.1-0.5
		c0.2-0.6,0.2-1.1,0.1-1.3c-0.6-1.6-3.2-0.4-3.3-0.1L94.4,72.2L94.4,72.2z M90.1,72.9h1.1c2.2,0,4.9,7.1,5.1,8.1
		c0.1,0.5,0,2.3,0.1,2.4l1.4-0.9c0.8-0.1,3.1,0.6,3.1,0.7l3.9,3.3h0.2c-0.1,0.3-0.2,0.7-0.2,1.1c0,0.5-0.1,0.8-0.3,0.8l-1.1,0.1
		c-0.2,0-7.5,0.6-8.3,0.3c-3.6-1.3-3.5-4.7-0.2-5.9c0-0.6-0.8-1.5-2.4-2.7c-2.6-1.8-3.7-3.6-3.5-5.3C89.1,73.5,89.5,72.9,90.1,72.9
		L90.1,72.9z M97,74.3c1.2,0.2,1.8,0,1.8-0.9c0.4,0.3,0.6,0.5,0.7,0.8l0.5,0.9l0.8,0.6c0.2,0.1-0.5,0.8-2.1,1.9l-1,0.8
		c-0.7,0.5-1.1,0.8-1.2,0.8c-0.1,0-0.3-0.1-0.3-0.4L96,78.3c0-0.1-0.1-0.2-0.3-0.4c0.3-0.8,0.2-1.2-0.2-1.2
		C95.4,76.2,96.8,74.3,97,74.3L97,74.3z M101.1,76.8c0.2-0.3,0.5-0.6,1.1-1.1l1.1-0.8l0.8-1c0.2-0.2,0.5-0.5,0.9-0.9
		c0.5,0.2,0.8,0.3,1,0.5l0.8,0.8l1.1,0.5c0.2,0.1,0.7,0.7,1.5,1.8c0.9,1.1,1.4,1.7,1.6,1.7l1.2,0.1c0.3,0,0.6,0.1,1.1,0.3l0.9,0.7
		c0.1,0.1,0.8,0.5,2,1.2c0.3,0.2,0.7,0.4,1,0.6l0,0.2c-1.6,0.2-2.5,1.6-2.6,2l-0.2,1.1c0,0.2-2.2,0.1-2.9-2.2h-0.3
		c-0.1,0.1-0.2,0.2-0.2,0.2l0,0.5l0.1,0.1c0.6,0.6-0.5,0.6-1.4,0.2l-0.2-0.7l-0.2,0l-0.3,0.9c-1.3,0.4-2,0.5-2,0.2v-1.1
		c0-0.1-0.1-0.1-0.3-0.1c-0.4,0.1-0.7,1.3-0.1,1.4c0,0.1-0.2,0.2-0.5,0.5c-0.4,0.3-0.7,0.5-0.8,0.8c-1,0-1.9-0.6-2.9-1.6
		c0.4-1.2,0.4-1.8,0-1.7c-0.2,0.1-0.4,0.3-0.5,0.6l-0.2,0l-0.2-0.2c-0.1-0.1-0.3-0.2-0.5-0.3v-0.9c0,0-0.1-0.1-0.3-0.2
		c-0.3,0.1-0.5,0.3-0.6,0.6c-0.5,0.1-0.9,0-1.3-0.3c0.3-1.2,0.1-1.4-0.6-0.6c-0.5,0.6-0.9,0.8-1.1,0.8c-0.3-0.5-0.5-1.1-0.4-1.7
		C96.9,79.6,101.1,76.7,101.1,76.8L101.1,76.8z M94.9,75.5c0-0.4-0.1-0.6-0.2-0.8L94,74.3c-0.4-0.3-0.5-0.6-0.5-1
		c2.3-0.9,3.4-1.2,3.4-0.7v0.3v0.3l-0.5,0.5l-0.4,0.6c-0.1,0.2-0.3,0.4-0.4,0.6l-0.4,0.6H94.9L94.9,75.5z M92.5,89.2V89l0.1-0.1
		c0,0,0.2-1.2-0.6-1.1c-0.9,0.1-1.2,0.7-0.6,1l0.4,0.2l0.3,0.3H92.5L92.5,89.2z M108.3,84.7l5.9,1c0.2,0.1,1.7,3.3,1.7,3.5
		c-2.2,2.6-9.8,3.7-10.5-1.1C105.2,86.2,106.2,85,108.3,84.7L108.3,84.7z M116.7,93v-0.3l0.6-0.7c0.5-0.6,0.7-1.1,0.6-1.7
		c0-0.1-0.5-0.7-1.3-1.8c-3.4-4.4,0.2-6.3,1.2-6.1c0.9,0.2,1.2,0.7,1,1.4c0,0.1-0.1,0.1-0.2,0.1c-1.6-2.3-4,0.6-1.9,2.3
		c0.7,0.6,1.8,0.8,3.4,0.5c1.9-0.3,3.2,0,4,1l0.8,1c0.2,0.2,0.6,0.4,1.2,0.4c0,0.1,0,0.1,0.1,0.1c-0.1,0.2-0.2,0.3-0.3,0.3h-1.8
		c0,0,0,0-0.1,0.1c0,0,0,0-0.1,0l0,0.1l-0.1,1c0,0.1-0.6,1-1.6,1c0,0,0-0.1-0.1-0.1c0.2-0.2,0.3-0.4,0.5-0.6
		c1.1-1.4,0.9-2.6-0.8-3.5c-0.8-0.5-2.7-0.6-3.2-0.2v0.3c0,0.2,0.1,0.2,0.3,0.2h1.4c1,0,2.9,1.7,1.9,2.5c-1.1-0.8-2.1-1.4-3-1.9
		c-1.1-0.5-1.8-0.8-2.1-1.1c-0.4-0.3-0.9-0.9-1.5-1.8c0,1.2,0.7,2.2,2,2.8l1.1,0.5c0.9,0.4,1.5,0.9,1.8,1.4l-0.5,3h-0.2
		c-0.1-0.1-0.2-0.2-0.2-0.3v-2.4c0-0.3-0.1-0.5-0.3-0.6h-0.3c0,0,0,0,0,0.1c0,0,0,0-0.1,0.1l-0.1,0v1.2
		C118.9,93,117.2,93.5,116.7,93L116.7,93z M124.6,92.6c0-0.2,0-0.3-0.1-0.5c-0.4-0.6-1.1-0.4-1.1-0.3v0.3c0,0.1,0.7,0.5,0.9,0.5
		H124.6L124.6,92.6z M124.6,91.2h1c0.5,0,1.5,0.7,2.9,2.2c0.1-0.1,0.1-0.3,0-0.7c-0.1-0.2-0.1-0.4-0.2-0.5c0,0,0.1,0,0.1-0.1
		c0.1,0,1.1,0.4,2.9,1.3l0,0v-0.2l-1-0.8c-1.2-1-1.8-1.5-2-1.5c-1.7-1-3.8-0.9-3.8-0.5V91.2L124.6,91.2z M128.7,89.8
		c-0.4-0.1-0.8,0.1-0.8,0.2h-0.5c-0.2,0-0.4-0.1-0.6-0.2c0.1-0.5,0.2-0.8,0.2-0.9c-0.2-0.1-0.3-0.1-0.5-0.2c-0.5-0.2-0.8-0.3-1-0.4
		v-0.2c0.2,0,1.2-0.5,3.1-1.4c1.2-0.6,2.2-0.6,3.2-0.2c0.7,0.3,1.2,0.7,1.5,1.2c-0.1,0.4-0.2,0.7-0.3,0.9l-0.2,0.4v1l0,0l0,0.1
		l0,0.1l0.2,0.6c-1.2,1.1-2,1.5-2.4,1.1l-0.8-0.6l-0.8-0.6L128.7,89.8L128.7,89.8z M122.9,80.6c0,0,0.4,0.1,1.2,0.3
		c1.3,0.4,2.7,0.2,4.2-0.4l1.1-0.5c0.3-0.1,1,0.2,2.3,1.1c0.9,0.7,1.6,1,1.9,1.2c0.1,1.1-0.4,2.3-1.4,3.5c-1.1-0.5-2.4-0.4-3.8,0.2
		c-1.8,0.8-2.8,1.2-3,1.2c-1.5-1.7-2.5-2.8-3.1-3.3c-1.3-1-3.2-2.2-5.8-3.6c-0.8-0.5-1.4-0.9-1.8-1.3v-2h-0.5c0,0,0,0.1,0,0.1
		c0,0,0,0.1-0.1,0.1l-0.1,0.1v1.1c0,0-0.2,0.3-0.7-0.2c-0.2-0.2-0.4-0.6-0.5-1.2h-0.2c-0.1,0.1-0.2,0.4-0.3,0.8
		c-0.6,0.3-1,0.2-1.4-0.2c0.4-1,0.8-1.6,1.1-2c0.2,0,0.8-0.1,1.9-0.3c0.6-0.1,2.2,0.1,2.4,0.2c0,0,0.3,0.3,0.8,0.9
		c1.2,1.3,2.1,2.1,2.7,2.4l1.1,0.6c0.2,0.1,0.6,0.3,1,0.6c-0.2,0.8,0.5,1.4,0.7,1.4h0.3c0,0,0-0.1,0.1-0.1c0-0.1,0-0.3-0.1-0.4
		C122.9,80.8,122.9,80.7,122.9,80.6L122.9,80.6z M138.6,76.6c0.4-0.1,0.8-0.1,1.2,0c0,0,0.1,0.3,0.3,0.8c0.1,0,0.6-0.3,1.4-0.8
		c-0.1-0.3-0.2-0.4-0.5-0.4c-0.2-1.2,1.4-2.2,2-1.5c0.7,0.9,0.1,1.9-1.9,3.2c0,0.1,0.1,0.2,0.3,0.3c1.3,1-1.3,4.8-3.6,5.7l-1.2,0.5
		c-0.3,0.1-0.6,0.3-1,0.7l-0.7,1c-0.2,0.2-0.4,0.5-0.8,0.8c-0.3,0.1-1.5-0.7-1.1-1.2l0.7-1c0-0.1,0.3-0.8,0.7-2.4
		C135.5,78.7,137.6,76.8,138.6,76.6L138.6,76.6z M136.9,87.1v0.5l0.1,0.1l0.1,0.1c0,0,0,0.1,0.1,0.1l0.5,0c0-0.2,0.1-0.3,0.3-0.3
		v-0.5c0-0.1-0.1-0.1-0.2-0.2c5.1-2.6,8.1-3.5,9-2.5c0,0.1,0,0.2-0.1,0.4c-0.1,0.1-0.2,0.2-0.2,0.3v1.5c0,0.3,0.5,0.7,1.4,1
		c0,0.3-0.7,2.5-4.1,3.3c-1.4,0.3-3.5,0-6.2-0.9v-0.3c0.4,0.1,0.5-0.1,0.5-0.5c-0.1,0-0.1,0-0.2,0l-0.1,0L137,89
		c-0.2,0.6-0.4,0.9-0.5,1l-2.6-0.2c-0.1,0-0.2-0.1-0.4-0.3C133.2,88.2,134.3,87.4,136.9,87.1L136.9,87.1z M154.6,83.5
		c5-0.5,5.2,3.5,5.1,3.9c-0.6,2.4-4.9,1.8-6.3,1.3c-0.1,0-0.5-0.2-1.1-0.5c-1.6-0.8-2.7-1.3-3.3-1.3l-1.2-0.2c-0.2,0-0.6-0.2-1-0.5
		c-0.2-0.7,0.5-1.1,2-1.3c0.8-0.1,1.6-0.3,2.3-0.5C152.5,83.9,153.7,83.6,154.6,83.5L154.6,83.5z M151.3,74.6
		c1.1-0.1,1.8,0.1,2.1,0.5v1.7c0.2,0.2,0.5,0.4,0.9,0.5c-0.2,1-1.3,2-3.4,2.9c-0.2,0.1-0.6,0.3-1.1,0.5c-1.8,0.8-3.1,1.7-3.8,2.7
		c-0.7,0-1.1-0.1-1.3-0.3c0-0.8,0.2-4.3,2.4-6.4C148.3,75.4,149.7,74.8,151.3,74.6L151.3,74.6z M160.9,71.2c0.5-0.1,1.9,0.1,2.2,1
		c0.3,1-0.1,4.2-6.6,4.3c-1.5,0-2.4,0-2.5-0.2c-0.3-0.3,0.1-0.8,0.2-0.8l1.2-0.1c0.3,0,1.3-0.7,2.8-2.1
		C159.5,72,160.4,71.3,160.9,71.2L160.9,71.2z M164.2,68c0.1,0,0.2-0.1,0.3-0.2c0.1-0.2,0.1-0.3-0.2-0.5c-0.6-0.3-0.8-0.2-0.7,0.3
		c0.1,0.4,0.1,0.5,0.2,0.5L164.2,68L164.2,68z M92.4,69.1l0.1,0.8c-0.1,0-0.2,0.1-0.2,0.3l-0.7,0c-0.3,0.9-0.9,0.4-0.9,0.2v-1.1
		c0-0.5,0.5-0.9,1.5-1.1l0.7-0.1l0.5-0.4h0.2h0.2c0.2,0,0.2,0.2,0.2,0.5c-0.1,0.6-0.5,0.8-1.4,0.8H92.4L92.4,69.1z M114,65.9
		c-0.1,0-0.2,0.1-0.2,0.2c0,0,0.1,0.1,0.2,0.3l-0.3,0.2l-1-1.6l0.3-0.2c0.1,0.2,0.4,0.6,0.4,0.6c0,0,0.2-0.1,0.2-0.1l1.6-1l-0.7-1
		c0-0.1-0.1-0.1-0.1-0.1c0,0-0.3-0.1-0.4-0.1l-0.2-0.3l0.8-0.2l1.6,2.5l-0.3,0.2c-0.1-0.2-0.2-0.3-0.2-0.3c0,0-0.1,0-0.1,0L114,65.9
		L114,65.9z M113.7,35c0,0-0.6,0.1-0.6-0.5c0-0.1,0-0.3,0-0.5h1.1c0.5,0,0.9-0.4,0.9-0.8c0-0.4-0.4-0.8-0.9-0.8h-1.1h-0.4h-0.6v0.4
		c0,0,0.3-0.1,0.3,0.3c0,0.4,0,1.6,0,1.6s-0.1,0.3-0.4,0.3v0.3h1.6L113.7,35L113.7,35z M113.1,32.6L113.1,32.6h0.8
		c0.2,0,0.4,0.2,0.4,0.4c0,0.2-0.2,0.4-0.4,0.4h-0.8C113.1,33.1,113.1,32.8,113.1,32.6L113.1,32.6z M117.8,35.3
		c0.9,0,1.7-0.7,1.7-1.5c0-0.8-0.7-1.5-1.7-1.5c-0.9,0-1.7,0.7-1.7,1.5C116.1,34.7,116.9,35.3,117.8,35.3L117.8,35.3z M117.8,32.7
		L117.8,32.7c0.3,0,0.7,0.5,0.7,1.1c0,0.6-0.4,1.1-0.7,1.1c-0.3,0-0.7-0.5-0.7-1.1C117.1,33.3,117.5,32.7,117.8,32.7L117.8,32.7z
		 M122.3,35c0,0-0.6,0.1-0.6-0.5c0-0.1,0-0.3,0-0.5h0.5l0.8,1.4c0,0,0.6,0.1,1-0.4l-0.1-0.2c0,0-0.4,0.3-0.5-0.1
		c-0.1-0.2-0.3-0.6-0.4-0.8c0.5,0,0.8-0.4,0.8-0.8c0-0.4-0.4-0.8-0.9-0.8h-1.1h-0.4h-0.6v0.4c0,0,0.3-0.1,0.3,0.3c0,0.4,0,1.6,0,1.6
		s-0.1,0.3-0.4,0.3v0.3h1.6L122.3,35L122.3,35z M121.7,32.6L121.7,32.6h0.8c0.2,0,0.4,0.2,0.4,0.4c0,0.2-0.2,0.4-0.4,0.4h-0.8
		C121.7,33.1,121.7,32.8,121.7,32.6L121.7,32.6z M130.2,35h-0.4l1.1-1.6l1.6,1.9l1.4-1.5l0.8,1.3h-0.5v0.2h2V35H136l-1.4-2l0,0v-0.6
		H134v0.4l-1.1,1.2l-1.3-1.6h-1.4v0.5h0.4l0,0L129,35h-0.3v0.2h1.5V35L130.2,35z M138.8,34.8h-0.2v-2h0.2v-0.5h-1.4v0.5h0.2v2h-0.2
		v0.5h1.4V34.8L138.8,34.8z M140.1,39c0,0-0.3-0.4,0.1-0.5c0.2-0.1,0.6-0.3,0.8-0.4c0,0.5,0.4,0.8,0.8,0.8c0.4,0,0.8-0.4,0.8-0.9
		v-1.1v-0.4v-0.6h-0.4c0,0,0.1,0.3-0.3,0.3c-0.4,0-1.6,0-1.6,0s-0.3-0.1-0.3-0.4h-0.3v1.6l0.3,0c0,0,0-0.6,0.5-0.6
		c0.1,0,0.3,0,0.5,0v0.5l-1.4,0.8c0,0-0.1,0.6,0.4,1L140.1,39L140.1,39z M141.4,36.9L141.4,36.9c0.3,0,0.6,0,0.8,0v0.8
		c0,0.2-0.2,0.4-0.4,0.4c-0.2,0-0.4-0.2-0.4-0.4V36.9L141.4,36.9z M140.1,39.7c0,0,0-0.1,0-0.3h-0.5v1.2h0.5c0-0.1,0-0.2,0-0.2
		c0,0,0,0,0,0l0.5,0.3v1.3c-0.4,0.2-0.5,0.3-0.5,0.3s0-0.5,0-0.5h-0.5v1.9h0.5c0-0.1,0-0.2,0-0.3c0,0,0.1-0.1,0.1-0.1l2.3-1.4V41
		L140.1,39.7C140.1,39.8,140.1,39.7,140.1,39.7L140.1,39.7z M140.9,41L140.9,41l0.6,0.3l-0.6,0.4V41L140.9,41z M141.7,44.8
		C141.8,44.9,141.7,44.9,141.7,44.8c0.2,0.1,0.2,0.1,0.2,0.1c0,0,0,0.1,0,0.2v1.1l-2.1-1.8c0,0-0.3-0.4-0.3,0.2s0,2.9,0,2.9l0.8,0.2
		v-0.6c-0.2-0.1-0.1-0.1-0.2-0.2c0,0-0.1-0.1-0.1-0.2v-0.9l2.1,1.8c0,0,0.3,0.2,0.3-0.3c0-0.5,0-2.9,0-2.9l-0.8-0.2V44.8L141.7,44.8
		z M140,52.1c0,0,0.1-0.1,0.1-0.1l2.3-1.4v-0.8l-2.3-1.2c0,0-0.1-0.1-0.1-0.1c0,0,0-0.1,0-0.3h-0.5v1.2h0.5c0-0.1,0-0.2,0-0.2
		c0,0,0,0,0,0l0.5,0.3v1.3c-0.4,0.2-0.5,0.3-0.5,0.3s0-0.5,0-0.5h-0.5v2h0.5C140,52.2,140,52.2,140,52.1L140,52.1z M140.9,49.7
		L140.9,49.7l0.6,0.3l-0.6,0.4V49.7L140.9,49.7z M139,55.4l0.4,0.1c0,0.2-0.1,0.3-0.1,0.3c0,0,0,0,0.1,0.1l1.7,0.5
		c0.1,0,0.2,0,0.2,0c0,0,0,0,0.1-0.1c0,0,0-0.1,0.1-0.2l0.4,0.1l-0.4,1.5l-0.4-0.1c0-0.1,0.1-0.2,0.1-0.3c0,0-0.1-0.1-0.2-0.1
		l-0.6-0.2l-0.3,1.3l0.6,0.2c0.1,0,0.2,0,0.2,0c0,0,0,0,0-0.1c0,0,0-0.1,0.1-0.2l0.4,0.1l-0.4,1.5l-0.4-0.1c0-0.2,0.1-0.3,0.1-0.3
		c0,0-0.1-0.1-0.2-0.1l-1.7-0.5c-0.1,0-0.1,0-0.1,0c0,0,0,0-0.1,0.1c0,0,0,0.1-0.1,0.2L138,59l0.4-1.5l0.4,0.1
		c0,0.1-0.1,0.2-0.1,0.3c0,0,0,0,0.1,0.1l0.7,0.2l0.3-1.3l-0.7-0.2c-0.1,0-0.1,0-0.1,0c0,0,0,0,0,0.1c0,0,0,0.1-0.1,0.2l-0.4-0.1
		L139,55.4L139,55.4z M138,60.4c0,0,0,0.1,0,0.1l1.6,2.1l-0.3,0.8l-2.6,0.3c-0.1,0-0.1,0-0.2,0.1c0,0-0.1,0.1-0.1,0.2l-0.5-0.2
		l0.8-1.8l0.5,0.2c0,0-0.2,0.5-0.2,0.5s0.1,0,0.6,0l0.5-1.2l-0.3-0.4c0,0,0,0,0,0c0,0,0,0.1-0.1,0.2l-0.5-0.2l0.5-1.1l0.5,0.2
		C138,60.3,138,60.3,138,60.4L138,60.4z M138.8,62.4L138.8,62.4l-0.7,0.1l0.3-0.6L138.8,62.4L138.8,62.4z M137,65.9
		c0.3,0.2,0.5-0.1,0.5-0.1l0.3,0.2l-0.4,0.5l-0.2,0.3l-0.1,0.1l-0.7,0.9c-0.3,0.4-0.8,0.5-1.2,0.2c-0.2-0.1-0.3-0.3-0.3-0.6
		c-0.3,0.2-0.6,0.2-0.9,0c-0.4-0.3-0.4-0.8-0.1-1.3l0.4-0.5l0,0l1-1.4l0.2,0.2c-0.2,0.3,0,0.5,0,0.5S136.7,65.7,137,65.9L137,65.9z
		 M134.8,66.8L134.8,66.8c-0.2-0.1-0.2-0.4-0.1-0.6l0.4-0.6c0.1,0,0.2,0,0.3,0.1c0.1,0.1,0.3,0.2,0.4,0.3l-0.5,0.7
		C135.2,66.9,135,67,134.8,66.8L134.8,66.8z M136.5,67.4L136.5,67.4c-0.1,0.2-0.4,0.2-0.6,0.1c-0.2-0.1-0.2-0.4-0.1-0.6l0.4-0.6
		c0.3,0.2,0.5,0.4,0.7,0.5L136.5,67.4L136.5,67.4z M134.6,69.4c0,0,0.1-0.1,0.3-0.2l0.3,0.3l-1.4,1.3l-0.3-0.3
		c0.2-0.1,0.5-0.5,0.5-0.5c0,0-0.1-0.1-0.1-0.2l-1.3-1.4l-0.9,0.8c-0.1,0.1-0.1,0.1-0.1,0.2c0,0-0.1,0.3,0,0.4l-0.3,0.3l-0.4-0.7
		l2.2-2.1l0.2,0.3c-0.1,0.1-0.2,0.2-0.2,0.2c0,0,0,0.1,0.1,0.1l1.2,1.3C134.4,69.4,134.5,69.5,134.6,69.4L134.6,69.4z M130.6,70.4
		c-0.1,0.1-0.2,0.1-0.2,0.1c0,0,0,0.1,0,0.1l0.2,2.6l-0.7,0.4l-2.4-1.2c-0.1,0-0.1,0-0.2,0c0,0-0.1,0.1-0.2,0.1l-0.3-0.4l1.6-1
		l0.3,0.4c0,0-0.4,0.3-0.4,0.3s0.1,0.1,0.5,0.3l1.1-0.7l0-0.6c0,0,0,0,0,0c0,0-0.1,0.1-0.2,0.1l-0.3-0.4l1-0.6L130.6,70.4
		L130.6,70.4z M129.2,72.4l0.7,0.3l-0.1-0.7L129.2,72.4L129.2,72.4L129.2,72.4z M124.7,72.7l0.1-0.3l1.5,0.4l-0.1,0.3
		c-0.3-0.1-0.4,0.2-0.4,0.2s-0.3,1.2-0.5,1.6c-0.1,0.4,0.2,0.4,0.2,0.4l-0.1,0.4l-0.5-0.2l-1.5-0.4c-0.5-0.1-0.7-0.6-0.6-1
		c0.1-0.4,0.6-0.6,1-0.5c-0.1-0.2-0.2-0.6-0.2-0.9c-0.1-0.3-0.5-0.2-0.5-0.2l-0.1-0.2c0.5-0.3,1-0.1,1-0.1l0.4,1.5l0.5,0.1
		c0.1-0.2,0.1-0.4,0.1-0.5C125.2,72.8,124.7,72.7,124.7,72.7L124.7,72.7z M124.6,75.2c0.1-0.2,0.1-0.5,0.2-0.8l-0.7-0.2
		c-0.2-0.1-0.4,0.1-0.5,0.3c-0.1,0.2,0.1,0.4,0.3,0.5L124.6,75.2L124.6,75.2L124.6,75.2z M122,70.9l1,0.7l-0.3,0.4
		c-0.1-0.1-0.2-0.1-0.2-0.1c0,0-0.1,0-0.1,0l-2.4,1.2l-0.7-0.5l0.2-2.7c0-0.1,0-0.1,0-0.2c0,0-0.1-0.1-0.2-0.2l0.3-0.4l1.6,1.1
		l-0.3,0.4c0,0-0.4-0.3-0.4-0.3s0,0.1-0.1,0.6l1,0.7l0.5-0.3c0,0,0,0,0,0c0,0-0.1-0.1-0.2-0.1L122,70.9L122,70.9z M119.2,73.1
		c0,0,0.3-0.1,0.3-0.1c0,0,0-0.1,0-0.1c-0.1,0-0.4,0-0.5,0c0,0,0,0,0,0C119.1,73,119.2,73.1,119.2,73.1L119.2,73.1z M120.3,72.2
		L120.3,72.2l0.1-0.7l0.6,0.4L120.3,72.2L120.3,72.2z M110.9,60C110.8,60,110.8,60,110.9,60c-0.1,0.1-0.1,0.1-0.1,0.2
		c0,0,0,0.1,0.1,0.2l-0.3,0.1l-0.8-2.4l0.7-0.4l0.1,0.4l-0.2,0.1c0,0-0.1,0-0.1,0.1c0,0,0,0.1,0,0.1c0,0,0,0,0,0.1l0.3,0.9l0.7-0.2
		l-0.4-1.1l0.4-0.1l0.4,1.1l0.9-0.3l-0.3-0.8c0-0.1-0.1-0.3-0.2-0.3c0,0-0.1,0-0.1,0c0,0-0.1,0-0.3,0l-0.1-0.4l0.8-0.1l0.8,2.5
		l-0.3,0.1c-0.1-0.2-0.1-0.3-0.1-0.3c0,0-0.1,0-0.1,0L110.9,60L110.9,60z M110.9,53.7c0.3,0,0.5,0.1,0.7,0.4
		c0.2,0.3,0.4,0.6,0.4,1.2c0,0.5,0,0.6-0.1,1.1c-0.2,0.1-0.5,0.2-0.8,0.3l-0.2-0.5c0.3-0.1,0.5-0.3,0.6-0.4c0.1-0.1,0.1-0.4,0-0.7
		c0-0.1,0-0.3-0.1-0.4c-0.1-0.1-0.1-0.1-0.2-0.1c-0.1,0-0.2,0.1-0.2,0.1c-0.1,0.1-0.1,0.3-0.2,0.5c0,0.2-0.1,0.4-0.1,0.6
		c-0.2,0.6-0.4,0.9-0.8,1c-0.3,0-0.5-0.1-0.7-0.5c-0.2-0.3-0.3-0.7-0.3-1.2c0-0.4,0-0.7,0.1-1.1c0.2-0.1,0.5-0.1,0.8-0.3l0.1,0.5
		c-0.2,0.1-0.5,0.2-0.5,0.3c0,0.1,0,0.8,0,1c0,0.3,0.2,0.4,0.3,0.4c0,0,0.1,0,0.1-0.1c0-0.1,0.1-0.3,0.2-0.5
		c0.1-0.4,0.1-0.5,0.1-0.6c0.1-0.3,0.2-0.6,0.3-0.8C110.5,53.8,110.7,53.7,110.9,53.7L110.9,53.7z M109.3,52.9c0.4,0,1.6,0,1.6,0
		s0.3,0.1,0.3,0.4h0.3v-1.6l-0.3,0c0,0,0.1,0.6-0.5,0.6c-0.1,0-0.3,0-0.5,0v-1.1c0-0.5-0.4-0.9-0.8-0.9c-0.4,0-0.8,0.4-0.8,0.9v1.1
		v0.4v0.6h0.4C108.9,53.3,108.9,52.9,109.3,52.9L109.3,52.9z M108.8,51.5L108.8,51.5c0-0.2,0.2-0.4,0.4-0.4c0.2,0,0.4,0.2,0.4,0.4
		v0.8c-0.3,0-0.6,0-0.8,0V51.5L108.8,51.5z M108.5,48.5v0.7c0-0.1-0.2-0.3-0.3-0.4c0,0,0,0,0,0c0,0-0.1,0.2-0.1,0.2
		c0,0,0.2,0.2,0.3,0.2c0,0,0.1-0.1,0.1-0.1v0.7h0.5v-0.2h2v0.2h0.5v-1.4H111v0.2h-2v-0.2H108.5L108.5,48.5z M109.2,47.2
		c0.4,0,1.6,0,1.6,0s0.3,0.1,0.3,0.4h0.3v-1.6l-0.3,0c0,0,0,0.6-0.5,0.6c-0.1,0-0.3,0-0.5,0V46l1.4-0.8c0,0,0.1-0.6-0.4-1l-0.2,0.1
		c0,0,0.3,0.4-0.1,0.5c-0.2,0.1-0.6,0.3-0.8,0.4c0-0.5-0.4-0.8-0.8-0.8c-0.4,0-0.8,0.4-0.8,0.9v1.1v0.4v0.6h0.4
		C108.9,47.5,108.8,47.2,109.2,47.2L109.2,47.2z M108.8,45.7L108.8,45.7c0-0.2,0.2-0.4,0.4-0.4c0.2,0,0.4,0.2,0.4,0.4v0.8
		c-0.3,0-0.6,0-0.8,0V45.7L108.8,45.7z M109,43.3h2v0.2h0.5v-1.4H111v0.2h-2v-0.2h-0.5v1.4h0.5V43.3L109,43.3z M109.4,41.6v-0.3
		h-0.3v-0.8h1.9V41h0.4V39H111v0.5h-1.9v-0.8h0.3v-0.3h-0.3h-0.6v3.1h0.3H109.4L109.4,41.6z M109,37.8l2.5-1.6l-2.5-2v-0.5h-0.4v1.4
		h0.4v-0.4l1.4,1.1l-1.4,0.9v-0.1h-0.4v1.6h0.4V37.8L109,37.8z M115.6,65.8l0.8-0.4l1.7,2.1l-0.3,0.2c-0.1-0.1-0.2-0.2-0.2-0.2
		c0,0-0.1,0-0.1,0l-1.5,1.2c0,0-0.1,0.1-0.1,0.1c0,0,0,0.1,0,0.1c0,0,0.1,0.1,0.1,0.2l-0.3,0.2l-1.6-2l0.5-0.6l0.3,0.3l-0.1,0.2
		c0,0-0.1,0.1-0.1,0.1c0,0,0,0.1,0,0.1c0,0,0,0,0,0l0.6,0.8l0.6-0.5l-0.7-0.9l0.3-0.3l0.7,0.9l0.8-0.6l-0.5-0.7c0,0-0.2-0.2-0.2-0.2
		c0,0-0.1,0-0.1,0c0,0-0.1,0-0.2,0.1L115.6,65.8L115.6,65.8z M143.6,49.8C143.6,49.8,143.6,49.9,143.6,49.8
		c-0.2,6.6-2,12.6-5.4,17.6c-3.3,4.9-7.8,8.3-12.7,9.7c0,0,0,0-0.1,0c-4.9-1.4-9.4-4.8-12.7-9.7c-3.3-5-5.2-11.1-5.3-17.6
		c0,0,0,0,0,0V31.2c0-0.1,0-0.1,0.1-0.1h36c0.1,0,0.1,0,0.1,0.1V49.8L143.6,49.8z M142.9,49.7L142.9,49.7
		C142.8,49.7,142.8,49.8,142.9,49.7c-0.3,12.9-7.4,23.8-17.4,26.7c-9.9-2.9-17-13.8-17.3-26.6c0,0,0-0.1,0-0.1V31.8h34.7V49.7
		L142.9,49.7z M134.2,48.2c-0.1-0.1-0.1-0.2-0.2-0.3c-0.1-0.1,0.1-0.3,0.1-0.3c0.6-0.2,0.6,0.3,0.5,0.5
		C134.5,48.4,134.3,48.3,134.2,48.2L134.2,48.2z M132.6,43.3c-0.1,0-0.2-0.5-0.2-0.5s-0.1-0.2,0.4-0.2c0.4-0.1,0.3,0,0.6,0.4
		c0.2,0.4,0,0.4-0.1,0.4C133,43.4,132.7,43.3,132.6,43.3L132.6,43.3z M127.5,42.9c0.3,0,0.1,0.4-0.2,0.4c-0.2,0.1-0.4,0-0.7-0.3
		c-0.2-0.4,0.2-0.3,0.2-0.3C127.1,42.7,127.2,42.9,127.5,42.9L127.5,42.9z M123.9,40.9c-0.4,0.1-0.3-0.1-0.4-0.3
		c-0.2-0.2,0.1-0.4,0.1-0.4s0.7,0,1.2-0.2c0.5-0.2,1,0,1.3,0.2c0.4,0.1,0.3,0.1,0.8,0.7c0.5,0.5,0.8,0.5,1.4,0.9
		c0.7,0.4,0.3,0.4,0.1,0.7c-0.2,0.3-0.5,0.2-1.3,0c-0.8-0.2-0.5-0.4-0.4-0.6c0-0.2-0.3-0.2-0.5-0.4c-0.2-0.2-0.6-0.4-1-0.3
		c-0.4,0.1-0.4,0-0.7-0.3C124.2,40.6,124.3,40.8,123.9,40.9L123.9,40.9z M130.2,43c-0.3,0.2-0.8,0.2-0.8,0.2
		c-0.3-0.1,0.4-0.8,0.7-0.9c0.3,0,0.2-0.1,0.5-0.3c0.3-0.1,0.6-0.2,0.8,0.1c0.2,0.2,0.4,0.4,0.3,0.7c-0.2,0.3-0.4,0.3-0.6,0.3
		C130.7,43,130.5,42.8,130.2,43L130.2,43z M138.3,36.6L138.3,36.6c0,1.2,0,12.9,0,12.9c0,0.1,0,0.1,0,0.2c0,0.4,0,0.8-0.1,1.2
		c-0.4-0.4-1-0.6-1.4-1c-0.4-0.5-1-0.8-1.2-0.9c-0.2-0.1-0.3-0.3-0.9-0.2c-0.6,0.1-1,0-1.1-0.6c-0.1-0.6-0.1-1.1-0.6-1.4
		c-0.6-0.3-0.9-0.7-1.3-1c-0.4-0.3-0.8-0.9-1-0.9c-0.2-0.1-1.2,0.1-1.2,0.1s-0.6-0.6-1.5-0.4c0,0-0.6-0.9-1.2-0.4
		c-0.6,0.5-1.1,0.8-1.5,0.3c-0.4-0.5-1-0.3-1.4-0.2c-0.4,0.1-0.8-0.7-0.9-1c-0.1-0.3,0-0.8-0.2-0.8c-0.2,0-0.8,0.2-1.2-0.1
		c-0.4-0.3-0.2-0.6-0.1-0.9c0.2-0.3,0.4-1.3,0.3-1.5l-0.5-0.1c0,0-0.6-0.1-0.7,0.3c-0.1,0.4-0.8,0.8-1.4,0.7c-0.6-0.2-1-0.5-1.2-1.1
		c-0.2-0.6-0.2-0.9-0.1-1.2c0.1-0.3-0.4-0.9-0.5-1c-0.2-0.2-0.2,0.1-0.5-0.4c-0.2-0.3-0.4-0.5-0.6-0.7H138.3L138.3,36.6z
		 M112.7,36.9L112.7,36.9c0.1,0.2,0.2,0.3,0.2,0.4c0.2,0.3,0.7,1.2,0.7,1.2s0,0.4-0.1,0.5c-0.2,0.1,0.2,0.3,0.3,0.4
		c0.1,0.2,0.4,0.6,0.6,0.7c0.2,0.1,0.3-0.2,0.1-0.5c-0.2-0.3-0.4-0.9-0.4-0.9s-0.1-0.4-0.2-0.7c-0.2-0.4-0.3-0.8-0.3-0.8
		s0.9,0.2,1,0.7c0,0.2,0.3,1.4,0.6,2.1c0.2,0.4,0.4,0.7,0.7,1.1c0.3,0.4,0.9,0.9,1.6,1.1c0.7,0.2,1.5-0.3,1.9,0
		c0.4,0.3,1,0.9,1.5,1.1c0.5,0.2,1.7,0.4,2,0.9c0.3,0.5,0.9,0.6,1.2,0.6c0.3,0.1,1.3,0.5,1.3,1.4l-0.8,1.7c0,0-0.6,0.7-0.7,1.3
		c-0.1,0.6-0.4,1,0.2,1.9c0.6,0.9,1,2.1,1.1,2.9c0.1,0.8,0.8,0.9,1.3,1.3c0.5,0.4,0,0.7-0.3,1.5c-0.3,0.8-0.2,2.4-0.5,3.4
		c-0.3,1-0.7,1.4-0.7,2.2c0,0.8,0.1,1.7-0.3,2.4c-0.3,0.7-0.1,1.4-0.2,2.2c-0.1,0.8,0.2,1.7,0.7,2.4c0.5,0.7,1.7,1,1.5-0.1
		c-0.2-1,0-2.4,0.7-3c0.6-0.7,0.6-0.7,0.6-0.7s-0.1-1,0.5-1.4c0.6-0.4,1-0.7,0.7-0.9c-0.4-0.2,0-0.5,0.4-0.5c0.4,0,0.5,0.2,1.3-0.8
		c0.8-1,1.1-1.2,1.9-1.6c0.8-0.5,1.1-1.4,1.6-1.9c0.5-0.5,1.4-1,2-1.1c0.6-0.1,0.9-0.7,0.9-1.3c0-0.7-0.2-1.1,0.3-1.8
		c0.4-0.7,0.2-0.9,0.6-1.2c-1.1,8.5-6,15.9-12.5,18.4c-7.3-2.9-12.5-11.7-12.8-21.6c0-0.1,0-0.2,0-0.2
		C112.7,49.5,112.7,39.1,112.7,36.9z"/>
</g>
</svg>
