<?xml version="1.0" encoding="utf-8"?>
<!-- Generator: Adobe Illustrator 27.7.0, SVG Export Plug-In . SVG Version: 6.00 Build 0)  -->
<svg version="1.1" id="Layer_1" xmlns="http://www.w3.org/2000/svg" xmlns:xlink="http://www.w3.org/1999/xlink" x="0px" y="0px"
	 viewBox="0 0 252 126" style="enable-background:new 0 0 252 126;" xml:space="preserve">
<style type="text/css">
	.st0{fill:#00205B;}
	.st1{fill:#FFFFFF;}
	.st2{fill:#003B71;}
	.st3{fill:#FFD100;}
</style>
<g id="Group_159" transform="translate(0 0.1)">
	<g id="Group_1" transform="translate(58.566 5.311)">
		<path id="Path_1" class="st0" d="M22.3,40.4c2,1.4,3.2,3.6,3.2,6c0.1,2.3-1,4.5-2.9,5.7c-0.9,0.7-2,1.3-3.1,1.7
			c-0.2,0.1-0.1,0.5,0.1,1c1.8,3.1,3.7,6.1,5.8,9c1.1,1.6,2.3,3,3.7,4.4c1,1.2,2.4,1.9,4,2.1c0.4,0,0.7,0.2,0.7,0.3
			s-0.2,0.2-0.6,0.4c-0.6,0.2-1.3,0.2-1.9,0.2c-3.1,0-5.1-1.7-7-4c-2.6-3.3-6.8-10.2-7.6-11.1c-0.4-0.5-0.9-0.9-1.5-1.1
			c-0.8-0.2-1.7-0.3-2.6-0.2c-0.3,0-0.5,0.2-0.5,0.4c-0.1,0.5-0.2,7-0.1,8.9c0,1.5,0.1,3.1,0.4,4.6c0.2,0.6,0.5,1.1,2.4,1.4
			c0.5,0.1,0.8,0.2,0.8,0.4c0,0.2-0.4,0.4-1,0.4c-1.1,0-2-0.2-3.7-0.2c-1.9,0-3.3,0.2-4.3,0.2c-0.5,0-0.9-0.1-0.9-0.4
			c0-0.2,0.4-0.3,1-0.5c1.5-0.3,2.1-0.8,2.3-2.9c0.2-2.9,0.3-6.6,0.3-13.9c0-7-0.2-9.7-0.3-11.3c-0.1-1.4-0.2-2.1-2.3-2.5
			c-0.5-0.1-0.9-0.2-0.9-0.5c0-0.2,0.2-0.3,0.9-0.3c0.7,0,1.9,0.2,3.7,0.2c1.9,0,3.7-0.2,5.4-0.2C18.6,38.6,20.6,39.2,22.3,40.4z
			 M12.2,39.7c-0.1,0.1-0.2,0.1-0.3,0.8c-0.1,1-0.1,11.7-0.1,12.4s0.2,0.9,0.4,0.9c0.5,0.1,0.9,0.1,1.4,0.1c1.5,0,4.6-0.4,5.7-1.1
			c1.9-1.3,3-3.5,3-5.8c0-2.7-0.8-4.6-2.1-5.8c-1.4-1.2-3.2-2-6.2-2C13.2,39.3,12.7,39.5,12.2,39.7z"/>
		<path id="Path_2" class="st0" d="M27.6,57.8c0-3,1.2-5.9,4.5-8.4c4.9-3.6,11.9-2.5,15.5,2.4c1.4,1.8,2.1,4.1,2.1,6.4
			c0,4.2-2.5,8-6.4,9.6c-1.4,0.6-3,1-4.6,1C32.6,68.8,27.7,63.9,27.6,57.8z M43.4,66.8c2.4-2.1,3.7-5.2,3.6-8.4c0.1-2.9-0.9-5.8-3-8
			c-1.6-1.6-3.7-2.5-6-2.5c-2,0.1-3.8,1-5.2,2.4c-1.8,1.9-2.4,4.7-2.4,7.6c0,2.5,0.9,4.9,2.5,6.9c1.5,2,4,3.2,6.5,3.2
			C40.9,68.1,42.2,67.6,43.4,66.8z"/>
		<path id="Path_3" class="st0" d="M69.9,48.5c0.2,0.1,0.4,0.3,0.4,0.6c-0.1,0.8,0.1,2.4,0.1,2.7c0.1,0.5-0.1,0.9-0.2,0.9
			c-0.2,0-0.2-0.2-0.3-0.5C69.6,51,68.9,50,68,49.3c-1.5-1-3.3-1.5-5.2-1.4c-2.3,0-4.5,0.9-6.2,2.5c-1.7,2.1-2.7,4.7-2.6,7.4
			c0,2.8,1.1,5.4,3,7.4c1.7,1.7,4,2.6,6.4,2.7c1.4,0.1,2.8-0.2,4-0.9c1.2-0.8,2.2-1.9,2.8-3.3c0.2-0.4,0.2-0.6,0.4-0.6
			c0.1,0,0.2,0.4,0.2,0.7c-0.1,0.8-0.3,1.5-0.5,2.2c-0.1,0.4-0.2,0.8-0.5,1.1c-2.1,1.2-4.4,1.8-6.8,1.7c-4.3,0-6.6-1.2-8.8-3.2
			c-1.9-2-3-4.7-3-7.4c0-3.2,1.5-6.2,4-8.2c2.3-1.7,5.1-2.7,7.9-2.7C65.3,47.3,67.6,47.7,69.9,48.5z"/>
		<path id="Path_4" class="st0" d="M74.2,50.8c0-1.4-0.2-2.1-1.7-2.4c-0.4-0.1-0.8-0.2-0.8-0.4s0.4-0.2,0.8-0.2
			c0.6,0,1.7,0.1,2.8,0.1c0.9,0,2.6-0.1,3-0.1c0.4,0,0.7,0.1,0.7,0.2c0,0.2-0.4,0.4-0.7,0.4c-1.1,0.2-1.5,0.7-1.5,1.7
			c0,0.7-0.1,6.1-0.1,6.5c0.1,0.3,0.1,0.6,0.3,0.6h9.2c1.2,0.1,2.3,0,3.5-0.1c0.2-0.1,0.3-0.2,0.4-0.4c0.1-0.5,0.1-4.6,0-5.8
			c-0.1-1.9-0.4-2.4-1.6-2.5c-0.4-0.1-0.8-0.2-0.8-0.4c0-0.2,0.4-0.3,0.8-0.3c1.5,0,1.6,0.1,3,0.1c1.1,0,1.8-0.1,2.7-0.1
			c0.6,0,0.9,0.1,0.9,0.2c0,0.1-0.2,0.3-0.7,0.4c-1.5,0.2-1.8,0.9-1.8,2.2c0,0.8-0.1,5.8,0,8s0.1,5.4,0.1,6.4c0,1.8,0.2,2.2,2,2.6
			c0.4,0.1,0.7,0.2,0.7,0.4c0,0.2-0.3,0.2-0.8,0.2c-0.6,0-2.5-0.1-3.2-0.1c-1,0-2.3,0.1-2.8,0.1c-0.6,0-0.9-0.1-0.9-0.2
			c0-0.2,0.4-0.3,0.7-0.4c1.3-0.2,1.6-0.4,1.7-1.7c0.1-0.6,0.1-3.2,0.1-6.8c0-0.4-0.2-0.7-0.4-0.7c-0.6-0.1-2.6-0.1-7.2-0.1h-5.7
			c-0.2,0-0.3,0.2-0.3,0.7c0,6.8,0.1,7.3,0.2,7.6c0.1,0.7,0.5,0.8,1.5,1.1c0.5,0.1,0.8,0.2,0.8,0.4c0,0.2-0.6,0.2-0.8,0.2
			c-0.7,0-2.1-0.1-3.2-0.1c-1,0-2.1,0.1-2.7,0.1c-0.4,0-0.9-0.1-0.9-0.3c0-0.1,0.4-0.3,0.8-0.4c1.5-0.3,1.5-0.7,1.6-1.6
			c0.1-0.9,0.1-3,0.1-8.1v-7H74.2z"/>
		<path id="Path_5" class="st0" d="M96.9,48.1c0-0.2,0.2-0.3,0.5-0.3c0.9,0,2.1,0.1,2.9,0.1c1.9,0,6-0.1,7.4-0.1
			c1.2,0,2.4-0.1,2.7-0.1c0.2,0,0.3,0.3,0.4,0.5c0.1,0.4,0.2,1.9,0.2,2.5c0.1,0.4-0.1,0.6-0.2,0.6c-0.1,0-0.2-0.2-0.4-0.5
			c-0.7-1.5-1.2-2-1.8-2.1c-2.2-0.2-4.4-0.2-6.5-0.1c-0.2,0-0.4,0.1-0.4,0.5c0,1.8-0.1,6.8,0,7.7c0,0.2,0.1,0.4,0.2,0.4h3.8
			c1,0.1,1.9,0,2.9-0.4c0.2-0.1,0.5-0.4,0.8-1.2c0.1-0.2,0.2-0.5,0.4-0.5c0.1,0,0.2,0.2,0.2,0.6c0,0.2-0.2,1.5-0.2,2
			c-0.1,0.7-0.1,1.3,0,2c0.1,0.3-0.1,0.7-0.2,0.7c-0.2,0-0.2-0.2-0.5-0.7c-0.2-0.5-0.4-1.2-1-1.3c-0.5-0.1-1.5-0.2-6.3-0.2
			c-0.1,0-0.2,0.1-0.2,0.4c-0.1,1.1,0.1,6.4,0.1,7c0.1,1.2,0.1,1.8,0.9,1.9c0.4,0.1,1.7,0.1,3.6,0.1c3.2,0,3.5-0.2,4-0.6
			c0.6-0.6,1.1-1.3,1.5-2c0.2-0.4,0.4-0.6,0.5-0.6c0.2,0,0.2,0.3,0,0.9c-0.1,0.4-0.7,2.2-0.8,2.6c-0.1,0.3-0.3,0.4-0.6,0.5
			c-3.7,0-7.3-0.1-10.5-0.1c-1.1,0-2.6,0.1-3,0.1c-0.4,0-0.9,0-0.9-0.2c0-0.2,0.4-0.3,0.7-0.4c1.2-0.2,1.7-0.6,1.8-1.9
			c0.1-2.1,0.1-5.9,0.1-9.2v-5.8c0-1.7-0.5-2.1-1.7-2.4C97.2,48.4,97,48.2,96.9,48.1L96.9,48.1z"/>
		<path id="Path_6" class="st0" d="M117.2,51.7c0.1,1.5,0.9,2.9,2.2,3.7c1.2,0.8,2.4,1.5,3.7,2.3c1.3,0.9,3.5,2.4,3.5,5.1
			c0,3.7-3.5,5.9-7,5.9c-1.6,0-3.2-0.3-4.7-1c-0.4-0.1-0.5-0.7-0.7-1.2c-0.1-0.6-0.2-1.2-0.2-2.4c-0.1-0.4,0-0.7,0.2-0.7
			c0.2,0,0.4,0.3,0.6,0.8c0.3,1,0.8,2,1.7,2.7c1,0.7,2.1,1.1,3.3,1.1c2.7,0,4.3-1.7,4.3-4c0-2.4-1.3-3.5-4.3-5.3
			c-2.5-1.5-4.8-3.3-4.8-6.1c0-1.6,0.8-3.2,2.1-4.2c1.3-0.9,2.9-1.3,4.5-1.3c1.2,0,2.5,0.3,3.6,0.7c0.2,0,0.4,0.2,0.4,0.4
			c0,0.8,0.1,1.6,0.2,2.4c0.1,0.5,0.1,0.8-0.1,0.8c-0.2,0-0.3-0.2-0.4-0.7c-0.3-0.8-0.7-1.6-1.4-2.1c-0.8-0.6-1.8-1-2.9-1
			C119.4,47.9,117.2,48.8,117.2,51.7z"/>
		<path id="Path_7" class="st0" d="M143.2,47.9c0.9,0.1,1.9,0,2.8-0.3c0.2-0.1,0.4-0.2,0.5-0.2c0.1,0.1,0.1,0.2,0.1,0.4
			c-0.2,1-0.3,2.1-0.2,3.2c0,0.5-0.1,0.8-0.2,0.8c-0.1,0-0.2-0.3-0.3-0.5c-0.1-0.7-0.3-1.3-0.7-2c-0.2-0.4-0.4-0.5-1.4-0.5h-5.2
			c-0.2,0-0.2,0.4-0.2,0.6l-0.1,11.5c0,1.9,0,4.2,0.1,5.2c0.1,1,0.6,1.3,1.8,1.5c0.5,0.1,0.8,0.2,0.8,0.4c0,0.2-0.5,0.2-0.8,0.2
			c-1.1,0-1.8-0.2-3.2-0.2c-1.8,0-2.6,0.2-3.2,0.2c-0.6,0-0.8-0.1-0.8-0.2c0-0.2,0.3-0.3,0.8-0.4c1.6-0.2,1.8-0.6,1.9-2.3
			c0.1-3.3,0.2-15.6,0.2-16c0-0.2-0.1-0.5-0.2-0.6h-2.8c-1.4,0-2.5,0.1-3,0.1c-0.7,0.1-1.2,0.5-1.5,2.3c-0.1,0.4-0.2,0.6-0.4,0.6
			c-0.2,0-0.2-0.2-0.2-0.7c0-0.7,0.4-2.2,0.4-3.3c0-0.2,0-0.3,0.1-0.5c0.1-0.1,0.2,0,0.4,0.2c0.3,0.2,0.7,0.3,1.1,0.2
			c0.5,0.1,4,0.1,7.7,0.1h5.8L143.2,47.9z"/>
		<path id="Path_8" class="st0" d="M148,48.1c0-0.2,0.2-0.3,0.5-0.3c0.9,0,2.1,0.1,2.9,0.1c1.9,0,6-0.1,7.4-0.1
			c1.2,0,2.4-0.1,2.7-0.1c0.2,0,0.3,0.3,0.4,0.5c0.1,0.4,0.2,1.9,0.2,2.5c0.1,0.4-0.1,0.6-0.2,0.6c-0.1,0-0.2-0.2-0.4-0.5
			c-0.7-1.5-1.2-2-1.8-2.1c-2.2-0.2-4.4-0.2-6.5-0.1c-0.2,0-0.4,0.1-0.4,0.5c0,1.8-0.1,6.8,0,7.7c0,0.2,0.1,0.4,0.2,0.4h3.8
			c1,0.1,1.9,0,2.9-0.4c0.2-0.1,0.5-0.4,0.8-1.2c0.1-0.2,0.2-0.5,0.4-0.5c0.1,0,0.2,0.2,0.2,0.6c0,0.2-0.2,1.5-0.2,2
			c-0.1,0.7-0.1,1.3,0,2c0.1,0.3-0.1,0.7-0.2,0.7c-0.2,0-0.2-0.2-0.5-0.7c-0.2-0.5-0.4-1.2-1-1.3c-0.5-0.1-1.5-0.2-6.3-0.2
			c-0.1,0-0.2,0.1-0.2,0.4c-0.1,1.1,0.1,6.4,0.1,7c0.1,1.2,0.1,1.8,0.9,1.9c0.4,0.1,1.7,0.1,3.6,0.1c3.2,0,3.5-0.2,4-0.6
			c0.6-0.6,1.1-1.3,1.5-2c0.2-0.4,0.4-0.6,0.5-0.6c0.2,0,0.2,0.3,0,0.9c-0.1,0.4-0.7,2.2-0.8,2.6c-0.1,0.3-0.3,0.4-0.6,0.5
			c-3.7,0-7.3-0.1-10.5-0.1c-1.1,0-2.6,0.1-3,0.1c-0.4,0-0.9,0-0.9-0.2c0-0.2,0.4-0.3,0.7-0.4c1.2-0.2,1.7-0.6,1.8-1.9
			c0.1-2.1,0.1-5.9,0.1-9.2v-5.8c0-1.7-0.5-2.1-1.7-2.4C148.2,48.3,148,48.2,148,48.1L148,48.1z"/>
		<path id="Path_9" class="st0" d="M169.1,63.1c0,1.1,0,2.2,0.2,3.3c0.1,0.7,0.6,1.1,1.5,1.2c0.3,0.1,0.7,0.2,0.7,0.4
			s-0.4,0.3-0.8,0.3c-0.8,0-2.1-0.1-3.3-0.1c-1.2,0-1.9,0.1-2.6,0.1c-0.5,0-0.8-0.1-0.8-0.2c0-0.2,0.2-0.3,0.8-0.4
			c1.2-0.2,1.6-0.6,1.7-1.7c0.1-1.8,0.1-4.1,0.1-8.7c0-4.5,0-6.2-0.1-7.1c-0.1-1-0.4-1.4-1.7-1.7c-0.4-0.1-0.7-0.2-0.7-0.4
			c0-0.2,0.4-0.2,0.7-0.2c0.5,0,1.3,0.1,2.5,0.1c1.5,0,3-0.2,4.6-0.2c1.7-0.1,3.4,0.3,4.8,1.2c1.3,0.8,2.1,2.2,2.1,3.7
			c0,2.6-1.8,4.2-4,4.9c-0.2,0.1-0.2,0.2-0.1,0.6c1.2,2,2.5,3.9,3.9,5.7c0.7,1,1.6,1.9,2.4,2.7c0.7,0.7,1.7,1.2,2.7,1.2
			c0.4,0,0.3,0.2,0,0.4c-0.5,0.2-1.1,0.3-1.7,0.2c-2.3,0-3.4-1-4.8-2.5c-1.7-1.8-4.2-5.7-4.9-6.7c-0.4-0.4-0.9-0.6-1.4-0.7
			c-0.5-0.1-1.1-0.1-1.6-0.1c-0.2,0-0.3,0.3-0.3,0.6L169.1,63.1L169.1,63.1z M169.6,48.7c-0.1,0.1-0.2,0.2-0.2,0.9
			c-0.1,0.5-0.1,7-0.1,7.5c0,0.2,0.1,0.7,0.3,0.7c0.5,0.1,1.2,0.1,2,0.1c1.1,0,2.2-0.3,3.2-0.8c1.2-0.8,2-2.1,2-3.6
			c0-1.2-0.4-2.4-1.2-3.3c-1-1.1-2.5-1.7-4-1.7C170.8,48.4,170.2,48.5,169.6,48.7L169.6,48.7z"/>
	</g>
	<g id="Group_4" transform="translate(93.442 -0.1)">
		<g id="Group_2" transform="translate(113.387)">
			<path id="Path_10" class="st0" d="M-0.1,44c0,1.2-0.5,2.4-1.5,3.2c-0.4,0.3-0.8,0.4-1.2,0.4c-1,0-1.5-1.1-1.5-1.9
				c0-1.2,0.5-2.2,1.4-3c0.4-0.3,0.8-0.4,1.3-0.5c0.9,0,1.6,0.8,1.6,1.6C0,43.9,0,43.9-0.1,44z M-2.5,43.5c-0.5,0.8-0.8,1.7-0.8,2.6
				c0,0.5,0.2,0.8,0.7,0.8c0.2,0,0.5-0.1,0.8-0.7c0.5-0.8,0.8-1.8,0.9-2.7c0-0.4-0.1-0.8-0.6-0.8C-1.8,42.7-2.1,42.9-2.5,43.5
				L-2.5,43.5z"/>
			<path id="Path_11" class="st0" d="M4.6,42.3c0.2,0,0.3,0.1,0.3,0.1c0,0.2-0.1,0.3-0.3,0.4c-0.1,0-0.7,0.1-1,0.1
				c-0.1,0-0.3,0.1-0.3,0.2c-0.6,2.7-1,4.2-1.2,5.1C2.1,49,1.6,49.6,0.9,50c-0.4,0.3-0.8,0.4-1.3,0.5c-0.3,0-0.8-0.2-0.8-0.7
				c0-0.2,0.1-0.4,0.2-0.6c0.1,0,0.4-0.1,0.4-0.1c0.2,0.3,0.5,0.5,0.9,0.5c0.3,0,0.5-0.1,0.8-1.1c0.4-1.4,1.2-5.1,1.2-5.6
				c0-0.1,0-0.1-0.1-0.1H1.5c-0.1,0-0.1-0.1-0.1-0.2c0-0.2,0.2-0.4,0.2-0.4c0.1,0,0.6-0.1,0.8-0.1c0.1,0,0.1-0.1,0.2-0.1
				C2.9,41,3.5,40,4.4,39.3c0.3-0.2,0.7-0.3,1.1-0.4c0.8,0,1.2,0.4,1.2,0.9c0,0.2-0.1,0.4-0.2,0.5c-0.1,0.1-0.2,0.1-0.4,0.1
				c-0.1,0-0.2-0.1-0.2-0.2c-0.1-0.5-0.2-0.8-0.7-0.8c-0.3,0.1-0.5,0.2-0.7,0.5c-0.4,0.7-0.7,1.5-0.8,2.3c0,0,0,0.1,0.1,0.1
				L4.6,42.3z"/>
		</g>
		<g id="Group_3" transform="translate(0 0.382)">
			<path id="Path_12" class="st0" d="M3.6,39.4c0.6,0,1,0.1,1.7,0.1c0.7,0,1-0.1,1.5-0.1c0.4,0,0.6,0.1,0.6,0.2S7.3,39.9,6.8,40
				c-0.6,0.1-0.9,0.2-0.9,1v3.7c0,0.9,0.3,1.7,0.9,2.4c0.5,0.4,1.1,0.6,1.7,0.6c1.2,0,2.3-0.4,2.6-2.7c0.1-1.4,0.1-3.7,0.1-3.9
				c-0.1-0.7-0.2-1-1.1-1.1c-0.2-0.1-0.4-0.2-0.4-0.4s0.2-0.2,0.5-0.2c0.5,0,0.4,0.1,1,0.1c0.8,0,1.5-0.1,1.9-0.1
				c0.3,0,0.5,0.1,0.5,0.2c0,0.2-0.2,0.3-0.5,0.4c-0.7,0.2-1,0.4-1,1.2c0,0.5-0.1,1.6-0.1,2.8c-0.1,1.6-0.4,3.2-1.4,4
				c-0.7,0.5-1.5,0.8-2.4,0.8c-0.9,0-1.8-0.3-2.5-0.8c-0.8-0.7-1.2-1.7-1.2-4c0-0.5,0-2.8-0.1-3.2c0-0.2-0.1-0.5-0.9-0.7
				c-0.2-0.1-0.5-0.2-0.5-0.3C3,39.4,3.3,39.4,3.6,39.4z"/>
			<path id="Path_13" class="st0" d="M15.4,39.4c0.5,0,1.8,0.1,2.2,0.1c0.2,0,0.2,0.1,0.4,0.2c0.4,0.5,0.8,0.9,1.3,1.5
				c0.5,0.6,3.1,3.4,4.1,4.5c0,0,0.1,0.1,0.1-0.1c0-1.1,0.1-3.6,0-4.6c-0.1-0.6-0.3-0.9-1.2-1.1c-0.2-0.1-0.4-0.1-0.4-0.3
				c0-0.2,0.4-0.2,0.5-0.2c0.7,0,1.2,0.1,1.7,0.1c0.4,0,0.9-0.1,1.4-0.1c0.2,0,0.4,0.1,0.4,0.2c0,0.1-0.1,0.2-0.4,0.3
				c-0.8,0.2-1,0.5-1,1.2c-0.1,0.8-0.2,3.3-0.2,4.4c0,1.1,0.1,2.4,0.1,2.6c0,0.3-0.1,0.5-0.2,0.5c-0.2-0.1-0.4-0.2-0.6-0.3
				c-0.4-0.4-1.1-1.4-2.2-2.6c-0.9-1-2.3-2.7-3.5-3.9c-0.1-0.1-0.2-0.1-0.2,0.1c0,0.7-0.1,3.5,0,4.8c0.1,0.7,0.5,0.9,1.1,1.1
				c0.2,0.1,0.4,0.2,0.4,0.3c0,0.2-0.3,0.2-0.5,0.2c-0.1,0-0.7-0.1-1.2-0.1c-0.5,0-1.3,0.1-1.7,0.1c-0.2,0-0.5-0.1-0.5-0.2
				c0-0.1,0.1-0.2,0.5-0.3c1-0.2,1.1-0.6,1.1-1.1c0.1-0.5,0.2-2.3,0.2-4c0-0.5,0-1.1-0.1-1.6c-0.1-0.4-0.4-0.7-0.7-1
				C16,40.1,15.7,40,15.4,40c-0.4-0.1-0.5-0.2-0.5-0.3C14.9,39.5,15.1,39.4,15.4,39.4z"/>
			<path id="Path_14" class="st0" d="M28.4,39.4c0.2,0,1.5,0.1,2.1,0.1c0.6,0,1.3,0,1.9-0.1c0.1,0,0.4,0.1,0.4,0.2
				c0,0.1-0.2,0.3-0.5,0.4c-1,0.3-1,0.4-1.1,1.1c-0.1,0.4-0.1,1.4-0.1,2.7v2.6c0.1,1.1,0.2,1.3,1.1,1.5c0.2,0.1,0.5,0.2,0.5,0.4
				c0,0.1-0.2,0.2-0.4,0.2c-0.5,0-1.1-0.1-1.9-0.1c-0.6,0-1.6,0.1-2,0.1c-0.3,0-0.5-0.1-0.5-0.2s0.3-0.3,0.5-0.4
				c1-0.2,1.1-0.5,1.1-1.2c0-0.4,0.1-1,0.1-1.6v-3.7c0-0.7-0.5-1.2-1.1-1.3c-0.4-0.1-0.4-0.2-0.4-0.4C28.1,39.5,28.2,39.4,28.4,39.4
				z"/>
			<path id="Path_15" class="st0" d="M35.3,39.4c0.4,0,1.2,0.1,1.8,0.1c0.6,0,1.2-0.1,1.6-0.1c0.4,0,0.5,0.1,0.5,0.2
				s-0.1,0.2-0.5,0.3c-0.8,0.2-0.7,0.5-0.5,1c0.2,0.7,0.5,1.4,1,2.4c0.3,0.9,0.7,1.7,1.2,2.6c0.1,0.1,0.2,0.2,0.2-0.1
				c0.2-0.5,1.5-3.7,1.8-4.6c0.3-0.9,0.2-1.1-0.5-1.3c-0.2-0.1-0.4-0.2-0.4-0.3c0.1-0.2,0.3-0.3,0.5-0.2c0.5,0,0.8,0.1,1.2,0.1
				c0.7,0,1.3-0.1,1.6-0.1c0.2,0,0.4,0.1,0.4,0.2c0,0.2-0.2,0.3-0.5,0.4c-0.7,0.2-1,0.5-1.5,1.4c-0.5,0.8-1,2.1-1.6,3.6
				c-1,2.1-1.2,3.1-1.4,3.3c-0.1,0.2-0.4,0.5-0.5,0.5c-0.1,0-0.2-0.2-0.3-0.4s-0.4-1.2-0.7-2.1c-0.5-1.1-1.8-4.3-2.4-5.5
				c-0.2-0.5-0.7-0.8-1.2-0.9c-0.2-0.1-0.4-0.2-0.4-0.3C34.8,39.4,35.1,39.4,35.3,39.4z"/>
			<path id="Path_16" class="st0" d="M51,43.5c0.8,0,1-0.1,1.2-0.8c0.1-0.2,0.2-0.4,0.4-0.4c0.2,0,0.2,0.2,0.2,0.5
				c0,0.1-0.1,0.4-0.1,0.9c0,0.6,0.1,0.7,0.1,1.1c0,0.4-0.1,0.5-0.3,0.5c-0.1,0-0.2-0.2-0.3-0.4c-0.2-0.4-0.2-0.6-0.4-0.7
				c-0.6-0.1-1.1-0.1-1.7-0.1c-0.1,0-0.2,0.1-0.2,0.3c-0.1,0.9,0,1.9,0.1,2.8c0.1,0.1,0.2,0.2,0.4,0.3c0.4,0.1,0.8,0.2,1.2,0.2
				c0.4,0,0.8,0,1.2-0.1c0.6-0.2,0.8-0.3,1.4-1.2c0.2-0.2,0.3-0.4,0.4-0.4c0.2,0,0.2,0.4,0.2,0.4c-0.1,0.6-0.3,1.2-0.5,1.7
				c-0.1,0.1-0.2,0.2-0.7,0.2c-1.8,0-1.8-0.1-4.5-0.1c-0.7,0-1.3,0.1-1.8,0.1c-0.2,0-0.6-0.1-0.6-0.2s0.2-0.3,0.5-0.4
				c1.1-0.2,1.1-0.5,1.2-1.2c0.1-0.5,0.1-1.8,0.1-3.1c0-0.9,0-1.9-0.1-2.7c0-0.4-0.1-0.7-1-0.9c-0.2-0.1-0.5-0.2-0.5-0.4
				c0-0.1,0.2-0.2,0.5-0.2c0.4,0,1,0.1,1.7,0.1c1.4,0.1,2.9,0,4.3-0.1c0.1,0,0.2,0.1,0.2,0.2c0,0.6,0.1,1.4,0.1,1.7
				c0,0.2-0.1,0.4-0.2,0.4c-0.1,0-0.2-0.1-0.4-0.4c-0.4-0.7-0.6-1-1.2-1.1c-0.3,0-0.5-0.1-2-0.1c-0.1,0-0.2,0.2-0.2,0.2
				c-0.1,0.3-0.1,2.3-0.1,2.9c0,0.1,0.1,0.2,0.2,0.2C50.4,43.4,50.7,43.5,51,43.5z"/>
			<path id="Path_17" class="st0" d="M57.1,39.4h1.1c0.5,0,1.2-0.1,2.9-0.1c0.9-0.1,1.8,0.2,2.6,0.7c0.4,0.4,0.7,1,0.7,1.5
				c0,1-0.7,1.9-1.7,2.1c-0.1,0-0.1,0.1-0.1,0.1c0.6,1,1.2,2,2,2.9c0.4,0.5,1,0.9,1.6,1.1c0.3,0.1,0.4,0.1,0.4,0.3
				c0,0.2-0.5,0.4-1.2,0.4c-0.9,0-1.8-0.5-2.4-1.2c-0.4-0.4-1.4-2.1-1.8-2.6c-0.3-0.3-0.7-0.5-1.2-0.5c-0.1,0-0.2,0-0.3,0.1
				c0,0-0.1,0.1-0.1,0.2c0,0.4,0,1.4,0.1,2.5c0,0.6,0.4,0.7,0.9,0.8c0.2,0.1,0.4,0.1,0.4,0.3c0,0.2-0.4,0.3-0.5,0.3
				c-0.7,0-1.1-0.1-1.5-0.1c-0.6,0-1.2,0.1-1.8,0.1c-0.4,0-0.5-0.1-0.5-0.2s0.2-0.3,0.5-0.4c0.9-0.2,1-0.4,1.1-1.2
				c0-0.4,0.1-2.1,0.1-3.9v-1.8c-0.1-0.4-0.1-0.7-1.1-0.9c-0.3-0.1-0.5-0.2-0.5-0.3C56.5,39.5,56.8,39.4,57.1,39.4z M59.8,40
				c-0.1,0.1-0.2,0.2-0.2,0.3c0,0.2-0.1,3-0.1,3.2c0,0.1,0.1,0.2,0.2,0.2c0.7,0,1.5-0.1,2.1-0.4c0.5-0.3,0.8-0.9,0.8-1.5
				c-0.1-1.1-1-2-2.2-1.9c-0.1,0-0.1,0-0.2,0C60.2,39.9,60,40,59.8,40z"/>
			<path id="Path_18" class="st0" d="M73.8,39.4c0.1,0,0.2,0.2,0.2,0.5v1.2c-0.1,0.4-0.2,0.4-0.3,0.4c-0.2,0-0.2-0.2-0.3-0.5
				c-0.1-0.4-0.3-0.8-0.7-1.1c-0.3-0.3-0.8-0.4-1.2-0.4c-0.9-0.1-1.6,0.6-1.7,1.5c0,0,0,0.1,0,0.1c0.1,0.7,0.5,1.3,1.2,1.5
				c0.7,0.4,1.2,0.6,1.7,1c0.9,0.4,1.5,1.3,1.5,2.3c0,0.8-0.5,1.6-1.2,2c-0.7,0.4-1.4,0.6-2.2,0.6c-0.9,0-1.7-0.2-2.5-0.6
				c-0.2-0.1-0.2-0.3-0.2-0.4c0-0.2-0.2-1.2-0.2-1.5c0-0.4,0.1-0.5,0.3-0.5c0.2,0,0.2,0.2,0.3,0.4c0.1,0.2,0.3,0.7,0.5,1
				c0.5,0.7,1.2,1.1,2,1.1c0.8,0.1,1.5-0.5,1.6-1.3c0,0,0-0.1,0-0.1c0-0.8-0.4-1.2-1.1-1.6c-0.6-0.4-1.1-0.7-1.5-0.9
				c-0.9-0.5-1.5-1.4-1.6-2.4c0-1.5,1.2-2.6,3.2-2.6C72.4,39.2,73.1,39.3,73.8,39.4z"/>
			<path id="Path_19" class="st0" d="M77.5,39.4c0.2,0,1.5,0.1,2.1,0.1c0.6,0,1.3,0,1.9-0.1c0.1,0,0.4,0.1,0.4,0.2
				c0,0.1-0.2,0.3-0.5,0.4c-1,0.3-1,0.4-1.1,1.1c-0.1,0.4-0.1,1.4-0.1,2.7v2.6c0.1,1.1,0.2,1.3,1.1,1.5c0.2,0.1,0.5,0.2,0.5,0.4
				c0,0.1-0.2,0.2-0.4,0.2c-0.5,0-1.1-0.1-1.9-0.1c-0.6,0-1.6,0.1-2,0.1c-0.3,0-0.5-0.1-0.5-0.2s0.3-0.3,0.5-0.4
				c1-0.2,1.1-0.5,1.1-1.2c0-0.4,0.1-1,0.1-1.6v-3.7c-0.1-0.8-0.4-1.1-1.2-1.3c-0.4-0.1-0.4-0.2-0.4-0.4
				C77.3,39.5,77.3,39.4,77.5,39.4z"/>
			<path id="Path_20" class="st0" d="M90.5,39.4c2.2,0,2.4-0.1,2.9-0.5c0.1-0.1,0.3,0.1,0.3,0.3c0,0.6,0,1.3,0.1,1.9
				c0,0.3-0.2,0.4-0.3,0.4s-0.2-0.1-0.3-0.4c-0.4-1-0.7-1.1-1.1-1.1c-0.4,0-1.5,0-2.1,0.1c-0.1,0-0.1,0.2-0.2,0.3
				c-0.1,0.3-0.1,2.5-0.1,4.5c0,0.7,0,1.4,0.1,2.1c0.1,0.5,0.3,0.5,1.1,0.8c0.4,0.1,0.5,0.2,0.5,0.4c0,0.1-0.3,0.2-0.5,0.2
				c-0.8,0-1-0.1-2-0.1c-0.5,0-1.5,0.1-2.1,0.1c-0.3,0-0.5-0.1-0.5-0.3s0.3-0.2,0.5-0.3c1.1-0.3,1.1-0.5,1.1-1.2
				c0.1-1.7,0.1-3.7,0.1-6.1c0-0.1-0.1-0.2-0.2-0.2c-0.6-0.1-1.3-0.1-2-0.1c-0.4,0.1-0.8,0.4-1,0.8c-0.2,0.4-0.3,0.5-0.5,0.5
				c-0.2,0-0.2-0.2-0.2-0.4c0-0.4,0.2-1.3,0.2-1.8c0-0.2,0.1-0.3,0.3-0.4c0.1,0,0.3,0.2,0.4,0.2c0.2,0.2,0.6,0.3,2.7,0.3H90.5
				L90.5,39.4z"/>
			<path id="Path_21" class="st0" d="M96.2,39.4c0.4,0,1.4,0.1,2,0.1c0.7,0,1-0.1,1.4-0.1c0.2,0,0.5,0.1,0.5,0.2
				c0,0.2-0.2,0.3-0.4,0.4c-0.6,0.1-0.5,0.4-0.4,0.7c0.2,0.4,1,1.9,1.7,3c0.1,0.1,0.2,0.1,0.2,0c0.1-0.2,1.4-2.5,1.7-3.2
				c0.2-0.4,0.1-0.5-0.4-0.7c-0.4-0.1-0.4-0.2-0.4-0.3s0.2-0.2,0.5-0.2c0.5,0,0.5,0.1,1.1,0.1c0.3,0,1.4-0.1,1.5-0.1
				c0.2,0,0.5,0.1,0.5,0.2c0,0.2-0.3,0.4-0.5,0.4c-1,0.2-1.1,0.4-1.7,1.2c-0.7,1-1.4,2-1.9,3.2c-0.1,0.2-0.1,0.5-0.2,0.7v2
				c0.1,0.5,0.3,0.7,1,0.8c0.3,0.1,0.5,0.1,0.5,0.3c0,0.1-0.2,0.2-0.5,0.2c-0.8,0-0.7-0.1-1.5-0.1c-0.5,0-1.5,0.1-2.3,0.1
				c-0.4,0-0.5-0.1-0.5-0.2c0-0.1,0.1-0.2,0.4-0.3c1-0.2,1.2-0.5,1.2-0.8c0-0.4,0.1-1.5,0.1-1.9c0-0.3,0-0.6-0.1-0.8
				c-0.5-1.1-1.1-2.2-1.8-3.3c-0.5-0.8-0.7-1.1-1.5-1.2c-0.3-0.1-0.4-0.2-0.4-0.4C95.7,39.5,95.9,39.4,96.2,39.4z"/>
		</g>
	</g>
	<g id="Group_9" transform="translate(0 0.982)">
		<path id="Path_22" class="st1" d="M14.1,40.4L14.1,40.4l-1.7,0.3c0,0,1.8,4,1.9,4.2v13c-0.1,0-0.2,0-0.4,0.1L13,58.1v1.4
			c-0.6,0.1-3.7,0.5-3.7,0.5l0.5,1.4c0.3,0.7,1.1,2.5,1.4,3c-0.2,1.2-0.4,2.4-0.4,3.6l-0.1,1.5l1.4-0.2c0,0,2.9-0.3,3.9-0.4
			c0.6,1.4,1.2,2.8,2,4.2c3.3,5.5,8.2,9.8,14.1,12.3l1.6,0.7l1.6-0.7c5.9-2.5,10.8-6.8,14.1-12.3c0.8-1.3,1.5-2.7,2-4.2
			c0.7,0.1,3.9,0.4,3.9,0.4l0,0l1.4,0.2L56.8,68c0-1.2-0.2-2.4-0.4-3.6c0.5-1.1,1.2-2.4,1.4-3l0.5-1.4l-2-0.3c0,0-1.1-0.2-1.7-0.2
			v-1.4l-1.1-0.2c-0.1,0-0.2,0-0.4-0.1v-13c0.1-0.2,1.9-4.2,1.9-4.2l-1.7-0.3c-6.5-1-13.1-1.5-19.6-1.5
			C27.2,38.9,20.6,39.4,14.1,40.4z"/>
		<path id="Path_23" class="st2" d="M57.6,60.4l-1.3-0.2c-1-0.1-2.1-0.3-3.6-0.5V44.8c0.1-0.2,1.6-3.6,1.6-3.6l-1-0.2
			c-6.5-1-13-1.5-19.5-1.5C27.3,39.5,20.7,40,14.3,41l-1,0.2c0,0,1.5,3.3,1.6,3.6v14.9c-1.5,0.2-2.7,0.4-3.6,0.5L10,60.4l0.3,0.8
			c0.2,0.7,1.2,2.6,1.5,3.2c-0.2,1.2-0.4,2.4-0.4,3.7v0.8l0.8-0.1c1.1-0.1,2.6-0.3,4.3-0.5c0.6,1.6,1.3,3.1,2.1,4.5
			c3.3,5.3,8.1,9.5,13.8,12l1.1,0.5l0.3,0.1l1.4-0.7c5.8-2.5,10.7-6.7,13.9-12c0.8-1.4,1.6-3,2.1-4.5l0,0c1.8,0.2,3.3,0.4,4.3,0.5
			l0.8,0.1V68c-0.1-1.2-0.2-2.5-0.4-3.7c0.3-0.6,1.2-2.4,1.5-3.2L57.6,60.4z"/>
		<path id="Path_24" class="st3" d="M14.9,60.4c-1.7,0.2-3,0.4-4,0.5c0.3,0.8,1.5,3.3,1.5,3.3c-0.3,1.3-0.4,2.5-0.5,3.8
			c1-0.1,2.5-0.3,4.2-0.5C15.4,65.2,15,62.8,14.9,60.4z M56.7,60.9c-1-0.1-2.4-0.4-4-0.5v0.1c0,2.4-0.5,4.8-1.2,7.1
			c1.8,0.2,3.2,0.4,4.2,0.5c-0.1-1.3-0.2-2.6-0.5-3.8C55.2,64.2,56.4,61.8,56.7,60.9z"/>
		<path id="Path_25" class="st3" d="M41.4,44.4c-3.9,0-7,3.1-7,7c0,2.5,1.3,4.8,3.5,6.1c2.5,0.1,4.8,0.1,6.7,0.2
			c3.5-1.7,4.9-5.9,3.1-9.4C46.5,45.9,44.1,44.4,41.4,44.4L41.4,44.4z M37.3,65.9h-6.9c-2.2,1.2-3.5,3.6-3.6,6.1c0,3.9,3.1,7,7,7
			c3.9,0,7-3.1,7-7c0,0,0,0,0,0C40.8,69.4,39.4,67.2,37.3,65.9z M33.2,51.4c0-3.9-3.1-7-7-7s-7,3.1-7,7c0,0,0,0,0,0
			c0,2.7,1.5,5.1,3.9,6.3c2-0.1,4.2-0.2,6.7-0.2C31.9,56.1,33.2,53.8,33.2,51.4z"/>
		<path id="Path_26" class="st2" d="M33.8,78.5c-3.6,0-6.6-3-6.6-6.6s3-6.6,6.6-6.6s6.6,3,6.6,6.6v0C40.4,75.6,37.5,78.5,33.8,78.5z
			"/>
		<path id="Path_27" class="st2" d="M41.4,58c-3.6,0-6.6-3-6.6-6.6c0-3.6,3-6.6,6.6-6.6c3.6,0,6.6,3,6.6,6.6C48,55,45,57.9,41.4,58z
			"/>
		<path id="Path_28" class="st2" d="M26.2,58c-3.6,0-6.6-3-6.6-6.6c0-3.6,3-6.6,6.6-6.6s6.6,3,6.6,6.6l0,0
			C32.8,55,29.9,57.9,26.2,58z"/>
		<path id="Path_29" class="st1" d="M32.5,51.4c0-3.4-2.8-6.3-6.2-6.3c-3.4,0-6.3,2.8-6.3,6.2c0,3.1,2.2,5.7,5.2,6.2
			c0.8-0.1,1.7-0.1,2.5-0.1C30.5,56.7,32.5,54.2,32.5,51.4z M41.4,45.1c-3.5,0-6.2,2.8-6.2,6.3c0,2.9,2,5.4,4.8,6.1
			c0.9,0,1.7,0.1,2.5,0.1c3.4-0.6,5.7-3.8,5.1-7.2C47,47.3,44.4,45.1,41.4,45.1z M35.1,65.9h-2.6c-3.4,0.7-5.5,4-4.8,7.4
			c0.7,3.4,4,5.5,7.4,4.8c3.4-0.7,5.5-4,4.8-7.4C39.4,68.3,37.5,66.4,35.1,65.9z"/>
		<path id="Path_30" class="st2" d="M31.3,50.2c0.1,0,0.2-0.1,0.2-0.2v-0.4c0-0.1-0.1-0.2-0.2-0.2h-0.4V48c0-0.1-0.1-0.2-0.2-0.2
			l-0.6-0.1c0.1,0.1,0.1,0.3,0.2,0.4v6.1c-0.2-0.3-0.4-0.6-0.5-0.9v-6.1c-0.5,0.1-1.1,0.2-1.7,0.2c-0.8-0.1-0.7-0.3-1.4-0.3
			c-0.3,0-0.5,0-0.7,0.2c-0.2-0.1-0.5-0.2-0.7-0.2c-0.7,0-0.5,0.2-1.4,0.3c-0.6,0.1-1.1,0-1.7-0.2v6.1c-0.1,0.3-0.3,0.6-0.5,0.9
			v-6.1c0.1-0.1,0.2-0.3,0.2-0.4l-0.5,0.1c-0.1,0-0.2,0.1-0.2,0.2v1.3h-0.4c-0.1,0-0.2,0.1-0.2,0.2V50c0,0.1,0.1,0.2,0.2,0.2h0.4
			v2.5h-0.4c-0.1,0-0.2,0.1-0.2,0.2v0.4c0,0.1,0.1,0.2,0.2,0.2h0.4v1.2c0,0.1,0.1,0.2,0.2,0.2l3.7-0.2c0.3,0.1,0.5,0.1,0.8,0.1
			c0.3,0,0.5,0,0.8-0.1l3.7,0.2c0.1,0,0.2-0.1,0.2-0.2v-1.2h0.4c0.1,0,0.2-0.1,0.2-0.2V53c0-0.1-0.1-0.2-0.2-0.2h-0.4v-2.5H31.3z
			 M24.1,53.6c-0.4,0-0.7,0-1.1-0.1V48c0.4,0.1,0.8,0.1,1.1,0c0.3,0,0.6-0.1,0.9-0.2c0.1-0.1,0.3-0.1,0.4-0.1h0.2
			c0.1,0,0.2,0,0.3,0.1v5.5c-0.1-0.1-0.3-0.1-0.4-0.1C24.9,53.3,25,53.4,24.1,53.6L24.1,53.6z M28.3,53.6c-0.8-0.1-0.7-0.3-1.4-0.3
			c-0.1,0-0.3,0-0.4,0.1v-5.5c0.1,0,0.2-0.1,0.3-0.1H27c0.1,0,0.3,0,0.4,0.1c0.3,0.1,0.6,0.2,0.9,0.2c0.4,0,0.8,0,1.1,0v5.5
			C29.1,53.6,28.7,53.6,28.3,53.6L28.3,53.6z"/>
		<g id="Group_6" transform="translate(21.453 2.037)">
			<g id="Group_5" transform="translate(0 0)">
				<path id="Path_31" class="st3" d="M7.9,41.8C8,41.7,8,41.7,8.1,41.6c0.1-0.1,0.1-0.1,0.2-0.1c0,0,0.1,0,0.1-0.1c0,0,0,0,0,0
					v-2.3l-0.1-0.1c-0.1,0-0.1-0.1-0.2-0.1C8,39.1,8,39,7.9,39V39h0.7c0-0.1,0.1-0.1,0.2-0.1c0.1,0,0.1,0,0.2-0.1v2.7L9,41.5
					c0.1,0,0.1,0.1,0.2,0.1c0.1,0.1,0.1,0.1,0.2,0.1v0.1L7.9,41.8C7.9,41.8,7.9,41.8,7.9,41.8z"/>
				<path id="Path_32" class="st3" d="M10,39.7c0-0.1,0-0.2,0.1-0.2c0-0.1,0.1-0.2,0.1-0.2l0.2-0.2l0.2-0.2c0.1-0.1,0.2-0.1,0.2-0.1
					c0.1,0,0.2-0.1,0.3-0.1c0.1,0,0.2,0,0.2,0.1c0.1,0,0.2,0.1,0.2,0.1l0.2,0.2c0.1,0.1,0.1,0.1,0.1,0.2c0,0.1,0.1,0.1,0.1,0.2
					c0,0.1,0,0.2-0.1,0.2c0,0.1-0.1,0.1-0.1,0.2l-0.2,0.2c-0.1,0.1-0.2,0.1-0.2,0.2c0.1,0.1,0.2,0.1,0.2,0.2l0.2,0.2
					c0.1,0.1,0.1,0.1,0.1,0.2c0,0,0.1,0.1,0.1,0.2v0.5c0,0.1-0.1,0.2-0.1,0.2c-0.1,0.1-0.1,0.1-0.2,0.2l-0.2,0.2
					c-0.1,0.1-0.1,0.1-0.2,0.1c-0.1,0-0.2,0.1-0.2,0.1h-0.5c-0.1,0-0.1-0.1-0.2-0.1c-0.1-0.1-0.1-0.1-0.2-0.1
					C10,42.1,9.9,42,9.9,41.9c0,0-0.1-0.1-0.1-0.2v-0.5c0-0.1,0.1-0.1,0.1-0.2c0.1-0.1,0.1-0.1,0.1-0.2l0.2-0.2
					c0.1-0.1,0.2-0.1,0.2-0.2c-0.1-0.1-0.2-0.1-0.2-0.2l-0.2-0.2c-0.1-0.1,0-0.2,0-0.2C10,39.9,10,39.8,10,39.7z M10.5,41.3
					c0,0.1,0,0.2,0.1,0.3c0,0.1,0.1,0.2,0.1,0.2l0.1,0.1c0,0,0.1,0.1,0.2,0.1c0.1,0,0.2,0,0.2-0.1l0.2-0.2c0.1-0.1,0.1-0.2,0.1-0.3
					c0-0.1,0-0.2-0.1-0.2c0-0.1-0.1-0.1-0.1-0.2l-0.2-0.2c-0.1-0.1-0.2-0.1-0.3-0.2c-0.1,0-0.1,0.1-0.2,0.2
					c-0.1,0.1-0.1,0.1-0.1,0.2L10.5,41.3z M11.3,39.6c0-0.1,0-0.2-0.1-0.3c-0.1-0.1-0.1-0.2-0.1-0.2c-0.1-0.1-0.3-0.1-0.4,0
					c-0.1,0.1-0.1,0.1-0.1,0.1c0,0-0.1,0.1-0.1,0.2c0,0.1,0,0.1,0.1,0.2c0,0.1,0.1,0.1,0.1,0.2l0.2,0.2c0.1,0.1,0.2,0.2,0.2,0.2
					c0-0.1,0.1-0.1,0.1-0.2c0,0,0.1-0.1,0.1-0.2C11.3,39.8,11.2,39.7,11.3,39.6L11.3,39.6z"/>
				<path id="Path_33" class="st3" d="M12.4,42.1c0.1,0,0.2-0.1,0.3-0.1c0.1-0.1,0.2-0.1,0.2-0.1c0.1-0.1,0.1-0.1,0.2-0.1l0.2-0.2
					c0.1-0.1,0.1-0.1,0.1-0.2c0,0,0.1-0.1,0.1-0.2v-0.5c0-0.1-0.1-0.1-0.1-0.2l-0.1-0.1c0,0-0.1-0.1-0.2-0.1h-0.5
					c0-0.1,0.1-0.2,0.1-0.3c0-0.1,0.1-0.2,0.1-0.3c0-0.1,0-0.2,0.1-0.3c0-0.1,0-0.2,0.1-0.2c0-0.1,0-0.2,0.1-0.2v-0.2h1.5v0.7h-0.1
					c-0.1,0-0.2,0-0.3-0.1h-1.1c0,0.1,0,0.2-0.1,0.2c0,0.1,0,0.2-0.1,0.2h0.5c0.1,0,0.2,0.1,0.2,0.1s0.1,0.1,0.2,0.1
					c0.1,0.1,0.1,0.1,0.2,0.1c0.1,0.1,0.1,0.1,0.1,0.2c0,0.1,0.1,0.1,0.1,0.2v0.5c0,0.1-0.1,0.1-0.1,0.2c0,0.1-0.1,0.1-0.1,0.2
					c-0.1,0.1-0.1,0.1-0.1,0.2l-0.2,0.2c-0.1,0.1-0.1,0.1-0.2,0.1c-0.1,0.1-0.1,0.1-0.2,0.1c-0.1,0.1-0.2,0.1-0.2,0.1
					c-0.1,0-0.2,0.1-0.3,0.1c-0.1,0-0.2,0-0.3,0.1C12.4,42.3,12.5,42.2,12.4,42.1z"/>
				<path id="Path_34" class="st3" d="M14.8,40.4v-0.2c0-0.1,0-0.2,0.1-0.2c0-0.1,0.1-0.2,0.1-0.2s0.1-0.2,0.1-0.2
					c0.1-0.1,0.1-0.2,0.1-0.2l0.2-0.2c0.1-0.1,0.1-0.1,0.2-0.1c0-0.1,0.1-0.1,0.1-0.1h0.2c0.1,0,0.2,0,0.2,0.1
					c0.1,0,0.1,0.1,0.2,0.1c0.1,0.1,0.1,0.1,0.2,0.1c0.1,0.1,0.1,0.1,0.1,0.2c0.1,0.1,0.1,0.1,0.1,0.2c0.1,0.1,0.1,0.2,0.1,0.2
					c0,0.1,0,0.2,0.1,0.3v0.7c0,0.1,0,0.2-0.1,0.3c0,0.1-0.1,0.2-0.1,0.3c-0.1,0.1-0.1,0.2-0.1,0.2l-0.2,0.2
					c-0.1,0.1-0.1,0.1-0.2,0.1c0,0-0.1,0.1-0.2,0.1h-0.5c-0.1,0-0.1-0.1-0.2-0.1c-0.1-0.1-0.1-0.1-0.2-0.1c-0.1-0.1-0.1-0.1-0.1-0.2
					c-0.1-0.1-0.1-0.1-0.1-0.2c-0.1-0.1-0.1-0.2-0.1-0.2c0-0.1-0.1-0.2-0.1-0.3C14.8,40.6,14.8,40.5,14.8,40.4z M16.2,40.6v-0.8
					c0-0.1,0-0.2-0.1-0.3c0-0.1-0.1-0.2-0.1-0.2c0-0.1-0.1-0.1-0.1-0.2L15.9,39c-0.1,0-0.1-0.1-0.1-0.1s-0.1,0-0.1,0.1
					c-0.1,0-0.1,0.1-0.1,0.1c0,0.1-0.1,0.1-0.1,0.2c0,0.1,0,0.2-0.1,0.3v1.2c0,0.1,0,0.2,0.1,0.3c0,0.1,0.1,0.2,0.1,0.2
					c0,0.1,0.1,0.1,0.1,0.2l0.1,0.1c0.1,0,0.1,0.1,0.1,0.1c0.1,0,0.1,0,0.1-0.1c0.1,0,0.1-0.1,0.1-0.1c0-0.1,0.1-0.1,0.1-0.2
					c0-0.1,0-0.2,0.1-0.3C16.1,40.9,16.2,40.7,16.2,40.6z"/>
			</g>
		</g>
		<g id="Group_7" transform="translate(22.801 29.602)">
			<path id="Path_35" class="st2" d="M11.9,37c-0.1-0.1-0.1-0.1-0.2-0.1L11,37c-0.3,0.1-0.6,0.2-0.8,0.2c-0.1,0.2,0,0.2,0.1,0.4
				c0,0.1,0.1,0.2,0.1,0.2l0.5,0.1c0.1,0,0.2,0.1,0.4,0.1h0.5v-0.1C11.7,37.8,12,37.2,11.9,37z"/>
			<path id="Path_36" class="st2" d="M12,44.7c-0.1,0-0.1,0-0.2-0.1l-0.1,0.3l-0.1,0.6c0.1,0,0.1,0.1,0.2,0.1l0,0
				c0.1,0.2,0.1,0.4-0.1,0.6c-0.1,0.1-0.3,0.2-0.5,0.2v-0.3c0-0.3,0.1-0.5,0.1-0.7c0-0.2,0.1-0.4,0.1-0.6c0-0.1,0.1-0.2,0.1-0.4
				c0-0.2,0.1-0.4,0-0.5c0-0.1-0.1-0.1-0.1-0.1h-1.1c0,0.1,0.1,0.2,0.1,0.2v0.1c0,0.2,0.1,0.4,0.1,0.6c0,0.1,0.1,0.4,0,0.5l0,0
				c-0.1,0.2-0.1,0.4-0.1,0.5c0,0.2,0.1,0.3,0.1,0.5v0.2c-0.3,0-0.6-0.2-0.8-0.4c-0.1-0.3,0.2-0.5,0-0.6c-0.1-0.1-0.4,0.2-0.4,0.7
				c0.1,0.3,0.3,0.6,0.6,0.7c0.2,0.1,0.3,0.2,0.5,0.2c0,0.1,0,0.3,0.1,0.4c0.1,0.1,0,0.3,0.1,0.4c0.1,0.1,0.1,0.1,0.2,0.1
				c0.2-0.1,0.3-0.5,0.3-0.7v-0.1c0.3,0,0.6-0.1,0.9-0.3c0.5-0.3,0.7-0.8,0.7-1.3C12.8,45,12.5,44.8,12,44.7z"/>
			<path id="Path_37" class="st2" d="M11.7,41.2c-0.1-0.1-0.1-0.1-0.2-0.2c-0.1-0.1-0.1-0.4-0.1-0.6v-0.5l-0.2-0.1
				c-0.1-0.1-0.3-0.1-0.4-0.1c-0.2,0-0.3,0-0.5,0c0,0.3,0,0.5-0.1,0.8c-0.1,0.1-0.1,0.2-0.1,0.2v0.1c0.1,0.2,0.1,0.3,0.1,0.5
				c0.1,0.3,0.1,0.5,0.1,0.8v0.2c0.2,0,0.4,0,0.5-0.1h0.5v-0.2c0-0.1,0.1-0.2,0.1-0.4C11.7,41.4,11.7,41.3,11.7,41.2z"/>
			<path id="Path_38" class="st2" d="M14.3,39c0-0.1,0-0.1-0.1-0.2c-0.2-0.1-0.4-0.2-0.6-0.2c-0.1,0-0.3-0.1-0.4-0.2
				c-0.1-0.1-0.3-0.1-0.4-0.2c-0.3,0-0.6,0-0.9,0.1c-0.1,0-0.1,0.1-0.2,0.1h-0.5c-0.3,0-0.6-0.1-1-0.1h-0.1
				c-0.6-0.1-1.2,0.1-1.7,0.5c-0.7,0.4-1,1.3-0.7,2.1c0.1,0.3,0.2,0.6,0.5,0.8c0.4,0.3,1,0.5,1.5,0.4h0.5c0-0.2-0.1-0.5-0.1-0.7
				v-0.1c-0.1-0.1-0.1-0.3-0.1-0.4v-0.1H9.8c-0.3,0-0.6-0.3-0.6-0.6c0,0,0-0.1,0-0.1c0.1-0.4,0.2-0.5,0.7-0.7
				c0.2-0.1,0.4-0.1,0.6-0.1h0.7c0.2,0.1,0.5,0.1,0.7,0.2c0.1,0,0.1,0,0.1,0.1c0.3,0.1,0.7,0.1,1,0.1c0.5-0.1,0.9-0.2,1.4-0.3
				C14.3,39.2,14.3,39,14.3,39z M12.9,38.7c-0.1,0.1-0.1,0.1-0.2,0.1c-0.1,0-0.2-0.1-0.2-0.2c0-0.1,0.1-0.1,0.3-0.1h0.1
				c0.1,0,0.2,0.1,0.2,0.3C13.1,38.8,13,38.8,12.9,38.7z"/>
			<path id="Path_39" class="st2" d="M13.7,41c-0.3-0.5-0.8-0.8-1.4-0.9h-0.4v0.7l0.1,0.1c0.1,0.1,0.1,0.2,0.2,0.3v0.3h0.2
				c0.1,0,0.2,0.1,0.2,0.1c0.2,0.2,0.2,0.5,0,0.7c0,0-0.1,0.1-0.1,0.1c-0.2,0.1-0.4,0.1-0.7,0.1h-0.7c-0.3,0-0.5,0.1-0.8,0.1
				c-0.1,0-0.2,0-0.2,0.1c-0.6,0.1-1,0.4-1.2,1c-0.2,0.8,0.4,1.2,1.1,1.5C10,45,10,45,10,45c0.1,0,0.1,0.1,0.2,0.1
				c0.1,0,0.1,0.1,0.2,0.1v-0.2l-0.1-0.2c0-0.1-0.1-0.2-0.1-0.4v-0.1h-0.1c-0.1,0-0.1-0.1-0.1-0.1C10,44.1,10,44,10,43.9
				c0-0.1,0.1-0.2,0.3-0.3c0.4-0.1,0.7-0.1,1.1-0.1h0.4c0.2,0,0.5,0,0.7-0.1c0.2,0,0.4-0.1,0.6-0.2c0.4-0.2,0.7-0.5,0.9-0.9
				C14,41.9,13.9,41.4,13.7,41z"/>
		</g>
		<path id="Path_40" class="st2" d="M44.9,51.2c-0.4-0.6-0.6-1.3-0.7-2.1v-1.2h0.2v0.3c0.1,0.1,0.1,0.1,0.2,0.1
			c0.3-0.1,0.5-0.4,0.5-0.7c-0.1-0.2-0.2-0.4-0.5-0.5c-0.1,0-0.2,0.1-0.2,0.1v0.3h-0.2v-1.1h-1.1v1.1h-0.6v-0.1
			c0-0.1-0.1-0.2-0.2-0.2c-0.1,0-0.2,0.1-0.2,0.2c0,0,0,0,0,0v0.1h-0.6v-0.1c0-0.1-0.1-0.2-0.2-0.2c-0.1,0-0.2,0.1-0.2,0.2
			c0,0,0,0,0,0v0.1h-0.6v-0.1c0-0.1-0.1-0.2-0.2-0.2c-0.1,0-0.2,0.1-0.2,0.2v0.1h-0.6v-1.1h-1.1v1.1h-0.2v-0.3
			C38.3,47,38.2,47,38.1,47c-0.3,0.1-0.5,0.4-0.5,0.7c0.1,0.2,0.2,0.4,0.5,0.5c0.1,0,0.2-0.1,0.2-0.1v-0.3h0.2v1.2
			c0,0.7-0.3,1.5-0.7,2.1c-0.4,1-0.4,2.2-0.1,3.2c0.2,0.7,0.5,1.4,0.8,2h5.6c0.3-0.6,0.6-1.3,0.8-2C45.3,53.4,45.3,52.2,44.9,51.2z
			 M42.2,47.8v5.5c-0.2,0.1-0.4,0.1-0.6,0.1v-5.6H42.2z M41.3,55C41,55,40.9,55,40.7,55v-1.1c0.2,0,0.4-0.1,0.6-0.1V55z M41.6,53.9
			c0.2,0,0.4,0,0.6,0.1V55c-0.2,0-0.4,0.1-0.6,0.1V53.9z M41.3,47.8v5.6c-0.2,0-0.4,0-0.6-0.1v-5.5L41.3,47.8z M39.1,51.8
			c0-0.4,0.2-0.8,0.6-1.1v-2.9h0.6v5.4C39.7,53,39.2,52.4,39.1,51.8L39.1,51.8z M39.8,54.4c0-0.2,0.2-0.4,0.5-0.4v0.9
			C40,54.8,39.8,54.6,39.8,54.4L39.8,54.4z M42.5,54.9V54c0.4,0.1,0.6,0.3,0.6,0.5C43.1,54.6,42.9,54.8,42.5,54.9L42.5,54.9z
			 M42.5,53.2v-5.4h0.6v2.9c0.4,0.2,0.6,0.6,0.6,1.1C43.6,52.4,43.2,53,42.5,53.2L42.5,53.2z"/>
		<path id="Path_41" class="st2" d="M14.1,58.5l-0.5,0.1v1.8c0,2,0.3,4,0.8,5.9l0.2,0.6l0.5-0.1c6.2-0.8,12.5-1.1,18.7-1
			c6.3-0.1,12.5,0.3,18.7,1l0.5,0.1l0.1-0.5c0.5-1.9,0.8-3.9,0.8-5.9v-1.8l-0.5-0.1c-6.5-0.8-13.1-1.2-19.8-1.1
			C27.2,57.3,20.6,57.6,14.1,58.5z"/>
		<path id="Path_42" class="st3" d="M18,58V44.2c0,0-0.2-0.4-0.2-0.5c2.6-0.4,6.4-0.8,10.8-1V42c-4.3,0.2-8.1,0.6-10.9,1l-0.8,0.1
			l0.4,0.7c0,0,0.1,0.3,0.2,0.4V58C17.6,58.1,17.8,58.1,18,58z M39.1,41.1v0.6c5.2,0.2,9.8,0.8,12.2,1.1c-0.3,0.7-0.7,1.5-0.7,1.5
			v13.8c0.2,0,0.4,0.1,0.6,0.1V44.5c0,0,0.6-1.3,1-2.1C50.1,42,45,41.4,39.1,41.1z M21.2,71.1c-0.9-1.5-1.6-3.1-2.1-4.7
			c-0.2,0-0.4,0.1-0.6,0.1c0.6,1.7,1.3,3.4,2.3,4.9c3,4.9,7.5,8.8,12.7,11.1l0.1,0.1l0.3,0.1l0.4-0.2l0,0c5.3-2.3,9.8-6.1,12.7-11.1
			c1-1.5,1.7-3.2,2.3-4.9c-0.2,0-0.4-0.1-0.6-0.1c-0.6,1.6-1.3,3.2-2.1,4.7c-2.9,4.8-7.3,8.6-12.5,10.8c0,0.1-0.1,0.1-0.2,0
			c0,0,0,0,0,0l0,0C28.5,79.8,24.1,76,21.2,71.1L21.2,71.1z M50,43c-2.8-0.4-6.6-0.8-10.9-1v0.6c4.3,0.2,8.3,0.7,10.8,1
			c-0.1,0.2-0.2,0.5-0.2,0.5V58c0.2,0,0.4,0.1,0.6,0.1V44.3c0.1-0.1,0.5-1.1,0.5-1.1L50,43z M47.2,71.6c-3,5-7.5,8.9-12.9,11.2
			c0,0-0.3,0.1-0.5,0.2c-0.2-0.1-0.5-0.2-0.5-0.2c-5.4-2.3-9.9-6.2-12.9-11.2c-0.9-1.6-1.7-3.3-2.3-5.1c-0.2,0-0.4,0.1-0.6,0.1
			c0.6,1.9,1.4,3.7,2.4,5.4C22.9,77,27.5,81,33,83.4c0.3,0.1,0.5,0.2,0.8,0.4c0.3-0.1,0.8-0.4,0.8-0.4C40,81,44.6,77,47.8,71.9
			c1-1.7,1.8-3.5,2.4-5.4c-0.2,0-0.4-0.1-0.6-0.1C49,68.3,48.2,70,47.2,71.6z M28.5,41.7v-0.6c-5.9,0.3-11.1,1-13.1,1.2
			c0.4,0.8,1,2.1,1,2.1v13.7c0.2,0,0.4-0.1,0.6-0.1V44.3c0,0-0.4-0.9-0.7-1.5C18.8,42.5,23.4,41.9,28.5,41.7z"/>
		<path id="Path_43" class="st3" d="M33.8,58c-6.6-0.1-13.1,0.3-19.6,1.1v1.3c0,2,0.3,3.9,0.8,5.8c6.2-0.7,12.5-1.1,18.8-1
			c6.3-0.1,12.6,0.3,18.8,1c0.5-1.9,0.8-3.9,0.8-5.8v-1.3C47,58.3,40.4,57.9,33.8,58z"/>
		<g id="Group_8" transform="translate(7.257 21.581)">
			<path id="Path_44" class="st2" d="M8.7,43.2c0.5-0.2,0.7-0.3,0.7-0.5c0.1-0.2,0.1-0.5,0.1-0.9c0.1-1.8,0.1-2.8,0.1-2.9
				c0-0.4-0.1-0.4-0.7-0.5v-0.1h0.5c0.3,0,0.6-0.1,0.9-0.1c0.5,1.1,1.2,2.3,1.9,3.5c0.5-1.3,1-2.6,1.4-3.8h0.7
				c0.2,0,0.5-0.1,0.7-0.1v0.1c-0.6,0.2-0.7,0.2-0.7,0.5c0.1,0.6,0.2,1.2,0.4,1.8c0.2,1,0.4,1.7,0.5,2c0.1,0.2,0.3,0.2,0.7,0.4v0.1
				h-1c-0.4,0-0.8,0.1-1.2,0.2v-0.1c0.7-0.2,0.8-0.2,0.7-0.5c-0.2-1.2-0.4-2.4-0.7-3.6c-0.5,1.3-1,2.8-1.4,4.3l-0.3,0.1
				c-0.8-1.5-1.5-2.9-2.1-4.1c-0.1,2,0,3.2,0,3.6c0.1,0.4,0.1,0.4,0.8,0.5v0.1h-1c-0.3,0-0.6,0.1-1,0.1L8.7,43.2z"/>
			<path id="Path_45" class="st2" d="M16.4,42.6c0.3-0.1,0.5-0.2,0.7-0.4c0.1-0.7,0-1.4-0.1-2c0-0.7-0.1-1.4-0.2-2
				c-0.1-0.1-0.3-0.2-0.8-0.3v-0.2c0.3,0,0.6,0,0.8,0c0.3,0,0.6-0.1,0.9-0.1c0.3,0,0.7,0,1-0.1c0.4,0,0.8,0,1.1-0.1l0.1,1.2h-0.1
				c-0.1-0.4-0.2-0.7-0.4-0.7c-0.3-0.1-0.7-0.1-1,0c-0.3,0-0.7,0-1,0.1c0,0.4,0,1,0.1,1.9l0.7-0.1c0.4,0,0.8,0,1.1-0.1
				c0.1-0.2,0.2-0.5,0.3-0.7h0.1v0.8c0,0.2,0.1,0.5,0.1,1h-0.1c-0.1-0.4-0.2-0.7-0.4-0.7c-0.4-0.1-0.8-0.1-1.1,0l-0.7,0.1v0.5
				c0.1,0.7,0.1,1.3,0.1,1.7h1c0.4,0,0.8-0.1,1.1-0.2c0.1-0.3,0.2-0.5,0.3-0.8h0.1v1.2c-1.2,0-2,0.1-2.4,0.1c-0.5,0-1,0-1.5,0.1
				L16.4,42.6z"/>
			<path id="Path_46" class="st2" d="M21.4,42.4c0.3-0.1,0.5-0.2,0.7-0.4c0.1-0.7,0.1-1.4,0-2c0-0.7,0-1.4-0.1-2
				c-0.1-0.1-0.3-0.2-0.8-0.3v-0.1c0.4,0,0.8,0.1,1.1,0.1c0.4,0,0.8-0.1,1.1-0.1v0.1c-0.4,0.1-0.7,0.2-0.7,0.4c-0.1,0.7-0.1,1.4,0,2
				c0,0.6,0.1,1.3,0.1,2.1h0.7c0.4,0,0.8,0,1.1-0.1c0.2-0.2,0.3-0.5,0.4-0.8h0.1l-0.1,1.2h-2.4c-0.4,0-0.8,0.1-1.2,0.1L21.4,42.4z"
				/>
			<path id="Path_47" class="st2" d="M25.9,42.3c0.4-0.1,0.7-0.2,0.7-0.4c0.1-0.7,0.1-1.3,0.1-2c0-0.7,0-1.4-0.1-2
				c-0.1-0.1-0.3-0.2-0.7-0.4v-0.1c0.8,0.1,1.5,0.1,2.3,0v0.1c-0.4,0.1-0.7,0.2-0.7,0.4c-0.1,0.7-0.1,1.3-0.1,2c0,0.7,0,1.4,0.1,2
				c0.2,0.2,0.5,0.3,0.7,0.4v0.1c-0.8-0.1-1.5-0.1-2.3,0V42.3z"/>
			<path id="Path_48" class="st2" d="M33.1,41.9c-0.5,0.5-1.1,0.8-1.8,0.8c-0.6,0-1.3-0.3-1.7-0.8c-0.4-0.5-0.7-1.2-0.7-1.9
				c0-0.6,0.2-1.2,0.7-1.7c0.5-0.5,1.1-0.8,1.8-0.8c0.6,0,1.3,0.3,1.7,0.8c0.5,0.5,0.7,1.2,0.7,2C33.8,40.8,33.5,41.4,33.1,41.9z
				 M31.4,37.7c-1-0.1-1.7,0.7-1.7,2.1c-0.1,1.6,0.5,2.6,1.6,2.6c1,0.1,1.7-0.7,1.7-2C33.1,38.6,32.5,37.7,31.4,37.7z"/>
			<path id="Path_49" class="st2" d="M39.1,42.7L39.1,42.7l0.1,0.1c-0.2,0-0.4-0.1-0.5-0.1h-0.5c-0.5-1-1-1.8-1.4-2.6H36v0.5
				c-0.1,0.4-0.2,0.9-0.2,1.4c0,0.2,0.2,0.3,0.7,0.5v0.1c-0.4-0.1-0.8-0.1-1.1-0.1h-1.1v-0.1c0.3,0,0.5-0.1,0.8-0.3
				c0.1-0.7,0.2-1.3,0.2-2c0.1-0.7,0.1-1.3,0.1-2c-0.1-0.1-0.3-0.2-0.7-0.4v-0.1c0.2,0,0.4,0.1,0.7,0.1c0.7,0.1,1.2,0,1.7,0.1
				c1.2,0.1,1.8,0.5,1.7,1.2c-0.1,0.6-0.5,1-1.3,1.1C38.2,41.9,38.6,42.7,39.1,42.7z M36,40l0.5,0.1c1,0.1,1.4-0.2,1.4-0.9
				c0.1-0.7-0.4-1-1.4-1.1h-0.4C36,38.7,36,39.4,36,40z"/>
			<path id="Path_50" class="st2" d="M39.1,42.8c0.4-0.1,0.5-0.1,0.7-0.3c0.2-0.2,1-1.8,2.4-4.5h0.1c0.8,2.8,1.3,4.4,1.5,4.8
				c0.1,0.2,0.3,0.3,0.7,0.5v0.1c-0.5-0.1-0.9-0.1-1.1-0.2h-1.1v-0.1c0.5-0.1,0.8-0.2,0.8-0.2c0-0.4-0.2-0.9-0.4-1.2l-1.9-0.2
				c-0.2,0.4-0.4,0.8-0.5,1.2c0,0.1,0.2,0.2,0.7,0.4v0.1c-0.3-0.1-0.6-0.1-0.9-0.1H39L39.1,42.8z M42.6,41.2
				c-0.2-0.7-0.4-1.4-0.7-2.1c-0.4,0.7-0.8,1.3-1.1,2L42.6,41.2z"/>
		</g>
	</g>
</g>
</svg>
