<?xml version="1.0" encoding="utf-8"?>
<!-- Generator: Adobe Illustrator 27.7.0, SVG Export Plug-In . SVG Version: 6.00 Build 0)  -->
<svg version="1.1" id="Layer_1" xmlns="http://www.w3.org/2000/svg" xmlns:xlink="http://www.w3.org/1999/xlink" x="0px" y="0px"
	 viewBox="0 0 252 126" style="enable-background:new 0 0 252 126;" xml:space="preserve">
<style type="text/css">
	.st0{fill:#2F2E2F;}
	.st1{fill:#841F32;}
</style>
<g id="g10" transform="matrix(1.3333333,0,0,-1.3333333,0,1806.5867)">
	<g id="g12" transform="scale(0.1)">
		<g id="g14" transform="scale(1.5656)">
			<path id="path16" class="st0" d="M1065.7,8253.9l0.3-12.5h-1.5c-1.5,8-3.4,9.3-14,9.3v-37.3c-0.1-0.4-0.1-0.9,0-1.3
				c0-0.4,0.1-0.8,0.3-1.3c0.1-0.4,0.3-0.8,0.5-1.2c0.2-0.4,0.5-0.7,0.8-1c0.3-0.3,0.6-0.6,1-0.8c0.4-0.2,0.8-0.4,1.2-0.5
				c0.4-0.1,0.8-0.2,1.3-0.3c0.4,0,0.9,0,1.3,0v-1.8h-19.3v1.8c0.4-0.1,0.9-0.1,1.3,0c0.4,0,0.8,0.1,1.3,0.3
				c0.4,0.1,0.8,0.3,1.2,0.5c0.4,0.2,0.7,0.5,1,0.8c0.3,0.3,0.6,0.6,0.8,1c0.2,0.4,0.4,0.8,0.5,1.2c0.1,0.4,0.2,0.8,0.3,1.3
				s0,0.9,0,1.3v37.3c-10.5,0-12.5-1.4-14-9.3h-1.6l0.3,12.5h37.4H1065.7"/>
		</g>
		<g id="g18" transform="scale(1.49531)">
			<path id="path20" class="st0" d="M1048,8642.9c-12.5,0-22.7-10.3-22.7-26.3c0-16,10.2-26.3,22.7-26.3s22.7,10.3,22.7,26.3
				C1070.7,8632.7,1060.6,8642.9,1048,8642.9z M1048,8593.4c-9.5,0-14.9,9.1-14.9,23.3c0,14.2,5.5,23.3,14.9,23.3s15-9.1,15-23.3
				c0-14.2-5.4-23.5-15-23.5V8593.4"/>
		</g>
		<g id="g22" transform="scale(1.6349)">
			<path id="path24" class="st0" d="M1056.9,7863.3l-16.4,41.4h-1.5c0,0-13.8-36-15.5-40.2c-0.1-0.7-0.3-1.3-0.7-1.9
				c-0.3-0.6-0.7-1.1-1.2-1.6c-0.5-0.5-1-0.9-1.6-1.2s-1.2-0.5-1.9-0.6v-1.7h12.9v1.7c-0.5,0-0.9,0-1.4,0.2
				c-0.5,0.1-0.9,0.4-1.2,0.7c-0.4,0.3-0.7,0.7-0.9,1.1c-0.2,0.4-0.4,0.9-0.4,1.3c-0.1,0.6-0.1,1.2,0,1.8l3.1,8.3h16.1l3-8.1
				c0.3-0.7,0.5-1.4,0.5-2.1c0-0.5-0.2-1-0.4-1.4c-0.2-0.4-0.5-0.8-0.9-1.1c-0.4-0.3-0.8-0.5-1.3-0.7c-0.5-0.1-1-0.2-1.5-0.1v-1.7
				h16.3v1.7c-1.2,0.1-2.2,0.5-3.1,1.3C1057.9,7861.3,1057.2,7862.2,1056.9,7863.3L1056.9,7863.3z M1031,7876.2l6.9,18.6l7.1-19
				h-13.7L1031,7876.2"/>
		</g>
		<g id="g26" transform="scale(1.35036)">
			<path id="path28" class="st0" d="M1079.4,9527.9c-0.4-1.6-1.1-3.1-2-4.5c-0.9-1.4-2.1-2.6-3.4-3.6c-1.3-1-2.8-1.7-4.4-2.2
				c-1.6-0.5-3.2-0.7-4.9-0.7h-8.9c-3.3,0-4.7,1.1-4.7,3.8v20.1h12.1c1,0,2-0.2,3-0.6c1-0.4,1.8-1,2.5-1.7c0.7-0.7,1.3-1.6,1.7-2.5
				c0.4-1,0.6-2,0.6-3h1.9v19.7h-2c0-0.5,0-1,0-1.5c-0.1-0.5-0.2-1-0.3-1.5c-0.2-0.5-0.4-0.9-0.6-1.4c-0.3-0.4-0.6-0.8-0.9-1.2
				c-0.3-0.4-0.7-0.7-1.1-1c-0.4-0.3-0.8-0.5-1.3-0.7c-0.5-0.2-0.9-0.3-1.4-0.4c-0.5-0.1-1-0.1-1.5-0.1h-12.5v18.8
				c0,0.4,0.1,0.7,0.3,1c0.2,0.3,0.4,0.6,0.7,0.8c0.3,0.2,0.6,0.4,1,0.4c0.4,0.1,0.7,0.1,1.1,0h10.8c0.7,0.1,1.3,0.1,1.9,0
				c0.7-0.1,1.3-0.2,1.9-0.4c0.6-0.2,1.2-0.4,1.8-0.8c0.6-0.3,1.1-0.7,1.6-1.1c0.5-0.4,0.9-0.9,1.3-1.4c0.4-0.5,0.7-1.1,1-1.7
				c0.3-0.6,0.5-1.2,0.6-1.8c0.2-0.6,0.2-1.3,0.3-1.9h2.2l-0.5,12.7h-40.5v-2c0.5,0.1,1,0.1,1.5,0c0.5,0,1-0.1,1.4-0.3
				c0.5-0.2,0.9-0.4,1.3-0.6c0.4-0.3,0.8-0.6,1.1-0.9c0.3-0.4,0.6-0.8,0.9-1.2c0.2-0.4,0.4-0.9,0.6-1.4c0.1-0.5,0.2-1,0.2-1.4
				c0-0.5,0-1-0.1-1.5v-37.5c0.1-0.5,0.1-1,0.1-1.5c0-0.5-0.1-1-0.2-1.4c-0.1-0.5-0.3-0.9-0.6-1.3c-0.2-0.4-0.5-0.8-0.9-1.2
				c-0.3-0.4-0.7-0.7-1.1-0.9c-0.4-0.3-0.8-0.5-1.3-0.6c-0.5-0.2-0.9-0.3-1.4-0.3c-0.5-0.1-1,0-1.5,0v-2h41.5l3.6,14.7
				L1079.4,9527.9L1079.4,9527.9"/>
		</g>
		<g id="g30" transform="scale(1.41015)">
			<path id="path32" class="st0" d="M1074.7,9164.9l1.6-17.8h-2c-2.6,8.8-7.5,14.1-13.6,14.1c-0.5,0.1-1,0.1-1.5,0
				c-0.5-0.1-1-0.2-1.5-0.3c-0.5-0.2-0.9-0.4-1.4-0.7c-0.4-0.3-0.8-0.6-1.2-0.9c-0.4-0.4-0.7-0.8-0.9-1.2c-0.3-0.4-0.5-0.9-0.7-1.4
				c-0.2-0.5-0.3-1-0.3-1.5c-0.1-0.5-0.1-1,0-1.5c0.3-2.3,1.1-4.4,2.4-6.2c1.3-1.9,3-3.3,5.1-4.3l8.7-5.9c2.2-1.6,4-3.5,5.3-5.9
				c1.3-2.4,2-4.9,2.2-7.7c0-1-0.1-2-0.3-2.9c-0.2-1-0.5-1.9-0.9-2.8c-0.4-0.9-0.8-1.8-1.4-2.6c-0.6-0.8-1.2-1.6-1.9-2.3
				c-0.7-0.7-1.5-1.3-2.3-1.9c-0.8-0.5-1.7-1-2.6-1.4c-0.9-0.4-1.9-0.7-2.8-0.9c-1-0.2-1.9-0.3-2.9-0.3c-3.8,0.6-7.6,1.5-11.3,2.7
				c-0.7-0.1-1.3-0.4-1.7-0.9s-0.7-1.1-0.8-1.8h-1.1l-2.3,17.9h2c3.3-9.2,8.1-14.6,15-14.6c0.6,0,1.2,0,1.8,0.1
				c0.6,0.1,1.2,0.3,1.7,0.5c0.6,0.2,1.1,0.5,1.6,0.8c0.5,0.3,0.9,0.7,1.4,1.1c0.4,0.4,0.8,0.9,1.1,1.4s0.6,1,0.8,1.6
				c0.2,0.6,0.3,1.1,0.4,1.7c0.1,0.6,0.1,1.2,0.1,1.8c0,1-0.1,2-0.4,3c-0.3,1-0.7,1.9-1.2,2.8c-0.5,0.9-1.1,1.6-1.9,2.3
				c-0.7,0.7-1.5,1.3-2.4,1.8l-10.7,7.5c-1.1,0.7-2.1,1.5-2.9,2.4c-0.9,0.9-1.6,2-2.2,3.1c-0.6,1.1-1,2.3-1.3,3.6
				c-0.3,1.2-0.4,2.5-0.3,3.8c-0.1,0.9,0,1.8,0.1,2.7c0.1,0.9,0.4,1.7,0.7,2.6c0.3,0.8,0.7,1.6,1.2,2.4c0.5,0.8,1,1.5,1.7,2.1
				c0.6,0.6,1.3,1.2,2.1,1.7c0.7,0.5,1.5,0.9,2.4,1.2c0.8,0.3,1.7,0.6,2.6,0.7c0.9,0.2,1.8,0.2,2.7,0.2c3.6,0,7.5-2.4,9.9-2.4
				c0.3,0,0.7,0,1,0.1c0.3,0.1,0.6,0.3,0.8,0.5c0.2,0.2,0.4,0.5,0.6,0.8c0.1,0.3,0.2,0.6,0.2,1h2L1074.7,9164.9"/>
		</g>
		<g id="g34" transform="scale(1.27635)">
			<path id="path36" class="st0" d="M1069,10124.5v-2.2c0.5,0,1.1-0.1,1.6-0.2c0.5-0.1,1.1-0.3,1.5-0.6c0.5-0.2,1-0.5,1.4-0.9
				c0.4-0.3,0.8-0.7,1.2-1.1c0.3-0.4,0.6-0.9,0.9-1.4c0.2-0.5,0.4-1,0.6-1.5c0.1-0.5,0.2-1.1,0.3-1.6c0-0.5,0-1.1-0.1-1.6v-31.3
				l-30.9,42.4h-13.2v-2.2c1.1,0,2.2-0.2,3.2-0.7c1-0.5,1.9-1.1,2.6-2l1.7-2.3v-39.9c0-6.8-2.3-10.4-7.7-10.4v-2.2h19v2.2
				c-0.5,0-1.1,0-1.6,0.1c-0.5,0.1-1,0.3-1.5,0.5c-0.5,0.2-0.9,0.5-1.4,0.8c-0.4,0.3-0.8,0.7-1.2,1.1s-0.7,0.8-0.9,1.3
				c-0.3,0.5-0.5,0.9-0.6,1.4c-0.2,0.5-0.2,1-0.3,1.5c0,0.5,0,1,0,1.6v36.8l35.6-48.2h1.2v47.9c0,7.5,3.1,10.4,7.7,10.4v2.2h-19
				H1069"/>
		</g>
		<g id="g38" transform="scale(1.1889)">
			<path id="path40" class="st0" d="M1076.8,10869.2v-2.3c0.6,0,1.2-0.1,1.7-0.2c0.6-0.1,1.1-0.3,1.7-0.6c0.5-0.3,1-0.6,1.5-0.9
				c0.5-0.4,0.9-0.8,1.3-1.2c0.4-0.5,0.7-0.9,1-1.5c0.3-0.5,0.5-1.1,0.6-1.6c0.1-0.6,0.2-1.1,0.3-1.7c0-0.6,0-1.2-0.1-1.8v-33.6
				l-33.2,45.6h-14.4v-2.3c1.2,0,2.4-0.2,3.5-0.7c1.1-0.5,2.1-1.2,2.8-2.1l1.9-2.5v-42.8c0-7.3-2.5-11.1-8.3-11.1v-2.3h20.5v2.3
				c-0.6,0-1.1,0-1.7,0.1c-0.6,0.1-1.1,0.3-1.6,0.5c-0.5,0.2-1,0.5-1.5,0.8c-0.5,0.3-0.9,0.7-1.3,1.1c-0.4,0.4-0.7,0.9-1,1.4
				c-0.3,0.5-0.5,1-0.7,1.6c-0.2,0.5-0.3,1.1-0.3,1.7c0,0.6,0,1.1,0,1.7v39.5l38.2-51.7h1.3v51.4c0,8.1,3.3,11.1,8.3,11.1v2.3
				H1076.8L1076.8,10869.2"/>
		</g>
		<g id="g42" transform="scale(1.05849)">
			<path id="path44" class="st0" d="M1113.2,12229v2.6H1091l-28.9-77.6l-29.1,77.6h-22.6v-2.6c10,0,12.1-5.2,12.1-14.6v-58.4
				c0-13.5-3.8-17-12.3-17v-2.6h29.3v2.7c-8.2,0-12.1,3.5-12.1,17v61l30-80.8h2.8l30.8,82.3v-62.5c0-13.5-3.1-17-11.6-17v-2.6h33.6
				v2.6c-8.2,0-11.4,3.5-11.4,17v60c-0.2,0.8-0.2,1.7-0.2,2.5c0,0.8,0.2,1.7,0.4,2.5c0.2,0.8,0.5,1.6,0.9,2.3c0.4,0.7,0.9,1.4,1.4,2
				c0.6,0.6,1.2,1.2,1.9,1.7c0.7,0.5,1.4,0.9,2.2,1.2c0.8,0.3,1.6,0.5,2.4,0.7C1111.5,12229,1112.3,12229.1,1113.2,12229"/>
		</g>
		<g id="g46" transform="scale(1.09871)">
			<path id="path48" class="st0" d="M1098.8,11749.9c-0.1,0.6-0.1,1.2-0.1,1.8c0.1,0.6,0.2,1.2,0.4,1.8c0.2,0.6,0.5,1.1,0.8,1.7
				c0.3,0.5,0.7,1,1.1,1.4c0.4,0.4,0.9,0.8,1.4,1.1c0.5,0.3,1.1,0.6,1.7,0.8c0.6,0.2,1.2,0.3,1.8,0.4c0.6,0.1,1.2,0,1.8-0.1v2.5
				H1080v-2.5c0.6,0.1,1.2,0.1,1.8,0.1c0.6-0.1,1.2-0.2,1.8-0.4c0.6-0.2,1.1-0.5,1.7-0.8c0.5-0.3,1-0.7,1.4-1.1
				c0.4-0.4,0.8-0.9,1.1-1.4c0.3-0.5,0.6-1.1,0.8-1.7s0.3-1.2,0.4-1.8c0.1-0.6,0-1.2-0.1-1.8v-46.1c0.1-0.6,0.1-1.2,0.1-1.8
				c-0.1-0.6-0.2-1.2-0.4-1.8c-0.2-0.6-0.4-1.1-0.8-1.7c-0.3-0.5-0.7-1-1.1-1.4c-0.4-0.4-0.9-0.8-1.4-1.1c-0.5-0.3-1.1-0.6-1.7-0.8
				c-0.6-0.2-1.2-0.3-1.8-0.4c-0.6-0.1-1.2,0-1.8,0.1v-2.5h27.8v2.4c-0.6-0.1-1.2-0.1-1.8-0.1c-0.6,0.1-1.2,0.2-1.8,0.4
				c-0.6,0.2-1.1,0.4-1.7,0.8c-0.5,0.3-1,0.7-1.4,1.1c-0.4,0.4-0.8,0.9-1.1,1.4c-0.3,0.5-0.6,1.1-0.8,1.7c-0.2,0.6-0.3,1.2-0.4,1.8
				c-0.1,0.6,0,1.2,0,1.8L1098.8,11749.9L1098.8,11749.9"/>
		</g>
		<path id="path50" class="st0" d="M927.1,12923.7c-18.7,0-34-15.4-34-39.4c0-23.9,15.2-39.4,34-39.4s34,15.4,34,39.4
			C961.1,12908.3,946,12923.7,927.1,12923.7z M927.1,12849.7c-14.2,0-22.4,13.6-22.4,34.9c0,21.3,8.1,34.9,22.4,34.9
			s22.3-13.6,22.3-34.9c0-21.3-8-35.1-22.3-35.1V12849.7"/>
		<path id="path52" class="st0" d="M1026.9,12922.4h-55.2v-2.8c0.7,0.1,1.3,0.1,2,0c0.7-0.1,1.3-0.2,1.9-0.4
			c0.6-0.2,1.2-0.5,1.8-0.9c0.6-0.4,1.1-0.8,1.5-1.3c0.4-0.5,0.8-1,1.2-1.6c0.3-0.6,0.6-1.2,0.8-1.8c0.2-0.6,0.3-1.3,0.3-1.9
			c0-0.7,0-1.3-0.2-2v-50.7c0.1-0.6,0.2-1.3,0.2-2c0-0.7-0.1-1.3-0.3-1.9c-0.2-0.6-0.4-1.2-0.8-1.8c-0.3-0.6-0.7-1.1-1.2-1.6
			c-0.5-0.5-1-0.9-1.5-1.3s-1.1-0.7-1.8-0.9c-0.6-0.2-1.3-0.4-1.9-0.4c-0.7-0.1-1.3-0.1-2,0v-2.8h29.4v2.6c-0.7-0.1-1.3-0.1-2,0
			c-0.7,0.1-1.3,0.2-2,0.4c-0.6,0.2-1.2,0.5-1.8,0.9s-1.1,0.8-1.6,1.3c-0.5,0.5-0.9,1-1.2,1.6c-0.4,0.6-0.6,1.2-0.8,1.8
			c-0.2,0.6-0.3,1.3-0.4,2c-0.1,0.7,0,1.3,0.1,2v24.5h15.8c1.4,0,2.8-0.3,4-0.8c1.3-0.5,2.4-1.3,3.4-2.3c1-1,1.8-2.1,2.3-3.4
			c0.5-1.3,0.8-2.6,0.8-4h2.5v26.6h-2.5c0.1-0.7,0-1.4,0-2c-0.1-0.7-0.2-1.3-0.5-2c-0.2-0.6-0.5-1.3-0.9-1.8
			c-0.3-0.6-0.8-1.1-1.2-1.6c-0.5-0.5-1-0.9-1.5-1.3c-0.6-0.4-1.2-0.7-1.8-1s-1.3-0.5-1.9-0.6s-1.3-0.2-2-0.2h-16.4v25.4
			c0,0.5,0,1,0.3,1.5c0.2,0.5,0.5,0.9,0.9,1.2c0.4,0.3,0.9,0.6,1.4,0.7c0.5,0.1,1,0.1,1.5,0h15.2c0.9,0.1,1.8,0.1,2.6,0
			c0.9-0.1,1.7-0.2,2.6-0.5c0.8-0.3,1.7-0.6,2.4-1c0.8-0.4,1.5-0.9,2.2-1.5c0.7-0.6,1.3-1.2,1.8-1.9c0.5-0.7,1-1.5,1.4-2.2
			c0.4-0.8,0.7-1.6,0.9-2.5c0.2-0.9,0.3-1.7,0.3-2.6h2.5L1026.9,12922.4"/>
		<path id="path54" class="st0" d="M773.2,12922.3l0.6-19.6h-2.5c-2.3,12.5-5.4,14.6-21.9,14.6v-58.4c-0.1-0.7-0.1-1.3-0.1-2
			s0.2-1.3,0.4-2c0.2-0.6,0.5-1.2,0.9-1.8c0.4-0.6,0.8-1.1,1.2-1.6c0.5-0.5,1-0.9,1.6-1.3c0.6-0.4,1.2-0.6,1.8-0.8
			c0.6-0.2,1.3-0.4,2-0.4c0.7-0.1,1.3,0,2,0.1v-2.7h-30.6v2.7c0.7-0.1,1.3-0.1,2-0.1c0.7,0.1,1.3,0.2,2,0.4c0.6,0.2,1.2,0.5,1.8,0.8
			c0.6,0.4,1.1,0.8,1.6,1.3c0.5,0.5,0.9,1,1.2,1.6c0.4,0.6,0.6,1.2,0.9,1.8c0.2,0.6,0.3,1.3,0.4,2c0.1,0.7,0,1.3-0.1,2v58.4
			c-16.5,0-19.6-2.1-21.9-14.6h-2.5l0.5,19.6H773.2"/>
		<path id="path56" class="st0" d="M831.8,12919.5v2.8h23.3v-2.8c-2.2-0.4-4.2-1.3-6-2.6c-1.8-1.3-3.3-2.8-4.5-4.7l-18.7-31.2v-22.1
			c-0.1-0.7-0.2-1.4-0.1-2.1c0.1-0.7,0.2-1.4,0.4-2.1c0.2-0.7,0.5-1.3,0.9-1.9c0.4-0.6,0.8-1.2,1.4-1.6c0.5-0.5,1.1-0.9,1.7-1.3
			c0.6-0.3,1.3-0.6,2-0.8c0.7-0.2,1.4-0.3,2.1-0.3s1.4,0.1,2.1,0.3v-2.7h-31.7v2.7c0.7-0.2,1.4-0.3,2.1-0.3c0.7,0,1.4,0.1,2.1,0.3
			c0.7,0.2,1.4,0.4,2,0.8c0.6,0.3,1.2,0.8,1.7,1.3c0.5,0.5,1,1,1.4,1.6c0.4,0.6,0.7,1.3,0.9,1.9c0.2,0.7,0.4,1.4,0.4,2.1
			c0,0.7,0,1.4-0.1,2.1v21.2l-20.1,31.7c-1.1,2-2.6,3.7-4.4,5c-1.9,1.3-3.9,2.2-6.2,2.5v3h30v-2.8c-0.7,0.2-1.5,0.2-2.2,0.1
			c-0.7-0.1-1.4-0.4-2.1-0.7c-0.7-0.4-1.2-0.8-1.7-1.4c-0.5-0.6-0.8-1.2-1.1-1.9c0.1-1.4,0.5-2.7,1.2-3.9l14.5-24.9l15,26
			c0.4,0.8,0.6,1.6,0.6,2.4C838.8,12917.1,837.5,12919.5,831.8,12919.5"/>
		<path id="path58" class="st0" d="M652.1,12923.9l2.2-25.1h-3.2c-3.8,12.4-10.6,19.9-19.1,19.9c-0.7,0.1-1.4,0.1-2.1,0
			c-0.7-0.1-1.4-0.2-2.1-0.5c-0.7-0.2-1.3-0.6-1.9-0.9c-0.6-0.4-1.2-0.8-1.7-1.3c-0.5-0.5-1-1.1-1.3-1.7c-0.4-0.6-0.7-1.2-0.9-1.9
			c-0.2-0.7-0.4-1.4-0.5-2.1c-0.1-0.7-0.1-1.4,0-2.1c0.4-3.2,1.5-6.1,3.4-8.8c1.9-2.6,4.3-4.6,7.2-6l12.3-8.2c3.2-2.2,5.7-5,7.5-8.3
			c1.9-3.4,2.9-7,3-10.8c0-1.4-0.1-2.8-0.4-4.1c-0.3-1.4-0.7-2.7-1.2-4c-0.5-1.3-1.2-2.5-2-3.7c-0.8-1.2-1.6-2.2-2.6-3.2
			c-1-1-2.1-1.9-3.2-2.6c-1.2-0.8-2.4-1.4-3.7-2c-1.3-0.5-2.6-0.9-4-1.2c-1.4-0.3-2.7-0.4-4.1-0.4c-4.8,0.9-9.6,2.1-14.3,3.7
			c-0.9-0.2-1.7-0.6-2.4-1.3c-0.6-0.7-1-1.5-1.1-2.5h-3.1l-3.2,25.3h2.8c4.7-12.9,11.4-20.5,21.2-20.5c0.8,0,1.7,0,2.5,0.2
			c0.8,0.1,1.6,0.4,2.4,0.7c0.8,0.3,1.5,0.7,2.2,1.2c0.7,0.5,1.3,1,1.9,1.6c0.6,0.6,1.1,1.3,1.5,2c0.4,0.7,0.8,1.5,1.1,2.3
			c0.3,0.8,0.5,1.6,0.6,2.4s0.1,1.7,0.1,2.5c0,1.4-0.2,2.8-0.6,4.2c-0.4,1.4-1,2.7-1.7,3.9c-0.7,1.2-1.6,2.3-2.7,3.3
			c-1,1-2.2,1.8-3.5,2.5l-15,10.6c-1.5,1-2.9,2.1-4.1,3.4c-1.2,1.3-2.3,2.8-3.1,4.4c-0.8,1.6-1.5,3.3-1.8,5
			c-0.4,1.8-0.5,3.5-0.5,5.3c-0.1,1.3,0,2.5,0.2,3.8c0.2,1.2,0.5,2.5,0.9,3.6c0.4,1.2,1,2.3,1.7,3.4c0.7,1.1,1.5,2,2.3,2.9
			c0.9,0.9,1.8,1.7,2.9,2.4c1,0.7,2.2,1.3,3.3,1.8c1.2,0.5,2.4,0.8,3.6,1c1.2,0.2,2.5,0.3,3.8,0.3c5.2,0,10.6-3.4,14-3.4
			c0.5,0,0.9,0,1.4,0.2c0.4,0.2,0.8,0.4,1.2,0.7c0.3,0.3,0.6,0.7,0.8,1.1c0.2,0.4,0.3,0.9,0.3,1.3h2.8H652.1"/>
		<path id="path60" class="st0" d="M693.4,12909.7c-0.1,0.7-0.1,1.4-0.1,2.1c0.1,0.7,0.2,1.4,0.4,2.1c0.2,0.7,0.5,1.3,0.9,1.9
			c0.4,0.6,0.8,1.1,1.4,1.6c0.5,0.5,1.1,0.9,1.7,1.2c0.6,0.3,1.3,0.6,2,0.8c0.7,0.2,1.4,0.3,2.1,0.3c0.7,0,1.4-0.1,2.1-0.2v2.8
			h-30.9v-2.8c0.7,0.1,1.3,0.1,2,0.1c0.7-0.1,1.3-0.2,2-0.4c0.6-0.2,1.2-0.5,1.8-0.9c0.6-0.4,1.1-0.8,1.6-1.2c0.5-0.5,0.9-1,1.2-1.6
			c0.4-0.6,0.6-1.2,0.9-1.8c0.2-0.6,0.3-1.3,0.4-2c0.1-0.7,0-1.3-0.1-2v-50.7c0.1-0.7,0.1-1.3,0.1-2c-0.1-0.7-0.2-1.3-0.4-2
			c-0.2-0.6-0.5-1.3-0.9-1.8c-0.4-0.6-0.8-1.1-1.2-1.6c-0.5-0.5-1-0.9-1.6-1.2c-0.6-0.4-1.2-0.6-1.8-0.8c-0.6-0.2-1.3-0.4-2-0.4
			c-0.7-0.1-1.3,0-2,0.1v-2.8H704v2.6c-0.7-0.2-1.4-0.2-2.1-0.2c-0.7,0-1.4,0.1-2.1,0.3c-0.7,0.2-1.4,0.4-2,0.8
			c-0.6,0.3-1.2,0.8-1.7,1.2c-0.5,0.5-1,1-1.4,1.6c-0.4,0.6-0.7,1.2-0.9,1.9s-0.4,1.4-0.4,2.1c-0.1,0.7,0,1.4,0.1,2.1V12909.7"/>
		<path id="path62" class="st0" d="M519.8,12866.1c-0.6-2.2-1.4-4.2-2.7-6c-1.2-1.9-2.8-3.5-4.5-4.8c-1.8-1.3-3.7-2.4-5.9-3
			c-2.1-0.7-4.3-1-6.6-0.9H488c-4.4,0-6.3,1.5-6.3,5.2v27.1H498c1.4,0,2.8-0.3,4-0.8c1.3-0.5,2.4-1.3,3.4-2.3c1-1,1.8-2.1,2.3-3.4
			c0.5-1.3,0.8-2.6,0.8-4h2.5v26.6h-2.5c0.1-0.7,0-1.4,0-2c-0.1-0.7-0.2-1.3-0.5-2c-0.2-0.6-0.5-1.3-0.9-1.8
			c-0.4-0.6-0.8-1.1-1.2-1.6c-0.5-0.5-1-0.9-1.5-1.3c-0.6-0.4-1.1-0.7-1.8-1c-0.6-0.3-1.3-0.5-1.9-0.6c-0.7-0.1-1.3-0.2-2-0.2h-16.9
			v25.4c0,0.5,0.1,1,0.3,1.5c0.2,0.5,0.5,0.9,0.9,1.2c0.4,0.3,0.9,0.6,1.4,0.7c0.5,0.1,1,0.1,1.5,0h14.6c0.9,0.1,1.8,0.1,2.6,0
			c0.9-0.1,1.7-0.2,2.6-0.5c0.8-0.3,1.6-0.6,2.4-1c0.8-0.4,1.5-0.9,2.2-1.5c0.7-0.6,1.3-1.2,1.8-1.9c0.5-0.7,1-1.5,1.4-2.3
			s0.7-1.6,0.9-2.5c0.2-0.9,0.3-1.7,0.3-2.6h2.5l-0.6,17.1H462v-2.8c0.7,0.1,1.3,0.1,2,0.1c0.7-0.1,1.3-0.2,1.9-0.4
			c0.6-0.2,1.2-0.5,1.8-0.9c0.6-0.4,1.1-0.8,1.5-1.3c0.5-0.5,0.9-1,1.2-1.6c0.3-0.6,0.6-1.2,0.8-1.8c0.2-0.6,0.3-1.3,0.3-2
			c0-0.7,0-1.3-0.2-2v-50.7c0.1-0.6,0.2-1.3,0.2-2c0-0.7-0.1-1.3-0.3-2c-0.2-0.6-0.4-1.2-0.8-1.8c-0.3-0.6-0.7-1.1-1.2-1.6
			c-0.5-0.5-1-0.9-1.5-1.3c-0.6-0.4-1.2-0.6-1.8-0.9c-0.6-0.2-1.3-0.3-1.9-0.4c-0.7-0.1-1.3,0-2,0.1v-2.7H518l5,19.8h-3.2
			L519.8,12866.1"/>
		<path id="path64" class="st0" d="M592.1,12852.5c-1.8,2.1-18.6,25.2-22.3,30.4c1.2,0.1,2.4,0.3,3.6,0.6c1.2,0.3,2.3,0.7,3.5,1.3
			c1.1,0.5,2.2,1.2,3.1,1.9c1,0.7,1.9,1.6,2.7,2.5c0.8,0.9,1.6,1.9,2.2,2.9c0.6,1.1,1.2,2.2,1.6,3.3c0.4,1.2,0.7,2.3,0.9,3.6
			c0.2,1.2,0.3,2.4,0.2,3.7c0,11.8-8.9,19.8-25.1,19.8h-29.9v-2.8c0.7,0.1,1.3,0.1,2,0.1c0.7-0.1,1.3-0.2,1.9-0.4
			c0.6-0.2,1.2-0.5,1.8-0.9c0.6-0.4,1.1-0.8,1.5-1.3c0.5-0.5,0.9-1,1.2-1.6c0.3-0.6,0.6-1.2,0.8-1.8c0.2-0.6,0.3-1.3,0.3-2
			c0-0.7,0-1.3-0.2-2v-50.7c0.1-0.7,0.2-1.3,0.1-2c0-0.7-0.1-1.3-0.3-1.9c-0.2-0.6-0.4-1.2-0.8-1.8c-0.3-0.6-0.7-1.1-1.2-1.6
			c-0.5-0.5-1-0.9-1.5-1.3c-0.6-0.4-1.1-0.6-1.8-0.9c-0.6-0.2-1.3-0.4-1.9-0.4c-0.7-0.1-1.3-0.1-2,0v-2.8H562v2.6
			c-0.7-0.1-1.3-0.1-2,0c-0.7,0.1-1.3,0.2-1.9,0.4c-0.6,0.2-1.2,0.5-1.8,0.9c-0.6,0.4-1.1,0.8-1.5,1.3c-0.5,0.5-0.8,1-1.2,1.6
			c-0.3,0.6-0.6,1.2-0.8,1.8c-0.2,0.6-0.3,1.3-0.3,1.9c0,0.7,0,1.3,0.1,2v22.3h5.8l24.7-35.1h16.6v2.5
			C596.7,12848.8,594.1,12850.1,592.1,12852.5L592.1,12852.5z M552.7,12885.9v25.6c0,5.3,1.1,6.6,6.9,6.6c1.1,0.2,2.2,0.3,3.4,0.3
			c1.1,0,2.3-0.2,3.4-0.5c1.1-0.3,2.1-0.7,3.1-1.3c1-0.5,1.9-1.2,2.8-2c0.8-0.8,1.6-1.6,2.2-2.6c0.6-0.9,1.2-1.9,1.6-3
			c0.4-1.1,0.7-2.2,0.9-3.3c0.2-1.1,0.2-2.3,0.1-3.4c0-11.6-8.8-16.4-21.9-16.4H552.7"/>
		<path id="path66" class="st0" d="M358.8,12909.8c-0.1,0.7-0.1,1.3-0.1,2c0.1,0.7,0.2,1.3,0.4,2c0.2,0.6,0.5,1.3,0.9,1.8
			c0.4,0.6,0.8,1.1,1.2,1.6c0.5,0.5,1,0.9,1.6,1.2c0.6,0.4,1.2,0.6,1.8,0.9c0.6,0.2,1.3,0.3,2,0.4c0.7,0.1,1.3,0,2-0.1v2.8h-30.6
			v-2.8c0.7,0.1,1.3,0.1,2,0.1c0.7-0.1,1.3-0.2,2-0.4c0.6-0.2,1.3-0.5,1.8-0.9c0.6-0.4,1.1-0.8,1.6-1.2c0.5-0.5,0.9-1,1.2-1.6
			c0.4-0.6,0.6-1.2,0.9-1.8c0.2-0.6,0.3-1.3,0.4-2c0.1-0.7,0-1.3-0.1-2v-50.7c0.1-0.7,0.1-1.3,0.1-2c-0.1-0.7-0.2-1.3-0.4-2
			c-0.2-0.6-0.5-1.2-0.9-1.8c-0.4-0.6-0.8-1.1-1.2-1.6c-0.5-0.5-1-0.9-1.6-1.2c-0.6-0.4-1.2-0.6-1.8-0.8c-0.6-0.2-1.3-0.4-2-0.4
			s-1.3,0-2,0.1v-2.8h30.6v2.6c-0.7-0.1-1.3-0.1-2-0.1c-0.7,0.1-1.3,0.2-2,0.4c-0.6,0.2-1.2,0.5-1.8,0.8c-0.6,0.4-1.1,0.8-1.6,1.2
			c-0.5,0.5-0.9,1-1.2,1.6c-0.4,0.6-0.6,1.2-0.9,1.8c-0.2,0.6-0.3,1.3-0.4,2c-0.1,0.7,0,1.3,0.1,2V12909.8L358.8,12909.8"/>
		<path id="path68" class="st0" d="M408.8,12919.6v2.8H381v-2.8c1.1-0.1,2.1-0.4,3.2-0.8c1-0.4,1.9-1,2.8-1.7
			c0.8-0.7,1.5-1.5,2.1-2.5c0.6-0.9,1-1.9,1.3-3l27.4-66.5h1.8c0,0,21.9,61.1,23.9,66.5c0.5,2,1.5,3.8,3,5.2
			c1.5,1.4,3.3,2.3,5.4,2.7v2.8h-21.2v-2.8c0.9,0.2,1.8,0.1,2.6-0.1c0.9-0.2,1.7-0.6,2.4-1.2c0.7-0.6,1.3-1.3,1.7-2.1
			c0.4-0.8,0.6-1.7,0.7-2.6c0-1-0.3-2-0.6-3l-16.3-45.2l-18.9,45.4c-0.4,1.1-0.6,2.2-0.6,3.4
			C401.5,12917.8,404.1,12919.6,408.8,12919.6"/>
		<path id="path70" class="st0" d="M153.9,12944.3c8.3,0,12.6-4.1,12.6-16v-47c-0.2-1.2-0.2-2.4-0.2-3.7c0-1.2,0-2.4,0.2-3.7
			c0.1-1.2,0.3-2.4,0.6-3.6c0.3-1.2,0.6-2.4,1-3.5c0.4-1.2,0.8-2.3,1.4-3.4c0.5-1.1,1.1-2.2,1.7-3.2c0.6-1,1.3-2,2.1-3
			c0.8-1,1.6-1.9,2.4-2.7c0.9-0.9,1.8-1.7,2.7-2.5c0.9-0.8,1.9-1.5,3-2.1c1-0.7,2.1-1.3,3.2-1.8c1.1-0.5,2.2-1,3.4-1.4
			c1.2-0.4,2.3-0.7,3.5-1c1.2-0.3,2.4-0.5,3.6-0.6c1.2-0.1,2.4-0.2,3.7-0.2c1.2,0,2.4,0.1,3.7,0.2c1.2-0.1,2.3-0.1,3.5-0.1
			c1.2,0,2.3,0.1,3.5,0.3c1.1,0.2,2.3,0.4,3.4,0.7c1.1,0.3,2.2,0.6,3.3,1c1.1,0.4,2.1,0.9,3.2,1.4c1,0.5,2,1.1,3,1.7
			c1,0.6,1.9,1.3,2.8,2c0.9,0.7,1.8,1.5,2.6,2.3c0.8,0.8,1.6,1.7,2.3,2.6c0.7,0.9,1.4,1.9,2,2.8c0.6,1,1.2,2,1.7,3
			c0.5,1,1,2.1,1.4,3.2c0.4,1.1,0.7,2.2,1,3.3c0.3,1.1,0.5,2.3,0.7,3.4c0.2,1.2,0.2,2.3,0.3,3.5c0,1.2,0,2.3-0.1,3.5v51.2
			c-0.2,0.9-0.4,1.8-0.4,2.7c0,0.9,0.1,1.8,0.3,2.7c0.2,0.9,0.5,1.7,1,2.5c0.4,0.8,1,1.5,1.6,2.2c0.6,0.7,1.3,1.2,2.1,1.7
			c0.8,0.5,1.6,0.9,2.5,1.1c0.9,0.3,1.8,0.4,2.7,0.5c0.9,0,1.8,0,2.7-0.2v2.8h-30.5v-2.8c8.5,0,12.1-3.8,12.3-14
			c0.2-10.2,0.7-37.1,0.7-52.9c0.1-1.8-0.1-3.5-0.4-5.3c-0.3-1.8-0.8-3.4-1.5-5.1c-0.7-1.6-1.5-3.2-2.5-4.7c-1-1.5-2.1-2.8-3.4-4
			c-1.3-1.2-2.7-2.3-4.2-3.2c-1.5-0.9-3.1-1.7-4.8-2.3c-1.7-0.6-3.4-1-5.1-1.3c-1.8-0.2-3.5-0.3-5.3-0.1c-1.8-0.1-3.7-0.1-5.5,0.2
			c-1.8,0.3-3.6,0.7-5.3,1.4c-1.7,0.7-3.3,1.5-4.9,2.5c-1.5,1-2.9,2.2-4.2,3.5c-1.3,1.3-2.4,2.8-3.4,4.3c-1,1.6-1.7,3.2-2.4,4.9
			c-0.6,1.7-1,3.5-1.2,5.3c-0.2,1.8-0.2,3.6-0.1,5.5v52.9c-0.2,0.8-0.3,1.7-0.3,2.6c0,0.9,0.1,1.7,0.3,2.6c0.2,0.8,0.5,1.6,0.9,2.4
			c0.4,0.8,0.9,1.5,1.5,2.1c0.6,0.6,1.2,1.2,2,1.7c0.7,0.5,1.5,0.9,2.3,1.2c0.8,0.3,1.7,0.5,2.5,0.6c0.9,0.1,1.7,0.1,2.6-0.1v2.1
			h-35.7V12944.3L153.9,12944.3"/>
		<path id="path72" class="st0" d="M298,12922.4v-2.8c0.7,0,1.4-0.1,2.1-0.3c0.7-0.2,1.4-0.4,2-0.7c0.6-0.3,1.2-0.7,1.8-1.2
			c0.6-0.5,1.1-1,1.5-1.5c0.4-0.6,0.8-1.2,1.1-1.8s0.6-1.3,0.7-2c0.2-0.7,0.3-1.4,0.3-2.1c0-0.7,0-1.4-0.2-2.1v-40l-39.5,54.2h-17.1
			v-2.8c1.4,0,2.8-0.3,4.1-0.8c1.3-0.6,2.4-1.4,3.4-2.5l2.2-3v-50.6c0-8.7-3-13.2-9.8-13.2v-2.8h24.2v2.8c-0.7,0-1.3,0-2,0.2
			c-0.7,0.1-1.3,0.3-1.9,0.6c-0.6,0.3-1.2,0.6-1.8,1c-0.6,0.4-1.1,0.8-1.5,1.3c-0.5,0.5-0.8,1.1-1.2,1.6c-0.3,0.6-0.6,1.2-0.8,1.9
			c-0.2,0.6-0.3,1.3-0.4,2c-0.1,0.7,0,1.3,0.1,2v47l45.4-61.5h1.8v61.2c0,9.6,3.9,13.2,9.8,13.2v2.8H298"/>
		<path id="path74" class="st1" d="M357.6,12768h28.2c3,0,6-0.3,9-0.9c3-0.6,5.8-1.5,8.6-2.6c2.8-1.2,5.4-2.6,7.9-4.2
			c2.5-1.7,4.8-3.6,7-5.7c2.1-2.1,4-4.5,5.7-7c1.7-2.5,3.1-5.2,4.2-7.9c1.2-2.8,2-5.7,2.6-8.6c0.6-3,0.9-5.9,0.9-9c0-3-0.3-6-0.9-9
			c-0.6-3-1.5-5.8-2.6-8.6c-1.2-2.8-2.6-5.4-4.2-7.9c-1.7-2.5-3.6-4.8-5.7-7c-2.1-2.1-4.5-4-7-5.7c-2.5-1.7-5.2-3.1-7.9-4.2
			c-2.8-1.1-5.7-2-8.6-2.6c-3-0.6-5.9-0.9-9-0.9h-28.2V12768z M384.9,12692.8c1.9,0,3.8,0.2,5.7,0.6c1.9,0.4,3.7,0.9,5.5,1.7
			c1.8,0.7,3.5,1.6,5.1,2.7c1.6,1.1,3.1,2.3,4.4,3.6c1.4,1.4,2.6,2.8,3.6,4.4c1.1,1.6,2,3.3,2.7,5.1c0.7,1.8,1.3,3.6,1.7,5.5
			c0.4,1.9,0.6,3.8,0.6,5.7c0,1.9-0.2,3.8-0.6,5.7c-0.4,1.9-0.9,3.7-1.7,5.5c-0.7,1.8-1.6,3.5-2.7,5.1c-1.1,1.6-2.3,3.1-3.6,4.4
			c-1.4,1.4-2.8,2.6-4.4,3.6c-1.6,1.1-3.3,2-5.1,2.7c-1.8,0.7-3.6,1.3-5.5,1.7c-1.9,0.4-3.8,0.6-5.7,0.6h-8.4v-58.6H384.9"/>
		<path id="path76" class="st1" d="M451.3,12733.7h18.2v-10.6c0.6,1.7,1.5,3.3,2.6,4.8c1.1,1.5,2.4,2.7,3.9,3.8
			c1.5,1,3.1,1.8,4.9,2.4c1.8,0.5,3.6,0.8,5.4,0.7c3.2,0,6.1-0.8,8.9-2.3l-5.9-16.4c-2.4,1.1-4.8,1.5-7.4,1.4
			c-8.3,0-12.7-3.8-12.7-16.1v-25.2h-17.9L451.3,12733.7"/>
		<path id="path78" class="st1" d="M509.1,12754.8c0,1.5,0.3,3,0.8,4.4c0.6,1.4,1.4,2.7,2.5,3.8c1.1,1.1,2.3,1.9,3.7,2.5
			c1.4,0.6,2.9,0.9,4.4,0.9c1.5,0,3-0.3,4.4-0.8c1.4-0.6,2.7-1.4,3.8-2.5c1.1-1.1,1.9-2.3,2.5-3.7c0.6-1.4,0.9-2.9,0.9-4.4
			c0-1.5-0.3-3-0.8-4.4c-0.6-1.4-1.4-2.7-2.5-3.8c-1.1-1.1-2.3-1.9-3.7-2.5c-1.4-0.6-2.9-0.9-4.4-0.9c-0.8,0-1.5,0-2.3,0.2
			c-0.7,0.1-1.5,0.3-2.2,0.6c-0.7,0.3-1.4,0.6-2,1c-0.6,0.4-1.2,0.9-1.8,1.4c-0.5,0.5-1,1.1-1.5,1.7c-0.4,0.6-0.8,1.3-1.1,2
			c-0.3,0.7-0.5,1.4-0.7,2.2C509.2,12753.3,509.1,12754,509.1,12754.8L509.1,12754.8z M511.6,12733.6h18.2v-57.4h-18.2v57.6V12733.6
			"/>
		<path id="path80" class="st1" d="M545.3,12733.7h20.1l8.1-17.1c2-4.9,3.6-10,4.8-15.2c1,5.2,2.5,10.3,4.4,15.2l7.8,17.1h18.5
			l-30.6-58.6h-1.5L545.3,12733.7"/>
		<path id="path82" class="st1" d="M652.6,12690.1c5.3,0,10.1,1.5,14.5,4.5l10.6-11.2c-3.4-3-7.2-5.2-11.4-6.6
			c-4.2-1.5-8.6-2.1-13.1-1.8c-20.8,0.1-33.7,12.4-33.7,30c0,2,0.2,4,0.6,6c0.4,2,1,3.9,1.9,5.8c0.8,1.9,1.8,3.6,3,5.3
			c1.2,1.7,2.5,3.2,4,4.6c1.5,1.4,3.1,2.6,4.8,3.7c1.7,1.1,3.6,2,5.5,2.6c1.9,0.7,3.9,1.2,5.9,1.5s4,0.4,6.1,0.3
			c21.2,0,31.7-15.3,30.5-35.5h-43.9c0.5-1.5,1.2-2.9,2.2-4.2c1-1.3,2.2-2.3,3.5-3.2c1.4-0.8,2.8-1.4,4.4-1.7
			C649.4,12689.9,651,12689.9,652.6,12690.1L652.6,12690.1z M663.2,12709.9c0,0.8-0.1,1.5-0.2,2.3s-0.4,1.5-0.7,2.2
			c-0.3,0.7-0.7,1.3-1.1,2c-0.5,0.6-1,1.2-1.5,1.7c-0.6,0.5-1.2,0.9-1.9,1.3c-0.7,0.4-1.4,0.7-2.1,0.9c-0.7,0.2-1.5,0.4-2.2,0.4
			c-0.8,0.1-1.5,0-2.3-0.1c-1.6,0.2-3.2,0-4.7-0.4c-1.5-0.4-3-1.2-4.2-2.1c-1.3-1-2.3-2.2-3.1-3.6c-0.8-1.4-1.3-2.9-1.5-4.5h25.5
			H663.2"/>
		<path id="path84" class="st1" d="M700.5,12733.7h18.2v-9.4c0.9,1.7,1.9,3.2,3.2,4.5c1.3,1.3,2.7,2.5,4.3,3.4
			c1.6,0.9,3.3,1.6,5.1,2.1c1.8,0.5,3.6,0.6,5.5,0.6c12.6,0,21.2-9.2,21.2-25.5v-33.2h-18.2v31.7c0.1,0.7,0.2,1.4,0.2,2.1
			c0,0.7-0.1,1.4-0.3,2.1c-0.2,0.7-0.4,1.3-0.8,1.9c-0.3,0.6-0.7,1.2-1.2,1.7c-0.5,0.5-1,1-1.6,1.4c-0.6,0.4-1.2,0.7-1.9,1
			c-0.7,0.2-1.3,0.4-2,0.5c-0.7,0.1-1.4,0.1-2.1,0c-0.8,0.1-1.6,0.1-2.3,0c-0.8-0.1-1.5-0.3-2.3-0.5c-0.7-0.3-1.4-0.6-2.1-1
			c-0.7-0.4-1.3-0.9-1.8-1.5c-0.6-0.6-1-1.2-1.5-1.8c-0.4-0.7-0.8-1.4-1-2.1c-0.3-0.7-0.4-1.5-0.5-2.3c-0.1-0.8-0.1-1.6,0-2.3v-30.7
			h-18.2V12733.7"/>
		<path id="path86" class="st1" d="M820.4,12697.8v21.2h-8.5v14.8h8.5v29.9h18.1v-29.9h14.7v-15.1H839v-21.2c0-5.8,1.9-7,4.8-7
			c2.4,0.1,4.5,1,6.4,2.4l6.9-12.7c-2.3-1.8-4.8-3.2-7.6-4.1c-2.8-0.9-5.6-1.3-8.5-1.2C829.3,12675.1,820.4,12680.5,820.4,12697.8"
			/>
		<path id="path88" class="st1" d="M870.3,12704.9c-0.1,2.1,0,4.2,0.2,6.3c0.3,2.1,0.8,4.1,1.5,6.1c0.7,2,1.6,3.9,2.7,5.7
			c1.1,1.8,2.3,3.5,3.7,5.1c1.4,1.6,3,3,4.7,4.2c1.7,1.3,3.5,2.3,5.4,3.2c1.9,0.9,3.9,1.6,5.9,2.1c2,0.5,4.1,0.8,6.2,0.9
			c2.1,0.1,4.2,0,6.3-0.4c2.1-0.3,4.1-0.9,6.1-1.6c2-0.7,3.9-1.7,5.7-2.8c1.8-1.1,3.5-2.4,5-3.8c1.5-1.4,2.9-3,4.1-4.7
			s2.3-3.5,3.1-5.5c0.9-1.9,1.5-3.9,2-6c0.5-2.1,0.7-4.1,0.8-6.3c0-2.1-0.1-4.2-0.5-6.3c-0.4-2.1-0.9-4.1-1.7-6.1
			c-0.8-2-1.7-3.8-2.9-5.6c-1.1-1.8-2.5-3.4-3.9-4.9c-1.5-1.5-3.1-2.9-4.8-4c-1.7-1.2-3.6-2.2-5.5-3s-3.9-1.4-6-1.9
			c-2.1-0.4-4.2-0.6-6.3-0.6c-2-0.1-4.1,0-6.1,0.3s-4,0.8-5.9,1.5c-1.9,0.7-3.7,1.6-5.5,2.6c-1.7,1.1-3.3,2.3-4.8,3.7
			c-1.5,1.4-2.8,2.9-4,4.6c-1.2,1.7-2.2,3.4-3,5.3c-0.8,1.9-1.4,3.8-1.9,5.8C870.6,12700.8,870.3,12702.8,870.3,12704.9
			L870.3,12704.9z M915,12704.9c0.1,0.9,0.1,1.9,0.1,2.8c-0.1,0.9-0.3,1.8-0.5,2.7c-0.3,0.9-0.6,1.7-1.1,2.6c-0.5,0.8-1,1.6-1.6,2.3
			c-0.6,0.7-1.3,1.3-2,1.9c-0.7,0.6-1.5,1-2.4,1.4c-0.8,0.4-1.7,0.7-2.6,0.9c-0.9,0.2-1.8,0.3-2.8,0.3s-1.9-0.1-2.8-0.3
			c-0.9-0.2-1.8-0.5-2.6-0.9c-0.8-0.4-1.7-0.8-2.4-1.4c-0.7-0.6-1.4-1.2-2-1.9c-0.6-0.7-1.2-1.5-1.6-2.3c-0.5-0.8-0.8-1.7-1.1-2.6
			s-0.5-1.8-0.5-2.7s-0.1-1.9,0.1-2.8c-0.1-0.9-0.1-1.9-0.1-2.8c0.1-0.9,0.3-1.8,0.5-2.7c0.3-0.9,0.6-1.7,1.1-2.6
			c0.5-0.8,1-1.6,1.6-2.3c0.6-0.7,1.3-1.3,2-1.9c0.7-0.6,1.5-1,2.4-1.4c0.8-0.4,1.7-0.7,2.6-0.9c0.9-0.2,1.8-0.3,2.8-0.3
			c0.9,0,1.9,0.1,2.8,0.3c0.9,0.2,1.8,0.5,2.6,0.9c0.8,0.4,1.7,0.8,2.4,1.4c0.7,0.6,1.4,1.2,2,1.9c0.6,0.7,1.2,1.5,1.6,2.3
			c0.5,0.8,0.8,1.7,1.1,2.6c0.3,0.9,0.4,1.8,0.5,2.7C915.1,12703,915.1,12703.9,915,12704.9"/>
		<path id="path90" class="st1" d="M991.7,12768h28.2c3,0,6-0.3,9-0.9c3-0.6,5.8-1.5,8.6-2.6c2.8-1.2,5.4-2.6,8-4.2
			c2.5-1.7,4.8-3.6,7-5.7c2.1-2.1,4-4.5,5.7-7c1.7-2.5,3.1-5.2,4.3-7.9c1.2-2.8,2-5.7,2.6-8.6c0.6-3,0.9-5.9,0.9-9c0-3-0.3-6-0.9-9
			c-0.6-3-1.5-5.8-2.6-8.6c-1.2-2.8-2.6-5.4-4.3-7.9c-1.7-2.5-3.6-4.8-5.7-7c-2.1-2.1-4.5-4-7-5.7c-2.5-1.7-5.2-3.1-7.9-4.2
			c-2.8-1.1-5.7-2-8.6-2.6c-3-0.6-5.9-0.9-9-0.9h-28.2V12768z M1018.9,12692.8c1.9,0,3.8,0.2,5.7,0.6c1.9,0.4,3.7,0.9,5.5,1.7
			c1.8,0.7,3.5,1.6,5.1,2.7c1.6,1.1,3.1,2.3,4.4,3.6s2.6,2.8,3.6,4.4c1.1,1.6,2,3.3,2.7,5.1c0.7,1.8,1.3,3.6,1.7,5.5
			c0.4,1.9,0.6,3.8,0.6,5.7c0,1.9-0.2,3.8-0.6,5.7c-0.4,1.9-0.9,3.7-1.7,5.5c-0.7,1.8-1.6,3.5-2.7,5.1c-1.1,1.6-2.3,3.1-3.6,4.4
			c-1.4,1.4-2.8,2.6-4.4,3.6c-1.6,1.1-3.3,2-5.1,2.7c-1.8,0.7-3.6,1.3-5.5,1.7c-1.9,0.4-3.8,0.6-5.7,0.6h-8.1v-58.6h8.4H1018.9"/>
		<path id="path92" class="st1" d="M1086.7,12754.8c0,0.8,0.1,1.5,0.2,2.2c0.1,0.7,0.4,1.5,0.7,2.2c0.3,0.7,0.7,1.4,1.1,2
			c0.4,0.6,0.9,1.2,1.5,1.7c0.5,0.5,1.1,1,1.8,1.4c0.6,0.4,1.3,0.7,2,1c0.7,0.3,1.4,0.5,2.2,0.6c0.7,0.1,1.5,0.2,2.3,0.2
			c1.5,0,3-0.3,4.4-0.9s2.6-1.4,3.7-2.5c1.1-1.1,1.9-2.3,2.5-3.7s0.9-2.9,0.9-4.4s-0.3-3-0.9-4.4c-0.6-1.4-1.4-2.6-2.5-3.7
			c-1.1-1.1-2.3-1.9-3.7-2.5s-2.9-0.9-4.4-0.9c-0.8,0-1.5,0-2.3,0.2c-0.7,0.1-1.5,0.3-2.2,0.6c-0.7,0.3-1.4,0.6-2,1.1
			c-0.6,0.4-1.2,0.9-1.8,1.4c-0.5,0.5-1,1.1-1.5,1.8c-0.4,0.6-0.8,1.3-1.1,2c-0.3,0.7-0.5,1.4-0.6,2.2
			C1086.7,12753.3,1086.6,12754,1086.7,12754.8z M1089.1,12733.6h18.2v-57.4h-18.2v57.6V12733.6"/>
		<g id="g94" transform="scale(1.05553)">
			<path id="path96" class="st1" d="M1065.7,12018.3l10,8.9c1.8-1.8,3.9-3.1,6.2-4.1c2.3-1,4.8-1.5,7.3-1.6c5.6,0,7.4,1,7.4,3.3
				c0,2.3-3.3,3.5-12.1,5.5c-1.1,0.1-2.1,0.3-3.1,0.6c-1,0.3-2,0.7-3,1.2c-1,0.5-1.9,1.1-2.7,1.7c-0.8,0.7-1.6,1.4-2.4,2.2
				c-0.7,0.8-1.4,1.6-1.9,2.6c-0.6,0.9-1,1.9-1.4,2.9c-0.4,1-0.7,2-0.9,3.1c-0.2,1.1-0.3,2.1-0.3,3.2c0,12.2,9.4,17.2,21.1,17.2
				c3.7,0.2,7.3-0.3,10.8-1.6s6.6-3.3,9.2-5.9l-9.2-10c-2.9,2.5-6.2,3.9-10,4.1c-3.9,0-5.9-1-5.9-3.2c0-2.2,3.4-3.4,10.8-5.1
				c1.1,0,2.2-0.2,3.3-0.4c1.1-0.2,2.2-0.6,3.2-1c1.1-0.4,2-1,3-1.6c0.9-0.6,1.8-1.3,2.7-2.1c0.8-0.8,1.6-1.6,2.2-2.5
				c0.7-0.9,1.2-1.9,1.7-2.9c0.5-1,0.9-2.1,1.2-3.2c0.3-1.1,0.5-2.2,0.6-3.3c0-10-5.2-18.1-22.3-18.1c-2.4-0.2-4.8-0.2-7.1,0.2
				c-2.4,0.4-4.7,1-6.9,1.9c-2.2,0.9-4.3,2-6.3,3.4C1069,12014.9,1067.2,12016.5,1065.7,12018.3"/>
		</g>
		<g id="g98" transform="scale(1.12899)">
			<path id="path100" class="st1" d="M1054.6,11253.5c0,1.8,0.2,3.6,0.5,5.4c0.4,1.8,0.9,3.5,1.6,5.2c0.7,1.7,1.6,3.2,2.6,4.7
				c1,1.5,2.2,2.8,3.5,4.1c1.3,1.2,2.7,2.3,4.3,3.3s3.2,1.7,4.9,2.3c1.7,0.6,3.5,1,5.2,1.3c1.8,0.3,3.6,0.3,5.4,0.2
				c2.1,0.1,4.1,0,6.1-0.4c2-0.4,4-1,5.8-1.9c1.9-0.9,3.6-2,5.2-3.3c1.6-1.3,3-2.8,4.2-4.5l-11.4-9.4c-1.1,1.7-2.5,3-4.3,3.9
				c-1.8,0.9-3.6,1.4-5.6,1.4c-0.8,0-1.6,0-2.4-0.2c-0.8-0.1-1.5-0.4-2.3-0.7c-0.7-0.3-1.4-0.7-2.1-1.1c-0.6-0.5-1.2-1-1.8-1.6
				c-0.5-0.6-1-1.2-1.4-1.9c-0.4-0.7-0.7-1.4-1-2.2c-0.2-0.8-0.4-1.5-0.5-2.3c-0.1-0.8-0.1-1.6,0-2.4c-0.1-0.8-0.1-1.6,0-2.4
				c0.1-0.8,0.2-1.6,0.5-2.4c0.2-0.8,0.6-1.5,1-2.2c0.4-0.7,0.9-1.4,1.4-2c0.5-0.6,1.1-1.1,1.8-1.6c0.7-0.5,1.4-0.9,2.1-1.2
				c0.7-0.3,1.5-0.6,2.3-0.7c0.8-0.2,1.6-0.2,2.4-0.2c2,0,3.9,0.4,5.7,1.2c1.8,0.8,3.3,2,4.6,3.5l10.9-9.4c-1.3-1.5-2.7-2.9-4.3-4.1
				c-1.6-1.2-3.3-2.2-5.2-3c-1.8-0.8-3.7-1.4-5.7-1.8c-2-0.4-4-0.5-6-0.4c-1.8-0.1-3.6,0-5.4,0.2c-1.8,0.3-3.5,0.7-5.2,1.3
				s-3.3,1.4-4.9,2.3c-1.5,0.9-3,2-4.3,3.3c-1.3,1.2-2.5,2.6-3.5,4.1c-1,1.5-1.9,3.1-2.6,4.7c-0.7,1.7-1.3,3.4-1.6,5.2
				C1054.8,11249.9,1054.6,11251.7,1054.6,11253.5"/>
		</g>
		<g id="g102" transform="scale(1.20888)">
			<path id="path104" class="st1" d="M1042.6,10509.6c-0.1,1.7,0,3.5,0.2,5.2c0.2,1.7,0.7,3.4,1.2,5.1c0.6,1.6,1.3,3.2,2.2,4.7
				c0.9,1.5,1.9,2.9,3.1,4.2c1.2,1.3,2.5,2.5,3.9,3.5c1.4,1,2.9,1.9,4.5,2.7c1.6,0.7,3.2,1.3,4.9,1.7c1.7,0.4,3.4,0.7,5.2,0.7
				c1.7,0.1,3.5,0,5.2-0.3c1.7-0.3,3.4-0.7,5-1.3c1.6-0.6,3.2-1.4,4.7-2.3c1.5-0.9,2.9-2,4.1-3.2c1.3-1.2,2.4-2.5,3.4-3.9
				c1-1.4,1.9-2.9,2.6-4.5c0.7-1.6,1.3-3.2,1.6-4.9s0.6-3.4,0.6-5.2c0-1.7-0.1-3.5-0.4-5.2c-0.3-1.7-0.8-3.4-1.4-5
				c-0.6-1.6-1.4-3.2-2.4-4.6c-0.9-1.5-2-2.8-3.3-4.1c-1.2-1.3-2.5-2.4-4-3.3c-1.4-1-3-1.8-4.6-2.5c-1.6-0.7-3.3-1.2-5-1.5
				c-1.7-0.3-3.4-0.5-5.2-0.5c-1.7-0.1-3.4,0-5,0.2c-1.7,0.2-3.3,0.7-4.9,1.2c-1.6,0.6-3.1,1.3-4.5,2.2c-1.4,0.9-2.8,1.9-4,3.1
				c-1.2,1.2-2.3,2.4-3.3,3.8c-1,1.4-1.8,2.8-2.5,4.4c-0.7,1.5-1.2,3.1-1.5,4.8C1042.8,10506.3,1042.6,10507.9,1042.6,10509.6
				L1042.6,10509.6z M1079.5,10509.6c0.1,0.8,0.1,1.5,0.1,2.3c-0.1,0.8-0.2,1.5-0.4,2.3c-0.2,0.7-0.5,1.4-0.9,2.1
				c-0.4,0.7-0.8,1.3-1.3,1.9c-0.5,0.6-1.1,1.1-1.7,1.6c-0.6,0.5-1.3,0.8-2,1.2c-0.7,0.3-1.4,0.6-2.2,0.7c-0.8,0.2-1.5,0.2-2.3,0.2
				s-1.5-0.1-2.3-0.2s-1.5-0.4-2.2-0.7c-0.7-0.3-1.4-0.7-2-1.2c-0.6-0.5-1.2-1-1.7-1.6c-0.5-0.6-1-1.2-1.3-1.9
				c-0.4-0.7-0.7-1.4-0.9-2.1c-0.2-0.7-0.4-1.5-0.4-2.3c-0.1-0.8,0-1.5,0-2.3c-0.1-0.8-0.1-1.5,0-2.2c0.1-0.7,0.2-1.5,0.5-2.2
				c0.2-0.7,0.6-1.4,0.9-2c0.4-0.6,0.8-1.3,1.3-1.8c0.5-0.6,1.1-1.1,1.7-1.5c0.6-0.4,1.3-0.8,2-1.1c0.7-0.3,1.4-0.5,2.1-0.7
				c0.7-0.2,1.5-0.2,2.2-0.2c0.7,0,1.5,0.1,2.2,0.2c0.7,0.2,1.5,0.4,2.1,0.7c0.7,0.3,1.3,0.7,2,1.1c0.6,0.4,1.2,0.9,1.7,1.5
				s0.9,1.2,1.3,1.8c0.4,0.6,0.7,1.3,0.9,2c0.2,0.7,0.4,1.4,0.5,2.2C1079.7,10508.1,1079.7,10508.9,1079.5,10509.6L1079.5,10509.6"
				/>
		</g>
		<g id="g106" transform="scale(1.28477)">
			<path id="path108" class="st1" d="M1037.9,9911.3h15.6l6.3-13.3c1.6-3.8,2.8-7.8,3.7-11.9c0.8,4,2,8,3.5,11.9l6.1,13.3h14.4
				l-24-45.6h-1.3L1037.9,9911.3"/>
		</g>
		<g id="g110" transform="scale(1.36063)">
			<path id="path112" class="st1" d="M1058.6,9326.7c3.9,0,7.5,1.1,10.7,3.3l7.8-8.2c-2.5-2.2-5.3-3.8-8.4-4.9
				c-3.1-1.1-6.3-1.5-9.6-1.3c-1.6-0.2-3.1-0.2-4.7,0c-1.6,0.2-3.1,0.5-4.6,0.9c-1.5,0.5-2.9,1.1-4.3,1.9c-1.4,0.8-2.6,1.7-3.8,2.7
				c-1.2,1-2.2,2.2-3.1,3.5c-0.9,1.3-1.7,2.6-2.4,4c-0.6,1.4-1.1,2.9-1.5,4.5c-0.3,1.5-0.5,3.1-0.5,4.7c0,1.5,0.2,3,0.5,4.4
				c0.3,1.5,0.8,2.9,1.4,4.3c0.6,1.4,1.3,2.7,2.2,3.9c0.9,1.2,1.8,2.3,2.9,3.4c1.1,1,2.3,1.9,3.6,2.7c1.3,0.8,2.6,1.4,4,1.9
				c1.4,0.5,2.8,0.9,4.3,1.1c1.5,0.2,3,0.3,4.5,0.2c15.5,0,23.3-11.3,22.4-26.1h-32.3c0.4-1.1,0.9-2.2,1.6-3.1
				c0.7-0.9,1.6-1.7,2.6-2.3c1-0.6,2.1-1.1,3.2-1.3C1056.3,9326.5,1057.5,9326.5,1058.6,9326.7L1058.6,9326.7z M1066.4,9341.2
				c0,0.6,0,1.1-0.2,1.7c-0.1,0.5-0.3,1.1-0.5,1.6s-0.5,1-0.8,1.4s-0.7,0.9-1.1,1.2c-0.4,0.4-0.9,0.7-1.4,1c-0.5,0.3-1,0.5-1.5,0.7
				c-0.5,0.2-1.1,0.3-1.6,0.3c-0.6,0-1.1,0-1.7,0c-1.2,0.1-2.3,0-3.5-0.3c-1.1-0.3-2.2-0.8-3.1-1.6c-0.9-0.7-1.7-1.6-2.3-2.6
				c-0.6-1-1-2.1-1.1-3.3H1066.4L1066.4,9341.2"/>
		</g>
		<g id="g114" transform="scale(1.42425)">
			<path id="path116" class="st1" d="M1045,8940.7h12.8v-7.4c0.4,1.2,1,2.3,1.8,3.4c0.8,1,1.7,1.9,2.8,2.6c1.1,0.7,2.2,1.3,3.4,1.7
				c1.2,0.4,2.5,0.5,3.8,0.5c2.2,0,4.3-0.6,6.2-1.6l-4.1-11.7c-1.5,0.8-3.2,1.2-4.9,1.3c-5.8,0-8.9-2.7-8.9-11.3v-17.8h-12.8v40.4
				H1045"/>
		</g>
		<g id="g118" transform="scale(1.453)">
			<path id="path120" class="st1" d="M1060.6,8755.4l1.7,0.9c0.5-1,1.2-1.8,2.1-2.3c0.9-0.6,1.9-0.8,3-0.8c0.5-0.1,1,0,1.5,0.1
				c0.5,0.1,0.9,0.4,1.3,0.7c0.4,0.3,0.7,0.7,0.9,1.1c0.2,0.4,0.4,0.9,0.4,1.4c-0.1,1-0.5,1.9-1.2,2.7c-0.7,0.8-1.5,1.3-2.5,1.5
				l-1.6,0.7c-0.6,0.2-1.2,0.4-1.7,0.7c-0.5,0.3-1,0.7-1.4,1.2c-0.4,0.5-0.7,1-0.9,1.6c-0.2,0.6-0.3,1.2-0.4,1.8
				c0,0.7,0.1,1.3,0.4,1.9c0.3,0.6,0.7,1.1,1.2,1.6c0.5,0.4,1.1,0.8,1.7,1c0.6,0.2,1.3,0.3,2,0.2c1.1,0.1,2.1-0.2,3.1-0.7
				c1-0.5,1.7-1.3,2.3-2.3l-1.7-1c-0.3,0.7-0.8,1.2-1.5,1.6c-0.7,0.4-1.4,0.6-2.1,0.6c-0.4,0.1-0.8,0-1.2-0.1
				c-0.4-0.1-0.7-0.3-1-0.6c-0.3-0.3-0.5-0.6-0.7-1c-0.2-0.4-0.2-0.8-0.2-1.2c0-0.9,0.4-1.7,0.9-2.3c0.6-0.7,1.3-1.1,2.2-1.2
				l1.6-0.7c0.7-0.2,1.3-0.4,1.9-0.8c0.6-0.4,1.1-0.8,1.6-1.4c0.4-0.5,0.8-1.1,1-1.8c0.2-0.7,0.4-1.3,0.4-2c0-0.8-0.2-1.5-0.5-2.2
				c-0.3-0.7-0.8-1.3-1.4-1.8c-0.6-0.5-1.2-0.9-2-1.1c-0.7-0.2-1.5-0.3-2.2-0.2c-0.7,0-1.4,0-2.1,0.2c-0.7,0.2-1.4,0.4-2,0.8
				c-0.6,0.4-1.2,0.8-1.7,1.3C1061.3,8754.1,1060.9,8754.7,1060.6,8755.4L1060.6,8755.4"/>
		</g>
		<g id="g122" transform="scale(1.48744)">
			<path id="path124" class="st1" d="M1053,8568.5l9.3-11.5l9,11.2v-19.6h-2v12.8c0,0.9,0,2.2,0,2.2c-0.4-0.7-0.9-1.4-1.4-2
				l-5.8-7.1l-5.8,7.1c-0.5,0.6-1,1.3-1.4,2c0,0,0-1.4,0-2.2v-12.8h-1.9V8568.5"/>
		</g>
		<g id="g126" transform="scale(1.17042)">
			<path id="path128" class="st1" d="M796.9,11515.6H629.2v-88.3h29.5l-103.4-169.5h-38.4v-88.3h173.9v88.3h-31.2l52.6,86.5
				l19.6-30.3H713v-90.1h190v89.2h-19.6l17.8,30.3l53.5-84.7h-28.5v-90.1h173v89.2h-38.3l-103.5,168.6h31.2v90.1H820.1v-89.2h26.8
				l-39.2-63.4l-39.2,63.4h28.6L796.9,11515.6"/>
		</g>
		<g id="g130" transform="scale(1.25858)">
			<path id="path132" class="st1" d="M1090,10399.9c0-1.2,0-2.3-0.2-3.5c-0.2-1.2-0.5-2.3-0.9-3.4c-0.4-1.1-0.9-2.1-1.6-3.1
				c-0.6-1-1.3-1.9-2.2-2.8c-0.8-0.9-1.7-1.6-2.7-2.3c-1-0.7-2-1.3-3.1-1.7c-1.1-0.5-2.2-0.8-3.3-1.1c-1.2-0.3-2.3-0.4-3.5-0.4
				c-1.2,0-2.3,0.1-3.5,0.3c-1.2,0.2-2.3,0.5-3.4,1c-1.1,0.4-2.1,1-3.1,1.6c-1,0.6-1.9,1.4-2.7,2.2c-0.8,0.8-1.6,1.7-2.3,2.7
				c-0.7,1-1.2,2-1.7,3.1c-0.5,1.1-0.8,2.2-1.1,3.3c-0.2,1.2-0.4,2.3-0.4,3.5c0,1.2,0.1,2.3,0.3,3.5c0.2,1.2,0.5,2.3,1,3.4
				c0.4,1.1,1,2.1,1.6,3.1s1.4,1.9,2.2,2.7c0.8,0.8,1.7,1.6,2.7,2.3c1,0.7,2,1.2,3.1,1.7c1.1,0.5,2.2,0.8,3.4,1
				c1.2,0.2,2.3,0.4,3.5,0.4c1.2,0,2.3-0.1,3.4-0.3c1.1-0.2,2.3-0.5,3.3-0.9c1.1-0.4,2.1-0.9,3.1-1.6c1-0.6,1.9-1.3,2.7-2.1
				c0.8-0.8,1.6-1.7,2.2-2.6c0.7-1,1.2-2,1.7-3c0.5-1.1,0.8-2.2,1-3.3C1089.9,10402.2,1090,10401,1090,10399.9L1090,10399.9z
				 M1058.7,10399.9c0-0.9,0-1.8,0.2-2.7c0.2-0.9,0.4-1.7,0.7-2.6c0.3-0.8,0.7-1.6,1.2-2.4c0.5-0.8,1-1.5,1.7-2.1s1.3-1.2,2-1.7
				c0.7-0.5,1.5-0.9,2.3-1.3c0.8-0.4,1.7-0.6,2.6-0.8s1.8-0.3,2.7-0.3c0.9,0,1.8,0.1,2.7,0.3c0.9,0.2,1.7,0.4,2.5,0.8
				s1.6,0.8,2.3,1.3c0.7,0.5,1.4,1.1,2,1.7c0.6,0.6,1.2,1.3,1.7,2.1c0.5,0.8,0.9,1.5,1.2,2.4c0.3,0.8,0.6,1.7,0.7,2.6
				c0.1,0.9,0.2,1.8,0.2,2.7c0.1,0.9,0.2,1.9,0.1,2.9c-0.1,1-0.2,1.9-0.5,2.8c-0.3,0.9-0.6,1.8-1.1,2.6c-0.5,0.8-1,1.6-1.6,2.4
				c-0.6,0.7-1.3,1.4-2.1,2c-0.8,0.6-1.6,1.1-2.5,1.5c-0.9,0.4-1.8,0.7-2.7,0.9c-0.9,0.2-1.9,0.3-2.8,0.3c-1,0-1.9-0.1-2.9-0.3
				c-0.9-0.2-1.8-0.5-2.7-0.9c-0.9-0.4-1.7-0.9-2.5-1.5c-0.8-0.6-1.5-1.2-2.1-1.9c-0.6-0.7-1.2-1.5-1.7-2.3
				c-0.5-0.8-0.8-1.7-1.1-2.6c-0.3-0.9-0.5-1.9-0.5-2.8C1058.6,10401.8,1058.6,10400.8,1058.7,10399.9L1058.7,10399.9z
				 M1069.4,10390.4h-4v17.7c2.2,0.4,4.4,0.5,6.6,0.5c2.1,0.2,4.2-0.2,6.1-1.3c1.2-1,1.7-2.3,1.7-3.8c-0.1-1-0.5-1.9-1.1-2.6
				c-0.7-0.8-1.5-1.2-2.5-1.4c0.9-0.4,1.6-0.9,2.2-1.7c0.6-0.8,0.9-1.6,1-2.5c0.1-1.7,0.5-3.4,1.2-5h-4.2c-0.7,1.3-1.1,2.7-1.3,4.2
				c0,0.4-0.1,0.8-0.4,1.2c-0.2,0.4-0.5,0.7-0.8,1c-0.4,0.3-0.7,0.4-1.2,0.5c-0.4,0.1-0.8,0.1-1.3,0h-1.9L1069.4,10390.4
				L1069.4,10390.4z M1069.4,10400.2h1.9c2.2,0,4,0.8,4,2.5s-1.2,2.7-3.7,2.7c-0.7,0.1-1.5,0.1-2.2,0v-5L1069.4,10400.2"/>
		</g>
	</g>
</g>
</svg>
