<svg width="64" height="64" viewBox="0 0 64 64" fill="none" xmlns="http://www.w3.org/2000/svg">
<rect width="64" height="64" rx="32" fill="white"/>
<path d="M49 30.5878V33.3931C49 33.784 48.7798 34.1239 48.4223 34.2771L45.3458 35.5345C45.0905 36.4696 44.733 37.3872 44.291 38.2553L40.3639 34.3282C40.5682 33.5973 40.6863 32.8154 40.6863 31.9984C40.6863 27.205 36.7927 23.3111 31.999 23.3111C30.5373 23.3111 29.1602 23.6686 27.9363 24.3148H27.9187C26.406 25.1478 25.1486 26.4053 24.3316 27.9356C23.6853 29.1595 23.3279 30.5366 23.3279 31.9983C23.3279 36.7757 27.2039 40.668 31.9976 40.668C32.813 40.668 33.5949 40.5483 34.3433 40.3456L38.2704 44.2727C37.4039 44.7323 36.4848 45.0722 35.5337 45.3275L34.2763 48.404C34.1407 48.7615 33.7832 48.9992 33.4098 48.9992H30.6045C30.2136 48.9992 29.8737 48.7615 29.7205 48.404L28.4631 45.3275C27.2567 45.0052 26.1174 44.5456 25.0802 43.9328L22.0036 45.2078C21.6637 45.361 21.2552 45.2764 20.984 45.0035L18.9957 43.0153C18.7244 42.744 18.6382 42.3355 18.7914 41.978L20.0664 38.9174C19.4536 37.8627 18.9781 36.7249 18.6717 35.5345L15.5952 34.2771C15.2378 34.1239 15 33.784 15 33.393V30.5878C15 30.1968 15.2378 29.8569 15.5952 29.7037L18.6717 28.4463C18.9781 27.2559 19.4536 26.1165 20.0664 25.0634L18.7914 22.0028C18.6382 21.6453 18.7228 21.2384 18.9957 20.9655L20.984 18.9772C21.2552 18.706 21.6637 18.6198 22.0036 18.773L25.0802 20.0655C26.1174 19.4528 27.2567 18.9772 28.4631 18.6549L29.7205 15.5784C29.8737 15.221 30.2136 15.0007 30.6045 15.0007H33.4098C33.7832 15.0007 34.1407 15.2209 34.2763 15.5784L35.5337 18.6549C36.7401 18.9773 37.8795 19.4544 38.9342 20.0655L41.9948 18.773C42.3523 18.6198 42.7592 18.7044 43.0321 18.9772L45.0203 20.9655C45.2916 21.2368 45.3602 21.6453 45.2246 22.0028L43.932 25.0634C44.5448 26.1181 45.0203 27.2559 45.3426 28.4463L48.4192 29.7037C48.7766 29.8569 48.9968 30.1968 48.9968 30.5878L49 30.5878ZM46.7724 43.151L44.9533 41.3318L39.6668 36.0613L38.4604 34.8374C38.7157 34.2597 38.9024 33.631 38.987 32.9672C39.0381 32.6608 39.0557 32.3209 39.0557 31.9986C39.0557 28.0891 35.8929 24.9437 32.0008 24.9437C30.9811 24.9437 30.0285 25.148 29.162 25.5389L29.7747 26.1517L33.8039 30.1968L30.1992 33.8015L25.5414 29.1438C25.1505 30.0102 24.9462 30.9804 24.9462 32.0001C24.9462 35.8936 28.109 39.0374 32.0011 39.0374C32.3235 39.0374 32.6474 39.0199 32.9697 38.9688C33.632 38.8842 34.2623 38.6975 34.8399 38.4422L36.0638 39.6486L43.1698 46.7545C43.6629 47.2651 44.3251 47.5029 44.9714 47.5029C45.6177 47.5029 46.2799 47.2651 46.773 46.7545C47.7767 45.7683 47.7767 44.1535 46.773 43.1498L46.7724 43.151Z" fill="#151419"/>
</svg>
