<svg width="64" height="64" viewBox="0 0 64 64" fill="none" xmlns="http://www.w3.org/2000/svg">
<rect width="64" height="64" rx="32" fill="white"/>
<path d="M29.7503 23.2509C29.7503 23.0037 29.8236 22.762 29.9609 22.5565C30.0983 22.3509 30.2935 22.1907 30.5219 22.0961C30.7503 22.0015 31.0016 21.9767 31.2441 22.025C31.4866 22.0732 31.7093 22.1922 31.8841 22.3671C32.059 22.5419 32.178 22.7646 32.2262 23.0071C32.2745 23.2496 32.2497 23.5009 32.1551 23.7293C32.0605 23.9577 31.9003 24.1529 31.6947 24.2903C31.4892 24.4276 31.2475 24.5009 31.0003 24.5009C30.6687 24.5009 30.3508 24.3692 30.1164 24.1348C29.882 23.9004 29.7503 23.5825 29.7503 23.2509ZM33.5003 33.2509C33.5003 33.4982 33.5736 33.7398 33.7109 33.9454C33.8483 34.151 34.0435 34.3112 34.2719 34.4058C34.5003 34.5004 34.7516 34.5252 34.9941 34.4769C35.2366 34.4287 35.4593 34.3096 35.6341 34.1348C35.809 33.96 35.928 33.7373 35.9762 33.4948C36.0245 33.2523 35.9997 33.001 35.9051 32.7726C35.8105 32.5442 35.6503 32.349 35.4447 32.2116C35.2392 32.0742 34.9975 32.0009 34.7503 32.0009C34.4187 32.0009 34.1008 32.1326 33.8664 32.3671C33.632 32.6015 33.5003 32.9194 33.5003 33.2509ZM41.0784 38.7931C42.6601 37.4648 43.9235 35.7984 44.7753 33.9167C45.6272 32.0351 46.0458 29.9862 46.0003 27.9213C46.0003 27.8067 45.9956 27.6926 45.9862 27.5791C45.9762 27.4202 45.906 27.2711 45.7899 27.1622C45.6737 27.0533 45.5204 26.9928 45.3612 26.9931H41.5862L37.9721 31.3291C38.4236 32.0899 38.5915 32.9857 38.4462 33.8584C38.301 34.731 37.8519 35.5242 37.1784 36.0977C36.5048 36.6713 35.6502 36.9882 34.7656 36.9926C33.881 36.9969 33.0233 36.6884 32.3441 36.1215C31.665 35.5547 31.2081 34.7659 31.0543 33.8948C30.9004 33.0236 31.0595 32.1261 31.5034 31.3609C31.9473 30.5957 32.6474 30.0121 33.4801 29.7132C34.3127 29.4143 35.2242 29.4193 36.0534 29.7275L40.0393 24.9431C40.1574 24.8037 40.3047 24.6918 40.4707 24.6154C40.6367 24.539 40.8175 24.4999 41.0003 24.5009H44.6159C44.7162 24.5011 44.815 24.477 44.9041 24.4309C44.9931 24.3848 45.0698 24.3179 45.1275 24.236C45.1853 24.154 45.2225 24.0593 45.236 23.9599C45.2494 23.8606 45.2388 23.7594 45.205 23.665C43.3862 18.5634 38.6346 14.8134 32.9909 14.5134H32.8987C32.8147 14.5103 32.7309 14.5241 32.6523 14.5541C32.5738 14.5841 32.5021 14.6296 32.4415 14.688C32.381 14.7464 32.3328 14.8163 32.3 14.8937C32.2671 14.9711 32.2502 15.0544 32.2503 15.1384V19.7088C33.0843 20.0036 33.7872 20.5838 34.2348 21.3469C34.6824 22.1099 34.8458 23.0065 34.6963 23.8784C34.5467 24.7503 34.0937 25.5412 33.4173 26.1114C32.741 26.6816 31.8849 26.9943 31.0003 26.9943C30.1157 26.9943 29.2595 26.6816 28.5832 26.1114C27.9069 25.5412 27.4539 24.7503 27.3043 23.8784C27.1547 23.0065 27.3181 22.1099 27.7657 21.3469C28.2133 20.5838 28.9162 20.0036 29.7503 19.7088V15.49C29.7505 15.396 29.7295 15.3031 29.6889 15.2183C29.6483 15.1335 29.589 15.059 29.5156 15.0003C29.4421 14.9415 29.3564 14.9001 29.2647 14.8792C29.1731 14.8582 29.0779 14.8581 28.9862 14.8791C26.0462 15.6011 23.426 17.2715 21.5306 19.6321C19.6352 21.9927 18.5702 24.9119 18.5003 27.9384L14.9924 34.6791L14.9581 34.7494C14.7024 35.3362 14.6816 35.9988 14.8999 36.6005C15.1182 37.2023 15.559 37.6974 16.1315 37.9838L16.1706 38.0025L19.7503 39.6416V44.4853C19.7503 45.1484 20.0137 45.7842 20.4825 46.2531C20.9513 46.7219 21.5872 46.9853 22.2503 46.9853H28.5003V48.2353C28.5003 48.5668 28.632 48.8848 28.8664 49.1192C29.1008 49.3536 29.4187 49.4853 29.7503 49.4853H40.9643C41.1856 49.4874 41.4037 49.4337 41.5987 49.3291C41.8187 49.2091 41.9976 49.0258 42.1121 48.8029C42.2266 48.58 42.2715 48.3278 42.2409 48.0791L41.0784 38.7931Z" fill="#151419"/>
</svg>
