<?xml version="1.0" encoding="utf-8"?>
<!-- Generator: Adobe Illustrator 27.4.0, SVG Export Plug-In . SVG Version: 6.00 Build 0)  -->
<svg version="1.1" id="Layer_1" xmlns="http://www.w3.org/2000/svg" xmlns:xlink="http://www.w3.org/1999/xlink" x="0px" y="0px"
	 viewBox="0 0 252 126" style="enable-background:new 0 0 252 126;" xml:space="preserve">
<style type="text/css">
	.st0{fill:#252F3E;}
	.st1{fill-rule:evenodd;clip-rule:evenodd;fill:#FF9900;}
	.st2{fill:none;stroke:#D6CBFF;stroke-width:2.893;}
	.st3{fill-rule:evenodd;clip-rule:evenodd;fill:#7B58E5;}
	.st4{fill:none;stroke:#7B58E5;stroke-width:2.893;}
	.st5{fill:none;stroke:#72777C;stroke-width:2.0894;}
	.st6{fill:none;stroke:#72777C;stroke-width:1.9287;}
	.st7{fill:none;stroke:#7B58E5;stroke-width:1.9287;}
	.st8{fill:none;stroke:#72777C;stroke-width:2.0894;stroke-miterlimit:4;}
	.st9{fill:none;stroke:#72777C;stroke-width:1.9287;stroke-miterlimit:4;}
	.st10{fill:none;stroke:#787878;stroke-width:2.0894;}
	.st11{fill:none;stroke:#7B58E5;stroke-width:1.9287;stroke-miterlimit:4;}
	.st12{fill:none;stroke:#787878;stroke-width:2.0894;stroke-miterlimit:4;}
	.st13{fill:none;stroke:#787878;stroke-width:1.9287;}
	.st14{fill:#6C4DEA;}
	.st15{fill:#72777C;}
	.st16{fill-rule:evenodd;clip-rule:evenodd;fill:#002D72;}
	.st17{fill:#002D72;}
	.st18{fill:#332A86;}
	.st19{fill:#00356B;}
	.st20{fill:#000D74;}
	.st21{fill:#4285F4;}
	.st22{fill:#EA4335;}
	.st23{fill:#FBBC05;}
	.st24{fill:#34A853;}
	.st25{fill:#1C2B33;}
	.st26{fill:#0081FB;}
	.st27{fill:url(#Logo1_00000147209075144784273580000002311671761407290547_);}
	.st28{fill:url(#Logo2_00000061443093307143887040000014333698655585306270_);}
</style>
<g>
	<path class="st0" d="M101.6,56.9c0,1.4,0.1,2.5,0.4,3.3c0.3,0.8,0.7,1.7,1.2,2.7c0.2,0.3,0.3,0.6,0.3,0.9c0,0.4-0.2,0.7-0.7,1.1
		l-2.3,1.6c-0.3,0.2-0.7,0.3-1,0.3c-0.4,0-0.7-0.2-1.1-0.5c-0.5-0.6-1-1.2-1.3-1.7c-0.4-0.6-0.7-1.3-1.2-2.2
		c-2.9,3.4-6.6,5.1-10.9,5.1c-3.1,0-5.6-0.9-7.4-2.7c-1.8-1.8-2.8-4.2-2.8-7.1c0-3.2,1.1-5.7,3.4-7.7c2.3-1.9,5.3-2.9,9.1-2.9
		c1.3,0,2.6,0.1,3.9,0.3c1.4,0.2,2.8,0.5,4.3,0.8v-2.7c0-2.8-0.6-4.8-1.7-6c-1.2-1.2-3.2-1.7-6.1-1.7c-1.3,0-2.6,0.1-4,0.5
		c-1.4,0.3-2.7,0.7-4,1.3c-0.6,0.3-1,0.4-1.3,0.5c-0.3,0.1-0.4,0.1-0.6,0.1c-0.5,0-0.8-0.4-0.8-1.2v-1.8c0-0.6,0.1-1,0.3-1.3
		c0.2-0.3,0.5-0.5,1-0.8c1.3-0.7,2.9-1.2,4.7-1.7c1.8-0.5,3.8-0.7,5.8-0.7c4.4,0,7.7,1,9.8,3c2,2,3.1,5.1,3.1,9.2L101.6,56.9
		L101.6,56.9z M86.5,62.6c1.2,0,2.5-0.2,3.8-0.7s2.5-1.3,3.5-2.4c0.6-0.7,1-1.5,1.3-2.4s0.4-2,0.4-3.2v-1.6
		c-1.1-0.3-2.2-0.5-3.4-0.6s-2.3-0.2-3.5-0.2c-2.5,0-4.3,0.5-5.5,1.5c-1.2,1-1.8,2.4-1.8,4.3c0,1.7,0.4,3.1,1.4,3.9
		C83.4,62.1,84.7,62.6,86.5,62.6z M116.4,66.6c-0.7,0-1.1-0.1-1.4-0.4c-0.3-0.2-0.6-0.7-0.8-1.5L105.4,36c-0.2-0.7-0.3-1.2-0.3-1.5
		c0-0.6,0.3-0.9,0.9-0.9h3.6c0.7,0,1.2,0.1,1.5,0.4c0.3,0.2,0.5,0.7,0.7,1.5l6.3,24.6l5.8-24.6c0.2-0.7,0.4-1.2,0.7-1.5
		c0.3-0.2,0.8-0.4,1.5-0.4h3c0.7,0,1.2,0.1,1.5,0.4c0.3,0.2,0.6,0.7,0.7,1.5l5.9,24.9l6.4-24.9c0.2-0.7,0.5-1.2,0.7-1.5
		c0.3-0.2,0.8-0.4,1.5-0.4h3.5c0.6,0,0.9,0.3,0.9,0.9c0,0.2,0,0.4-0.1,0.6c0,0.2-0.1,0.5-0.3,0.9l-9,28.8c-0.2,0.7-0.5,1.2-0.8,1.5
		c-0.3,0.2-0.8,0.4-1.4,0.4h-3.2c-0.7,0-1.2-0.1-1.5-0.4c-0.3-0.3-0.6-0.7-0.7-1.5l-5.8-24l-5.7,24c-0.2,0.7-0.4,1.2-0.7,1.5
		s-0.8,0.4-1.5,0.4H116.4z M164.2,67.6c-1.9,0-3.9-0.2-5.7-0.7c-1.9-0.4-3.3-0.9-4.3-1.5c-0.6-0.3-1-0.7-1.2-1s-0.2-0.7-0.2-1v-1.9
		c0-0.8,0.3-1.2,0.9-1.2c0.2,0,0.4,0,0.7,0.1c0.2,0.1,0.6,0.2,0.9,0.4c1.3,0.6,2.6,1,4.1,1.3c1.5,0.3,2.9,0.4,4.4,0.4
		c2.3,0,4.2-0.4,5.4-1.2c1.3-0.8,1.9-2,1.9-3.5c0-1-0.3-1.9-1-2.6s-1.9-1.3-3.8-1.9l-5.4-1.7c-2.7-0.9-4.7-2.1-6-3.8
		c-1.2-1.6-1.9-3.5-1.9-5.4c0-1.6,0.3-2.9,1-4.1s1.6-2.2,2.7-3.1c1.1-0.9,2.4-1.5,3.9-1.9c1.5-0.4,3.1-0.6,4.7-0.6
		c0.8,0,1.7,0,2.5,0.1c0.9,0.1,1.6,0.3,2.4,0.4c0.7,0.2,1.5,0.4,2.1,0.6c0.7,0.2,1.2,0.4,1.6,0.7c0.5,0.3,0.9,0.6,1.1,0.9
		c0.2,0.3,0.3,0.7,0.3,1.2v1.7c0,0.8-0.3,1.2-0.9,1.2c-0.3,0-0.8-0.1-1.4-0.4c-2.1-1-4.5-1.5-7.1-1.5c-2.1,0-3.8,0.3-5,1
		c-1.2,0.7-1.7,1.8-1.7,3.3c0,1,0.4,1.9,1.1,2.6c0.7,0.7,2.1,1.4,4.1,2l5.3,1.7c2.7,0.9,4.6,2,5.8,3.6s1.7,3.3,1.7,5.2
		c0,1.6-0.3,3.1-1,4.3c-0.7,1.3-1.6,2.4-2.7,3.3c-1.2,0.9-2.5,1.6-4.1,2.1C167.8,67.3,166.1,67.6,164.2,67.6z"/>
	<g>
		<path class="st1" d="M171.2,85.7c-12.2,9-30,13.8-45.3,13.8c-21.4,0-40.8-7.9-55.4-21.1c-1.2-1-0.1-2.5,1.3-1.6
			c15.8,9.2,35.3,14.7,55.4,14.7c13.6,0,28.5-2.8,42.3-8.6C171.5,81.9,173.2,84.2,171.2,85.7z"/>
		<path class="st1" d="M176.3,79.9c-1.6-2-10.4-1-14.3-0.5c-1.2,0.1-1.4-0.9-0.3-1.7c7-4.9,18.5-3.5,19.8-1.9
			c1.3,1.7-0.4,13.2-6.9,18.7c-1,0.9-2,0.4-1.5-0.7C174.6,90.2,177.9,81.8,176.3,79.9z"/>
	</g>
</g>
</svg>
