<svg width="64" height="64" viewBox="0 0 64 64" fill="none" xmlns="http://www.w3.org/2000/svg">
<rect width="64" height="64" rx="32" fill="white"/>
<path d="M39.7243 21.5173V23.7242H36.414V21.5173H39.7243ZM43.0347 19.8621V23.7244H40.8278V20.9657C40.8278 20.6623 40.5795 20.414 40.2761 20.414H36.4138V18.2071H41.3792C42.2895 18.2071 43.0344 18.9519 43.0344 19.8623L43.0347 19.8621ZM35.3105 17.6552V23.7244H33.1036V18.759C33.1036 18.4555 32.8553 18.2073 32.5519 18.2073H22.6208C22.3174 18.2073 22.0691 18.4555 22.0691 18.759V23.7244H19.8622V17.6552C19.8622 16.7448 20.607 16 21.5174 16H33.6553C34.5657 16 35.3105 16.7448 35.3105 17.6552ZM23.1725 19.3104V23.7242H32.0002V19.3104H23.1725ZM45.7932 41.931H38.069C36.5476 41.931 35.3104 40.6937 35.3104 39.1724V33.6551C35.3104 32.1337 36.5476 30.8964 38.069 30.8964H45.7932C45.9821 30.8964 46.167 30.9158 46.3449 30.9516V27.5861C46.3449 26.0647 45.1076 24.8275 43.5863 24.8275H19.3103C17.7889 24.8275 16.5516 26.0647 16.5516 27.5861V45.2414C16.5516 46.7628 17.7889 48 19.3103 48H43.5863C45.1076 48 46.3449 46.7628 46.3449 45.2414V41.8758C46.167 41.9117 45.9821 41.931 45.7932 41.931ZM47.4483 33.6549V39.1722C47.4483 40.0853 46.7063 40.8274 45.7932 40.8274H38.069C37.1559 40.8274 36.4138 40.0853 36.4138 39.1722V33.6549C36.4138 32.7418 37.1559 31.9997 38.069 31.9997H45.7932C46.7063 31.9997 47.4483 32.7418 47.4483 33.6549ZM43.5861 36.4135C43.5861 35.197 42.5957 34.2066 41.3792 34.2066C40.1626 34.2066 39.1723 35.197 39.1723 36.4135C39.1723 37.6301 40.1626 38.6204 41.3792 38.6204C42.5957 38.6204 43.5861 37.6301 43.5861 36.4135ZM41.3792 35.3101C40.7709 35.3101 40.2757 35.8052 40.2757 36.4135C40.2757 37.0218 40.7709 37.517 41.3792 37.517C41.9875 37.517 42.4826 37.0218 42.4826 36.4135C42.4826 35.8052 41.9875 35.3101 41.3792 35.3101Z" fill="#151419"/>
</svg>
