<svg width="64" height="64" viewBox="0 0 64 64" fill="none" xmlns="http://www.w3.org/2000/svg">
<rect width="64" height="64" rx="32" fill="white"/>
<path d="M49.75 45.0008C49.75 45.3323 49.6183 45.6502 49.3839 45.8847C49.1495 46.1191 48.8315 46.2508 48.5 46.2508H13.5C13.1685 46.2508 12.8505 46.1191 12.6161 45.8847C12.3817 45.6502 12.25 45.3323 12.25 45.0008C12.25 44.6693 12.3817 44.3513 12.6161 44.1169C12.8505 43.8825 13.1685 43.7508 13.5 43.7508H48.5C48.8315 43.7508 49.1495 43.8825 49.3839 44.1169C49.6183 44.3513 49.75 44.6693 49.75 45.0008ZM13.5469 27.8414C13.4725 27.5793 13.4859 27.3 13.5849 27.0462C13.6839 26.7923 13.8631 26.5778 14.0953 26.4352L30.3453 16.4352C30.5422 16.3141 30.7688 16.25 31 16.25C31.2312 16.25 31.4578 16.3141 31.6547 16.4352L47.9047 26.4352C48.137 26.5776 48.3163 26.792 48.4155 27.0457C48.5147 27.2995 48.5283 27.5787 48.4541 27.8409C48.38 28.103 48.2223 28.3338 48.0049 28.4981C47.7875 28.6623 47.5224 28.7511 47.25 28.7508H43.5V38.7508H46C46.3315 38.7508 46.6495 38.8825 46.8839 39.1169C47.1183 39.3513 47.25 39.6693 47.25 40.0008C47.25 40.3323 47.1183 40.6502 46.8839 40.8847C46.6495 41.1191 46.3315 41.2508 46 41.2508H16C15.6685 41.2508 15.3505 41.1191 15.1161 40.8847C14.8817 40.6502 14.75 40.3323 14.75 40.0008C14.75 39.6693 14.8817 39.3513 15.1161 39.1169C15.3505 38.8825 15.6685 38.7508 16 38.7508H18.5V28.7508H14.75C14.4778 28.7509 14.213 28.6621 13.9958 28.498C13.7787 28.3338 13.6211 28.1033 13.5469 27.8414ZM33.5 37.5008C33.5 37.8323 33.6317 38.1502 33.8661 38.3847C34.1005 38.6191 34.4185 38.7508 34.75 38.7508C35.0815 38.7508 35.3995 38.6191 35.6339 38.3847C35.8683 38.1502 36 37.8323 36 37.5008V30.0008C36 29.6693 35.8683 29.3513 35.6339 29.1169C35.3995 28.8825 35.0815 28.7508 34.75 28.7508C34.4185 28.7508 34.1005 28.8825 33.8661 29.1169C33.6317 29.3513 33.5 29.6693 33.5 30.0008V37.5008ZM26 37.5008C26 37.8323 26.1317 38.1502 26.3661 38.3847C26.6005 38.6191 26.9185 38.7508 27.25 38.7508C27.5815 38.7508 27.8995 38.6191 28.1339 38.3847C28.3683 38.1502 28.5 37.8323 28.5 37.5008V30.0008C28.5 29.6693 28.3683 29.3513 28.1339 29.1169C27.8995 28.8825 27.5815 28.7508 27.25 28.7508C26.9185 28.7508 26.6005 28.8825 26.3661 29.1169C26.1317 29.3513 26 29.6693 26 30.0008V37.5008Z" fill="#151419"/>
</svg>
