<svg width="64" height="64" viewBox="0 0 64 64" fill="none" xmlns="http://www.w3.org/2000/svg">
<rect width="64" height="64" rx="32" fill="white"/>
<path d="M48.3938 43.363H15.6513C14.7549 43.363 14 42.6081 14 41.7117C14 40.8153 14.7549 40.0604 15.6513 40.0604H48.3466C49.243 40.0604 49.9979 40.8153 49.9979 41.7117C50.0451 42.6081 49.2902 43.363 48.3938 43.363Z" fill="#151419"/>
<path d="M36.2687 24.0195V32.3231H34.8533V22.9815C34.8533 21.8964 34.0512 21 33.1076 21H30.8902C29.9466 21 29.1446 21.8964 29.1446 22.9815V32.3231H27.7764V23.9723C21.1241 25.6708 16.5005 31.6154 16.2646 38.6923H36.2687V38.6451H47.7804C47.5445 31.6626 42.921 25.7651 36.2687 24.0195Z" fill="#151419"/>
</svg>
