<svg width="64" height="64" viewBox="0 0 64 64" fill="none" xmlns="http://www.w3.org/2000/svg">
<rect width="64" height="64" rx="32" fill="white"/>
<path d="M46.8571 27.4286H17.1429C16.5117 27.4286 16 27.9397 16 28.5714V30.8572C16 31.4889 16.5117 32 17.1429 32H46.8571C47.4883 32 48 31.4889 48 30.8572V28.5714C48 27.9397 47.4883 27.4286 46.8571 27.4286Z" fill="#151419"/>
<path d="M34.2857 21.7143L33.1429 19.4286H29.7143L28.5714 21.7143C27.979 22.8992 27.5571 24.7389 27.4286 26.2857H35.4286C35.3 24.7389 34.8782 22.8992 34.2857 21.7143Z" fill="#151419"/>
<path d="M33.1428 17.1429C33.1428 16.5112 32.6311 16 31.9999 16H30.8571C30.226 16 29.7142 16.5112 29.7142 17.1429V18.2857H33.1428V17.1429Z" fill="#151419"/>
<path d="M19.4386 45.0245C19.6646 46.7209 21.1255 48 22.837 48H41.1428C42.8543 48 44.3153 46.7209 44.5334 45.0759C44.5334 45.0759 46.8572 33.2108 46.8571 33.1428H17.1428C17.1428 33.21 19.4386 45.0245 19.4386 45.0245ZM38.8743 45.0039L41.1601 35.8611C41.2354 35.5542 41.5451 35.3711 41.8526 35.4448C42.1589 35.5218 42.3453 35.8321 42.2683 36.1379L39.9826 45.2807C39.9179 45.5408 39.6852 45.7138 39.429 45.7138C39.3833 45.7138 39.3364 45.7082 39.2901 45.697C38.9837 45.62 38.7973 45.3097 38.8743 45.0039ZM35.433 35.9294C35.4721 35.6169 35.7567 35.3904 36.0708 35.4339C36.3839 35.473 36.606 35.7587 36.5669 36.0723L35.4241 45.2152C35.3878 45.5042 35.1417 45.7152 34.8577 45.7152C34.8342 45.7152 34.8102 45.714 34.7862 45.7107C34.4732 45.6716 34.2511 45.3859 34.2901 45.0723L35.433 35.9294ZM27.9291 35.433C28.2433 35.3895 28.5279 35.616 28.5669 35.9285L29.7098 45.0714C29.7488 45.385 29.5267 45.6707 29.2137 45.7098C29.1897 45.7131 29.1657 45.7143 29.1423 45.7143C28.8582 45.7143 28.6121 45.5033 28.5759 45.2143L27.433 36.0714C27.3939 35.7578 27.616 35.4721 27.9291 35.433ZM22.1474 35.4439C22.4548 35.3702 22.7645 35.5533 22.8399 35.8602L25.1256 45.003C25.2026 45.3088 25.0162 45.6191 24.7099 45.6961C24.6635 45.7073 24.6167 45.7129 24.5709 45.7129C24.3148 45.7129 24.0821 45.5399 24.0173 45.2798L21.7316 36.137C21.6546 35.8312 21.841 35.5209 22.1474 35.4439Z" fill="#151419"/>
<path d="M38.8571 19.4286H44.5714C45.2031 19.4286 45.7142 18.9169 45.7142 18.2857V17.1429C45.7142 16.5117 45.2031 16 44.5714 16H38.8571C38.2254 16 37.7142 16.5117 37.7142 17.1429V18.2857C37.7142 18.9169 38.2254 19.4286 38.8571 19.4286Z" fill="#151419"/>
<path d="M46.8571 25.1428C46.8571 23.6685 45.8958 22.3557 44.5714 21.9057V20.5714H38.8571V21.9057C37.5328 22.3557 36.5714 23.6685 36.5714 25.1428V26.2857H46.8571V25.1428Z" fill="#151419"/>
<path d="M19.4286 26.2857H26.2857L24.6314 23.0338L22.6897 24.9754C22.5781 25.0871 22.4319 25.1429 22.2857 25.1429C22.1395 25.1429 21.9933 25.0871 21.8817 24.9754C21.6585 24.7522 21.6585 24.3906 21.8817 24.1674L24.0865 21.9626L22.7046 19.2463L20.404 21.5469C20.2924 21.6585 20.1462 21.7143 20 21.7143C19.8538 21.7143 19.7076 21.6585 19.596 21.5469C19.3728 21.3237 19.3728 20.9621 19.596 20.7388L22.1597 18.1752L21.9996 17.8606C21.4968 16.7291 20.3747 16 19.1366 16C16.8693 16 15.3527 18.3336 16.2736 20.4055L19.4286 26.2857Z" fill="#151419"/>
</svg>
