<svg width="64" height="64" viewBox="0 0 64 64" fill="none" xmlns="http://www.w3.org/2000/svg">
<rect width="64" height="64" rx="32" fill="white"/>
<path d="M31 16.25C22.5891 16.25 16 20.0938 16 25V40C16 44.9062 22.5891 48.75 31 48.75C39.4109 48.75 46 44.9062 46 40V25C46 20.0938 39.4109 16.25 31 16.25ZM43.5 32.5C43.5 34.0031 42.2687 35.5359 40.1234 36.7062C37.7078 38.0234 34.4672 38.75 31 38.75C27.5328 38.75 24.2922 38.0234 21.8766 36.7062C19.7313 35.5359 18.5 34.0031 18.5 32.5V29.9C21.1656 32.2437 25.7234 33.75 31 33.75C36.2766 33.75 40.8344 32.2375 43.5 29.9V32.5ZM40.1234 44.2062C37.7078 45.5234 34.4672 46.25 31 46.25C27.5328 46.25 24.2922 45.5234 21.8766 44.2062C19.7313 43.0359 18.5 41.5031 18.5 40V37.4C21.1656 39.7437 25.7234 41.25 31 41.25C36.2766 41.25 40.8344 39.7375 43.5 37.4V40C43.5 41.5031 42.2687 43.0359 40.1234 44.2062Z" fill="#151419"/>
</svg>
