<svg width="64" height="64" viewBox="0 0 64 64" fill="none" xmlns="http://www.w3.org/2000/svg">
<rect width="64" height="64" rx="32" fill="white"/>
<path fill-rule="evenodd" clip-rule="evenodd" d="M47.3333 37.8974V21.3846C47.3333 20.4461 46.9605 19.5461 46.2969 18.8825C45.6333 18.2189 44.7333 17.8461 43.7948 17.8461H20.2051C19.2666 17.8461 18.3666 18.2189 17.703 18.8825C17.0394 19.5461 16.6666 20.4461 16.6666 21.3846V37.8974C16.6666 38.8359 17.0394 39.7359 17.703 40.3995C18.3666 41.0631 19.2666 41.4359 20.2051 41.4359H43.7948C44.7333 41.4359 45.6333 41.0631 46.2969 40.3995C46.9605 39.7359 47.3333 38.8359 47.3333 37.8974ZM27.282 43.7948H36.7179C37.0307 43.7948 37.3307 43.9191 37.5519 44.1403C37.7731 44.3615 37.8974 44.6615 37.8974 44.9743C37.8974 45.2872 37.7731 45.5872 37.5519 45.8084C37.3307 46.0296 37.0307 46.1538 36.7179 46.1538H27.282C26.9692 46.1538 26.6692 46.0296 26.448 45.8084C26.2268 45.5872 26.1025 45.2872 26.1025 44.9743C26.1025 44.6615 26.2268 44.3615 26.448 44.1403C26.6692 43.9191 26.9692 43.7948 27.282 43.7948ZM34.4857 26.0242H37.2943C38.1593 26.0167 38.9944 26.3405 39.6284 26.9291C40.2623 27.5177 40.6471 28.3265 40.7036 29.1897C40.7602 30.0529 40.4844 30.9051 39.9327 31.5714C39.3811 32.2378 38.5953 32.6678 37.7367 32.7732L36.9062 35.9036C36.8613 36.0783 36.7752 36.2397 36.6552 36.3744C36.5351 36.509 36.3846 36.6129 36.2161 36.6774C36.0476 36.7418 35.8661 36.765 35.6869 36.7449C35.5076 36.7248 35.3358 36.6621 35.1857 36.562L34.4095 36.0447C34.2547 35.9415 34.1279 35.8016 34.0402 35.6374C33.9526 35.4733 33.9068 35.2901 33.9071 35.1041V32.8657C32.7279 33.0449 29.9596 33.6857 27.2943 35.9212C27.1297 36.0595 26.929 36.1478 26.7159 36.176C26.5028 36.2041 26.2861 36.1708 26.0913 36.08C25.8964 35.9893 25.7315 35.8447 25.616 35.6635C25.5005 35.4822 25.4391 35.2717 25.4391 35.0568V23.7661C25.4392 23.5512 25.5007 23.3408 25.6163 23.1597C25.7319 22.9785 25.8968 22.8341 26.0916 22.7434C26.2864 22.6527 26.503 22.6195 26.7161 22.6476C26.9291 22.6758 27.1297 22.7642 27.2943 22.9024C30.7019 25.7603 34.2804 26.0122 34.4857 26.0242ZM35.8124 35.6213V35.6136L36.5604 32.7986H35.0361V35.1041L35.8124 35.6213ZM35.0361 31.6696H37.2943C37.8932 31.6696 38.4675 31.4317 38.891 31.0082C39.3145 30.5847 39.5524 30.0103 39.5524 29.4114C39.5524 28.8125 39.3145 28.2382 38.891 27.8147C38.4675 27.3912 37.8932 27.1533 37.2943 27.1533H35.0361V31.6696Z" fill="#151419"/>
</svg>
