<svg width="64" height="64" viewBox="0 0 64 64" fill="none" xmlns="http://www.w3.org/2000/svg">
<rect width="64" height="64" rx="32" fill="white"/>
<path fill-rule="evenodd" clip-rule="evenodd" d="M28.3215 25.2707C28.3442 26.7468 28.5262 28.2162 28.8643 29.6532C27.7689 29.8933 26.707 30.267 25.7027 30.7659C24.4927 29.1806 23.7971 27.263 23.7092 25.2707H28.3215ZM33.5246 15C34.5952 15 35.675 16.0049 36.488 17.7568C36.7204 18.2635 36.9182 18.7852 37.0801 19.3185C35.9058 19.5203 34.7162 19.6204 33.5246 19.6177C32.3331 19.6205 31.1437 19.5204 29.9694 19.3185C30.1313 18.7852 30.3292 18.2635 30.5615 17.7568C31.3741 16.0049 32.4552 15 33.5246 15ZM33.5246 20.5057C34.7955 20.508 36.0642 20.398 37.3158 20.177C37.6425 21.5563 37.8182 22.9671 37.8397 24.3844H29.2098C29.2317 22.9669 29.4074 21.5558 29.7338 20.1762C30.9852 20.3972 32.2537 20.508 33.5246 20.5057ZM37.8397 25.2694C37.8182 26.6866 37.6425 28.0973 37.3158 29.4764C34.8074 29.0382 32.2421 29.0382 29.7338 29.4764C29.4076 28.0979 29.2319 26.688 29.2098 25.2715L37.8397 25.2694ZM29.0966 30.5092C28.1275 30.7206 27.1855 31.0415 26.2889 31.4657C27.5799 32.8748 29.2536 33.8773 31.1052 34.3505C30.5487 33.7327 30.0942 33.0302 29.7586 32.2695C29.4973 31.699 29.2768 31.1108 29.0987 30.5092H29.0966ZM30.5615 31.8979C30.3291 31.3912 30.1313 30.8693 29.9694 30.3358C32.3233 29.9367 34.7275 29.9367 37.0814 30.3358C36.9195 30.8693 36.7217 31.3912 36.4893 31.8979C35.6763 33.6498 34.5956 34.6543 33.5258 34.6543C32.4561 34.6543 31.3754 33.6498 30.5628 31.8979H30.5615ZM37.2948 32.2716C36.9592 33.0323 36.5046 33.7348 35.9481 34.3526C37.7998 33.8795 39.4735 32.877 40.7645 31.4678C39.8678 31.0435 38.9259 30.7226 37.9567 30.5113C37.7786 31.1129 37.5581 31.7011 37.2969 32.2716H37.2948ZM41.3477 30.768C40.3432 30.2694 39.2814 29.8957 38.1861 29.6553C38.525 28.2184 38.707 26.749 38.7289 25.2728H43.3412C43.2522 27.2645 42.556 29.1813 41.3461 30.7659L41.3477 30.768ZM38.7272 24.3844C38.7049 22.9082 38.5229 21.4386 38.1844 20.0015C39.2798 19.7617 40.3417 19.3881 41.3461 18.8893C42.556 20.4745 43.2516 22.3922 43.3395 24.3844H38.7272ZM40.7607 18.1894C39.47 16.7796 37.7962 15.7767 35.9443 15.3034C36.5008 15.9214 36.9554 16.624 37.291 17.3848C37.5523 17.955 37.7728 18.5429 37.9508 19.1443C38.92 18.9331 39.8619 18.6123 40.7586 18.1882L40.7607 18.1894ZM31.1052 15.3034C29.2535 15.7764 27.5798 16.7789 26.2889 18.1882C27.1855 18.6122 28.1275 18.933 29.0966 19.1443C29.2746 18.5429 29.4951 17.955 29.7565 17.3848C30.0921 16.624 30.5466 15.9214 31.1031 15.3034H31.1052ZM25.7035 18.888C26.7078 19.3869 27.7697 19.7605 28.8652 20.0003C28.5267 21.4378 28.3444 22.9077 28.3215 24.3844H23.71C23.7977 22.3921 24.4934 20.4744 25.7035 18.8893V18.888ZM46.9666 26.1641C46.9999 26.0617 47.0084 25.9529 46.9916 25.8465C46.9748 25.7401 46.933 25.6393 46.8697 25.5522C46.8064 25.465 46.7234 25.3941 46.6275 25.3452C46.5315 25.2963 46.4254 25.2707 46.3177 25.2707H44.2287C44.1138 28.0324 42.9359 30.6428 40.9412 32.5562C38.9465 34.4696 36.2895 35.538 33.5254 35.538C30.7613 35.538 28.1043 34.4696 26.1096 32.5562C24.1149 30.6428 22.937 28.0324 22.8221 25.2707H19.923L24.4052 39.0663C24.4473 39.2049 24.5336 39.326 24.6509 39.4111C24.7682 39.4962 24.9101 39.5406 25.055 39.5376H42.1246C42.2694 39.5405 42.4112 39.4961 42.5284 39.411C42.6456 39.3259 42.7318 39.2048 42.7739 39.0663L46.9666 26.1641ZM17.5028 17.7055L19.6726 24.3844H20.606L18.3479 17.4324C18.2011 16.9633 17.9071 16.554 17.5095 16.2651C17.1118 15.9763 16.6317 15.8232 16.1402 15.8286H11.4303C11.315 15.8322 11.2056 15.8805 11.1252 15.9633C11.0449 16.0461 11 16.157 11 16.2724C11 16.3878 11.0449 16.4986 11.1252 16.5814C11.2056 16.6643 11.315 16.7126 11.4303 16.7161H16.1394C16.4429 16.7128 16.7395 16.8073 16.9851 16.9858C17.2307 17.1642 17.4122 17.417 17.5028 17.7068V17.7055ZM23.7344 39.7063C23.2069 39.9133 22.7681 40.2979 22.494 40.7939C22.2198 41.2899 22.1275 41.866 22.2329 42.4228C22.3384 42.9797 22.6349 43.4822 23.0714 43.8436C23.5079 44.205 24.0569 44.4026 24.6237 44.4023H27.0375C26.654 44.7306 26.3802 45.1686 26.2531 45.6572C26.126 46.1458 26.1517 46.6617 26.3267 47.1353C26.5017 47.6088 26.8176 48.0174 27.2319 48.306C27.6462 48.5946 28.1389 48.7493 28.6438 48.7493C29.1487 48.7493 29.6415 48.5946 30.0557 48.306C30.47 48.0174 30.7859 47.6088 30.9609 47.1353C31.1359 46.6617 31.1616 46.1458 31.0345 45.6572C30.9074 45.1686 30.6337 44.7306 30.2501 44.4023H39.595C39.2114 44.7306 38.9377 45.1686 38.8106 45.6572C38.6835 46.1458 38.7092 46.6617 38.8842 47.1353C39.0592 47.6088 39.3751 48.0174 39.7894 48.306C40.2037 48.5946 40.6964 48.7493 41.2013 48.7493C41.7062 48.7493 42.1989 48.5946 42.6132 48.306C43.0275 48.0174 43.3434 47.6088 43.5184 47.1353C43.6934 46.6617 43.7191 46.1458 43.592 45.6572C43.4649 45.1686 43.1912 44.7306 42.8076 44.4023H45.1991C45.3168 44.4023 45.4296 44.3556 45.5128 44.2724C45.596 44.1892 45.6427 44.0764 45.6427 43.9588C45.6427 43.8412 45.596 43.7283 45.5128 43.6452C45.4296 43.562 45.3168 43.5152 45.1991 43.5152H24.6228C24.4178 43.5186 24.2141 43.4812 24.0237 43.405C23.8333 43.3289 23.6599 43.2156 23.5137 43.0718C23.3675 42.928 23.2514 42.7565 23.1721 42.5674C23.0929 42.3783 23.052 42.1752 23.052 41.9702C23.052 41.7651 23.0929 41.5621 23.1721 41.3729C23.2514 41.1838 23.3675 41.0123 23.5137 40.8685C23.6599 40.7247 23.8333 40.6114 24.0237 40.5353C24.2141 40.4592 24.4178 40.4217 24.6228 40.4251C24.6728 40.4247 24.7224 40.4162 24.7697 40.3999C24.3688 40.2654 24.0113 40.0259 23.7344 39.7063Z" fill="#151419"/>
</svg>
