<svg width="64" height="64" viewBox="0 0 64 64" fill="none" xmlns="http://www.w3.org/2000/svg">
<rect width="64" height="64" rx="32" fill="white"/>
<path d="M31.9623 16C23.1368 16 15.9958 23.1409 15.9958 31.9664C15.9958 40.7919 23.1368 48 31.9623 48C40.7878 48 47.9287 40.8591 47.9287 32.0336C47.9287 23.2081 40.7878 16 31.9623 16ZM39.2596 31.303L30.4927 43.0913C29.7563 44.1234 28.1356 43.387 28.356 42.1317L29.9013 34.5445H25.5554C24.5987 34.5445 24.0101 33.437 24.5987 32.6281L33.3656 20.8398C34.102 19.8106 35.7227 20.5442 35.5023 21.7966L33.9542 29.3867H38.3001C39.2597 29.3867 39.8482 30.4913 39.2596 31.303Z" fill="#151419"/>
</svg>
