<svg width="64" height="64" viewBox="0 0 64 64" fill="none" xmlns="http://www.w3.org/2000/svg">
<rect width="64" height="64" rx="32" fill="white"/>
<path d="M42.7016 24.4132C41.1603 24.6031 39.4925 24.704 37.7751 24.704C36.0439 24.704 34.376 24.6031 32.8346 24.4132C31.0281 25.9425 29.1192 28.0021 27.6669 30.2501C28.8045 30.6298 29.6256 31.6904 29.6256 32.9666V34.4702C29.6256 35.7961 28.7291 36.8959 27.5283 37.2364C27.9577 37.7412 28.2229 38.386 28.2229 39.0941V40.6098C28.2229 41.33 27.9577 41.9749 27.5283 42.4796C28.7291 42.8201 29.6256 43.92 29.6256 45.2337V45.865C31.8238 47.3054 34.6548 48 37.7751 48C44.6981 48 50.3208 44.5512 50.3208 37.2485C50.3208 32.5734 46.3161 27.4825 42.7017 24.4119L42.7016 24.4132ZM38.6969 41.6086V42.9857C38.6969 43.1243 38.5824 43.2388 38.4317 43.2388H37.1044C36.9522 43.2388 36.8392 43.1258 36.8392 42.9857V41.6463C35.4741 41.5574 34.3758 40.5088 34.2493 39.1573C34.2372 39.0051 34.3638 38.8786 34.5024 38.8786H35.8538C35.9804 38.8786 36.0934 38.9539 36.119 39.0805C36.1944 39.4978 36.574 39.8006 37.0034 39.8006H38.1907C38.8988 39.8006 39.518 39.2959 39.5934 38.6134C39.6822 37.8179 39.0494 37.1474 38.266 37.1474H37.4072C35.7393 37.1474 34.2613 35.9346 34.0835 34.2667C33.9193 32.5235 35.1698 31.0199 36.8377 30.7924V29.4529C36.8377 29.3008 36.9507 29.1878 37.1028 29.1878H38.4302C38.5824 29.1878 38.6954 29.3008 38.6954 29.4529V30.7803C40.0604 30.8812 41.1467 31.9299 41.2853 33.2693C41.2973 33.4214 41.1708 33.548 41.0201 33.548H39.6807C39.5662 33.548 39.4411 33.4727 39.4155 33.3582C39.3266 32.9288 38.9605 32.638 38.5191 32.638H37.3318C36.6372 32.638 36.018 33.1306 35.9291 33.8132C35.8538 34.6087 36.4851 35.2912 37.2565 35.2912H38.2675C40.1372 35.2912 41.6288 36.8958 41.451 38.7911C41.2988 40.2571 40.1116 41.3691 38.6969 41.6086Z" fill="#151419"/>
<path d="M37.775 22.7455C39.3917 22.7455 40.9209 22.6446 42.3491 22.4683C43.2847 20.472 44.1314 18.3868 44.1314 17.4781C44.1314 16.113 42.438 15.4064 41.4029 16.8588C40.0379 18.7542 39.4578 16 37.8909 16C36.3496 16.0121 35.5285 18.5523 34.3276 16.8467C33.2414 15.2934 31.3716 16.2396 31.3716 17.4404C31.3716 18.6276 32.1294 20.5983 33.0018 22.4441C34.4798 22.646 36.0844 22.7469 37.778 22.7469L37.775 22.7455Z" fill="#151419"/>
<path d="M16.3172 43.9969H26.7374C27.4244 43.9969 27.9804 44.684 27.9804 45.24V46.7541C27.9804 47.4412 27.4244 47.9971 26.7374 47.9971H16.3172C15.6302 47.9971 15.0742 47.3101 15.0742 46.7541V45.24C15.0742 44.5529 15.6302 43.9969 16.3172 43.9969Z" fill="#151419"/>
<path d="M14.9221 37.8589H25.3422C26.0292 37.8589 26.5852 38.5459 26.5852 39.1019V40.6161C26.5852 41.3031 26.0293 41.8591 25.3422 41.8591H14.9221C14.2351 41.8591 13.6791 41.1721 13.6791 40.6161V39.1019C13.6791 38.4149 14.235 37.8589 14.9221 37.8589Z" fill="#151419"/>
<path d="M16.3172 31.7192H26.7374C27.4244 31.7192 27.9804 32.4063 27.9804 32.9622V34.4764C27.9804 35.1634 27.4244 35.7194 26.7374 35.7194H16.3172C15.6302 35.7194 15.0742 35.0324 15.0742 34.4764V32.9622C15.0742 32.2752 15.6302 31.7192 16.3172 31.7192Z" fill="#151419"/>
<path d="M14.9221 25.5808H25.3422C26.0292 25.5808 26.5852 26.2678 26.5852 26.8238V28.338C26.5852 29.025 26.0293 29.581 25.3422 29.581H14.9221C14.2351 29.581 13.6791 28.894 13.6791 28.338V26.8238C13.6791 26.1368 14.235 25.5808 14.9221 25.5808Z" fill="#151419"/>
</svg>
