<svg width="64" height="64" viewBox="0 0 64 64" fill="none" xmlns="http://www.w3.org/2000/svg">
<rect width="64" height="64" rx="32" fill="white"/>
<path d="M32.3435 18.9736C28.3788 15.0088 21.9383 15.0088 17.9736 18.9736C14.0088 22.9383 14.0088 29.3788 17.9736 33.3435L32.3435 47.7075L46.7075 33.3435C48.6929 31.3582 49.6856 28.7628 49.6856 26.1615C49.6856 23.5602 48.6989 20.9649 46.7075 18.9736C42.7428 15.0088 36.3023 15.0088 32.3435 18.9736ZM40.1953 32.6319C40.1953 32.9608 39.9262 33.2299 39.5973 33.2299H35.495V37.3262C35.495 37.6611 35.2319 37.9242 34.897 37.9242H29.7901C29.4552 37.9242 29.1921 37.6611 29.1921 37.3262V33.2299H25.0898C24.7609 33.2299 24.4918 32.9608 24.4918 32.6319V27.519C24.4918 27.1901 24.7609 26.921 25.0898 26.921H29.1921V22.8187C29.1921 22.4898 29.4552 22.2207 29.7901 22.2207H34.897C35.2319 22.2207 35.495 22.4898 35.495 22.8187V26.921H39.5973C39.9262 26.921 40.1953 27.1901 40.1953 27.519V32.6319Z" fill="#151419"/>
</svg>
