<svg width="60" height="60" viewBox="0 0 60 60" fill="none" xmlns="http://www.w3.org/2000/svg">
<rect width="60" height="60" rx="30" fill="#EFEFD0"/>
<path fill-rule="evenodd" clip-rule="evenodd" d="M19.0224 14H37.0797C37.6341 14 38.1398 14.2279 38.5061 14.5934C38.8742 14.9619 39.1017 15.4667 39.1017 16.0224V29.2139C38.9256 29.1445 38.7379 29.1072 38.5494 29.1072C38.321 29.1072 38.0836 29.1634 37.8561 29.2782L37.5797 29.4204L37.3244 29.3772C37.0844 29.3309 36.832 29.345 36.5921 29.4179C36.3586 29.489 36.1392 29.6163 35.9592 29.7971L35.7377 30.0203L35.5042 30.0567C35.2574 30.0837 35.0166 30.172 34.8092 30.3117C34.607 30.4496 34.4339 30.6437 34.3126 30.8807L34.1729 31.1571L33.897 31.2963C33.681 31.406 33.4929 31.565 33.355 31.7616C33.2166 31.951 33.1219 32.1751 33.0842 32.4134L33.0327 32.7257L32.8099 32.9434C32.6445 33.1083 32.5164 33.3174 32.441 33.5527C32.3703 33.7695 32.348 34.0082 32.3866 34.2541L32.4367 34.5635L32.2949 34.8398C32.1831 35.0562 32.1235 35.2957 32.1235 35.534C32.1235 35.7649 32.1788 36.0031 32.2949 36.2281L32.4372 36.5045L32.3939 36.7598C32.3472 37.0006 32.3613 37.253 32.4346 37.4917C32.5066 37.7286 32.6321 37.9476 32.8138 38.125L33.037 38.3465L33.0734 38.5804C33.1004 38.8311 33.1883 39.0697 33.328 39.2746L33.3322 39.2788C33.4724 39.4815 33.6626 39.6533 33.8965 39.7716L34.1738 39.9117L34.3152 40.1859C34.4206 40.3955 34.5705 40.5776 34.7531 40.7155L34.7518 42.9873H19.0224C18.4667 42.9873 17.9619 42.7598 17.5956 42.3943C17.2279 42.0262 17 41.5202 17 40.9649V16.0224C17 15.468 17.2275 14.9628 17.5934 14.5956L17.5969 14.5922C17.9636 14.2271 18.4684 14 19.0224 14ZM39.0413 33.1388L39.5867 34.3351L40.8927 34.4842C41.1892 34.5163 41.4039 34.7845 41.3713 35.0815C41.355 35.2306 41.2796 35.3587 41.1708 35.4453L40.2286 36.3078L40.4908 37.5975C40.5499 37.8897 40.3614 38.1759 40.0692 38.2351C39.9359 38.2621 39.804 38.2376 39.6947 38.1755L38.5498 37.5285L37.4062 38.1759C37.1465 38.3233 36.8166 38.2321 36.6692 37.9724C36.5998 37.8503 36.5831 37.7123 36.6122 37.5851L36.8719 36.3078L35.9031 35.4204C35.6829 35.2195 35.6679 34.8775 35.8688 34.6577C35.9609 34.557 36.0822 34.4992 36.2078 34.4859L37.5133 34.3351L38.0583 33.1388C38.1822 32.8675 38.5031 32.748 38.7743 32.8718C38.8973 32.928 38.9894 33.0248 39.0413 33.1388ZM41.3756 40.0612V46.1079C41.3756 46.407 41.1327 46.6499 40.8332 46.6499C40.6686 46.6499 40.5208 46.5762 40.421 46.4601L38.5742 44.5898L36.6465 46.4935C36.434 46.7026 36.0908 46.6996 35.8817 46.4871C35.7784 46.3821 35.7266 46.245 35.7266 46.1079L35.7249 40.0608L35.5826 40.039C35.4039 40.0115 35.2591 39.8988 35.1828 39.7485L34.8983 39.1867L34.3353 38.9026C34.1639 38.8161 34.0585 38.6507 34.0405 38.4724L33.9493 37.8799L33.5006 37.4347C33.3678 37.3031 33.3181 37.1185 33.3511 36.9471L33.4492 36.3429L33.1604 35.782C33.0773 35.6209 33.0837 35.4371 33.1604 35.2867L33.4492 34.7258L33.3481 34.102C33.3198 33.9242 33.3819 33.7528 33.5011 33.6345L33.9475 33.191L34.0431 32.5685C34.0718 32.3774 34.1978 32.2244 34.3636 32.1524L34.8988 31.8825L35.182 31.3195C35.269 31.1485 35.4339 31.0427 35.6122 31.0251L36.2043 30.9334L36.6499 30.4848C36.7819 30.352 36.9662 30.3023 37.1375 30.3352L37.7413 30.4334L38.3021 30.145C38.4727 30.0572 38.6685 30.0692 38.8232 30.1596L39.3571 30.4334L39.9826 30.3322C40.1609 30.304 40.3318 30.3665 40.4501 30.4852L40.8936 30.9317L41.5161 31.0277C41.7072 31.0559 41.8602 31.1819 41.9326 31.3473L42.2026 31.8825L42.7647 32.1666C42.9361 32.2527 43.0415 32.4185 43.0595 32.5963L43.1512 33.1893L43.5998 33.6341C43.7322 33.7661 43.7819 33.9503 43.7489 34.1213L43.6512 34.7258L43.94 35.2867C44.0232 35.4483 44.0167 35.6321 43.94 35.782L43.6512 36.3433L43.7519 36.9668C43.7802 37.145 43.7181 37.316 43.5994 37.4342L43.1508 37.8803L43.0548 38.502C43.0274 38.6811 42.9147 38.8259 42.7643 38.9018L42.2021 39.1871L41.9185 39.7489C41.8319 39.9203 41.6665 40.0257 41.4883 40.0437L41.3756 40.0612ZM39.0233 31.4763L38.5511 31.2338L38.0789 31.4763C37.9799 31.5268 37.8642 31.5478 37.7464 31.5294L37.2215 31.4441L36.847 31.8212C36.7682 31.9 36.6649 31.9553 36.5462 31.9737L36.0235 32.0543L35.7844 32.529C35.7339 32.6289 35.6524 32.7137 35.5453 32.7681L35.0723 33.0064L34.9922 33.5287C34.9742 33.6392 34.9228 33.7464 34.8375 33.8316L34.46 34.2061L34.5418 34.7126C34.5645 34.8278 34.5495 34.9508 34.4921 35.0631L34.2496 35.5344L34.4921 36.0057C34.5423 36.1047 34.5637 36.2199 34.5448 36.3378L34.46 36.8631L34.8371 37.2372C34.9155 37.316 34.9712 37.4197 34.9896 37.5384L35.0701 38.0615L35.5449 38.3011C35.6447 38.3512 35.7296 38.433 35.784 38.5401L36.0231 39.014L36.524 39.0916C36.6422 39.1045 36.7571 39.1567 36.847 39.2471L37.222 39.6246L37.7284 39.5428C37.8437 39.5201 37.9666 39.5351 38.0789 39.5929L38.5511 39.8354L39.0031 39.6032C39.106 39.5449 39.2281 39.5201 39.3536 39.5398L39.8789 39.6246L40.2487 39.2518C40.328 39.1713 40.433 39.1134 40.5538 39.0955L41.077 39.014L41.316 38.5406C41.3666 38.4407 41.448 38.3555 41.5556 38.3015L42.0299 38.062L42.107 37.5606C42.1203 37.4424 42.1726 37.3276 42.263 37.2376L42.6405 36.8631L42.5586 36.3558C42.5359 36.2409 42.5509 36.118 42.6083 36.0057L42.8509 35.5344L42.6083 35.0631C42.5582 34.9641 42.5368 34.8488 42.5556 34.731L42.6405 34.2061L42.2634 33.832C42.185 33.7528 42.1293 33.6495 42.1109 33.5308L42.0299 33.0077L41.556 32.7681C41.4557 32.7176 41.3709 32.6362 41.3165 32.529L41.0782 32.0564L40.5555 31.9763C40.445 31.9583 40.3378 31.9073 40.253 31.8216L39.8789 31.4441L39.3536 31.5294C39.2444 31.5457 39.1291 31.5303 39.0233 31.4763ZM21.1374 19.9965C20.8383 19.9965 20.5949 19.7536 20.5949 19.4541C20.5949 19.1546 20.8383 18.9116 21.1374 18.9116H34.9639C35.2634 18.9116 35.5063 19.1546 35.5063 19.4541C35.5063 19.7536 35.2634 19.9965 34.9639 19.9965H21.1374ZM21.1374 38.0757C20.8383 38.0757 20.5949 37.8327 20.5949 37.5337C20.5949 37.2341 20.8383 36.9912 21.1374 36.9912H29.1199C29.419 36.9912 29.6623 37.2341 29.6623 37.5337C29.6623 37.8327 29.419 38.0757 29.1199 38.0757H21.1374ZM21.1374 33.5561C20.8383 33.5561 20.5949 33.3132 20.5949 33.0137C20.5949 32.7141 20.8383 32.4712 21.1374 32.4712H29.1199C29.419 32.4712 29.6623 32.7141 29.6623 33.0137C29.6623 33.3132 29.419 33.5561 29.1199 33.5561H21.1374ZM21.1374 29.0361C20.8383 29.0361 20.5949 28.7932 20.5949 28.4937C20.5949 28.1946 20.8383 27.9516 21.1374 27.9516H31.971C32.2701 27.9516 32.513 28.1946 32.513 28.4937C32.513 28.7932 32.2701 29.0361 31.971 29.0361H21.1374ZM21.1374 24.5161C20.8383 24.5161 20.5949 24.2732 20.5949 23.9741C20.5949 23.6746 20.8383 23.4316 21.1374 23.4316H34.9639C35.2634 23.4316 35.5063 23.6746 35.5063 23.9741C35.5063 24.2732 35.2634 24.5161 34.9639 24.5161H21.1374Z" fill="#151419"/>
</svg>
