<svg width="60" height="60" viewBox="0 0 60 60" fill="none" xmlns="http://www.w3.org/2000/svg">
<rect width="60" height="60" rx="30" fill="#EFEFD0"/>
<path d="M35.1021 17.2299H24.6523V19.301H35.1021V17.2299Z" fill="#151419"/>
<path d="M31.6463 13.5H28.1081C26.8754 13.5 25.8616 14.4533 25.7637 15.6613H33.9908C33.8927 14.4533 32.879 13.5 31.6463 13.5Z" fill="#151419"/>
<path d="M20.004 17.2299C19.1391 17.2299 18.4354 17.9335 18.4354 18.7985V43.9313C18.4354 44.7963 19.1391 45.5 20.004 45.5H39.7494C40.6143 45.5 41.318 44.7963 41.318 43.9313V18.7985C41.318 17.9335 40.6143 17.2299 39.7494 17.2299H36.6702V20.0853C36.6702 20.5184 36.319 20.8696 35.8859 20.8696H23.8675C23.4344 20.8696 23.0832 20.5184 23.0832 20.0853V17.2299H20.004ZM23.9591 31.3979C24.2667 31.093 24.7632 31.0951 25.0682 31.4028L28.0089 34.3692L34.6876 27.6905C34.994 27.3843 35.4904 27.3843 35.7969 27.6905C36.1031 27.9968 36.1031 28.4934 35.7969 28.7997L28.5611 36.0355C28.414 36.1826 28.2144 36.2652 28.0065 36.2652C28.0059 36.2652 28.0053 36.2652 28.0049 36.2652C27.7962 36.2648 27.5964 36.1812 27.4496 36.0331L23.9543 32.5072C23.6492 32.1995 23.6514 31.7029 23.9591 31.3979Z" fill="#151419"/>
</svg>
