<?xml version="1.0" encoding="utf-8"?>
<!-- Generator: Adobe Illustrator 27.4.0, SVG Export Plug-In . SVG Version: 6.00 Build 0)  -->
<svg version="1.1" id="Layer_1" xmlns="http://www.w3.org/2000/svg" xmlns:xlink="http://www.w3.org/1999/xlink" x="0px" y="0px"
	 viewBox="0 0 252 126" style="enable-background:new 0 0 252 126;" xml:space="preserve">
<style type="text/css">
	.st0{fill:#252F3E;}
	.st1{fill-rule:evenodd;clip-rule:evenodd;fill:#FF9900;}
	.st2{fill:none;stroke:#D6CBFF;stroke-width:2.893;}
	.st3{fill-rule:evenodd;clip-rule:evenodd;fill:#7B58E5;}
	.st4{fill:none;stroke:#7B58E5;stroke-width:2.893;}
	.st5{fill:none;stroke:#72777C;stroke-width:2.0894;}
	.st6{fill:none;stroke:#72777C;stroke-width:1.9287;}
	.st7{fill:none;stroke:#7B58E5;stroke-width:1.9287;}
	.st8{fill:none;stroke:#72777C;stroke-width:2.0894;stroke-miterlimit:4;}
	.st9{fill:none;stroke:#72777C;stroke-width:1.9287;stroke-miterlimit:4;}
	.st10{fill:none;stroke:#787878;stroke-width:2.0894;}
	.st11{fill:none;stroke:#7B58E5;stroke-width:1.9287;stroke-miterlimit:4;}
	.st12{fill:none;stroke:#787878;stroke-width:2.0894;stroke-miterlimit:4;}
	.st13{fill:none;stroke:#787878;stroke-width:1.9287;}
	.st14{fill:#6C4DEA;}
	.st15{fill:#72777C;}
	.st16{fill-rule:evenodd;clip-rule:evenodd;fill:#002D72;}
	.st17{fill:#002D72;}
	.st18{fill:#332A86;}
	.st19{fill:#00356B;}
	.st20{fill:#000D74;}
	.st21{fill:#4285F4;}
	.st22{fill:#EA4335;}
	.st23{fill:#FBBC05;}
	.st24{fill:#34A853;}
	.st25{fill:#1C2B33;}
	.st26{fill:#0081FB;}
	.st27{fill:url(#Logo1_00000037654567792396917260000001096842671542891142_);}
	.st28{fill:url(#Logo2_00000036953219603333793710000002541688344349649538_);}
</style>
<g id="XMLID_24_">
	<path id="XMLID_26_" class="st21" d="M87.6,55.7H69.9V61h12.5c-0.6,7.4-6.7,10.5-12.5,10.5c-7.4,0-13.8-5.8-13.8-13.9
		c0-7.9,6.1-14,13.8-14c5.9,0,9.4,3.8,9.4,3.8l3.7-3.8c0,0-4.7-5.2-13.3-5.2c-10.9,0-19.4,9.2-19.4,19.2c0,9.8,8,19.3,19.7,19.3
		c10.3,0,17.8-7.1,17.8-17.5C87.9,57,87.6,55.7,87.6,55.7L87.6,55.7z"/>
	<path id="XMLID_32_" class="st22" d="M102,51.9c-7.2,0-12.4,5.7-12.4,12.3c0,6.7,5,12.5,12.5,12.5c6.8,0,12.3-5.2,12.3-12.3
		C114.4,56.1,108,51.9,102,51.9z M102.1,56.8c3.6,0,6.9,2.9,6.9,7.5c0,4.5-3.4,7.5-6.9,7.5c-4,0-7.1-3.1-7.1-7.5
		C95,60,98.1,56.8,102.1,56.8z"/>
	<path id="XMLID_35_" class="st23" d="M129.1,51.9c-7.2,0-12.4,5.7-12.4,12.3c0,6.7,5,12.5,12.5,12.5c6.8,0,12.3-5.2,12.3-12.3
		C141.5,56.1,135,51.9,129.1,51.9L129.1,51.9z M129.1,56.8c3.6,0,6.9,2.9,6.9,7.5c0,4.5-3.4,7.5-6.9,7.5c-4,0-7.1-3.1-7.1-7.5
		C122,60,125.1,56.8,129.1,56.8z"/>
	<path id="XMLID_38_" class="st21" d="M155.6,51.9c-6.7,0-11.9,5.8-11.9,12.3c0,7.4,6.1,12.4,11.8,12.4c3.5,0,5.4-1.4,6.8-3v2.5
		c0,4.3-2.6,6.8-6.5,6.8c-3.8,0-5.7-2.8-6.3-4.4l-4.7,2c1.7,3.6,5.1,7.3,11.1,7.3c6.6,0,11.7-4.2,11.7-12.9V52.7h-5.2v2.1
		C160.7,53.1,158.5,51.9,155.6,51.9L155.6,51.9z M156,56.8c3.3,0,6.6,2.8,6.6,7.5c0,4.8-3.4,7.5-6.7,7.5c-3.6,0-6.8-2.9-6.8-7.4
		C149.1,59.6,152.6,56.8,156,56.8L156,56.8z"/>
	<path id="XMLID_42_" class="st22" d="M190.5,51.9c-6.3,0-11.5,5-11.5,12.3c0,7.8,5.9,12.4,12.1,12.4c5.2,0,8.5-2.9,10.3-5.4
		l-4.3-2.9c-1.1,1.7-3,3.4-6.1,3.4c-3.5,0-5.1-1.9-6.1-3.8l16.6-6.9l-0.9-2C199.2,55.2,195.4,51.9,190.5,51.9L190.5,51.9z
		 M190.7,56.7c2.2,0,3.9,1.2,4.6,2.7l-11.1,4.6C183.7,60.3,187.1,56.7,190.7,56.7z"/>
	<rect id="XMLID_43_" x="171" y="39.5" class="st24" width="5.4" height="36.5"/>
</g>
</svg>
