<?xml version="1.0" encoding="utf-8"?>
<!-- Generator: Adobe Illustrator 27.7.0, SVG Export Plug-In . SVG Version: 6.00 Build 0)  -->
<svg version="1.1" id="Layer_1" xmlns="http://www.w3.org/2000/svg" xmlns:xlink="http://www.w3.org/1999/xlink" x="0px" y="0px"
	 viewBox="0 0 252 126" style="enable-background:new 0 0 252 126;" xml:space="preserve">
<style type="text/css">
	.st0{fill:#1F70C1;}
</style>
<g>
	<g>
		<polygon id="Rectangle-path" class="st0" points="60.5,85.6 85.9,85.6 85.9,89.3 60.5,89.3 		"/>
		<polygon id="Rectangle-path_1_" class="st0" points="60.5,78.6 85.9,78.6 85.9,82.3 60.5,82.3 		"/>
		<polygon id="Rectangle-path_2_" class="st0" points="67.7,71.6 78.7,71.6 78.7,75.3 67.7,75.3 		"/>
		<polygon id="Rectangle-path_3_" class="st0" points="67.7,64.7 78.7,64.7 78.7,68.3 67.7,68.3 		"/>
		<polygon id="Rectangle-path_4_" class="st0" points="67.7,57.7 78.7,57.7 78.7,61.3 67.7,61.3 		"/>
		<polygon id="Rectangle-path_5_" class="st0" points="67.7,50.7 78.7,50.7 78.7,54.3 67.7,54.3 		"/>
		<rect id="Rectangle-path_6_" x="60.5" y="43.7" class="st0" width="25.5" height="3.7"/>
		<rect id="Rectangle-path_7_" x="60.5" y="36.7" class="st0" width="25.5" height="3.7"/>
	</g>
	<g>
		<path id="Shape_16_" class="st0" d="M89.6,82.3h39.2c0.7-1.1,1.2-2.4,1.5-3.7H89.6V82.3z"/>
		<path id="Shape_17_" class="st0" d="M125.7,64.7H96.9v3.7h31.9C127.9,66.9,126.9,65.7,125.7,64.7z"/>
		<path id="Shape_18_" class="st0" d="M96.9,57.7v3.7h28.9c1.2-1,2.2-2.3,3.1-3.7H96.9L96.9,57.7z"/>
		<path id="Shape_19_" class="st0" d="M128.8,43.7H89.6v3.7h40.7C129.9,46.1,129.4,44.8,128.8,43.7z"/>
		<path id="Shape_20_" class="st0" d="M116.7,36.7H89.6v3.7h36.5C123.6,38.1,120.3,36.7,116.7,36.7z"/>
		<rect id="Rectangle-path_8_" x="96.9" y="50.7" class="st0" width="10.9" height="3.7"/>
		<path id="Shape_21_" class="st0" d="M118.7,54.3h11.4c0.3-1.2,0.5-2.4,0.5-3.7h-11.9L118.7,54.3L118.7,54.3z"/>
		<polygon id="Rectangle-path_9_" class="st0" points="96.9,71.6 107.8,71.6 107.8,75.3 96.9,75.3 		"/>
		<path id="Shape_22_" class="st0" d="M118.7,71.6v3.7h11.9c0-1.3-0.2-2.5-0.5-3.7H118.7z"/>
		<path id="Shape_23_" class="st0" d="M89.6,89.3l27.2,0c3.6,0,6.9-1.4,9.4-3.7H89.6V89.3z"/>
	</g>
	<g>
		<polygon id="Rectangle-path_10_" class="st0" points="133.3,85.6 151.5,85.6 151.5,89.3 133.3,89.3 		"/>
		<polygon id="Rectangle-path_11_" class="st0" points="133.3,78.6 151.5,78.6 151.5,82.3 133.3,82.3 		"/>
		<polygon id="Rectangle-path_12_" class="st0" points="140.6,71.6 151.5,71.6 151.5,75.3 140.6,75.3 		"/>
		<polygon id="Rectangle-path_13_" class="st0" points="140.6,64.7 151.5,64.7 151.5,68.3 140.6,68.3 		"/>
		<polygon id="Shape_24_" class="st0" points="156.6,43.7 133.3,43.7 133.3,47.4 157.8,47.4 		"/>
		<polygon id="Shape_25_" class="st0" points="154.1,36.7 133.3,36.7 133.3,40.4 155.4,40.4 		"/>
		<polygon id="Rectangle-path_14_" class="st0" points="173.3,85.6 191.5,85.6 191.5,89.3 173.3,89.3 		"/>
		<polygon id="Rectangle-path_15_" class="st0" points="173.3,78.6 191.5,78.6 191.5,82.3 173.3,82.3 		"/>
		<polygon id="Rectangle-path_16_" class="st0" points="173.3,71.6 184.3,71.6 184.3,75.3 173.3,75.3 		"/>
		<polygon id="Rectangle-path_17_" class="st0" points="173.3,64.7 184.3,64.7 184.3,68.3 173.3,68.3 		"/>
		<polygon id="Shape_26_" class="st0" points="173.3,61.3 184.3,61.3 184.3,57.7 173.3,57.7 173.3,57.7 163.4,57.7 162.4,60.6 
			161.4,57.7 151.5,57.7 151.5,57.7 140.6,57.7 140.6,61.3 151.5,61.3 151.5,58 152.6,61.3 172.2,61.3 173.3,58 		"/>
		<polygon id="Shape_27_" class="st0" points="184.3,50.7 165.8,50.7 164.6,54.3 184.3,54.3 		"/>
		<polygon id="Shape_28_" class="st0" points="170.7,36.7 169.4,40.4 191.5,40.4 191.5,36.7 		"/>
		<polygon id="Shape_29_" class="st0" points="162.4,89.3 163.7,85.6 161.1,85.6 		"/>
		<polygon id="Shape_30_" class="st0" points="160,82.3 164.8,82.3 166.1,78.6 158.7,78.6 		"/>
		<polygon id="Shape_31_" class="st0" points="157.5,75.3 167.3,75.3 168.6,71.6 156.3,71.6 		"/>
		<polygon id="Shape_32_" class="st0" points="155.1,68.3 169.7,68.3 171,64.7 153.8,64.7 		"/>
		<polygon id="Shape_33_" class="st0" points="140.6,54.3 160.2,54.3 159,50.7 140.6,50.7 		"/>
		<polygon id="Shape_34_" class="st0" points="167,47.4 191.5,47.4 191.5,43.7 168.3,43.7 		"/>
	</g>
</g>
</svg>
