<?xml version="1.0" encoding="utf-8"?>
<!-- Generator: Adobe Illustrator 27.7.0, SVG Export Plug-In . SVG Version: 6.00 Build 0)  -->
<svg version="1.1" id="Layer_1" xmlns="http://www.w3.org/2000/svg" xmlns:xlink="http://www.w3.org/1999/xlink" x="0px" y="0px"
	 viewBox="0 0 252 126" style="enable-background:new 0 0 252 126;" xml:space="preserve">
<style type="text/css">
	.st0{fill:#FF0000;}
</style>
<g id="Layer_2_00000161596650932838738870000003062996948221811347_">
	<g id="Capa_1">
		<rect x="94.1" y="9.7" class="st0" width="10.2" height="65.3"/>
		<polygon class="st0" points="205,65.9 205,45.5 224.9,45.5 224.9,36.5 205,36.5 205,18.7 225.9,18.7 225.9,9.7 194.9,9.7 
			194.9,75.1 226.7,75.1 226.7,65.9 		"/>
		<polygon class="st0" points="178,39.4 178,39.4 178,39.4 		"/>
		<polygon class="st0" points="178,39.4 178,39.4 178,39.4 		"/>
		<path class="st0" d="M166,45.3l1.6,0.9l1.3,0.7c5.9,3.1,9.4,5.2,9.4,10.5c0,8.6-7.7,9.5-11,9.5c-5.4,0-10.5-2.2-12.4-3.2l-3.5-1.7
			v12.1l1.8,0.5c4.5,1,9.1,1.5,13.7,1.5c10.7,0,22-5.1,22-19.3c0-9.7-5-13.6-10.9-17.3l0,0l-7.4-4.1c-7.1-3.7-9.5-5.3-9.5-10.2
			c0-4.4,3.5-7.3,9-7.3c4.6,0,8.8,1.7,12,3.2l3.4,1.6V10.7l-1.9-0.4c-4-1-8.2-1.5-12.3-1.5C159,8.8,151,15.6,151,26.2
			C151,37.2,158.6,41.3,166,45.3"/>
		<polygon class="st0" points="146.4,65.9 124.8,65.9 124.8,45.5 144.6,45.5 144.6,36.5 124.8,36.5 124.8,18.7 145.7,18.7 
			145.7,9.7 114.6,9.7 114.6,75.1 146.4,75.1 		"/>
		<path class="st0" d="M63.8,75.1c1.7-0.6,3.3-1.3,4.8-2.2V41.2h-4.8V75.1z"/>
		<path class="st0" d="M71.5,70.9c1.7-1.3,3.2-2.7,4.6-4.3V41.2h-4.6V70.9z"/>
		<path class="st0" d="M55.6,76.7c1.8-0.1,3.6-0.3,5.3-0.8V41.2h-5.3V76.7z"/>
		<path class="st0" d="M79,62.6c2.8-4.7,4.2-10,4.2-15.4v-6H79V62.6z"/>
		<rect x="48" y="8.8" class="st0" width="4.7" height="30"/>
		<rect x="40.5" y="8.8" class="st0" width="4.6" height="30"/>
		<rect x="32.8" y="8.8" class="st0" width="4.8" height="30"/>
		<path class="st0" d="M30.4,8.8h-1c-2,0-3.6,1.7-3.6,3.7v26.3h4.6V8.8z"/>
		<path class="st0" d="M25.3,41.8v5.4c0,15.8,12.1,28.7,27.4,29.5V41.2H25.3V41.8z M39.8,45.2c2.6-0.1,4.8,2,4.8,4.6
			c0.1,2.6-2,4.8-4.6,4.8s-4.8-2-4.8-4.6c0,0,0-0.1,0-0.1C35.1,47.3,37.2,45.2,39.8,45.2 M39.8,57.8c2.6-0.1,4.8,2,4.8,4.6
			c0.1,2.6-2,4.8-4.6,4.8s-4.8-2-4.8-4.6c0,0,0-0.1,0-0.1C35.1,59.9,37.2,57.8,39.8,57.8C39.7,57.8,39.7,57.8,39.8,57.8"/>
		<path class="st0" d="M79.6,8.8h-24v30h27.6V12.5C83.2,10.5,81.6,8.8,79.6,8.8 M68.7,34.5c-2.6,0.1-4.8-2-4.8-4.6
			c-0.1-2.6,2-4.8,4.6-4.8c2.6-0.1,4.8,2,4.8,4.6c0,0,0,0.1,0,0.1C73.3,32.4,71.3,34.5,68.7,34.5C68.7,34.5,68.7,34.5,68.7,34.5
			 M68.7,22.1c-2.6,0-4.7-2.1-4.6-4.7c0-2.6,2.1-4.6,4.6-4.6s4.6,2.1,4.6,4.6C73.3,19.9,71.3,22.1,68.7,22.1
			C68.7,22.1,68.7,22.1,68.7,22.1"/>
		<path class="st0" d="M107.5,104.7c-1-0.1-2,0.4-2.4,1.3v-1.2h-1.2v7.6h1.2v-4.6c0-1.1,0.8-2,1.9-2.1c0.1,0,0.1,0,0.2,0
			c1.2,0,1.8,0.6,1.8,1.9v4.7h1.2v-4.7C110.2,105.6,109.1,104.7,107.5,104.7"/>
		<rect x="112.3" y="104.8" class="st0" width="1.2" height="7.6"/>
		<path class="st0" d="M100.5,108.3c0,2.6-1,3.2-2.6,3.2c-1.7,0-2.5-0.9-2.5-3v-6.4h-1.3v6.6c0,2.5,1.3,3.9,3.7,3.9
			c2.7,0,3.9-1.6,3.9-4.1v-6.4h-1.3V108.3z"/>
		<path class="st0" d="M112.8,101.7c-0.4,0-0.8,0.4-0.8,0.8c0,0.4,0.4,0.8,0.8,0.8s0.8-0.4,0.8-0.8
			C113.6,102,113.3,101.7,112.8,101.7"/>
		<polygon class="st0" points="118.3,111.2 116.1,104.8 114.8,104.8 117.5,112.4 119.1,112.4 121.8,104.8 120.6,104.8 		"/>
		<polygon class="st0" points="198.8,111.2 196.5,104.8 195.2,104.8 198,112.4 199.5,112.4 202.2,104.8 201,104.8 		"/>
		<polygon class="st0" points="185.3,110.6 180.3,102.1 178.6,102.1 178.6,112.4 179.8,112.4 179.8,103.5 185.1,112.4 186.5,112.4 
			186.5,102.1 185.3,102.1 		"/>
		<path class="st0" d="M191.4,104.7c-1.5,0-2.8,0.6-3,2.4h1.2c0.1-0.9,0.7-1.4,1.7-1.4c1,0,1.6,0.5,1.6,1.7v0.5h-1.1
			c-1.9,0-3.8,0.6-3.8,2.4c0,1.6,1.1,2.2,2.5,2.2c0.9,0.1,1.8-0.3,2.4-1.1v1h1.2v-5C194.2,105.3,192.8,104.7,191.4,104.7 M193,109.8
			c0,1.2-1,1.8-2.2,1.8c-1.1,0-1.4-0.5-1.4-1.3c0-1.1,1.1-1.5,2.6-1.5h1L193,109.8z"/>
		<polygon class="st0" points="153.6,110.3 151.3,104.8 150,104.8 153,111.6 151.5,115.1 152.7,115.1 156.9,104.8 155.7,104.8 		"/>
		<path class="st0" d="M170.5,103.6v1.2h-1.1v1h1.1v6.6h1.2v-6.6h1.9v-1h-1.9v-1.4c0-0.8,0.3-1.3,1.1-1.3c0.3,0,0.6,0.1,0.9,0.2v-1
			c-0.3-0.1-0.6-0.1-0.9-0.1C171.3,101.2,170.6,102,170.5,103.6"/>
		<path class="st0" d="M164.9,104.7c-2,0-3.7,1.6-3.7,3.6c0,0.1,0,0.2,0,0.3v0.1c0,2.1,1.7,3.7,3.7,3.7c2.1,0,3.7-1.7,3.7-3.7
			c0,0,0,0,0,0v-0.1c0.1-2-1.4-3.7-3.4-3.8C165.1,104.7,165,104.7,164.9,104.7 M167.4,108.7c0,1.7-1,2.9-2.5,2.9s-2.5-1.1-2.5-2.9
			v-0.1c0-1.7,1-2.9,2.5-2.9s2.5,1.1,2.5,2.9V108.7z"/>
		<path class="st0" d="M223.9,104.7c-1.5,0-2.8,0.6-3,2.4h1.2c0.1-0.9,0.7-1.4,1.7-1.4c1,0,1.6,0.5,1.6,1.7v0.5h-1.1
			c-1.9,0-3.8,0.6-3.8,2.4c0,1.6,1.1,2.2,2.5,2.2c0.9,0.1,1.8-0.3,2.4-1.1v1h1.2v-5C226.7,105.3,225.4,104.7,223.9,104.7
			 M225.5,109.8c0,1.2-1,1.8-2.2,1.8c-1.1,0-1.4-0.5-1.4-1.3c0-1.1,1.1-1.5,2.6-1.5h1L225.5,109.8z"/>
		<path class="st0" d="M217.3,106.2v-1.4h-1.2v7.6h1.2v-4.2c0-1.9,1-2.4,2.5-2.4v-1.1C218.8,104.7,217.8,105.3,217.3,106.2"/>
		<path class="st0" d="M212.2,106.2v-1.4H211v7.6h1.2v-4.2c0-1.9,1-2.4,2.5-2.4v-1.1C213.6,104.7,212.6,105.3,212.2,106.2"/>
		<path class="st0" d="M206.1,104.7c-1.5,0-2.8,0.6-3,2.4h1.2c0.1-0.9,0.7-1.4,1.7-1.4s1.6,0.5,1.6,1.7v0.5h-1.1
			c-1.9,0-3.8,0.6-3.8,2.4c0,1.6,1.1,2.2,2.5,2.2c0.9,0.1,1.8-0.3,2.4-1.1v1h1.2v-5C208.9,105.3,207.5,104.7,206.1,104.7
			 M207.7,109.8c0,1.2-1,1.8-2.2,1.8c-1.1,0-1.4-0.5-1.4-1.3c0-1.1,1.1-1.5,2.6-1.5h1L207.7,109.8z"/>
		<path class="st0" d="M147.5,110.4v-4.6h1.8v-1h-1.8v-1.7h-1.2v1.7h-1.1v1h1.1v4.7c-0.1,1,0.6,1.9,1.7,2c0.1,0,0.3,0,0.4,0
			c0.3,0,0.7,0,1-0.2v-1c-0.3,0.1-0.6,0.2-0.9,0.2C147.8,111.5,147.5,111.2,147.5,110.4"/>
		<rect x="142.6" y="104.8" class="st0" width="1.2" height="7.6"/>
		<path class="st0" d="M132,106.2v-1.4h-1.2v7.6h1.2v-4.2c0-1.9,1-2.4,2.5-2.4v-1.1C133.5,104.7,132.5,105.3,132,106.2"/>
		<path class="st0" d="M125.9,104.7c-2.1,0-3.6,1.6-3.6,3.9v0.1c-0.2,2,1.3,3.7,3.3,3.8c0.1,0,0.3,0,0.4,0c1.7,0,3-0.8,3.2-2.3H128
			c-0.2,0.9-0.9,1.3-2,1.3c-1.6,0-2.4-1-2.4-2.7h5.7v-0.4C129.3,105.8,127.6,104.7,125.9,104.7 M123.6,107.9c0-1.2,1-2.2,2.3-2.2
			c1.2,0,2.1,0.6,2.2,2.2H123.6z"/>
		<path class="st0" d="M138.4,108c-1.4-0.2-1.8-0.5-1.8-1.2s0.6-1.1,1.4-1.1c0.9,0,1.4,0.4,1.6,1.2h1.2c-0.2-1.6-1.4-2.2-2.7-2.2
			c-1.2,0-2.6,0.7-2.6,2.1c0,1.4,0.7,1.9,2.6,2.2c1.2,0.2,1.8,0.5,1.8,1.3c0,0.8-0.5,1.2-1.7,1.2s-1.7-0.6-1.8-1.5h-1.2
			c0.1,1.6,1.2,2.5,3,2.5s2.8-0.9,2.8-2.3C141,108.6,139.9,108.3,138.4,108"/>
		<path class="st0" d="M143.2,101.7c-0.4,0-0.8,0.4-0.8,0.8c0,0.4,0.4,0.8,0.8,0.8c0.4,0,0.8-0.4,0.8-0.8v0
			C144,102,143.6,101.7,143.2,101.7"/>
		<path class="st0" d="M223.1,90.5v-0.1c0.2-2.6-1.8-4.9-4.5-5c-2.6-0.2-4.9,1.8-5,4.5c0,0.2,0,0.4,0,0.6v0.1
			c-0.2,2.6,1.8,4.9,4.5,5s4.9-1.8,5-4.5C223.1,90.9,223.1,90.7,223.1,90.5 M215.1,90.5v-0.1c0-2.2,1.2-3.7,3.2-3.7s3.2,1.5,3.2,3.7
			v0.1c0,2.2-1.2,3.7-3.2,3.7S215.1,92.7,215.1,90.5"/>
		<path class="st0" d="M212.3,90.4c0.2-2.6-1.8-4.9-4.5-5c-2.6-0.2-4.9,1.8-5,4.5c0,0.2,0,0.4,0,0.6v0.1c-0.2,2.6,1.8,4.9,4.5,5
			s4.9-1.8,5-4.5c0-0.2,0-0.4,0-0.6V90.4z M210.7,90.5c0,2.2-1.2,3.7-3.2,3.7s-3.2-1.5-3.2-3.7v-0.1c0-2.2,1.2-3.7,3.2-3.7
			s3.2,1.5,3.2,3.7V90.5z"/>
		<path class="st0" d="M118.8,94.2c-1.6,0-2.2-0.7-2.3-1.9h-1.5c0.1,2,1.5,3.1,3.8,3.1c2.3,0,3.6-1.2,3.6-2.9c0-2.1-1.4-2.5-3.4-2.9
			c-1.8-0.3-2.3-0.7-2.3-1.5c0-0.9,0.7-1.4,1.8-1.4s1.8,0.5,2,1.5h1.5c-0.3-2.1-1.8-2.8-3.5-2.8c-1.5,0-3.3,0.9-3.3,2.7
			s0.9,2.4,3.4,2.9c1.5,0.3,2.3,0.6,2.3,1.6C120.9,93.7,120.3,94.2,118.8,94.2"/>
		<rect x="225.1" y="81" class="st0" width="1.6" height="14.3"/>
		<path class="st0" d="M125.1,81.5c-0.6,0-1,0.4-1,1s0.4,1,1,1c0.6,0,1-0.4,1-1C126.1,82,125.7,81.6,125.1,81.5"/>
		<path class="st0" d="M147.6,90.3c0-3.4-2.1-4.8-4.4-4.8c-2.7,0-4.5,2-4.5,5v0.1c0,3,1.9,4.9,4.7,4.9c2.2,0,3.8-1,4.1-3H146
			c-0.2,1.1-1.1,1.7-2.6,1.7c-2,0-3-1.2-3.1-3.4h7.3L147.6,90.3z M140.3,89.5c0.3-1.7,1.3-2.8,2.9-2.8c1.6,0,2.6,0.8,2.8,2.8H140.3z
			"/>
		<rect x="124.4" y="85.6" class="st0" width="1.5" height="9.7"/>
		<path class="st0" d="M100.4,88.4c1.2-0.3,2.1-1.5,2-2.8v-0.1c0-2.6-1.8-3.4-4.3-3.4h-4v13.3h4.5c2.7,0,4.4-1.2,4.4-3.7v-0.1
			C103,89.8,102.3,88.8,100.4,88.4 M95.7,83.3h2.4c1.9,0,2.7,0.6,2.7,2.1v0.1c0,1.6-0.7,2.3-2.7,2.3h-2.4V83.3z M101.4,91.6
			c0,1.6-0.9,2.5-2.8,2.5h-2.9v-5h2.7C100.5,89.1,101.4,89.9,101.4,91.6L101.4,91.6z"/>
		<path class="st0" d="M180.3,91.6c0-2.5-1.6-3.4-4.5-3.9c-2.7-0.4-3.2-1.1-3.2-2.4s0.9-2.2,2.8-2.2c1.8,0,2.8,0.7,3.1,2.4h1.4
			c-0.3-2.4-1.9-3.6-4.6-3.6c-2.5,0-4.3,1.6-4.3,3.6c0,2.4,1.6,3.2,4.4,3.7c2.5,0.4,3.2,1,3.2,2.6s-1.3,2.5-3,2.5
			c-2.7,0-3.3-1.3-3.5-2.9h-1.6c0.2,2.3,1.5,4.2,5.1,4.2C178.3,95.5,180.2,93.8,180.3,91.6"/>
		<path class="st0" d="M164.8,92.5c0-2.1-1.4-2.5-3.4-2.9c-1.8-0.3-2.3-0.7-2.3-1.5c0-0.9,0.7-1.4,1.8-1.4s1.8,0.5,2,1.5h1.5
			c-0.3-2.1-1.8-2.8-3.5-2.8c-1.5,0-3.3,0.9-3.3,2.7c0,1.8,0.9,2.4,3.4,2.9c1.5,0.3,2.3,0.6,2.3,1.6s-0.7,1.5-2.1,1.5
			c-1.5,0-2.2-0.7-2.3-1.9h-1.5c0.1,2,1.5,3.1,3.8,3.1S164.8,94.3,164.8,92.5"/>
		<path class="st0" d="M136.8,95.3v-5.9c0-2.8-1.4-3.9-3.4-3.9c-1.3-0.1-2.5,0.6-3.1,1.7v-1.6h-1.5v9.7h1.5v-5.9
			c0-1.4,1.1-2.6,2.5-2.7c0.1,0,0.1,0,0.2,0c1.6,0,2.3,0.8,2.3,2.5v6.1L136.8,95.3z"/>
		<path class="st0" d="M156.2,92.5c0-2.1-1.4-2.5-3.4-2.9c-1.8-0.3-2.3-0.7-2.3-1.5c0-0.9,0.7-1.4,1.8-1.4s1.8,0.5,2,1.5h1.5
			c-0.3-2.1-1.8-2.8-3.5-2.8c-1.5,0-3.3,0.9-3.3,2.7c0,1.8,0.9,2.4,3.4,2.9c1.5,0.3,2.3,0.6,2.3,1.6s-0.7,1.5-2.1,1.5
			c-1.5,0-2.2-0.7-2.3-1.9h-1.5c0.1,2,1.5,3.1,3.8,3.1C155,95.5,156.2,94.3,156.2,92.5"/>
		<path class="st0" d="M199.3,89.2v6.1h1.5v-6c0-2.8-1.4-3.9-3.4-3.9c-1.3-0.1-2.5,0.6-3.1,1.7V81h-1.5v14.3h1.5v-5.9
			c-0.1-1.4,1-2.6,2.5-2.7c0.1,0,0.1,0,0.2,0C198.5,86.8,199.2,87.5,199.3,89.2"/>
		<path class="st0" d="M113.1,95.3v-9.7h-1.5v5.9c0,1.4-1.1,2.6-2.5,2.7c-0.1,0-0.1,0-0.2,0c-1.5,0-2.2-0.8-2.2-2.5v-6.1h-1.5v6.1
			c0,2.7,1.4,3.7,3.4,3.7c1.3,0.1,2.5-0.6,3.1-1.7v1.5L113.1,95.3z"/>
		<path class="st0" d="M190.8,91.8h-1.4c-0.1,1.4-1.4,2.5-2.8,2.4c-1.9,0-3.2-1.3-3.2-3.6v-0.1c0-2.3,1.4-3.7,3.1-3.7
			c1.3-0.2,2.5,0.8,2.7,2.1h1.5c-0.3-2.5-2.2-3.4-4.2-3.4c-2.6,0-4.7,2.1-4.7,4.7c0,0.1,0,0.2,0,0.3v0.1c-0.2,2.5,1.8,4.7,4.3,4.9
			c0.1,0,0.3,0,0.4,0C188.7,95.5,190.6,93.9,190.8,91.8"/>
	</g>
</g>
</svg>
