<svg width="64" height="64" viewBox="0 0 64 64" fill="none" xmlns="http://www.w3.org/2000/svg">
<rect width="64" height="64" rx="32" fill="white"/>
<path fill-rule="evenodd" clip-rule="evenodd" d="M20.588 20.4571V16.8326C20.588 16.0067 21.2617 15.3325 22.0881 15.3325H48.4999C49.3259 15.3325 50 16.0063 50 16.8326V35.3711C50 36.197 49.3263 36.8711 48.4999 36.8711H44.8754V23.4206C44.8754 21.7866 43.5459 20.4571 41.9119 20.4571H20.588ZM15.5001 21.9205C14.6741 21.9205 14 22.5942 14 23.4206V42.4989C14 43.3253 14.6737 43.999 15.5001 43.999H20.588V48.3001C20.588 48.447 20.6692 48.5727 20.803 48.6335C20.9369 48.6943 21.085 48.6723 21.1952 48.5752L26.4051 43.999H41.9115C42.7375 43.999 43.4116 43.3253 43.4116 42.4989V23.4206C43.4116 22.5942 42.7379 21.9205 41.9115 21.9205H15.5001ZM35.5423 34.1721C35.808 34.1721 36.023 33.9571 36.023 33.6914V32.2281C36.023 31.9628 35.808 31.7473 35.5423 31.7473C34.1014 31.7473 33.3783 30.0016 34.3972 28.983C34.585 28.7953 34.585 28.4909 34.3972 28.3032L33.3624 27.2683C33.1746 27.0806 32.8702 27.0806 32.6825 27.2683C31.6635 28.2873 29.9182 27.5642 29.9182 26.1233C29.9182 25.8576 29.7031 25.6425 29.4375 25.6425H27.9741C27.7089 25.6425 27.4934 25.8576 27.4934 26.1233C27.4934 27.5642 25.7477 28.2873 24.7291 27.2683C24.5414 27.0806 24.237 27.0806 24.0493 27.2683L23.0144 28.3032C22.8267 28.4909 22.8267 28.7953 23.0144 28.983C24.0333 30.002 23.3102 31.7473 21.8693 31.7473C21.6037 31.7473 21.3886 31.9624 21.3886 32.2281V33.6914C21.3886 33.9567 21.6037 34.1721 21.8693 34.1721C23.3102 34.1721 24.0333 35.9179 23.0144 36.9364C22.8267 37.1242 22.8267 37.4286 23.0144 37.6163L24.0493 38.6512C24.237 38.8389 24.5414 38.8389 24.7291 38.6512C25.7493 37.631 27.4934 38.3537 27.4934 39.7962C27.4934 40.0619 27.7085 40.2769 27.9741 40.2769H29.4375C29.7027 40.2769 29.9182 40.0619 29.9182 39.7962C29.9182 38.3553 31.664 37.6322 32.6825 38.6512C32.8702 38.8389 33.1746 38.8389 33.3624 38.6512L34.3972 37.6163C34.585 37.4286 34.585 37.1242 34.3972 36.9364C33.3783 35.9179 34.1014 34.1721 35.5423 34.1721ZM28.7058 29.8947C27.0131 29.8947 25.6408 31.267 25.6408 32.9597C25.6408 34.6524 27.0131 36.0248 28.7058 36.0248C30.3985 36.0248 31.7709 34.6524 31.7709 32.9597C31.7709 31.267 30.3985 29.8947 28.7058 29.8947Z" fill="#151419"/>
</svg>
