<svg width="64" height="64" viewBox="0 0 64 64" fill="none" xmlns="http://www.w3.org/2000/svg">
<rect width="64" height="64" rx="32" fill="white"/>
<path d="M49.3084 22.4849C49.0458 22.0264 48.6615 21.6495 48.1979 21.396L32.38 12.7368C31.9572 12.5044 31.4825 12.3825 31 12.3825C30.5175 12.3825 30.0428 12.5044 29.62 12.7368L13.8075 21.3942C13.3439 21.6477 12.9596 22.0246 12.697 22.4831C12.4467 22.917 12.3142 23.4089 12.3125 23.9098V41.0951C12.3137 41.6099 12.453 42.1149 12.716 42.5574C12.979 42.9999 13.3559 43.3637 13.8075 43.6108L29.62 52.2663C30.0425 52.4997 30.5173 52.6222 31 52.6222C31.4827 52.6222 31.9575 52.4997 32.38 52.2663L48.1925 43.6108C48.6441 43.3637 49.021 42.9999 49.284 42.5574C49.547 42.1149 49.6863 41.6099 49.6875 41.0951V23.9098C49.6871 23.41 49.5565 22.9188 49.3084 22.4849ZM29.5625 48.9636L23.8125 45.8155V36.815C23.8119 36.5576 23.7422 36.3051 23.6108 36.0838C23.4793 35.8626 23.2908 35.6807 23.065 35.5572L15.1875 31.2447V25.4947L29.5625 33.365V48.9636ZM31 30.8637L16.7436 23.0581L22.9392 19.6674L30.3064 23.7014C30.518 23.8171 30.7552 23.8778 30.9964 23.8778C31.2376 23.8778 31.4748 23.8171 31.6864 23.7014L39.0536 19.6674L45.2492 23.0581L31 30.8637ZM46.8125 31.2411L38.935 35.5536C38.7092 35.6771 38.5207 35.859 38.3892 36.0803C38.2578 36.3015 38.1881 36.554 38.1875 36.8114V45.8119L32.4375 48.96V33.3542L46.8125 25.4839V31.2411Z" fill="#151419"/>
</svg>
