<svg width="64" height="64" viewBox="0 0 64 64" fill="none" xmlns="http://www.w3.org/2000/svg">
<rect width="64" height="64" rx="32" fill="white"/>
<path d="M20.1863 17C18.1845 17 16.573 18.6115 16.573 20.6133V36.0367C16.573 38.0384 18.1845 39.65 20.1863 39.65H43.8136C45.8154 39.65 47.4269 38.0384 47.4269 36.0367V20.6133C47.4269 18.6115 45.8154 17 43.8136 17H20.1863ZM27.6016 22.9121L29.8387 25.7474L26.573 28.3232L29.8387 30.8991L27.6016 33.7378L22.5345 29.7435C22.3199 29.5744 22.1463 29.3588 22.027 29.1129C21.9077 28.8671 21.8457 28.5974 21.8457 28.3241C21.8457 28.0508 21.9077 27.7811 22.027 27.5353C22.1463 27.2894 22.3199 27.0738 22.5345 26.9047L27.6016 22.9121ZM36.3983 22.9121L41.4654 26.9047C41.68 27.0738 41.8536 27.2894 41.9729 27.5353C42.0922 27.7811 42.1542 28.0508 42.1542 28.3241C42.1542 28.5974 42.0922 28.8671 41.9729 29.1129C41.8536 29.3588 41.68 29.5744 41.4654 29.7435L36.3983 33.7378L34.1612 30.8991L37.4287 28.3232L34.1612 25.7474L36.3983 22.9121Z" fill="#151419"/>
<path d="M26.0015 43.2632V45.1933C26.0015 46.1942 26.8072 47 27.8081 47H36.192C37.1929 47 37.9986 46.1942 37.9986 45.1933V43.2632H26.0015Z" fill="#151419"/>
</svg>
