<?xml version="1.0" encoding="utf-8"?>
<!-- Generator: Adobe Illustrator 27.7.0, SVG Export Plug-In . SVG Version: 6.00 Build 0)  -->
<svg version="1.1" id="Layer_1" xmlns="http://www.w3.org/2000/svg" xmlns:xlink="http://www.w3.org/1999/xlink" x="0px" y="0px"
	 viewBox="0 0 252 126" style="enable-background:new 0 0 252 126;" xml:space="preserve">
<style type="text/css">
	.st0{fill:#F0B532;}
	.st1{fill:#125886;}
</style>
<g>
	<path class="st0" d="M145.6,79.1c4.8-4.2,8.4-9.7,10.2-15.8c2.2-7.3,1.4-13.4-2.2-18.5c-3.7-5-9.3-7.6-17-7.7
		c-4.9,0-9.8,1.1-14.2,3.3c-4.7,2.2-9,5.4-12.4,9.3c-0.5,0.6-1,1.2-1.5,1.8h5.9c2.7-2.9,6-5.2,9.6-7c3.6-1.8,7.5-2.7,11.5-2.7
		c3.5,0,7,1,9.9,3c2.7,1.8,4.7,4.5,5.6,7.7c0.9,3.5,0.8,7.2-0.4,10.6c-1.2,4-3.2,7.6-6,10.7c-1.6,1.8-3.4,3.4-5.4,4.8l-6.3-3.5
		l-2-0.5h-14.3l-1.9,2.5h-12.2l0.3,0.7c0.5,1.2,1.2,2.3,1.9,3.3c3.7,5,9.2,7.6,16.7,7.7c5.8,0.1,11.5-1.4,16.5-4.3l28.6-0.3l3.1-5
		L145.6,79.1L145.6,79.1z M122.9,84c-4.5,0.2-8.8-1.5-12-4.7h3.7l12.8,0.2l0.9,0.2v0.1h0.4l0.4,0.1l4.3,2
		C130,83.3,126.4,84,122.9,84L122.9,84z"/>
	<path class="st1" d="M34.3,45.9L16.7,75.3H34l-3.6,6H6.1l21.2-35.4C27.4,45.9,34.3,45.9,34.3,45.9z M184,54.1l-12.3,20.6h-5.1
		l2.4-3.5c-2.4,2.5-5.8,3.9-9.3,3.8c-4.9,0-5.9-2.3-3.1-7l8.3-13.9h5.2l-7.6,12.7c-1,1.8-1.5,3-1.3,3.5c0.1,0.5,1,0.8,2.7,0.8
		c3.3,0,6.1-1.9,8.4-5.7l6.7-11.3C178.9,54.1,184,54.1,184,54.1z M187.7,62.2c0.8-1.5,1.9-2.8,3.1-3.8c1.3-0.7,2.8-1,4.3-0.9
		c2,0,3.1,0.2,3.4,0.7c0.3,0.5,0,1.5-1,3.2l-0.5,0.8C197.1,62.2,187.7,62.2,187.7,62.2z M191.1,70.7c-1.3,0.5-2.6,0.7-4,0.6
		c-1.9,0-3.1-0.3-3.3-1c-0.2-0.7,0.3-2,1.5-4.1l0.5-0.9h14.6l0.9-1.5c2.4-3.9,3.3-6.6,2.8-7.9c-0.5-1.3-2.7-2-6.5-2
		c-3.2-0.2-6.5,0.5-9.3,2.1c-2.9,2.2-5.3,4.9-7,8.1c-2.7,4.5-3.8,7.5-3.3,8.9c0.5,1.4,2.9,2.1,7.1,2.1c6.3,0,10.7-2,13.2-6l0.4-0.8
		h-5.2C193,69.2,192.2,70.1,191.1,70.7L191.1,70.7z M224.9,59.7h-5c0-0.2,0.1-0.3,0.1-0.4c0.5-1,0.6-1.6,0.2-1.9
		c-1.1-0.4-2.2-0.5-3.3-0.4c-2.7,0-4.5,0.8-5.5,2.5c-0.7,1.1-0.8,1.8-0.5,2c1.5,0.4,3,0.5,4.5,0.5c3.6,0.2,5.7,0.7,6.4,1.4
		s0.3,2.3-1.1,4.7c-1.2,2.2-3.1,4.1-5.4,5.2c-2.8,1.1-5.8,1.6-8.8,1.5c-3.7,0-6-0.4-6.7-1.3c-0.7-0.9-0.5-2.5,0.9-4.9l0.3-0.5h5.4
		c-0.2,0.2-0.3,0.4-0.4,0.7c-1.3,1.8-0.4,2.8,2.8,2.8c3.2,0,5.4-0.9,6.5-2.7c1.1-1.8,0.5-2.6-1.5-2.6c-4.6,0-7.4-0.4-8.4-1.3
		c-1-0.8-0.7-2.6,0.9-5.2c1.1-2.1,2.8-3.7,4.9-4.8c2.7-1,5.6-1.4,8.5-1.3c3.6,0,5.8,0.4,6.5,1.2C226.6,55.8,226.4,57.4,224.9,59.7
		L224.9,59.7z M245.9,54.1l-2.2,3.8h-8.2l-6.2,10.3c-1.2,1.9-1,2.9,0.5,2.9s3.2-1.2,4.6-3.5l0.5-0.8h4.3l-0.6,1
		c-0.6,1-1.1,1.8-1.5,2.5c-2.2,3.1-5.6,4.7-10.2,4.7c-4.6,0-5.7-2-3.2-6.1l6.6-11h-2.8l2.2-3.8h2.6l2.8-4.7h5.2l-2.8,4.7L245.9,54.1
		L245.9,54.1z"/>
	<path class="st1" d="M42.3,62.2c0.8-1.5,1.9-2.8,3.2-3.8c1.3-0.7,2.8-1,4.3-0.9c2,0,3.1,0.2,3.4,0.7c0.3,0.5,0,1.5-1,3.2l-0.4,0.8
		C51.7,62.2,42.3,62.2,42.3,62.2z M45.7,70.6c-1.3,0.5-2.7,0.7-4,0.6c-2,0-3-0.3-3.3-1c-0.3-0.7,0.2-2,1.5-4.1l0.5-0.9H55l1-1.5
		c2.4-3.9,3.3-6.6,2.8-7.9c-0.5-1.3-2.7-2-6.5-2c-3.2-0.2-6.5,0.5-9.3,2.1c-2.9,2.2-5.3,4.9-7,8.1c-2.7,4.5-3.8,7.5-3.3,8.9
		c0.5,1.4,2.9,2.1,7.1,2.1c6.3,0,10.7-2,13.2-6l0.4-0.8h-5.2C47.6,69.2,46.7,70,45.7,70.6L45.7,70.6z M70,68.6c-1.2,2-3.4,3-6.5,3
		c-1.9,0-3-0.2-3.4-0.7s-0.1-1.3,0.7-2.7c1.3-2.1,3.7-3.2,6.1-3C70.3,65.4,71.3,66.4,70,68.6z M72.4,57.1c1.8,0,2.9,0.3,3.1,0.8
		c0.3,0.5-0.1,1.6-1,3.2l-2,3.4h-0.1c0.2-1.6-1.5-2.4-5-2.4c-4.9-0.2-9.4,2.2-11.9,6.5c-2.5,4.3-1.3,6.4,4,6.4
		c3.2,0.1,6.4-1,8.7-3.1h0.1l-1.9,2.8h5.1l8.1-13.7c1.7-2.9,2.2-4.8,1.5-5.8c-0.7-1-3-1.5-6.9-1.5c-2.7-0.1-5.4,0.3-7.9,1.3
		c-2,1.2-3.7,2.9-4.8,4.9h5.2C67.9,58,70.1,56.9,72.4,57.1L72.4,57.1z M87.9,54.1h5.2l-2.1,2.9h0.1c2.1-2,4.9-3.1,7.7-3.2
		c3.8,0,4.3,2.3,1.5,6.9l-0.8,1.5h-4.8l0.7-1.1c1.3-2.2,1.1-3.3-0.7-3.3c-2.5,0-4.8,1.6-6.7,4.9l-7.3,12.2h-5.2L87.9,54.1L87.9,54.1
		z M106.1,54.1h5.1l-2.3,3.5h0.1c2.4-2.4,5.6-3.8,9-3.8c5.1,0,6.3,2.3,3.6,6.9l-8.4,14.1H108l7.5-12.5l0.4-0.8l0.8-1.5
		c0.7-1.5-0.1-2.3-2.4-2.3c-3.4-0.1-6.5,1.8-8.1,4.8l-7.3,12.3h-5.2C93.7,74.6,106.1,54.1,106.1,54.1z"/>
</g>
</svg>
