<svg width="64" height="64" viewBox="0 0 64 64" fill="none" xmlns="http://www.w3.org/2000/svg">
<rect width="64" height="64" rx="32" fill="white"/>
<path fill-rule="evenodd" clip-rule="evenodd" d="M21.9533 25.8354V31.1813C21.952 31.4696 22.0381 31.7515 22.2002 31.9899C22.3624 32.2283 22.593 32.4119 22.8617 32.5166C25.7671 33.6941 28.8576 34.3491 31.9909 34.4515C35.1303 34.3512 38.2272 33.6962 41.1383 32.5166C41.407 32.4119 41.6376 32.2283 41.7997 31.9899C41.9619 31.7515 42.048 31.4696 42.0467 31.1813V25.8354L33.2717 28.6469C32.4396 28.9194 31.5422 28.9194 30.7101 28.6469L21.9533 25.8354ZM26.3362 45.1113C27.9213 45.1113 28.321 45.8653 28.9796 46.7782C29.2153 47.2036 29.5623 47.5569 29.9834 47.8001C30.2484 47.9328 30.5409 48.0013 30.8373 48H33.1446C33.4409 48.0013 33.7334 47.9328 33.9984 47.8001C34.4196 47.5569 34.7665 47.2036 35.0022 46.7782C35.6608 45.8698 36.0605 45.1113 37.6456 45.1113H51.9935C52.0775 45.1186 52.1622 45.1083 52.242 45.0812C52.3219 45.054 52.3952 45.0105 52.4574 44.9535C52.5196 44.8965 52.5692 44.8272 52.6032 44.75C52.6371 44.6728 52.6546 44.5893 52.6546 44.505C52.6546 44.4206 52.6371 44.3372 52.6032 44.26C52.5692 44.1828 52.5196 44.1134 52.4574 44.0564C52.3952 43.9994 52.3219 43.956 52.242 43.9288C52.1622 43.9016 52.0775 43.8914 51.9935 43.8986H37.6002C35.9106 43.8986 34.9341 44.807 34.0211 46.0697C33.9485 46.165 33.8758 46.2695 33.6987 46.5239C33.6375 46.6137 33.5546 46.6866 33.4578 46.7358C33.3609 46.785 33.2532 46.809 33.1446 46.8055H30.8373C30.7287 46.809 30.6209 46.785 30.524 46.7358C30.4272 46.6866 30.3443 46.6137 30.2831 46.5239C30.106 46.2922 30.0333 46.1878 29.9607 46.0697C29.0523 44.7979 28.0712 43.8986 26.3816 43.8986L12.0065 43.885C11.9224 43.8777 11.8378 43.888 11.758 43.9152C11.6781 43.9423 11.6048 43.9858 11.5426 44.0428C11.4804 44.0998 11.4308 44.1691 11.3968 44.2464C11.3629 44.3236 11.3453 44.407 11.3453 44.4914C11.3453 44.5757 11.3629 44.6591 11.3968 44.7364C11.4308 44.8136 11.4804 44.8829 11.5426 44.9399C11.6048 44.9969 11.6781 45.0404 11.758 45.0675C11.8378 45.0947 11.9224 45.105 12.0065 45.0977H26.3544L26.3362 45.1113ZM51.0261 42.6678H37.5956C35.5109 42.6678 34.1983 43.726 33.031 45.343L32.8811 45.5519H31.0825L30.9326 45.343C29.7654 43.726 28.4528 42.6678 26.368 42.6678H12.9376L13.8823 39.6338C13.9646 39.3679 14.1307 39.1357 14.3558 38.972C14.5809 38.8083 14.853 38.7218 15.1313 38.7254H24.851C28.698 38.7799 30.9008 40.8783 31.9727 42.8676C33.0446 40.8783 35.2475 38.7799 39.0945 38.7254H48.8142C49.0925 38.7218 49.3645 38.8083 49.5896 38.972C49.8148 39.1357 49.9809 39.3679 50.0632 39.6338L51.0079 42.6678H51.0261ZM46.2979 28.2881C46.4733 28.3962 46.6166 28.5494 46.7127 28.7317C46.8089 28.914 46.8544 29.1187 46.8447 29.3245C46.835 29.5303 46.7703 29.7298 46.6573 29.9022C46.5444 30.0746 46.3874 30.2135 46.2026 30.3047C46.3961 30.401 46.559 30.5493 46.6729 30.733C46.7869 30.9167 46.8473 31.1286 46.8475 31.3448V33.8156C46.8475 33.9505 46.7939 34.0799 46.6985 34.1753C46.6031 34.2707 46.4737 34.3243 46.3388 34.3243H45.0353C44.9012 34.3231 44.7729 34.269 44.6785 34.1737C44.5841 34.0784 44.5311 33.9497 44.5311 33.8156V31.3448C44.53 31.13 44.5885 30.9192 44.6999 30.7356C44.8113 30.552 44.9714 30.4028 45.1625 30.3047C44.9776 30.2135 44.8206 30.0746 44.7077 29.9022C44.5947 29.7298 44.53 29.5303 44.5203 29.3245C44.5106 29.1187 44.5561 28.914 44.6523 28.7317C44.7485 28.5494 44.8917 28.3962 45.0671 28.2881V23.5736L32.8993 27.4887C32.3095 27.6841 31.6723 27.6841 31.0825 27.4887L15.1041 22.3518C14.9806 22.3235 14.8696 22.2561 14.7877 22.1594C14.7059 22.0628 14.6575 21.9423 14.6499 21.8158C14.6589 21.6899 14.7078 21.57 14.7894 21.4737C14.8711 21.3773 14.9813 21.3095 15.1041 21.2799L31.0825 16.143C31.6731 15.9523 32.3087 15.9523 32.8993 16.143L48.8777 21.2799C49.0005 21.3095 49.1107 21.3773 49.1924 21.4737C49.274 21.57 49.3229 21.6899 49.3319 21.8158C49.3243 21.9423 49.276 22.0628 49.1941 22.1594C49.1122 22.2561 49.0012 22.3235 48.8777 22.3518L46.2979 23.183V28.2881Z" fill="#151419"/>
</svg>
