<?xml version="1.0" encoding="utf-8"?>
<!-- Generator: Adobe Illustrator 27.7.0, SVG Export Plug-In . SVG Version: 6.00 Build 0)  -->
<svg version="1.1" id="Layer_1" xmlns="http://www.w3.org/2000/svg" xmlns:xlink="http://www.w3.org/1999/xlink" x="0px" y="0px"
	 viewBox="0 0 252 126" style="enable-background:new 0 0 252 126;" xml:space="preserve">
<style type="text/css">
	.st0{fill:#D6001C;}
	.st1{fill:#76232F;}
	.st2{fill:#FFFFFF;}
	.st3{fill:#B3B3B3;}
</style>
<g>
	<path d="M96.9,49.4l-3.3-5.9c-0.6-1-1.1-2.1-1.4-3.2h-0.2c0.2,1.1,0.2,2.2,0.2,3.3v10.2h-3.5v-19h3.8l4.3,8
		c0.4,0.8,0.8,1.6,1.1,2.5h0.2c0.2-0.9,0.6-1.7,1.1-2.5l4-8h3.6V54h-3.4V43.7c0-1.1,0-2.2,0.2-3.3h-0.2c-0.4,1.1-0.9,2.1-1.4,3.2
		l-3.3,5.9C98.9,49.4,96.9,49.4,96.9,49.4z M122.3,49.1h-7.7l-1.7,4.8h-3.6l6.9-19.1h4.4l6.9,19.1h-3.6
		C123.9,54,122.3,49.1,122.3,49.1z M115.6,46.3h5.6l-1.2-3.6c-0.6-1.7-1.1-3.4-1.5-5.2h-0.2c-0.4,1.7-0.9,3.4-1.5,5.2L115.6,46.3
		L115.6,46.3z M144.9,50.2c-1.7,2.8-3.9,4.1-7.8,4.1c-5,0-8.5-3.6-8.5-9.9s3.6-9.9,9-9.9c3.3-0.2,6.2,1.7,7.4,4.7l-3.3,1.6
		c-0.5-2-2.2-3.3-4.3-3.3c-3.3,0-5.3,2.7-5.3,7s1.7,6.8,5.2,6.8c2,0.1,3.9-1,4.8-2.9L144.9,50.2L144.9,50.2z M160.9,58.9
		c-4.4,0.1-6.7-2-7.8-4.8c-4.2-0.8-6.7-4.2-6.7-9.8c0-6.4,3.3-9.9,8.7-9.9c5.4,0,8.7,3.6,8.7,9.9c0,5.8-2.8,9.2-7.2,9.8
		c1.4,1.3,3.3,1.9,5.2,1.7C161.8,55.9,160.9,58.9,160.9,58.9z M150,44.4c0,4.3,1.7,6.9,5.2,6.9c3.4,0,5.2-2.6,5.2-6.9
		s-1.7-6.9-5.2-6.9C151.8,37.6,150,40.1,150,44.4z M181.7,34.9v12.8c0,5-3.6,6.7-7.5,6.7c-3.9,0-7.5-1.7-7.5-6.7V34.9h3.5v11.8
		c0,3.3,1.3,4.8,4,4.8s4-1.6,4-4.8V34.8L181.7,34.9L181.7,34.9z M196,49.1h-7.7l-1.7,4.8h-3.6l6.9-19.1h4.4l6.9,19.1h-3.6
		C197.7,54,196,49.1,196,49.1z M189.4,46.3h5.6l-1.3-3.6c-0.6-1.7-1.1-3.4-1.5-5.2h-0.2c-0.4,1.7-0.9,3.4-1.5,5.2L189.4,46.3
		L189.4,46.3z M214.4,53.9c-0.5-0.5-0.8-1.2-0.9-1.8l-0.7-3.2c-0.5-2.1-1.5-2.5-3.3-2.5h-2.4v7.4h-3.5V34.9h6.9
		c4.4,0,6.7,1.7,6.7,5.5c0.2,2.5-1.7,4.6-4.1,4.8h-0.2v0.1c1.7,0.1,3,1.3,3.3,3l1,3.6c0.2,0.7,0.6,1.4,1,2H214.4z M207.2,43.7h3.3
		c2.2,0,3.3-0.9,3.3-2.9c0-1.9-1-2.9-3.3-2.9h-3.3V43.7z M224.7,34.9V54h-3.5V34.9H224.7z M241.4,53.9h-12.1v-19h12.1v3h-8.6v5h7.7
		v3h-7.7v5.1h8.6V53.9z"/>
	<path class="st0" d="M45.9,66.1l5.5,3.2h0.4l-0.1,0.2l18.7,10.8V45.7L45.9,59.9V66.1z"/>
	<path class="st1" d="M29.6,69.3l5.5-3.2v-6.2L10.6,45.7v34.6l18.7-10.8v-0.2H29.6z"/>
	<path class="st0" d="M40.5,28.4l30,17.3V28.4H40.5z"/>
	<path class="st1" d="M10.6,28.4v17.3l30-17.3H10.6z M52.8,74.1v2.1h-1c-1,0.6-1.7,1.7-1.8,3h-1.1l0.2,2.4l0.6,10.8l20.9-12.1
		L51.8,69.5l-1.1,4.6H52.8z M51.5,69.3l-5.5-3.2v3.2H51.5z"/>
	<path class="st0" d="M30.3,74.1l-1-4.6L10.6,80.3l20.9,12.1l0.7-13.1h-1c-0.2-1.2-0.8-2.3-1.8-3h-1v-2.1L30.3,74.1L30.3,74.1z
		 M35.1,66.1l-5.5,3.2h5.5V66.1z"/>
	<path class="st2" d="M41.2,49.7c0.2,0,0.2,0,0.4-0.1c0.6-0.6,0.6-1.6,0-2.1c-0.3-0.3-0.7-0.5-1.1-0.5c-0.2,0-0.2,0-0.4,0.1
		c-0.6,0.6-0.6,1.6,0,2.1C40.4,49.5,40.8,49.7,41.2,49.7z M43,79.7c-4.4,0.1-5.5,2.7-5.5,2.7L37.1,83l-0.4,12.4l3.8,2.2l9.1-5.2
		l-0.6-10.8C48.9,81.5,47.9,79.6,43,79.7z"/>
	<path class="st3" d="M28.2,74.1v2.1h1c1,0.6,1.7,1.7,1.9,3h1.1l-0.7,13.1l5.3,3L37.2,83l0.2-0.6c0,0,1.1-2.7,5.5-2.7
		c4.9-0.1,6,1.7,6.1,1.9l-0.2-2.4H50c0.2-1.2,0.8-2.3,1.8-3h1v-2.1L28.2,74.1L28.2,74.1z"/>
	<path class="st3" d="M41.6,88.4c0.1-0.6-0.3-1.1-1-1.1c-0.6-0.1-1.1,0.3-1.1,1v2.9h2.1C41.6,91.2,41.6,88.4,41.6,88.4z"/>
	<path class="st1" d="M36.6,58v1.5l4,2.3l4-2.3V58H36.6z M40.5,64.2l-4,2.3V68h7.9v-1.5L40.5,64.2z M45.9,56.7h0.4
		c0.3,0,0.6,0.3,0.6,0.6S46.6,58,46.3,58h-0.4v1.9l24.6-14.2l-30-17.4v18.6c0.9,0,1.5,0.7,1.5,1.6v0.1c0,0.4-0.2,0.8-0.4,1.1
		c-0.2,0.2-0.4,0.6-0.4,0.9c0,0.4,0.2,0.8,0.5,1C44.2,52.1,45.9,54.3,45.9,56.7z"/>
	<path class="st3" d="M40.5,68h-4v-1.5l4-2.3v-2.4l-4-2.3V58h1.7c-0.2,0-0.2-0.3-0.2-0.6s0.1-0.6,0.2-0.6h0.2c0-2.9,0.9-5.4,2.1-5.4
		c0.4,0,0.8,0.1,1.2,0.2c-0.2-0.2-0.5-0.6-0.5-1c0-0.3,0.2-0.6,0.4-0.9c-0.2,0.1-0.2,0.1-0.4,0.1c-0.9,0-1.6-0.6-1.6-1.5
		c0-0.4,0.2-0.8,0.5-1.1c-0.8,0.2-1.3,1-1.1,1.8c0.1,0.2,0.2,0.5,0.4,0.7c0.2,0.2,0.4,0.6,0.4,0.9c0,0.4-0.2,0.8-0.5,1
		c-2.5,0.6-4.2,2.8-4.2,5.2h-0.4c-0.3,0-0.6,0.3-0.6,0.6s0.3,0.6,0.6,0.6h0.4v11.3h5.4C40.5,69.3,40.5,68,40.5,68z"/>
	<path class="st2" d="M40.5,61.8v2.4l4,2.3V68h-4v1.3H29.3l1.1,4.8h20.4l1.1-4.8h-5.9V58h0.4c0.3,0,0.6-0.3,0.6-0.6
		s-0.3-0.6-0.6-0.6h-0.4c0.1-2.9-2.3-5.4-5.2-5.5h-0.1c-1.1,0-2.1,2.4-2.1,5.4h-0.2c-0.2,0-0.2,0.3-0.2,0.6s0.1,0.6,0.2,0.6h6.2v1.5
		C44.6,59.5,40.5,61.8,40.5,61.8z"/>
	<path class="st1" d="M36.6,61.5l2.5,1.5l-2.5,1.5V61.5z"/>
	<path class="st0" d="M44.5,61.5L42,63l2.5,1.5V61.5z"/>
	<path class="st2" d="M51.7,47.1l-2.3,2.1l0.2-3.1l-3.1-0.5l2.5-1.8l-1.5-2.7l2.9,1l1.2-2.9l1.1,2.9l3-1l-1.6,2.7l2.6,1.8l-3.1,0.5
		l0.2,3.1L51.7,47.1z"/>
	<path class="st0" d="M34.7,58c-0.3,0-0.6-0.3-0.6-0.6s0.2-0.6,0.6-0.6h0.4c0-2.5,1.7-4.7,4.1-5.2c0.3-0.2,0.5-0.6,0.5-1
		c0-0.3-0.2-0.6-0.4-0.9c-0.6-0.6-0.6-1.6,0-2.1c0.2-0.2,0.4-0.3,0.7-0.4c0.2,0,0.2-0.1,0.4-0.1V28.4L10.6,45.7l24.6,14.2V58H34.7z"
		/>
	<path class="st3" d="M35.8,73.1h1.6l-0.2-2.9h-1.7L35.8,73.1z M38.4,73.1h2.1v-2.9h-2.3C38.2,70.3,38.4,73.1,38.4,73.1z"/>
	<path class="st0" d="M33.3,73.1h1.4l-0.3-2.9h-1.7L33.3,73.1z M31.2,73.1h1.1l-0.6-2.9h-1.2L31.2,73.1z"/>
	<path class="st1" d="M46.3,73.1h1.5l0.6-2.9h-1.6C46.8,70.2,46.3,73.1,46.3,73.1z M48.9,73.1H50l0.6-2.9h-1.2L48.9,73.1z"/>
	<path d="M97.5,60.5h1.7v9.6c0,2.2-0.4,3.7-1.1,4.4c-0.8,0.7-1.8,1.1-2.9,1.1c-1.1,0.1-2.2-0.4-2.9-1.2c-0.4-0.5-0.7-1-0.8-1.7
		c-0.2-1-0.2-2.1-0.2-3.3v-9h1.6v-1.1h-5.6v1.1H89v9.5c-0.2,1.8,0.4,3.6,1.5,5.2c1.3,1.2,2.9,1.7,4.7,1.6c1.7,0.2,3.4-0.6,4.6-1.8
		c0.6-0.6,0.9-1.3,1.1-2.1c0.2-1.1,0.3-2.3,0.2-3.4v-9h1.7v-1.1h-5.1v1.1H97.5z M115.5,67.6c0.1-1-0.2-2.1-0.9-2.9
		c-0.6-0.7-1.6-1.1-2.5-1.1c-0.9,0-1.7,0.2-2.5,0.6c-0.8,0.5-1.5,1.2-2,2v-2.4h-4v1.1h1.7v10.2h-1.7v1.1h5.7v-1.1h-1.7v-7.9
		c0.6-0.6,1.1-1.1,1.8-1.5c0.6-0.3,1.2-0.5,1.8-0.5c0.6-0.1,1.1,0.2,1.5,0.6c0.3,0.6,0.5,1.3,0.4,2.1v7.3h-1.7v1.1h5.7v-1.1h-1.7
		L115.5,67.6L115.5,67.6z M122.6,64h-4v1.1h1.7v10.2h-1.7v1.1h5.7v-1.1h-1.7V64z M120.4,59.4h2.3v2.3h-2.3V59.4z M133.6,65.1h1.7
		l-3.8,8.5l-3.5-8.5h1.7V64h-5.2v1.1h1l4.8,11.5h1.1l5.2-11.5h1V64h-3.9L133.6,65.1z M143,63.6c-1.5,0-3,0.6-4,1.8
		c-1,1.3-1.6,2.9-1.5,4.6c-0.1,1.7,0.6,3.5,1.7,4.8c1.1,1.3,2.8,1.9,4.4,1.8c1.3,0,2.7-0.3,4-0.9v-1.7c-1.1,0.6-2.4,1-3.6,1
		c-1.2,0.1-2.3-0.5-3-1.4c-0.8-1.1-1.2-2.5-1.1-3.9h7.7v-0.4c0.1-1.5-0.3-3-1.2-4.3C145.6,64.1,144.3,63.6,143,63.6z M145.2,68.7
		H140c0-1,0.3-2.1,0.8-3c0.5-0.6,1.2-1,2-1c1.6,0,2.4,1.2,2.4,3.6V68.7z M153.8,66.3v-2.4h-4V65h1.7v10.2h-1.7v1.1h5.7v-1.1h-1.7
		v-7.9c0.7-1,1.8-1.6,3-1.7h0.4v1.3h1.4v-3.1c-0.2-0.1-0.5-0.2-0.7-0.2C156.1,63.6,154.6,64.7,153.8,66.3z M166.1,69.4L165,69
		c-0.8-0.2-1.5-0.6-2.1-1.1c-0.4-0.3-0.6-0.8-0.6-1.2c0-0.6,0.2-1,0.6-1.3c0.4-0.4,1-0.6,1.5-0.6c0.4,0,0.8,0.1,1.2,0.2
		c0.4,0.2,0.9,0.4,1.2,0.6v1.4h1.4v-2.7c-0.6-0.2-1.3-0.4-1.9-0.6c-0.6-0.1-1.3-0.2-1.9-0.2c-1.1,0-2.2,0.3-3.1,1
		c-0.8,0.6-1.2,1.5-1.2,2.5c0,1.7,1.2,2.9,3.6,3.8l1.2,0.5c1.3,0.5,2,1.2,2,2.1c0,0.6-0.2,1.1-0.7,1.4c-0.5,0.4-1.1,0.6-1.7,0.6
		c-0.5,0-1-0.1-1.4-0.3c-0.6-0.2-1-0.5-1.5-0.9v-1.4h-1.4v2.8c0.6,0.3,1.3,0.6,2.1,0.7c0.7,0.2,1.4,0.2,2.2,0.2
		c1.3,0.1,2.5-0.3,3.5-1.1c0.9-0.6,1.3-1.7,1.3-2.7c0-0.7-0.2-1.4-0.7-2C167.8,70.3,167,69.7,166.1,69.4L166.1,69.4z M172.6,59.4
		h2.3v2.3h-2.3V59.4z M174.8,64h-4v1.1h1.7v10.2h-1.7v1.1h5.7v-1.1h-1.7V64z M186.2,73.6h-1.3c0,0.7-0.5,1.3-1.1,1.7
		c-0.2,0.1-0.4,0.1-0.6,0.1c-0.5,0-0.9-0.2-1.1-0.6c-0.2-0.6-0.4-1.3-0.4-2V65h3.2v-1h-3.2v-2.8l-2.3,0.6V64h-1.6v1.1h1.7v7.5
		c-0.1,1.1,0.2,2.3,0.9,3.2c0.7,0.7,1.7,1.1,2.6,1c0.2,0,0.4,0,0.6-0.1h0.2l0.2-0.1h0.2l0.2-0.1h0.1
		C185.6,75.9,186.3,74.8,186.2,73.6L186.2,73.6z"/>
	<path d="M195.5,64v1.1h1.7l-3.8,8.5l-3.6-8.5h1.7V64h-5.2v1.1h1l4.8,11.5c-0.2,0.4-0.4,0.8-0.6,1.2c-0.4,0.7-1,1.3-1.7,1.7
		c-0.4,0.2-0.9,0.3-1.3,0.3c-0.5,0-1-0.2-1.4-0.4v-1.1h-1.2v2.2c0.3,0.2,0.7,0.2,1.1,0.3c0.6,0.1,1.3,0.2,1.9,0.1
		c1-0.1,1.8-0.5,2.5-1.1c0.6-0.6,1-1.3,1.3-2.1l0.2-0.5l0.3-0.7l5.1-11.4h1V64L195.5,64L195.5,64z M89.5,91.1
		c0.1,0.6,0.6,1.1,1.3,1.1c0.7,0,1.1-0.3,1.1-0.9c0-0.6-0.3-0.8-1.3-1.2c-1-0.4-1.8-0.8-1.8-1.9c0-1,0.8-1.8,1.7-1.8h0.2
		c1.2,0,2.1,0.5,2.2,1.7l-1,0.2c0-0.6-0.5-1.1-1.1-1.1h-0.1c-0.5-0.1-1,0.2-1,0.8v0.2c0,0.6,0.5,0.9,1.3,1.2
		c0.9,0.3,1.7,0.7,1.7,1.9c0,1.2-1,1.7-2.2,1.7c-1,0.2-2-0.6-2.1-1.6v-0.1C88.6,91.3,89.5,91.1,89.5,91.1z M97.1,88.6
		c0.2,0.3,0.3,0.7,0.5,1.1c0.1-0.4,0.2-0.7,0.4-1.1l1-2h1.1l-1.9,3.9v2.4h-1v-2.4L95,86.6h1.1L97.1,88.6z M102.5,92.9v-6.3h2
		c1.5-0.2,2.9,0.9,3,2.4v0.7c0.2,1.6-1,3-2.5,3.2H102.5z M104.4,92c1.3,0,2.1-0.6,2.1-2.4c0-1.7-1-2.3-2.1-2.3h-1V92H104.4z
		 M113.9,90.2c0.4,0.6,0.7,1.2,0.7,1.2v-4.8h1v6.3h-1l-2.5-3.6l-0.7-1.2c0,0,0.1,0.7,0.1,1.5v3.3h-1v-6.3h1L113.9,90.2z M123,92.9
		h-3.9v-6.3h3.9v0.8h-2.9v1.9h2.5v0.8h-2.5V92h2.9V92.9z M127.3,88.6c0.2,0.3,0.3,0.7,0.5,1.1c0.1-0.4,0.2-0.7,0.4-1.1l1-2h1.1
		l-1.9,3.9v2.4h-1v-2.4l-2.1-3.9h1.1L127.3,88.6z M133.7,89.3c0.4,0,0.7,0.3,0.7,0.7s-0.3,0.7-0.7,0.7S133,90.4,133,90
		S133.3,89.3,133.7,89.3z M141.9,91.1h-2.5l-0.6,1.7h-1l2.3-6.3h1.3l2.3,6.3h-1.1L141.9,91.1z M139.6,90.4h2l-0.5-1.4
		c-0.2-0.6-0.4-1.1-0.5-1.7c0,0-0.2,0.6-0.5,1.7L139.6,90.4L139.6,90.4z M150.7,86.5v4.3c0,1.2-1,2.2-2.1,2.2h-0.2
		c-1.3,0-2.5-0.6-2.5-2.2v-4.3h1v4c0,1.1,0.5,1.7,1.4,1.7s1.4-0.5,1.4-1.6v-4L150.7,86.5L150.7,86.5z M154.1,91.1
		c0.1,0.6,0.6,1.1,1.3,1.1c0.7,0,1.1-0.3,1.1-0.9c0-0.6-0.3-0.8-1.3-1.2c-1-0.4-1.8-0.8-1.8-1.9c0-1,0.8-1.8,1.7-1.8h0.2
		c1.2,0,2.1,0.5,2.2,1.7l-1,0.2c0-0.6-0.5-1.1-1.1-1.1h-0.1c-0.5-0.1-1,0.2-1,0.8v0.2c0,0.6,0.5,0.9,1.3,1.2
		c0.9,0.3,1.7,0.7,1.7,1.9c0,1.2-1,1.7-2.2,1.7c-1,0.2-2-0.6-2.1-1.6v-0.1L154.1,91.1L154.1,91.1z M161.5,92.9v-5.5h-1.8v-0.9h4.7
		v0.9h-1.8v5.5H161.5L161.5,92.9z M170.6,92.9c-0.2-0.2-0.2-0.4-0.3-0.6l-0.2-1.1c-0.1-0.6-0.6-1-1.1-0.9h-1v2.5h-1v-6.3h2.2
		c1.4,0,2.2,0.6,2.2,1.8c0.1,0.8-0.6,1.5-1.3,1.6H170c0.6,0,1,0.5,1.1,1l0.3,1.3c0.1,0.2,0.2,0.5,0.3,0.6L170.6,92.9L170.6,92.9z
		 M167.9,89.5h1.1c0.8,0,1.2-0.3,1.2-1.1c0-0.8-0.4-1.1-1.2-1.1h-1.2L167.9,89.5z M177.9,91.1h-2.6l-0.6,1.7h-1l2.3-6.3h1.3l2.3,6.3
		h-1.1L177.9,91.1L177.9,91.1z M175.6,90.4h2.1l-0.5-1.4c-0.2-0.6-0.4-1.1-0.5-1.7l-0.5,1.7L175.6,90.4L175.6,90.4z M183.1,86.5V92
		h2.9v0.8h-3.8v-6.3H183.1z M189.7,86.5v6.3h-1v-6.3H189.7z M196.5,91.1h-2.6l-0.6,1.7h-1l2.3-6.3h1.3l2.3,6.3H197L196.5,91.1
		L196.5,91.1z M194.2,90.4h2.1l-0.5-1.4c-0.2-0.6-0.4-1.1-0.5-1.7c0,0-0.2,0.6-0.5,1.7L194.2,90.4L194.2,90.4z"/>
</g>
</svg>
