<svg width="64" height="64" viewBox="0 0 64 64" fill="none" xmlns="http://www.w3.org/2000/svg">
<rect width="64" height="64" rx="32" fill="white"/>
<path d="M45 42H16.8C16.3582 42 16 42.3582 16 42.8V47.2C16 47.6418 16.3582 48 16.8 48H45C46.6588 48 48 46.6564 48 45C48 43.3436 46.6588 42 45 42ZM19 46C18.4472 46 18 45.5516 18 45C18 44.4476 18.4472 44 19 44C19.5528 44 20 44.4476 20 45C20 45.5516 19.5528 46 19 46ZM23.3336 46C22.7804 46 22.3336 45.5516 22.3336 45C22.3336 44.4476 22.7804 44 23.3336 44C23.886 44 24.3336 44.4476 24.3336 45C24.3336 45.5516 23.886 46 23.3336 46ZM27.6664 46C27.114 46 26.6664 45.5516 26.6664 45C26.6664 44.4476 27.114 44 27.6664 44C28.2196 44 28.6664 44.4476 28.6664 45C28.6664 45.5516 28.2196 46 27.6664 46ZM32 46C31.448 46 31 45.5516 31 45C31 44.4476 31.448 44 32 44C32.552 44 33 44.4476 33 45C33 45.5516 32.552 46 32 46ZM36.3332 46C35.7812 46 35.3332 45.5516 35.3332 45C35.3332 44.4476 35.7812 44 36.3332 44C36.8856 44 37.3332 44.4476 37.3332 45C37.3332 45.5516 36.8856 46 36.3332 46ZM40.6668 46C40.1144 46 39.6668 45.5516 39.6668 45C39.6668 44.4476 40.1144 44 40.6668 44C41.2188 44 41.6668 44.4476 41.6668 45C41.6668 45.5516 41.2188 46 40.6668 46ZM45 46C44.448 46 44 45.5516 44 45C44 44.4476 44.448 44 45 44C45.552 44 46 44.4476 46 45C46 45.5516 45.552 46 45 46Z" fill="#151419"/>
<path d="M43.1996 32H34.1328C33.6909 32 33.3328 32.3582 33.3328 32.8V39.2C33.3328 39.6418 33.6909 40 34.1328 40H43.1996C43.6414 40 43.9996 39.6418 43.9996 39.2V32.8C43.9996 32.3582 43.6414 32 43.1996 32Z" fill="#151419"/>
<path d="M25.8664 32H16.8C16.3582 32 16 32.3582 16 32.8V39.2C16 39.6418 16.3582 40 16.8 40H25.8664C26.3082 40 26.6664 39.6418 26.6664 39.2V32.8C26.6664 32.3582 26.3082 32 25.8664 32Z" fill="#151419"/>
<path d="M47.2 18.6664C47.6418 18.6664 48 18.3082 48 17.8664V16.8C48 16.3582 47.6418 16 47.2 16H16.8C16.3582 16 16 16.3582 16 16.8V17.8664C16 18.3082 16.3582 18.6664 16.8 18.6664H34.5332C34.975 18.6664 35.3332 19.0246 35.3332 19.4664V23.354C35.3332 23.5517 35.2599 23.7425 35.1276 23.8895L29.5721 30.0557C29.4203 30.2242 29.3471 30.4492 29.3708 30.6747L29.9248 35.9499C29.9675 36.3572 30.3109 36.6664 30.7204 36.6664H31.2C31.6418 36.6664 32 36.3082 32 35.8664V31.6374C32 31.4414 32.0719 31.2523 32.2021 31.1059L34.4306 28.5991C34.8584 28.1178 35.7092 28.313 36.122 28.8072C36.7304 29.5357 37.6422 30 38.6668 30C39.6911 30 40.603 29.5357 41.2115 28.8073C41.6243 28.3131 42.4752 28.1179 42.903 28.5993L45.1311 31.1059C45.2613 31.2523 45.3332 31.4414 45.3332 31.6374V35.8664C45.3332 36.3082 45.6914 36.6664 46.1332 36.6664H46.6129C47.0223 36.6664 47.3657 36.3572 47.4085 35.95L47.9628 30.6745C47.9865 30.4491 47.9134 30.2242 47.7618 30.0557L42.2054 23.883C42.0732 23.7361 42 23.5454 42 23.3478V19.4664C42 19.0246 42.3582 18.6664 42.8 18.6664H47.2Z" fill="#151419"/>
</svg>
