<svg width="64" height="64" viewBox="0 0 64 64" fill="none" xmlns="http://www.w3.org/2000/svg">
<rect width="64" height="64" rx="32" fill="white"/>
<path fill-rule="evenodd" clip-rule="evenodd" d="M38.6252 23.6852C39.3611 23.8825 39.9757 24.3516 40.3542 25.0066C41.0837 26.2698 40.7295 27.8662 39.5843 28.7137L36.7587 23.8195C37.3442 23.5656 37.996 23.5171 38.6268 23.6853L38.6252 23.6852ZM21.0081 42.1693L24.9514 39.892L19.7561 30.9056L15.8177 33.1797C14.6224 33.8687 13.7668 34.9896 13.4077 36.3321C13.047 37.6761 13.2282 39.0736 13.9188 40.2689C14.8796 41.9316 16.628 42.8632 18.4234 42.8632C19.3033 42.8632 20.1945 42.64 21.0097 42.1693L21.0081 42.1693ZM29.2359 47.324L25.9234 41.5884L22.8325 43.3724L26.1434 49.108C26.6367 49.9604 27.7301 50.2531 28.5825 49.7614C28.9917 49.5253 29.286 49.1387 29.4106 48.6777C29.5351 48.2151 29.472 47.7348 29.2359 47.324ZM41.5509 36.0312L31.4031 18.4564C31.1912 18.0892 30.8451 17.8887 30.4245 17.8887H30.4003C29.97 17.8968 29.6207 18.1103 29.4185 18.492C29.0627 19.1648 28.7182 19.883 28.3542 20.6431C26.8225 23.8408 25.1016 27.4362 21.4332 29.8966L26.6624 38.9414C30.6235 36.9972 34.5958 37.3029 38.1298 37.5762C38.9725 37.6409 39.7667 37.7024 40.5285 37.7299C40.9604 37.7461 41.3194 37.5504 41.541 37.1816C41.7642 36.8112 41.7674 36.402 41.5523 36.03L41.5509 36.0312ZM39.0002 17.9856C38.7301 18.453 38.8902 19.0515 39.3577 19.3216C39.5113 19.4106 39.6795 19.4526 39.8461 19.4526C40.1842 19.4526 40.5125 19.2779 40.6937 18.9642L42.7139 15.4673C42.984 14.9998 42.8238 14.4014 42.3564 14.1313C41.889 13.8612 41.2905 14.0213 41.0204 14.4887L39.0002 17.9856ZM50.7737 28.709C50.7737 28.1687 50.337 27.732 49.7935 27.732H45.7564C45.2162 27.732 44.7795 28.1704 44.7795 28.7106C44.7795 29.2508 45.2178 29.6875 45.7564 29.6875H49.7935C50.337 29.6875 50.7737 29.2492 50.7737 28.709ZM48.4365 20.3387C48.1648 19.8713 47.5695 19.7112 47.1021 19.9813L43.5195 22.0483C43.0521 22.3185 42.892 22.9169 43.1621 23.3844C43.3432 23.6981 43.6716 23.8728 44.0096 23.8728C44.1762 23.8728 44.3444 23.8308 44.4981 23.7418L48.0807 21.6731C48.5481 21.403 48.7098 20.8045 48.4381 20.3371L48.4365 20.3387Z" fill="#151419"/>
</svg>
