<svg width="64" height="64" viewBox="0 0 64 64" fill="none" xmlns="http://www.w3.org/2000/svg">
<rect width="64" height="64" rx="32" fill="white"/>
<path fill-rule="evenodd" clip-rule="evenodd" d="M41.8936 45.0641C40.8778 45.6862 39.7436 46.0982 38.5644 46.2633C37.582 46.4018 36.5763 46.3701 35.6038 46.1716C34.8233 46.0115 34.0643 45.7429 33.3571 45.3743C32.2463 44.7955 31.2639 43.9766 30.4966 42.9875C29.8512 42.1553 29.3591 41.2078 29.0522 40.2005C28.7653 39.2581 28.6419 38.2673 28.6853 37.2833C28.732 36.2575 28.9588 35.2434 29.3591 34.2977C29.7944 33.2702 30.4299 32.3295 31.2189 31.5406C32.0078 30.7516 32.9485 30.1162 33.9759 29.6808C34.9216 29.2805 35.9357 29.0537 36.9615 29.007C37.9456 28.9636 38.9364 29.0871 39.8787 29.3739C40.8862 29.6808 41.8335 30.1729 42.6658 30.8184C43.6549 31.5856 44.4739 32.568 45.0526 33.6789C45.4212 34.386 45.6898 35.145 45.8499 35.9255C46.0484 36.8979 46.0801 37.9037 45.9416 38.8861C45.7765 40.0653 45.3645 41.1996 44.7424 42.2153L49.4142 46.2633C49.6127 46.4652 49.7711 46.7037 49.8712 46.9705C49.9613 47.2107 50.0046 47.4676 49.9996 47.7244C49.9929 47.9746 49.9396 48.2231 49.8428 48.4516C49.7561 48.6584 49.6343 48.8503 49.4842 49.017C49.3324 49.1855 49.1506 49.3289 48.9488 49.439C48.4068 49.7326 47.7413 49.7559 47.1775 49.5041C46.9557 49.404 46.7555 49.2639 46.5837 49.0938L41.8936 45.0641ZM37.3517 30.3364C41.4015 30.3364 44.6891 33.6238 44.6891 37.6738C44.6891 41.7237 41.4016 45.0111 37.3517 45.0111C33.3018 45.0111 30.0143 41.7237 30.0143 37.6738C30.0143 33.6238 33.3018 30.3364 37.3517 30.3364Z" fill="#151419"/>
<path fill-rule="evenodd" clip-rule="evenodd" d="M37.3517 31.3132C33.8424 31.3132 30.9917 34.1637 30.9917 37.6732C30.9917 41.1828 33.8422 44.0333 37.3517 44.0333C40.8612 44.0333 43.7117 41.1828 43.7117 37.6732C43.7117 34.1637 40.8612 31.3132 37.3517 31.3132ZM37.3517 37.0059C38.4559 37.0059 39.3532 37.9032 39.3532 39.0074C39.3532 39.878 38.7961 40.6202 38.0189 40.8955V41.0089C38.0189 41.3775 37.7203 41.6761 37.3517 41.6761C36.9831 41.6761 36.6845 41.3775 36.6845 41.0089V40.8955C35.9073 40.6203 35.3502 39.878 35.3502 39.0074C35.3502 38.6388 35.6488 38.3402 36.0174 38.3402C36.3843 38.3402 36.6829 38.6371 36.6845 39.004V39.0107C36.6862 39.3777 36.9848 39.6746 37.3517 39.6746C37.7203 39.6746 38.0189 39.376 38.0189 39.0074C38.0189 38.6388 37.7203 38.3402 37.3517 38.3402C36.2476 38.3402 35.3502 37.4429 35.3502 36.3387C35.3502 35.468 35.9073 34.7258 36.6845 34.4506V34.3372C36.6845 33.9686 36.9831 33.67 37.3517 33.67C37.7203 33.67 38.0189 33.9686 38.0189 34.3372V34.4506C38.7961 34.7258 39.3532 35.468 39.3532 36.3387C39.3532 36.7073 39.0547 37.0059 38.6861 37.0059C38.3191 37.0059 38.0205 36.709 38.0189 36.342V36.3354C38.0172 35.9684 37.7187 35.6715 37.3517 35.6715C36.9831 35.6715 36.6845 35.9701 36.6845 36.3387C36.6845 36.7073 36.9831 37.0059 37.3517 37.0059Z" fill="#151419"/>
<path fill-rule="evenodd" clip-rule="evenodd" d="M14.6679 45.0124C14.5745 45.0124 14.4827 44.9941 14.3977 44.9557C14.3176 44.9207 14.2442 44.869 14.1842 44.8056C14.1275 44.7456 14.0808 44.6755 14.0491 44.5971C14.0207 44.5271 14.004 44.452 14.0007 44.3753C13.9974 44.3019 14.0057 44.2285 14.0274 44.1585C14.0441 44.0967 14.0724 44.0367 14.1075 43.9817C14.1858 43.8616 14.3026 43.7682 14.4377 43.7181C14.5111 43.6914 14.5895 43.6781 14.6679 43.6781H14.9781V26.8556C14.386 26.3785 14.0007 25.628 14.0007 24.7756L14.0341 22.117L16.4809 14.7779C16.571 14.506 16.8262 14.3225 17.1147 14.3225H41.5766C41.8651 14.3225 42.1203 14.506 42.2104 14.7779L44.6906 22.2984V24.7753C44.6906 25.6276 44.3053 26.3782 43.7132 26.8552V29.6673C43.7132 29.7607 43.6932 29.8525 43.6548 29.9375C43.6198 30.0176 43.5681 30.091 43.5063 30.151C43.4446 30.2077 43.3746 30.2544 43.2979 30.2861C43.2261 30.3145 43.1511 30.3312 43.0743 30.3345C43.0026 30.3378 42.9292 30.3295 42.8575 30.3078C42.7958 30.2911 42.7358 30.2628 42.6824 30.2278C42.5606 30.1494 42.4672 30.0326 42.4172 29.8975C42.3905 29.8241 42.3772 29.7457 42.3772 29.6673V27.3923C42.3154 27.3973 42.2521 27.399 42.1887 27.399C41.4681 27.399 40.8126 27.077 40.3539 26.5583C39.8953 27.077 39.2398 27.399 38.5192 27.399C37.7987 27.399 37.1432 27.077 36.6845 26.5583C36.2258 27.077 35.5703 27.399 34.8497 27.399C34.1292 27.399 33.4737 27.077 33.015 26.5583C32.5563 27.077 31.9008 27.399 31.1803 27.399C30.4597 27.399 29.8042 27.077 29.3456 26.5583C28.8869 27.077 28.2314 27.399 27.5108 27.399C26.7903 27.399 26.1348 27.077 25.6761 26.5583C25.2174 27.077 24.5619 27.399 23.8414 27.399C23.1208 27.399 22.4653 27.077 22.0066 26.5583C21.548 27.077 20.8924 27.399 20.1719 27.399C19.4513 27.399 18.7958 27.077 18.3372 26.5583C17.8785 27.077 17.223 27.399 16.5024 27.399C16.439 27.399 16.3757 27.3973 16.314 27.3923V43.6781H18.0035V32.3364C18.0035 32.258 18.0169 32.1796 18.0436 32.1062C18.0836 31.9995 18.1503 31.9027 18.2371 31.8293C18.3021 31.7726 18.3788 31.7293 18.4606 31.7026C18.5273 31.6809 18.599 31.6692 18.6707 31.6692H26.6768C26.7485 31.6692 26.8202 31.6809 26.8869 31.7026C26.9687 31.7293 27.0454 31.7726 27.1104 31.8293C27.1972 31.9027 27.2639 31.9995 27.3039 32.1062C27.3306 32.1796 27.3439 32.258 27.3439 32.3364L27.4073 43.6781H29.9059C29.9993 43.6781 30.0927 43.6964 30.1778 43.7348C30.2578 43.7698 30.3296 43.8215 30.3896 43.8849C30.448 43.945 30.493 44.015 30.5247 44.0934C30.5531 44.1635 30.5697 44.2385 30.5731 44.3152C30.5764 44.3886 30.5681 44.462 30.5481 44.5321C30.5297 44.5938 30.503 44.6538 30.4663 44.7089C30.3896 44.829 30.2728 44.9207 30.1394 44.9707C30.066 44.9991 29.9893 45.0124 29.9109 45.0124L14.6679 45.0124ZM20.6722 38.3407H20.005C19.6364 38.3407 19.3379 38.0422 19.3379 37.6736C19.3379 37.3049 19.6364 37.0064 20.005 37.0064H20.6722C21.0408 37.0064 21.3394 37.3049 21.3394 37.6736C21.3394 38.0422 21.0408 38.3407 20.6722 38.3407Z" fill="#151419"/>
</svg>
