<svg width="64" height="64" viewBox="0 0 64 64" fill="none" xmlns="http://www.w3.org/2000/svg">
<rect width="64" height="64" rx="32" fill="white"/>
<path fill-rule="evenodd" clip-rule="evenodd" d="M47.3307 37.897V21.3842C47.3307 20.4457 46.9579 19.5457 46.2943 18.8821C45.6307 18.2185 44.7307 17.8457 43.7923 17.8457H20.2025C19.2641 17.8457 18.364 18.2185 17.7005 18.8821C17.0369 19.5457 16.6641 20.4457 16.6641 21.3842V37.897C16.6641 38.8354 17.0369 39.7355 17.7005 40.3991C18.364 41.0626 19.2641 41.4354 20.2025 41.4354H43.7923C44.7307 41.4354 45.6307 41.0626 46.2943 40.3991C46.9579 39.7355 47.3307 38.8354 47.3307 37.897ZM27.2794 43.7944H36.7153C37.0282 43.7944 37.3282 43.9187 37.5494 44.1399C37.7706 44.3611 37.8948 44.6611 37.8948 44.9739C37.8948 45.2867 37.7706 45.5867 37.5494 45.8079C37.3282 46.0291 37.0282 46.1534 36.7153 46.1534H27.2794C26.9666 46.1534 26.6666 46.0291 26.4454 45.8079C26.2242 45.5867 26.1 45.2867 26.1 44.9739C26.1 44.6611 26.2242 44.3611 26.4454 44.1399C26.6666 43.9187 26.9666 43.7944 27.2794 43.7944ZM34.4842 26.0238H37.2927C38.1577 26.0163 38.9929 26.34 39.6268 26.9286C40.2608 27.5172 40.6455 28.3261 40.7021 29.1893C40.7587 30.0525 40.4828 30.9047 39.9312 31.571C39.3795 32.2373 38.5938 32.6673 37.7352 32.7728L36.9046 35.9031C36.8597 36.0779 36.7737 36.2393 36.6536 36.3739C36.5336 36.5085 36.383 36.6124 36.2145 36.6769C36.0461 36.7414 35.8646 36.7646 35.6853 36.7445C35.5061 36.7244 35.3342 36.6617 35.1842 36.5615L34.4079 36.0443C34.2532 35.941 34.1263 35.8011 34.0387 35.637C33.951 35.4729 33.9053 35.2897 33.9055 35.1036V32.8652C32.7263 33.0445 29.958 33.6852 27.2927 35.9208C27.1281 36.059 26.9275 36.1474 26.7143 36.1755C26.5012 36.2037 26.2845 36.1704 26.0897 36.0796C25.8949 35.9888 25.73 35.8443 25.6145 35.663C25.4989 35.4818 25.4375 35.2713 25.4375 35.0563V23.7657C25.4377 23.5508 25.4991 23.3404 25.6147 23.1592C25.7303 22.9781 25.8952 22.8337 26.09 22.7429C26.2848 22.6522 26.5015 22.619 26.7145 22.6472C26.9276 22.6753 27.1281 22.7637 27.2927 22.9019C30.7004 25.7599 34.2788 26.0118 34.4842 26.0238ZM35.8108 35.6209V35.6131L36.5588 32.7982H35.0346V35.1036L35.8108 35.6209ZM35.0346 31.6691H37.2927C37.8916 31.6691 38.466 31.4312 38.8895 31.0077C39.3129 30.5843 39.5508 30.0099 39.5508 29.411C39.5508 28.8121 39.3129 28.2377 38.8895 27.8143C38.466 27.3908 37.8916 27.1529 37.2927 27.1529H35.0346V31.6691Z" fill="#151419"/>
</svg>
