<svg width="64" height="64" viewBox="0 0 64 64" fill="none" xmlns="http://www.w3.org/2000/svg">
<rect width="64" height="64" rx="32" fill="white"/>
<path d="M45.039 19.6388H33.7812L36.1908 17.9308C36.3161 17.8418 36.4009 17.7068 36.4266 17.5553C36.4522 17.4038 36.4167 17.2484 36.3277 17.1231C36.2388 16.9978 36.1037 16.9131 35.9522 16.8874C35.8007 16.8617 35.6453 16.8973 35.52 16.9862L34.9802 17.3718L31.9692 19.5077L28.0675 16.6701L27.2655 16.0879C27.1419 16.0245 26.9995 16.0077 26.8644 16.0407C26.7294 16.0736 26.6107 16.1542 26.5302 16.2675C26.4497 16.3808 26.4127 16.5193 26.4259 16.6576C26.4392 16.796 26.5018 16.925 26.6024 17.0209L30.1841 19.6388H18.961C18.176 19.6398 17.4234 19.9521 16.8684 20.5071C16.3133 21.0622 16.001 21.8147 16 22.5997V42.0002C16.001 42.7855 16.3132 43.5385 16.8681 44.0942C17.4231 44.6498 18.1756 44.963 18.961 44.965H19.1807V47.3978C19.1807 47.5512 19.2417 47.6983 19.3501 47.8067C19.4586 47.9152 19.6057 47.9761 19.759 47.9761H44.1716C44.3249 47.9761 44.472 47.9152 44.5805 47.8067C44.689 47.6983 44.7499 47.5512 44.7499 47.3978V44.9535H45.039C45.8224 44.9514 46.5732 44.6399 47.1278 44.0867C47.6824 43.5335 47.9959 42.7835 48 42.0002V22.5997C47.999 21.8147 47.6867 21.0622 47.1316 20.5071C46.5766 19.9521 45.824 19.6398 45.039 19.6388ZM20.3373 46.8195V44.9535H43.5933V46.8195H20.3373ZM20.4067 40.2036V24.3964C20.4067 24.2113 20.4803 24.0338 20.6111 23.9029C20.742 23.772 20.9195 23.6985 21.1046 23.6985H32H42.8954C43.0805 23.6985 43.258 23.772 43.3889 23.9029C43.5197 24.0338 43.5933 24.2113 43.5933 24.3964V40.2036C43.5933 40.389 43.5199 40.5669 43.3891 40.6984C43.2583 40.8299 43.0809 40.9042 42.8954 40.9053H21.1046C20.9191 40.9042 20.7417 40.8299 20.6109 40.6984C20.4801 40.5669 20.4067 40.389 20.4067 40.2036Z" fill="#151419"/>
<path d="M19.1111 23.1112H44.8889V41.7779H19.1111V23.1112Z" fill="#151419"/>
<path d="M27.0265 39.1782C27.4333 39.1869 27.8297 39.0502 28.1446 38.7927L32.347 35.2457L32.3856 35.2842C32.4858 35.3873 32.6057 35.4692 32.7381 35.5252C32.8706 35.5811 33.0129 35.6099 33.1567 35.6099C33.3004 35.6099 33.4427 35.5811 33.5752 35.5252C33.7076 35.4692 33.8275 35.3873 33.9278 35.2842L35.948 33.264C36.0989 33.1172 36.2029 32.929 36.2468 32.7231C36.2908 32.5172 36.2726 32.3029 36.1947 32.1074C36.722 31.9993 37.2165 31.7691 37.6387 31.4353C38.0608 31.1014 38.3988 30.6733 38.6256 30.1852C38.8523 29.6971 38.9615 29.1627 38.9443 28.6248C38.9272 28.0869 38.7841 27.5605 38.5267 27.0878C38.2693 26.6152 37.9046 26.2095 37.462 25.9033C37.0195 25.5971 36.5112 25.3989 35.9782 25.3247C35.4452 25.2504 34.9021 25.3022 34.3927 25.4758C33.8833 25.6493 33.4217 25.9399 33.0449 26.3242C32.573 26.7968 32.2499 27.3973 32.1157 28.0515C31.9198 27.9798 31.7077 27.9642 31.5034 28.0065C31.2991 28.0487 31.1106 28.1471 30.9591 28.2905L28.9157 30.2799C28.8136 30.3807 28.7325 30.5007 28.6772 30.6331C28.6218 30.7655 28.5933 30.9075 28.5933 31.051C28.5933 31.1944 28.6218 31.3365 28.6772 31.4689C28.7325 31.6012 28.8136 31.7213 28.9157 31.8221L28.9543 31.8606L25.4073 36.063C25.119 36.433 24.9791 36.8972 25.0147 37.3649C25.0504 37.8325 25.2591 38.2701 25.6 38.5922C25.9796 38.9681 26.4923 39.1788 27.0265 39.1782ZM35.4699 26.4553C36.0763 26.4553 36.6578 26.6962 37.0866 27.1249C37.5153 27.5537 37.7562 28.1352 37.7562 28.7416C37.7562 29.3479 37.5153 29.9295 37.0866 30.3582C36.6578 30.787 36.0763 31.0278 35.4699 31.0278C35.3851 31.0278 35.3041 31.0278 35.2232 31.0278L33.2068 29.0115C33.1644 28.69 33.1913 28.3631 33.2858 28.0529C33.3803 27.7427 33.5401 27.4563 33.7546 27.2131C33.969 26.9698 34.233 26.7753 34.5289 26.6426C34.8248 26.5099 35.1456 26.4421 35.4699 26.4438V26.4553ZM31.5258 34.4091L27.4005 37.8789C27.2477 37.9668 27.0702 38.0019 26.8954 37.9787C26.7206 37.9556 26.5584 37.8754 26.4337 37.7508C26.3091 37.6261 26.229 37.4639 26.2058 37.2891C26.1826 37.1143 26.2177 36.9368 26.3056 36.784L29.7755 32.6587L31.5258 34.4091Z" fill="white"/>
</svg>
