<svg width="64" height="64" viewBox="0 0 64 64" fill="none" xmlns="http://www.w3.org/2000/svg">
<rect width="64" height="64" rx="32" fill="white"/>
<path d="M18.9219 15.3945C16.7059 15.3945 14.9219 17.1785 14.9219 19.3945V36.4688C14.9219 38.6848 16.7059 40.4688 18.9219 40.4688H45.0781C47.2941 40.4688 49.0781 38.6848 49.0781 36.4688V19.3945C49.0781 17.1785 47.2941 15.3945 45.0781 15.3945H18.9219ZM27.1309 21.9395L29.6074 25.0781L25.9922 27.9297L29.6074 30.7813L27.1309 33.9238L21.5215 29.502C21.2838 29.3148 21.0917 29.0761 20.9597 28.8039C20.8276 28.5318 20.759 28.2332 20.759 27.9307C20.759 27.6281 20.8276 27.3296 20.9597 27.0574C21.0917 26.7852 21.2838 26.5466 21.5215 26.3594L27.1309 21.9395ZM36.8691 21.9395L42.4785 26.3594C42.7162 26.5466 42.9083 26.7852 43.0403 27.0574C43.1724 27.3296 43.241 27.6281 43.241 27.9307C43.241 28.2332 43.1724 28.5318 43.0403 28.8039C42.9083 29.0761 42.7162 29.3148 42.4785 29.502L36.8691 33.9238L34.3926 30.7813L38.0098 27.9297L34.3926 25.0781L36.8691 21.9395Z" fill="#151419"/>
<path d="M25.3594 44.4688V46.6055C25.3594 47.7135 26.2514 48.6055 27.3594 48.6055H36.6406C37.7486 48.6055 38.6406 47.7135 38.6406 46.6055V44.4688H25.3594Z" fill="#151419"/>
</svg>
