<svg width="64" height="64" viewBox="0 0 64 64" fill="none" xmlns="http://www.w3.org/2000/svg">
<rect width="64" height="64" rx="32" fill="white"/>
<path fill-rule="evenodd" clip-rule="evenodd" d="M45.6 51.4286H22.2857V12.5714H45.6C47.4784 12.5714 49 14.0931 49 15.9714V48.0286C49 49.9069 47.4784 51.4286 45.6 51.4286ZM18.4 12.5714H20.8286V51.4286H18.4C16.5216 51.4286 15 49.9069 15 48.0286V15.9714C15 14.0931 16.5216 12.5714 18.4 12.5714ZM28.1143 41.2286C27.7121 41.2286 27.3857 41.5549 27.3857 41.9572C27.3857 42.3594 27.7121 42.6857 28.1143 42.6857H42.6857C43.0879 42.6857 43.4143 42.3594 43.4143 41.9572C43.4143 41.5549 43.0879 41.2286 42.6857 41.2286H28.1143ZM28.8429 45.8429C28.8429 45.4406 29.1692 45.1143 29.5714 45.1143H40.7429C41.1451 45.1143 41.4714 45.4406 41.4714 45.8429C41.4714 46.2451 41.1451 46.5714 40.7429 46.5714H29.5714C29.1692 46.5714 28.8429 46.2451 28.8429 45.8429ZM32.7608 24.6856L26.7807 27.7992C26.2988 28.0496 25.9971 28.5448 25.9952 29.0874L25.9933 30.057C25.9914 30.389 26.314 30.6224 26.6289 30.5218L32.8179 28.5201C33.1234 28.4215 33.4364 28.6378 33.4535 28.9584L33.6413 32.7417C33.6679 33.2957 33.3795 33.8174 32.8957 34.0869L31.393 34.9255C31.2488 35.0052 31.1539 35.1551 31.1444 35.3201L31.0723 36.5439C31.0514 36.893 31.3968 37.1492 31.725 37.0277L35.051 35.8059C35.1611 35.766 35.2806 35.766 35.3907 35.8059L38.6237 37.0258C38.9405 37.1454 39.2802 36.9101 39.2802 36.5724L39.284 35.3486C39.284 35.1551 39.1701 34.9805 38.9937 34.9027L37.6883 34.326C37.1343 34.0793 36.789 33.5177 36.8232 32.9124L37.03 29.1842C37.047 28.8787 37.3392 28.6643 37.6352 28.7402L44.016 30.3776C44.3234 30.4573 44.6213 30.2258 44.6232 29.909L44.6251 29.1387C44.627 28.615 44.3481 28.1312 43.8946 27.8712L38.0889 24.532C37.6354 24.272 37.3565 23.7882 37.3584 23.2645L37.3679 19.9082C37.3679 19.9082 37.3736 17.6674 35.2733 17.8135C33.3835 17.9463 33.4139 19.7696 33.4386 20.1358C33.4405 20.1434 33.4405 20.151 33.4405 20.1586C33.4424 20.1927 33.4461 20.2288 33.4461 20.2648L33.5448 23.3461C33.5619 23.9058 33.2579 24.4276 32.7608 24.6856Z" fill="#151419"/>
</svg>
