<svg width="64" height="64" viewBox="0 0 64 64" fill="none" xmlns="http://www.w3.org/2000/svg">
<rect width="64" height="64" rx="32" fill="white"/>
<path d="M43.1691 24.0821C41.5605 24.2803 39.8199 24.3856 38.0275 24.3856C36.2208 24.3856 34.4802 24.2803 32.8714 24.0821C30.9861 25.6781 28.9939 27.8276 27.4783 30.1737C28.6654 30.5699 29.5224 31.6769 29.5224 33.0087V34.578C29.5224 35.9617 28.5868 37.1096 27.3336 37.4649C27.7818 37.9917 28.0585 38.6647 28.0585 39.4037V40.9855C28.0585 41.7371 27.7818 42.4101 27.3336 42.9369C28.5868 43.2923 29.5224 44.4401 29.5224 45.8112V46.4701C31.8165 47.9733 34.771 48.6982 38.0275 48.6982C45.2526 48.6982 51.1208 45.0989 51.1208 37.4775C51.1208 32.5984 46.9413 27.2854 43.1691 24.0808L43.1691 24.0821ZM38.9896 42.0279V43.4651C38.9896 43.6098 38.8701 43.7293 38.7128 43.7293H37.3275C37.1687 43.7293 37.0508 43.6113 37.0508 43.4651V42.0672C35.6262 41.9744 34.4799 40.8801 34.3479 39.4696C34.3353 39.3108 34.4674 39.1787 34.612 39.1787H36.0225C36.1545 39.1787 36.2725 39.2573 36.2992 39.3894C36.3778 39.825 36.7741 40.141 37.2222 40.141H38.4613C39.2003 40.141 39.8465 39.6143 39.9252 38.902C40.0179 38.0718 39.3575 37.372 38.5399 37.372H37.6436C35.9029 37.372 34.3604 36.1063 34.1749 34.3656C34.0035 32.5463 35.3086 30.9771 37.0492 30.7397V29.3418C37.0492 29.183 37.1671 29.065 37.3259 29.065H38.7112C38.87 29.065 38.988 29.183 38.988 29.3418V30.7271C40.4126 30.8324 41.5463 31.9268 41.6909 33.3246C41.7035 33.4835 41.5714 33.6155 41.4142 33.6155H40.0163C39.8968 33.6155 39.7663 33.5369 39.7395 33.4174C39.6468 32.9693 39.2647 32.6658 38.804 32.6658H37.5649C36.84 32.6658 36.1938 33.18 36.101 33.8923C36.0224 34.7225 36.6812 35.4348 37.4863 35.4348H38.5414C40.4928 35.4348 42.0494 37.1094 41.8639 39.0875C41.7051 40.6174 40.466 41.7779 38.9896 42.0279Z" fill="#151419"/>
<path d="M38.0272 22.3416C39.7144 22.3416 41.3104 22.2363 42.8009 22.0523C43.7774 19.9689 44.661 17.7927 44.661 16.8443C44.661 15.4197 42.8937 14.6823 41.8134 16.198C40.3888 18.1761 39.7835 15.3018 38.1482 15.3018C36.5396 15.3143 35.6826 17.9654 34.4294 16.1854C33.2957 14.5643 31.3444 15.5518 31.3444 16.805C31.3444 18.044 32.1353 20.1007 33.0457 22.0271C34.5882 22.2378 36.2628 22.3431 38.0303 22.3431L38.0272 22.3416Z" fill="#151419"/>
<path d="M15.6331 44.5204H26.5079C27.2249 44.5204 27.8052 45.2374 27.8052 45.8177V47.398C27.8052 48.115 27.225 48.6952 26.5079 48.6952H15.6331C14.9161 48.6952 14.3358 47.9782 14.3358 47.398V45.8177C14.3358 45.1007 14.916 44.5204 15.6331 44.5204Z" fill="#151419"/>
<path d="M14.177 38.1143H25.0519C25.7689 38.1143 26.3491 38.8313 26.3491 39.4116V40.9918C26.3491 41.7088 25.7689 42.2891 25.0519 42.2891H14.177C13.46 42.2891 12.8798 41.5721 12.8798 40.9918V39.4116C12.8798 38.6946 13.46 38.1143 14.177 38.1143Z" fill="#151419"/>
<path d="M15.6331 31.7071H26.5079C27.2249 31.7071 27.8052 32.4241 27.8052 33.0043V34.5846C27.8052 35.3016 27.225 35.8819 26.5079 35.8819H15.6331C14.9161 35.8819 14.3358 35.1649 14.3358 34.5846V33.0043C14.3358 32.2873 14.916 31.7071 15.6331 31.7071Z" fill="#151419"/>
<path d="M14.177 25.3006H25.0519C25.7689 25.3006 26.3491 26.0176 26.3491 26.5978V28.1781C26.3491 28.8951 25.7689 29.4753 25.0519 29.4753H14.177C13.46 29.4753 12.8798 28.7583 12.8798 28.1781V26.5978C12.8798 25.8808 13.46 25.3006 14.177 25.3006Z" fill="#151419"/>
</svg>
