<svg width="64" height="64" viewBox="0 0 64 64" fill="none" xmlns="http://www.w3.org/2000/svg">
<rect width="64" height="64" rx="32" fill="white"/>
<path d="M24.5013 35.2486H42.3857C42.6077 35.2482 42.8248 35.1837 43.011 35.063C43.1973 34.9422 43.3447 34.7703 43.4357 34.5679L48.0511 24.1834C48.13 24.0078 48.1637 23.8153 48.1492 23.6234C48.1348 23.4315 48.0725 23.2463 47.9681 23.0846C47.8638 22.9229 47.7206 22.7899 47.5517 22.6976C47.3828 22.6054 47.1935 22.5568 47.0011 22.5564H22.6321L21.6167 17.6988C21.5604 17.4364 21.4144 17.2018 21.2038 17.0354C20.9932 16.8691 20.7312 16.7813 20.4629 16.7873H17.0014C16.6954 16.7873 16.4019 16.9088 16.1855 17.1252C15.9691 17.3416 15.8475 17.6351 15.8475 17.9411C15.8475 18.2471 15.9691 18.5406 16.1855 18.757C16.4019 18.9734 16.6954 19.0949 17.0014 19.0949H19.5283L22.5975 33.4371C21.8951 33.8063 21.3182 34.3759 20.9401 35.0735C20.562 35.7712 20.3998 36.5655 20.4739 37.3555C20.5481 38.1456 20.8554 38.8957 21.3567 39.5108C21.8581 40.1259 22.5309 40.5781 23.2898 40.8101C22.953 41.4009 22.7742 42.0685 22.7705 42.7486C22.7705 43.8196 23.196 44.8468 23.9534 45.6042C24.7107 46.3615 25.7379 46.787 26.809 46.787C27.88 46.787 28.9072 46.3615 29.6646 45.6042C30.4219 44.8468 30.8474 43.8196 30.8474 42.7486C30.8449 42.1486 30.7069 41.5569 30.4435 41.0178H34.7127C34.4494 41.5569 34.3114 42.1486 34.3089 42.7486C34.3089 43.8196 34.7344 44.8468 35.4917 45.6042C36.2491 46.3615 37.2763 46.787 38.3473 46.787C39.4184 46.787 40.4456 46.3615 41.2029 45.6042C41.9603 44.8468 42.3857 43.8196 42.3857 42.7486C42.3833 42.1486 42.2452 41.5569 41.9819 41.0178H43.5396C43.8456 41.0178 44.1391 40.8962 44.3555 40.6799C44.5718 40.4635 44.6934 40.17 44.6934 39.864C44.6934 39.558 44.5718 39.2645 44.3555 39.0481C44.1391 38.8317 43.8456 38.7101 43.5396 38.7101H24.5013C24.0423 38.7101 23.602 38.5278 23.2775 38.2032C22.9529 37.8786 22.7705 37.4384 22.7705 36.9794C22.7705 36.5204 22.9529 36.0801 23.2775 35.7556C23.602 35.431 24.0423 35.2486 24.5013 35.2486Z" fill="#151419"/>
</svg>
