<?xml version="1.0" encoding="utf-8"?>
<!-- Generator: Adobe Illustrator 27.7.0, SVG Export Plug-In . SVG Version: 6.00 Build 0)  -->
<svg version="1.1" id="Layer_1" xmlns="http://www.w3.org/2000/svg" xmlns:xlink="http://www.w3.org/1999/xlink" x="0px" y="0px"
	 viewBox="0 0 252 126" style="enable-background:new 0 0 252 126;" xml:space="preserve">
<style type="text/css">
	.st0{fill:#002169;}
	.st1{fill:#FFFFFF;}
</style>
<g>
	<path class="st0" d="M197.8,60.2l-0.6-0.5c-2.1-1.7-2.8-2.5-2.8-3.8c0-1.4,1.1-2.6,2.5-2.6c0.1,0,0.2,0,0.3,0c2.1,0,2.7,1,2.8,1.2
		c0.2,0.4,0.3,0.7,0.3,1.1c0,0.2,0,0.3,0.2,0.3c0.2,0,0.2-0.2,0.2-0.5c0-1.5,0.1-2.3,0.1-2.4c0-0.1,0-0.2-0.2-0.2
		c-0.3,0-0.5,0-0.8-0.1c-0.7-0.2-1.4-0.2-2.1-0.2c-2.9,0-4.7,1.7-4.7,4.1c0,1.5,0.5,2.9,2.9,4.9l1,0.9c1.9,1.6,2.6,2.5,2.6,4.1
		c0,1.7-1.3,3-3,3c-0.1,0-0.1,0-0.2,0c-1.5,0-3-0.6-3.3-2.3c-0.1-0.3-0.1-0.6-0.1-0.9c0-0.2,0-0.2-0.2-0.2s-0.2,0.1-0.2,0.4
		s-0.1,1.3-0.1,2.4c0,0.2,0,0.3,0,0.4c0,0.1-0.1,0.1-0.1,0.2c0,0,0,0-0.1,0c-0.7-0.3-1.4-0.8-1.9-1.4c-1.3-1.4-2.9-3.4-4.7-5.8
		c2-1.9,2.7-3.5,2.7-5.2c0-1.2-0.6-2.3-1.6-3.1c-1.2-0.7-2.7-1.1-4.1-1c-0.7,0-2.4,0.1-2.7,0.1c-0.1,0-1.5-0.1-2.6-0.1
		c-0.2,0-0.4,0.1-0.4,0.2c0,0.1,0.1,0.1,0.2,0.1c0.3,0,0.5,0,0.8,0.1c0.7,0.2,0.9,0.5,1,1.3c0,0.8,0.1,1.4,0.1,4.9v4
		c0,2.2,0,4-0.1,4.9c-0.1,0.7-0.2,1.1-0.7,1.2c-0.2,0.1-0.4,0.1-0.7,0.1c-0.1,0-0.2,0.1-0.2,0.1s0.1,0.2,0.4,0.2
		c0.7,0,2.1-0.1,2.1-0.1s1.5,0.1,2.8,0.1c0.2,0,0.4-0.1,0.4-0.2s0-0.1-0.2-0.1s-0.7-0.1-1-0.1c-0.7-0.1-0.9-0.6-0.9-1.2
		c-0.1-0.9-0.1-2.7-0.1-4.9v-0.5c0-0.1,0-0.2,0.2-0.2l2.8,0.1c0.1,0,0.2,0,0.3,0.1c0.5,0.6,1.5,2.1,2.5,3.3c1.3,1.7,2.1,2.8,3,3.3
		c0.8,0.4,1.6,0.5,2.4,0.4h0.6c0.5,0,1,0.1,1.4,0.2c0.5,0.1,1.1,0.2,1.7,0.2c1.2,0,2.4-0.3,3.4-1c1.2-0.9,1.9-2.3,1.9-3.7
		C201.1,63.7,200.4,62.3,197.8,60.2z M185.1,61.5c-0.5,0.3-1.1,0.5-1.7,0.4c-0.8,0-1.6-0.1-2.4-0.4c-0.1-0.1-0.2-0.2-0.2-0.3v-7.4
		c0-0.1,0.1-0.2,0.2-0.3c0.5-0.1,1-0.1,1.5-0.1c2.4,0,3.9,1.7,3.9,4.5C186.4,59.7,185.9,61,185.1,61.5z"/>
	<path class="st0" d="M104.2,59.3c0-3.5,0-4.2,0-4.9s-0.2-1.1-1-1.3c-0.3,0-0.5-0.1-0.8-0.1c-0.1,0-0.2-0.1-0.2-0.1
		c0-0.1,0.1-0.2,0.4-0.2c1,0,2.4,0.1,2.6,0.1s1.6-0.1,2.2-0.1c0.2,0,0.4,0.1,0.4,0.2c0,0.1-0.1,0.1-0.2,0.1c-0.2,0-0.4,0-0.6,0.1
		c-0.6,0.1-0.8,0.5-0.9,1.3s-0.1,1.4-0.1,4.9v3.2c0,3.3,0.7,4.6,1.7,5.6c0.9,0.9,2.1,1.3,3.4,1.2c1.4,0,2.7-0.6,3.5-1.6
		c1-1.3,1.3-3.2,1.3-5.5v-2.8c0-3.5,0-4.2-0.1-4.9c-0.1-0.7-0.2-1.1-1-1.3c-0.3,0-0.5-0.1-0.8-0.1c-0.1,0-0.2-0.1-0.2-0.1
		c0-0.1,0.1-0.2,0.4-0.2c1,0,2.3,0.1,2.4,0.1c0.1,0,1.2-0.1,1.9-0.1c0.3,0,0.4,0.1,0.4,0.2c0,0.1-0.1,0.1-0.2,0.1
		c-0.2,0-0.4,0-0.6,0.1c-0.6,0.1-0.8,0.5-0.9,1.3s0,1.4,0,4.9v2.4c0,2.4-0.3,5.1-2.1,6.8c-1.3,1.1-2.9,1.8-4.7,1.7
		c-1.7,0-3.3-0.5-4.7-1.6c-1.1-1.1-2-2.6-2-6L104.2,59.3z"/>
	<path class="st0" d="M123,66.8c0,1.8,0.3,2.4,0.9,2.6c0.4,0.1,0.7,0.1,1.1,0.1c0.1,0,0.2,0,0.2,0.1s-0.1,0.2-0.4,0.2
		c-1.3,0-2.2-0.1-2.4-0.1c-0.2,0-1.2,0.1-2.2,0.1c-0.2,0-0.4,0-0.4-0.2s0.1-0.1,0.2-0.1c0.3,0,0.6,0,0.9-0.1
		c0.6-0.2,0.7-0.9,0.7-2.9V53.6c0-0.9,0.1-1.1,0.2-1.1c0.2,0,0.6,0.5,0.8,0.7c0.3,0.4,3.7,4,7.2,7.8c2.2,2.4,4.7,5.1,5.4,5.9
		l-0.2-11.5c0-1.5-0.2-2-0.9-2.1c-0.4-0.1-0.7-0.1-1.1-0.1c-0.2,0-0.2-0.1-0.2-0.2s0.2-0.2,0.5-0.2c1,0,2.1,0.1,2.3,0.1
		c0.3,0,1-0.1,1.9-0.1c0.2,0,0.4,0,0.4,0.2s-0.1,0.2-0.2,0.2c-0.2,0-0.4,0-0.5,0.1c-0.7,0.2-0.9,0.7-0.9,2l0,13.2
		c0,1.5-0.1,1.6-0.2,1.6c-0.2,0-0.5-0.2-1.7-1.4c-0.2-0.2-3.5-3.5-5.9-6.1c-2.7-2.8-5.2-5.7-5.9-6.5L123,66.8z"/>
	<path class="st0" d="M143.2,63.3c0,2.2,0,4,0.1,4.9c0.1,0.7,0.2,1.1,0.9,1.2c0.3,0,0.9,0.1,1,0.1c0.2,0,0.2,0.1,0.2,0.1
		c0,0.1-0.1,0.2-0.4,0.2c-1.2,0-2.7-0.1-2.8-0.1c-0.1,0-1.5,0.1-2.2,0.1c-0.2,0-0.4-0.1-0.4-0.2c0-0.1,0.1-0.1,0.2-0.1
		c0.2,0,0.5,0,0.7-0.1c0.5-0.1,0.6-0.6,0.7-1.2c0.1-0.9,0.1-2.7,0.1-4.9v-4c0-3.5,0-4.2-0.1-4.9s-0.3-1.1-0.8-1.3
		c-0.2-0.1-0.5-0.1-0.7-0.1c-0.1,0-0.2-0.1-0.2-0.1c0-0.1,0.1-0.2,0.4-0.2c0.7,0,2.2,0.1,2.3,0.1c0.1,0,1.5-0.1,2.2-0.1
		c0.2,0,0.4,0.1,0.4,0.2c0,0.1-0.1,0.1-0.2,0.1c-0.2,0-0.4,0-0.6,0.1c-0.6,0.1-0.8,0.5-0.9,1.3s-0.1,1.4-0.1,4.9L143.2,63.3z"/>
	<path class="st0" d="M155.4,67.1c1.3-3,4.3-10.9,4.8-12.5c0.1-0.3,0.2-0.6,0.2-0.9c0-0.2-0.1-0.4-0.3-0.5c-0.3-0.1-0.6-0.1-0.9-0.1
		c-0.1,0-0.2,0-0.2-0.1c0-0.1,0.1-0.2,0.5-0.2c0.9,0,1.9,0.1,2.2,0.1c0.1,0,1.1-0.1,1.8-0.1c0.2,0,0.4,0.1,0.4,0.2
		c0,0.1-0.1,0.2-0.3,0.2c-0.4,0-0.8,0.1-1.1,0.3c-0.3,0.2-0.6,0.6-1.2,2.1c-0.3,0.6-1.4,3.3-2.6,6.1c-1.4,3.3-2.4,5.7-2.9,6.8
		c-0.6,1.4-0.7,1.7-0.9,1.7s-0.4-0.3-0.9-1.4l-5.5-13.8c-0.5-1.3-0.9-1.5-1.6-1.7c-0.3-0.1-0.6-0.1-0.9-0.1c-0.1,0-0.2-0.1-0.2-0.2
		c0-0.1,0.2-0.2,0.6-0.2c1.1,0,2.4,0.1,2.6,0.1s1.2-0.1,2.1-0.1c0.4,0,0.6,0.1,0.6,0.2c0,0.1-0.1,0.2-0.2,0.2c-0.3,0-0.6,0-0.9,0.1
		c-0.2,0.1-0.3,0.3-0.3,0.5c0.1,0.6,0.3,1.3,0.6,1.9L155.4,67.1z"/>
	<path class="st0" d="M166.9,59.3c0-3.5,0-4.2,0-4.9s-0.2-1.1-1-1.3c-0.3,0-0.5-0.1-0.8-0.1c-0.1,0-0.2-0.1-0.2-0.1
		c0-0.1,0.1-0.2,0.4-0.2c1,0,2.4,0.1,2.6,0.1c0.1,0,4.7,0,5.2,0c0.3,0,0.6-0.1,1-0.1c0.1,0,0.2-0.1,0.3-0.1c0.1,0,0.1,0.1,0.1,0.2
		c0,0.1-0.1,0.4-0.2,1.1c0,0.2-0.1,1.2-0.1,1.5c0,0.1-0.1,0.2-0.2,0.2c-0.1,0-0.2-0.1-0.2-0.3c0-0.3,0-0.6-0.1-0.9
		c-0.2-0.4-0.4-0.6-1.6-0.8c-0.4,0-2.8-0.1-3.1-0.1c-0.1,0-0.1,0.1-0.1,0.2v6.2c0,0.2,0,0.2,0.1,0.2c0.3,0,3.1,0,3.6-0.1
		c0.5-0.1,0.9-0.1,1.1-0.3c0.2-0.2,0.3-0.3,0.3-0.3s0.1,0,0.1,0.2c0,0.2-0.1,0.5-0.2,1.3c0,0.5-0.1,1.3-0.1,1.4s0,0.4-0.2,0.4
		s-0.2-0.1-0.2-0.2c0-0.3,0-0.5-0.1-0.7c-0.1-0.3-0.3-0.7-1.2-0.8c-0.6-0.1-2.9-0.1-3.2-0.1c-0.1,0-0.1,0.1-0.2,0.1c0,0,0,0,0,0v2
		c0,0.8,0,3.4,0,3.9c0.1,1.6,0.4,1.9,2.6,1.9c0.7,0,1.5,0,2.2-0.3c0.6-0.2,0.9-0.7,1-1.6c0-0.2,0.1-0.3,0.2-0.3s0.1,0.2,0.1,0.3
		c0,0.2-0.2,1.7-0.3,2.2c-0.1,0.5-0.3,0.6-1.2,0.6c-3.4,0-4.9-0.1-5.6-0.1c-0.1,0-1.5,0.1-2.2,0.1c-0.2,0-0.4-0.1-0.4-0.2
		c0-0.1,0-0.1,0.2-0.1c0.2,0,0.5,0,0.7-0.1c0.5-0.1,0.6-0.6,0.7-1.2c0.1-0.9,0.1-2.7,0.1-4.9L166.9,59.3z"/>
	<path class="st0" d="M207.1,63.3c0,2.2,0,4,0.1,4.9c0.1,0.7,0.2,1.1,0.9,1.2c0.3,0,0.9,0.1,1,0.1c0.2,0,0.2,0.1,0.2,0.1
		c0,0.1-0.1,0.2-0.4,0.2c-1.2,0-2.7-0.1-2.8-0.1s-1.5,0.1-2.2,0.1c-0.2,0-0.4-0.1-0.4-0.2c0-0.1,0-0.1,0.2-0.1c0.2,0,0.5,0,0.7-0.1
		c0.5-0.1,0.6-0.6,0.7-1.2c0.1-0.9,0.1-2.7,0.1-4.9v-4c0-3.5,0-4.2-0.1-4.9c-0.1-0.7-0.3-1.1-0.8-1.3c-0.2-0.1-0.5-0.1-0.7-0.1
		c-0.1,0-0.2-0.1-0.2-0.1c0-0.1,0.1-0.2,0.4-0.2c0.7,0,2.2,0.1,2.3,0.1c0.1,0,1.5-0.1,2.2-0.1c0.2,0,0.4,0.1,0.4,0.2
		c0,0.1-0.1,0.1-0.2,0.1c-0.2,0-0.4,0-0.6,0.1c-0.6,0.1-0.8,0.5-0.9,1.3c-0.1,0.8,0,1.4,0,4.9L207.1,63.3z"/>
	<path class="st0" d="M218,63.3c0,2.2,0,4,0.1,4.9c0.1,0.7,0.2,1.1,0.9,1.2c0.3,0,0.9,0.1,1,0.1c0.2,0,0.2,0.1,0.2,0.1
		c0,0.1-0.1,0.2-0.4,0.2c-1.2,0-2.7-0.1-2.8-0.1s-1.5,0.1-2.2,0.1c-0.3,0-0.4-0.1-0.4-0.2c0-0.1,0-0.1,0.2-0.1c0.2,0,0.5,0,0.7-0.1
		c0.5-0.1,0.6-0.6,0.7-1.2c0.1-0.9,0.1-2.7,0.1-4.9v-9.5h-3.3c-1.4,0-1.9,0.2-2.3,0.7c-0.1,0.2-0.3,0.5-0.4,0.7
		c-0.1,0.2-0.1,0.2-0.2,0.2s-0.1-0.1-0.1-0.2c0-0.1,0.5-2.2,0.5-2.3c0-0.2,0.1-0.4,0.2-0.4c0.3,0.1,0.7,0.2,1,0.3
		c0.7,0.1,1.5,0.1,1.8,0.1h8.5c0.8,0,1.5-0.1,2.2-0.2c0.1,0,0.1,0.1,0.1,0.3c0,0.7-0.1,2.2-0.1,2.5c0,0.3-0.1,0.3-0.2,0.3
		s-0.2-0.1-0.2-0.4V55c-0.1-0.7-0.6-1.2-2.8-1.2H218L218,63.3z"/>
	<path class="st0" d="M232.1,64c0-0.8-0.1-1.6-0.5-2.4c-0.2-0.4-3.2-5.3-4-6.5c-0.4-0.7-0.9-1.2-1.5-1.7c-0.3-0.2-0.6-0.3-1-0.4
		c-0.1,0-0.2-0.1-0.2-0.2c0-0.1,0.1-0.2,0.3-0.2c0.4,0,2.1,0.1,2.2,0.1c0.1,0,1-0.1,1.9-0.1c0.3,0,0.3,0.1,0.3,0.2s-0.1,0.1-0.3,0.2
		c-0.2,0.1-0.3,0.2-0.3,0.4c0,0.3,0.1,0.6,0.3,0.9c0.4,0.7,3.8,6.5,4.2,7.1c0.4-1,3.3-5.9,3.8-6.6c0.2-0.3,0.4-0.7,0.4-1.2
		c0-0.3-0.1-0.6-0.4-0.6s-0.3-0.1-0.3-0.2s0.1-0.1,0.4-0.1c0.6,0,1.3,0.1,1.5,0.1s1.8,0,2.2,0c0.2,0,0.3,0.1,0.3,0.1
		s-0.1,0.2-0.3,0.2c-0.4,0-0.7,0.1-1,0.3c-0.5,0.3-0.9,0.7-1.2,1.1c-1.6,2.3-3,4.7-4.3,7.2c-0.3,0.7-0.4,1.5-0.3,2.3V66
		c0,0.4,0,1.3,0.1,2.3c0.1,0.7,0.3,1.1,0.9,1.2c0.3,0,0.9,0.1,1,0.1c0.2,0,0.2,0.1,0.2,0.1c0,0.1-0.1,0.2-0.4,0.2
		c-1.2,0-2.7-0.1-2.8-0.1c-0.1,0-1.5,0.1-2.2,0.1c-0.2,0-0.4-0.1-0.4-0.2c0-0.1,0.1-0.1,0.2-0.1c0.2,0,0.5,0,0.7-0.1
		c0.5-0.1,0.7-0.6,0.7-1.2c0.1-0.9,0.1-1.9,0.1-2.3L232.1,64z"/>
	<path class="st0" d="M69.7,67.7c-1.8-1.7-2.8-4.2-2.7-6.7c0-2.3,0.9-4.5,2.6-6.2c1.4-1.4,3.4-2.4,6.9-2.4c1.1,0,2.2,0.1,3.3,0.3
		c0.8,0.2,1.5,0.3,2.3,0.3c0.3,0,0.3,0.1,0.3,0.2c0,0.1-0.1,0.5-0.1,1.3c0,0.8-0.1,2-0.1,2.3c0,0.3-0.1,0.5-0.2,0.5
		s-0.2-0.2-0.2-0.5c0-0.9-0.3-1.7-1-2.3c-1.3-0.9-2.9-1.3-4.5-1.3c-3,0-4.4,0.9-5.2,1.7c-1.7,1.6-2,3.6-2,5.9
		c-0.1,4.5,3.6,8.2,8.1,8.3c0,0,0.1,0,0.1,0c1.7,0,3-0.2,3.9-1.1c0.4-0.6,0.7-1.2,0.9-1.9c0-0.2,0.1-0.3,0.2-0.3s0.2,0.2,0.2,0.3
		c-0.1,1-0.3,1.9-0.5,2.9c-0.1,0.4-0.2,0.5-0.6,0.7c-1.3,0.4-2.7,0.6-4.1,0.5C73.7,70.2,71.5,69.3,69.7,67.7z"/>
	<path class="st0" d="M86.3,59.3c0-3.5,0-4.2,0-4.9s-0.2-1.1-1-1.3c-0.3,0-0.5-0.1-0.8-0.1c-0.1,0-0.2-0.1-0.2-0.1
		c0-0.1,0.1-0.2,0.4-0.2c1,0,2.4,0.1,2.6,0.1c0.1,0,4.7,0,5.2,0c0.3,0,0.6-0.1,1-0.1c0.1,0,0.2-0.1,0.3-0.1c0.1,0,0.1,0.1,0.1,0.2
		c0,0.1-0.1,0.4-0.2,1.1c0,0.2-0.1,1.2-0.1,1.5c0,0.1-0.1,0.2-0.2,0.2s-0.2-0.1-0.2-0.3c0-0.3,0-0.6-0.1-0.9
		c-0.2-0.4-0.4-0.6-1.6-0.8c-0.4,0-2.8-0.1-3.1-0.1c-0.1,0-0.1,0.1-0.1,0.2v6.2c0,0.2,0,0.2,0.1,0.2c0.3,0,3.1,0,3.6-0.1
		c0.5-0.1,0.9-0.1,1.1-0.3c0.2-0.2,0.3-0.3,0.3-0.3c0.1,0,0.1,0,0.1,0.2c0,0.2-0.1,0.5-0.2,1.3c0,0.5-0.1,1.3-0.1,1.4s0,0.4-0.2,0.4
		s-0.2-0.1-0.2-0.2c0-0.3,0-0.5-0.1-0.7c-0.1-0.3-0.3-0.7-1.2-0.8c-0.6-0.1-2.9-0.1-3.2-0.1c-0.1,0-0.1,0.1-0.2,0.1c0,0,0,0,0,0v2
		c0,0.8,0,3.4,0,3.9c0.1,1.6,0.4,1.9,2.6,1.9c0.7,0,1.5,0,2.2-0.3c0.6-0.2,0.9-0.7,1-1.6c0-0.2,0.1-0.3,0.2-0.3s0.1,0.2,0.1,0.3
		c0,0.2-0.2,1.7-0.3,2.2s-0.3,0.6-1.2,0.6c-3.4,0-4.9-0.1-5.6-0.1c-0.1,0-1.5,0.1-2.2,0.1c-0.2,0-0.4-0.1-0.4-0.2
		c0-0.1,0-0.1,0.2-0.1c0.2,0,0.5,0,0.7-0.1c0.5-0.1,0.6-0.6,0.7-1.2c0.1-0.9,0.1-2.7,0.1-4.9L86.3,59.3z"/>
	<path class="st0" d="M60.7,69.4c-0.3,0-0.6,0-0.9-0.1c-0.7-0.3-1.4-0.8-1.9-1.4c-1.3-1.4-2.9-3.4-4.7-5.8c2-1.9,2.7-3.5,2.7-5.2
		c0-1.2-0.6-2.3-1.6-3.1c-1.2-0.7-2.7-1.1-4.1-1c-0.7,0-2.4,0.1-2.7,0.1c-0.1,0-1.5-0.1-2.6-0.1c-0.2,0-0.4,0.1-0.4,0.2
		c0,0.1,0.1,0.1,0.2,0.1c0.3,0,0.5,0,0.8,0.1c0.7,0.2,0.9,0.5,1,1.3c0,0.8,0.1,1.4,0.1,4.9v4c0,2.2,0,4-0.1,4.9
		c-0.1,0.7-0.2,1.1-0.7,1.2c-0.2,0.1-0.4,0.1-0.7,0.1c-0.1,0-0.2,0.1-0.2,0.1s0.1,0.2,0.4,0.2c0.7,0,2.1-0.1,2.1-0.1
		c0,0,1.5,0.1,2.8,0.1c0.2,0,0.4-0.1,0.4-0.2s0-0.1-0.2-0.1s-0.7-0.1-1-0.1c-0.7-0.1-0.9-0.6-0.9-1.2c-0.1-0.9-0.1-2.7-0.1-4.9v-0.5
		c0-0.1,0-0.2,0.2-0.2l2.8,0.1c0.1,0,0.2,0,0.3,0.1c0.5,0.6,1.5,2.1,2.5,3.3c1.3,1.7,2.1,2.8,3,3.3c0.8,0.4,1.6,0.5,2.4,0.4h0.7
		c0.7,0,2.1-0.1,2.2-0.1c0.1,0,1.5,0.1,2.8,0.1c0.3,0,0.4-0.1,0.4-0.2c0-0.1-0.1-0.1-0.2-0.1c-0.1,0-0.7-0.1-1-0.1
		c-0.7-0.1-0.9-0.6-0.9-1.2c-0.1-0.9-0.1-2.7-0.1-4.9v-4c0-3.5,0-4.2,0.1-4.9c0.1-0.7,0.2-1.2,0.9-1.3c0.2,0,0.4-0.1,0.6-0.1
		c0.1,0,0.1-0.1,0.1-0.1c0,0,0,0,0,0c0-0.1-0.1-0.2-0.4-0.2c-0.7,0-2.1,0.1-2.2,0.1c-0.1,0-1.7-0.1-2.4-0.1c-0.2,0-0.4,0.1-0.4,0.2
		c0,0.1,0.1,0.1,0.2,0.1c0.2,0,0.5,0,0.7,0.1c0.5,0.1,0.7,0.5,0.8,1.3c0,0.8,0,1.4,0,4.9v4c0,2.2,0,4-0.1,4.9c0,0.3-0.1,0.6-0.2,0.9
		C61,69.3,60.8,69.4,60.7,69.4L60.7,69.4z M52.6,61.5c-0.5,0.3-1.1,0.5-1.7,0.4c-0.8,0-1.6-0.1-2.4-0.4c-0.1-0.1-0.2-0.2-0.2-0.3
		v-7.4c0-0.1,0.1-0.2,0.2-0.3c0.5-0.1,1-0.1,1.5-0.1c2.4,0,3.9,1.7,3.9,4.5C54,59.7,53.4,61,52.6,61.5z"/>
	<path class="st0" d="M36.2,61.3c0,7.4-4.5,14-11.3,16.8c-0.9,0.4-1.9,0.4-2.8,0c-6.8-2.8-11.3-9.4-11.3-16.8V50.4
		c0-0.5,0.3-0.9,0.7-1c3.1-0.9,6.4-1.5,9.6-1.7c0.8,0,1.5-0.1,2.3-0.1c4,0,8,0.6,11.9,1.7c0.4,0.1,0.7,0.5,0.7,1L36.2,61.3z"/>
	<path class="st1" d="M23.3,68.9c-0.2,0-0.4,0.2-0.4,0.4c0,0,0,0,0,0c0,0.1,0,0.1,0,0.2l0,0l0.3,0.7c0,0,0,0,0,0c0,0,0,0,0,0
		l0.3-0.7c0-0.1,0-0.1,0-0.2C23.7,69.1,23.5,68.9,23.3,68.9C23.3,68.9,23.3,68.9,23.3,68.9z"/>
	<path class="st1" d="M21.5,70.4c0-0.1-0.1-0.3-0.2-0.4h0c0,0-0.1,0-0.1,0c0,0,0,0,0,0c0,0.1,0,0.3,0,0.4c0,0.6,0.2,1.2,0.5,1.7
		c0.1,0.1,0.2,0.3,0.3,0.4c0,0,0,0,0.1,0c0,0,0-0.1,0-0.1c0,0,0,0,0,0c-0.3-0.6-0.5-1.3-0.5-1.9C21.5,70.5,21.5,70.5,21.5,70.4z"/>
	<polygon class="st1" points="22.7,75.2 22.7,75.2 22.7,75.2 	"/>
	<path class="st1" d="M23.5,74.6l0.1-0.2c0-0.1,0-0.2-0.1-0.2l-0.1-0.1c0,0,0,0-0.1,0c-0.1,0.2-0.2,0.4-0.3,0.6
		c-0.1,0.2-0.3,0.2-0.5,0.2h-0.2c-0.1,0-0.2,0.1-0.2,0.1v0.1c0,0,0,0.1,0,0.1c0,0,0,0,0,0h0.1c0,0,0,0,0.1,0l0,0
		c0-0.1,0.1-0.1,0.2-0.1l0,0l0,0c0,0,0,0,0,0.1c0,0,0,0,0,0H23c0,0,0,0,0.1,0l0,0V75v-0.1c0-0.1,0.1-0.2,0.2-0.2
		C23.4,74.7,23.5,74.6,23.5,74.6z"/>
	<polygon class="st1" points="23.7,75.2 23.7,75.2 23.7,75.2 	"/>
	<path class="st1" d="M24.6,74C24.6,74,24.5,74,24.6,74C24.5,74,24.5,74,24.6,74c-0.2,0.2-0.3,0.4-0.4,0.6c-0.1,0.2-0.3,0.2-0.5,0.2
		h-0.2c-0.1,0-0.2,0.1-0.2,0.1l0,0v0.1c0,0,0,0,0,0.1c0,0,0,0,0,0h0.1c0,0,0,0,0.1,0l0,0c0-0.1,0.1-0.1,0.2-0.1c0,0,0,0,0,0l0,0l0,0
		c0,0,0,0.1,0,0.1c0,0,0,0,0,0h0.3h0.1h0.1c0,0,0.1,0,0.1,0l0.1,0.1l0,0h0.1h0.1l0,0V75c0-0.1-0.1-0.1-0.1-0.1h-0.1
		c0,0-0.1-0.1,0-0.1l0.1-0.1c0.1-0.1,0.1-0.2,0.2-0.3l0.1-0.1c0-0.1,0-0.2-0.1-0.2c0,0,0,0,0,0L24.6,74z"/>
	<path class="st1" d="M24.8,68.1L24.8,68.1c0.1,0.1,0.1,0.1,0.2,0.2c0,0.1,0.1,0.2,0.2,0.2c0.2,0,0.3,0.1,0.5,0.2l0,0l0,0l0,0
		c0-0.3-0.1-0.5-0.2-0.8c0,0-0.1-0.1-0.1-0.1h0C25.1,67.9,24.9,68,24.8,68.1C24.8,68.1,24.8,68.1,24.8,68.1z"/>
	<path class="st1" d="M25.1,68.7L25.1,68.7c0,0.1,0,0.2-0.1,0.3c0,0.1,0,0.2,0,0.2c0.1,0.2,0.1,0.3,0.1,0.5l0,0l0,0l0,0
		c0.2-0.1,0.4-0.3,0.5-0.5c0.1-0.1,0-0.3-0.1-0.4C25.4,68.8,25.3,68.7,25.1,68.7L25.1,68.7z"/>
	<path class="st1" d="M23.9,68L23.9,68c0.1-0.1,0.3-0.1,0.4-0.1h0.2h0.1c0.1,0,0.1,0,0.2-0.1c0.1-0.1,0.3-0.2,0.4-0.2l0,0l0,0
		c-0.1-0.1-0.2-0.1-0.4-0.2c-0.1,0-0.1,0-0.2,0h-0.1c-0.1,0-0.3,0.1-0.4,0.2C24,67.7,23.9,67.8,23.9,68L23.9,68L23.9,68z"/>
	<path class="st1" d="M22.8,67.7c0.1,0.1,0.1,0.3,0.2,0.4c0,0.2,0,0.3,0,0.5l0,0l0,0c0.1,0,0.2,0,0.4,0l0,0l0,0c0-0.2,0-0.3,0-0.5
		c0-0.2,0.1-0.3,0.2-0.4c0-0.1,0.1-0.1,0.1-0.2l0,0l0,0l0,0c-0.1,0.1-0.3,0.2-0.4,0.3c0,0.1-0.1,0.1-0.2,0c0,0,0,0,0,0
		c-0.1-0.1-0.2-0.2-0.4-0.3l0,0l0,0l0,0C22.7,67.6,22.8,67.7,22.8,67.7z"/>
	<path class="st1" d="M21.8,67.8c0.1,0,0.1,0.1,0.2,0.1h0.1h0.2c0.1,0,0.3,0,0.4,0.1h0l0,0c-0.1-0.1-0.1-0.3-0.2-0.4
		c-0.1-0.1-0.2-0.2-0.4-0.2h-0.1c-0.1,0-0.1,0-0.2,0c-0.1,0-0.3,0.1-0.4,0.2l0,0l0,0C21.5,67.7,21.7,67.7,21.8,67.8z"/>
	<path class="st1" d="M21.5,68.3c0-0.1,0.1-0.2,0.2-0.2l0,0l0,0c-0.1-0.1-0.3-0.2-0.5-0.2l0,0c0,0-0.1,0-0.1,0.1
		c-0.2,0.2-0.2,0.5-0.2,0.8l0,0l0,0l0,0c0.1-0.1,0.3-0.2,0.5-0.2C21.4,68.5,21.5,68.4,21.5,68.3z"/>
	<path class="st1" d="M21.4,69.8L21.4,69.8L21.4,69.8c0-0.2,0-0.3,0.1-0.5c0-0.1,0-0.2,0-0.2c-0.1-0.1-0.1-0.2-0.1-0.3l0,0l0,0
		c-0.1,0-0.3,0.1-0.4,0.2c-0.1,0-0.1,0.1-0.1,0.2c0,0.1,0,0.1,0,0.2C21,69.5,21.2,69.7,21.4,69.8C21.4,69.9,21.4,69.8,21.4,69.8z"/>
	<path class="st1" d="M24.9,73.3L24.9,73.3c-0.3-0.4-0.6-0.8-0.7-1.2c-0.2-0.5-0.3-1-0.2-1.5c0-0.1,0-0.2,0-0.2l0,0l0,0
		c0,0-0.1,0-0.1-0.1l0,0c0-0.1,0.1-0.2,0.2-0.2c0,0,0,0,0,0h0.4h0.2c0.1,0,0.2-0.1,0.2-0.2c0-0.1,0-0.3-0.1-0.4l0,0l0,0
		c-0.1,0.1-0.3,0.1-0.4,0.1c-0.1,0-0.2,0-0.3-0.1l0,0l0,0c0,0.1,0,0.1-0.1,0.2l-0.4,0.9c-0.1,0.1-0.2,0.2-0.3,0.1
		c0,0-0.1-0.1-0.1-0.1l-0.4-0.9c0-0.1,0-0.1-0.1-0.2l0,0l0,0c-0.1,0.1-0.2,0.1-0.3,0.1c-0.1,0-0.3,0-0.4-0.1l0,0l0,0
		c-0.1,0.1-0.1,0.3-0.1,0.4c0,0.1,0.1,0.2,0.2,0.2h0.2h0.4c0.1,0,0.2,0.1,0.2,0.2c0,0,0,0,0,0c0,0,0,0.1-0.1,0.1h0h-0.7h-0.3l0,0
		c0,0-0.1,0-0.1,0.1l0,0c0,0.1,0,0.1,0,0.2c0,0.7,0.2,1.5,0.6,2.1c0.2,0.3,0.4,0.5,0.6,0.8c0.2,0.2,0.5,0.4,0.8,0.6l0,0l0,0
		c0,0,0-0.1,0-0.1c0-0.1,0-0.2,0-0.3c0-0.1-0.1-0.2-0.1-0.2c-0.2-0.2-0.3-0.4-0.5-0.6c0,0,0,0,0-0.1c0,0,0,0,0-0.1c0,0,0.1,0,0.1,0
		c0.1,0,0.1,0,0.2,0.1c0.2,0.3,0.4,0.5,0.6,0.8c0.1,0.1,0.2,0.2,0.3,0.3l0.3,0.2l0,0l0,0l0.1-0.1c0-0.1,0-0.2,0-0.3
		c0-0.1-0.1-0.2-0.1-0.2L24.9,73.3z"/>
	<path class="st1" d="M25.3,73.7L25.3,73.7L25.3,73.7c-0.1,0.2-0.1,0.4-0.2,0.6l0,0l0,0c0.3,0.1,0.5,0.2,0.8,0.3l0,0c0,0,0,0,0.1,0
		l0.1-0.2v-0.1c0,0,0-0.1,0-0.1C25.8,74,25.5,73.9,25.3,73.7z"/>
	<path class="st1" d="M26.8,73.7c-0.5-0.2-1-0.5-1.3-1c-0.3-0.3-0.5-0.7-0.7-1.1c0,0,0,0,0-0.1c0,0,0,0,0,0h0.1c0.1,0,0.1,0,0.2,0.1
		c0.1,0.3,0.3,0.6,0.5,0.9c0.2,0.2,0.5,0.5,0.7,0.6c0.2,0.1,0.4,0.2,0.6,0.3l0,0l0,0c0-0.1,0-0.1,0-0.2l0,0c0-0.2-0.1-0.4-0.3-0.5
		c-0.3-0.2-0.5-0.3-0.7-0.6c-0.3-0.3-0.5-0.7-0.6-1.1c0,0,0,0,0-0.1c0,0,0,0,0,0l0,0c0.1,0,0.2,0.1,0.2,0.1c0,0.2,0.1,0.3,0.2,0.5
		c0.1,0.2,0.2,0.3,0.3,0.4c0.2,0.2,0.4,0.4,0.7,0.5h0l0,0c-0.1-0.5-0.2-0.9-0.4-1.4c-0.1-0.3-0.2-0.5-0.4-0.7
		c-0.2-0.2-0.4-0.4-0.6-0.6c0,0-0.1,0-0.1,0c0,0-0.1,0-0.1,0c-0.1,0.1-0.3,0.2-0.5,0.2c-0.2,0.1-0.3,0.1-0.5,0.1h-0.2
		c0,0-0.1,0-0.1,0.1v0.2c0,0.5,0.1,0.9,0.2,1.4c0.3,0.8,0.9,1.5,1.6,2c0.4,0.2,0.7,0.4,1.1,0.5l0,0l0,0l0,0c0,0,0-0.1,0-0.1
		C27.1,74.1,27,73.9,26.8,73.7z"/>
	<path class="st1" d="M24.3,74c0,0,0-0.1,0-0.1c0,0,0,0,0,0l-0.2-0.1 M24.1,73.7c0,0,0,0.1,0,0.1 M24.1,73.9l0.2,0.1c0,0,0,0,0,0
		L24.1,73.9z"/>
	<path class="st1" d="M24.3,68.1c-0.3,0-0.6,0.3-0.6,0.6s0.3,0.6,0.6,0.6s0.6-0.3,0.6-0.6v0C24.9,68.4,24.6,68.1,24.3,68.1z
		 M24.3,69.1c-0.2,0-0.4-0.2-0.4-0.4c0-0.2,0.1-0.3,0.3-0.4c0,0,0.1,0,0,0.1c0,0.1-0.1,0.1-0.1,0.2c0,0.2,0.1,0.3,0.3,0.3
		c0.1,0,0.1,0,0.2-0.1 M24.6,68.8c0,0.2-0.2,0.3-0.3,0.3L24.6,68.8z"/>
	<path class="st1" d="M22.2,68.1c-0.3,0-0.6,0.3-0.6,0.6s0.3,0.6,0.6,0.6s0.6-0.3,0.6-0.6v0C22.8,68.4,22.5,68.1,22.2,68.1z
		 M22.2,69.1c-0.2,0-0.4-0.2-0.4-0.4l0,0c0-0.2,0.1-0.3,0.3-0.4 M22.1,68.4C22,68.4,22,68.5,22,68.6c0,0.2,0.1,0.3,0.3,0.3
		c0.1,0,0.1,0,0.2-0.1 M22.6,68.8c0,0.2-0.2,0.3-0.3,0.3L22.6,68.8z"/>
	<path class="st1" d="M15.4,51.8c-0.2,0-0.4,0.2-0.4,0.4c0,0.1,0,0.1,0,0.2l0,0l0.3,0.7c0,0,0,0,0.1,0c0,0,0,0,0,0l0.3-0.7
		c0-0.1,0-0.1,0-0.2C15.8,52,15.6,51.8,15.4,51.8z"/>
	<path class="st1" d="M13.7,53.3c0-0.2-0.1-0.3-0.2-0.4h0c0,0-0.1,0-0.1,0c0,0,0,0,0,0c0,0.1,0,0.2,0,0.4c0,0.6,0.2,1.2,0.5,1.7
		c0.1,0.1,0.2,0.3,0.3,0.4c0,0,0,0,0.1,0c0,0,0-0.1,0-0.1c-0.3-0.6-0.5-1.3-0.5-1.9V53.3z"/>
	<polygon class="st1" points="14.8,58 14.8,58 14.8,58 	"/>
	<path class="st1" d="M15.7,57.4c0-0.1,0.1-0.1,0.1-0.2c0-0.1,0-0.2-0.1-0.2L15.6,57c0,0-0.1,0-0.1,0c0,0,0,0,0,0
		c-0.1,0.2-0.2,0.4-0.3,0.6c-0.1,0.2-0.3,0.2-0.5,0.2h-0.1c-0.1,0-0.1,0.1-0.2,0.1V58c0,0,0,0,0,0.1c0,0,0,0,0,0h0.1c0,0,0,0,0.1,0
		l0,0c0-0.1,0.1-0.1,0.2-0.1l0,0l0,0c0,0,0,0.1,0,0.1c0,0,0,0,0,0h0.3l0,0l0,0v-0.1v-0.1c0-0.1,0.1-0.2,0.2-0.2
		C15.5,57.6,15.6,57.5,15.7,57.4z"/>
	<polygon class="st1" points="15.8,58 15.8,58 15.8,58 	"/>
	<path class="st1" d="M16.7,56.9C16.7,56.9,16.6,56.9,16.7,56.9c-0.2,0.2-0.3,0.4-0.4,0.6c-0.1,0.2-0.3,0.2-0.5,0.2h-0.2
		c-0.1,0-0.2,0.1-0.2,0.1l0,0v0.1c0,0,0,0.1,0,0.1c0,0,0,0,0,0h0.1c0,0,0,0,0.1,0l0,0c0-0.1,0.1-0.1,0.2-0.1l0,0l0,0c0,0,0,0,0,0.1
		c0,0,0,0,0,0h0.3h0.1h0.1c0,0,0.1,0,0.1,0l0.1,0.1l0,0h0.1h0.1l0,0v-0.1c0-0.1-0.1-0.1-0.1-0.1h-0.1c0,0,0,0,0-0.1c0,0,0,0,0,0
		l0.1-0.1c0.1-0.1,0.1-0.2,0.2-0.3c0,0,0-0.1,0.1-0.1c0-0.1,0-0.2-0.1-0.2L16.7,56.9z"/>
	<path class="st1" d="M16.9,51L16.9,51c0.1,0.1,0.1,0.1,0.2,0.2c0,0.1,0.1,0.2,0.2,0.2c0.2,0,0.3,0.1,0.5,0.2l0,0l0,0l0,0
		c0-0.3-0.1-0.5-0.2-0.8c0,0-0.1-0.1-0.1-0.1h0C17.2,50.8,17,50.8,16.9,51C16.9,50.9,16.9,50.9,16.9,51z"/>
	<path class="st1" d="M17.2,51.6L17.2,51.6c0,0.1,0,0.2-0.1,0.3c0,0.1,0,0.2,0,0.2c0.1,0.2,0.1,0.3,0.1,0.5l0,0l0,0
		c0.2-0.1,0.4-0.3,0.5-0.5c0-0.1,0-0.1,0-0.2c0-0.1-0.1-0.1-0.1-0.2C17.5,51.6,17.4,51.6,17.2,51.6L17.2,51.6z"/>
	<path class="st1" d="M16,50.9L16,50.9c0.1-0.1,0.3-0.1,0.4-0.1h0.2h0.1c0.1,0,0.1,0,0.2-0.1c0.1-0.1,0.3-0.2,0.4-0.2l0,0l0,0
		c-0.1-0.1-0.2-0.1-0.4-0.2c-0.1,0-0.1,0-0.2,0h-0.1c-0.1,0-0.3,0.1-0.4,0.2C16.1,50.6,16,50.7,16,50.9L16,50.9L16,50.9z"/>
	<path class="st1" d="M15,50.6c0.1,0.1,0.1,0.3,0.1,0.4c0,0.2,0,0.3,0,0.5l0,0l0,0c0.1,0,0.2,0,0.4,0l0,0l0,0c0-0.2,0-0.3,0-0.5
		c0-0.2,0.1-0.3,0.2-0.4c0-0.1,0.1-0.1,0.1-0.2l0,0l0,0l0,0c-0.1,0.1-0.3,0.2-0.4,0.3c0,0-0.1,0-0.1,0c0,0-0.1,0-0.1,0
		c-0.1-0.1-0.2-0.2-0.4-0.3l0,0l0,0l0,0C14.9,50.5,14.9,50.5,15,50.6z"/>
	<path class="st1" d="M13.9,50.7c0.1,0,0.1,0.1,0.2,0.1h0.1h0.2c0.1,0,0.3,0,0.4,0.1l0,0l0,0c-0.1-0.1-0.1-0.3-0.3-0.4
		c-0.1-0.1-0.2-0.2-0.4-0.2H14c-0.1,0-0.1,0-0.2,0c-0.1,0-0.3,0.1-0.4,0.2l0,0l0,0C13.6,50.5,13.8,50.6,13.9,50.7z"/>
	<path class="st1" d="M13.7,51.2c0-0.1,0.1-0.2,0.2-0.2l0,0l0,0c-0.1-0.1-0.3-0.2-0.5-0.2l0,0c0,0-0.1,0-0.1,0.1
		C13,51.1,13,51.3,13,51.6l0,0l0,0l0,0c0.1-0.1,0.3-0.2,0.5-0.2C13.5,51.4,13.6,51.3,13.7,51.2z"/>
	<path class="st1" d="M13.6,52.7L13.6,52.7L13.6,52.7c0-0.2,0-0.3,0.1-0.5c0.1-0.1,0.1-0.2,0-0.3c-0.1-0.1-0.1-0.2-0.1-0.3l0,0l0,0
		c-0.1,0-0.3,0.1-0.4,0.2c-0.1,0-0.1,0.1-0.1,0.2c0,0.1,0,0.1,0,0.2C13.2,52.4,13.4,52.6,13.6,52.7L13.6,52.7z"/>
	<path class="st1" d="M17,56.1L17,56.1c-0.3-0.4-0.6-0.8-0.8-1.2c-0.2-0.5-0.3-1-0.3-1.5c0-0.1,0-0.2,0-0.2l0,0l0,0
		c0,0-0.1,0-0.1-0.1c0-0.1,0.1-0.2,0.2-0.2c0,0,0,0,0,0h0.4h0.2c0.1,0,0.2-0.1,0.2-0.2c0-0.1,0-0.3-0.1-0.4l0,0l0,0
		c-0.1,0.1-0.3,0.1-0.4,0.1c-0.1,0-0.2,0-0.3-0.1l0,0l0,0c0,0.1,0,0.1-0.1,0.2l-0.4,0.9c0,0.1-0.1,0.1-0.2,0.1
		c-0.1,0-0.2-0.1-0.2-0.1l-0.4-0.9c0-0.1,0-0.1-0.1-0.2l0,0l0,0c-0.1,0-0.2,0.1-0.3,0.1c-0.1,0-0.3,0-0.4-0.1l0,0l0,0
		C14,52.4,14,52.6,14,52.7c0,0.1,0.1,0.2,0.2,0.2h0.2h0.4c0.1,0,0.2,0.1,0.2,0.2c0,0,0,0,0,0c0,0,0,0.1-0.1,0.1h-0.7H14l0,0
		c0,0-0.1,0-0.1,0.1c0,0,0,0,0,0c0,0.1,0,0.1,0,0.2c0,0.7,0.2,1.4,0.6,2c0.2,0.3,0.4,0.5,0.6,0.8c0.2,0.2,0.5,0.4,0.8,0.6l0,0l0,0
		v-0.1c0-0.1,0-0.2,0-0.3c0-0.1-0.1-0.2-0.1-0.2c-0.2-0.2-0.3-0.4-0.5-0.6c0,0,0,0,0-0.1c0,0,0,0,0-0.1c0,0,0.1,0,0.1,0
		c0.1,0,0.1,0,0.2,0.1c0.2,0.3,0.4,0.5,0.6,0.8c0.1,0.1,0.2,0.2,0.3,0.3l0.3,0.2l0,0l0,0l0.1-0.1c0-0.1,0-0.2,0-0.3
		c0-0.1-0.1-0.2-0.1-0.2L17,56.1z"/>
	<path class="st1" d="M17.4,56.6L17.4,56.6L17.4,56.6c-0.1,0.2-0.1,0.4-0.2,0.6l0,0l0,0c0.3,0.1,0.5,0.2,0.8,0.3l0,0c0,0,0,0,0.1,0
		l0.1-0.2l0.1-0.1c0,0,0-0.1,0-0.1C17.9,56.9,17.7,56.8,17.4,56.6z"/>
	<path class="st1" d="M18.9,56.6c-0.2-0.1-0.4-0.2-0.6-0.3c-0.3-0.2-0.6-0.4-0.8-0.7c-0.3-0.3-0.5-0.7-0.7-1.2c0,0,0,0,0-0.1l0,0
		h0.1c0.1,0,0.1,0,0.2,0.1c0.1,0.4,0.3,0.7,0.6,1c0.2,0.2,0.5,0.5,0.7,0.6c0.2,0.1,0.4,0.2,0.6,0.3l0,0l0,0l0,0v-0.2l0,0
		c0-0.2-0.2-0.4-0.3-0.5c-0.3-0.2-0.5-0.3-0.7-0.6c-0.3-0.3-0.5-0.7-0.6-1.1 M17.5,54.1C17.5,54.1,17.5,54.1,17.5,54.1L17.5,54.1
		c0.1,0,0.2,0.1,0.2,0.1c0,0.2,0.1,0.3,0.2,0.5c0.1,0.2,0.2,0.3,0.3,0.4c0.2,0.2,0.4,0.4,0.7,0.5l0,0l0,0c-0.1-0.5-0.2-0.9-0.4-1.4
		c-0.1-0.3-0.2-0.5-0.4-0.7c-0.2-0.2-0.4-0.4-0.6-0.6c0,0-0.1,0-0.1,0c0,0-0.1,0-0.1,0c-0.1,0.1-0.3,0.2-0.5,0.3
		c-0.2,0.1-0.3,0.1-0.5,0.1h-0.2c0,0-0.1,0-0.1,0.1l0,0c0,0.1,0,0.1,0,0.2c0,0.9,0.3,1.8,0.9,2.6c0.6,0.6,1.3,1.1,2.1,1.3l0,0l0,0
		l0,0c0,0,0-0.1,0-0.1c0.1-0.2,0-0.5-0.2-0.6L17.5,54.1z"/>
	<path class="st1" d="M16.4,56.9v-0.1l0,0l-0.2-0.1h0v0.1l0,0C16.3,56.8,16.3,56.8,16.4,56.9L16.4,56.9z"/>
	<path class="st1" d="M16.4,51c-0.3,0-0.6,0.3-0.6,0.6c0,0.3,0.3,0.6,0.6,0.6s0.6-0.3,0.6-0.6l0,0C17,51.2,16.7,51,16.4,51z
		 M16.4,51.9c-0.2,0-0.4-0.2-0.4-0.4c0-0.2,0.1-0.3,0.3-0.4 M16.3,51.2c-0.1,0.1-0.1,0.1-0.1,0.2c0,0.2,0.1,0.3,0.3,0.3
		c0.1,0,0.1,0,0.2-0.1c0,0,0.1,0,0,0c0,0.1-0.2,0.3-0.3,0.3L16.3,51.2z"/>
	<path class="st1" d="M14.3,51c-0.3,0-0.6,0.3-0.6,0.6c0,0.3,0.3,0.6,0.6,0.6s0.6-0.3,0.6-0.6l0,0C14.9,51.2,14.7,51,14.3,51z
		 M14.3,51.9c-0.2,0-0.4-0.2-0.4-0.4c0-0.2,0.1-0.3,0.3-0.4 M14.2,51.2c0,0.1-0.1,0.1-0.1,0.2c0,0.2,0.1,0.3,0.3,0.3
		c0.1,0,0.2,0,0.2-0.1c0,0,0.1,0,0,0c0,0.2-0.2,0.3-0.4,0.3L14.2,51.2z"/>
	<path class="st1" d="M30.2,51.8c-0.2,0-0.4,0.2-0.4,0.4c0,0.1,0,0.1,0,0.2l0,0l0.3,0.7c0,0,0,0,0.1,0c0,0,0,0,0,0l0.3-0.7
		c0.1-0.2,0-0.5-0.2-0.6C30.3,51.8,30.2,51.8,30.2,51.8z"/>
	<path class="st1" d="M28.5,53.3c0-0.2-0.1-0.3-0.2-0.4h0c0,0-0.1,0-0.1,0c0,0,0,0,0,0c0,0.1,0,0.2,0,0.4c0,0.8,0.3,1.5,0.8,2.1
		c0,0,0,0,0.1,0c0,0,0-0.1,0-0.1c0,0,0,0,0,0c-0.3-0.6-0.5-1.3-0.5-1.9L28.5,53.3z"/>
	<polygon class="st1" points="29.6,58 29.6,58 29.6,58 	"/>
	<path class="st1" d="M30.5,57.4c0-0.1,0.1-0.1,0.1-0.2c0-0.1,0-0.2-0.1-0.2L30.4,57c0,0-0.1,0-0.1,0c-0.1,0.2-0.2,0.4-0.3,0.6
		c-0.1,0.2-0.3,0.2-0.5,0.2h-0.1c-0.1,0-0.2,0.1-0.2,0.1V58c0,0,0,0,0,0.1c0,0,0,0,0,0h0.1h0.1l0,0c0-0.1,0.1-0.1,0.2-0.1l0,0l0,0
		c0,0,0,0.1,0,0.1c0,0,0,0,0,0H30c0,0,0,0,0.1,0l0,0v-0.1l0-0.1c0-0.1,0.1-0.2,0.2-0.2C30.3,57.6,30.4,57.5,30.5,57.4z"/>
	<polygon class="st1" points="30.7,58 30.7,58 30.7,58 	"/>
	<path class="st1" d="M31.5,56.9C31.5,56.9,31.5,56.9,31.5,56.9C31.5,56.9,31.5,56.9,31.5,56.9c-0.2,0.2-0.3,0.4-0.4,0.6
		c-0.1,0.2-0.3,0.2-0.5,0.2h-0.2c-0.1,0-0.2,0.1-0.2,0.1l0,0v0.1c0,0,0,0.1,0,0.1c0,0,0,0,0,0h0.1c0,0,0,0,0.1,0l0,0
		c0-0.1,0.1-0.1,0.2-0.1l0,0l0,0c0,0,0,0.1,0.1,0.1h0.3h0.1h0.1c0,0,0.1,0,0.1,0l0.1,0.1l0,0h0.1h0.1l0,0v-0.1
		c0-0.1-0.1-0.1-0.1-0.1h-0.1c0,0,0,0,0-0.1c0,0,0,0,0,0l0.1-0.1c0.1-0.1,0.1-0.2,0.2-0.3l0.1-0.1c0-0.1,0-0.2-0.1-0.2L31.5,56.9z"
		/>
	<path class="st1" d="M31.8,51L31.8,51c0.1,0.1,0.1,0.1,0.2,0.2c0,0.1,0.1,0.2,0.2,0.2c0.2,0,0.3,0.1,0.5,0.2l0,0l0,0l0,0
		c0-0.3-0.1-0.5-0.2-0.8c0,0-0.1-0.1-0.1-0.1h0C32,50.8,31.8,50.8,31.8,51L31.8,51z"/>
	<path class="st1" d="M32.1,51.6L32.1,51.6c0,0.1,0,0.2-0.1,0.3c0,0.1,0,0.2,0,0.2c0.1,0.2,0.1,0.3,0.1,0.5l0,0l0,0
		c0.2-0.1,0.4-0.3,0.5-0.5c0-0.1,0-0.1,0-0.2c0-0.1-0.1-0.1-0.1-0.2C32.3,51.6,32.2,51.6,32.1,51.6L32.1,51.6z"/>
	<path class="st1" d="M30.8,50.9L30.8,50.9c0.1-0.1,0.3-0.1,0.4-0.1h0.2h0.1c0.1,0,0.1,0,0.2-0.1c0.1-0.1,0.3-0.2,0.4-0.2l0,0l0,0
		c-0.1-0.1-0.2-0.1-0.4-0.2c0,0-0.1,0-0.1-0.1h-0.2c-0.1,0-0.3,0.1-0.4,0.2C30.9,50.5,30.8,50.7,30.8,50.9L30.8,50.9L30.8,50.9z"/>
	<path class="st1" d="M29.8,50.6c0.1,0.1,0.1,0.3,0.2,0.4c0,0.2,0,0.3,0,0.5l0,0l0,0c0.1,0,0.1,0,0.2,0c0.1,0,0.1,0,0.2,0l0,0l0,0
		c0-0.2,0-0.3,0-0.5c0-0.2,0.1-0.3,0.2-0.4c0-0.1,0.1-0.1,0.1-0.2l0,0l0,0l0,0c-0.1,0.1-0.3,0.2-0.4,0.3c0,0-0.1,0-0.1,0
		c0,0-0.1,0-0.1,0c-0.1-0.1-0.2-0.2-0.4-0.3l0,0l0,0l0,0C29.7,50.5,29.7,50.5,29.8,50.6z"/>
	<path class="st1" d="M28.7,50.7c0.1,0,0.1,0.1,0.2,0.1H29h0.2c0.1,0,0.3,0,0.4,0.1l0,0l0,0c-0.1-0.1-0.1-0.3-0.3-0.4
		c-0.1-0.1-0.2-0.2-0.3-0.3h-0.2c-0.1,0-0.1,0-0.2,0c-0.1,0-0.3,0.1-0.4,0.2l0,0l0,0C28.5,50.5,28.6,50.6,28.7,50.7z"/>
	<path class="st1" d="M28.4,51.2c0-0.1,0.1-0.2,0.2-0.2l0,0l0,0c-0.1-0.1-0.3-0.2-0.5-0.2l0,0c0,0-0.1,0-0.1,0.1
		c-0.2,0.2-0.2,0.5-0.2,0.8l0,0l0,0l0,0c0.1-0.1,0.3-0.2,0.5-0.2C28.3,51.4,28.4,51.3,28.4,51.2z"/>
	<path class="st1" d="M28.4,52.7L28.4,52.7L28.4,52.7c0-0.2,0-0.3,0.1-0.5c0-0.1,0-0.2,0-0.2c-0.1-0.1-0.1-0.2-0.1-0.3l0,0l0,0
		c-0.1,0-0.3,0.1-0.4,0.2c-0.1,0-0.1,0.1-0.1,0.2c0,0.1,0,0.1,0,0.2C28,52.4,28.1,52.6,28.4,52.7L28.4,52.7z"/>
	<path class="st1" d="M31.8,56.1L31.8,56.1c-0.3-0.4-0.6-0.8-0.7-1.2c-0.2-0.5-0.3-1-0.3-1.5c0-0.1,0-0.2,0-0.2l0,0l0,0
		c0,0-0.1,0-0.1-0.1c0-0.1,0.1-0.2,0.2-0.2c0,0,0,0,0,0h0.4h0.2c0.1,0,0.2-0.1,0.2-0.2c0-0.1,0-0.3-0.1-0.4l0,0l0,0
		c-0.1,0.1-0.3,0.1-0.4,0.1c-0.1,0-0.2,0-0.3-0.1l0,0l0,0c0,0.1,0,0.1-0.1,0.2l-0.4,0.9c0,0.1-0.1,0.1-0.2,0.1c-0.1,0-0.2,0-0.2-0.1
		l-0.4-0.9c0-0.1,0-0.1-0.1-0.2l0,0l0,0c-0.1,0-0.2,0.1-0.3,0.1c-0.1,0-0.3,0-0.4-0.1l0,0l0,0c-0.1,0.1-0.1,0.3-0.1,0.4
		c0,0.1,0.1,0.2,0.2,0.2h0.2h0.4c0.1,0,0.2,0.1,0.2,0.2c0,0,0,0,0,0c0,0,0,0.1-0.1,0.1h-0.7h-0.3l0,0c0,0-0.1,0-0.1,0.1v0.2
		c0,1.1,0.4,2.1,1.2,2.8c0.2,0.2,0.5,0.4,0.8,0.6l0,0l0,0c0,0,0-0.1,0-0.1c0-0.1,0-0.2,0-0.3c0-0.1-0.1-0.2-0.1-0.2
		c-0.2-0.2-0.3-0.4-0.5-0.6c0,0,0,0,0-0.1c0,0,0,0,0-0.1c0,0,0.1,0,0.1,0c0.1,0,0.1,0,0.2,0.1c0.2,0.3,0.4,0.5,0.6,0.8
		c0.1,0.1,0.2,0.2,0.3,0.3l0.3,0.2l0,0l0,0l0.1-0.1c0-0.1,0-0.2,0-0.3c0-0.1-0.1-0.2-0.1-0.2L31.8,56.1z"/>
	<path class="st1" d="M32.2,56.6L32.2,56.6L32.2,56.6c-0.1,0.2-0.1,0.4-0.2,0.6l0,0l0,0c0.3,0.1,0.5,0.2,0.8,0.3l0,0c0,0,0,0,0.1,0
		l0.1-0.2l0.1-0.1c0,0,0-0.1,0-0.1C32.7,56.9,32.5,56.8,32.2,56.6z"/>
	<path class="st1" d="M34.1,57c0-0.2-0.2-0.4-0.4-0.5c-0.2-0.1-0.4-0.2-0.6-0.3c-0.3-0.2-0.6-0.4-0.8-0.7c-0.3-0.3-0.5-0.7-0.7-1.1
		c0,0,0,0,0-0.1l0,0h0.1c0.1,0,0.2,0,0.2,0.1c0.1,0.4,0.3,0.7,0.6,1c0.2,0.2,0.5,0.5,0.7,0.6c0.2,0.1,0.4,0.2,0.6,0.3l0,0l0,0l0,0
		v-0.2l0,0c0-0.2-0.2-0.4-0.3-0.5c-0.3-0.2-0.5-0.3-0.7-0.6c-0.3-0.3-0.5-0.7-0.6-1.1c0,0,0,0,0-0.1l0,0l0,0c0.1,0,0.2,0.1,0.2,0.1
		c0.1,0.3,0.3,0.7,0.5,0.9c0.2,0.2,0.4,0.4,0.7,0.5h0l0,0c-0.1-0.5-0.2-0.9-0.4-1.4c-0.1-0.3-0.2-0.5-0.4-0.7
		c-0.2-0.2-0.4-0.4-0.6-0.6c0.1,0,0.1-0.1,0.1-0.2c0,0-0.1,0-0.1,0C32.1,52.9,32,53,31.8,53c-0.2,0.1-0.3,0.1-0.5,0.1h-0.2
		c0,0-0.1,0-0.1,0.1l0,0c0,0.1,0,0.1,0,0.2c0,0.9,0.3,1.8,0.9,2.6c0.5,0.6,1.3,1.1,2.1,1.3l0,0l0,0l0,0C34.1,57.2,34.1,57.1,34.1,57
		z"/>
	<path class="st1" d="M31.2,56.9l0-0.1l0,0l-0.2-0.1l0,0l0,0.1l0,0C31.1,56.8,31.2,56.8,31.2,56.9L31.2,56.9z"/>
	<path class="st1" d="M31.2,51c-0.3,0-0.6,0.3-0.6,0.6c0,0.3,0.3,0.6,0.6,0.6c0.3,0,0.6-0.3,0.6-0.6l0,0C31.8,51.2,31.5,51,31.2,51z
		 M31.2,51.9c-0.2,0-0.4-0.2-0.4-0.4c0-0.2,0.1-0.3,0.3-0.4 M31.1,51.2C31,51.3,31,51.4,31,51.4c0,0.2,0.1,0.3,0.3,0.3
		c0.1,0,0.1,0,0.2-0.1 M31.6,51.7c0,0.2-0.2,0.3-0.4,0.3L31.6,51.7z"/>
	<path class="st1" d="M29.2,51c-0.3,0-0.6,0.3-0.6,0.6c0,0.3,0.3,0.6,0.6,0.6c0.3,0,0.6-0.3,0.6-0.6l0,0C29.7,51.2,29.5,51,29.2,51z
		 M29.2,51.9c-0.2,0-0.4-0.2-0.4-0.4c0-0.2,0.1-0.3,0.3-0.4 M29,51.2C29,51.3,29,51.4,29,51.4c0,0.2,0.1,0.3,0.3,0.3
		c0.1,0,0.1,0,0.2-0.1c0,0,0.1,0,0,0c0,0.1-0.2,0.3-0.3,0.3L29,51.2z"/>
	<path class="st1" d="M23.5,59.6l-9.9,9.9c0.3,0.5,0.6,1.1,1,1.6l0.4,0.5l8.6-8.6l8.6,8.6l0.3-0.5c0.4-0.5,0.7-1,1-1.6L23.5,59.6z"
		/>
	<path class="st1" d="M23.5,54.5L12.1,65.9c0.2,0.9,0.5,1.7,0.9,2.6l10.5-10.5L34,68.4c0.4-0.8,0.7-1.7,0.9-2.6L23.5,54.5z"/>
</g>
</svg>
