<?xml version="1.0" encoding="utf-8"?>
<!-- Generator: Adobe Illustrator 27.7.0, SVG Export Plug-In . SVG Version: 6.00 Build 0)  -->
<svg version="1.1" id="Layer_1" xmlns="http://www.w3.org/2000/svg" xmlns:xlink="http://www.w3.org/1999/xlink" x="0px" y="0px"
	 viewBox="0 0 252 126" style="enable-background:new 0 0 252 126;" xml:space="preserve">
<style type="text/css">
	.st0{fill:#CC0033;}
</style>
<g>
	<path class="st0" d="M190.9,89.3L190.9,89.3c-0.3,0-0.4,0-0.6,0h-0.1c-0.3,0.6-0.6,1.3-1,1.9c-0.1-0.3-0.3-0.5-0.4-0.8
		c-0.2-0.4-0.4-0.7-0.5-1.1l0,0c-0.3,0-0.4,0-0.7,0v0.1c0.4,0.8,0.9,1.6,1.4,2.5v0.6c0,0.4,0,0.7,0,1.1l0,0c0.3,0,0.4,0,0.7,0l0,0
		c0-0.4,0-0.9,0-1.3c0-0.2,0-0.3,0-0.4C189.9,90.8,190.4,90,190.9,89.3L190.9,89.3z M183.1,92.9h-0.4c0-0.2,0-0.4,0-0.5
		c0-0.3,0-0.5,0-0.8h0.4c0.4,0,0.9,0,1.4,0l0,0c0-0.2,0-0.3,0-0.4l0,0c-0.4,0-0.7,0-1.1,0h-0.6c0-0.4,0-0.8,0-1.3c0.6,0,1.3,0,1.8,0
		l0,0c0-0.2,0-0.3,0-0.4l0,0c-0.9,0-1.7,0-2.6,0l0,0c0,0.5,0,1.1,0,1.5c0,0.9,0,1.7,0,2.6l0,0c0.8,0,1.7,0,2.6,0l0,0
		c0-0.2,0-0.3,0-0.4l0,0C184.2,92.9,183.6,92.9,183.1,92.9L183.1,92.9z M176.8,90.2c0-0.4,0.4-0.5,0.8-0.5s0.7,0.1,1,0.3h0.1
		c0-0.2,0-0.4,0.1-0.5l0,0c-0.4-0.1-0.7-0.2-1.1-0.2c-0.7,0-1.5,0.4-1.5,1.2c0,1.4,2.1,1.1,2.1,2.1c0,0.5-0.4,0.6-0.9,0.6
		c-0.5,0-0.7-0.1-1.1-0.4h-0.1c0,0.2,0,0.4,0,0.5l0,0c0.4,0.2,0.8,0.3,1.2,0.3c0.8,0,1.6-0.4,1.6-1.3
		C179,90.8,176.8,91.1,176.8,90.2L176.8,90.2z M172.5,90.5c0-0.2-0.1-0.4-0.2-0.4c-0.3-0.3-0.6-0.3-0.9-0.3c-0.1,0-0.3,0-0.4,0
		c0,0.2,0,0.3,0,0.4v0.5c0,0.2,0,0.4,0,0.4c0.1,0,0.2,0,0.3,0C171.8,91.2,172.5,91.1,172.5,90.5L172.5,90.5z M172.1,91.5
		c0.4,0.6,0.9,1.3,1.4,1.8v0.1c-0.3,0-0.5,0-0.7,0l0,0c-0.2-0.4-0.4-0.6-0.6-1c-0.2-0.3-0.4-0.5-0.5-0.8c-0.2,0-0.3,0-0.4,0
		c0,0.5,0,1.2,0.1,1.7l0,0c-0.3,0-0.4,0-0.6,0l0,0c0-0.5,0-1.2,0-1.7c0-0.8,0-1.6-0.1-2.5l0,0c0.3,0,0.5,0,0.8,0h0.4
		c0.8,0,1.7,0.1,1.7,1.2C173.2,91,172.7,91.3,172.1,91.5L172.1,91.5z M165.6,92.9h-0.4c0-0.2,0-0.4,0-0.5c0-0.3,0-0.5,0-0.8h0.4
		c0.4,0,0.9,0,1.4,0l0,0c0-0.2,0-0.3,0-0.4l0,0c-0.4,0-0.7,0-1.1,0h-0.6c0-0.4,0-0.8,0-1.3c0.6,0,1.3,0,1.8,0l0,0c0-0.2,0-0.3,0-0.4
		l0,0c-0.9,0-1.7,0-2.6,0l0,0c0,0.5,0,1.1,0,1.5c0,0.9,0,1.7,0,2.6l0,0c0.8,0,1.7,0,2.6,0l0,0c0-0.2,0-0.3,0-0.4l0,0
		C166.7,92.9,166.1,92.9,165.6,92.9L165.6,92.9z M161.3,89.2c-0.3,0-0.4,0-0.7,0l0,0c0,0.7,0,1.4,0,2.1v0.4c0,0.2,0,0.6,0,0.8
		c-0.1,0.3-0.3,0.4-0.5,0.4c-0.1,0-0.3,0-0.4-0.1l0,0v0.4v0.1c0.2,0,0.3,0.1,0.4,0.1c0.8,0,1.2-0.4,1.2-1.2c0-0.5,0-1,0-1.5
		C161.3,90.2,161.3,89.7,161.3,89.2L161.3,89.2z M153.5,89.2L153.5,89.2c-0.1,0.5-0.2,1-0.3,1.5l-0.4,2.4l-0.4-2.6
		c-0.1-0.4-0.2-0.8-0.2-1.3l0,0c-0.4,0-0.6,0-1,0l0,0c-0.3,1.3-0.4,2.6-0.7,3.8c-0.3-1.3-0.5-2.6-0.7-3.8l0,0c-0.3,0-0.4,0-0.7,0
		l0,0c0.2,0.7,0.4,1.4,0.4,2.1c0.2,0.7,0.4,1.4,0.4,2.1l0,0c0.3,0,0.6,0,0.9,0l0,0c0.3-1.3,0.5-2.6,0.8-3.8l0.5,2.6
		c0.1,0.4,0.2,0.8,0.3,1.2l0,0c0.3,0,0.6,0,0.9,0l0,0c0-0.2,0.1-0.4,0.1-0.6c0.1-0.5,0.3-1.1,0.4-1.6c0.2-0.6,0.3-1.3,0.4-1.9l0,0
		C153.9,89.2,153.7,89.2,153.5,89.2L153.5,89.2z M144.5,92.9h-0.4c0-0.2,0-0.4,0-0.5c0-0.3,0-0.5,0-0.8h0.4c0.4,0,0.9,0,1.4,0l0,0
		c0-0.2,0-0.3,0-0.4l0,0c-0.4,0-0.7,0-1.1,0h-0.6c0-0.4,0-0.8,0-1.3c0.6,0,1.3,0,1.8,0l0,0c0-0.2,0-0.3,0-0.4l0,0
		c-0.9,0-1.7,0-2.6,0l0,0c0,0.5,0,1.1,0,1.5c0,0.9,0,1.7,0,2.6l0,0c0.8,0,1.7,0,2.6,0l0,0c0-0.2,0-0.3,0-0.4l0,0
		C145.6,92.9,145.1,92.9,144.5,92.9L144.5,92.9z M140.2,89.2c-0.2,0-0.4,0-0.5,0l0,0c0.1,1.2,0.1,2.4,0.1,3.5
		c-0.6-1.2-1.4-2.4-2-3.6h-0.1c-0.3,0-0.5,0-0.8,0l0,0c0,0.5,0,1.2,0,1.8c0,0.8,0,1.5,0,2.4l0,0c0.2,0,0.4,0,0.6,0l0,0
		c0-0.5,0-1-0.1-1.5l-0.1-2.1l1,1.7c0.4,0.6,0.7,1.3,1.1,1.9h0.1c0.3,0,0.5,0,0.7,0l0,0c0-0.5,0-1,0-1.5
		C140.2,91,140.2,90.1,140.2,89.2L140.2,89.2z M128.5,89.2L128.5,89.2c0,0.6,0,1.2,0,1.8v0.6c0,0.5,0,1.2,0,1.7l0,0
		c0.3,0,0.4,0,0.7,0l0,0c0-0.4,0-1,0-1.5c0-0.1,0-0.2,0-0.4c0.4,0,1,0,1.5,0l0,0c0-0.2,0-0.3,0-0.4l0,0c-0.5,0-1,0-1.5,0
		c0-0.4,0-0.9,0-1.4c0.5,0,1.2,0,1.7,0l0,0c0-0.2,0-0.4,0-0.4l0,0C130.1,89.2,129.3,89.2,128.5,89.2L128.5,89.2z M124.6,91.3
		c0-0.8-0.3-1.7-1.3-1.7s-1.3,0.9-1.3,1.7c0,0.8,0.3,1.7,1.3,1.7C124.4,93,124.6,92.1,124.6,91.3L124.6,91.3z M125.4,91.3
		c0,1.3-0.6,2.2-2,2.2c-1.4,0-2-0.9-2-2.2c0-1.3,0.6-2.3,2-2.3C124.7,89.1,125.4,90.2,125.4,91.3L125.4,91.3z M225.4,84.2
		c0.4-0.8,0.9-1.6,1.4-2.5v-0.1c-0.2,0-0.4,0-0.6,0h-0.1c-0.3,0.6-0.6,1.3-1,1.9c-0.1-0.3-0.3-0.5-0.4-0.8c-0.2-0.4-0.4-0.7-0.5-1.1
		l0,0c-0.3,0-0.4,0-0.7,0v0.1c0.4,0.8,0.9,1.6,1.4,2.5v0.6c0,0.4,0,0.7,0,1.1l0,0c0.3,0,0.4,0,0.7,0l0,0c0-0.4,0-0.9,0-1.3
		C225.4,84.5,225.4,84.4,225.4,84.2L225.4,84.2z M217.8,81.8L217.8,81.8c0,0.2,0,0.4-0.1,0.4l0,0c0.4,0,0.7,0,1.2,0
		c0,0.4,0,0.8,0,1.2c0,0.8,0,1.7,0,2.6l0,0c0.3,0,0.4,0,0.7,0l0,0c0-0.6,0-1.3,0-1.9c0-0.5,0-1.2,0-1.7c0.4,0,0.7,0,1.2,0l0,0
		c0-0.2,0-0.3,0-0.4l0,0C219.8,81.8,218.8,81.8,217.8,81.8L217.8,81.8z M214.8,81.8L214.8,81.8c-0.3,0-0.4,0-0.7,0l0,0
		c0,0.7,0.1,1.5,0.1,2.3v0.6c0,0.4,0,0.8,0,1.3l0,0c0.3,0,0.4,0,0.7,0l0,0c0-0.7-0.1-1.5-0.1-2.3C214.8,83.1,214.8,82.4,214.8,81.8
		L214.8,81.8z M208.9,82.8c0-0.4,0.4-0.5,0.8-0.5s0.7,0.1,1,0.3h0.1c0-0.2,0-0.4,0.1-0.5l0,0c-0.4-0.1-0.7-0.2-1.1-0.2
		c-0.7,0-1.5,0.4-1.5,1.2c0,1.4,2.1,1.1,2.1,2.1c0,0.5-0.4,0.6-0.9,0.6c-0.4,0-0.7-0.1-1.1-0.4h-0.1c0,0.2,0,0.4,0,0.5l0,0
		c0.4,0.2,0.8,0.3,1.2,0.3c0.8,0,1.6-0.4,1.6-1.3C211.1,83.4,208.9,83.7,208.9,82.8L208.9,82.8z M204.6,83c0-0.2-0.1-0.4-0.2-0.4
		c-0.3-0.3-0.6-0.3-0.9-0.3c-0.1,0-0.3,0-0.4,0c0,0.2,0,0.3,0,0.4v0.5c0,0.2,0,0.4,0,0.4c0.1,0,0.2,0,0.3,0
		C203.9,83.7,204.6,83.6,204.6,83L204.6,83z M204.3,84.2c0.4,0.6,0.9,1.3,1.4,1.8v0.1c-0.3,0-0.5,0-0.7,0l0,0
		c-0.2-0.4-0.4-0.6-0.6-1c-0.2-0.3-0.4-0.5-0.5-0.8c-0.2,0-0.3,0-0.4,0c0,0.5,0,1.2,0.1,1.7l0,0c-0.3,0-0.4,0-0.7,0l0,0
		c0-0.5,0-1.2,0-1.7c0-0.8,0-1.6-0.1-2.5l0,0c0.3,0,0.5,0,0.8,0h0.4c0.8,0,1.7,0.1,1.7,1.2C205.3,83.6,204.8,84,204.3,84.2
		L204.3,84.2z M197.7,85.5h-0.4c0-0.2,0-0.4,0-0.5c0-0.3,0-0.5,0-0.8h0.4c0.4,0,0.9,0,1.4,0l0,0c0-0.2,0-0.3,0-0.4l0,0
		c-0.4,0-0.7,0-1.1,0h-0.6c0-0.4,0-0.8,0-1.3c0.6,0,1.3,0,1.8,0l0,0c0-0.2,0-0.3,0-0.4l0,0c-0.9,0-1.7,0-2.6,0l0,0
		c0,0.5,0,1.1,0,1.5c0,0.9,0,1.7,0,2.6l0,0c0.8,0,1.7,0,2.6,0l0,0c0-0.2,0-0.3,0-0.4l0,0C198.8,85.5,198.3,85.5,197.7,85.5
		L197.7,85.5z M193.2,81.8L193.2,81.8c-0.2,0.6-0.4,1.3-0.5,1.9l-0.5,1.9c-0.4-1.3-0.7-2.6-1.1-3.8l0,0c-0.3,0-0.4,0-0.7,0l0,0
		c0.3,0.9,0.5,1.8,0.8,2.7c0.1,0.4,0.2,0.6,0.3,0.9c0.1,0.2,0.1,0.4,0.2,0.5l0,0c0.3,0,0.6,0,0.9,0l0,0c0.2-0.7,0.4-1.4,0.6-2.1
		c0.3-0.7,0.4-1.4,0.6-2.1l0,0C193.6,81.8,193.4,81.8,193.2,81.8L193.2,81.8z M187.5,86c0-0.7-0.1-1.5-0.1-2.3c0-0.6,0-1.3,0-1.9
		v-0.1c-0.3,0-0.4,0-0.7,0l0,0c0,0.7,0.1,1.5,0.1,2.3v0.6c0,0.4,0,0.8,0,1.3l0,0C186.9,86.1,187.2,86.1,187.5,86L187.5,86z
		 M182.5,86L182.5,86c0.3,0,0.5,0,0.8,0l0,0c0-0.5,0-1,0-1.5c0-0.9,0-1.7,0-2.6l0,0c-0.2,0-0.4,0-0.5,0l0,0c0.1,1.2,0.1,2.4,0.1,3.5
		c-0.6-1.2-1.4-2.4-2-3.6h-0.1c-0.3,0-0.5,0-0.8,0l0,0c0,0.5,0,1.2,0,1.8c0,0.8,0,1.5,0,2.4l0,0c0.2,0,0.4,0,0.6,0l0,0
		c0-0.5,0-1-0.1-1.5l-0.1-2.1l1,1.7C181.8,84.8,182.2,85.3,182.5,86L182.5,86z M176.7,84.5c0-0.3,0-0.5,0-0.9v-0.8c0-0.4,0-0.7,0-1
		l0,0c-0.2,0-0.4,0-0.5,0l0,0c0,0.7,0,1.5,0,2.3c0,0.4,0.1,1-0.4,1.3c-0.2,0.2-0.4,0.2-0.7,0.2c-0.2,0-0.4-0.1-0.6-0.2
		c-0.4-0.3-0.4-0.9-0.4-1.4c0-0.7,0-1.5,0-2.3l0,0c-0.3,0-0.4,0-0.7,0l0,0c0,0.9,0,1.7,0,2.6c0,0.2,0,0.4,0.1,0.6
		c0.2,0.7,0.9,1,1.6,1C176.2,86.1,176.7,85.6,176.7,84.5L176.7,84.5z M167.2,86c0-0.2,0-0.3,0-0.4l0,0c-0.5,0-1.1,0-1.6,0h-0.4
		c0-0.2,0-0.4,0-0.5c0-0.3,0-0.5,0-0.8h0.4c0.4,0,0.9,0,1.4,0l0,0c0-0.2,0-0.3,0-0.4l0,0c-0.4,0-0.7,0-1.1,0h-0.6c0-0.4,0-0.8,0-1.3
		c0.6,0,1.3,0,1.8,0l0,0c0-0.2,0-0.3,0-0.4l0,0c-0.9,0-1.7,0-2.6,0l0,0c0,0.5,0,1.1,0,1.5c0,0.9,0,1.7,0,2.6l0,0
		C165.4,86.1,166.2,86.1,167.2,86L167.2,86z M158.7,81.8L158.7,81.8c0,0.2,0,0.4-0.1,0.4l0,0c0.4,0,0.7,0,1.2,0c0,0.4,0,0.8,0,1.2
		c0,0.8,0,1.7,0,2.6l0,0c0.3,0,0.4,0,0.7,0l0,0c0-0.6,0-1.3,0-1.9c0-0.5,0-1.2,0-1.7c0.4,0,0.7,0,1.2,0l0,0c0-0.2,0-0.3,0-0.4l0,0
		C160.7,81.8,159.7,81.8,158.7,81.8L158.7,81.8z M155.3,84.2l-0.6-2l-0.6,2c0.2,0,0.4,0,0.6,0C154.8,84.2,155.1,84.2,155.3,84.2
		L155.3,84.2z M155.2,81.8c0.4,1.4,0.9,2.8,1.4,4.2v0.1c-0.3,0-0.4,0-0.7,0l0,0c-0.1-0.4-0.3-0.8-0.4-1.3c-0.3,0-0.5,0-0.8,0
		c-0.3,0-0.5,0-0.7,0c-0.1,0.4-0.3,0.8-0.4,1.3l0,0c-0.2,0-0.4,0-0.6,0l0,0c0.3-0.8,0.5-1.5,0.8-2.4c0.2-0.6,0.4-1.2,0.6-1.8h0.1
		C154.6,81.8,154.9,81.8,155.2,81.8L155.2,81.8z M148.9,83.5c0,0.8,0,1.7,0,2.6l0,0c0.3,0,0.4,0,0.7,0l0,0c0-0.6,0-1.3,0-1.9
		c0-0.5,0-1.2,0-1.7c0.4,0,0.7,0,1.2,0l0,0c0-0.2,0-0.3,0-0.4l0,0c-1,0-2,0-3,0l0,0c0,0.2,0,0.3,0,0.4l0,0c0.4,0,0.7,0,1.2,0
		C148.9,82.7,148.9,83.1,148.9,83.5L148.9,83.5z M145.2,84.9c0-1.5-2.2-1.2-2.2-2c0-0.4,0.4-0.5,0.8-0.5s0.7,0.1,1,0.3h0.1
		c0-0.2,0-0.4,0.1-0.5l0,0c-0.4-0.1-0.7-0.2-1.1-0.2c-0.7,0-1.5,0.4-1.5,1.2c0,1.4,2.1,1.1,2.1,2.1c0,0.5-0.4,0.6-0.9,0.6
		c-0.4,0-0.7-0.1-1.1-0.4h-0.1c0,0.2,0,0.4,0,0.5l0,0c0.4,0.2,0.8,0.3,1.2,0.3C144.3,86.1,145.2,85.7,145.2,84.9L145.2,84.9z
		 M134.7,85.5h-0.4c0-0.2,0-0.4,0-0.5c0-0.3,0-0.5,0-0.8h0.4c0.4,0,0.9,0,1.4,0l0,0c0-0.2,0-0.3,0-0.4l0,0c-0.4,0-0.7,0-1.1,0h-0.6
		c0-0.4,0-0.8,0-1.3c0.6,0,1.3,0,1.8,0l0,0c0-0.2,0-0.3,0-0.4l0,0c-0.9,0-1.7,0-2.6,0l0,0c0,0.5,0,1.1,0,1.5c0,0.9,0,1.7,0,2.6l0,0
		c0.8,0,1.7,0,2.6,0l0,0c0-0.2,0-0.3,0-0.4l0,0C135.7,85.5,135.2,85.5,134.7,85.5L134.7,85.5z M127.6,84c0.4,0,1,0,1.5,0
		c0.2,0,0.4,0,0.5,0v0.4c0,0.5,0,1.1,0,1.5l0,0c0.3,0,0.4,0,0.7,0l0,0c-0.1-0.5-0.1-1.2-0.1-1.7v-0.6c0-0.6,0-1.3,0-1.8l0,0
		c-0.3,0-0.4,0-0.7,0l0,0c0,0.5,0,1.1,0.1,1.6c-0.3,0-0.6,0-0.9,0h-0.4c-0.3,0-0.4,0-0.7,0v-0.2c0-0.4,0-1,0-1.5l0,0
		c-0.3,0-0.4,0-0.7,0l0,0c0.1,0.9,0,1.7,0,2.6c0,0.5,0,1,0,1.5l0,0c0.3,0,0.4,0,0.7,0l0,0c0-0.4-0.1-1-0.1-1.5v-0.5L127.6,84
		L127.6,84z M122.2,82.2c-0.4,0-0.7,0-1.2,0l0,0c0-0.2,0-0.3,0-0.4l0,0c1,0,2,0,3,0l0,0c0,0.2,0,0.3,0,0.4l0,0c-0.4,0-0.7,0-1.2,0
		c0,0.5,0,1.2,0,1.7c0,0.6,0,1.3,0,1.9l0,0c-0.3,0-0.4,0-0.7,0l0,0c0-0.8,0-1.7,0-2.6C122.2,83.1,122.2,82.7,122.2,82.2L122.2,82.2z
		"/>
	<path class="st0" d="M23.4,32.4v32.8v0.4c0.2,5.3,2,9.9,5.3,13.6c6,6.8,15.2,8.6,16.2,8.7c0.1,0,0.1,0,0.2,0h0.2h0.2l0,0
		c0.6-0.1,10.1-1.6,16.4-8.8c1.5-1.6,2.6-3.5,3.5-5.4c1.2-2.6,1.7-5.6,1.8-8.7V32.4H23.4z M65.6,33.5L53.5,46.7l-0.3-0.2l5.9-13
		L65.6,33.5L65.6,33.5z M58.2,33.5L51,45.3l-0.4-0.1l2.8-11.7H58.2z M48.4,33.5h3.9l-4,10.9H48L48.4,33.5z M47.2,33.5l-1.7,10.7
		h-0.3l-1.6-10.7H47.2z M42.3,33.5l0.4,10.8l-0.3,0.1l-4-10.9H42.3z M37.2,33.5L40,45.2l-0.3,0.1l-7.2-11.8H37.2z M31.5,33.5l6,13
		l-0.3,0.2L25,33.5H31.5z M66.2,40.9l-8.6,6.3h3.3l5.3-4.9v23v0.5c-0.1,2.8-0.7,5.4-1.7,7.8c-0.8,1.8-1.9,3.6-3.3,5.1
		C55,85.5,45.7,87,45.4,87.1l0,0l0,0l0,0h-0.1c-1-0.2-9.9-1.8-15.6-8.3c-3.2-3.7-4.9-8.1-5-13.3V42.2l5.3,4.9h3.3l-8.8-6.2v-7.3
		l10,13.6h21.9l9.9-13.7C66.2,33.5,66.2,40.9,66.2,40.9z M25.7,65.3v0.4c0.2,4.8,1.7,8.8,4.8,12c4.8,5.4,11.9,7.3,14.1,7.8V48.4
		H25.7C25.7,48.4,25.7,65.3,25.7,65.3z M31.7,69.7h-1.8v-0.2h0.4h0.1c0.2,0,0.2-0.1,0.2-0.4v-1.8c0-0.5,0-0.5-0.2-0.5
		c-0.1,0-0.1,0-0.2,0l-0.4,0.1v-0.2h0.1c0.3-0.1,1.1-0.4,1.2-0.4l0.1,0.1v2.7c0,0.4,0,0.5,0.3,0.5h0.4v0.1L31.7,69.7L31.7,69.7z
		 M40.2,64.6V65h-9.9v-0.4H40.2z M30.3,64.2v-0.4h9.9v0.4H30.3z M34.9,66.4c-0.2,0.4-0.4,0.8-0.9,1.9c-0.3,0.6-0.4,0.7-0.5,1.5h-0.1
		l-0.1-0.1c-0.2-0.1-0.3-0.2-0.4-0.4c0.1-0.4,0.7-1.1,1.2-1.8c0.3-0.4,0.3-0.6,0.4-0.8h-1.2c-0.4,0-0.4,0-0.6,0.4h-0.2v-0.2
		c0-0.3,0.1-0.4,0.2-0.7h2.2l0.1,0.1L34.9,66.4z M36.6,69.7c-0.6,0-1.2-0.4-1.2-1.5c0-1.5,1-2.1,1.8-2.1c0.3,0,0.4,0.1,0.5,0.1v0.2
		h-0.1c-0.1,0-0.2,0-0.3,0c-0.7,0-1.3,0.6-1.3,1.8c0,0.8,0.2,1.4,0.6,1.4c0.4,0,0.4-0.4,0.4-0.7c0-0.5-0.3-1-0.7-1
		c-0.1,0-0.1,0-0.2,0v-0.1h0.1c0.1-0.1,0.3-0.2,0.5-0.2c0.4,0,0.8,0.4,0.8,0.9C37.8,69.3,37.2,69.7,36.6,69.7z M39.6,69.7
		c-0.6,0-1.2-0.4-1.2-1.5c0-1.5,1-2.1,1.8-2.1c0.3,0,0.4,0.1,0.5,0.1v0.2h-0.1c-0.1,0-0.2,0-0.3,0c-0.7,0-1.3,0.6-1.3,1.8
		c0,0.8,0.2,1.4,0.6,1.4c0.4,0,0.4-0.4,0.4-0.7c0-0.5-0.3-1-0.7-1c-0.1,0-0.1,0-0.2,0v-0.1h0.1c0.1-0.1,0.3-0.2,0.5-0.2
		c0.4,0,0.8,0.4,0.8,0.9C40.8,69.3,40.2,69.7,39.6,69.7z M35.2,53.3c0.4,0,0.8,0.4,0.8,0.8c0,0.4-0.4,0.8-0.8,0.8s-0.8-0.4-0.8-0.8
		C34.4,53.7,34.8,53.3,35.2,53.3z M31.3,55.7c0.4,0,0.7,0.1,1,0.2c0.1,0,0.1,0.1,0.2,0.1c0.4,0.2,0.8,0.3,1.2,0.3l0,0h0.1h0.1
		c0.4,0,0.9-0.3,1.1-0.7h0.5c0.2,0.4,0.6,0.7,1.1,0.7h0.1l0,0H37c0.3,0,0.6-0.1,0.9-0.2c0.1-0.1,0.2-0.1,0.3-0.2
		c0.3-0.1,0.6-0.2,0.9-0.2c1.4,0,2.5,1.1,2.5,2.5c0,0.6-0.4,1.3-0.9,1.9l0,0c-0.4,0.4-0.5,0.8-0.6,1.4c0,0.1,0,0.2,0,0.3V62v0.2
		c0,0.3,0.1,0.4,0.2,0.7v0.6h-9.9V63l0.1-0.2c0.1-0.3,0.2-0.5,0.2-0.8c0-0.2,0-0.3,0-0.4c-0.1-0.5-0.3-1-0.6-1.4c0,0,0,0,0-0.1
		c-0.5-0.6-0.9-1.3-0.9-1.9C28.8,56.8,29.9,55.7,31.3,55.7z M45.9,85.5H46c2.4-0.5,9.3-2.5,14.1-7.8c3-3.4,4.5-7.6,4.8-12.5V48.4
		H45.9L45.9,85.5L45.9,85.5z M52.7,68.7l-0.7-0.4l-0.7,0.4l0.2-0.8l-0.6-0.5l0.8-0.1l0.4-0.7l0.4,0.7l0.8,0.1l-0.5,0.5L52.7,68.7z
		 M59.7,68.7l-0.7-0.4l-0.7,0.4l0.2-0.8l-0.5-0.5l0.8-0.1l0.4-0.7l0.4,0.7l0.8,0.1l-0.5,0.5L59.7,68.7z M55.7,56.4l0.2-0.1
		c0.1-0.1,0.3-0.2,0.4-0.3c0.3-0.2,0.8-0.3,1.5-0.3c0.3,0,0.6,0,1,0.1c0.1,0,0.3,0,0.4,0.1c0.4,0,1,0,1.5-0.2l0.2-0.1v0.4l0.3-0.1
		l0.3-0.1l0.3-0.1v0.4l0.3-0.1l0.3-0.1l0.3-0.1v9h-0.1l-0.3,0.1c-1.3,0.4-2.4,0.6-3.3,0.4c-1-0.2-1.8-0.1-2.5,0.3h-0.5v-9.5
		L55.7,56.4L55.7,56.4z M55.8,68.2l0.8,0.1L56,68.9l0.2,0.8l-0.7-0.4l-0.7,0.4l0.2-0.8l-0.5-0.5l0.8-0.1l0.4-0.7L55.8,68.2z
		 M48.5,56l0.3,0.1l0.3,0.1l0.3,0.1v-0.4l0.3,0.1l0.3,0.1l0.3,0.1v-0.4l0.2,0.1l0.3,0.1c0.4,0.1,0.9,0.1,1.3,0.1
		c0.2,0,0.3,0,0.4-0.1c0.4-0.1,0.6-0.1,1-0.1c0.6,0,1.2,0.2,1.5,0.3c0.2,0.1,0.4,0.2,0.6,0.4v9.6h-0.5L54.7,66
		c-0.6-0.3-1.4-0.4-2.3-0.2c-0.9,0.2-2.1,0-3.6-0.5h-0.1v-9.1h-0.2V56z M56.1,65.5l-0.2,0.1v-0.4H56c0,0,0,0,0.1,0
		c0.6-0.4,1.5-0.5,2.6-0.4c0.7,0.1,1.5,0.1,2.6-0.2l0.3-0.1h0.1v-7.9c0.1,0,0.3-0.1,0.4-0.1v8.3c-1.3,0.4-2.5,0.6-3.3,0.4
		C57.7,65.1,56.9,65.2,56.1,65.5z M49.2,64.9l-0.3-0.1l0.2-8.2l0.2,0.1v7.9h0.1c1.1,0.4,2.1,0.4,2.8,0.3c1-0.2,1.8-0.1,2.6,0.4l0,0
		l0,0h0.1v0.4c-0.7-0.4-1.6-0.5-2.7-0.4C51.4,65.4,50.4,65.3,49.2,64.9z M56.1,64.8l-0.2,0.1v-0.4l0.1-0.1c0.2-0.1,0.6-0.4,1.5-0.4
		h0.1c0.1,0,0.2,0,0.2,0c0.2,0,0.4,0,0.6,0.1c0.5,0.1,1.2,0.1,1.8-0.1l0.3-0.1h0.2v-7.6c0.1,0,0.3-0.1,0.4-0.1v8.1
		c-1,0.3-1.8,0.4-2.6,0.3C57.7,64.4,56.9,64.5,56.1,64.8z M49.9,64.4h-0.3l0.2-7.9H50V64h0.2c0.8,0.2,1.5,0.2,2.1,0.1
		c0.3,0,0.4-0.1,0.6-0.1c0.1,0,0.2,0,0.2,0h0.1c0.8,0,1.3,0.3,1.5,0.4h0.1l0.1,0.1v0.4c-0.7-0.4-1.6-0.5-2.7-0.4
		C51.6,64.7,50.8,64.6,49.9,64.4z M53.2,62.4c0.3,0,0.5,0,0.8,0.1l0.2,0.1v0.4c-0.4-0.2-0.7-0.2-1-0.2c-0.2,0-0.4,0-0.5,0.1
		c-0.2,0-0.4,0.1-0.6,0.1s-0.4,0-0.7,0H51v-0.5c0.4,0.1,0.6,0.1,1,0.1c0.2,0,0.4-0.1,0.5-0.1C52.8,62.5,52.9,62.4,53.2,62.4z
		 M56.9,63l-0.2,0.1v-0.4c0.4-0.1,0.7-0.2,1-0.2s0.4,0,0.6,0.1c0.2,0,0.3,0.1,0.5,0.1s0.4,0,0.7,0h0.3v0.4c-0.4,0.1-0.6,0.1-1,0.1
		c-0.3,0-0.4-0.1-0.6-0.1c-0.2,0-0.4-0.1-0.5-0.1C57.4,62.9,57.1,62.9,56.9,63z M31.5,61.7h1.2v1.2h-1.2V61.7z M33.6,61.7h1.2v0.1
		v1.1h-1.2V61.7z M37.8,61.7H39v1.2h-1.2V61.7z M36.9,62.8h-1.2v-1.2h1.2V62.8z M56.9,61.9L56.7,62v-0.4c0.4-0.1,0.7-0.2,1-0.2
		s0.4,0,0.6,0.1c0.2,0,0.3,0.1,0.5,0.1s0.4,0,0.7,0h0.3V62c-0.4,0.1-0.6,0.1-1,0.1c-0.3,0-0.4-0.1-0.6-0.1c-0.2,0-0.4-0.1-0.5-0.1
		C57.4,61.7,57.1,61.8,56.9,61.9z M54.2,62c-0.4-0.2-0.7-0.2-1-0.2c-0.2,0-0.4,0-0.5,0.1c-0.2,0-0.4,0.1-0.6,0.1c-0.3,0-0.4,0-0.7,0
		H51v-0.4c0.4,0.1,0.6,0.1,1,0.1c0.2,0,0.4-0.1,0.5-0.1s0.4-0.1,0.6-0.1s0.5,0,0.8,0.1l0.2,0.1C54.2,61.6,54.2,62,54.2,62z
		 M30.6,59.3c-0.5-0.6-0.6-0.8-0.6-1.3c0-0.7,0.6-1.4,1.4-1.4c0.2,0,0.4,0,0.5,0.1c0.1,0,0.1,0.1,0.2,0.1c0.5,0.3,1.1,0.4,1.6,0.4
		c0,0,0,0,0.1,0c0.1,0,0.1,0,0.1,0c0.2,0,0.4,0,0.5-0.1l0.2-0.1l0.1-0.1v3.8h-3.3v-0.1C31.2,60.2,30.9,59.8,30.6,59.3z M39.1,60.9
		h-3.3v-3.8l0.1,0.1c0.3,0.1,0.4,0.2,0.7,0.2c0.1,0,0.1,0,0.2,0c0,0,0,0,0.1,0c0.4,0,0.9-0.1,1.4-0.3l0.2-0.1l0.1-0.1
		c0.1,0,0.1-0.1,0.2-0.1c0.2-0.1,0.4-0.1,0.5-0.1c0.7,0,1.4,0.6,1.4,1.4c0,0.4-0.6,1.2-0.6,1.3c-0.4,0.4-0.5,0.8-0.7,1.2L39.1,60.9
		L39.1,60.9z M56.9,60.8l-0.2,0.1v-0.5c0.4-0.1,0.7-0.2,1-0.2s0.4,0,0.6,0.1c0.2,0,0.3,0.1,0.5,0.1s0.4,0,0.7,0h0.3v0.3
		c-0.4,0.1-0.6,0.1-1,0.1c-0.3,0-0.4-0.1-0.6-0.1c-0.2,0-0.4-0.1-0.5-0.1C57.4,60.6,57.1,60.7,56.9,60.8z M54.2,60.9
		c-0.4-0.2-0.7-0.2-1-0.2c-0.2,0-0.4,0-0.5,0.1c-0.2,0-0.4,0.1-0.6,0.1c-0.3,0-0.4,0-0.7,0H51v-0.5c0.4,0.1,0.6,0.1,1,0.1
		c0.2,0,0.4-0.1,0.5-0.1s0.4-0.1,0.6-0.1s0.5,0,0.8,0.1l0.2,0.1C54.2,60.5,54.2,60.9,54.2,60.9z M56.9,59.6l-0.2,0.1v-0.4
		c0.4-0.1,0.7-0.2,1-0.2s0.4,0,0.6,0.1c0.2,0,0.3,0.1,0.5,0.1s0.4,0,0.7,0h0.3v0.4c-0.4,0.1-0.6,0.1-1,0.1c-0.3,0-0.4-0.1-0.6-0.1
		c-0.2,0-0.4-0.1-0.5-0.1C57.4,59.5,57.1,59.5,56.9,59.6z M51.3,59.6H51v-0.4c0.4,0.1,0.6,0.1,1,0.1c0.2,0,0.4-0.1,0.5-0.1
		s0.4-0.1,0.6-0.1s0.5,0,0.8,0.1l0.2,0.1v0.4c-0.4-0.2-0.7-0.2-1-0.2c-0.2,0-0.4,0-0.5,0.1c-0.2,0-0.4,0.1-0.6,0.1
		C51.8,59.7,51.6,59.7,51.3,59.6z M51.3,58.5H51v-0.4c0.4,0.1,0.6,0.1,1,0.1c0.2,0,0.4-0.1,0.5-0.1s0.4-0.1,0.6-0.1s0.5,0,0.8,0.1
		l0.2,0.1v0.4c-0.4-0.2-0.7-0.2-1-0.2c-0.2,0-0.4,0-0.5,0.1c-0.2,0-0.4,0.1-0.6,0.1C51.8,58.6,51.6,58.5,51.3,58.5z M56.9,58.5
		l-0.2,0.1v-0.4c0.4-0.1,0.7-0.2,1-0.2s0.4,0,0.6,0.1c0.2,0,0.3,0.1,0.5,0.1s0.4,0,0.7,0h0.3v0.4c-0.4,0.1-0.6,0.1-1,0.1
		c-0.3,0-0.4-0.1-0.6-0.1c-0.2,0-0.4-0.1-0.5-0.1C57.4,58.3,57.1,58.4,56.9,58.5z M56.9,57.4l-0.2,0.1v-0.4c0.4-0.1,0.7-0.2,1-0.2
		s0.4,0,0.6,0.1c0.2,0,0.3,0.1,0.5,0.1s0.4,0,0.7,0h0.3v0.4c-0.4,0.1-0.6,0.1-1,0.1c-0.3,0-0.4-0.1-0.6-0.1c-0.2,0-0.4-0.1-0.5-0.1
		C57.4,57.2,57.1,57.3,56.9,57.4z M51.3,57.4H51V57c0.4,0.1,0.6,0.1,1,0.1c0.2,0,0.4-0.1,0.5-0.1s0.4-0.1,0.6-0.1s0.5,0,0.8,0.1
		l0.2,0.1v0.4c-0.4-0.2-0.7-0.2-1-0.2c-0.2,0-0.4,0-0.5,0.1c-0.2,0-0.4,0.1-0.6,0.1C51.8,57.4,51.6,57.4,51.3,57.4z"/>
	<path class="st0" d="M98.5,65.3c-1.2-2.1-4.3-7.8-4.7-10c0,0,0-0.2,0-0.3c2.8-1.4,5.1-3.6,5.1-6.9c-0.1-8.4-8.1-7.6-14.1-7.6h-6.7
		v0.6l1.5,0.1c0.8,0.1,1.4,0.2,1.5,1c0.3,1,0.2,3.7,0.2,4.8v14.9c0,1.1,0.1,3.7-0.2,4.8c-0.3,0.8-0.7,0.9-1.5,1L78.1,68v0.6h10V68
		l-1.5-0.1c-0.8-0.1-1.4-0.2-1.5-1c-0.3-1-0.2-3.7-0.2-4.8v-5.8c0.7,0,2,0,2.5,0c0.7,0,1.7,0,2.5,0.4c0.4,0.3,0.9,0.7,1.2,1.5
		c1.4,2.7,2.8,5.7,4.4,8.4C99.2,73,105.7,81,113,80.8h0.9V80h-0.6C108.1,80.2,101.2,70.3,98.5,65.3z M88.1,55.3
		c-1.1,0-2.2,0.1-3.3,0V42.1c0.9-0.2,1.8-0.4,2.8-0.4c4.7,0,7.2,2.7,7.2,7.2C94.9,53.1,92.3,55.3,88.1,55.3z M117.8,45.6h8.6v0.7
		l-1.3,0.1c-1.4,0.2-1.4,0.3-1.4,4.3v17.9l-1.1,0.3l-0.9-1c-0.4-0.4-0.7-1-1.3-1c-0.4,0-3.4,2.2-8.1,2.2c-7.3,0-7.8-4.1-7.8-8.9v-10
		c0-3.5-0.1-3.7-1.4-3.8l-1.3-0.1v-0.7h8.6v0.7l-1.3,0.1c-1.3,0.1-1.4,0.3-1.4,3.8v9.4c0,5,0.8,8.3,6.3,8.3c3.7,0,5.8-2.2,6.4-2.8
		V50.5c0-3.7-0.1-3.9-1.4-4l-1.3-0.1v-0.8H117.8z M161.7,59.5h8.9v0.7l-1.3,0.1c-0.6,0.1-0.6,0.3-0.6,3.2V64c0,1,0.1,3.7,0.1,3.7
		c-1.3,0.4-3.9,1.4-7.7,1.4c-7,0-13.4-3.1-13.4-11.9c0-9.3,7.6-12,13.1-12c3.6,0,6.3,0.9,7.2,1.5c0.2,1.5,0.4,3.5,0.5,5.2l-0.9,0.2
		c-0.4-1.4-0.8-5.6-6.8-5.6c-5.7,0-9.4,3.7-9.4,10.3c0,5.9,3,11.5,10,11.5c1.3,0,2.9-0.2,4.1-0.4v-3.1c0-3.8-0.1-3.9-2.5-4.1
		l-1.3-0.1v-0.8L161.7,59.5L161.7,59.5z M228.6,62.7c0,4.8-4.4,6.5-8.1,6.5c-2.7,0-4.5-0.7-5.5-1.4c-0.4-1.3-0.7-3.7-1.1-6.1
		l1.1-0.3c0.4,2.6,1.6,6.7,6.5,6.7c2.5,0,4.2-1.5,4.2-4.3c0-2.6-2.1-4.3-4.9-5.5l-2.2-1.3c-2-1.1-3.8-3.3-3.8-5.8c0-4.3,3.6-6,7.3-6
		c2.2,0,3.9,0.5,4.8,1.1c0.2,1.3,0.3,3.8,0.4,4.8h-0.9c-0.4-1.7-0.9-4.8-4.8-4.8c-2,0-3.8,1.5-3.8,3.8c0,2.1,1.5,3.2,3.4,4.3
		l1.9,1.1C225.7,57.1,228.6,58.5,228.6,62.7z M207.7,62.4c-0.9-1.6-2.1-3.9-2.6-4.9c1.9-0.9,4.8-2.8,4.8-6.1c0-5.3-4.8-5.7-8-5.7
		h-9.1v0.7l1.3,0.1c1.3,0.1,1.4,0.3,1.4,3.8V64c0,3.6-0.1,3.7-1.4,3.8l-1.3,0.1v0.7h8.5v-0.7l-1.3-0.1c-1.3-0.1-1.4-0.3-1.4-3.8
		v-5.4h1.5c0.7,0,1.5,0,2,0.4c0.4,0.4,1.3,1.7,2.2,3.4l1.4,2.6c1.1,1.9,2.6,3.5,5,3.5h2.7v-0.7c-0.7,0-1.4-0.1-1.7-0.4
		C210.7,67.1,209.2,65,207.7,62.4z M200.6,57.7h-2V47.1c0.7-0.2,1.5-0.3,2.2-0.3c2.7,0,5.5,1.3,5.5,5.3
		C206.3,56,203.6,57.7,200.6,57.7z M189.1,62.7l0.9,0.2c-0.3,2.2-0.7,3.9-1.2,5.7h-16v-0.7l1.3-0.1c1.3-0.1,1.4-0.3,1.4-3.8V50.3
		c0-3.6-0.1-3.7-1.4-3.8l-1.3-0.1v-0.7H188c0.2,0.7,0.3,4.8,0.3,5.1l-0.8,0.2c-0.7-3.7-0.8-4.3-5.8-4.3h-2.9v9.6h3.4
		c2.6,0,3.1-0.1,3.4-1.5l0.2-1.2h0.9v6.3h-0.9l-0.2-1.2c-0.2-1.5-0.8-1.5-3.6-1.5h-3.1v10.1c1.3,0.3,2.6,0.4,3.8,0.4
		C188,67.7,188.4,65.6,189.1,62.7z M146.7,45.6c0.2,0.7,0.3,5.4,0.3,5.6h-0.8c-0.7-4-0.8-4.5-5.8-4.5h-1.8v17.1c0,3.7,0.1,3.9,2,4.1
		l1.3,0.1v0.7H132v-0.7l1.3-0.1c1.8-0.1,1.9-0.3,1.9-3.8V46.7h-2.1c-4.8,0-4.8,0.6-5.6,4.5h-0.8c0-0.2,0.2-4.8,0.3-5.6H146.7z"/>
</g>
</svg>
