<?xml version="1.0" encoding="utf-8"?>
<!-- Generator: Adobe Illustrator 27.7.0, SVG Export Plug-In . SVG Version: 6.00 Build 0)  -->
<svg version="1.1" id="Layer_1" xmlns="http://www.w3.org/2000/svg" xmlns:xlink="http://www.w3.org/1999/xlink" x="0px" y="0px"
	 viewBox="0 0 252 126" style="enable-background:new 0 0 252 126;" xml:space="preserve">
<style type="text/css">
	.st0{fill:#E6142D;}
</style>
<g>
	<path class="st0" d="M13.2,71.6c0,0,3.8,3.7,8.8,3.7c2.7,0,5.1-1.4,5.1-4.3c0-6.3-16.6-5.2-16.6-16c0-5.9,5.1-10.2,11.8-10.2
		c7,0,10.5,3.8,10.5,3.8l-2.8,5.2c0,0-3.4-3.1-7.8-3.1c-3,0-5.3,1.7-5.3,4.2c0,6.3,16.6,4.7,16.6,16c0,5.6-4.3,10.3-11.6,10.3
		c-7.8,0-12.2-4.8-12.2-4.8L13.2,71.6z"/>
	<path class="st0" d="M48.4,57.3c5.9,0,8.8,3.4,8.8,3.4l-2.5,3.9c0,0-2.4-2.5-5.9-2.5c-4.2,0-6.9,3.2-6.9,7.1c0,3.8,2.8,7.2,7.1,7.2
		c3.8,0,6.7-2.9,6.7-2.9l2.2,4c0,0-3.3,3.7-9.4,3.7c-7.6,0-12.4-5.3-12.4-11.9C36,62.7,40.8,57.3,48.4,57.3"/>
	<path class="st0" d="M61.1,48.8h5.6v5.1h-5.6V48.8z M61.1,57.8h5.7v22.8h-5.7V57.8z"/>
	<path class="st0" d="M82.2,57.3c6.6,0,10.1,4.8,10.1,10.8c0,0.7-0.1,2.2-0.1,2.2H76.4c0.4,4,3.4,6,6.8,6c3.7,0,6.6-2.5,6.6-2.5
		l2.2,4.1c0,0-3.5,3.3-9.2,3.3c-7.6,0-12.3-5.5-12.3-11.9C70.6,62.2,75.4,57.3,82.2,57.3 M86.6,66.4c-0.1-3.1-2-4.8-4.5-4.8
		c-2.9,0-4.9,1.8-5.5,4.8H86.6z"/>
	<path class="st0" d="M96.1,57.8h5.5v2.6c0,0.8-0.1,1.6-0.1,1.6h0.1c1-1.9,3.5-4.8,8.1-4.8c5.1,0,7.9,2.6,7.9,8.7v14.7H112V67.1
		c0-2.8-0.7-4.7-3.6-4.7c-3,0-5.3,1.9-6.1,4.7c-0.3,0.9-0.4,2-0.4,3v10.5h-5.7L96.1,57.8L96.1,57.8z"/>
	<path class="st0" d="M133.4,57.3c5.9,0,8.8,3.4,8.8,3.4l-2.5,3.9c0,0-2.4-2.5-5.9-2.5c-4.2,0-6.9,3.2-6.9,7.1
		c0,3.8,2.8,7.2,7.1,7.2c3.9,0,6.7-2.9,6.7-2.9l2.2,4c0,0-3.3,3.7-9.4,3.7c-7.6,0-12.4-5.3-12.4-11.9
		C121,62.7,125.8,57.3,133.4,57.3"/>
	<path class="st0" d="M156.2,57.3c6.6,0,10.1,4.8,10.1,10.8c0,0.7-0.1,2.2-0.1,2.2h-15.8c0.4,4,3.4,6,6.9,6c3.7,0,6.6-2.5,6.6-2.5
		l2.2,4.1c0,0-3.5,3.3-9.2,3.3c-7.6,0-12.3-5.5-12.3-11.9C144.6,62.2,149.3,57.3,156.2,57.3 M160.5,66.4c-0.1-3.1-2-4.8-4.5-4.8
		c-2.9,0-4.9,1.8-5.5,4.8H160.5z"/>
	<path class="st0" d="M171.6,73.8c0,0,2.5,2.5,6.2,2.5c1.6,0,3-0.7,3-2.1c0-3.4-11.1-3-11.1-10.3c0-4.2,3.8-6.7,8.7-6.7
		c5.1,0,7.7,2.6,7.7,2.6l-2.1,4.2c0,0-2.1-2-5.6-2c-1.5,0-2.9,0.6-2.9,2.1c0,3.2,11.1,2.8,11.1,10.2c0,3.8-3.3,6.8-8.7,6.8
		c-5.7,0-8.9-3.4-8.9-3.4L171.6,73.8z"/>
	<path class="st0" d="M191.7,45.4h13.6c6.6,0,11.2,4.6,11.2,11.5s-4.6,11.6-11.2,11.6h-7.2v12.2h-6.4V45.4z M204.1,62.9
		c3.7,0,5.9-2.4,5.9-6.1c0-3.6-2.2-6-5.8-6h-6.1v12H204.1z"/>
	<path class="st0" d="M229.7,57.3c7,0,12.6,5,12.6,12c0,7-5.6,11.9-12.5,11.9c-7,0-12.6-4.9-12.6-11.9
		C217.1,62.2,222.7,57.3,229.7,57.3 M229.7,76.3c3.7,0,6.8-2.9,6.8-7.1c0-4.2-3.1-7.1-6.8-7.1c-3.7,0-6.8,2.9-6.8,7.1
		C222.9,73.5,226,76.3,229.7,76.3"/>
</g>
</svg>
