<svg width="64" height="64" viewBox="0 0 64 64" fill="none" xmlns="http://www.w3.org/2000/svg">
<rect width="64" height="64" rx="32" fill="white"/>
<path d="M30.4015 23.4653C29.4055 23.4653 28.4429 23.6107 27.5323 23.88C27.6603 24.2546 27.7309 24.6533 27.7309 25.0679C27.7309 27.1159 26.0457 28.7986 23.9989 28.7986C23.2123 28.7986 22.4803 28.5493 21.8763 28.1266C21.067 29.3852 20.527 30.8319 20.3403 32.3877L30.9319 42.9766V42.1339C30.9319 40.7593 31.9079 39.55 33.2705 39.2833C34.0372 39.134 35.1212 38.9286 36.2664 38.7526V25.3438C35.8051 25.0011 35.2998 24.7291 34.7905 24.4665C34.2158 24.3638 33.6852 24.2651 33.2625 24.1825C32.7932 24.0905 32.3745 23.8812 32.0226 23.5972C31.4946 23.5118 30.9533 23.4665 30.4013 23.4665L30.4015 23.4653Z" fill="#151419"/>
<path d="M20.2751 33.8317C20.3178 35.4583 20.7444 37.0436 21.5271 38.4607C21.7084 38.79 21.6577 39.326 21.4244 39.5594L16.622 44.3618C15.7927 45.1911 15.7927 46.5484 16.622 47.3777C17.4513 48.207 18.8099 48.207 19.6379 47.3777L24.4403 42.5753C24.6736 42.3419 25.2096 42.2913 25.5376 42.4726C26.9535 43.2552 28.5402 43.6806 30.1666 43.7232L20.2737 33.8303L20.2751 33.8317Z" fill="#151419"/>
<path d="M23.999 22.4028C22.5324 22.4028 21.3337 23.6015 21.3337 25.0681C21.3337 26.5347 22.5324 27.7333 23.999 27.7333C25.4656 27.7333 26.6643 26.5347 26.6643 25.0681C26.6643 23.6015 25.4656 22.4028 23.999 22.4028Z" fill="#151419"/>
<path d="M37.3362 24.8669V38.5997C38.2695 38.4811 39.2001 38.3971 40.0014 38.3971C40.8028 38.3971 41.7334 38.4797 42.6667 38.5984V24.867C41.732 24.9856 40.8014 25.0683 40.0014 25.0683C39.2001 25.0683 38.2708 24.9869 37.3362 24.8669Z" fill="#151419"/>
<path d="M39.9988 16.0002C38.0975 16.0002 35.0789 16.5496 33.4764 16.8629C32.6165 17.0309 31.9991 17.7949 31.9991 18.6655V21.3347C31.9991 22.2027 32.6098 22.9666 33.4684 23.1346C35.0684 23.448 38.0951 24 40.0003 24C41.9016 24 44.9215 23.4506 46.5241 23.1373C47.384 22.9693 48 22.2054 48 21.3347V18.6655C48 17.7975 47.3893 17.0336 46.5307 16.8656C44.9308 16.5522 41.904 16.0002 39.9988 16.0002ZM39.9988 39.4648C38.0975 39.4648 35.0789 40.0182 33.4764 40.3315C32.6165 40.4995 31.9991 41.2635 31.9991 42.1341V45.3353C31.9991 46.2033 32.6098 46.9659 33.4684 47.1339C35.0684 47.4473 38.0951 47.9993 40.0003 47.9993C41.9016 47.9993 44.9215 47.4473 46.5241 47.1339C47.384 46.9659 48 46.2059 48 45.3353V42.1341C48 41.2661 47.3893 40.4981 46.5307 40.3315C44.9308 40.0182 41.904 39.4648 39.9988 39.4648Z" fill="#151419"/>
</svg>
