<svg width="64" height="64" viewBox="0 0 64 64" fill="none" xmlns="http://www.w3.org/2000/svg">
<rect width="64" height="64" rx="32" fill="white"/>
<path d="M15.6535 34.4681C26.2831 33.4951 36.4311 29.5801 44.9578 23.1601L45.9172 24.1681C46.069 24.3244 46.2922 24.3882 46.5047 24.3351C46.7157 24.2834 46.8827 24.1225 46.9434 23.9131L48.9791 16.6614C49.0353 16.4519 48.9761 16.2303 48.8258 16.0755C48.6755 15.9206 48.4539 15.8569 48.2444 15.9085L40.9562 17.8212C40.7498 17.8789 40.5889 18.0398 40.5311 18.2463C40.4735 18.4527 40.5296 18.6744 40.6769 18.8292L41.3509 19.5336C34.0507 26.2723 25.1307 31.0056 15.4591 33.2721C15.1525 33.3495 14.9566 33.6485 15.0082 33.9597C15.0583 34.2709 15.3393 34.4924 15.6535 34.4681Z" fill="#151419"/>
<path d="M23.3848 35.0813L18.5255 35.9694C18.2386 36.021 18.0291 36.2715 18.0276 36.5644V46.0627H24.1013V35.6776C24.1013 35.497 24.0209 35.327 23.8827 35.2116C23.7446 35.0962 23.5624 35.0494 23.3848 35.0813Z" fill="#151419"/>
<path d="M45.1156 26.2695L40.2563 28.3766H40.2578C40.0362 28.4753 39.8935 28.6939 39.892 28.9367V46.0632H45.9657V26.8281C45.9642 26.6247 45.861 26.4349 45.6894 26.3226C45.5194 26.2102 45.3038 26.1906 45.1156 26.2695Z" fill="#151419"/>
<path d="M37.8092 29.7379L32.9499 32.0211C32.7389 32.1228 32.6038 32.3383 32.6038 32.5736V46.063H38.6775V30.2905C38.6745 30.0825 38.5682 29.8913 38.3921 29.7804C38.2175 29.6681 37.9989 29.6529 37.8092 29.7379Z" fill="#151419"/>
<path d="M30.6003 32.9502L25.741 34.4925C25.4875 34.57 25.3144 34.8052 25.3159 35.0694V46.0631H31.3897V33.527C31.3897 33.3342 31.2971 33.1535 31.1407 33.0397C30.9859 32.9258 30.784 32.8925 30.6003 32.9502Z" fill="#151419"/>
<path d="M48.3964 47.2776H15.5989C15.2679 47.2837 15.0007 47.5539 15.0007 47.8848C15.0007 48.2173 15.2679 48.4875 15.5989 48.492H48.3964C48.7273 48.4875 48.993 48.2173 48.993 47.8848C48.993 47.5539 48.7274 47.2837 48.3964 47.2776Z" fill="#151419"/>
<path d="M29.2643 22.4804C29.2597 19.9878 27.9269 17.6864 25.7682 16.4416C23.6096 15.1969 20.9501 15.1969 18.7913 16.4416C16.6327 17.6864 15.2998 19.9878 15.2953 22.4804C15.6748 31.7467 28.8866 31.7435 29.2643 22.4804ZM22.2796 23.0876C21.2049 23.077 20.2971 22.2846 20.1453 21.2189C19.9935 20.1548 20.6432 19.1392 21.6724 18.8295V17.7851C21.677 17.4527 21.9472 17.187 22.2796 17.187C22.6121 17.187 22.8823 17.4526 22.8869 17.7851V18.8295C23.8144 19.1013 24.4519 19.9529 24.4535 20.9184C24.4474 21.2493 24.1772 21.515 23.8462 21.515C23.5153 21.515 23.2451 21.2493 23.239 20.9184C23.2405 20.5328 23.0083 20.1821 22.6515 20.0333C22.2948 19.8846 21.8834 19.965 21.6086 20.2368C21.3339 20.51 21.2504 20.9214 21.3976 21.2797C21.5449 21.6364 21.8925 21.8717 22.2796 21.8732C23.3544 21.8838 24.2607 22.6793 24.4125 23.7434C24.5643 24.8091 23.9161 25.8247 22.8868 26.1359V27.1803C22.8868 27.5158 22.6151 27.7875 22.2796 27.7875C21.9441 27.7875 21.6724 27.5158 21.6724 27.1803V26.1359C20.7449 25.8641 20.1073 25.014 20.1058 24.047C20.1119 23.7161 20.3821 23.452 20.713 23.452C21.0439 23.452 21.3126 23.7161 21.3202 24.047C21.3202 24.4356 21.554 24.7848 21.9122 24.9335C22.2705 25.0823 22.6834 25.0003 22.9582 24.7256C23.2329 24.4508 23.3149 24.0379 23.1662 23.6796C23.0174 23.3214 22.6683 23.0876 22.2796 23.0876Z" fill="#151419"/>
</svg>
