<svg width="64" height="64" viewBox="0 0 64 64" fill="none" xmlns="http://www.w3.org/2000/svg">
<rect width="64" height="64" rx="32" fill="white"/>
<path fill-rule="evenodd" clip-rule="evenodd" d="M34.6403 18.7021V24.2902C34.6403 24.337 34.6132 24.3764 34.5713 24.3937C34.5294 24.4109 34.4826 24.4011 34.4482 24.369L32.0789 21.9998C32.0346 21.9555 31.9632 21.9555 31.9213 21.9998L29.5521 24.369C29.5201 24.4011 29.4733 24.4109 29.429 24.3937C29.3871 24.3764 29.36 24.337 29.36 24.2902V18.7021C29.36 18.6405 29.4093 18.5888 29.4733 18.5888H34.527C34.5885 18.5888 34.6403 18.6405 34.6403 18.7021ZM17.802 31.6024H30.2395C30.6779 31.6024 31.0325 31.957 31.0325 32.3954V46.2041C31.0325 46.6425 30.6779 46.9972 30.2395 46.9972L17.802 46.9996C16.6076 46.9996 15.6372 46.0268 15.6372 44.8348V33.7693C15.6372 32.5748 16.61 31.6024 17.802 31.6024ZM20.6958 33.3017C20.6958 33.2401 20.7451 33.1884 20.8091 33.1884H25.8628C25.9243 33.1884 25.9761 33.2376 25.9761 33.3017V38.9415C25.9761 38.9883 25.949 39.0277 25.9071 39.045C25.8652 39.0622 25.8184 39.0523 25.784 39.0203L23.4147 36.6511C23.3704 36.6068 23.299 36.6068 23.2571 36.6511L20.8879 39.0203C20.8559 39.0523 20.8091 39.0622 20.7648 39.045C20.7229 39.0277 20.6958 38.9883 20.6958 38.9415V33.3017ZM46.1981 31.6024C47.3925 31.6024 48.3629 32.5752 48.3629 33.7672V44.8327C48.3629 46.0272 47.3901 46.9975 46.1981 46.9975L33.7606 47C33.3222 47 32.9676 46.6454 32.9676 46.207V32.3957C32.9676 31.9573 33.3222 31.6027 33.7606 31.6027L46.1981 31.6024ZM43.3043 33.3017V38.9415C43.3043 38.9883 43.2772 39.0277 43.2353 39.045C43.1935 39.0622 43.1467 39.0523 43.1122 39.0203L40.743 36.6511C40.6987 36.6068 40.6272 36.6068 40.5854 36.6511L38.2161 39.0203C38.1841 39.0523 38.1373 39.0622 38.093 39.045C38.0511 39.0277 38.024 38.9883 38.024 38.9415V33.3017C38.024 33.2401 38.0733 33.1884 38.1373 33.1884H43.191C43.255 33.1884 43.3043 33.2401 43.3043 33.3017ZM24.6755 29.9646H39.6028C39.6643 29.9646 39.716 29.9153 39.716 29.8513V19.1722C39.716 17.9753 38.7432 17.0025 37.5463 17.0025L26.4562 17C25.2593 17 24.2864 17.9728 24.2864 19.1697V29.8488C24.2864 29.9104 24.3357 29.9621 24.3997 29.9621L24.6755 29.9646Z" fill="#151419"/>
</svg>
