<?xml version="1.0" encoding="utf-8"?>
<!-- Generator: Adobe Illustrator 27.7.0, SVG Export Plug-In . SVG Version: 6.00 Build 0)  -->
<svg version="1.1" id="Layer_1" xmlns="http://www.w3.org/2000/svg" xmlns:xlink="http://www.w3.org/1999/xlink" x="0px" y="0px"
	 viewBox="0 0 252 126" style="enable-background:new 0 0 252 126;" xml:space="preserve">
<style type="text/css">
	.st0{fill:#0065BD;}
</style>
<g>
	<polygon class="st0" points="23.4,42.8 23.4,94.4 34.7,94.4 34.7,42.8 47.1,42.8 47.1,94.4 82.8,94.4 82.8,43.4 95.4,43.4 
		95.4,94.4 107.2,94.4 107.2,43.4 120,43.4 120,94.4 131.8,94.4 131.8,31.6 71.5,31.6 71.5,83 58.5,83 58.5,31.6 12.8,31.6 
		12.8,42.8 	"/>
	<g>
		<path class="st0" d="M153.5,36.8h-4.3v-1.5h10.4v1.5h-4.3v11.6h-1.7V36.8z"/>
		<path class="st0" d="M167.1,45.4c-0.4,2.1-1.9,3.2-4,3.2c-3,0-4.4-2.1-4.5-5c0-2.8,1.9-4.9,4.4-4.9c3.3,0,4.4,3.1,4.3,5.4h-7.1
			c-0.1,1.6,0.9,3.1,2.9,3.1c1.3,0,2.2-0.6,2.4-1.8H167.1z M165.6,42.7c-0.1-1.5-1.2-2.7-2.7-2.7c-1.6,0-2.6,1.2-2.7,2.7H165.6z"/>
		<path class="st0" d="M175.2,42c-0.2-1.2-1.1-1.9-2.3-1.9c-2.2,0-2.9,1.8-2.9,3.7c0,1.7,0.8,3.4,2.8,3.4c1.5,0,2.4-0.9,2.6-2.3h1.6
			c-0.3,2.3-1.8,3.7-4.2,3.7c-2.9,0-4.4-2-4.4-4.8c0-2.8,1.5-5,4.4-5c2.1,0,3.8,1,4.1,3.2L175.2,42L175.2,42z"/>
		<path class="st0" d="M178.3,35.3h1.5v5h0c0.5-1.1,1.8-1.6,3-1.6c2.5,0,3.2,1.4,3.2,3.4v6.2h-1.5V42c0-1.1-0.7-1.9-1.9-1.9
			c-1.9,0-2.8,1.3-2.8,3v5.3h-1.5C178.3,48.4,178.3,35.3,178.3,35.3z"/>
		<path class="st0" d="M188.3,38.9h1.5v1.5h0c0.7-1.2,1.7-1.7,3.1-1.7c2.5,0,3.2,1.4,3.2,3.4v6.2h-1.5V42c0-1.1-0.7-1.9-1.9-1.9
			c-1.9,0-2.8,1.3-2.8,3v5.3h-1.5V38.9z"/>
		<path class="st0" d="M200,37.2h-1.5v-1.9h1.5V37.2z M198.5,38.9h1.5v9.4h-1.5V38.9z"/>
		<path class="st0" d="M203.6,45.4c0.1,1.4,1.3,1.8,2.5,1.8c1,0,2.3-0.2,2.3-1.4c0-1.2-1.5-1.4-3.1-1.7c-1.5-0.3-3.1-0.9-3.1-2.7
			c0-1.9,1.9-2.7,3.5-2.7c2.1,0,3.7,0.7,3.9,3H208c-0.1-1.2-1.2-1.6-2.2-1.6c-0.9,0-2,0.3-2,1.2c0,1.1,1.6,1.3,3.1,1.6
			c1.5,0.3,3.1,0.9,3.1,2.7c0,2.2-2.1,3-4,3c-2.1,0-3.9-0.9-4-3.2L203.6,45.4L203.6,45.4z"/>
		<path class="st0" d="M217.7,42c-0.2-1.2-1.1-1.9-2.3-1.9c-2.2,0-2.9,1.8-2.9,3.7c0,1.7,0.8,3.4,2.8,3.4c1.5,0,2.4-0.9,2.6-2.3h1.6
			c-0.3,2.3-1.8,3.7-4.2,3.7c-2.9,0-4.4-2-4.4-4.8c0-2.8,1.5-5,4.4-5c2.1,0,3.8,1,4.1,3.2L217.7,42L217.7,42z"/>
		<path class="st0" d="M221.1,35.3h1.5v5h0c0.5-1.1,1.8-1.6,3-1.6c2.5,0,3.2,1.4,3.2,3.4v6.2h-1.5V42c0-1.1-0.7-1.9-1.9-1.9
			c-1.9,0-2.8,1.3-2.8,3v5.3h-1.5C221.1,48.4,221.1,35.3,221.1,35.3z"/>
		<path class="st0" d="M239.1,45.4c-0.4,2.1-1.9,3.2-4,3.2c-3,0-4.4-2.1-4.5-5c0-2.8,1.9-4.9,4.4-4.9c3.3,0,4.4,3.1,4.3,5.4h-7.1
			c-0.1,1.6,0.9,3.1,2.9,3.1c1.3,0,2.2-0.6,2.4-1.8H239.1z M237.6,42.7c-0.1-1.5-1.2-2.7-2.7-2.7c-1.6,0-2.6,1.2-2.7,2.7H237.6z"/>
	</g>
	<g>
		<path class="st0" d="M159.6,63.8c0,3.3-1.9,5-5.1,5c-3.4,0-5.3-1.5-5.3-5v-8.3h1.7v8.3c0,2.3,1.3,3.6,3.6,3.6
			c2.2,0,3.4-1.3,3.4-3.6v-8.3h1.7V63.8z"/>
		<path class="st0" d="M161.7,59.1h1.5v1.5h0c0.7-1.2,1.7-1.7,3.1-1.7c2.5,0,3.2,1.4,3.2,3.4v6.2H168v-6.4c0-1.1-0.7-1.9-1.9-1.9
			c-1.9,0-2.8,1.3-2.8,3v5.3h-1.5L161.7,59.1L161.7,59.1z"/>
		<path class="st0" d="M173.5,57.4h-1.5v-1.9h1.5V57.4z M171.9,59.1h1.5v9.4h-1.5V59.1z"/>
		<path class="st0" d="M180,68.5h-1.7l-3.5-9.4h1.7l2.6,7.9h0l2.6-7.9h1.6L180,68.5z"/>
		<path class="st0" d="M192.6,65.5c-0.4,2.1-1.9,3.2-4,3.2c-3,0-4.4-2.1-4.5-5c0-2.8,1.9-4.9,4.4-4.9c3.3,0,4.4,3.1,4.3,5.4h-7.1
			c-0.1,1.6,0.9,3.1,2.9,3.1c1.3,0,2.2-0.6,2.4-1.8H192.6z M191.1,62.9c-0.1-1.5-1.2-2.7-2.7-2.7c-1.6,0-2.6,1.2-2.7,2.7H191.1z"/>
		<path class="st0" d="M194.6,59.1h1.5v2h0c0.7-1.5,1.8-2.3,3.5-2.2v1.6c-2.5,0-3.4,1.4-3.4,3.8v4.2h-1.5L194.6,59.1L194.6,59.1z"/>
		<path class="st0" d="M202.1,65.5c0.1,1.4,1.3,1.8,2.5,1.8c1,0,2.3-0.2,2.3-1.4c0-1.2-1.5-1.4-3.1-1.7c-1.5-0.3-3.1-0.9-3.1-2.7
			c0-1.9,1.9-2.7,3.5-2.7c2.1,0,3.7,0.7,3.9,3h-1.5c-0.1-1.2-1.2-1.6-2.2-1.6c-0.9,0-2,0.3-2,1.2c0,1.1,1.6,1.3,3.1,1.6
			c1.5,0.3,3.1,0.9,3.1,2.7c0,2.2-2.1,3-4,3c-2.1,0-3.9-0.9-4-3.2L202.1,65.5L202.1,65.5z"/>
		<path class="st0" d="M212.1,57.4h-1.5v-1.9h1.5V57.4z M210.5,59.1h1.5v9.4h-1.5V59.1z"/>
		<path class="st0" d="M216.8,59.1h1.9v1.4h-1.9v5.8c0,0.7,0.2,0.8,1.2,0.8h0.7v1.4h-1.2c-1.6,0-2.2-0.3-2.2-2.1v-6h-1.6v-1.4h1.6
			v-2.8h1.5L216.8,59.1L216.8,59.1z"/>
		<path class="st0" d="M229,68.5c-0.3,0.2-0.6,0.3-1.1,0.3c-0.8,0-1.3-0.4-1.3-1.5c-0.9,1-2,1.5-3.3,1.5c-1.7,0-3.1-0.8-3.1-2.6
			c0-2.1,1.6-2.6,3.2-2.9c1.7-0.3,3.2-0.2,3.2-1.4c0-1.3-1.1-1.6-2.1-1.6c-1.3,0-2.3,0.4-2.4,1.8h-1.5c0.1-2.3,1.9-3.2,4-3.2
			c1.7,0,3.5,0.4,3.5,2.6v4.8c0,0.7,0,1.1,0.5,1.1c0.1,0,0.3,0,0.5-0.1V68.5z M226.5,63.7c-0.6,0.4-1.8,0.5-2.8,0.6
			c-1,0.2-1.9,0.5-1.9,1.7c0,1,0.9,1.4,1.8,1.4c2,0,2.9-1.3,2.9-2.1V63.7z M221.9,55.8h1.6v1.9h-1.6V55.8z M225.3,55.8h1.6v1.9h-1.6
			V55.8z"/>
		<path class="st0" d="M232.8,59.1h1.9v1.4h-1.9v5.8c0,0.7,0.2,0.8,1.2,0.8h0.7v1.4h-1.2c-1.6,0-2.2-0.3-2.2-2.1v-6h-1.6v-1.4h1.6
			v-2.8h1.5L232.8,59.1L232.8,59.1z"/>
	</g>
	<g>
		<path class="st0" d="M149.1,76.2h2.4l4.1,10.9l4.1-10.9h2.4v13h-1.6V78.4h0l-4.1,10.8h-1.5l-4.1-10.8h0v10.8h-1.6L149.1,76.2
			L149.1,76.2z"/>
		<path class="st0" d="M171.9,89.2h-1.5v-1.5h0c-0.7,1.2-1.7,1.7-3.1,1.7c-2.5,0-3.2-1.4-3.2-3.4v-6.2h1.5v6.4
			c0,1.1,0.7,1.9,1.9,1.9c1.9,0,2.8-1.3,2.8-3v-5.3h1.5L171.9,89.2L171.9,89.2z M165.5,76.5h1.6v1.9h-1.6V76.5z M168.9,76.5h1.6v1.9
			h-1.6V76.5z"/>
		<path class="st0" d="M174.2,79.8h1.5v1.5h0c0.7-1.2,1.7-1.7,3.1-1.7c2.5,0,3.2,1.4,3.2,3.4v6.2h-1.5v-6.4c0-1.1-0.7-1.9-1.9-1.9
			c-1.9,0-2.8,1.3-2.8,3v5.3h-1.5L174.2,79.8L174.2,79.8z"/>
		<path class="st0" d="M190.7,82.8c-0.2-1.2-1.1-1.9-2.3-1.9c-2.2,0-2.9,1.8-2.9,3.7c0,1.7,0.8,3.4,2.8,3.4c1.5,0,2.4-0.9,2.6-2.3
			h1.6c-0.3,2.3-1.8,3.7-4.2,3.7c-2.9,0-4.4-2-4.4-4.8c0-2.8,1.5-5,4.4-5c2.1,0,3.8,1,4.1,3.2L190.7,82.8L190.7,82.8z"/>
		<path class="st0" d="M194.1,76.2h1.5v5h0c0.5-1.1,1.8-1.6,3-1.6c2.5,0,3.2,1.4,3.2,3.4v6.2h-1.5v-6.4c0-1.1-0.7-1.9-1.9-1.9
			c-1.9,0-2.8,1.3-2.8,3v5.3h-1.5V76.2z"/>
		<path class="st0" d="M212.2,86.2c-0.4,2.1-1.9,3.2-4,3.2c-3,0-4.4-2.1-4.5-5c0-2.8,1.9-4.9,4.4-4.9c3.3,0,4.4,3.1,4.3,5.4h-7.1
			c-0.1,1.6,0.9,3.1,2.9,3.1c1.3,0,2.2-0.6,2.4-1.8H212.2z M210.7,83.6c-0.1-1.5-1.2-2.7-2.7-2.7c-1.6,0-2.6,1.2-2.7,2.7H210.7z"/>
		<path class="st0" d="M214,79.8h1.5v1.5h0c0.7-1.2,1.7-1.7,3.1-1.7c2.5,0,3.2,1.4,3.2,3.4v6.2h-1.5v-6.4c0-1.1-0.7-1.9-1.9-1.9
			c-1.9,0-2.8,1.3-2.8,3v5.3H214V79.8z"/>
	</g>
</g>
</svg>
