<?xml version="1.0" encoding="utf-8"?>
<!-- Generator: Adobe Illustrator 27.7.0, SVG Export Plug-In . SVG Version: 6.00 Build 0)  -->
<svg version="1.1" id="Layer_1" xmlns="http://www.w3.org/2000/svg" xmlns:xlink="http://www.w3.org/1999/xlink" x="0px" y="0px"
	 viewBox="0 0 252 126" style="enable-background:new 0 0 252 126;" xml:space="preserve">
<style type="text/css">
	.st0{fill-rule:evenodd;clip-rule:evenodd;fill:#E57200;}
	.st1{fill-rule:evenodd;clip-rule:evenodd;fill:#232D4B;}
</style>
<g>
	<path id="logo-footer-rotunda-path" class="st0" d="M135.6,53.1h4.3V32.8h-4.3V53.1z M112.6,53.1h4.1V32.8h-4.1V53.1z M118.2,53.1
		h4.4V32.8h-4.4V53.1z M124,53.1h4.4V32.8H124V53.1z M129.7,53.1h4.4V32.8h-4.4V53.1z M126.5,23.9l-12.2,7.5H138L126.5,23.9z
		 M123.9,23.8h-22.4v7.6h10.2L123.9,23.8z M140.6,31.4h10.2v-7.6H129L140.6,31.4z M126.2,9.7c-9.3,0-17.3,5.1-21.6,12.8h43.2
		C143.5,14.8,135.4,9.7,126.2,9.7z M103.8,46.6h1.2l0.3-1.1l0.3,1.1h1.2l-1,0.7l0.3,1.1l-1-0.7l-1,0.7l0.3-1.1L103.8,46.6z
		 M102.7,40.9l0.3-1.1l0.3,1.1h1.2l-1,0.7l0.3,1.1l-1-0.7l-1,0.7l0.3-1.1l-1-0.7H102.7z M111.2,32.8h-9.7v1.8h0.5l0.3-0.6l0.2-0.5
		l0.3,1.1h1.2l-1,0.7l0.3,1.1l-1-0.7l-0.9,0.7v4.4v12.2h6.4l0.3-1.1l-1-0.7h1.2l0.3-1.1l0.3,1.1h1.2l-1,0.7l0.3,1.1h1.3V32.8z
		 M108.9,52.4l-1,0.7h1.9L108.9,52.4z M101.6,36l0.2-0.6l-0.3-0.2v1.2L101.6,36z M101.5,60h9.7v-5.4h-9.7V60z M141.2,60h9.6v-5.4
		h-9.6V60z M133.2,59.4l-1-0.7l-1,0.7l0.3-1.1l-1-0.7h1.2l0.3-1.1l0.3,1.1h1.2l-1,0.7L133.2,59.4z M124.6,58.4h1.2l0.3-1.1l0.3,1.1
		h1.2l-1,0.7L127,60h12.8v-5.4h-1.7l0.3,0.9h1.2l-1,0.7l0.3,1.1l-1-0.7l-1,0.7l0.3-1.1l-1-0.7h1.2l0.3-0.9h-23.7l0.3,0.9h1.2l-1,0.7
		l0.3,1.1l-1-0.7l-1,0.7l0.3-1.1l-1-0.7h1.2l0.3-0.9h-1.6V60h12.7l0.3-0.9L124.6,58.4z M118.4,57.6h1.2l0.3-1.1l0.3,1.1h1.2l-1,0.7
		l0.3,1.1l-1-0.7l-1,0.7l0.3-1.1L118.4,57.6z M126.2,59.5l-0.5,0.4h1.1L126.2,59.5z M147.9,48.5l-1-0.7l-1,0.7l0.3-1.1l-1-0.7h1.2
		l0.3-1.1l0.3,1.1h1.2l-1,0.7L147.9,48.5z M144.4,53.1l-1-0.7l-1,0.7l0.3-1.1l-1-0.7h1.2l0.3-1.1l0.3,1.1h1.2l-1,0.7L144.4,53.1
		L144.4,53.1z M150.8,40.9l-0.9,0.6l0.3,1.1l-1-0.7l-1,0.7l0.3-1.1l-1-0.7h1.2l0.3-1.1l0.3,1.1L150.8,40.9v-4.5l-0.9-0.6l-1,0.7
		l0.3-1.1l-1-0.7h1.2l0.3-1.1l0.3,1.1h0.4v-1.8h-9.6v20.3h1.2h1.9h6.4L150.8,40.9L150.8,40.9z M150.6,35.4l0.3,0.8v-1L150.6,35.4z"
		/>
	<path id="logo-footer-type-path" class="st1" d="M47.6,88.7c-2.6-1-3.9-2.7-4.5-5.1c-0.4-1.7-0.6-4.3-0.6-9.2v-9
		c0-1.3-0.3-1.9-1.5-1.9h-1.7C39,63.3,39,63.3,39,63v-0.9c0-0.3,0-0.3,0.3-0.3s2.3,0.1,5.2,0.1s4.8-0.1,5.2-0.1
		c0.3,0,0.3,0.1,0.3,0.3v1c0,0.2,0,0.3-0.3,0.3h-1.9c-1.1,0-1.7,0.7-1.8,1.6c0,0.3-0.1,3-0.1,5v2.5c0,2,0.2,6.9,0.2,8.1
		c0,1.7,0.3,3.6,1.2,4.9c1.4,2.1,3.8,2.8,6.1,2.8c2.2,0,4.4-0.7,5.7-2.1c1.5-1.6,2-3.9,2-6.7v-8.2c0-2.9-0.1-5.1-0.2-6.1
		c-0.1-1-0.7-1.7-1.7-1.7h-1.7c-0.3,0-0.3-0.1-0.3-0.3v-1c0-0.2,0-0.3,0.3-0.3c0.3,0,2.2,0.1,4.7,0.1c2.6,0,3.8-0.1,4.2-0.1
		s0.3,0.2,0.3,0.3v0.9c0,0.3,0,0.3-0.3,0.3H65c-1.4,0-1.6,1-1.7,1.6c0,0.3,0,5.8,0,6.4s-0.1,7.2-0.2,8.7c-0.3,3.1-1,5.5-3.2,7.3
		c-1.6,1.4-3.8,2.3-7.1,2.3C50.8,89.5,48.9,89.2,47.6,88.7z M93.9,75.9c0-0.3,0-5.2,0-5.7c0-0.9,0.4-1,1.6-1h0.7
		c0.2,0,0.3-0.1,0.3-0.3v-1c0-0.1-0.1-0.2-0.3-0.2c-0.3,0-2.4,0.1-3.7,0.1c-1.9,0-4.5-0.1-4.8-0.1c-0.2,0-0.3,0.1-0.3,0.3v1
		c0,0.2,0,0.3,0.3,0.3h0.8c1.7,0,2.1,0.4,2.1,0.9c0,0.6,0.1,4.7,0.1,5.4v1.8c0,1.4,0,6.7-0.1,7c-0.1,0.8-0.8,0.8-1.7,0.8H88
		c-0.2,0-0.3,0.1-0.3,0.3v0.9c0,0.2,0.1,0.3,0.3,0.3c0.3,0,2.6-0.1,4.1-0.1c1.8,0,4,0.1,4.4,0.1c0.2,0,0.3-0.1,0.3-0.3v-1
		c0-0.1,0-0.2-0.3-0.2h-0.6c-1.2,0-1.7-0.6-1.7-1.6c0-0.6,0-5.4,0-5.7v-2.1H93.9z M135.8,74.5v-3.9c0-0.9-0.4-1.3-1.6-1.3h-0.4
		c-0.1,0-0.2-0.1-0.2-0.3v-1c0-0.1,0.1-0.2,0.3-0.2c0.2,0,2.8,0.1,3.5,0.1c0.5,0,4.1-0.1,4.6-0.1c2.5,0,4.4,0.7,5.4,1.7
		c0.9,0.9,1.5,2.1,1.5,3c0,2.9-1.7,4.5-4.9,5.7v0.1c1,0.2,1.7,1.5,3.5,3.9c0.6,0.9,1.6,2.1,2.3,2.6c0.6,0.4,1.1,0.4,1.8,0.4
		c0.2,0,0.2,0.1,0.2,0.3v0.9c0,0.2-0.1,0.3-0.3,0.3c-0.1,0-0.4,0-0.9-0.1c-0.3,0-0.9,0-1.3,0c-1,0-1.9,0-2.6,0.1
		c-0.8-0.6-2.6-3.9-3-4.5c-1.5-2.5-2.1-3.5-3.8-3.5c-0.4,0-0.8,0-1,0.1v1v4.4c0.1,0.6,0.3,1,1.1,1h1c0.2,0,0.3,0.1,0.3,0.2v1
		c0,0.2-0.1,0.3-0.3,0.3c-0.3,0-2.5-0.1-3.9-0.1c-1,0-3.1,0.1-3.4,0.1c-0.2,0-0.3-0.1-0.3-0.3v-0.9c0-0.1,0.1-0.2,0.3-0.2h0.5
		c1,0,1.5-0.2,1.5-1c0-2,0-4.4,0-7L135.8,74.5L135.8,74.5z M139,77.3c0.3,0,0.7,0.1,1.2,0.1c4.6,0,5.3-3.2,5.3-4.3
		c0-1.2-0.6-2.3-1.4-2.9c-1.1-0.7-2.3-1-3.9-1c-0.6,0-1.2,0.2-1.2,0.9V77.3z M158.9,87c3.7,0,5.7-2.6,5.7-5.7c0-2.1-0.5-3.1-1.3-4
		c-1-1-2.5-1.6-4.4-2.3c-0.8-0.3-2.3-0.9-2.9-1.7c-0.4-0.5-0.7-1.4-0.7-2c0-0.8,0.7-2.5,3-2.5c1.2,0,2.1,0.4,2.7,1.1
		c0.9,1,1.2,2.4,1.5,3c0,0.1,0.1,0.2,0.3,0.2l0.8-0.2c0.1,0,0.2-0.1,0.2-0.3c0-0.6-0.4-3.3-0.4-4.6c0-0.2,0-0.3-0.3-0.3
		s-0.4,0-0.5,0.1l-0.2,0.3c-0.1,0.2-0.3,0.2-0.7-0.1c-0.5-0.3-1.4-0.5-3-0.5c-1.5,0-2.8,0.3-3.9,1.2c-0.9,0.8-1.7,2.1-1.7,3.5
		c0,2,0.5,3.4,1.5,4.3c1.2,1.1,3.2,1.8,4.1,2.2c2.2,0.9,3.8,1.8,3.8,4.3c0,1.7-2,2.8-3.3,2.8c-1.6,0-2.9-0.9-3.5-2.1
		c-0.8-1.4-0.8-2.3-0.8-2.8c0-0.2-0.2-0.3-0.3-0.3l-0.8-0.1c-0.2,0-0.3,0.1-0.3,0.3c0,0.7-0.3,4-0.4,5.1c0,0.2,0.1,0.3,0.3,0.4
		c0.3,0.1,0.5,0,0.6-0.2l0.1-0.3c0.1-0.3,0.3-0.3,0.6-0.1C155.3,86.3,156.8,87,158.9,87z M171.6,75.9c0-0.3,0-5.2,0-5.7
		c0-0.9,0.4-1,1.6-1h0.7c0.2,0,0.3-0.1,0.3-0.3v-1c0-0.1-0.1-0.2-0.3-0.2c-0.3,0-2.4,0.1-3.7,0.1c-1.9,0-4.5-0.1-4.8-0.1
		c-0.2,0-0.3,0.1-0.3,0.3v1c0,0.2,0,0.3,0.3,0.3h0.8c1.7,0,2.1,0.4,2.1,0.9c0,0.6,0.1,4.7,0.1,5.4v1.8c0,1.4,0,6.7-0.1,7
		c-0.1,0.8-0.8,0.8-1.7,0.8h-0.9c-0.2,0-0.3,0.1-0.3,0.3v0.9c0,0.2,0.1,0.3,0.3,0.3c0.3,0,2.6-0.1,4.1-0.1c1.8,0,4,0.1,4.4,0.1
		c0.2,0,0.3-0.1,0.3-0.3v-1c0-0.1,0-0.2-0.3-0.2h-0.6c-1.2,0-1.7-0.6-1.7-1.6c0-0.6,0-5.4,0-5.7v-2.1H171.6z M58,96.4
		c0-3.3,2.5-7.7,6-7.7c1.7,0,2.8,1.3,2.8,3c0,2.9-2.3,8.1-6.1,8.1C59.3,99.8,58,98.4,58,96.4z M65.7,91.3c0-0.8-0.4-1.5-1.3-1.5
		c-1.1,0-2.5,1-3.8,3.1c-0.9,1.4-1.5,3-1.5,4.3c0,0.9,0.6,1.3,1.2,1.3C63,98.5,65.7,93,65.7,91.3z M103.8,100.4c0-0.3,0-5.2,0-5.7
		c0-0.9,0.4-1,1.6-1h0.7c0.2,0,0.3-0.1,0.3-0.3v-1c0-0.1-0.1-0.2-0.3-0.2c-0.3,0-2.4,0.1-3.7,0.1c-1.9,0-4.5-0.1-4.8-0.1
		c-0.2,0-0.3,0.1-0.3,0.3v1c0,0.2,0,0.3,0.3,0.3h0.8c1.7,0,2.1,0.4,2.1,0.9c0,0.6,0.1,4.7,0.1,5.4v1.8c0,1.4,0,6.7-0.1,7
		c-0.1,0.8-0.8,0.8-1.7,0.8h-0.9c-0.2,0-0.3,0.1-0.3,0.3v0.9c0,0.2,0.1,0.3,0.3,0.3c0.3,0,2.6-0.1,4.1-0.1c1.8,0,4,0.1,4.4,0.1
		c0.2,0,0.3-0.1,0.3-0.3v-1c0-0.1,0-0.2-0.3-0.2h-0.6c-1.2,0-1.7-0.6-1.7-1.6c0-0.6,0-5.4,0-5.7v-2.2H103.8z M109.8,99v-4
		c0-0.9-0.4-1.3-1.6-1.3h-0.4c-0.1,0-0.2-0.1-0.2-0.3v-1c0-0.1,0.1-0.2,0.3-0.2c0.2,0,2.8,0.1,3.5,0.1c0.5,0,4.1-0.1,4.6-0.1
		c2.5,0,4.4,0.7,5.4,1.7c0.9,0.9,1.5,2.1,1.5,3c0,2.9-1.7,4.5-4.9,5.7v0.1c1,0.2,1.7,1.5,3.5,3.9c0.6,0.9,1.6,2.1,2.3,2.6
		c0.6,0.4,1.1,0.4,1.8,0.4c0.2,0,0.2,0.1,0.2,0.3v0.9c0,0.2-0.1,0.3-0.3,0.3c-0.1,0-0.4,0-0.9-0.1c-0.3,0-0.9,0-1.3,0
		c-1,0-1.9,0-2.6,0.1c-0.8-0.6-2.6-3.9-3-4.5c-1.5-2.5-2.1-3.5-3.8-3.5c-0.4,0-0.8,0-1,0.1v1v4.4c0.1,0.6,0.3,1,1.1,1h1
		c0.2,0,0.3,0.1,0.3,0.2v1c0,0.2-0.1,0.3-0.3,0.3s-2.5-0.1-3.9-0.1c-1,0-3.1,0.1-3.4,0.1c-0.2,0-0.3-0.1-0.3-0.3v-1
		c0-0.1,0.1-0.2,0.3-0.2h0.5c1,0,1.5-0.2,1.5-1c0-2,0-4.4,0-7L109.8,99L109.8,99z M113.2,101.8c0.3,0,0.7,0.1,1.2,0.1
		c4.6,0,5.3-3.2,5.3-4.3c0-1.2-0.6-2.3-1.4-2.9c-1.1-0.7-2.3-1-3.9-1c-0.6,0-1.2,0.2-1.2,0.9V101.8z M141.4,105.4
		c0-0.7,0.8-0.9,1.2-0.9h0.7c0.1,0,0.2-0.1,0.2-0.3v-1c0-0.1-0.1-0.2-0.3-0.2c-0.2,0-2,0.1-3.6,0.1c-2.3,0-4.3-0.1-4.5-0.1
		c-0.2,0-0.2,0.1-0.2,0.2v1c0,0.1,0,0.2,0.2,0.2h1c1,0,2,0.3,2,1.2v1.6c0,0.9-0.1,1.4-0.6,1.7c-0.7,0.5-2,0.9-3.4,0.9
		c-1.1,0-2.8-0.6-4-1.8c-1.7-1.7-2.5-4.1-2.5-7.2c0-1.8,0.9-4.1,2.2-5.4c1.6-1.7,3.1-2.1,4.4-2.1c1.9,0,3,0.9,4.2,2c1,1,1.7,2.3,2,3
		c0.1,0.3,0.2,0.3,0.3,0.3l0.8-0.3c0.1,0,0.2-0.1,0.2-0.3c-0.1-0.8-0.6-4.6-0.6-4.8c0-0.3-0.1-0.4-0.4-0.4c-0.3,0-0.4,0.1-0.5,0.3
		l-0.2,0.3c-0.1,0.1-0.3,0.1-0.6-0.2c-0.8-0.6-2.7-1.3-4.7-1.3c-3,0-5.5,0.9-7.4,2.5c-2,1.7-3,4.3-3,6.8c0,3.2,0.9,5.5,2.5,7.3
		c1.9,2.2,5.2,3,7.4,3c2.6,0,4.9-0.6,7-1.7c0.3-0.1,0.4-0.3,0.4-0.4s-0.1-0.4-0.1-0.9L141.4,105.4L141.4,105.4z M149,100.4
		c0-0.3,0-5.2,0-5.7c0-0.9,0.4-1,1.6-1h0.7c0.2,0,0.3-0.1,0.3-0.3v-1c0-0.1-0.1-0.2-0.3-0.2c-0.3,0-2.4,0.1-3.7,0.1
		c-1.9,0-4.5-0.1-4.8-0.1c-0.2,0-0.3,0.1-0.3,0.3v1c0,0.2,0,0.3,0.3,0.3h0.8c1.7,0,2.1,0.4,2.1,0.9c0,0.6,0.1,4.7,0.1,5.4v1.8
		c0,1.4,0,6.7-0.1,7c-0.1,0.8-0.8,0.8-1.7,0.8h-0.9c-0.2,0-0.3,0.1-0.3,0.3v0.9c0,0.2,0.1,0.3,0.3,0.3c0.3,0,2.6-0.1,4.1-0.1
		c1.8,0,4,0.1,4.4,0.1c0.2,0,0.3-0.1,0.3-0.3v-1c0-0.1,0-0.2-0.3-0.2h-0.6c-1.2,0-1.7-0.6-1.7-1.6c0-0.6,0-5.4,0-5.7v-2.2H149z
		 M171.3,100.8c0-1.7-0.1-4.3,0.1-6.2c0.1-0.6,0.3-0.9,1.3-0.9h0.4c0.2,0,0.3-0.1,0.3-0.3v-0.9c0-0.3-0.1-0.3-0.3-0.3
		c-0.3,0-1.7,0.1-2.6,0.1c-1.3,0-3.1-0.1-3.4-0.1c-0.2,0-0.3,0.1-0.3,0.2v1c0,0.2,0.1,0.3,0.3,0.3h0.7c0.7,0,1.3,0.3,1.6,0.8
		c0.2,0.5,0.3,2.9,0.3,3.9c0.1,1.3,0.1,2.6,0.1,5v2.7h-0.2c-0.5-0.5-4.4-5.4-5-6.3c-0.9-1-5.7-7-5.7-7.2c-0.2-0.3-0.4-0.3-1-0.3
		c-0.5,0-1.4,0.1-2,0.1c-0.4,0-1.1,0-1.7-0.1c-0.5,0-1,0-1,0c-0.2,0-0.3,0.1-0.3,0.3v1c0,0.2,0.1,0.3,0.3,0.3h0.3
		c1.1,0,2.2,0.7,2.2,2.2v4.4c0,4.7-0.1,7.6-0.1,8.1c-0.1,1-0.8,1.2-1.2,1.2h-1c-0.1,0-0.2,0-0.2,0.1v1c0,0.2,0,0.3,0.1,0.3
		c0.3,0,2.2-0.1,2.8-0.1c1.2,0,2.9,0.1,3.1,0.1c0.2,0,0.2-0.1,0.2-0.3v-1c0-0.2,0-0.3-0.2-0.3h-0.9c-0.4,0-0.9-0.4-1-1.4
		c-0.1-0.3-0.3-4.5-0.3-7v-5.7h0.1c0.7,0.8,4,5.2,5,6.4c0.4,0.5,2.3,2.6,4.2,5c1.7,2,3.1,3.7,3.4,4c0.2,0.1,0.6,0.4,1,0.4
		c0.5,0,0.6-0.4,0.6-0.8v-9.6H171.3z M176.1,67.9c0-0.1,0-0.1,0.1-0.2c0.1,0,0,0,0.2,0c0.6,0.1,3,0.3,7.6,0.3h1.7
		c1.4,0,2.8-0.1,4.4-0.1c0.8,0,5.7,0,6.6,0c0.9,0,3.7-0.1,4-0.1c0.2,0,0.3,0.1,0.3,0.3v0.9c0,0.2,0,0.3-0.3,0.3H200
		c-0.8,0-0.8,0.4-0.6,0.7c0.3,0.3,3.7,5.9,4.4,6.9c0.6-1,4.1-6,4.3-6.4c0.3-0.7,0.3-1.2-0.5-1.2h-0.7c-0.2,0-0.3-0.1-0.3-0.3V68
		c0-0.2,0.1-0.3,0.3-0.3c0.3,0,2.3,0.1,3.6,0.1c0.8,0,2.2-0.1,2.4-0.1c0.2,0,0.3,0.1,0.3,0.3V69c0,0.2-0.1,0.3-0.3,0.3h-0.4
		c-0.7,0-1.1,0.1-1.5,0.3c-0.6,0.3-5.4,7-6.4,8.5v3.5c0,1,0,2.2,0.1,2.6c0.1,0.9,0.8,0.9,1.5,0.9h0.5c0.2,0,0.3,0.1,0.3,0.2v1
		c0,0.2-0.1,0.3-0.3,0.3c-0.3,0-2.5-0.1-3.9-0.1c-0.9,0-3.3,0.1-3.6,0.1c-0.2,0-0.3-0.1-0.3-0.3v-0.9c0-0.1,0.1-0.3,0.3-0.3h0.6
		c1.3,0,1.6-0.3,1.7-0.9c0-0.3,0-1.8,0-4.3v-1.5c-0.3-0.8-5.4-8.2-6.1-8.8c-0.3-0.3-1-0.4-1.3-0.5c0.3,1.1,0.6,2.6,0.7,3.3
		c0,0.2,0,0.3-0.2,0.3l-0.7,0.2c-0.3,0.1-0.3,0-0.4-0.2c-0.5-1-1.2-2.4-2.1-3.2c-1-0.3-4.1-0.4-4.8-0.4v7c0,4.4,0,7.5,0,7.7
		c0.1,0.7,0.3,1,1,1h1.6c0.2,0,0.3,0.1,0.3,0.3v0.9c0,0.1-0.1,0.3-0.3,0.3c-0.3,0-2.9-0.1-4.3-0.1c-1.1,0-3.8,0.1-4.2,0.1
		c-0.3,0-0.3-0.1-0.3-0.3v-0.9c0-0.2,0.1-0.3,0.3-0.3h1.7c0.6,0,0.9-0.3,1-0.7c0.1-1.6,0.1-3.7,0.1-6.3v-8.5c-0.8,0-3.1,0-4.6,0.3
		c-1,0.8-1.9,2.1-2.4,3.2c-0.1,0.2-0.2,0.3-0.3,0.2l-0.8-0.3c-0.2-0.1-0.2-0.3-0.2-0.4C175.1,71.6,175.8,69.1,176.1,67.9z
		 M71.5,85.2c0.4-0.8,0.9-1.5,1.5-2.1c0.7-0.9,2.2-1.7,3.9-1.7c0.8,0,1.3,0.3,1.7,0.5c-1.7-2-3.2-3.8-3.7-4.4c-1-1.1-4.4-5.7-5-6.4
		h-0.1v5.7c0,2.5,0.2,6.6,0.3,7c0.1,1,0.6,1.4,1,1.4C71.1,85.2,71.5,85.2,71.5,85.2z M70.8,86.6c-0.6,0-1.4-0.1-2-0.1
		c-0.6,0-2.4,0.1-2.8,0.1c-0.1,0-0.1-0.1-0.1-0.3v-1c0-0.1,0-0.1,0.2-0.1h1c0.4,0,1-0.3,1.2-1.2c0-0.5,0.1-3.4,0.1-8.1v-4.4
		c0-1.5-1-2.2-2.2-2.2h-0.3c-0.2,0-0.3-0.1-0.3-0.3v-1c0-0.1,0.1-0.3,0.3-0.3c0.1,0,0.5,0,1,0s1.2,0.1,1.7,0.1c0.7,0,1.6-0.1,2-0.1
		c0.6,0,0.9,0.1,1,0.3c0.1,0.2,4.9,6.2,5.7,7.2c0.8,0.9,4.6,5.7,5,6.3h0.2V79c0-2.3,0-3.7-0.1-5c0-1-0.1-3.4-0.3-3.9
		c-0.2-0.5-0.9-0.8-1.6-0.8h-0.6c-0.2,0-0.3-0.1-0.3-0.3V68c0-0.1,0.1-0.2,0.3-0.2c0.3,0,2.1,0.1,3.4,0.1c0.9,0,2.3-0.1,2.6-0.1
		c0.2,0,0.3,0.1,0.3,0.3V69c0,0.2-0.1,0.3-0.3,0.3h-0.4c-1,0-1.2,0.3-1.3,0.9c-0.2,1.9-0.1,4.5-0.1,6.2V86c0,0.3-0.1,0.8-0.6,0.8
		c-0.3,0-0.8-0.3-1-0.4c-0.3-0.3-1.7-1.9-3.3-3.9c0.1,0.1,0.1,0.3,0.1,0.3c0,0.8-0.5,1.2-1,1.2c-0.9,0-1-0.4-1.1-1
		c0-0.3-0.3-0.8-1-0.8c-2.4,0-3,3.5-3.8,6.4c0,0,3.7,0.1,6.6,0.1c3.2,0,4.9-0.1,5.2-0.1s0.3,0.1,0.3,0.3v0.9c0,0.2,0,0.3-0.3,0.3
		h-1.8c-1,0-1.6,0.3-1.6,1c0,0.3,0,0.8,0.2,1.3c0.3,1.4,1.7,5.9,2.3,8c0.4,1.5,2.7,8,3.6,10.4c0.9-1.8,3.8-9.7,4.2-10.5
		c0.3-1,1.8-5.4,2.4-7c0.3-1,0.5-1.7,0.5-2.2c0-0.4-0.3-0.9-1.2-0.9h-1c-0.2,0-0.2-0.1-0.2-0.3v-0.9c0-0.2,0-0.3,0.3-0.3
		c0.3,0,2.1,0.1,4.5,0.1c2.8,0,3.7-0.1,4.1-0.1c0.3,0,0.3,0.1,0.3,0.3v1c0,0.2,0,0.3-0.3,0.3h-1c-1.2,0-2,0.6-2.7,1.5
		c-1,1.2-4,9-4.7,10.6c-0.4,1.2-5.4,13.4-5.6,13.7c-0.2,0.3-0.3,0.5-0.5,0.5c-0.3,0-0.4-0.3-0.6-0.9c-1.2-3.5-4.3-12.2-4.8-13.6
		l-0.3-1.3c-0.9-2.7-2.7-8.3-3.2-9.4c-0.3-0.9-0.8-1.2-1.6-1.2h-3.6c-0.7,2.1-1.9,6.6-3.2,9.9c-1.6,4.1-3.5,7-6.3,7
		c-1,0-1.9-0.7-1.9-1.6c0-0.6,0.4-1.1,1.1-1.1c0.8,0,1.1,0.7,1.2,1.2c0.1,0.3,0.3,0.4,0.4,0.4c1.2,0,2.7-2.2,4.1-7l2.7-8.9h-2.3
		c-0.2,0-0.2-0.1-0.2-0.3l0.1-0.4c0.1-0.2,0.3-0.6,0.4-0.6h2.3C70.3,88,70.6,87.3,70.8,86.6z M192.6,95.5c0.1-0.3,0.2-0.4,0.3-0.4
		c0.1,0,0.2,0.2,0.3,0.4c0.1,0.3,2,6.5,2.2,7.1h-5.7C190,102.2,192.5,95.8,192.6,95.5z M181.2,94.8c0-0.9,0.4-1,1.6-1h0.7
		c0.2,0,0.3-0.1,0.3-0.3v-1c0-0.1-0.1-0.2-0.3-0.2c-0.3,0-2.4,0.1-3.7,0.1c-1.9,0-4.5-0.1-4.8-0.1c-0.2,0-0.3,0.1-0.3,0.3v1
		c0,0.2,0,0.3,0.3,0.3h0.8c1.7,0,2.1,0.4,2.1,0.9c0,0.6,0.1,4.7,0.1,5.4v1.8c0,1.4,0,6.7-0.1,7c-0.1,0.8-0.8,0.8-1.7,0.8h-0.9
		c-0.2,0-0.3,0.1-0.3,0.3v0.9c0,0.2,0.1,0.3,0.3,0.3c0.3,0,2.6-0.1,4.1-0.1h6.9c0.7,0,2.9,0.1,3.2,0.1c0.2,0,0.3-0.1,0.3-0.3v-0.9
		c0-0.2,0-0.3-0.3-0.3h-1c-0.9,0-1-0.5-0.8-1.4c0.2-0.5,1.5-3.9,1.7-4.4h6.7c0.3,1,1.5,4.3,1.7,5c0,0.3-0.2,0.7-0.7,0.7h-0.7
		c-0.2,0-0.2,0.1-0.2,0.3v0.9c0,0.2,0,0.3,0.3,0.3c0.5,0,3-0.1,3.7-0.1c1,0,3.1,0.1,3.7,0.1c0.3,0,0.3-0.3,0.3-0.3v-0.9
		c0-0.1,0-0.3-0.2-0.3h-0.8c-0.7,0-1.4-0.3-1.9-1.1c-0.3-0.4-2.1-5.3-2.7-7.4c-0.5-1.7-2.6-7.6-3.2-9.2c-0.1-0.3-0.2-0.4-0.4-0.4
		s-0.4,0.1-0.5,0.3c-0.3,0.3-1.6,1-2.3,1.2c-0.3,0.1-0.4,0.2-0.4,0.3c0,0.1,0.1,0.3,0.2,0.4c0.3,0.1,0,0.6,0,0.9
		c-0.3,0.7-2.7,6.4-3,6.9c-1,2.1-3.1,7-3.4,7.4c-0.3,0.4-1,0.9-1.7,0.9h-0.4c-1.2,0-1.7-0.6-1.7-1.6c0-0.6,0-5.4,0-5.7v-2.1
		C181.2,100.2,181.2,95.2,181.2,94.8z M105.3,67.8c-0.3,0-2.8,0.1-3.7,0.1c-1,0-3.4-0.1-3.6-0.1s-0.3,0.1-0.3,0.2v1
		c0,0.1,0,0.3,0.2,0.3h0.4c0.5,0,0.9,0.3,1.2,0.8c0.3,0.4,1.6,4.2,2.3,6.1l0.3,0.9c0.3,0.9,2.5,6.9,3.4,9.3c0.1,0.3,0.3,0.6,0.7,0.6
		s0.5-0.1,0.7-0.3c0.3-0.5,3.7-8.6,4.1-9.5c0.4-1,2.6-6.5,3.4-7.3c0.3-0.3,1-0.6,1.7-0.6h0.6h0.1h0.3c1.7,0,1.9,0.2,2,1
		c0,0.4,0.1,3.1,0.1,5.3v2.5v6.3c0,0.6-0.1,0.8-2.1,0.8h-0.3c-0.2,0-0.3,0.1-0.3,0.3v1c0,0.2,0,0.3,0.3,0.3c0.5,0,2.8-0.1,3.5-0.1
		c8.7,0,10.9,0.1,11.1,0.1c0.2,0,0.3-0.2,0.4-0.4l1.5-4.4c0-0.1,0-0.3-0.1-0.3l-0.7-0.3c-0.1-0.1-0.3,0-0.5,0.3
		c-0.4,0.7-1.8,2.5-2.2,2.8c-1.4,1.1-2.5,1.1-4.4,1.1c-1.7,0-3-0.1-3-2.1c0-0.5-0.1-3-0.1-4.4v-1.4c0.4,0,1.8,0,3.1,0.3
		c1,0.3,1.3,0.9,1.6,1.9c0,0.2,0.1,0.2,0.3,0.2l0.9-0.1c0.1,0,0.2,0,0.2-0.2c0-0.5-0.2-1.8-0.2-2.7c0-0.3,0-2.5,0.1-3
		c0-0.2-0.1-0.3-0.3-0.3h-0.9c-0.2,0-0.2,0-0.2,0.2c0,1.3-0.4,1.8-1.5,2.2c-0.3,0.1-2.8,0.2-3,0.2v-7l4.4,0.1c0.4,0,1,0.2,1.6,0.6
		c0.7,0.7,2.7,3,2.8,3.1s0.3,0.2,0.3,0.2l0.7-0.3c0.1,0,0.1-0.1,0-0.3c-0.1-0.3-1.2-3.8-1.3-4.3c-0.1-0.5-0.2-0.6-0.3-0.6
		c-0.2,0-0.7,0.1-1.1,0.1h-9.3h-6.4c-1,0-3.1-0.1-3.4-0.1c-0.2,0-0.3,0.1-0.3,0.3v1c0,0.2,0.1,0.3,0.3,0.3h0.4
		c0.7,0,0.9,0.2,0.9,0.4c0,0.4-0.5,1.6-2.1,6.1c-0.2,0.6-2.3,5.7-2.5,6.6h-0.1c-0.3-0.7-1.7-5.5-2.1-6.5c-1.1-3.5-1.8-5-1.8-6
		c0-0.5,0.6-0.6,1.1-0.6h1c0.2,0,0.3-0.1,0.3-0.3v-1C105.6,67.9,105.6,67.8,105.3,67.8z"/>
</g>
</svg>
