<?xml version="1.0" encoding="utf-8"?>
<!-- Generator: Adobe Illustrator 27.7.0, SVG Export Plug-In . SVG Version: 6.00 Build 0)  -->
<svg version="1.1" id="Layer_1" xmlns="http://www.w3.org/2000/svg" xmlns:xlink="http://www.w3.org/1999/xlink" x="0px" y="0px"
	 viewBox="0 0 252 126" style="enable-background:new 0 0 252 126;" xml:space="preserve">
<style type="text/css">
	.st0{fill:#004C93;}
	.st1{fill:#848687;}
	.st2{fill:#FFFFFF;}
</style>
<g transform="matrix(1.25 0 0 -1.25 -218.08 179.35)">
	<g transform="matrix(.25 0 0 .25 174.87 86.088)">
		<g>
			<g>
				<path class="st0" d="M222.9-132C135.3-132,64.2-61,64.2,26.6c0,87.6,71,158.6,158.6,158.6c87.6,0,158.6-71,158.6-158.6
					S310.5-132,222.9-132z M222.9,200.7c-96.2,0-174.1-77.9-174.1-174.1c0-96.2,77.9-174.1,174.1-174.1
					c96.1,0,174.1,77.9,174.1,174.1C396.9,122.8,319,200.7,222.9,200.7"/>
				<path class="st0" d="M272.9-16.9l-34.1,55.5v-55.5h-12.2v80.2h11.1L272,7.8v55.5h12.1v-80.2L272.9-16.9"/>
				<path class="st0" d="M322.6,9.9v-26.8h-12.3v27l-26.7,53.2h13.6l19.1-38.5l19.4,38.5h13.6L322.6,9.9"/>
				<path class="st0" d="M126.9-19.2c-17.9,0-28,6.6-31.1,20.1l-0.3,1.4l5.8,0.8l0.3-1.2c3-12.8,15.4-15.5,25.3-15.5
					c10.9,0,22.7,5.6,22.7,17.9c0,12.7-11.9,15.5-24.4,18.5c-13.1,3.1-26.5,6.3-26.5,21.1c0,15,13.9,20.3,25.8,20.3
					c13.3,0,22.2-4.9,27.4-15l0.6-1.2l-5.2-2.3l-0.6,1.1c-4.3,8.1-11.1,11.7-22.3,11.7c-4.7,0-20-1.1-20-14.5
					c0-10.4,10.3-12.9,22.4-15.7c13.4-3.2,28.6-6.8,28.6-23.9C155.4-11.9,140.6-19.2,126.9-19.2"/>
				<path class="st0" d="M188.8-19.2c-19.4,0-29.3,12.2-29.3,36.2v46.5h5.8V17c0-20.7,7.5-30.4,23.5-30.4c16,0,23.5,9.7,23.5,30.4
					v46.5h5.8V17C218.1-7.4,208.5-19.2,188.8-19.2"/>
			</g>
			<g>
				<path class="st1" d="M428.5,59.3V31.2h-3.1v28.1h-9.7v3h22.5v-3H428.5"/>
				<path class="st1" d="M455.2,31.1v12.5c0,4.2-1.3,6.4-5.8,6.4c-3.2,0-5.4-2.5-5.4-5.6V31.1h-3v31.2h3V50.7
					c1.3,1.5,3.4,2.4,5.4,2.4c6,0,8.7-3.3,8.7-9.2V31.1L455.2,31.1"/>
				<path class="st1" d="M470.7,50.2c-3.9,0-5.8-2.6-6.2-6.4h11.6C476,47.2,474.5,50.2,470.7,50.2z M479.1,40.9h-14.7
					c0.1-4.4,2-7.3,6.7-7.3c2.1,0,4.2,0.8,5.6,2.5l2-2c-1.9-2.4-4.6-3.4-7.6-3.4c-6.9,0-9.7,4.7-9.7,11.1c0,6,2.6,11.3,9.3,11.3
					c6,0,8.5-4.9,8.4-10.3L479.1,40.9"/>
				<path class="st1" d="M504.6,30.7c-5.7,0-11,2.5-12.2,8.6l3.1,0.7c0.9-4.6,4.7-6.3,9.1-6.3c3.8,0,7.9,2,7.9,6.3
					c0,9.3-18.8,3.1-18.8,14.6c0,5.6,5.1,8,10,8c5.1,0,8.7-1.7,11-6.5l-2.8-1.3c-1.7,3.7-4.3,4.7-8.2,4.7c-3.1,0-6.9-1.2-6.9-4.9
					c0-8,18.9-2.6,18.9-14.6C515.6,34,510.1,30.7,504.6,30.7"/>
				<path class="st1" d="M522.6,49.9V36.4c0-2.3,0.7-2.3,2.8-2.3v-2.9h-1.2c-3.2,0-4.5,2.3-4.5,5.3v13.4h-2.9v2.9h2.9v6.3h2.9v-6.3
					h3.3v-2.9H522.6"/>
				<path class="st1" d="M541.6,41.5c-0.5-0.4-1.4-0.5-2-0.5h-4.1c-2.1,0-4.2-1.5-4.2-3.7c0-2.2,2.2-3.6,4.3-3.6
					c2.4,0,4.3,0.5,6,2.2V41.5z M542.4,30.7l-0.5,1.8c-1.8-1.2-4.1-1.8-6.3-1.8c-3.7,0-7.3,2.6-7.3,6.5c0,4.1,3.4,6.5,7.3,6.5h3.7
					c0.9,0,1.7,0.2,2.3,0.8v2.3c0,2.4-2.5,3.3-4.5,3.3c-2.4,0-4.4-0.9-5.2-3.3l-2.7,1c1.2,3.8,4.3,5.3,8,5.3c3.7,0,7.4-2.2,7.4-6.3
					V33.6l0.7-2.1L542.4,30.7"/>
				<path class="st1" d="M553,49.9V36.4c0-2.3,0.7-2.3,2.8-2.3v-2.9h-1.2c-3.2,0-4.5,2.3-4.5,5.3v13.4h-3v2.9h3v6.3h2.9v-6.3h3.4
					v-2.9H553"/>
				<path class="st1" d="M567.5,50.2c-3.9,0-5.8-2.6-6.2-6.4H573C572.8,47.2,571.4,50.2,567.5,50.2z M575.9,40.9h-14.6
					c0.1-4.4,2-7.3,6.7-7.3c2.1,0,4.2,0.8,5.6,2.5l2-2c-1.9-2.4-4.5-3.4-7.6-3.4c-6.9,0-9.7,4.7-9.7,11.1c0,6,2.6,11.3,9.3,11.3
					c6,0,8.5-4.9,8.4-10.3L575.9,40.9"/>
				<path class="st1" d="M599.7,30.7c-8.6,0-11.2,5.9-11.2,13.5v18.1h3.1V44.2c0-5.8,1.3-10.4,8.2-10.4c6.9,0,8.2,4.6,8.2,10.4v18.1
					h3.1V44.2C610.9,36.6,608.3,30.7,599.7,30.7"/>
				<path class="st1" d="M628.7,31.1v12.5c0,4.2-1.3,6.5-5.8,6.5c-3.2,0-5.4-2.6-5.4-5.7V31.1h-3v21.6h3v-2.1
					c1.3,1.5,3.4,2.4,5.4,2.4c6,0,8.7-3.3,8.7-9.2V31.1L628.7,31.1"/>
				<path class="st1" d="M636.3,52.8h3V31.2h-3V52.8z M637.8,58.6c-1.1,0-2.1,0.9-2.1,2.1c0,1.1,0.9,2,2.1,2c1.1,0,2-0.9,2-2
					C639.8,59.6,638.9,58.6,637.8,58.6"/>
				<path class="st1" d="M653.4,31.1h-2.8l-8.1,21.6h3.2l6.3-17l6.4,17h3.2L653.4,31.1"/>
				<path class="st1" d="M671.8,50.2c-3.9,0-5.8-2.6-6.2-6.4h11.6C677,47.2,675.6,50.2,671.8,50.2z M680.2,40.9h-14.6
					c0.1-4.4,2-7.3,6.7-7.3c2.1,0,4.2,0.8,5.6,2.5l2-2c-1.9-2.4-4.6-3.4-7.6-3.4c-6.9,0-9.6,4.7-9.6,11.1c0,6,2.6,11.3,9.2,11.3
					c6,0,8.5-4.9,8.4-10.3L680.2,40.9"/>
				<path class="st1" d="M695.1,49.4c-0.9,0.5-2,0.8-3,0.8c-2.7,0-5.4-1.6-5.4-4.6V31.2h-2.9v21.6h2.9v-1.6c1.5,1.6,3.1,2,5.4,2
					c1.3,0,3.2-0.3,4.1-1.2L695.1,49.4"/>
				<path class="st1" d="M705.6,30.8c-4.4,0-7.7,1.6-8.9,6.1l3,1c0.8-3.1,2.8-4.2,5.9-4.2c2.2,0,5.1,1,5.1,3.7
					c0,5.6-13.3,2.1-13.3,9.9c0,4.1,4,5.9,7.5,5.9c3.7,0,6.4-1.3,8.1-4.7l-2.7-1.3c-1.2,2.4-2.8,3.1-5.4,3.1c-1.8,0-4.5-0.7-4.5-3
					c0-4.5,13.2-1.7,13.2-9.9C713.7,33,709.5,30.8,705.6,30.8"/>
				<path class="st1" d="M717.4,52.8h3V31.2h-3V52.8z M718.9,58.6c-1.1,0-2.1,0.9-2.1,2.1c0,1.1,1,2,2.1,2c1.2,0,2-0.9,2-2
					C720.9,59.6,720.1,58.6,718.9,58.6"/>
				<path class="st1" d="M729.6,49.9V36.4c0-2.3,0.7-2.3,2.8-2.3v-2.9h-1.2c-3.2,0-4.5,2.3-4.5,5.3v13.4h-3v2.9h3v6.3h2.9v-6.3h3.3
					v-2.9H729.6"/>
				<path class="st1" d="M744.4,25.8c-1.1-2.8-3-4.6-6.1-4.5H737l0.1,3l0.9,0c2.1,0,2.9,0.7,3.6,2.6l1.6,4.3l-7.9,21.6h3.2l6.3-17.4
					l6.4,17.4h3.2L744.4,25.8"/>
				<path class="st1" d="M425.9,4.2c-5.2,0-6.1-3.9-6.1-8.3c0-4.4,0.9-8.2,6.1-8.2c5.2,0,6.2,3.8,6.2,8.2
					C432.1,0.4,431.2,4.2,425.9,4.2z M426-15.1c-7,0-9.2,5-9.2,11.1c0,6.2,2.2,11.2,9.2,11.2c7,0,9.1-5.1,9.1-11.2
					C435.1-10.2,432.9-15.1,426-15.1"/>
				<path class="st1" d="M447.7,13.5c-3.7,0-5.1-1.7-5.1-5.3V6.8h4.4V3.9h-4.4v-18.7h-3V3.9h-2v2.9h2v1.3c0,5.2,2.8,8.2,8.1,8.2
					V13.5"/>
				<path class="st1" d="M479.1-14.8L465.9,6.8v-21.6h-4.7v31.2h4.4l13.3-21.6v21.6h4.7v-31.2H479.1"/>
				<path class="st1" d="M500.2,0.9c-0.9,1.3-2,1.9-3.7,1.9c-2.9,0-4.4-1.5-4.9-4h9.1C500.6-0.3,500.4,0.6,500.2,0.9z M491.5-5.6
					c0.1-1.2,0.4-2.4,0.9-3.2c0.7-1.1,2.4-2,4.5-2c1.8,0,3.2,0.5,4.7,2.1l3.7-2.7c-2.4-2.7-5.2-3.7-8.3-3.7c-3.6-0.1-6.7,1.5-8.4,4
					c-1.6,2.3-1.7,5.3-1.7,7.3c0,2.1,0.2,5,1.7,7.3c1.7,2.6,4.6,3.9,8,3.9c3.1,0,5.8-1.4,7.5-3.9c1.6-2.4,1.4-6.1,1.3-8.9H491.5"/>
				<path class="st1" d="M531.6-14.8h-4.1l-5.3,13.9L517-14.8H513l-7.2,22.1h4.9l4.5-13.9l5.2,13.9h4l5.2-14l4.6,14h4.9L531.6-14.8"
					/>
				<path class="st1" d="M562.3-4.4v-10.4h-4.8v10.5l-10.4,20.7h5.3l7.4-14.9l7.6,14.9h5.3L562.3-4.4"/>
				<path class="st1" d="M581.9,1c-0.6,1.2-2.1,1.9-4.1,1.9c-2,0-3.4-0.7-4-1.9c-0.8-1.2-0.9-3.1-0.9-5c0-1.7,0.1-3.8,0.9-5
					c0.7-1.1,2.1-1.8,4-1.8c2,0,3.5,0.7,4.1,1.8c0.8,1.2,0.9,3.3,0.9,5C582.8-2.1,582.7-0.2,581.9,1z M585.8-11.3
					c-1.6-2.6-4.6-4-8-4c-3.3-0.1-6.4,1.4-8,4c-1.4,2.3-1.6,5.4-1.6,7.3c0,2.1,0.2,5,1.6,7.3c1.6,2.6,4.7,4,8,4c3.4,0,6.4-1.4,8-4
					c1.4-2.3,1.6-5.1,1.6-7.2C587.4-5.9,587.3-9,585.8-11.3"/>
				<path class="st1" d="M601.9,2c-1.4,0.8-2.1,0.9-3,0.9c-1.8,0-4.1-1.1-4.1-3.1v-14.5h-4.5V7h4.5V6.4c1.2,0.6,2.7,0.9,4.1,0.9
					c1.6,0,3-0.3,5-1.1L601.9,2"/>
				<path class="st1" d="M618.9-14.8l-8.2,11.9v-11.9h-4.6v31.2h4.6V-2.6l5.6,9.8h4.9l-5.8-10.1l8.9-12H618.9"/>
			</g>
		</g>
		<path class="st2" d="M204.4-130.7c-36.2,4.6-68.1,20.2-93.5,45.5C86.4-60.7,71.4-30.7,66,5c-1.5,9.7-1.5,33.8,0,43.8
			c1.4,9.4,5.2,24.2,8.1,32.2c5.4,14.6,15.2,32,25.3,44.8c5.7,7.2,19.7,20.8,27.6,26.7c20.5,15.4,43.5,25.6,67.4,29.9
			c18.4,3.3,41.6,3.1,60-0.6c33.4-6.7,65.6-25.5,87.9-51.5c17.3-20.1,29.7-44.8,35.1-70.1c3.4-15.6,4.5-37,2.6-51.6
			c-3.6-28.6-14-54.7-30.6-76.7c-4.9-6.5-6.8-8.7-14.6-16.6c-23.8-24.2-54.4-39.9-88.9-45.3C237.6-131.4,213-131.8,204.4-130.7
			L204.4-130.7z M138.2-17.7c7.4,2.5,13,7.2,15.6,12.9c2.9,6.4,1.9,16.5-2.1,21.5c-4.4,5.5-8.8,7.6-25,11.8
			c-12.6,3.3-17.6,5.5-19.9,9c-2.9,4.4-2.6,10.8,0.9,14.8c5.1,6,19.7,7.8,29.2,3.6c3.2-1.4,6.9-4.8,8.9-8c0.7-1.2,1.4-2.3,1.4-2.4
			c0.2-0.3,5.2,2.3,5.2,2.7c0,1.3-3.1,5.9-5.6,8.4c-6.9,6.7-18.9,9.5-30.4,7.1c-11-2.3-17.1-8.6-17.7-18.1c-0.4-6.1,0.6-9.4,4-13.2
			c3.8-4.2,8.4-6.3,22.5-9.9c12.8-3.3,18.1-5.6,21-9.1c6-7.3,3-19-6.1-23.7c-6.5-3.3-16.8-4-24.6-1.6c-6.6,2-11.6,6.8-13.3,12.6
			c-0.7,2.5-0.9,2.7-2.6,2.3c-1-0.2-2.4-0.4-3-0.4c-1.5,0-1.5-1.5,0.1-5.8c3.3-8.8,10.2-13.8,21.6-15.8
			C123.7-19.9,133.6-19.3,138.2-17.7L138.2-17.7z M196.4-18.7c11.3,2.4,17.7,9.2,20.8,21.9c0.8,3.4,1,9.4,1.3,32.5l0.3,28.3
			l-3.3-0.2l-3.3-0.2l-0.3-29.1c-0.4-31.9-0.3-31.6-4.3-38.5c-3.6-6.2-9.6-9-18.9-9c-9.7,0.1-16,3.6-19.4,10.9
			c-3.2,6.7-3.3,8.1-3.6,38l-0.3,28h-3.1h-3.1l0.2-28.6c0.2-27.1,0.3-28.9,1.6-33.5c1.7-6,4-10.3,7.3-13.8
			C174.5-18.3,185.7-21,196.4-18.7L196.4-18.7z M239.2,10l0.2,27.2L256,10l16.7-27.2h5.8h5.8l0,39.1l0,39.1l12.9-25.7l12.9-25.7
			l0-13.5l0-13.5h6.2h6.2v13.3V9.5l13.3,26.6c7.3,14.6,13.3,26.7,13.3,26.9c0,0.2-3.1,0.3-7,0.3h-7l-9.5-19l-9.5-19l-9.3,19l-9.3,19
			h-12.9h-12.9l-0.2-27.1l-0.2-27.1l-16.7,27.1l-16.7,27.1l-6,0l-6,0V23.1v-40.2h6.5h6.5L239.2,10L239.2,10L239.2,10z"/>
	</g>
</g>
</svg>
