<svg width="64" height="64" viewBox="0 0 64 64" fill="none" xmlns="http://www.w3.org/2000/svg">
<rect width="64" height="64" rx="32" fill="white"/>
<path fill-rule="evenodd" clip-rule="evenodd" d="M14 19.4451H32.7498C33.8544 19.4451 34.7498 20.3405 34.7498 21.4451V38.4956C34.7498 39.6002 33.8544 40.4956 32.7498 40.4956H27.8259C26.9037 40.4956 26.136 39.8349 25.6422 39.056C24.7831 37.7008 23.2699 36.8012 21.5478 36.8012C19.7107 36.8012 18.1112 37.8249 17.2901 39.3335C16.9395 39.9775 16.3249 40.4956 15.5917 40.4956V40.4956C14.7136 40.4956 14.0018 39.7838 14.0018 38.9057V19.4469C14.0018 19.4459 14.001 19.4451 14 19.4451V19.4451ZM42.8397 38.7372C41.2373 38.7372 39.9306 40.0439 39.9306 41.6462C39.9306 43.2486 41.2373 44.5553 42.8397 44.5553C44.4421 44.5553 45.7487 43.2486 45.7487 41.6462C45.7487 40.0439 44.4421 38.7372 42.8397 38.7372ZM21.5478 38.7372C19.9454 38.7372 18.6387 40.0439 18.6387 41.6462C18.6387 43.2486 19.9454 44.5553 21.5478 44.5553C23.1502 44.5553 24.4569 43.2486 24.4569 41.6462C24.4569 40.0439 23.1502 38.7372 21.5478 38.7372ZM49.999 31.6545C49.9984 31.655 49.998 31.6558 49.998 31.6567V39.1229C49.998 39.881 49.3834 40.4956 48.6252 40.4956V40.4956C47.9922 40.4956 47.4593 40.0512 47.1765 39.4849C46.382 37.8938 44.7378 36.8012 42.8399 36.8012C40.7723 36.8012 39.0059 38.0977 38.3111 39.9228C38.1858 40.252 37.8852 40.4956 37.5329 40.4956V40.4956C37.1111 40.4956 36.7691 40.1536 36.7691 39.7318V24.3145C36.7691 23.2099 37.6646 22.3145 38.7691 22.3145H42.9243C43.5459 22.3145 44.0816 22.5879 44.4472 23.0902L49.4515 29.9686C49.8233 30.4785 49.9998 31.0202 50 31.6523C50 31.6531 49.9996 31.6539 49.999 31.6545V31.6545ZM42.1993 28.3075C43.5644 28.3075 44.3528 26.7586 43.5496 25.6549V25.6549C43.2353 25.2231 42.7334 24.9676 42.1993 24.9676H40.8405C39.9183 24.9676 39.1706 25.7153 39.1706 26.6375V26.6375C39.1706 27.5598 39.9183 28.3075 40.8405 28.3075H42.1993Z" fill="#151419"/>
</svg>
