<?xml version="1.0" encoding="utf-8"?>
<!-- Generator: Adobe Illustrator 27.7.0, SVG Export Plug-In . SVG Version: 6.00 Build 0)  -->
<svg version="1.1" id="Layer_1" xmlns="http://www.w3.org/2000/svg" xmlns:xlink="http://www.w3.org/1999/xlink" x="0px" y="0px"
	 viewBox="0 0 252 126" style="enable-background:new 0 0 252 126;" xml:space="preserve">
<style type="text/css">
	.st0{fill:#122A4B;}
	.st1{fill:#F15836;}
</style>
<g>
	<g>
		<path class="st0" d="M52.9,49.3v-16H11.8v16h9.1v27.4h-9.1v16h41.1v-16h-9.1V49.3H52.9z M43.7,79h6.8v11.4H14.1V79h6.8
			c1.3,0,2.3-1,2.3-2.3V49.3c0-1.3-1-2.3-2.3-2.3h-6.8V35.6h36.5v11.4h-6.8c-1.3,0-2.3,1-2.3,2.3v27.4C41.4,77.9,42.5,79,43.7,79"/>
		<path class="st1" d="M43.7,47h6.8V35.6H14.1v11.4h6.8c1.3,0,2.3,1,2.3,2.3v27.4c0,1.3-1,2.3-2.3,2.3h-6.8v11.4h36.5V78.9h-6.8
			c-1.3,0-2.3-1-2.3-2.3V49.3C41.4,48,42.5,47,43.7,47"/>
	</g>
	<g>
		<path class="st0" d="M88.4,45.4c-2.6,0-4.2-1.4-4.2-4.3v-5.5h2.1v5.5c0,1.6,0.8,2.4,2,2.4c1.3,0,2-0.8,2-2.3v-5.5h2.1V41
			C92.7,44,91,45.4,88.4,45.4z M105.4,45.2l-4.6-6.1v6.1h-2v-9.6h2l4.5,5.9v-5.9h2v9.6L105.4,45.2L105.4,45.2z M113.5,45.2v-9.6h2.1
			v9.6L113.5,45.2L113.5,45.2z M126.5,45.3h-1.9l-3.9-9.7h2.4l2.5,6.8l2.5-6.8h2.3L126.5,45.3L126.5,45.3z M135.6,45.2v-9.6h7.3v1.9
			h-5.2v2h4.6v1.9h-4.6v2h5.2v1.9h-7.4V45.2z M154.5,45.2l-2-3.1h-1.7v3.1h-2.1v-9.6h4.4c2.3,0,3.6,1.2,3.6,3.2c0,1.5-0.8,2.5-2,3
			l2.4,3.4H154.5L154.5,45.2z M154.6,38.9c0-0.9-0.6-1.4-1.7-1.4h-2.1v2.7h2.1C154,40.3,154.6,39.7,154.6,38.9z M165.8,45.4
			c-1.4,0-3-0.5-4.1-1.5l1.2-1.5c0.8,0.7,1.7,1.1,2.9,1.1c0.8,0,1.4-0.4,1.4-0.9c0-0.5-0.3-0.8-2-1.2c-2-0.5-3.2-1.1-3.2-3
			c0-1.7,1.4-2.9,3.3-2.9c1.4,0,2.6,0.5,3.6,1.2l-1.1,1.6c-0.8-0.6-1.7-0.9-2.5-0.9s-1.2,0.4-1.2,0.8c0,0.6,0.4,0.8,2,1.3
			c2,0.5,3,1.2,3,2.9C169.3,44.3,167.9,45.4,165.8,45.4z M175,45.2v-9.6h2.1v9.6L175,45.2L175,45.2z M187.5,37.6v7.7h-2.1v-7.7h-3
			v-2h8v2H187.5z M201,41.4v3.8h-2.1v-3.8l-3.7-5.8h2.5l2.3,3.9l2.4-3.9h2.4L201,41.4z M221.9,45.4c-3,0-5.1-2.2-5.1-4.9
			c0-2.7,2.1-4.9,5.1-4.9s5.1,2.2,5.1,4.9C227,43.2,224.9,45.4,221.9,45.4z M224.8,40.4c0-1.7-1.2-3-2.9-3c-1.7,0-2.9,1.4-2.9,3
			c0,1.7,1.2,3,2.9,3C223.6,43.5,224.8,42.1,224.8,40.4z M234.8,37.5v2h4.6v1.9h-4.6v3.7h-2.1v-9.6h7.3v1.9H234.8L234.8,37.5z"/>
		<path class="st0" d="M85.1,77V52.4h5.4V77C90.5,77,85.1,77,85.1,77z M96.9,77V52.4h5.4v19.7h12.3V77H96.9z M118.6,77V52.4h5.4
			v19.7h12.3V77H118.6z M140.4,77V52.4h5.4V77C145.8,77,140.4,77,140.4,77z M169.5,77l-11.9-15.6V77h-5.3V52.4h5l11.5,15.2V52.4h5.3
			V77C174.1,77,169.5,77,169.5,77z M192.3,77.5c-7.6,0-13.1-5.7-13.1-12.7v-0.1c0-7,5.5-12.8,13.1-12.8c7.6,0,13.1,5.7,13.1,12.7
			v0.1C205.4,71.7,199.8,77.5,192.3,77.5z M199.7,64.7c0-4.3-3.1-7.7-7.4-7.7s-7.4,3.4-7.4,7.7v0.1c0,4.3,3.1,7.7,7.4,7.7
			C196.7,72.4,199.7,69,199.7,64.7z M210.6,77V52.4h5.4V77C216,77,210.6,77,210.6,77z M231.1,77.4c-3.7,0-7.5-1.3-10.5-3.9l3.2-3.9
			c2.2,1.8,4.6,3,7.4,3c2.2,0,3.6-0.9,3.6-2.4v-0.1c0-1.4-0.8-2-4.9-3.1c-4.9-1.3-8.1-2.7-8.1-7.5v-0.1c0-4.5,3.6-7.4,8.7-7.4
			c3.6,0,6.7,1.1,9.1,3.1l-2.8,4.1c-2.2-1.5-4.3-2.4-6.4-2.4c-2,0-3.2,1-3.2,2.1v0.1c0,1.6,1.1,2.1,5.3,3.3c5,1.3,7.8,3.1,7.8,7.4
			v0.2C240.2,74.6,236.4,77.4,231.1,77.4z"/>
		<path class="st0" d="M85.1,87.7v-3.6h1.4v3.5c0,1,0.5,1.5,1.4,1.5s1.4-0.5,1.4-1.5v-3.5h1.4v3.5c0,1.9-1.1,2.8-2.7,2.8
			C86.1,90.4,85.1,89.5,85.1,87.7L85.1,87.7z M95.6,84.1h2.8c0.8,0,1.4,0.2,1.8,0.6c0.4,0.4,0.5,0.8,0.5,1.4c0,1-0.5,1.6-1.4,1.9
			l1.5,2.2h-1.6l-1.4-2h-1.1v2h-1.4L95.6,84.1L95.6,84.1z M98.3,87.2c0.7,0,1.1-0.4,1.1-0.9c0-0.6-0.4-0.9-1.1-0.9h-1.4v1.8H98.3z
			 M105.7,84.1h2.9c0.7,0,1.3,0.2,1.6,0.5c0.3,0.3,0.5,0.6,0.5,1.1c0,0.7-0.4,1.1-0.8,1.4c0.7,0.3,1.1,0.7,1.1,1.5
			c0,1.1-0.9,1.7-2.4,1.7h-3L105.7,84.1L105.7,84.1z M109.2,86c0-0.4-0.3-0.6-0.9-0.6h-1.4v1.3h1.3C108.8,86.6,109.2,86.5,109.2,86z
			 M108.5,87.8h-1.6v1.4h1.6c0.6,0,1-0.2,1-0.7C109.6,88.1,109.3,87.8,108.5,87.8z M117.9,84.1h1.3l2.7,6.2h-1.4l-0.5-1.4h-2.7
			l-0.5,1.4h-1.4L117.9,84.1z M119.3,87.8l-0.8-2l-0.8,2H119.3L119.3,87.8z M126.5,84.1h1.3l2.9,3.8v-3.8h1.4v6.2h-1.1l-3-3.9v3.9
			h-1.4V84.1z M139.2,84.1h1.3l2.7,6.2h-1.4l-0.5-1.4h-2.7l-0.5,1.4h-1.4L139.2,84.1z M140.6,87.8l-0.8-2l-0.8,2H140.6L140.6,87.8z
			 M147.3,86.9h2.7v1.3h-2.7V86.9z M154.3,87.2c0-1.7,1.4-3.2,3.3-3.2c1.1,0,1.9,0.4,2.4,1l-0.8,1c-0.5-0.5-1-0.7-1.6-0.7
			c-1.1,0-1.8,0.8-1.8,1.9c0,1.1,0.8,2,1.8,2c0.7,0,1.1-0.3,1.6-0.8l0.8,0.9c-0.6,0.7-1.4,1.1-2.6,1.1
			C155.7,90.4,154.3,89.1,154.3,87.2z M164.8,84.1h1.4v2.4h2.5v-2.4h1.4v6.2h-1.4v-2.5h-2.5v2.5h-1.4V84.1z M177.3,84.1h1.3l2.7,6.2
			h-1.4l-0.5-1.4h-2.7l-0.5,1.4h-1.4L177.3,84.1z M178.7,87.8l-0.8-2l-0.8,2H178.7L178.7,87.8z M185.9,84.1h1.4l1.6,2.7l1.6-2.7h1.4
			v6.2h-1.4v-4l-1.7,2.7l-1.7-2.7v4h-1.4v-6.2H185.9z M197.3,84.1h2.5c1.4,0,2.4,0.9,2.4,2.1c0,1.4-1.1,2.2-2.5,2.2h-1.1v1.9h-1.4
			L197.3,84.1L197.3,84.1z M199.7,87.3c0.7,0,1.1-0.4,1.1-0.9c0-0.6-0.5-0.9-1.1-0.9h-1.1v1.9L199.7,87.3L199.7,87.3z M208.3,84.1
			h1.3l2.7,6.2h-1.4l-0.5-1.4h-2.7l-0.5,1.4h-1.4L208.3,84.1z M209.8,87.8l-0.8-2l-0.8,2H209.8z M217,84.1h1.4v6.2H217V84.1z
			 M223.3,87.2c0-1.7,1.4-3.2,3.3-3.2c1.1,0,1.8,0.3,2.4,0.8l-0.8,1.1c-0.5-0.4-0.9-0.6-1.6-0.6c-1,0-1.7,0.9-1.7,1.9
			c0,1.1,0.8,2,1.9,2c0.5,0,0.9-0.2,1.3-0.4v-0.9h-1.4v-1.2h2.7v2.7c-0.6,0.5-1.5,1-2.7,1C224.7,90.4,223.3,89.1,223.3,87.2z
			 M234.2,84.1h1.3l2.9,3.8v-3.8h1.4v6.2h-1.1l-3-3.9v3.9h-1.4V84.1z"/>
	</g>
</g>
</svg>
