<?xml version="1.0" encoding="utf-8"?>
<!-- Generator: Adobe Illustrator 27.7.0, SVG Export Plug-In . SVG Version: 6.00 Build 0)  -->
<svg version="1.1" id="Layer_1" xmlns="http://www.w3.org/2000/svg" xmlns:xlink="http://www.w3.org/1999/xlink" x="0px" y="0px"
	 viewBox="0 0 252 126" style="enable-background:new 0 0 252 126;" xml:space="preserve">
<style type="text/css">
	.st0{fill:#FFFFFF;}
	.st1{fill:#0055A6;}
	.st2{fill:#E22F24;}
	.st3{fill:#FDBC5F;}
	.st4{fill:#6E6F72;}
</style>
<g>
	<g>
		<path class="st0" d="M44.4,99.9l-9.7-5.3c0,0-7.2-4.6-8.6-6c-1.4-1.4-10-9.4-10-19.5V26.1h28.3h28.3v43.1c0,10.1-8.6,18.1-10,19.5
			c-1.4,1.4-8.6,6-8.6,6L44.4,99.9z"/>
		<rect x="17.8" y="28" class="st1" width="53.2" height="17.6"/>
		<path class="st2" d="M36,45.6h16.9v13.9h18c0.4,6.7,0.4,12.7-1.4,16.1H52.9v17.6l-8.6,4.7l-8.3-4.5V75.6H19.1
			c-1.5-2.9-1.4-9.6-1.3-16.1h18.1L36,45.6L36,45.6z"/>
		<path d="M17.3,27.5v41.3c0,4.3,1.6,10.9,9.4,18.6l0.2,0.2c1.4,1.4,7.9,5.6,8.2,5.8l9.4,5.1l9.4-5.1c0.3-0.2,6.8-4.4,8.2-5.7
			l0.2-0.2c7.8-7.7,9.4-14.4,9.4-18.6V27.5H17.3z M18.3,28.5h52.2v16.7H18.3V28.5z M53.2,46h17.3v13.2H53.2V46z M35.6,46v13.2H18.3
			V46C18.3,46,35.6,46,35.6,46z M27.6,86.9l-0.2-0.2c-3.9-3.9-6.2-7.5-7.5-10.7h15.7v16.5l0,0C35.5,92.5,28.9,88.2,27.6,86.9z
			 M61.4,86.7l-0.2,0.2c-1.3,1.3-7.9,5.6-8,5.6l-0.1,0V76H69C67.7,79.2,65.4,82.8,61.4,86.7z M69.3,75.3H52.5v17.7l-8.1,4.4
			l-8.1-4.4V75.3H19.5c-0.9-2.5-1.2-4.7-1.2-6.4v-8.9h18V46h16.2v13.9h18v8.9C70.5,70.6,70.2,72.8,69.3,75.3z"/>
		<g>
			<path d="M52.6,67.7c-0.1-0.4-0.4-0.8-0.7-0.9c-0.3-0.1-0.5-0.3-0.6-0.4c-0.1-0.1,0-0.3,0-0.3l0.8-0.8L51,65.2
				c0,0-0.2-0.1-0.2-0.2c0-0.1,0.1-0.4,0.3-0.7c0.2-0.3,0.3-0.8,0.1-1.1c-0.5-1-1.8-1.8-2.1-1.8c-0.1-0.2-1.4-1.2-2.4-1.4
				c-0.4-0.1-0.9,0.1-1.1,0.4c-0.2,0.3-0.5,0.4-0.6,0.5c-0.1,0.1-0.2-0.1-0.2-0.1l-0.5-1l-0.5,1c0,0-0.1,0.2-0.2,0.1
				s-0.3-0.2-0.5-0.5c-0.2-0.3-0.6-0.5-1.1-0.4c-1,0.1-2.2,1.2-2.4,1.4c-0.2,0.1-1.6,0.9-2.1,1.8c-0.2,0.4-0.1,0.8,0,1.1
				c0.2,0.3,0.2,0.6,0.3,0.7c0,0.1-0.2,0.2-0.2,0.2l-1.1,0.1l0.7,0.8c0,0,0.1,0.2,0,0.3c-0.1,0.1-0.3,0.2-0.6,0.4
				c-0.3,0.1-0.7,0.5-0.7,0.9c-0.2,1,0.4,2.5,0.6,2.7c0,0.2,0.4,1.8,1.1,2.5c0.3,0.3,0.8,0.4,1.1,0.3c0.3-0.1,0.6,0,0.7,0
				c0.1,0,0.1,0.2,0.1,0.2l-0.1,1l1-0.5c0,0,0.2-0.1,0.3,0.1c0,0.1,0.1,0.4,0.1,0.7c0,0.3,0.2,0.8,0.6,1c0.9,0.5,2.5,0.4,2.7,0.3
				c0.2,0.1,1.8,0.2,2.8-0.2c0.4-0.2,0.6-0.6,0.7-0.9c0-0.3,0.1-0.6,0.2-0.7c0-0.1,0.3-0.1,0.3-0.1l1,0.5l-0.1-1c0,0,0-0.2,0.1-0.2
				c0.1,0,0.4,0,0.7,0.1c0.3,0.1,0.8,0,1.1-0.3c0.8-0.7,1.1-2.2,1.1-2.5C52.2,70.3,52.8,68.8,52.6,67.7z M39.3,72.3
				c-0.7,0.1-1.1,0-1.3-0.3c-0.2-0.4-0.3-1-0.3-1.2c0-0.1,0.1-0.9,0-1c0-0.1-0.5-0.5-0.5-0.6c-0.1-0.1-0.4-0.7-0.5-1.1
				c-0.1-0.4,0.3-0.7,0.8-1.1c0.5-0.4,1.2,0.1,1.2,0.2c0.1,0.1,0,0.2,0,0.3c0,0.1,0,0.4,0,0.5c0,0.1,0.2,0.3,0.2,0.3l0.3,0.1
				c0,0,0.2,0.1,0.2,0.3c0,0.2-0.4,0.7-0.4,0.7s0.6,0.1,0.7,0.2c0.1,0.1,0,0.4,0,0.4l-0.1,0.3c0,0,0,0.2,0.1,0.3
				c0.1,0.1,0.2,0.3,0.3,0.4c0.1,0.1,0.2,0.1,0.2,0.2C40.1,71.5,39.9,72.3,39.3,72.3z M41,63.9c-0.1,0.2-0.4,0.2-0.4,0.2l-0.3,0
				c0,0-0.2,0.1-0.3,0.2c-0.1,0.1-0.2,0.3-0.3,0.4c-0.1,0.1,0,0.2-0.2,0.3c-0.1,0.1-0.9,0.2-1.2-0.4c-0.3-0.6-0.4-1.1-0.1-1.4
				c0.3-0.3,0.9-0.6,1-0.7c0.1-0.1,0.9-0.2,0.9-0.3c0.1,0,0.3-0.6,0.4-0.7c0.1-0.1,0.5-0.6,0.9-0.8c0.4-0.2,0.8,0,1.3,0.4
				c0.5,0.4,0.3,1.2,0.1,1.3c-0.1,0.1-0.2,0.1-0.3,0.1c-0.1,0-0.4,0.1-0.5,0.2c-0.1,0.1-0.2,0.3-0.2,0.3l0,0.3c0,0-0.1,0.3-0.2,0.3
				c-0.2,0-0.8-0.2-0.8-0.2S41.1,63.7,41,63.9z M46.4,75c-0.5,0.1-1.1,0-1.2-0.1c-0.1,0-0.8-0.3-0.9-0.3c-0.1-0.1-0.6,0.3-0.7,0.3
				c-0.1,0-0.8,0.2-1.2,0.2c-0.5,0-0.6-0.5-0.8-1.1C41.2,73.5,41.9,73,42,73c0.2,0,0.2,0,0.3,0.1c0.1,0.1,0.3,0.1,0.5,0.1
				c0.1,0,0.3-0.1,0.3-0.1l0.2-0.2c0,0,0.2-0.2,0.4-0.1c0.2,0.1,0.5,0.6,0.5,0.6s0.3-0.5,0.5-0.6c0.2-0.1,0.4,0.1,0.4,0.1l0.2,0.2
				c0,0,0.2,0.1,0.4,0c0.1,0,0.3-0.1,0.5-0.2c0.1-0.1,0.1-0.1,0.3-0.1c0.1,0,0.9,0.4,0.7,1C47,74.5,46.8,75,46.4,75z M48.2,64.2
				c0,0-0.3,0-0.4-0.1c-0.1-0.1-0.1-0.8-0.1-0.8s-0.6,0.3-0.7,0.2c-0.2,0-0.3-0.3-0.3-0.3l0-0.3c0,0-0.1-0.2-0.3-0.2
				c-0.1-0.1-0.4-0.1-0.5-0.1c-0.1,0-0.2,0-0.3-0.1c-0.1-0.1-0.5-0.8,0-1.2c0.5-0.4,0.9-0.7,1.3-0.5c0.4,0.2,0.9,0.7,1,0.8
				c0.1,0.1,0.5,0.8,0.6,0.8c0,0.1,0.7,0.1,0.8,0.2c0.1,0.1,0.7,0.3,1.1,0.6c0.3,0.3,0.2,0.7,0,1.4c-0.2,0.6-1,0.6-1.2,0.5
				c-0.1-0.1-0.1-0.1-0.2-0.3c-0.1-0.1-0.2-0.3-0.3-0.4c-0.1-0.1-0.3-0.1-0.3-0.1L48.2,64.2z M51.5,69.3c-0.1,0.1-0.6,0.7-0.5,0.8
				c-0.1,0.1,0.1,0.7,0.1,0.8c0,0.1-0.1,0.8-0.2,1.2c-0.2,0.4-0.6,0.5-1.3,0.5c-0.7,0-0.9-0.8-0.8-0.9c0-0.1,0.1-0.2,0.2-0.3
				c0.1-0.1,0.2-0.3,0.3-0.4c0.1-0.1,0-0.4,0-0.4L49,70.3c0,0-0.1-0.3,0-0.4c0.1-0.1,0.7-0.3,0.7-0.3s-0.4-0.4-0.4-0.6
				c0-0.2,0.2-0.3,0.2-0.3l0.3-0.1c0,0,0.1-0.2,0.1-0.3c0-0.1,0-0.4,0-0.5s-0.1-0.2,0-0.3c0-0.1,0.6-0.7,1.2-0.4
				c0.6,0.3,0.9,0.6,0.9,1.1C51.9,68.5,51.6,69.1,51.5,69.3z"/>
			<path class="st0" d="M44.4,70.6c0,0-0.4,0-0.5,0.3c-0.1,0.3,0.1,0.6-0.1,0.8c-0.3,0.2-0.2,0.3-0.5,0.2c-0.3-0.1-0.5-0.3-0.6-0.5
				c-0.1-0.3-0.3-0.4-0.6-0.6c-0.3-0.2-0.5-0.4-0.8-0.4c-0.3,0-0.5-0.1-0.7-0.4c-0.2-0.3-0.1-0.1,0-0.5c0.1-0.4,0.5-0.2,0.8-0.4
				c0.3-0.2,0.2-0.6,0.2-0.6s-0.2-0.4-0.6-0.4c-0.4,0-0.6,0.3-0.8,0.2c-0.2-0.2-0.4,0-0.4-0.4c0-0.4,0.1-0.5,0.3-0.7
				c0.2-0.2,0.3-0.4,0.4-0.8c0.1-0.3,0.2-0.6,0.1-0.9c-0.1-0.3,0-0.5,0.2-0.7c0.2-0.3,0-0.2,0.5-0.2c0.4,0,0.3,0.4,0.6,0.7
				c0.3,0.2,0.6,0,0.6,0s0.4-0.3,0.2-0.6c-0.1-0.3-0.5-0.4-0.4-0.7c0.1-0.3-0.1-0.4,0.3-0.5c0.3-0.1,0.5,0,0.8,0.1
				c0.2,0.1,0.5,0.2,0.9,0.1c0.3,0,0.6,0,0.9-0.1c0.2-0.1,0.4-0.2,0.8-0.1c0.3,0.1,0.2,0,0.3,0.4c0.1,0.4-0.3,0.5-0.4,0.8
				c-0.1,0.3,0.2,0.6,0.2,0.6s0.4,0.3,0.7,0.1c0.3-0.2,0.3-0.6,0.6-0.6c0.3,0,0.3-0.2,0.5,0.1c0.2,0.3,0.2,0.5,0.1,0.8
				c-0.1,0.3,0,0.5,0.1,0.9c0.1,0.3,0.2,0.6,0.4,0.8c0.2,0.2,0.3,0.3,0.3,0.7c0,0.4,0.1,0.1-0.3,0.4c-0.3,0.2-0.5-0.2-0.9-0.2
				c-0.4,0-0.6,0.4-0.6,0.4s-0.1,0.4,0.2,0.6s0.7,0.1,0.7,0.3c0.1,0.3,0.3,0.2,0.1,0.5c-0.2,0.3-0.4,0.4-0.7,0.4
				c-0.3,0-0.5,0.2-0.8,0.4c-0.3,0.2-0.5,0.4-0.6,0.6c-0.1,0.3-0.2,0.4-0.6,0.5c-0.3,0.1-0.1,0.1-0.5-0.1c-0.3-0.3,0-0.6-0.1-0.9
				C44.8,70.7,44.4,70.6,44.4,70.6"/>
			<polygon class="st3" points="44.4,65.4 43.7,66.8 42.4,67 43.4,67.9 43,69.5 44.4,68.6 45.7,69.5 45.4,67.9 46.4,67 45.1,66.8 
							"/>
			<g>
				<polygon class="st3" points="52.2,72.3 54.3,74.7 51.5,73.3 				"/>
				<polygon class="st3" points="52.4,63.6 59.3,61.3 52.9,64.9 				"/>
				<polygon class="st3" points="53.3,67 60.6,67.7 53.3,68.5 				"/>
				<polygon class="st3" points="53,70.4 59.3,74.1 52.5,71.8 				"/>
				<polygon class="st3" points="53.1,65.5 55.5,65.3 53.3,66.5 				"/>
				<polygon class="st3" points="53.3,69 55.6,70.1 53.1,70 				"/>
				<polygon class="st3" points="36.3,72 29.3,74.2 35.7,70.6 				"/>
				<polygon class="st3" points="35.3,68.5 28,67.8 35.3,67.1 				"/>
				<polygon class="st3" points="35.7,65.2 29.3,61.5 36.2,63.8 				"/>
				<polygon class="st3" points="35.6,70 33.1,70.2 35.4,69.1 				"/>
				<polygon class="st3" points="35.4,66.5 33.1,65.4 35.6,65.6 				"/>
				<polygon class="st3" points="48.3,75.8 50.5,82.8 46.9,76.4 				"/>
				<polygon class="st3" points="44.8,76.8 44.1,84.1 43.3,76.8 				"/>
				<polygon class="st3" points="41.4,76.5 37.8,82.8 40,75.9 				"/>
				<polygon class="st3" points="46.3,76.6 46.5,79 45.4,76.8 				"/>
				<polygon class="st3" points="42.8,76.8 41.7,79 41.9,76.6 				"/>
				<polygon class="st3" points="38.3,74.6 35.8,76 37.5,73.7 				"/>
				<polygon class="st3" points="37.1,73.3 34.2,74.3 36.5,72.4 				"/>
				<polygon class="st3" points="39.6,75.6 37.3,77.7 38.7,74.9 				"/>
				<polygon class="st3" points="51.1,73.7 52.6,76.2 50.3,74.5 				"/>
				<polygon class="st3" points="49.9,75 50.9,77.8 49,75.5 				"/>
				<polygon class="st3" points="50.3,60.9 52.8,59.4 51.1,61.7 				"/>
				<polygon class="st3" points="51.6,62.2 54.4,61.1 52.1,63 				"/>
				<polygon class="st3" points="49,59.8 51.3,57.8 49.9,60.6 				"/>
				<polygon class="st3" points="37.4,61.8 36,59.3 38.2,61 				"/>
				<polygon class="st3" points="38.7,60.6 37.6,57.7 39.5,60 				"/>
				<polygon class="st3" points="36.4,63.3 34.3,60.8 37.1,62.2 				"/>
			</g>
			<path class="st3" d="M50.3,53.9l-0.1,0.3l-0.1,0.7c-0.7-0.5-1.1,0.8-1.1,0.8l0,0.3l0.2-0.1l0.3-0.1l0.1,0.2
				c0.2,0.8-1,1.2-1.3,1.3c-0.3,0.1-0.5,0-0.8-0.2c-0.3-0.2-0.1-1.2,0-1.3c0.1-0.1,0.2-0.1,0.2-0.1l0,0.2l0.2,0.4l0.3-0.2l0.3-0.6
				l-0.1-0.4l-0.4,0c0.5-0.8,0.1-1.8,0.1-1.8c-1-0.1-1.1,1.1-1.1,1.1l-0.2-0.2l-0.3,0.2L46.3,55l0,0.3h0.2l0.2-0.1
				c0,0,0.1-0.3,0.1,0.2c0,0.6-0.4,0.9-0.6,1c-0.2,0.1-0.8-0.1-0.8-0.1L45,56.2c0,0-0.1-0.4-0.1-0.6c0-0.2,0-0.4,0-0.4l0.2,0
				l0.4,0.1l0.3,0.3V55l0.1-0.4l0.1-0.7l0-0.7l-0.3,0.1l-0.5-0.1l-0.3-0.1L45,53l0.2-0.1l0.2,0c3.9,0.1,5.9,1.3,5.9,1.3l-0.1-0.6
				C49,52.1,45.3,52,45.3,52l0-0.3c4,0.2,5.7,1.4,5.7,1.4l-0.2-0.5c-2.6-1.9-5.8-1.6-5.8-1.6s0,0,0,0c0,0,0,0,0,0
				c-0.1-0.1-0.4-0.2-0.4-0.2v-0.3l0.1-0.1l0.2-0.3l0.7,0.2v-1l-0.7,0.1l0.1-0.7l-0.7,0.1l-0.7-0.1l0.1,0.7l-0.7-0.1v1l0.7-0.2
				l0.2,0.3l0.1,0.1v0.3c0,0-0.3,0-0.4,0.2c0,0-3.2-0.3-5.8,1.6l-0.2,0.5c0,0,1.7-1.2,5.7-1.4l0,0.3c0,0-3.7,0-5.9,1.6l-0.1,0.6
				c0,0,2.1-1.3,5.9-1.3l0.2,0l0.2,0.1l0.1,0.2l-0.3,0.1l-0.5,0.1l-0.3-0.1l0,0.7l0.1,0.7l0.1,0.4v0.4l0.3-0.3l0.4-0.1l0.2,0
				c0,0,0,0.2,0,0.4c0,0.2-0.1,0.6-0.1,0.6l-0.4,0.3c0,0-0.6,0.2-0.8,0.1c-0.2-0.1-0.6-0.5-0.6-1c0-0.5,0.1-0.2,0.1-0.2l0.2,0.1h0.2
				l0-0.3l-0.1-0.5l-0.3-0.2l-0.2,0.2c0,0-0.1-1.1-1.1-1.1c0,0-0.3,1,0.1,1.8l-0.4,0l-0.1,0.4l0.3,0.6l0.3,0.2l0.2-0.4l0-0.2
				c0,0,0.1-0.1,0.2,0.1c0.1,0.1,0.4,1.1,0,1.3s-0.5,0.3-0.8,0.2c-0.3-0.1-1.5-0.5-1.3-1.3l0.1-0.2l0.3,0.1l0.2,0.1l0-0.3
				c0,0-0.3-1.3-1.1-0.8l-0.1-0.7l-0.1-0.3L38,54.2l-0.2,0.2l2.5,5.1c0,0,1.5-0.9,4.1-0.9s4.1,0.9,4.1,0.9l2.5-5.1l-0.2-0.2
				L50.3,53.9z M41.5,58.9c-0.4,0.1-0.7,0.1-0.8-0.1c-0.1-0.2,0.1-0.5,0.5-0.7s0.7-0.1,0.8,0.1C42.1,58.4,41.9,58.7,41.5,58.9z
				 M44.5,57.8c-0.4,0-0.7-0.2-0.7-0.4s0.3-0.4,0.7-0.4s0.7,0.2,0.7,0.4S44.9,57.8,44.5,57.8z M47.6,58.7c-0.1,0.2-0.5,0.2-0.8,0.1
				c-0.3-0.2-0.6-0.5-0.5-0.7c0.1-0.2,0.5-0.2,0.8-0.1C47.5,58.2,47.7,58.5,47.6,58.7z"/>
		</g>
		<g>
			<path d="M66.2,38c-0.3-0.2-0.5-0.7-0.5-0.8c-0.1-0.3-0.5-0.5-0.9-0.2c-0.1,0.1-0.1,0.1-0.2,0.2c-0.2,0.2-0.2,0.2-0.4,0.2h-1h-1.8
				l0-2c0.6,0,2.5,0,2.7,0c0.2,0,0.3,0.1,0.6,0.4l0.1,0.1c0.1,0.1,0.3,0.2,0.4,0.2c0.3,0,0.4-0.2,0.5-0.4c0-0.2,0.2-0.6,0.5-0.8
				c0.4-0.2,0.5-0.6,0.4-0.9c0,0,0-0.1,0-0.1c0-0.2-0.2-0.4-0.4-0.6c-0.3-0.2-0.5-0.7-0.5-0.8c-0.1-0.3-0.5-0.5-0.9-0.2
				c-0.1,0.1-0.1,0.1-0.2,0.2c-0.2,0.2-0.2,0.2-0.4,0.2h-1h-1.8V32l0-0.3c0-0.1-0.1-0.2-0.2-0.3c0,0-0.2-0.1-0.5-0.4
				c-0.4-0.5-0.8-0.7-0.9-0.7c-0.1,0-0.2,0-0.2,0l-0.8-0.9l0,0c0-0.1-0.1-0.2-0.2-0.3s-0.2,0-0.3,0c-0.3,0.3-0.6,0.5-0.6,0.5
				c-0.2,0.1-1.3,0.7-3.1,0.7c-0.8,0-1.8-0.1-2.7-0.4c-0.7-0.2-1.4-0.3-2.1-0.3c-2.7,0-4.8,1.3-5.2,1.6c-0.4-0.3-2.5-1.6-5.2-1.6
				c-0.7,0-1.4,0.1-2.1,0.3c-0.9,0.2-1.8,0.4-2.7,0.4c-1.8,0-2.9-0.6-3.1-0.7c-0.1-0.1-0.3-0.3-0.6-0.6c-0.1-0.1-0.2-0.1-0.3,0
				c-0.1,0-0.1,0.1-0.2,0.2l-0.9,1c-0.1-0.1-0.2-0.1-0.3,0c0,0-0.4,0.2-0.8,0.7c-0.3,0.3-0.5,0.4-0.5,0.4c-0.1,0-0.2,0.1-0.2,0.3
				l0,1H26h-1c-0.2,0-0.3-0.1-0.4-0.2c-0.1-0.1-0.1-0.1-0.2-0.2c-0.4-0.3-0.8-0.1-0.9,0.2c0,0.1-0.3,0.6-0.5,0.8
				c-0.3,0.2-0.4,0.4-0.4,0.6c0,0,0,0.1,0,0.1c0,0.2,0,0.6,0.4,0.9c0.3,0.2,0.5,0.6,0.5,0.8c0,0.2,0.2,0.4,0.5,0.4
				c0.1,0,0.3-0.1,0.4-0.2l0.1-0.1c0.3-0.3,0.4-0.3,0.6-0.4c0.3,0,2.1,0,2.8,0l0,2H26h-1c-0.2,0-0.3-0.1-0.4-0.2
				c-0.1-0.1-0.1-0.1-0.2-0.2c-0.4-0.3-0.8-0.1-0.9,0.2c-0.1,0.1-0.3,0.6-0.5,0.8c-0.3,0.2-0.4,0.4-0.4,0.6c0,0,0,0.1,0,0.1
				c0,0.2,0,0.6,0.4,0.9c0.3,0.2,0.4,0.6,0.5,0.8c0,0.2,0.2,0.4,0.5,0.4c0.1,0,0.3-0.1,0.4-0.2l0.1-0.1c0.3-0.3,0.4-0.3,0.5-0.3
				c0.3,0,2.1,0,2.7,0l0,2.5c0,0.1,0,0.2,0.1,0.2c0.1,0.1,0.1,0.1,0.2,0.1l13.9-0.2c-0.1,0.1-0.1,0.3-0.1,0.5c0,0.4,0.3,1.2,2,1.2
				c0.3,0,0.6,0,0.6,0h0.3c0,0,0.3,0,0.6,0c1.6,0,1.9-0.7,2-1.2c0-0.2,0-0.4-0.1-0.5l13.9,0.2c0.1,0,0.2,0,0.2-0.1
				c0.1-0.1,0.1-0.1,0.1-0.2l0-2.5c0.7,0,2.4,0,2.7,0c0.2,0,0.3,0.1,0.5,0.3l0.1,0.1c0.1,0.1,0.3,0.2,0.4,0.2c0.3,0,0.4-0.2,0.5-0.4
				c0-0.1,0.2-0.6,0.5-0.8c0.4-0.2,0.5-0.6,0.4-0.9c0,0,0-0.1,0-0.1C66.6,38.3,66.4,38.2,66.2,38z"/>
			<path class="st3" d="M58.8,39c0,0.1-0.1,0.2-0.2,0.3l-0.3,0.1c0,0-0.8,0.5-3.3,0.5c-1,0-2.1-0.1-3.4-0.2c-1-0.1-1.8-0.2-2.6-0.2
				c-0.9,0-2.4,0.2-3,0.5c-1,0.6-0.7,0.7-1.3,1.1c-0.1,0-0.1,0.1-0.2,0.1c0,0-0.1,0-0.1,0c0,0-0.1,0-0.1,0c-0.1,0-0.1,0-0.2-0.1
				c-0.5-0.4-0.2-0.6-1.4-1.2c-0.7-0.4-2-0.5-2.9-0.5c-0.8,0-1.6,0.1-2.6,0.2c-1.3,0.2-2.4,0.2-3.4,0.2c-2.5,0-3.3-0.5-3.3-0.6
				l-0.2-0.1c-0.1-0.1-0.2-0.2-0.2-0.3l0-9l-0.7,0.8l0,5.2l0,3.7c0.2,0.2,1.1,1.2,4.1,1.2c1.1,0,2.7-0.1,4.1-0.3
				c1.2-0.2,2.3-0.3,3.3-0.3c2.3,0,2.7,0.4,2.8,0.5c0.1,0.1,0.1,0.2,0,0.3l-0.1,0.3c0,0.1-0.2,0.4,0,0.9c0.1,0.3,0.5,0.4,0.7,0.4
				c0,0,0,0,0,0h0.2h0c0.3,0,0.6-0.1,0.7-0.4c0.2-0.5,0.1-0.8,0.1-0.8l-0.1-0.3c0-0.1,0-0.2,0-0.3c0.1-0.1,0.5-0.5,2.8-0.5
				c0.9,0,2,0.1,3.3,0.3c1.4,0.2,2.7,0.3,3.8,0.3c2.9,0,4.1-1,4.3-1.2l0-9l-0.7-0.7L58.8,39z"/>
			<path class="st0" d="M43.2,39.7c0.1,0,0.3,0.2,1.2,0.7v-8.5c-0.7-0.3-2.7-1.4-5.1-1.4c-0.7,0-1.3,0.1-2,0.3
				c-1,0.3-1.9,0.4-2.8,0.4c-2.1,0-3.6-0.8-3.7-1c0,0,0,0,0,0l0,8.9l0.1,0.1c0,0,0.9,0.5,3.2,0.5c1,0,2.1-0.1,3.3-0.2
				C40.1,38.9,42.2,39.1,43.2,39.7"/>
			<path class="st3" d="M23,38.6c0,0,0,0.1,0,0.1c0,0,0,0.2,0.1,0.3c0.5,0.3,0.7,0.8,0.8,1.1l0,0c0.3-0.3,0.6-0.5,1-0.5
				c0.3,0,2,0,2.8,0l0-0.8v-0.9H26H25c-0.5,0-0.7-0.2-0.9-0.4c0,0-0.1-0.1-0.1-0.1c-0.1,0.2-0.3,0.8-0.8,1.1
				C23,38.5,23,38.6,23,38.6"/>
			<path class="st3" d="M23,33.9c0,0,0,0.1,0,0.1c0,0,0,0.2,0.1,0.3c0.5,0.3,0.7,0.9,0.8,1.1l0,0c0.3-0.3,0.6-0.5,1-0.6
				c0.3,0,2.1,0,2.9,0l0-0.8v-0.9h-1.8H25c-0.5,0-0.7-0.2-0.9-0.4c0,0-0.1-0.1-0.1-0.1c-0.1,0.2-0.3,0.8-0.8,1.1
				C23,33.8,23,33.9,23,33.9"/>
			<path class="st4" d="M42.4,33.9c-1.3-0.6-2.8-1.3-5.2-0.7c-1.5,0.4-3.5,0.6-4.6,0.2l0.2-0.5c0.8,0.3,2.4,0.3,4.2-0.2
				c2.6-0.7,4.3,0.1,5.6,0.7L42.4,33.9z"/>
			<path class="st4" d="M42.4,36.4c-1.3-0.6-2.8-1.3-5.2-0.7c-1.5,0.4-3.5,0.6-4.6,0.2l0.2-0.5c0.8,0.3,2.4,0.3,4.2-0.2
				c2.6-0.7,4.3,0.1,5.6,0.7L42.4,36.4z"/>
			<path class="st4" d="M42.4,38.5c-1.3-0.6-2.8-1.3-5.2-0.7c-1.5,0.4-3.5,0.6-4.6,0.2l0.2-0.5c0.8,0.3,2.4,0.3,4.2-0.2
				c2.6-0.7,4.3,0.1,5.6,0.7L42.4,38.5z"/>
			<path class="st0" d="M44.8,31.9v8.5c0.9-0.5,1.1-0.6,1.2-0.7c1.1-0.6,3.1-0.7,5.8-0.4c1.2,0.1,2.4,0.2,3.3,0.2
				c2.3,0,3.1-0.6,3.1-0.6l0.1-0.1l0-8.9c0,0,0,0,0,0c-0.1,0.2-1.6,1.1-3.7,1.1c-0.9,0-1.9-0.1-2.8-0.4c-0.6-0.2-1.3-0.3-2-0.3
				C47.1,30.4,44.8,31.9,44.8,31.9"/>
			<path class="st3" d="M63.2,39.6c0.5,0,0.9,0,1,0c0.4,0,0.7,0.3,1,0.5l0,0c0.1-0.3,0.3-0.9,0.8-1.1c0.2-0.1,0.1-0.3,0.1-0.3
				c0,0,0-0.1,0-0.1c0,0-0.1-0.1-0.2-0.2c-0.4-0.3-0.7-0.9-0.8-1.1c-0.1,0.1-0.1,0.1-0.1,0.1c-0.2,0.2-0.4,0.4-0.9,0.4h-1.1h-1.7
				l0,1.7C61.9,39.6,62.5,39.6,63.2,39.6"/>
			<path class="st3" d="M63.2,34.9c0.5,0,0.9,0,1,0c0.5,0,0.7,0.3,1,0.6l0,0c0.1-0.3,0.3-0.9,0.8-1.1c0.2-0.1,0.1-0.3,0.1-0.3
				c0,0,0-0.1,0-0.1c0,0-0.1-0.1-0.2-0.2c-0.4-0.3-0.7-0.9-0.8-1.1c-0.1,0.1-0.1,0.1-0.1,0.1c-0.2,0.2-0.4,0.4-0.9,0.4h-1.1h-1.8
				l0,1.7C61.8,34.9,62.5,34.9,63.2,34.9"/>
			<path class="st0" d="M44.8,43.7c0.1,0,0.3,0,0.5,0c0.5,0,1.3-0.1,1.4-0.6c0-0.3-0.2-0.5-0.2-0.5c-0.1-0.1-0.1-0.2-0.1-0.3
				c0-0.1,0.2-0.2,0.3-0.2h0L61,42.2l0-10.3c-0.1-0.1-0.4-0.2-0.7-0.5c-0.1-0.1-0.3-0.3-0.4-0.3l0,8.8c0,0.1,0,0.1,0,0.2
				c-0.1,0.1-0.9,1.3-4.6,1.3c-1.1,0-2.5-0.1-3.9-0.3c-1.2-0.2-2.3-0.3-3.2-0.3c-1.4,0-2.1,0.3-2.3,0.4v0c0.1,0.1,0.3,0.6,0,1.2
				c-0.2,0.4-0.7,0.7-1.2,0.7c-0.6,0-1.1-0.3-1.3-0.7c-0.3-0.6-0.1-1,0-1.2c-0.2-0.1-0.9-0.4-2.3-0.4c-0.9,0-2,0.1-3.2,0.3
				c-1.5,0.2-2.8,0.3-3.9,0.3c-3.7,0-4.6-1.2-4.7-1.3c0,0,0-0.1,0-0.2l0-8.8c-0.1,0.1-0.2,0.2-0.3,0.3c-0.2,0.3-0.6,0.4-0.7,0.5
				l0,0.1l0,10.2L42.5,42h0c0.1,0,0.2,0.1,0.3,0.2c0,0.1,0,0.3-0.1,0.3c0,0-0.3,0.2-0.2,0.5c0,0.6,0.9,0.6,1.4,0.6
				c0.3,0,0.5,0,0.5,0L44.8,43.7z"/>
			<path class="st4" d="M46.8,33.9l-0.2-0.5c1.3-0.6,3-1.4,5.6-0.7c1.7,0.5,3.4,0.5,4.2,0.2l0.2,0.5c-1.1,0.5-3.1,0.2-4.6-0.2
				C49.6,32.6,48,33.3,46.8,33.9"/>
			<path class="st4" d="M46.8,36.4l-0.2-0.5c1.3-0.6,3-1.4,5.6-0.7c1.7,0.5,3.4,0.5,4.2,0.2l0.2,0.5c-1.1,0.5-3.1,0.2-4.6-0.2
				C49.6,35.1,48,35.8,46.8,36.4"/>
			<path class="st4" d="M46.8,38.5l-0.2-0.5c1.3-0.6,3-1.4,5.6-0.7c1.7,0.5,3.4,0.5,4.2,0.2l0.2,0.5c-1.1,0.5-3.1,0.2-4.6-0.2
				C49.6,37.2,48,37.9,46.8,38.5"/>
		</g>
	</g>
	<path d="M121.8,28.5v18.6h-3.6L109,34.7v12.5h-3.9V28.5h3.9l8.9,12.1V28.5H121.8z M170.3,56.8v12.1l-8.9-12.1h-3.9v18.6h3.9V63
		l9.3,12.5h3.6V56.8H170.3z M125.1,47.2h3.9V28.5h-3.9V47.2z M145.1,28.5l-5.2,13.4l-5.1-13.4h-4.2l7.6,18.8h2.9l8-18.8
		C149.1,28.5,145.1,28.5,145.1,28.5z M194.1,47.2h3.9V28.5h-3.9V47.2z M183.8,33.1c0-1.1,1.1-1.7,2.5-1.7c1.5,0,2.9,0.5,4.5,1.4
		v-3.3c-1.1-0.6-2.7-1.1-4.7-1.1c-4.1,0-6.3,2.5-6.3,5.3c0,1.4,0.5,2.5,1.2,3.3c2.3,2.6,6.8,3,6.8,5.5c0,1.4-1.3,1.9-2.7,1.9
		c-1.6,0-4-0.8-5.3-1.7v3.6c1.3,0.7,3.2,1.2,5.4,1.2c3.8,0,6.6-2.1,6.6-5.5C191.8,36.1,183.8,36.4,183.8,33.1 M214.4,28.5h-14.5v3.2
		h5.1v15.5h3.9V31.7h4.6L214.4,28.5z M94.7,59.8c3.2,0,5.5,2.4,5.5,6.4c0,4.1-2.3,6.4-5.5,6.4c-3.2,0-5.6-2.3-5.6-6.4
		S91.4,59.8,94.7,59.8 M94.7,75.8c5.7,0,9.6-4.2,9.6-9.6c0-5.4-3.6-9.5-9.6-9.5c-5.6,0-9.6,4.1-9.6,9.7C85,71.8,88.7,75.8,94.7,75.8
		 M205.3,59.8c3.2,0,5.5,2.4,5.5,6.4c0,4.1-2.3,6.4-5.5,6.4c-3.2,0-5.6-2.3-5.6-6.4S202.1,59.8,205.3,59.8 M205.3,75.8
		c5.7,0,9.6-4.2,9.6-9.6c0-5.4-3.6-9.5-9.6-9.5c-5.6,0-9.6,4.1-9.6,9.7C195.7,71.8,199.3,75.8,205.3,75.8 M145.5,59.8
		c3.2,0,5.5,2.4,5.5,6.4c0,4.1-2.3,6.4-5.5,6.4c-3.2,0-5.6-2.3-5.6-6.4S142.2,59.8,145.5,59.8 M145.5,75.8c5.7,0,9.6-4.2,9.6-9.6
		c0-5.4-3.6-9.5-9.6-9.5c-5.6,0-9.6,4.1-9.6,9.7C135.8,71.8,139.5,75.8,145.5,75.8 M135.5,75.5v-3.2h-6.6V56.8h-3.8v18.6H135.5z
		 M230.2,56.8v12.1l-8.9-12.1h-3.9v18.6h3.9V63l9.3,12.5h3.6V56.8H230.2z M183.4,60.1c4.3,0,6.5,2.4,6.5,6.1c0,3.3-1.8,6.2-6.4,6.2
		h-2.1V60.1H183.4 M183.3,75.5c6.5,0,10.7-3.7,10.7-9.5c0-5.6-3.7-9.2-10.4-9.2h-6.2v18.6H183.3 M170.1,40h-2v7.1h-3.9V28.5h5.8
		c4.9,0,6.8,2.2,6.8,5.6c0,2.1-1.1,3.9-3.1,5l4.8,8.1h-4.3L170.1,40z M168.1,31.7V37h2c1.8,0,2.9-1.2,2.9-2.7c0-1.4-1.1-2.5-2.9-2.5
		L168.1,31.7L168.1,31.7z M227.5,28.5l-3.9,7.9l-3.9-7.9h-4.3l6.1,11.3v7.4h3.9v-7.3l6.1-11.3L227.5,28.5L227.5,28.5z M98.1,28.5
		v11.3c0,3.2-1.7,4.4-4.2,4.4c-2.5,0-4.2-1.2-4.2-4.4V28.5h-3.8v11.5c0,5.5,3.4,7.4,8,7.4s8-1.9,8-7.4V28.5H98.1z M161.4,47.2V44
		h-6.9v-4.8h5.9V36h-5.9v-4.4h5.9l1-3.2h-10.8v18.6C150.6,47.2,161.4,47.2,161.4,47.2z M116.3,64.4h-5.9V60h6l1-3.2h-10.8v18.7h3.9
		v-7.9h5.9C116.3,67.6,116.3,64.4,116.3,64.4z"/>
</g>
</svg>
