<?xml version="1.0" encoding="utf-8"?>
<!-- Generator: Adobe Illustrator 27.7.0, SVG Export Plug-In . SVG Version: 6.00 Build 0)  -->
<svg version="1.1" id="Layer_1" xmlns="http://www.w3.org/2000/svg" xmlns:xlink="http://www.w3.org/1999/xlink" x="0px" y="0px"
	 viewBox="0 0 252 126" style="enable-background:new 0 0 252 126;" xml:space="preserve">
<style type="text/css">
	.st0{fill:#0064A4;}
</style>
<g>
	<g>
		<path class="st0" d="M119.2,52.7c0,3.7-2.1,5.6-5.3,5.6c-3.1,0-5.2-1.9-5.2-5.5v-7.3h1.4v7.2c0,2.7,1.4,4.2,3.8,4.2
			c2.3,0,3.8-1.4,3.8-4.2v-7.3h1.4V52.7z"/>
		<path class="st0" d="M123.3,58H122v-9.3h1.4v1.6c0.6-1,1.6-1.8,3.2-1.8c2.2,0,3.6,1.5,3.6,3.7V58h-1.4v-5.4c0-1.7-0.9-2.8-2.6-2.8
			c-1.6,0-2.8,1.2-2.8,2.9V58z"/>
		<path class="st0" d="M132.7,46.7v-1.5h1.6v1.5H132.7z M132.8,58v-9.3h1.4V58H132.8z"/>
		<path class="st0" d="M143.9,48.7h1.5l-4,9.4h-1.2l-4-9.4h1.5l3.1,7.7L143.9,48.7z"/>
		<path class="st0" d="M150.8,57.1c1.3,0,2.2-0.5,2.9-1.3l0.9,0.8c-0.9,1-2.1,1.7-3.8,1.7c-2.6,0-4.6-2-4.6-4.9
			c0-2.7,1.9-4.9,4.5-4.9c2.8,0,4.3,2.2,4.3,4.9c0,0.1,0,0.3,0,0.4h-7.4C147.7,55.9,149.2,57.1,150.8,57.1z M153.5,52.9
			c-0.1-1.7-1.1-3.2-3-3.2c-1.6,0-2.8,1.3-3,3.2H153.5z"/>
		<path class="st0" d="M158.4,58H157v-9.3h1.4v2.4c0.7-1.5,2-2.7,3.8-2.6v1.5h-0.1c-2,0-3.7,1.5-3.7,4.3V58z"/>
		<path class="st0" d="M167,58.2c-1.3,0-2.8-0.5-3.8-1.4l0.7-1c1,0.8,2.1,1.2,3.2,1.2c1.1,0,1.9-0.6,1.9-1.5v0
			c0-0.9-1.1-1.3-2.3-1.6c-1.5-0.4-3.1-0.9-3.1-2.6v0c0-1.6,1.3-2.7,3.2-2.7c1.1,0,2.4,0.4,3.3,1l-0.6,1c-0.9-0.6-1.9-0.9-2.8-0.9
			c-1.1,0-1.8,0.6-1.8,1.3v0c0,0.9,1.2,1.2,2.4,1.6c1.4,0.4,3,1,3,2.7v0C170.3,57.2,168.8,58.2,167,58.2z"/>
		<path class="st0" d="M172.5,46.7v-1.5h1.6v1.5H172.5z M172.6,58v-9.3h1.4V58H172.6z"/>
		<path class="st0" d="M178.7,55.4c0,1.1,0.6,1.5,1.6,1.5c0.5,0,0.9-0.1,1.3-0.3v1.2c-0.5,0.3-1,0.4-1.7,0.4c-1.5,0-2.6-0.7-2.6-2.6
			V50h-1.3v-1.2h1.3v-2.8h1.4v2.8h2.9V50h-2.9V55.4z"/>
		<path class="st0" d="M188.3,58.4c-0.8,1.9-1.7,2.6-3.1,2.6c-0.8,0-1.3-0.2-2-0.5l0.5-1.1c0.4,0.2,0.9,0.3,1.5,0.3
			c0.8,0,1.3-0.4,1.9-1.7l-4.2-9.3h1.5l3.4,7.8l3-7.8h1.5L188.3,58.4z"/>
		<path class="st0" d="M203.3,58.3c-2.8,0-4.8-2.2-4.8-4.8s2.1-4.9,4.9-4.9c2.8,0,4.8,2.2,4.8,4.8S206.1,58.3,203.3,58.3z
			 M203.3,49.8c-2,0-3.4,1.6-3.4,3.6s1.5,3.6,3.4,3.6c2,0,3.4-1.6,3.4-3.6C206.8,51.4,205.3,49.8,203.3,49.8z"/>
		<path class="st0" d="M215.2,48.8V50h-2.9V58h-1.4V50h-1.3v-1.2h1.3V48c0-2,1-3.1,2.8-3.1c0.6,0,1.1,0.1,1.5,0.2v1.2
			c-0.5-0.1-0.9-0.2-1.3-0.2c-1.1,0-1.6,0.6-1.6,2v0.8L215.2,48.8L215.2,48.8z"/>
		<path class="st0" d="M114.7,79.2c-3.6,0-6.3-2.9-6.3-6.5c0-3.6,2.7-6.5,6.4-6.5c2.3,0,3.7,0.8,4.9,2l-1,1c-1.1-1-2.2-1.7-4-1.7
			c-2.8,0-4.9,2.2-4.9,5.2c0,2.9,2.1,5.2,4.9,5.2c1.7,0,2.9-0.7,4.1-1.8l0.9,0.9C118.4,78.4,116.9,79.2,114.7,79.2z"/>
		<path class="st0" d="M122.1,71.5l-0.4-1.1c1-0.5,2-0.8,3.4-0.8c2.5,0,4,1.3,4,3.7V79h-1.3v-1.4c-0.6,0.8-1.7,1.6-3.4,1.6
			c-1.7,0-3.5-1-3.5-2.9c0-2,1.6-3,4-3c1.2,0,2,0.2,2.9,0.4v-0.3c0-1.7-1-2.5-2.8-2.5C123.8,70.8,123,71.1,122.1,71.5z M122.3,76.3
			c0,1.2,1.1,1.9,2.3,1.9c1.7,0,3.1-1,3.1-2.5v-0.9c-0.7-0.2-1.6-0.4-2.7-0.4C123.2,74.3,122.3,75.1,122.3,76.3z"/>
		<path class="st0" d="M131.8,79V65.9h1.4V79H131.8z"/>
		<path class="st0" d="M136,67.7v-1.5h1.6v1.5L136,67.7L136,67.7z M136.1,79v-9.3h1.4V79H136.1z"/>
		<path class="st0" d="M145.2,69.8v1.2h-2.9V79h-1.4v-8.1h-1.3v-1.2h1.3v-0.8c0-2,1-3.1,2.8-3.1c0.6,0,1.1,0.1,1.5,0.2v1.2
			c-0.5-0.1-0.9-0.2-1.3-0.2c-1.1,0-1.6,0.6-1.6,2v0.8H145.2z"/>
		<path class="st0" d="M150.7,79.2c-2.8,0-4.8-2.2-4.8-4.8s2.1-4.9,4.9-4.9c2.8,0,4.8,2.2,4.8,4.8C155.5,77,153.5,79.2,150.7,79.2z
			 M150.7,70.8c-2,0-3.4,1.6-3.4,3.6s1.5,3.6,3.4,3.6c2,0,3.4-1.6,3.4-3.6C154.1,72.4,152.6,70.8,150.7,70.8z"/>
		<path class="st0" d="M159.1,79h-1.4v-9.3h1.4v2.4c0.7-1.5,2-2.7,3.8-2.6v1.5h-0.1c-2,0-3.7,1.5-3.7,4.3V79z"/>
		<path class="st0" d="M166,79h-1.4v-9.3h1.4v1.6c0.6-1,1.6-1.8,3.2-1.8c2.2,0,3.6,1.5,3.6,3.7V79h-1.4v-5.4c0-1.7-0.9-2.8-2.6-2.8
			c-1.6,0-2.8,1.2-2.8,2.9V79z"/>
		<path class="st0" d="M175.4,67.7v-1.5h1.6v1.5L175.4,67.7L175.4,67.7z M175.4,79v-9.3h1.4V79H175.4z"/>
		<path class="st0" d="M180.2,71.5l-0.4-1.1c1-0.5,2-0.8,3.4-0.8c2.5,0,4,1.3,4,3.7V79h-1.3v-1.4c-0.6,0.8-1.7,1.6-3.4,1.6
			c-1.7,0-3.5-1-3.5-2.9c0-2,1.6-3,4-3c1.2,0,2,0.2,2.9,0.4v-0.3c0-1.7-1-2.5-2.8-2.5C182,70.8,181.1,71.1,180.2,71.5z M180.4,76.3
			c0,1.2,1.1,1.9,2.3,1.9c1.7,0,3.1-1,3.1-2.5v-0.9c-0.7-0.2-1.6-0.4-2.7-0.4C181.4,74.3,180.4,75.1,180.4,76.3z"/>
		<path class="st0" d="M190.2,79h-0.6v-1.9h1.7v1.6c0,1.5-0.6,2.2-2,2.5l-0.2-0.6C189.9,80.3,190.3,79.8,190.2,79z"/>
		<path class="st0" d="M200.6,66.4V79h-1.4V66.4H200.6z"/>
		<path class="st0" d="M205.1,79h-1.4v-9.3h1.4v2.4c0.7-1.5,2-2.7,3.8-2.6v1.5h-0.1c-2,0-3.7,1.5-3.7,4.3L205.1,79L205.1,79z"/>
		<path class="st0" d="M217.5,69.7h1.5l-4,9.4h-1.2l-4-9.4h1.5l3.1,7.7L217.5,69.7z"/>
		<path class="st0" d="M220.8,67.7v-1.5h1.6v1.5L220.8,67.7L220.8,67.7z M220.9,79v-9.3h1.4V79H220.9z"/>
		<path class="st0" d="M226.6,79h-1.4v-9.3h1.4v1.6c0.6-1,1.6-1.8,3.2-1.8c2.2,0,3.6,1.5,3.6,3.7V79h-1.4v-5.4
			c0-1.7-0.9-2.8-2.6-2.8c-1.6,0-2.8,1.2-2.8,2.9V79z"/>
		<path class="st0" d="M240,78c1.3,0,2.2-0.5,2.9-1.3l0.9,0.8c-0.9,1-2.1,1.7-3.8,1.7c-2.6,0-4.6-2-4.6-4.9c0-2.7,1.9-4.9,4.5-4.9
			c2.8,0,4.3,2.2,4.3,4.9c0,0.1,0,0.3,0,0.4h-7.4C236.9,76.9,238.4,78,240,78z M242.7,73.9c-0.1-1.7-1.1-3.2-3-3.2
			c-1.6,0-2.8,1.3-3,3.2H242.7z"/>
	</g>
	<g>
		<path class="st0" d="M7.9,64.3V45.5h9.4v18.7c0,4.8,2.4,7.1,6.2,7.1c3.8,0,6.2-2.2,6.2-6.9V45.5h9.4v18.6
			c0,10.8-6.2,15.6-15.7,15.6C13.9,79.6,7.9,74.8,7.9,64.3z"/>
		<path class="st0" d="M43.6,62.3L43.6,62.3c0-9.9,7.5-17.6,17.7-17.6c6.9,0,11.3,2.9,14.2,7l-7,5.4c-1.9-2.3-4.1-3.9-7.3-3.9
			c-4.7,0-8,4-8,8.9v0.1c0,5,3.3,9,8,9c3.5,0,5.6-1.6,7.6-4.1l7,5c-3.2,4.4-7.4,7.6-14.8,7.6C51.3,79.7,43.6,72.4,43.6,62.3z"/>
		<path class="st0" d="M81,45.5h9.3V79H81V45.5z"/>
	</g>
</g>
</svg>
