<?xml version="1.0" encoding="utf-8"?>
<!-- Generator: Adobe Illustrator 27.4.0, SVG Export Plug-In . SVG Version: 6.00 Build 0)  -->
<svg version="1.1" id="Layer_1" xmlns="http://www.w3.org/2000/svg" xmlns:xlink="http://www.w3.org/1999/xlink" x="0px" y="0px"
	 viewBox="0 0 150 150" enable-background="new 0 0 150 150" xml:space="preserve">
<path id="library_add_FILL0_wght400_GRAD0_opsz48" fill="#535353" d="M80.5,93.7h11V69.5h24.2v-11H91.5V34.4h-11v24.2H56.3v11h24.2
	V93.7z M34.7,126.2c-6-0.1-10.8-5-11-11V12.8c0-2.9,1.2-5.7,3.3-7.7c2-2.1,4.8-3.3,7.7-3.3h102.5c2.9,0,5.7,1.2,7.7,3.3
	c2.1,2,3.3,4.8,3.3,7.7v102.5c-0.1,6-5,10.8-11,11H34.7z M34.7,115.3h102.5V12.8H34.7V115.3z M12.8,148.2c-2.9,0-5.7-1.2-7.7-3.3
	c-2.1-2-3.3-4.8-3.3-7.7V23.8h11v113.5h113.5v11H12.8z M34.7,12.8L34.7,12.8z"/>
</svg>
