<svg width="186" height="100" viewBox="0 0 186 100" fill="none" xmlns="http://www.w3.org/2000/svg">
<path d="M67.7133 13.3512C46.4817 16.9762 23.0874 26.7605 9.54829 41.7957C-3.34489 56.0731 -2.98279 74.9535 14.0236 87.0599C30.4883 98.7583 55.1161 100.022 75.0257 99.9377C95.971 99.8347 117.263 97.5396 137.022 91.7233C154.224 86.6697 173.974 78.6304 182.427 63.5743C188.253 53.1419 185.28 41.4384 177.834 32.0336C158.565 7.71213 118.618 -2.18529 87.1688 1.79658C65.6773 4.50728 47.0329 14.8243 34.0925 29.8301C32.8658 31.2542 35.572 32.752 36.7268 31.3484C62.0439 2.0274 106.841 -2.86101 144.323 12.1932C158.67 17.9658 172.907 27.3387 179.592 40.3002C186.362 53.4303 179.682 66.0017 168.146 74.5331C151.27 87.0069 127.811 92.4452 106.24 95.1133C83.7288 97.9218 59.5956 98.7447 37.2269 93.6112C27.1641 91.3045 17.2838 87.2619 10.326 80.1948C1.98116 71.6783 1.46767 60.0956 6.85046 50.4846C17.2996 31.7283 45.1736 20.3446 67.4357 16.2453L68.4759 16.062C70.4661 15.7307 69.7037 13.0121 67.7133 13.3512Z" fill="#F26722"/>
</svg>
