<svg width="160" height="120" viewBox="0 0 160 120" fill="none" xmlns="http://www.w3.org/2000/svg">
<path fill-rule="evenodd" clip-rule="evenodd" d="M19.9704 60.9232C17.7362 54.6837 20.983 47.8144 27.2225 45.5802L111.197 15.5103C117.436 13.2761 124.305 16.523 126.54 22.7624L127.597 25.7151C127.894 25.5553 128.204 25.417 128.525 25.3017C133.875 23.386 140.611 28.5312 143.569 36.7937C146.528 45.0563 144.59 53.3074 139.24 55.223C138.918 55.3383 138.591 55.428 138.26 55.493L139.877 60.01C142.112 66.2494 138.865 73.1187 132.625 75.353L48.6512 105.423C42.4117 107.657 35.5424 104.41 33.3082 98.1707L31.7409 93.7939C31.4509 93.9448 31.1497 94.0767 30.8375 94.1885C25.3015 96.1709 18.4151 91.0798 15.4564 82.8173C12.4978 74.5547 14.5871 66.2496 20.1232 64.2672C20.4354 64.1554 20.7519 64.0661 21.0717 63.9986L19.9704 60.9232Z" fill="#FDD900"/>
<mask id="path-2-inside-1_74_7528" fill="white">
<path fill-rule="evenodd" clip-rule="evenodd" d="M25.6179 63.505C23.3837 57.2656 26.6305 50.3963 32.87 48.162L108.323 21.1436C114.562 18.9094 121.431 22.1562 123.666 28.3957L123.996 29.3171C124.269 29.1736 124.554 29.0483 124.849 28.9425C129.771 27.18 135.818 31.4952 138.355 38.5807C140.893 45.6662 138.959 52.8389 134.037 54.6014C133.742 54.7071 133.442 54.791 133.14 54.8537L133.951 57.1183C136.185 63.3577 132.938 70.227 126.699 72.4613L51.246 99.4797C45.0066 101.714 38.1373 98.4671 35.903 92.2277L35.136 90.0855C34.8694 90.221 34.5929 90.3404 34.307 90.4427C29.2136 92.2666 23.0278 88.0012 20.4906 80.9157C17.9534 73.8302 20.0256 66.6078 25.119 64.7839C25.4049 64.6815 25.6943 64.5983 25.9863 64.5337L25.6179 63.505Z"/>
</mask>
<path fill-rule="evenodd" clip-rule="evenodd" d="M25.6179 63.505C23.3837 57.2656 26.6305 50.3963 32.87 48.162L108.323 21.1436C114.562 18.9094 121.431 22.1562 123.666 28.3957L123.996 29.3171C124.269 29.1736 124.554 29.0483 124.849 28.9425C129.771 27.18 135.818 31.4952 138.355 38.5807C140.893 45.6662 138.959 52.8389 134.037 54.6014C133.742 54.7071 133.442 54.791 133.14 54.8537L133.951 57.1183C136.185 63.3577 132.938 70.227 126.699 72.4613L51.246 99.4797C45.0066 101.714 38.1373 98.4671 35.903 92.2277L35.136 90.0855C34.8694 90.221 34.5929 90.3404 34.307 90.4427C29.2136 92.2666 23.0278 88.0012 20.4906 80.9157C17.9534 73.8302 20.0256 66.6078 25.119 64.7839C25.4049 64.6815 25.6943 64.5983 25.9863 64.5337L25.6179 63.505Z" fill="#FDD900"/>
<path d="M25.6179 63.505L26.5594 63.1679L25.6179 63.505ZM123.666 28.3957L124.607 28.0586L123.666 28.3957ZM123.996 29.3171L123.054 29.6542L123.442 30.7371L124.46 30.2026L123.996 29.3171ZM133.14 54.8537L132.937 53.8746L131.811 54.108L132.198 55.1909L133.14 54.8537ZM35.136 90.0855L36.0774 89.7484L35.6949 88.68L34.6831 89.194L35.136 90.0855ZM25.9863 64.5337L26.2023 65.5101L27.3103 65.265L26.9277 64.1966L25.9863 64.5337ZM32.5329 47.2206C25.7735 49.641 22.256 57.0828 24.6765 63.8422L26.5594 63.1679C24.5113 57.4484 27.4876 51.1516 33.2071 49.1035L32.5329 47.2206ZM107.986 20.2022L32.5329 47.2206L33.2071 49.1035L108.66 22.0851L107.986 20.2022ZM124.607 28.0586C122.187 21.2991 114.745 17.7817 107.986 20.2022L108.66 22.0851C114.379 20.037 120.676 23.0133 122.724 28.7328L124.607 28.0586ZM124.937 28.98L124.607 28.0586L122.724 28.7328L123.054 29.6542L124.937 28.98ZM124.512 28.0011C124.173 28.1226 123.845 28.2666 123.531 28.4316L124.46 30.2026C124.693 30.0805 124.935 29.974 125.186 29.884L124.512 28.0011ZM139.297 38.2435C137.968 34.5329 135.707 31.5063 133.077 29.6296C130.451 27.7556 127.368 26.9784 124.512 28.0011L125.186 29.884C127.252 29.1441 129.654 29.6433 131.916 31.2576C134.174 32.8693 136.205 35.543 137.414 38.9178L139.297 38.2435ZM134.374 55.5428C137.23 54.5202 139.119 51.9625 139.959 48.8474C140.8 45.728 140.626 41.9542 139.297 38.2435L137.414 38.9178C138.622 42.2926 138.75 45.648 138.028 48.3269C137.305 51.0102 135.766 52.92 133.7 53.6599L134.374 55.5428ZM133.343 55.8329C133.691 55.7608 134.035 55.6644 134.374 55.5428L133.7 53.6599C133.449 53.7499 133.194 53.8212 132.937 53.8746L133.343 55.8329ZM134.892 56.7812L134.081 54.5166L132.198 55.1909L133.009 57.4554L134.892 56.7812ZM127.036 73.4028C133.795 70.9823 137.313 63.5406 134.892 56.7812L133.009 57.4554C135.057 63.1749 132.081 69.4718 126.362 71.5198L127.036 73.4028ZM51.5832 100.421L127.036 73.4028L126.362 71.5198L50.9089 98.5383L51.5832 100.421ZM34.9616 92.5648C37.382 99.3242 44.8238 102.842 51.5832 100.421L50.9089 98.5383C45.1894 100.586 38.8926 97.61 36.8445 91.8905L34.9616 92.5648ZM34.1945 90.4226L34.9616 92.5648L36.8445 91.8905L36.0774 89.7484L34.1945 90.4226ZM34.6831 89.194C34.4538 89.3104 34.216 89.4132 33.9699 89.5013L34.6441 91.3842C34.9699 91.2676 35.285 91.1315 35.5889 90.9771L34.6831 89.194ZM33.9699 89.5013C31.8035 90.277 29.3189 89.7905 27.0079 88.197C24.6986 86.6046 22.6381 83.9464 21.4321 80.5786L19.5492 81.2528C20.8804 84.9705 23.1814 87.9878 25.8726 89.8435C28.5622 91.6981 31.7172 92.4323 34.6441 91.3842L33.9699 89.5013ZM21.4321 80.5786C20.2261 77.2108 20.131 73.8488 20.9046 71.1525C21.6787 68.4543 23.2897 66.5011 25.4561 65.7254L24.7819 63.8424C21.8549 64.8905 19.8831 67.4606 18.9821 70.6009C18.0806 73.7431 18.2179 77.5352 19.5492 81.2528L21.4321 80.5786ZM25.4561 65.7254C25.7022 65.6372 25.9511 65.5657 26.2023 65.5101L25.7703 63.5573C25.4375 63.631 25.1076 63.7258 24.7819 63.8424L25.4561 65.7254ZM24.6765 63.8422L25.0448 64.8709L26.9277 64.1966L26.5594 63.1679L24.6765 63.8422Z" fill="#E4C403" mask="url(#path-2-inside-1_74_7528)"/>
<path d="M53.0308 97.5631L53.0984 101.093L56.0108 99.0973L54.3043 102.188L57.8244 101.916L54.8011 103.739L57.9857 105.264L54.4557 105.331L56.4515 108.244L53.3607 106.537L53.6329 110.057L51.8094 107.034L50.2851 110.218L50.2175 106.689L47.3051 108.684L49.0116 105.594L45.4916 105.866L48.5148 104.042L45.3302 102.518L48.8602 102.45L46.8644 99.538L49.9552 101.244L49.6831 97.7244L51.5065 100.748L53.0308 97.5631Z" fill="#0045C0"/>
<path d="M112.945 6.4051L115.01 11.1224L117.817 6.80526L117.247 11.9231L121.837 9.5879L118.784 13.735L123.926 14.0074L119.209 16.0725L123.526 18.8796L118.408 18.3094L120.743 22.899L116.596 19.8462L116.324 24.9885L114.259 20.2712L111.452 24.5883L112.022 19.4705L107.432 21.8057L110.485 17.6586L105.343 17.3862L110.06 15.3211L105.743 12.514L110.861 13.0842L108.526 8.49464L112.673 11.5474L112.945 6.4051Z" fill="#0045C0"/>
<path d="M38.3294 57.972L47.0918 54.8677L47.6047 56.3155L44.0455 57.5765L47.3368 66.8667L45.6929 67.4491L42.4016 58.1588L38.8424 59.4198L38.3294 57.972ZM56.9188 56.4276L55.332 51.9484L56.9457 51.3767L60.7499 62.1147L59.1362 62.6864L57.4425 57.9056L51.9075 59.8665L53.6013 64.6473L51.9875 65.219L48.1833 54.481L49.7971 53.9093L51.3839 58.3885L56.9188 56.4276ZM69.6771 55.5911L70.3758 57.2278C70.622 57.7629 70.8976 58.1576 71.2026 58.4116L69.5436 58.9993C69.2392 58.779 68.9716 58.3589 68.7407 57.7391L68.2894 56.609C68.0134 55.9259 67.6848 55.4935 67.3036 55.3117C66.9188 55.1198 66.4147 55.1344 65.7913 55.3552L62.6694 56.4612L64.2349 60.8801L62.6212 61.4518L58.817 50.7137L63.5073 49.0521C64.6535 48.646 65.6478 48.5936 66.4901 48.895C67.3389 49.1827 67.9272 49.7891 68.2549 50.7141C68.4864 51.3676 68.5215 51.9776 68.36 52.544C68.205 53.0968 67.8731 53.5653 67.3641 53.9493C67.9403 53.9149 68.4132 54.0359 68.7828 54.3124C69.1488 54.5788 69.4469 55.005 69.6771 55.5911ZM62.1939 55.1189L65.3007 54.0183C65.9241 53.7974 66.3547 53.4638 66.5926 53.0174C66.8406 52.5674 66.8595 52.0458 66.6493 51.4526C66.4463 50.8795 66.1071 50.5131 65.6318 50.3533C65.1666 50.19 64.5921 50.2294 63.9084 50.4716L60.9223 51.5295L62.1939 55.1189ZM74.1027 57.3842L72.489 57.9559L68.6848 47.2178L70.2985 46.6461L74.1027 57.3842ZM79.3821 50.4554L79.372 43.4316L81.0461 42.8385L80.9291 54.9658L79.0892 55.6176L71.2883 46.2955L72.9926 45.6917L77.4517 51.1393C78.1942 52.0532 78.865 52.9245 79.4641 53.7534C79.4369 53.1972 79.4095 52.0979 79.3821 50.4554ZM87.4463 52.6569L85.8326 53.2286L82.0284 42.4905L83.6421 41.9188L87.4463 52.6569ZM93.882 41.9576L92.7279 38.6999L94.2813 38.1496L98.0855 48.8877L96.2305 49.5449L91.0843 45.5118C89.5848 44.3456 88.4782 43.442 87.7644 42.8009C88.2285 43.9831 88.8862 45.7757 89.7375 48.1787L90.8916 51.4363L89.3232 51.992L85.5189 41.2539L87.374 40.5967L92.5352 44.6244C93.9323 45.725 95.0407 46.6337 95.8605 47.3505C95.3928 46.1582 94.7333 44.3605 93.882 41.9576ZM103.451 42.1829L102.965 40.8105L107.641 39.1541L109.639 44.7946L108.402 45.2328L107.608 43.9015C107.199 45.3025 106.23 46.2737 104.702 46.8152C103.154 47.3637 101.739 47.2823 100.457 46.5708C99.1585 45.8765 98.2118 44.6898 97.617 43.0108C97.015 41.3116 97.0067 39.7868 97.592 38.4365C98.1638 37.0797 99.2389 36.1217 100.817 35.5624C102.135 35.0958 103.347 35.0512 104.453 35.4286C105.554 35.8195 106.393 36.5578 106.97 37.6435L105.311 38.2312C104.903 37.5607 104.338 37.1159 103.616 36.8966C102.903 36.6738 102.144 36.7049 101.34 36.9898C100.264 37.371 99.5432 38.0508 99.177 39.0293C98.7971 40.0013 98.8351 41.1307 99.291 42.4177C99.747 43.7046 100.428 44.6062 101.336 45.1222C102.256 45.6448 103.254 45.7155 104.33 45.3343C105.265 45.0031 105.951 44.4319 106.388 43.6207C106.829 42.8197 106.905 41.9664 106.619 41.0609L103.451 42.1829ZM56.6633 81.0801L56.8182 74.7617L59.0653 73.9656L62.8696 84.7036L61.3162 85.2539L60.1247 81.8908C59.2662 79.4677 58.6434 77.6457 58.2562 76.425C58.273 77.1432 58.2652 78.0796 58.2329 79.234L58.0435 86.4134L56.6861 86.8943L51.9891 81.446C51.3439 80.6788 50.7588 79.9694 50.2338 79.318C50.6978 80.5003 51.3556 82.2929 52.2069 84.6958L53.3984 88.059L51.845 88.6094L48.0407 77.8713L50.2728 77.0805L54.4997 82.0164C55.3725 83.0425 56.0974 83.9229 56.6746 84.6577C56.6538 83.5448 56.65 82.3523 56.6633 81.0801ZM66.3605 83.4669L64.7467 84.0386L60.9425 73.3005L62.5562 72.7288L66.3605 83.4669ZM72.7961 72.7676L71.642 69.51L73.1954 68.9596L76.9997 79.6977L75.1446 80.3549L69.9984 76.3219C68.4989 75.1557 67.3923 74.252 66.6786 73.6109C67.1427 74.7931 67.8004 76.5857 68.6517 78.9887L69.8058 82.2463L68.2373 82.802L64.4331 72.0639L66.2881 71.4067L71.4494 75.4344C72.8464 76.535 73.9549 77.4437 74.7746 78.1605C74.3069 76.9682 73.6474 75.1706 72.7961 72.7676ZM75.0814 68.2915L78.9122 66.9343C80.5711 66.3466 82.0474 66.3611 83.3409 66.9779C84.6144 67.6018 85.5467 68.7483 86.138 70.4173C86.7293 72.0863 86.7266 73.564 86.13 74.8505C85.5132 76.144 84.3753 77.0847 82.7164 77.6724L78.8857 79.0295L75.0814 68.2915ZM79.9971 77.0401L82.1991 76.2601C83.3754 75.8433 84.1542 75.1827 84.5353 74.2781C84.9265 73.37 84.8977 72.2826 84.4489 71.0157C84.0001 69.7489 83.3379 68.8858 82.4622 68.4265C81.5966 67.9636 80.5757 67.9406 79.3993 68.3574L77.1974 69.1374L79.9971 77.0401ZM93.4099 74.1555C91.9923 74.6578 90.7723 74.7278 89.7501 74.3658C88.7379 74.0001 88.0077 73.2007 87.5595 71.9676L89.1732 71.3959C89.7733 72.9939 91.0335 73.4528 92.9539 72.7724C93.7482 72.491 94.303 72.1247 94.6185 71.6735C94.9404 71.2086 94.998 70.6846 94.7914 70.1015C94.624 69.6289 94.3199 69.3293 93.8789 69.2026C93.4344 69.0658 92.719 69.059 91.7328 69.1821L90.7434 69.3119C89.5591 69.4825 88.5963 69.4162 87.8552 69.113C87.114 68.8097 86.5867 68.2157 86.2733 67.331C85.9598 66.4462 86.0523 65.6213 86.5508 64.8562C87.0457 64.0811 87.8763 63.487 89.0426 63.0738C90.4502 62.5751 91.6128 62.5027 92.5303 62.8566C93.4579 63.207 94.1188 63.9065 94.5129 64.9551L92.9142 65.5214C92.6182 64.8455 92.2071 64.4197 91.6808 64.244C91.1611 64.0546 90.4488 64.1203 89.5439 64.4409C88.8401 64.6902 88.3485 65.0115 88.0691 65.4047C87.7897 65.7979 87.7355 66.2358 87.9065 66.7184C88.081 67.2111 88.3787 67.5243 88.7996 67.6581C89.2275 67.812 89.9228 67.826 90.8853 67.7L91.8898 67.5648C93.209 67.3917 94.2224 67.457 94.9298 67.7609C95.6473 68.0612 96.1538 68.6286 96.4495 69.4631C96.8021 70.4585 96.7079 71.3746 96.1669 72.2112C95.636 73.0444 94.717 73.6925 93.4099 74.1555ZM102.64 58.528L103.153 59.9758L97.1057 62.1184L98.1796 65.1498L103.654 63.2102L104.156 64.6279L98.6819 66.5674L99.8841 69.9608L105.887 67.8342L106.399 69.2821L98.7833 71.9803L94.979 61.2422L102.64 58.528ZM103.226 58.3206L111.988 55.2163L112.501 56.6641L108.942 57.9251L112.233 67.2153L110.589 67.7977L107.298 58.5075L103.739 59.7684L103.226 58.3206Z" fill="#39484D"/>
</svg>
