<svg width="64" height="64" viewBox="0 0 64 64" fill="none" xmlns="http://www.w3.org/2000/svg">
<rect width="64" height="64" rx="32" fill="white"/>
<path d="M48.0477 42.3746V39.8646C48.0477 38.9618 47.3212 38.2316 46.426 38.2316H43.4735V36.4954H46.5353C47.0865 36.497 47.5237 36.0327 47.4996 35.483C47.4996 34.9478 47.0689 34.5158 46.5353 34.5158H43.4735V32.8215H46.4244C47.3196 32.8215 48.0477 32.0912 48.0477 31.1933V28.6833C51.1191 27.6129 50.391 22.9799 47.0817 22.9539C43.7708 22.9862 43.0427 27.6062 46.1174 28.6833V30.8854H43.4734V29.8827C43.4734 28.2819 42.1748 26.9793 40.5788 26.9793H39.5373V23.3731C39.5373 19.2494 36.1991 15.8948 32.0814 15.8948C27.9717 15.8948 24.6254 19.2495 24.6254 23.3731V26.9793H23.584C21.988 26.9793 20.6893 28.2818 20.6893 29.8827V30.8854H17.904C17.904 30.8854 17.9024 28.6817 17.904 28.6833C20.9883 27.6064 20.2361 22.9783 16.9396 22.9539C15.3179 22.9539 14 24.2758 14 25.9024C14 27.1856 14.8229 28.2899 15.9737 28.6832V31.1932C15.9737 32.0911 16.7018 32.8214 17.597 32.8214H20.6893V34.5157H17.4861C16.9476 34.5141 16.5041 34.9638 16.5234 35.5055C16.5041 36.0471 16.9476 36.4969 17.4861 36.4953H20.6893V38.2331H17.597C16.7018 38.2331 15.9737 38.9633 15.9737 39.8612V42.3744C14.8229 42.7678 14 43.8704 14 45.1553C14 46.7818 15.3179 48.1037 16.9396 48.1037C20.2505 48.0715 20.9786 43.4515 17.904 42.3744V40.169H20.7826C20.8276 40.169 20.871 40.161 20.9143 40.1561C21.5894 42.4195 23.6868 44.0783 26.1571 44.0783H38.0057C40.476 44.0783 42.5671 42.4259 43.2423 40.169H46.1176V42.3759C43.0333 43.4512 43.7855 48.0826 47.082 48.1053C50.3768 48.0779 51.1322 43.4576 48.0463 42.3759L48.0477 42.3746ZM35.3828 34.2256C35.3828 35.1219 35.0099 35.9811 34.367 36.6066L34.2062 38.2074C34.097 39.3101 33.184 40.137 32.0831 40.137C30.9837 40.137 30.0692 39.3117 29.9599 38.2074L29.8056 36.6066C29.002 35.8393 28.6484 34.7415 28.8412 33.6388C29.6031 29.707 35.333 30.2438 35.3828 34.2256ZM26.5575 23.3731C26.8532 16.0268 37.3178 16.0285 37.6087 23.3731V26.9793H26.5575V23.3731Z" fill="#151419"/>
</svg>
