<svg width="64" height="64" viewBox="0 0 64 64" fill="none" xmlns="http://www.w3.org/2000/svg">
<rect width="64" height="64" rx="32" fill="white"/>
<path fill-rule="evenodd" clip-rule="evenodd" d="M15.7558 28.6265L35.3761 48.2465C29.9169 50.6783 23.2884 49.6587 18.8146 45.185C14.3409 40.7112 13.3213 34.0827 15.7558 28.6265Z" fill="#151419"/>
<path fill-rule="evenodd" clip-rule="evenodd" d="M16.283 27.5625C16.7603 26.6892 17.3322 25.8537 17.9982 25.0714C18.2018 24.8374 18.4932 24.6983 18.8033 24.6874C19.1131 24.6769 19.4138 24.795 19.6328 25.0144C22.9947 28.3669 35.6326 41.0048 38.9896 44.3618C39.2105 44.5823 39.3293 44.8849 39.3188 45.1965C39.308 45.5082 39.1681 45.8018 38.933 46.0065C38.1496 46.6718 37.3137 47.2433 36.4403 47.7199L16.283 27.5625Z" fill="#151419"/>
<path fill-rule="evenodd" clip-rule="evenodd" d="M49.53 25.581C49.35 22.6781 48.2295 19.9451 46.1419 17.8575C44.0543 15.7698 41.3213 14.6493 38.4184 14.4693C38.1086 14.4502 37.8413 14.6861 37.8221 14.9958C37.803 15.306 38.0389 15.573 38.3486 15.5921C40.9778 15.7552 43.4558 16.7625 45.3461 18.6532C47.2369 20.5436 48.2441 23.0216 48.4073 25.6507C48.4264 25.9605 48.6934 26.1963 49.0035 26.1772C49.3133 26.1581 49.5491 25.8907 49.53 25.581Z" fill="#151419"/>
<path fill-rule="evenodd" clip-rule="evenodd" d="M46.1525 24.6593C46.0419 22.8799 45.3538 21.2052 44.0739 19.9257C42.7944 18.6458 41.1196 17.9577 39.3403 17.847C39.0305 17.8279 38.7631 18.0638 38.744 18.3739C38.7249 18.6837 38.9608 18.9507 39.2705 18.9702C40.7761 19.0635 42.1959 19.6384 43.2785 20.721C44.3611 21.8037 44.936 23.2234 45.0294 24.729C45.0489 25.0388 45.3159 25.2747 45.6256 25.2555C45.9358 25.2364 46.1716 24.969 46.1525 24.6593Z" fill="#151419"/>
<path fill-rule="evenodd" clip-rule="evenodd" d="M43.1835 24.473C43.1243 23.5179 42.753 22.6202 42.0664 21.9335C41.3794 21.2465 40.4817 20.8753 39.5265 20.816C39.2168 20.7969 38.9498 21.0328 38.9303 21.3425C38.9112 21.6527 39.147 21.9197 39.4572 21.9388C40.1378 21.9812 40.7809 22.2392 41.2707 22.7289C41.7604 23.2187 42.0184 23.8618 42.0608 24.5424C42.0799 24.8525 42.3469 25.0884 42.657 25.0693C42.9668 25.0498 43.2027 24.7828 43.1835 24.473Z" fill="#151419"/>
<path fill-rule="evenodd" clip-rule="evenodd" d="M36.3399 32.8478C35.9698 32.9239 35.5914 32.9524 35.2149 32.9322V38.9963L35.8168 39.5982L36.3399 40.1213V32.8478ZM31.1518 27.6597H23.8741L24.3984 28.1835L24.9999 28.7847H31.0674C31.0471 28.4082 31.0753 28.0298 31.1518 27.6597Z" fill="#151419"/>
<path fill-rule="evenodd" clip-rule="evenodd" d="M33.1411 26.2425C34.415 24.9686 36.4835 24.9686 37.757 26.2425C39.0308 27.5164 39.0308 29.5845 37.757 30.8584C36.4835 32.1323 34.415 32.1323 33.1411 30.8584C31.8672 29.5845 31.8672 27.5164 33.1411 26.2425Z" fill="#151419"/>
</svg>
