<svg width="47" height="46" viewBox="0 0 47 46" fill="none" xmlns="http://www.w3.org/2000/svg">
<rect x="0.154297" width="46" height="46" rx="23" fill="#FDD900"/>
<path fill-rule="evenodd" clip-rule="evenodd" d="M17.2218 13.1525C17.0468 13.2471 16.8265 13.1849 16.7279 13.0125C16.6281 12.8388 16.6839 12.6184 16.855 12.5147C20.6622 10.3266 25.3455 10.3266 29.1527 12.5147C29.3212 12.6184 29.377 12.8375 29.2785 13.0099C29.1799 13.1823 28.9635 13.2458 28.7872 13.1525C25.2069 11.0992 20.8047 11.0992 17.2231 13.1525L17.2218 13.1525ZM27.1409 26.2848C27.0346 26.3898 26.975 26.535 26.975 26.6853V28.4132C26.975 28.4767 27.0268 28.5299 27.0917 28.5299H27.9913C28.0561 28.5299 28.1079 28.4767 28.1079 28.4132V26.6853C28.1079 26.4559 27.9692 26.2498 27.7579 26.1629C27.5466 26.0748 27.303 26.1227 27.1409 26.2848ZM28.817 25.9866C28.7275 26.0229 28.6225 26.0618 28.5344 26.0942V26.0955C28.5033 26.1072 28.4787 26.1305 28.467 26.1603C28.454 26.1914 28.4553 26.2251 28.4696 26.255C28.6161 26.5622 28.5033 26.6957 28.6174 26.7644C28.7366 26.837 28.9764 26.6387 28.9764 26.3716V26.0955C28.9764 26.0566 28.957 26.0204 28.9246 25.9983C28.8935 25.9776 28.852 25.9724 28.8157 25.9879L28.817 25.9866ZM28.0937 25.7753L28.6913 25.5485L28.69 25.5498C28.865 25.4863 28.9803 25.3191 28.9764 25.1337V22.676C28.9764 22.6384 28.957 22.6034 28.9272 22.5814C28.8961 22.5593 28.8559 22.5542 28.8196 22.5671L27.57 23.0091L27.5713 23.0078C27.5207 23.026 27.4896 23.0739 27.4935 23.1271L27.6802 25.5848C27.6893 25.7092 27.8111 25.6781 27.9991 25.7715C28.0276 25.787 28.0613 25.7883 28.0924 25.7766L28.0937 25.7753ZM26.3619 26.9186L23.3325 28.0697C23.1277 28.1501 22.8995 28.1501 22.6947 28.0697L17.209 25.9867C17.1727 25.9724 17.1326 25.9776 17.1014 25.9996C17.069 26.0217 17.0509 26.0567 17.0509 26.0955V26.3717C17.047 26.5583 17.1624 26.7255 17.3361 26.7877L22.8556 28.8838C22.9567 28.924 23.0708 28.924 23.1719 28.8838L26.445 27.6407C26.4903 27.6238 26.5201 27.5798 26.5201 27.5318V27.0289C26.5201 26.99 26.5007 26.9537 26.4696 26.9316C26.4385 26.9109 26.397 26.9057 26.362 26.92L26.3619 26.9186ZM17.0507 25.1337V22.676C17.0507 22.6384 17.0688 22.6034 17.0999 22.5814C17.1311 22.5593 17.1699 22.5542 17.2062 22.5671L22.7155 24.5141C22.9073 24.5854 23.1199 24.5854 23.3118 24.5141L26.8987 23.2464L26.9 23.2451C26.9337 23.2334 26.9712 23.2373 27.0011 23.2567C27.0322 23.2762 27.0516 23.3086 27.0542 23.3449L27.2266 25.6198C27.2318 25.6704 27.202 25.7183 27.1553 25.7365C26.8987 25.8415 26.6939 26.0463 26.5915 26.3042C26.5798 26.3341 26.5552 26.3587 26.5241 26.3703L23.1718 27.6446C23.0707 27.6847 22.9566 27.6847 22.8555 27.6446L17.336 25.5498C17.1623 25.4863 17.0468 25.3191 17.0507 25.1337ZM26.3784 22.7356C26.4225 22.755 26.4497 22.7991 26.4471 22.8471C26.4459 22.8937 26.4147 22.9352 26.3694 22.9521L23.1611 24.0863C23.0665 24.1213 22.9602 24.1213 22.8656 24.0863L14.314 21.0621C14.2673 21.0466 14.2362 21.0025 14.2362 20.9532C14.2362 20.9027 14.2673 20.8586 14.314 20.8431L22.8656 17.8189C22.9602 17.7839 23.0665 17.7839 23.1611 17.8189L31.7127 20.8431C31.7594 20.8586 31.7905 20.9027 31.7905 20.9532C31.7905 21.0025 31.7594 21.0466 31.7127 21.0621L27.3015 22.6228C27.273 22.6332 27.2419 22.6319 27.2147 22.6189L23.1081 20.7459C22.994 20.694 22.8592 20.7433 22.8074 20.8573C22.7555 20.9714 22.8048 21.1062 22.9189 21.1581L26.3784 22.7356ZM32.3516 7.85313C33.2577 7.85313 34.073 8.39884 34.4192 9.23495C34.7666 10.071 34.5747 11.0329 33.9344 11.6732C33.2953 12.3136 32.3322 12.5054 31.4961 12.158C30.66 11.8119 30.1143 10.9966 30.1143 10.0918C30.1156 8.85642 31.1163 7.85572 32.3503 7.85572L32.3516 7.85313ZM13.7787 12.5328C11.8123 12.538 10.2204 14.1311 10.2154 16.0961V17.3872C10.2167 18.2194 10.8908 18.8934 11.723 18.8934H15.8335C16.6657 18.8921 17.3398 18.2181 17.341 17.3872V16.0961C17.3359 14.1297 15.7441 12.5364 13.7777 12.5314L13.7787 12.5328ZM13.7774 7.82227C14.6822 7.82227 15.4989 8.36798 15.845 9.20409C16.1911 10.0402 15.9992 11.002 15.3602 11.6424C14.7198 12.2827 13.7567 12.4733 12.9206 12.1272C12.0845 11.781 11.5401 10.9644 11.5401 10.0596C11.5401 8.82426 12.5421 7.82227 13.7774 7.82227ZM13.6763 31.326C15.6414 31.3312 17.2347 32.9243 17.2396 34.8893V36.1804C17.2383 37.0126 16.5643 37.6867 15.7321 37.688H11.6189C10.7867 37.6867 10.1126 37.0126 10.1113 36.1804V34.8893C10.1165 32.9242 11.7099 31.331 13.6763 31.326ZM13.6763 26.6168C14.5811 26.6168 15.3965 27.1613 15.7426 27.9974C16.09 28.8334 15.8981 29.7966 15.2578 30.4369C14.6187 31.076 13.6556 31.2678 12.8195 30.9217C11.9834 30.5756 11.4377 29.759 11.4377 28.8542C11.4377 27.6188 12.4397 26.6168 13.6763 26.6168ZM32.3255 31.2693V31.268C34.292 31.2744 35.8852 32.8675 35.8889 34.8339V36.125C35.8876 36.9572 35.2135 37.6313 34.3813 37.6313H30.2681C29.4359 37.63 28.7618 36.9572 28.7605 36.125V34.8339C28.7657 32.8688 30.3575 31.2756 32.3239 31.2706L32.3255 31.2693ZM32.3255 26.5588C33.2303 26.5588 34.0457 27.1045 34.3931 27.9406C34.7392 28.7767 34.5473 29.7385 33.907 30.3789C33.2679 31.0193 32.3048 31.2098 31.4687 30.8637C30.6326 30.5176 30.0882 29.7022 30.0882 28.7961C30.0882 27.5608 31.0902 26.5588 32.3255 26.5588ZM32.3515 12.5643V12.563C30.385 12.5682 28.7918 14.1613 28.7868 16.1277V17.4174C28.7894 18.2496 29.4635 18.9237 30.2944 18.925H34.4076C35.2397 18.9237 35.9138 18.2496 35.9151 17.4174V16.1277C35.9099 14.1612 34.3168 12.5693 32.3505 12.563L32.3515 12.5643ZM11.9431 26.73C11.2444 24.5199 11.2198 22.1529 11.8731 19.9299C11.9302 19.7341 11.8187 19.5293 11.623 19.471C11.4272 19.414 11.2224 19.5267 11.1654 19.7212C10.4732 22.0856 10.4978 24.6029 11.238 26.9517C11.3028 27.1422 11.5076 27.2459 11.6994 27.185C11.8913 27.1254 12.0002 26.9218 11.9431 26.73ZM27.9157 33.7335C28.0985 33.6506 28.315 33.7296 28.4005 33.9124C28.4861 34.0952 28.4083 34.3129 28.2268 34.4011C24.9161 35.9462 21.0909 35.9462 17.7804 34.4011C17.691 34.3596 17.621 34.2857 17.5873 34.1924C17.5536 34.1004 17.5574 33.998 17.5989 33.9098C17.6404 33.8204 17.7169 33.7517 17.8089 33.718C17.9022 33.6856 18.0034 33.6908 18.0928 33.7335C21.2064 35.1828 24.801 35.1828 27.9147 33.7335L27.9157 33.7335ZM34.1351 19.9282C34.7885 22.1526 34.7638 24.5196 34.0651 26.7283C34.0094 26.9215 34.117 27.125 34.3088 27.1846C34.5007 27.2455 34.7055 27.1418 34.7703 26.9513C35.5105 24.6012 35.5364 22.0852 34.8429 19.7208C34.7859 19.525 34.581 19.4136 34.3853 19.4706C34.1896 19.5289 34.0781 19.7338 34.1351 19.9282Z" fill="#151419"/>
</svg>
