<svg width="37" height="37" viewBox="0 0 37 37" fill="none" xmlns="http://www.w3.org/2000/svg">
<path d="M9.52337 15.6221C9.40938 16.0203 8.99415 16.2507 8.59593 16.1367C8.19771 16.0227 7.9673 15.6075 8.08129 15.2093L9.52337 15.6221ZM11.4232 10.8677L10.8831 10.3474L10.8836 10.3468L11.4232 10.8677ZM16.7866 7.91544L16.6351 7.18091L16.6365 7.18063L16.7866 7.91544ZM22.8315 8.53211L23.1269 7.84275L23.1277 7.84306L22.8315 8.53211ZM27.5274 12.5034L28.1577 12.097L28.1577 12.097L27.5274 12.5034ZM26.2262 26.1302L25.6839 25.6122L25.6842 25.6118L26.2262 26.1302ZM13.0157 27.473L12.5887 28.0896L12.5885 28.0895L13.0157 27.473ZM8.46488 22.9069C8.31147 22.5221 8.49901 22.0859 8.88377 21.9324C9.26852 21.779 9.7048 21.9666 9.85821 22.3513L8.46488 22.9069ZM9.52774 15.227C9.63192 15.6279 9.39139 16.0374 8.99049 16.1416C8.5896 16.2458 8.18015 16.0052 8.07596 15.6043L9.52774 15.227ZM6.98138 11.3925C6.87719 10.9916 7.11772 10.5822 7.51862 10.478C7.91952 10.3738 8.32897 10.6143 8.43315 11.0152L6.98138 11.3925ZM9.00163 16.1386C8.60238 16.2489 8.18929 16.0147 8.07896 15.6154C7.96863 15.2162 8.20285 14.8031 8.60211 14.6927L9.00163 16.1386ZM12.686 13.5642C13.0852 13.4539 13.4983 13.6881 13.6086 14.0874C13.719 14.4866 13.4848 14.8997 13.0855 15.0101L12.686 13.5642ZM8.08129 15.2093C8.60378 13.384 9.56578 11.7146 10.8831 10.3474L11.9633 11.3881C10.8161 12.5788 9.97838 14.0325 9.52337 15.6221L8.08129 15.2093ZM10.8836 10.3468C12.4384 8.73659 14.443 7.63318 16.6351 7.18091L16.9382 8.64997C15.0418 9.04122 13.3077 9.99575 11.9627 11.3887L10.8836 10.3468ZM16.6365 7.18063C18.8169 6.73511 21.0814 6.96613 23.1269 7.84275L22.5361 9.22147C20.7714 8.46521 18.8178 8.26592 16.9368 8.65026L16.6365 7.18063ZM23.1277 7.84306C25.1899 8.72948 26.9412 10.2105 28.1577 12.097L26.8971 12.9099C25.8422 11.2741 24.3236 9.98981 22.5353 9.22116L23.1277 7.84306ZM28.1577 12.097C31.1162 16.685 30.5416 22.7034 26.7683 26.6486L25.6842 25.6118C28.9779 22.1681 29.4795 16.9147 26.8971 12.9099L28.1577 12.097ZM26.7686 26.6483C23.0401 30.5516 17.0263 31.1629 12.5887 28.0896L13.4427 26.8565C17.2736 29.5095 22.4652 28.9818 25.6839 25.6122L26.7686 26.6483ZM12.5885 28.0895C10.7346 26.8047 9.30028 25.0021 8.46488 22.9069L9.85821 22.3513C10.5844 24.1727 11.8312 25.7397 13.4429 26.8566L12.5885 28.0895ZM8.07596 15.6043L6.98138 11.3925L8.43315 11.0152L9.52774 15.227L8.07596 15.6043ZM8.60211 14.6927L12.686 13.5642L13.0855 15.0101L9.00163 16.1386L8.60211 14.6927Z" fill="#575757"/>
<path d="M21.8305 15.7165H17.2945V18.1105C17.4905 17.8678 17.7705 17.6718 18.1345 17.5225C18.4985 17.3638 18.8858 17.2845 19.2965 17.2845C20.0432 17.2845 20.6545 17.4478 21.1305 17.7745C21.6065 18.1012 21.9518 18.5212 22.1665 19.0345C22.3812 19.5385 22.4885 20.0798 22.4885 20.6585C22.4885 21.7318 22.1805 22.5952 21.5645 23.2485C20.9578 23.9018 20.0898 24.2285 18.9605 24.2285C17.8965 24.2285 17.0472 23.9625 16.4125 23.4305C15.7778 22.8985 15.4185 22.2032 15.3345 21.3445H17.2385C17.3225 21.7178 17.5092 22.0165 17.7985 22.2405C18.0972 22.4645 18.4752 22.5765 18.9325 22.5765C19.4832 22.5765 19.8985 22.4038 20.1785 22.0585C20.4585 21.7132 20.5985 21.2558 20.5985 20.6865C20.5985 20.1078 20.4538 19.6692 20.1645 19.3705C19.8845 19.0625 19.4692 18.9085 18.9185 18.9085C18.5265 18.9085 18.1998 19.0065 17.9385 19.2025C17.6772 19.3985 17.4905 19.6598 17.3785 19.9865H15.5025V13.9945H21.8305V15.7165Z" fill="#575757"/>
</svg>
