<svg width="20" height="20" viewBox="0 0 20 20" fill="none" xmlns="http://www.w3.org/2000/svg">
<path d="M0.00195577 4.28488C-0.0269439 3.57684 0.265659 2.89499 0.7985 2.42899L2.97772 0.522515C3.41482 0.139606 3.99011 -0.0455371 4.5681 0.0095341C5.1461 0.0646238 5.67623 0.355428 6.03295 0.813315L7.73262 2.99524C8.14625 3.52537 8.31782 4.20362 8.20676 4.8665C8.09567 5.52939 7.71185 6.1155 7.14831 6.48218L5.73042 7.40426C5.16418 7.76551 4.94382 8.4853 5.21203 9.10213C5.81803 10.3259 6.63896 11.4312 7.63498 12.365C8.56881 13.3612 9.67421 14.1821 10.8979 14.788C11.5147 15.0562 12.2345 14.8358 12.5957 14.2696L13.5178 12.8517C13.8845 12.2881 14.4706 11.9043 15.1335 11.7932C15.7964 11.6822 16.4746 11.8538 17.0048 12.2674L19.1867 13.9671C19.6446 14.3238 19.9354 14.8539 19.9905 15.4319C20.0456 16.0099 19.8604 16.5852 19.4775 17.0223L17.571 19.2015C17.105 19.7343 16.4222 20.0269 15.7151 19.998C7.85811 19.8572 0.139287 12.1195 0.00195577 4.28488ZM17.163 8.77337C17.1612 7.19924 16.5354 5.69104 15.4227 4.5776C14.3092 3.46496 12.801 2.83911 11.227 2.83731C10.8278 2.83731 10.5045 3.16061 10.5045 3.5598C10.5045 3.95898 10.8278 4.28229 11.227 4.28229C12.4173 4.28319 13.5588 4.75733 14.4013 5.59903C15.243 6.44163 15.7172 7.58316 15.7181 8.77337C15.7244 9.16802 16.0459 9.48502 16.4405 9.48502C16.8352 9.48502 17.1576 9.16802 17.163 8.77337ZM14.4023 8.77337C14.4005 7.02043 12.9799 5.59972 11.227 5.5981C10.8279 5.5981 10.5046 5.92141 10.5046 6.32059C10.5046 6.71978 10.8279 7.04309 11.227 7.04309C12.1825 7.04399 12.9565 7.81797 12.9574 8.77346C12.9628 9.16901 13.2853 9.48601 13.6799 9.48601C14.0755 9.48601 14.3969 9.16892 14.4023 8.77337Z" fill="black"/>
</svg>
