<svg width="18" height="16" viewBox="0 0 18 16" fill="none" xmlns="http://www.w3.org/2000/svg">
<path d="M15.8906 4.84375H15.1875V2.5C15.1875 1.12146 13.9259 0 12.375 0H5.625C4.07414 0 2.8125 1.12146 2.8125 2.5V4.84375H2.10938C0.946198 4.84375 0 5.68481 0 6.71875V10.375C0 11.4089 0.946198 12.25 2.10938 12.25H8.29688V14.75H4.78125V16H13.2188V14.75H9.70312V12.25H15.8906C17.0538 12.25 18 11.4089 18 10.375V6.71875C18 5.68481 17.0538 4.84375 15.8906 4.84375ZM13.7812 11H4.21875V10.3125C4.21875 9.9679 4.53419 9.6875 4.92188 9.6875H13.0781C13.4658 9.6875 13.7812 9.9679 13.7812 10.3125V11ZM5.625 1.25H12.375C13.1504 1.25 13.7812 1.81079 13.7812 2.5V8.54504C13.5611 8.47559 13.3246 8.4375 13.0781 8.4375H4.92188C4.67537 8.4375 4.43889 8.47559 4.21875 8.54504V2.5C4.21875 1.81079 4.84964 1.25 5.625 1.25ZM1.40625 10.375V6.71875C1.40625 6.37415 1.72169 6.09375 2.10938 6.09375H2.8125V11H2.10938C1.72169 11 1.40625 10.7196 1.40625 10.375ZM16.5938 10.375C16.5938 10.7196 16.2783 11 15.8906 11H15.1875V6.09375H15.8906C16.2783 6.09375 16.5938 6.37415 16.5938 6.71875V10.375Z" fill="white"/>
</svg>
