<svg width="14" height="9" viewBox="0 0 14 9" fill="none" xmlns="http://www.w3.org/2000/svg">
<path d="M6.2908 8.20714C6.46299 8.37932 6.69209 8.48275 6.93512 8.49803C7.17814 8.51331 7.41839 8.43939 7.6108 8.29014L7.7048 8.20714L13.7048 2.20714L13.7878 2.11314L13.8418 2.03614L13.8958 1.94014L13.9128 1.90414L13.9398 1.83714L13.9718 1.72914L13.9818 1.67614L13.9918 1.61614L13.9958 1.55914L13.9978 1.50014L13.9958 1.44114L13.9908 1.38314L13.9818 1.32314L13.9718 1.27114L13.9398 1.16314L13.9128 1.09614L13.8428 0.964139L13.7778 0.874138L13.7048 0.793139L13.6108 0.710139L13.5338 0.656139L13.4378 0.602139L13.4018 0.585139L13.3348 0.558138L13.2268 0.526139L13.1738 0.516139L13.1138 0.506138L13.0568 0.502139L12.9978 0.500139H0.997797C0.145797 0.500139 -0.299203 1.48614 0.214797 2.12314L0.290798 2.20714L6.2908 8.20714Z" fill="#151419"/>
</svg>
