<svg id="Component_1_1" data-name="Component 1 – 1" xmlns="http://www.w3.org/2000/svg" xmlns:xlink="http://www.w3.org/1999/xlink" width="121.198" height="138" viewBox="0 0 121.198 138">
  <defs>
    <clipPath id="clip-path">
      <rect id="Rectangle_9" data-name="Rectangle 9" width="121.198" height="138" fill="#f60"/>
    </clipPath>
  </defs>
  <g id="Group_9" data-name="Group 9" transform="translate(0 0)" opacity="0.379">
    <g id="Group_8" data-name="Group 8" transform="translate(0 0)" clip-path="url(#clip-path)">
      <path id="Path_3232" data-name="Path 3232" d="M84.045,107.224,120.514,98.3a.9.9,0,0,0,.686-.875V11.77a.9.9,0,0,0-.362-.72l0,0a.894.894,0,0,0-.8-.137L67.407,26.641,105.832,3.949a.9.9,0,0,0-.92-1.551L64.229,26.432,83.7,1.456A.9.9,0,0,0,82.278.348L60.552,28.218,35.308.294A.9.9,0,0,0,33.973,1.5L56.129,26.008,14.975,2.392a.882.882,0,0,0-.682-.09.9.9,0,0,0-.549.421.905.905,0,0,0,.333,1.229L53.409,26.524,1.159,10.908A.933.933,0,0,0,.9,10.872a.915.915,0,0,0-.542.178A.9.9,0,0,0,0,11.77V97.428a.9.9,0,0,0,.689.875l36.467,8.919V132a6.008,6.008,0,0,0,6,6H78.04a6.01,6.01,0,0,0,6-6ZM37.156,97.113v8.257L1.8,96.719V12.978L59.7,30.284V91.108H43.158a6.01,6.01,0,0,0-6,6M82.242,132a4.2,4.2,0,0,1-4.2,4.2H43.158a4.206,4.206,0,0,1-4.2-4.2V97.113a4.206,4.206,0,0,1,4.2-4.2H78.04a4.2,4.2,0,0,1,4.2,4.2Zm-4.2-40.889H61.5V30.284l57.9-17.306V96.719L84.042,105.37V97.113a6.012,6.012,0,0,0-6-6" transform="translate(0 0.001)" fill="#f60"/>
      <path id="Path_3233" data-name="Path 3233" d="M36.4,23.861,7.193,15.75a.892.892,0,0,0-.243-.034.873.873,0,0,0-.439.117.885.885,0,0,0-.423.54.9.9,0,0,0,.626,1.112l29.2,8.111a.916.916,0,0,0,1.107-.628.9.9,0,0,0-.626-1.107" transform="translate(7.571 19.653)" fill="#f60"/>
      <path id="Path_3234" data-name="Path 3234" d="M32.7,24.27A.9.9,0,0,0,33.72,25.6l31.136-8.109a.9.9,0,0,0,.641-1.1.9.9,0,0,0-.873-.673.98.98,0,0,0-.227.027L33.254,23.854a.9.9,0,0,0-.549.416" transform="translate(40.744 19.653)" fill="#f60"/>
      <path id="Path_3235" data-name="Path 3235" d="M42.419,57.469a.892.892,0,0,0-.664.18l-8.111,6.3V47.294a.9.9,0,1,0-1.8,0V63.95l-8.118-6.3a.9.9,0,0,0-1.1,1.425l9.8,7.553a.822.822,0,0,0,.626,0l.284-.153,9.52-7.4a.907.907,0,0,0,.162-1.265.891.891,0,0,0-.592-.34" transform="translate(27.857 58.013)" fill="#f60"/>
    </g>
  </g>
</svg>
