<svg width="64" height="64" viewBox="0 0 64 64" fill="none" xmlns="http://www.w3.org/2000/svg">
<rect width="64" height="64" rx="32" fill="#BDCD36"/>
<path d="M50.5003 20.8443C50.3114 20.7264 50.0955 20.6585 49.8731 20.647C49.6506 20.6356 49.4289 20.6809 49.2288 20.7787C42.1856 24.224 37.1555 22.6097 31.8382 20.9067C26.2453 19.1266 20.4703 17.2809 12.4788 21.1823C12.2581 21.2901 12.0721 21.4576 11.9419 21.6658C11.8116 21.8741 11.7425 22.1147 11.7422 22.3603V42.0363C11.7422 42.259 11.7988 42.478 11.9067 42.6728C12.0147 42.8676 12.1705 43.0317 12.3593 43.1496C12.5482 43.2676 12.764 43.3356 12.9864 43.3472C13.2088 43.3588 13.4304 43.3136 13.6305 43.2159C20.6737 39.7706 25.7039 41.385 31.0294 43.0879C34.1859 44.0969 37.4016 45.1256 41.0372 45.1256C43.841 45.1256 46.8991 44.5153 50.374 42.8189C50.5947 42.7111 50.7807 42.5436 50.9109 42.3353C51.0412 42.1271 51.1104 41.8865 51.1106 41.6409V21.9649C51.1126 21.7416 51.0576 21.5215 50.9508 21.3255C50.844 21.1294 50.689 20.9638 50.5003 20.8443ZM18.3047 35.9381C18.3047 36.2862 18.1664 36.62 17.9203 36.8662C17.6741 37.1123 17.3403 37.2506 16.9922 37.2506C16.6441 37.2506 16.3103 37.1123 16.0641 36.8662C15.818 36.62 15.6797 36.2862 15.6797 35.9381V25.4381C15.6797 25.09 15.818 24.7562 16.0641 24.51C16.3103 24.2639 16.6441 24.1256 16.9922 24.1256C17.3403 24.1256 17.6741 24.2639 17.9203 24.51C18.1664 24.7562 18.3047 25.09 18.3047 25.4381V35.9381ZM31.4297 37.2506C30.3913 37.2506 29.3763 36.9427 28.5129 36.3658C27.6496 35.7889 26.9767 34.969 26.5793 34.0097C26.182 33.0504 26.078 31.9948 26.2806 30.9764C26.4831 29.958 26.9832 29.0225 27.7174 28.2883C28.4516 27.5541 29.3871 27.054 30.4055 26.8515C31.4239 26.6489 32.4795 26.7529 33.4388 27.1502C34.3981 27.5476 35.218 28.2205 35.7949 29.0838C36.3718 29.9472 36.6797 30.9622 36.6797 32.0006C36.6797 33.393 36.1266 34.7283 35.142 35.7129C34.1574 36.6975 32.8221 37.2506 31.4297 37.2506ZM47.1797 38.5631C47.1797 38.9112 47.0414 39.245 46.7953 39.4912C46.5491 39.7373 46.2153 39.8756 45.8672 39.8756C45.5191 39.8756 45.1852 39.7373 44.9391 39.4912C44.693 39.245 44.5547 38.9112 44.5547 38.5631V28.0631C44.5547 27.715 44.693 27.3812 44.9391 27.135C45.1852 26.8889 45.5191 26.7506 45.8672 26.7506C46.2153 26.7506 46.5491 26.8889 46.7953 27.135C47.0414 27.3812 47.1797 27.715 47.1797 28.0631V38.5631Z" fill="#151419"/>
</svg>
