<svg width="19" height="18" viewBox="0 0 19 18" fill="none" xmlns="http://www.w3.org/2000/svg">
<path d="M0.333008 1.19887V16.1595C0.333008 17.8143 1.22146 18 1.59461 18H17.0714C17.7644 18 18.333 17.4597 18.333 16.8011V1.19887C18.333 0.540338 17.7644 0 17.0714 0H1.59461C0.901616 0 0.333008 0.540338 0.333008 1.19887ZM10.2303 12.5797C10.4969 12.3096 10.8523 12.1914 11.2609 12.1914C11.6874 12.1914 12.0428 12.3265 12.2915 12.5797C12.5581 12.833 12.6825 13.2214 12.6825 13.7111C12.6825 14.2008 12.5403 14.5722 12.2915 14.8424C12.025 15.1126 11.6696 15.2477 11.2609 15.2477C11.0477 15.2477 10.8523 15.2139 10.6746 15.1463C10.4969 15.0788 10.337 14.9775 10.2126 14.8424C10.0882 14.7073 9.98158 14.5553 9.9105 14.3527C9.83942 14.167 9.80389 13.9475 9.80389 13.7111C9.82166 13.2214 9.96381 12.833 10.2303 12.5797ZM10.705 9.59099C11.0604 9.59099 11.2808 9.97762 11.0997 10.2834L8.37343 14.8876C8.29086 15.027 8.14082 15.1126 7.97875 15.1126C7.6234 15.1126 7.40301 14.7259 7.58406 14.4202L10.3104 9.81598C10.3929 9.67652 10.543 9.59099 10.705 9.59099ZM7.42284 12.5291C7.20961 12.5291 7.01415 12.4953 6.83646 12.4278C6.65877 12.3602 6.49885 12.2589 6.37447 12.1238C6.25009 11.9887 6.14347 11.8368 6.0724 11.6341C6.00132 11.4484 5.96578 11.2289 5.96578 10.9925C5.96578 10.5028 6.10793 10.1144 6.3567 9.86116C6.62324 9.59099 6.97862 9.4728 7.3873 9.4728C7.81376 9.4728 8.16914 9.60788 8.4179 9.86116C8.68444 10.1144 8.80882 10.5028 8.80882 10.9925C8.80882 11.4822 8.66667 11.8537 8.4179 12.1238C8.20468 12.394 7.8493 12.5291 7.42284 12.5291ZM14.1115 2.93809C14.8924 2.93809 15.5255 3.57115 15.5255 4.35208V5.8468C15.5255 6.62772 14.8924 7.26079 14.1115 7.26079H4.57227C3.79134 7.26079 3.15828 6.62772 3.15828 5.8468V4.35208C3.15828 3.57115 3.79134 2.93809 4.57227 2.93809H14.1115Z" fill="#FDD900"/>
</svg>
