<svg width="20" height="15" viewBox="0 0 20 15" fill="none" xmlns="http://www.w3.org/2000/svg">
<path d="M19.3333 4H17.3333V10C17.3333 10.5304 17.1226 11.0391 16.7475 11.4142C16.3725 11.7893 15.8638 12 15.3333 12H4V14C4 14.1768 4.07024 14.3464 4.19526 14.4714C4.32029 14.5964 4.48986 14.6667 4.66667 14.6667H19.3333C19.5101 14.6667 19.6797 14.5964 19.8047 14.4714C19.9298 14.3464 20 14.1768 20 14V4.66667C20 4.48986 19.9298 4.32029 19.8047 4.19526C19.6797 4.07024 19.5101 4 19.3333 4Z" fill="#FDD900"/>
<path d="M8.66667 4H7.33333C6.97971 4 6.64057 4.14048 6.39052 4.39052C6.14048 4.64057 6 4.97971 6 5.33333C6 5.68696 6.14048 6.02609 6.39052 6.27614C6.64057 6.52619 6.97971 6.66667 7.33333 6.66667H8.66667C9.02029 6.66667 9.35943 6.52619 9.60948 6.27614C9.85952 6.02609 10 5.68696 10 5.33333C10 4.97971 9.85952 4.64057 9.60948 4.39052C9.35943 4.14048 9.02029 4 8.66667 4Z" fill="#FDD900"/>
<path d="M16 10V0.666667C16 0.489856 15.9298 0.320287 15.8047 0.195262C15.6797 0.070238 15.5101 0 15.3333 0H0.666667C0.489856 0 0.320286 0.070238 0.195262 0.195262C0.0702379 0.320287 0 0.489856 0 0.666667V10C0 10.1768 0.0702379 10.3464 0.195262 10.4714C0.320286 10.5964 0.489856 10.6667 0.666667 10.6667H15.3333C15.5101 10.6667 15.6797 10.5964 15.8047 10.4714C15.9298 10.3464 16 10.1768 16 10ZM8.66667 8H7.33333C6.62609 8 5.94781 7.71905 5.44772 7.21895C4.94762 6.71886 4.66667 6.04058 4.66667 5.33333C4.66667 4.62609 4.94762 3.94781 5.44772 3.44772C5.94781 2.94762 6.62609 2.66667 7.33333 2.66667H8.66667C9.37391 2.66667 10.0522 2.94762 10.5523 3.44772C11.0524 3.94781 11.3333 4.62609 11.3333 5.33333C11.3333 6.04058 11.0524 6.71886 10.5523 7.21895C10.0522 7.71905 9.37391 8 8.66667 8Z" fill="#FDD900"/>
</svg>
