<svg width="24" height="24" viewBox="0 0 24 24" fill="none" xmlns="http://www.w3.org/2000/svg">
<path d="M21.3331 9.00012H19.3331V15.0001C19.3331 15.5306 19.1224 16.0393 18.7473 16.4143C18.3722 16.7894 17.8635 17.0001 17.3331 17.0001H5.99976V19.0001C5.99976 19.1769 6.06999 19.3465 6.19502 19.4715C6.32004 19.5966 6.48961 19.6668 6.66642 19.6668H21.3331C21.5099 19.6668 21.6795 19.5966 21.8045 19.4715C21.9295 19.3465 21.9998 19.1769 21.9998 19.0001V9.66679C21.9998 9.48998 21.9295 9.32041 21.8045 9.19538C21.6795 9.07036 21.5099 9.00012 21.3331 9.00012Z" fill="#151419"/>
<path d="M10.6669 9.00012H9.33358C8.97996 9.00012 8.64082 9.1406 8.39077 9.39065C8.14072 9.6407 8.00024 9.97983 8.00024 10.3335C8.00024 10.6871 8.14072 11.0262 8.39077 11.2763C8.64082 11.5263 8.97996 11.6668 9.33358 11.6668H10.6669C11.0205 11.6668 11.3597 11.5263 11.6097 11.2763C11.8598 11.0262 12.0002 10.6871 12.0002 10.3335C12.0002 9.97983 11.8598 9.6407 11.6097 9.39065C11.3597 9.1406 11.0205 9.00012 10.6669 9.00012Z" fill="#151419"/>
<path d="M18 15V5.66667C18 5.48986 17.9298 5.32029 17.8047 5.19526C17.6797 5.07024 17.5101 5 17.3333 5H2.66667C2.48986 5 2.32029 5.07024 2.19526 5.19526C2.07024 5.32029 2 5.48986 2 5.66667V15C2 15.1768 2.07024 15.3464 2.19526 15.4714C2.32029 15.5964 2.48986 15.6667 2.66667 15.6667H17.3333C17.5101 15.6667 17.6797 15.5964 17.8047 15.4714C17.9298 15.3464 18 15.1768 18 15ZM10.6667 13H9.33333C8.62609 13 7.94781 12.719 7.44772 12.219C6.94762 11.7189 6.66667 11.0406 6.66667 10.3333C6.66667 9.62609 6.94762 8.94781 7.44772 8.44772C7.94781 7.94762 8.62609 7.66667 9.33333 7.66667H10.6667C11.3739 7.66667 12.0522 7.94762 12.5523 8.44772C13.0524 8.94781 13.3333 9.62609 13.3333 10.3333C13.3333 11.0406 13.0524 11.7189 12.5523 12.219C12.0522 12.719 11.3739 13 10.6667 13Z" fill="#151419"/>
</svg>
