<svg width="21" height="20" viewBox="0 0 21 20" fill="none" xmlns="http://www.w3.org/2000/svg">
<path d="M10.5 14C11.8118 14 12.9269 14.842 13.3345 16.015L13.3834 16.0067L13.5 16H19.5C20.0523 16 20.5 16.4477 20.5 17C20.5 17.5128 20.114 17.9355 19.6166 17.9933L19.5 18H13.5C13.4434 18 13.388 17.9953 13.334 17.9863C12.9269 19.158 11.8118 20 10.5 20C9.1882 20 8.07305 19.158 7.66547 17.985L7.61664 17.9933L7.5 18H1.5C0.947715 18 0.5 17.5523 0.5 17C0.5 16.4872 0.886023 16.0645 1.38336 16.0067L1.5 16H7.5C7.55655 16 7.61202 16.0047 7.66602 16.0137C8.07306 14.842 9.1882 14 10.5 14ZM10.5 16C9.94771 16 9.5 16.4477 9.5 17C9.5 17.5523 9.94771 18 10.5 18C11.0523 18 11.5 17.5523 11.5 17C11.5 16.4477 11.0523 16 10.5 16ZM3.5 7C4.8118 7 5.92695 7.84196 6.33453 9.01495L6.38336 9.00673L6.5 9H19.5C20.0523 9 20.5 9.44771 20.5 10C20.5 10.5128 20.114 10.9355 19.6166 10.9933L19.5 11H6.5C6.44345 11 6.38798 10.9953 6.33398 10.9863C5.92694 12.158 4.8118 13 3.5 13C1.84315 13 0.5 11.6569 0.5 10C0.5 8.34315 1.84315 7 3.5 7ZM3.5 9C2.94772 9 2.5 9.44771 2.5 10C2.5 10.5523 2.94772 11 3.5 11C4.05228 11 4.5 10.5523 4.5 10C4.5 9.44771 4.05228 9 3.5 9ZM14.5 0C15.8118 0 16.9269 0.841957 17.3345 2.01495L17.3834 2.00673L17.5 2H19.5C20.0523 2 20.5 2.44772 20.5 3C20.5 3.51284 20.114 3.93551 19.6166 3.99327L19.5 4H17.5C17.4434 4 17.388 3.9953 17.334 3.98628C16.9269 5.15804 15.8118 6 14.5 6C13.1882 6 12.0731 5.15804 11.6655 3.98505L11.6166 3.99327L11.5 4H1.5C0.947715 4 0.5 3.55228 0.5 3C0.5 2.48716 0.886023 2.06449 1.38336 2.00673L1.5 2H11.5C11.5566 2 11.612 2.0047 11.666 2.01372C12.0731 0.841958 13.1882 0 14.5 0ZM14.5 2C13.9477 2 13.5 2.44772 13.5 3C13.5 3.55228 13.9477 4 14.5 4C15.0523 4 15.5 3.55228 15.5 3C15.5 2.44772 15.0523 2 14.5 2Z" fill="black"/>
</svg>
