<svg width="37" height="37" viewBox="0 0 37 37" fill="none" xmlns="http://www.w3.org/2000/svg">
<path d="M27.4757 15.6221C27.5896 16.0203 28.0049 16.2507 28.4031 16.1367C28.8013 16.0227 29.0317 15.6075 28.9177 15.2093L27.4757 15.6221ZM25.5759 10.8677L26.116 10.3474L26.1154 10.3468L25.5759 10.8677ZM20.2124 7.91544L20.3639 7.18091L20.3625 7.18063L20.2124 7.91544ZM14.1675 8.53211L13.8721 7.84275L13.8714 7.84306L14.1675 8.53211ZM9.47161 12.5034L8.8413 12.097L8.84129 12.097L9.47161 12.5034ZM10.7728 26.1302L11.3151 25.6122L11.3148 25.6118L10.7728 26.1302ZM23.9833 27.473L24.4103 28.0896L24.4105 28.0895L23.9833 27.473ZM28.5341 22.9069C28.6876 22.5221 28.5 22.0859 28.1153 21.9324C27.7305 21.779 27.2942 21.9666 27.1408 22.3513L28.5341 22.9069ZM27.4713 15.227C27.3671 15.6279 27.6076 16.0374 28.0085 16.1416C28.4094 16.2458 28.8189 16.0052 28.9231 15.6043L27.4713 15.227ZM30.0176 11.3925C30.1218 10.9916 29.8813 10.5822 29.4804 10.478C29.0795 10.3738 28.6701 10.6143 28.5659 11.0152L30.0176 11.3925ZM27.9974 16.1386C28.3966 16.2489 28.8097 16.0147 28.9201 15.6154C29.0304 15.2162 28.7962 14.8031 28.3969 14.6927L27.9974 16.1386ZM24.313 13.5642C23.9138 13.4539 23.5007 13.6881 23.3904 14.0874C23.28 14.4866 23.5143 14.8997 23.9135 15.0101L24.313 13.5642ZM28.9177 15.2093C28.3952 13.384 27.4332 11.7146 26.116 10.3474L25.0357 11.3881C26.1829 12.5788 27.0206 14.0325 27.4757 15.6221L28.9177 15.2093ZM26.1154 10.3468C24.5606 8.73659 22.5561 7.63318 20.3639 7.18091L20.0609 8.64997C21.9572 9.04122 23.6913 9.99575 25.0363 11.3887L26.1154 10.3468ZM20.3625 7.18063C18.1821 6.73511 15.9176 6.96613 13.8721 7.84275L14.463 9.22147C16.2276 8.46521 18.1812 8.26592 20.0623 8.65026L20.3625 7.18063ZM13.8714 7.84306C11.8091 8.72948 10.0578 10.2105 8.8413 12.097L10.1019 12.9099C11.1568 11.2741 12.6754 9.98981 14.4637 9.22116L13.8714 7.84306ZM8.84129 12.097C5.88278 16.685 6.45745 22.7034 10.2308 26.6486L11.3148 25.6118C8.0211 22.1681 7.51947 16.9147 10.1019 12.9099L8.84129 12.097ZM10.2304 26.6483C13.9589 30.5516 19.9727 31.1629 24.4103 28.0896L23.5563 26.8565C19.7254 29.5095 14.5338 28.9818 11.3151 25.6122L10.2304 26.6483ZM24.4105 28.0895C26.2645 26.8047 27.6987 25.0021 28.5341 22.9069L27.1408 22.3513C26.4146 24.1727 25.1678 25.7397 23.5561 26.8566L24.4105 28.0895ZM28.9231 15.6043L30.0176 11.3925L28.5659 11.0152L27.4713 15.227L28.9231 15.6043ZM28.3969 14.6927L24.313 13.5642L23.9135 15.0101L27.9974 16.1386L28.3969 14.6927Z" fill="#575757"/>
<path d="M21.8305 15.7165H17.2945V18.1105C17.4905 17.8678 17.7705 17.6718 18.1345 17.5225C18.4985 17.3638 18.8858 17.2845 19.2965 17.2845C20.0432 17.2845 20.6545 17.4478 21.1305 17.7745C21.6065 18.1012 21.9518 18.5212 22.1665 19.0345C22.3812 19.5385 22.4885 20.0798 22.4885 20.6585C22.4885 21.7318 22.1805 22.5952 21.5645 23.2485C20.9578 23.9018 20.0898 24.2285 18.9605 24.2285C17.8965 24.2285 17.0472 23.9625 16.4125 23.4305C15.7778 22.8985 15.4185 22.2032 15.3345 21.3445H17.2385C17.3225 21.7178 17.5092 22.0165 17.7985 22.2405C18.0972 22.4645 18.4752 22.5765 18.9325 22.5765C19.4832 22.5765 19.8985 22.4038 20.1785 22.0585C20.4585 21.7132 20.5985 21.2558 20.5985 20.6865C20.5985 20.1078 20.4538 19.6692 20.1645 19.3705C19.8845 19.0625 19.4692 18.9085 18.9185 18.9085C18.5265 18.9085 18.1998 19.0065 17.9385 19.2025C17.6772 19.3985 17.4905 19.6598 17.3785 19.9865H15.5025V13.9945H21.8305V15.7165Z" fill="#575757"/>
</svg>
