<svg width="48" height="48" viewBox="0 0 48 48" fill="none" xmlns="http://www.w3.org/2000/svg">
<rect width="48" height="48" rx="24" fill="#F7F6F6"/>
<path d="M24.9954 39.0349C22.726 39.0349 20.6849 36.2984 19.4835 32.2326C21.2133 31.9267 23.0767 31.7599 24.9954 31.7599C26.9141 31.7599 28.7776 31.9267 30.5073 32.2326C29.3059 36.2986 27.259 39.0349 24.9954 39.0349ZM24.9954 30.6475C22.9763 30.6475 21.0184 30.8255 19.1887 31.1536C18.6993 29.1735 18.41 26.9321 18.3711 24.5681H31.6201C31.5811 26.9264 31.2864 29.168 30.8024 31.1536C28.9781 30.8199 27.0145 30.6475 24.9958 30.6475H24.9954ZM9.99428 24.5738H17.2583C17.2972 27.0323 17.5864 29.3407 18.0815 31.3818C16.2015 31.8046 14.4997 32.3942 13.0811 33.1395C11.2456 30.7477 10.1167 27.7886 9.99428 24.5738ZM13.0757 14.8956C14.4996 15.641 16.196 16.2305 18.076 16.6533C17.581 18.6946 17.2918 20.9972 17.2528 23.4613H9.99418C10.111 20.2464 11.2456 17.2872 13.0811 14.8958L13.0757 14.8956ZM24.9951 9C27.2644 9 29.3056 11.7365 30.507 15.8023C28.7772 16.1082 26.9138 16.2751 24.9951 16.2751C23.0764 16.2751 21.2129 16.1082 19.4832 15.8023C20.6846 11.7364 22.7314 9 24.9951 9ZM24.9951 17.3875C27.0141 17.3875 28.972 17.2095 30.8017 16.8813C31.2912 18.8614 31.5804 21.1028 31.6194 23.4668H18.3704C18.4093 21.1085 18.7041 18.8669 19.188 16.8813C21.0124 17.215 22.9759 17.3875 24.9947 17.3875H24.9951ZM39.9962 23.4611H32.7322C32.6932 21.0027 32.404 18.6942 31.909 16.6531C33.789 16.2304 35.4908 15.6408 36.9093 14.8955C38.7448 17.2872 39.8738 20.2463 39.9962 23.4611ZM32.7322 24.5735H39.9962C39.8794 27.7884 38.7447 30.7475 36.9092 33.1389C35.4853 32.3936 33.7889 31.804 31.9088 31.3813C32.4039 29.34 32.6932 27.0375 32.7322 24.5735ZM36.1918 14.0221C34.8847 14.6784 33.3385 15.2012 31.6311 15.5795C30.8468 12.8652 29.6843 10.7016 28.2883 9.36665C31.3919 10.0619 34.1396 11.725 36.1918 14.0221ZM21.7026 9.36665C20.3065 10.7016 19.1441 12.8652 18.3598 15.5795C16.6522 15.2012 15.106 14.6728 13.7991 14.0221C15.8515 11.7249 18.5935 10.0676 21.7026 9.36665ZM13.7989 34.0121C15.106 33.3558 16.6523 32.833 18.3597 32.4548C19.1439 35.1691 20.3064 37.3327 21.7025 38.6676C18.5988 37.9723 15.8511 36.3092 13.7989 34.0121ZM28.2881 38.6676C29.6842 37.3327 30.8467 35.169 31.6309 32.4548C33.3385 32.833 34.8847 33.3614 36.1917 34.0121C34.1393 36.3093 31.3972 37.9666 28.2881 38.6676Z" fill="#151419"/>
</svg>
