<svg width="70" height="70" viewBox="0 0 70 70" fill="none" xmlns="http://www.w3.org/2000/svg">
<circle cx="35" cy="35" r="35" fill="white"/>
<path d="M45.1322 35.5741C45.3736 35.2982 45.5 34.9367 45.5 34.5714C45.5 34.2062 45.3736 33.8447 45.1322 33.5687C44.8889 33.2907 44.5435 33.119 44.1667 33.119H25.8333C25.4565 33.119 25.1111 33.2907 24.8678 33.5687C24.6264 33.8447 24.5 34.2062 24.5 34.5714C24.5 34.9367 24.6264 35.2982 24.8678 35.5741C25.1111 35.8522 25.4565 36.0238 25.8333 36.0238H35H44.1667C44.5435 36.0238 44.8889 35.8522 45.1322 35.5741ZM25.8333 28.4048H44.1667C44.5435 28.4048 44.8889 28.2331 45.1322 27.9551C45.3736 27.6791 45.5 27.3176 45.5 26.9524C45.5 26.5871 45.3736 26.2256 45.1322 25.9497C44.8889 25.6716 44.5435 25.5 44.1667 25.5H25.8333C25.4565 25.5 25.1111 25.6716 24.8678 25.9497C24.6264 26.2256 24.5 26.5871 24.5 26.9524C24.5 27.3176 24.6264 27.6791 24.8678 27.9551C25.1111 28.2331 25.4565 28.4048 25.8333 28.4048ZM25.8333 40.7381C25.4565 40.7381 25.1111 40.9097 24.8678 41.1878C24.6264 41.4637 24.5 41.8252 24.5 42.1905C24.5 42.5557 24.6264 42.9172 24.8678 43.1932C25.1111 43.4712 25.4565 43.6429 25.8333 43.6429H44.1667C44.5435 43.6429 44.8889 43.4712 45.1322 43.1932C45.3736 42.9172 45.5 42.5557 45.5 42.1905C45.5 41.8252 45.3736 41.4637 45.1322 41.1878C44.8889 40.9097 44.5435 40.7381 44.1667 40.7381H25.8333Z" fill="#151419" stroke="#151419"/>
</svg>
