<svg width="70" height="70" viewBox="0 0 70 70" fill="none" xmlns="http://www.w3.org/2000/svg">
<circle cx="35" cy="35" r="35" fill="#0045C0"/>
<path d="M45 34.5714C45 34.824 44.9122 35.0663 44.7559 35.2449C44.5996 35.4235 44.3877 35.5238 44.1667 35.5238H35H25.8333C25.6123 35.5238 25.4004 35.4235 25.2441 35.2449C25.0878 35.0663 25 34.824 25 34.5714C25 34.3188 25.0878 34.0766 25.2441 33.898C25.4004 33.7194 25.6123 33.619 25.8333 33.619H44.1667C44.3877 33.619 44.5996 33.7194 44.7559 33.898C44.9122 34.0766 45 34.3188 45 34.5714ZM25.8333 27.9048H44.1667C44.3877 27.9048 44.5996 27.8044 44.7559 27.6258C44.9122 27.4472 45 27.205 45 26.9524C45 26.6998 44.9122 26.4576 44.7559 26.2789C44.5996 26.1003 44.3877 26 44.1667 26H25.8333C25.6123 26 25.4004 26.1003 25.2441 26.2789C25.0878 26.4576 25 26.6998 25 26.9524C25 27.205 25.0878 27.4472 25.2441 27.6258C25.4004 27.8044 25.6123 27.9048 25.8333 27.9048ZM44.1667 41.2381H25.8333C25.6123 41.2381 25.4004 41.3384 25.2441 41.517C25.0878 41.6956 25 41.9379 25 42.1905C25 42.4431 25.0878 42.6853 25.2441 42.8639C25.4004 43.0425 25.6123 43.1429 25.8333 43.1429H44.1667C44.3877 43.1429 44.5996 43.0425 44.7559 42.8639C44.9122 42.6853 45 42.4431 45 42.1905C45 41.9379 44.9122 41.6956 44.7559 41.517C44.5996 41.3384 44.3877 41.2381 44.1667 41.2381Z" fill="white" stroke="#fff"/>
<path fill-rule="evenodd" clip-rule="evenodd" d="M46 34.5714C46 35.0493 45.8351 35.5301 45.5085 35.9034C45.1782 36.2809 44.6993 36.5238 44.1667 36.5238H25.8333C25.3007 36.5238 24.8218 36.2809 24.4915 35.9034C24.1649 35.5301 24 35.0493 24 34.5714C24 34.0935 24.1649 33.6127 24.4915 33.2395C24.8218 32.862 25.3007 32.619 25.8333 32.619H44.1667C44.6993 32.619 45.1782 32.862 45.5085 33.2395C45.8351 33.6127 46 34.0935 46 34.5714ZM44.1667 28.9048H25.8333C25.3007 28.9048 24.8218 28.6618 24.4915 28.2843C24.1649 27.9111 24 27.4303 24 26.9524C24 26.4745 24.1649 25.9937 24.4915 25.6204C24.8218 25.2429 25.3007 25 25.8333 25H44.1667C44.6993 25 45.1782 25.2429 45.5085 25.6204C45.8351 25.9937 46 26.4745 46 26.9524C46 27.4303 45.8351 27.9111 45.5085 28.2843C45.1782 28.6618 44.6993 28.9048 44.1667 28.9048ZM25.8333 40.2381H44.1667C44.6993 40.2381 45.1782 40.481 45.5085 40.8585C45.8351 41.2318 46 41.7126 46 42.1905C46 42.6684 45.8351 43.1492 45.5085 43.5224C45.1782 43.8999 44.6993 44.1429 44.1667 44.1429H25.8333C25.3007 44.1429 24.8218 43.8999 24.4915 43.5224C24.1649 43.1492 24 42.6684 24 42.1905C24 41.7126 24.1649 41.2318 24.4915 40.8585C24.8218 40.481 25.3007 40.2381 25.8333 40.2381ZM44.7559 35.2449C44.9122 35.0663 45 34.824 45 34.5714C45 34.3188 44.9122 34.0766 44.7559 33.898C44.5996 33.7194 44.3877 33.619 44.1667 33.619H25.8333C25.6123 33.619 25.4004 33.7194 25.2441 33.898C25.0878 34.0766 25 34.3188 25 34.5714C25 34.824 25.0878 35.0663 25.2441 35.2449C25.4004 35.4235 25.6123 35.5238 25.8333 35.5238H44.1667C44.3877 35.5238 44.5996 35.4235 44.7559 35.2449ZM44.1667 27.9048H25.8333C25.6123 27.9048 25.4004 27.8044 25.2441 27.6258C25.0878 27.4472 25 27.205 25 26.9524C25 26.6998 25.0878 26.4576 25.2441 26.2789C25.4004 26.1003 25.6123 26 25.8333 26H44.1667C44.3877 26 44.5996 26.1003 44.7559 26.2789C44.9122 26.4576 45 26.6998 45 26.9524C45 27.205 44.9122 27.4472 44.7559 27.6258C44.5996 27.8044 44.3877 27.9048 44.1667 27.9048ZM25.8333 41.2381H44.1667C44.3877 41.2381 44.5996 41.3384 44.7559 41.517C44.9122 41.6956 45 41.9379 45 42.1905C45 42.4431 44.9122 42.6853 44.7559 42.8639C44.5996 43.0425 44.3877 43.1429 44.1667 43.1429H25.8333C25.6123 43.1429 25.4004 43.0425 25.2441 42.8639C25.0878 42.6853 25 42.4431 25 42.1905C25 41.9379 25.0878 41.6956 25.2441 41.517C25.4004 41.3384 25.6123 41.2381 25.8333 41.2381Z" fill="white" stroke="#fff"/>
</svg>
