<svg width="21" height="20" viewBox="0 0 21 20" fill="none" xmlns="http://www.w3.org/2000/svg">
<path d="M20.4375 5.90444C20.4263 5.06468 20.2689 4.23327 19.9722 3.4474C19.7149 2.78453 19.322 2.18251 18.8184 1.67983C18.3149 1.17715 17.7119 0.784856 17.0479 0.528009C16.2709 0.236798 15.45 0.0793351 14.6201 0.0623252C13.5517 0.0146481 13.213 0.00134277 10.5008 0.00134277C7.78871 0.00134277 7.44109 0.00134285 6.38045 0.0623252C5.551 0.0794602 4.73046 0.236921 3.95375 0.528009C3.28967 0.784677 2.68656 1.17691 2.18302 1.67961C1.67948 2.18232 1.28659 2.78442 1.0295 3.4474C0.737216 4.22258 0.579833 5.04194 0.564148 5.87007C0.516391 6.93781 0.501953 7.27599 0.501953 9.9836C0.501953 12.6912 0.501953 13.0372 0.564148 14.0971C0.580807 14.9265 0.737404 15.7448 1.0295 16.522C1.28702 17.1848 1.6802 17.7867 2.18391 18.2892C2.68762 18.7916 3.29078 19.1837 3.95486 19.4403C4.72944 19.7432 5.55012 19.912 6.38156 19.9393C7.45109 19.9869 7.78983 20.0013 10.502 20.0013C13.2141 20.0013 13.5617 20.0013 14.6223 19.9393C15.4521 19.9229 16.2731 19.7658 17.0502 19.4747C17.714 19.2175 18.3168 18.8251 18.8203 18.3225C19.3238 17.8198 19.7168 17.218 19.9744 16.5553C20.2665 15.7791 20.4231 14.9609 20.4398 14.1304C20.4875 13.0638 20.502 12.7256 20.502 10.0169C20.4997 7.30925 20.4997 6.96553 20.4375 5.90444ZM10.4942 15.1039C7.65766 15.1039 5.35979 12.8099 5.35979 9.97806C5.35979 7.14626 7.65766 4.85221 10.4942 4.85221C11.8559 4.85221 13.1619 5.39226 14.1247 6.35354C15.0876 7.31482 15.6286 8.6186 15.6286 9.97806C15.6286 11.3375 15.0876 12.6413 14.1247 13.6026C13.1619 14.5639 11.8559 15.1039 10.4942 15.1039ZM15.8329 5.85787C15.6757 5.85801 15.5199 5.8272 15.3746 5.76718C15.2293 5.70717 15.0972 5.61913 14.986 5.50811C14.8748 5.39709 14.7866 5.26527 14.7265 5.12019C14.6664 4.97511 14.6355 4.81962 14.6357 4.66261C14.6357 4.50572 14.6666 4.35037 14.7268 4.20542C14.7869 4.06047 14.8751 3.92877 14.9862 3.81783C15.0973 3.7069 15.2292 3.61889 15.3744 3.55886C15.5196 3.49882 15.6752 3.46791 15.8324 3.46791C15.9895 3.46791 16.1451 3.49882 16.2903 3.55886C16.4355 3.61889 16.5674 3.7069 16.6786 3.81783C16.7897 3.92877 16.8778 4.06047 16.938 4.20542C16.9981 4.35037 17.0291 4.50572 17.0291 4.66261C17.0291 5.32344 16.4937 5.85787 15.8329 5.85787Z" fill="#161616"/>
<path d="M10.4934 13.3076C12.3354 13.3076 13.8286 11.8169 13.8286 9.97795C13.8286 8.13905 12.3354 6.64832 10.4934 6.64832C8.65142 6.64832 7.1582 8.13905 7.1582 9.97795C7.1582 11.8169 8.65142 13.3076 10.4934 13.3076Z" fill="#161616"/>
</svg>
