<svg width="24" height="18" viewBox="0 0 24 18" fill="none" xmlns="http://www.w3.org/2000/svg">
<path d="M3.41135 1.71432L1.58565 0.197192C1.89743 0.0654063 2.2328 -0.00209271 2.57137 4.94642e-05H21.4285C21.7671 -0.00209326 22.1024 0.0654063 22.4142 0.197192L20.5885 1.71432L12.5572 8.37425C12.2368 8.63783 11.7761 8.64211 11.4515 8.38282L3.41135 1.71432ZM23.6915 1.37146L22.2772 2.53718L13.6457 9.70289C13.1796 10.079 12.5989 10.2847 12 10.2857C11.4032 10.2857 10.8246 10.08 10.3628 9.70289L1.72284 2.53718L0.308571 1.37146C0.109286 1.74005 0.00320914 2.15255 0 2.57146V14.5715C0.00428571 15.99 1.15285 17.1386 2.57143 17.1429H21.4286C22.8471 17.1386 23.9957 15.99 24 14.5715V2.57146C23.9968 2.15255 23.8908 1.74005 23.6915 1.37146Z" fill="black"/>
</svg>
