<svg width="48" height="49" viewBox="0 0 48 49" fill="none" xmlns="http://www.w3.org/2000/svg">
<g clip-path="url(#clip0_1_3057)">
<rect y="48.9414" width="48" height="48" rx="24" transform="rotate(-90 0 48.9414)" fill="white"/>
<path d="M33.1298 23.8504L27.2631 18.1933C26.6382 17.5908 25.6251 17.5908 25.0003 18.1933C24.3754 18.7959 24.3754 19.7728 25.0003 20.3753L28.1356 23.3984L15.9984 23.3984C15.1148 23.3984 14.3984 24.0892 14.3984 24.9412C14.3984 25.7933 15.1148 26.4841 15.9984 26.4841L28.1356 26.4841L25.0005 29.5076C24.3756 30.1101 24.3756 31.087 25.0005 31.6896C25.6253 32.2921 26.6385 32.2921 27.2633 31.6896L33.13 26.0325C33.7546 25.4298 33.7546 24.4529 33.1298 23.8504Z" fill="black"/>
</g>
<rect x="0.5" y="48.4414" width="47" height="47" rx="23.5" transform="rotate(-90 0.5 48.4414)" stroke="#151419" stroke-opacity="0.2"/>
<defs>
<clipPath id="clip0_1_3057">
<rect y="48.9414" width="48" height="48" rx="24" transform="rotate(-90 0 48.9414)" fill="white"/>
</clipPath>
</defs>
</svg>
