<svg width="48" height="48" viewBox="0 0 48 48" fill="none" xmlns="http://www.w3.org/2000/svg">
<rect width="48" height="48" rx="24" fill="#F7F6F6"/>
<path d="M25.9274 38.7849C25.9888 38.9184 26.1236 39.0025 26.2705 38.9998C26.4173 38.9972 26.5482 38.9064 26.6042 38.7715L27.2451 37.2335C27.3252 37.0466 27.5401 36.9572 27.7297 37.0333L29.1609 37.6247C29.3024 37.6848 29.4666 37.6514 29.5734 37.5406C29.6802 37.4311 29.7083 37.2656 29.6442 37.1267L28.5614 34.7984C27.7283 34.5914 26.8953 34.4072 26.0769 34.2577V34.2563C25.7498 34.7543 25.1931 35.0547 24.5963 35.0547H24.1904L24.2398 35.1615L25.9274 38.7849Z" fill="#151419"/>
<path d="M17.4119 37.1266C17.3479 37.2654 17.3759 37.4309 17.4827 37.5417C17.5895 37.6512 17.7537 37.6846 17.8952 37.6245L19.3264 37.0331C19.516 36.957 19.731 37.0464 19.8111 37.2333L20.4519 38.7713C20.508 38.9062 20.6388 38.997 20.7857 38.9996C20.9325 39.0023 21.0674 38.9182 21.1288 38.7847L22.8163 35.1612L22.8657 35.0543H22.4598C21.9085 35.053 21.3878 34.798 21.05 34.3628C20.1675 34.5697 19.2704 34.7967 18.3799 35.0463L17.4119 37.1266Z" fill="#151419"/>
<path d="M34.0593 35.7518C34.2836 35.9894 34.5947 36.1229 34.9204 36.1229C36.9991 36.1229 37.0565 31.0109 37.0565 30.4261C37.0565 29.8427 36.9991 24.7294 34.9204 24.7294C34.5666 24.732 34.2329 24.8882 34.0019 25.1566C32.9165 25.6412 31.795 26.0431 30.6482 26.3608C29.2517 26.7413 27.8205 26.9896 26.376 27.1005V33.3591C27.8192 33.6648 29.245 34.0427 30.6482 34.4912C31.8591 34.8837 32.9979 35.3112 34.0593 35.7518ZM35.6334 30.4262C35.6334 32.6624 35.2209 34.1003 34.9218 34.5771C34.6227 34.1004 34.2102 32.6612 34.2102 30.4262C34.2102 28.1899 34.6227 26.752 34.9218 26.2753C35.2195 26.7519 35.6334 28.1898 35.6334 30.4262Z" fill="#151419"/>
<path d="M12.1361 24.7295C10.0574 24.7295 10 29.8415 10 30.4262C10 31.0097 10.0574 36.123 12.1361 36.123C12.4018 36.123 12.6608 36.0322 12.8691 35.8667C14.2295 35.3887 15.646 34.9308 17.1201 34.4916C18.3377 34.1351 19.5246 33.8133 20.6807 33.5236V26.9803C19.4819 26.8441 18.2936 26.6372 17.1201 26.3608C15.7036 26.0217 14.3125 25.5852 12.9545 25.0578C12.7342 24.8469 12.4405 24.7295 12.1361 24.7295ZM11.4232 30.4262C11.4232 28.19 11.8357 26.7521 12.1348 26.2753C12.4338 26.752 12.8464 28.1912 12.8464 30.4262C12.8464 32.6625 12.4338 34.1004 12.1348 34.5771C11.8371 34.1005 11.4232 32.6626 11.4232 30.4262Z" fill="#151419"/>
<path d="M22.4606 26.1538H24.5967C24.9906 26.1538 25.3083 26.5476 25.3083 26.8654V33.2737C25.3083 33.6676 24.9892 33.9853 24.5967 33.9853H22.4606C22.0668 33.9853 21.749 33.5915 21.749 33.2737V26.8654C21.749 26.4716 22.0681 26.1538 22.4606 26.1538Z" fill="#151419"/>
<path d="M32.3081 13.5641L23.8638 9.08511C23.6542 8.97163 23.4032 8.97163 23.1936 9.08511L14.7493 13.5641C14.5157 13.6856 14.3701 13.9273 14.3701 14.1903C14.3701 14.4533 14.5156 14.6949 14.7493 14.8177L23.1936 19.2967V19.2954C23.4032 19.4102 23.6542 19.4102 23.8638 19.2954L26.9612 17.6506L23.1015 14.7602C22.7864 14.5239 22.7236 14.0779 22.9586 13.7629C23.1949 13.4491 23.6408 13.385 23.9559 13.6213L28.2281 16.8255C28.2682 16.8522 28.3042 16.8869 28.3349 16.9243L32.3081 14.8162V14.8176C32.5418 14.6947 32.6873 14.4531 32.6873 14.1901C32.6873 13.9271 32.5418 13.6856 32.3081 13.5641Z" fill="#151419"/>
<path d="M24.3614 20.2435C23.8407 20.5185 23.2159 20.5185 22.6952 20.2435L16.0518 16.7256V20.8618C16.0518 21.1368 16.2093 21.3865 16.4576 21.504L23.2224 24.7255C23.416 24.8176 23.6403 24.8176 23.8339 24.7255L30.5987 21.504C30.8471 21.3865 31.0046 21.1368 31.0046 20.8618V16.7256L28.512 18.0433V20.6V20.5986C28.512 20.9925 28.1943 21.3116 27.8004 21.3116C27.4066 21.3116 27.0888 20.9925 27.0888 20.5986V18.7976L24.3614 20.2435Z" fill="#151419"/>
</svg>
