<svg width="48" height="48" viewBox="0 0 48 48" fill="none" xmlns="http://www.w3.org/2000/svg">
<rect width="48" height="48" rx="24" fill="black" fill-opacity="0.1"/>
<path d="M36.414 16.0918V31.2438H28.179C27.157 31.2438 26.21 31.5568 25.708 32.0578C25.708 32.0578 24.844 32.6378 24.312 32.6378C23.782 32.6378 22.917 32.0578 22.917 32.0578C22.415 31.5558 21.467 31.2438 20.445 31.2438H12.254V16.0918C11.506 16.5368 11 17.3438 11 18.2778V31.3498C11 32.7578 12.142 33.8988 13.55 33.8988H35.118C36.526 33.8988 37.668 32.7578 37.668 31.3498V18.2768C37.668 17.3438 37.161 16.5368 36.414 16.0918Z" fill="black"/>
<path d="M24.3342 31.262C25.0682 30.527 26.2942 30.117 27.6022 30.117C28.9092 30.117 35.2792 30.117 35.2792 30.117V14.001C35.2792 14.001 30.5422 14.001 27.7642 14.001C24.9872 14.001 24.3342 17.059 24.3342 17.059C24.3342 17.059 23.6822 14 20.9032 14C18.1272 14 13.3892 14 13.3892 14V30.117C13.3892 30.117 19.7592 30.117 21.0662 30.117C22.3732 30.117 23.6002 30.527 24.3342 31.262ZM21.7202 22.348C21.7202 21.692 21.7202 20.619 21.7202 19.961V18.979C21.7202 18.323 22.1852 18.055 22.7532 18.383L23.6042 18.873C24.1722 19.201 25.1032 19.738 25.6712 20.066L26.5222 20.558C27.0902 20.886 27.0902 21.423 26.5222 21.751L25.6712 22.241C25.1032 22.569 24.1722 23.107 23.6042 23.435L22.7532 23.926C22.1852 24.254 21.7202 23.986 21.7202 23.328V22.348ZM19.7872 26.327H24.4412C24.6302 25.907 25.0512 25.612 25.5432 25.612C26.0352 25.612 26.4562 25.907 26.6452 26.327H28.8812V27.315H26.6452C26.4572 27.736 26.0352 28.03 25.5432 28.03C25.0512 28.03 24.6312 27.736 24.4412 27.315H19.7872V26.327Z" fill="black"/>
</svg>
