<svg width="48" height="49" viewBox="0 0 48 49" fill="none" xmlns="http://www.w3.org/2000/svg">
<g clip-path="url(#clip0_4086_7917)">
<rect width="48" height="48" rx="24" transform="matrix(4.37114e-08 -1 -1 -4.37114e-08 48 48.082)" fill="#212025"/>
<path d="M14.8702 22.9908L20.7369 17.3337C21.3618 16.7312 22.3749 16.7312 22.9997 17.3337C23.6246 17.9363 23.6246 18.9132 22.9997 19.5157L19.8644 22.5388L32.0016 22.5388C32.8852 22.5388 33.6016 23.2296 33.6016 24.0816C33.6016 24.9337 32.8852 25.6245 32.0016 25.6245L19.8644 25.6245L22.9995 28.648C23.6244 29.2505 23.6244 30.2274 22.9995 30.8299C22.3747 31.4325 21.3615 31.4325 20.7367 30.8299L14.87 25.1729C14.2454 24.5702 14.2454 23.5933 14.8702 22.9908Z" fill="white"/>
</g>
<rect x="-0.5" y="-0.5" width="47" height="47" rx="23.5" transform="matrix(4.37114e-08 -1 -1 -4.37114e-08 47 47.082)" stroke="#F7F6F6" stroke-opacity="0.2"/>
<defs>
<clipPath id="clip0_4086_7917">
<rect width="48" height="48" rx="24" transform="matrix(4.37114e-08 -1 -1 -4.37114e-08 48 48.082)" fill="white"/>
</clipPath>
</defs>
</svg>
