<svg width="76" height="51" viewBox="0 0 76 51" fill="none" xmlns="http://www.w3.org/2000/svg">
<path d="M19.2868 32.9924L19.2261 32.5624H18.7918H6.46429C3.16931 32.5624 0.5 29.899 0.5 26.6177V6.4539C0.5 3.16339 3.16931 0.5 6.47354 0.5H26.6895C29.9845 0.5 32.6538 3.16339 32.6538 6.44468V26.5807C32.6506 26.6096 32.6472 26.6397 32.6438 26.671C32.6072 27.0012 32.5558 27.4652 32.4827 28.016C32.4826 28.0166 32.4825 28.0173 32.4824 28.0179L32.4815 28.0246C32.0729 30.9316 30.7775 40.1477 23.585 46.4706L23.5848 46.4707C22.4291 47.4879 20.3645 49.0867 17.2993 50.4067C16.332 50.8225 15.3981 49.7352 15.9516 48.8438C16.9345 47.2703 17.8886 45.3205 18.5686 43.0041C19.8254 38.7271 19.5795 35.0633 19.2868 32.9924Z" fill="white" stroke="#151419"/>
<path d="M61.6887 32.9924L61.6279 32.5624H61.1936H48.8661C45.5712 32.5624 42.9019 29.899 42.9019 26.6177V6.4539C42.9019 3.16339 45.5712 0.5 48.8754 0.5H69.0821C72.3863 0.5 75.0556 3.16339 75.0556 6.4539V26.5807C75.0524 26.6094 75.0491 26.6393 75.0457 26.6704C75.0091 27.0007 74.9576 27.4649 74.8845 28.016C74.8844 28.0167 74.8843 28.0173 74.8843 28.0179L74.8833 28.0246C74.4747 30.9316 73.1794 40.1477 65.9868 46.4706L65.9866 46.4707C64.831 47.4879 62.7664 49.0867 59.7011 50.4067C58.7338 50.8225 57.8 49.7352 58.3535 48.8438C59.3363 47.2703 60.2904 45.3205 60.9705 43.0041C62.2273 38.7271 61.9814 35.0633 61.6887 32.9924Z" fill="white" stroke="#151419"/>
</svg>
