<svg width="46" height="46" viewBox="0 0 46 46" fill="none" xmlns="http://www.w3.org/2000/svg">
<rect width="46" height="46" rx="23" fill="#9DDAF0"/>
<path d="M27.0011 17.4748C24.9183 17.4736 23.2291 15.7576 23.2279 13.6417V9.32342C22.9647 9.27018 22.6965 9.24294 22.4284 9.24418H13.566C11.1774 9.2479 9.24344 11.2152 9.24219 13.6417V32.579C9.24341 35.0056 11.1775 36.9728 13.566 36.9766H26.1823C28.5709 36.9729 30.5049 35.0056 30.5061 32.579V17.9106C30.5074 17.7645 30.5 17.6197 30.4818 17.4748H27.0011ZM23.7739 19.6439H27.6737C27.9406 19.6476 28.1539 19.868 28.1539 20.1391C28.1539 20.4103 27.9406 20.6307 27.6737 20.6344H23.7739C23.507 20.6307 23.2937 20.4103 23.2937 20.1391C23.2937 19.868 23.507 19.6476 23.7739 19.6439ZM23.7739 22.6152H27.6737C27.9406 22.619 28.1539 22.8393 28.1539 23.1105C28.1539 23.3816 27.9406 23.602 27.6737 23.6057H23.7739C23.507 23.602 23.2937 23.3816 23.2937 23.1105C23.2937 22.8393 23.507 22.619 23.7739 22.6152ZM11.5869 21.4614C11.5869 20.3633 12.2779 19.3876 13.3029 19.0398L14.9457 18.4851C13.9573 17.72 13.56 16.4002 13.9573 15.2041C14.3546 14.0082 15.4588 13.2034 16.7006 13.2034C17.9425 13.2034 19.0466 14.0082 19.444 15.2041C19.8412 16.4001 19.444 17.7199 18.4556 18.4851L20.0935 19.0398C21.1197 19.3864 21.8119 20.362 21.8095 21.4614V22.5212C21.8107 23.1179 21.3342 23.6033 20.7468 23.6057H12.6544C12.3716 23.6057 12.0999 23.4918 11.9 23.2875C11.6989 23.0845 11.5868 22.8084 11.5868 22.5212L11.5869 21.4614ZM27.6737 32.0244H12.0743C11.8086 32.0207 11.5941 31.8003 11.5941 31.5292C11.5941 31.2581 11.8086 31.0377 12.0743 31.034H27.6737C27.9394 31.0377 28.1539 31.2581 28.1539 31.5292C28.1539 31.8003 27.9394 32.0207 27.6737 32.0244ZM28.1612 29.0531C28.16 29.3267 27.9431 29.5471 27.6737 29.5483H12.0743C11.8049 29.5471 11.588 29.3267 11.5868 29.0531V25.5864C11.588 25.3128 11.8049 25.0924 12.0743 25.0912H27.6737C27.9431 25.0924 28.16 25.3128 28.1612 25.5864V29.0531Z" fill="#151419"/>
<path d="M27.0011 16.4847H30.2673C30.0845 15.9313 29.792 15.42 29.4094 14.9842L25.6558 10.7153C25.2524 10.2548 24.7576 9.88581 24.2031 9.63574V13.6422C24.2031 15.212 25.4558 16.4847 27.0011 16.4847Z" fill="#151419"/>
<path d="M12.5625 26.0815H27.187V28.5576H12.5625V26.0815Z" fill="#151419"/>
<path d="M18.6226 16.1477C18.6128 15.0768 17.7561 14.2139 16.7019 14.2139C15.6477 14.2139 14.791 15.0768 14.7812 16.1477C14.791 17.2186 15.6477 18.0816 16.7019 18.0816C17.7561 18.0816 18.6129 17.2186 18.6226 16.1477Z" fill="#151419"/>
<path d="M12.6551 22.6155H20.7474C20.7718 22.6155 20.795 22.6056 20.8108 22.5871C20.8279 22.5697 20.8364 22.5462 20.8352 22.5214V21.4617C20.8376 20.7894 20.4147 20.1927 19.7871 19.9809C19.1558 19.8039 17.3497 19.0388 16.7013 19.0895C16.0359 19.0363 14.2603 19.8076 13.6107 19.9809C12.9843 20.1951 12.5626 20.7906 12.5626 21.4617V22.5214C12.5614 22.5462 12.5711 22.571 12.5894 22.5883C12.6065 22.6069 12.6307 22.6168 12.6551 22.6155Z" fill="#151419"/>
<path d="M35.5406 12.7109H33.2445C32.707 12.7122 32.2707 13.1554 32.2695 13.7014V16.1775H36.5154V13.7014C36.5154 13.4389 36.413 13.1864 36.2302 13.0007C36.0474 12.8149 35.7989 12.7109 35.5406 12.7109Z" fill="#151419"/>
<path d="M32.2695 17.168H36.5154V31.0044H32.2695V17.168Z" fill="#151419"/>
<path d="M33.9319 36.6397C34.0014 36.8378 34.1854 36.9691 34.3926 36.9691C34.5998 36.9691 34.7838 36.8378 34.8533 36.6397L36.3791 31.9946H32.4062L33.9319 36.6397Z" fill="#151419"/>
</svg>
