<svg width="24" height="25" viewBox="0 0 24 25" fill="none" xmlns="http://www.w3.org/2000/svg">
<g clip-path="url(#clip0_4904_705)">
<path d="M16.6076 12.7076L12.6964 8.68487C12.2799 8.25641 11.6044 8.25641 11.1879 8.68487C10.7713 9.11333 10.7713 9.80803 11.1879 10.2365L13.2781 12.3863H5.18666C4.59758 12.3863 4.12 12.8775 4.12 13.4834C4.12 14.0893 4.59758 14.5805 5.18666 14.5805H13.2781L11.188 16.7306C10.7715 17.159 10.7715 17.8537 11.188 18.2822C11.6046 18.7106 12.28 18.7106 12.6966 18.2822L16.6077 14.2594C17.0241 13.8308 17.0241 13.1361 16.6076 12.7076Z" fill="#151419"/>
</g>
<defs>
<clipPath id="clip0_4904_705">
<rect y="24.5155" width="24" height="24" rx="12" transform="rotate(-90 0 24.5155)" fill="white"/>
</clipPath>
</defs>
</svg>
