<svg width="18" height="18" viewBox="0 0 18 18" fill="none" xmlns="http://www.w3.org/2000/svg">
<g clip-path="url(#clip0_24884_3875)">
<path d="M12.1952 2.39635C13.2773 3.02114 14.1774 3.9177 14.8065 4.99728C15.4356 6.07687 15.7719 7.30203 15.782 8.5515C15.7921 9.80097 15.4757 11.0314 14.8641 12.121C14.2525 13.2106 13.3669 14.1216 12.2951 14.7638C11.2232 15.406 10.0022 15.7571 8.75298 15.7824C7.50372 15.8077 6.26953 15.5062 5.17257 14.9079C4.07561 14.3097 3.15392 13.4352 2.49875 12.3713C1.84358 11.3073 1.47765 10.0907 1.43718 8.84182L1.43359 8.60937L1.43718 8.37692C1.47736 7.1379 1.8379 5.93043 2.48367 4.87223C3.12943 3.81403 4.03837 2.94121 5.12187 2.33887C6.20537 1.73653 7.42647 1.42522 8.6661 1.4353C9.90574 1.44537 11.1216 1.77648 12.1952 2.39635ZM11.2675 6.66727C11.144 6.54374 10.9796 6.46953 10.8053 6.45857C10.6309 6.44761 10.4586 6.50064 10.3205 6.60772L10.2531 6.66727L7.89055 9.02907L6.9629 8.10214L6.89546 8.0426C6.75741 7.93559 6.58507 7.88262 6.41076 7.89362C6.23645 7.90462 6.07213 7.97883 5.94863 8.10233C5.82512 8.22583 5.75091 8.39015 5.73992 8.56446C5.72892 8.73878 5.78189 8.91112 5.88889 9.04916L5.94844 9.1166L7.38332 10.5515L7.45076 10.611C7.57658 10.7086 7.7313 10.7616 7.89055 10.7616C8.04979 10.7616 8.20452 10.7086 8.33034 10.611L8.39778 10.5515L11.2675 7.68172L11.3271 7.61428C11.4342 7.47625 11.4872 7.30388 11.4762 7.12952C11.4653 6.95517 11.3911 6.7908 11.2675 6.66727Z" fill="#FDD900"/>
</g>
<defs>
<clipPath id="clip0_24884_3875">
<rect width="17.2185" height="17.2185" fill="white"/>
</clipPath>
</defs>
</svg>
