<svg width="70" height="70" viewBox="0 0 70 70" fill="none" xmlns="http://www.w3.org/2000/svg">
<circle cx="35" cy="35" r="35" fill="#0045C0"/>
<path d="M37.4032 26.5761C35.962 25.1352 34.0237 24.3364 31.9876 24.3364C29.9516 24.3364 28.0122 25.1352 26.5719 26.5761C25.1257 28.0221 24.3294 29.9464 24.3294 31.9908C24.3294 34.0352 25.1257 35.9595 26.5719 37.4055C28.0132 38.8465 29.9515 39.6452 31.9876 39.6452C34.0248 39.6452 35.9617 38.8465 37.4032 37.4055C38.8494 35.9596 39.647 34.0352 39.647 31.9908C39.647 29.9464 38.8494 28.0222 37.4032 26.5761ZM35.7666 28.6418C35.6927 28.7182 35.5926 28.7607 35.4874 28.7607C35.386 28.7607 35.2896 28.7219 35.2169 28.6518C34.1702 27.639 32.6801 27.1733 31.2428 27.4074C31.0312 27.4425 30.8309 27.2985 30.7971 27.0869C30.762 26.8753 30.906 26.675 31.1176 26.6412C32.7955 26.3683 34.5346 26.9129 35.7581 28.0947C35.9109 28.2412 35.9156 28.4878 35.7666 28.6418ZM39.7596 24.2187C37.6849 22.1443 34.9226 21 31.9877 21C29.0528 21 26.2907 22.143 24.2145 24.2187C19.9285 28.504 19.9285 35.476 24.2145 39.7612C26.2905 41.8369 29.0515 42.9812 31.9877 42.9812C34.9227 42.9812 37.6848 41.837 39.7609 39.7612C44.0457 35.476 44.0469 28.504 39.7596 24.2187ZM31.9877 40.4224C29.7439 40.4224 27.6091 39.5423 26.0227 37.9549C24.43 36.3624 23.5523 34.2442 23.5523 31.9909C23.5523 29.7375 24.43 27.619 26.0227 26.0268C29.3121 22.738 34.6649 22.738 37.9543 26.0268C39.5483 27.6205 40.426 29.7375 40.426 31.9909C40.426 34.2442 39.5483 36.3627 37.9543 37.9549C36.3654 39.5411 34.2315 40.4224 31.9877 40.4224ZM48.7599 47.0537C48.6021 47.4355 48.3705 47.7848 48.0775 48.0778C47.7795 48.3757 47.4239 48.6111 47.0332 48.7688C46.6213 48.9353 46.178 49.0142 45.7335 48.9979C44.9847 48.9704 44.2861 48.6674 43.7927 48.099L38.4011 41.8645L38.5163 41.7869C39.1612 41.355 39.761 40.8605 40.3094 40.3121C40.8578 39.7638 41.3524 39.1616 41.7819 38.5169L41.8596 38.4004L48.0977 43.7949C48.6661 44.287 48.9704 44.9855 48.998 45.7342C49.0142 46.1848 48.9327 46.6368 48.7599 47.0537Z" fill="white"/>
</svg>
