<svg width="14" height="13" viewBox="0 0 14 13" fill="none" xmlns="http://www.w3.org/2000/svg">
<path d="M6.79242 0.435011C6.87574 0.260415 7.12426 0.260414 7.20758 0.435011L8.96234 4.11241C8.99587 4.18268 9.06267 4.23121 9.13986 4.24139L13.1795 4.77389C13.3713 4.79917 13.4481 5.03553 13.3078 5.16872L10.3527 7.97399C10.2962 8.02759 10.2707 8.10612 10.2849 8.18267L11.0267 12.1892C11.062 12.3794 10.8609 12.5255 10.6909 12.4332L7.10971 10.4895C7.04129 10.4524 6.95871 10.4524 6.89029 10.4895L3.30913 12.4332C3.1391 12.5255 2.93804 12.3794 2.97326 12.1892L3.71515 8.18267C3.72932 8.10612 3.70381 8.02759 3.64734 7.97399L0.69218 5.16872C0.551874 5.03553 0.628673 4.79917 0.820469 4.77389L4.86014 4.24139C4.93733 4.23121 5.00413 4.18268 5.03766 4.11241L6.79242 0.435011Z" fill="#151419"/>
</svg>
