<svg width="29" height="26" viewBox="0 0 29 26" fill="none" xmlns="http://www.w3.org/2000/svg">
<path d="M18.5484 9.66609C17.1522 8.95759 14.3287 -0.0050602 13.3669 1.09313C12.405 2.19132 10.9778 9.66609 10.078 9.66609C9.17827 9.66609 0.552758 7.00918 1.01816 7.93024C1.48357 8.8513 8.27846 14.8028 8.24743 16.1844C8.21641 17.566 5.3309 24.9345 6.23068 24.9345C7.13046 24.9345 13.1187 18.5579 14.3287 18.6287C15.5388 18.6996 22.9852 25.7492 23.5747 24.9345C24.1642 24.1197 20.2859 17.1763 20.6582 16.1844C21.0305 15.1925 29.0355 7.93024 27.8875 7.93024C26.7395 7.93024 19.9446 10.3746 18.5484 9.66609Z" stroke="#151419" stroke-width="2" stroke-linecap="round"/>
</svg>
