<svg width="47" height="46" viewBox="0 0 47 46" fill="none" xmlns="http://www.w3.org/2000/svg">
<rect x="0.230469" width="46" height="46" rx="23" fill="#BDCD36"/>
<path d="M10.1875 19.9578V35.0213C10.1887 35.7446 10.7745 36.3292 11.4966 36.3316H33.7664C34.4886 36.3292 35.0744 35.7446 35.0756 35.0213V19.9578C35.0744 19.2345 34.4886 18.6499 33.7664 18.6475H31.7487C31.422 21.6722 29.6168 24.3394 26.9298 25.7655C24.2416 27.1913 21.0216 27.1913 18.3333 25.7655C15.6462 24.3397 13.841 21.6722 13.5144 18.6475H11.4966C10.7745 18.6499 10.1887 19.2345 10.1875 19.9578ZM15.7543 34.3667C15.4891 34.3667 15.2508 34.2071 15.1489 33.9627C15.0482 33.7171 15.1034 33.4358 15.2913 33.2492C15.478 33.0613 15.7605 33.0048 16.0048 33.1067C16.2492 33.2074 16.4089 33.4469 16.4089 33.7122C16.4077 34.0732 16.1154 34.3655 15.7543 34.3667ZM17.7192 34.3667C17.454 34.3667 17.2157 34.2071 17.1138 33.9627C17.0131 33.7171 17.0684 33.4358 17.2562 33.2492C17.4429 33.0613 17.7254 33.0048 17.9697 33.1067C18.2141 33.2074 18.3738 33.4469 18.3738 33.7122C18.3726 34.0732 18.0803 34.3655 17.7192 34.3667ZM19.6841 34.3667C19.4189 34.3667 19.1806 34.2071 19.0787 33.9627C18.978 33.7171 19.0333 33.4358 19.2212 33.2492C19.4078 33.0613 19.6903 33.0048 19.9347 33.1067C20.179 33.2074 20.3387 33.4469 20.3387 33.7122C20.3375 34.0732 20.0452 34.3655 19.6841 34.3667ZM22.6315 28.472H32.4561V33.7122H22.6315V28.472ZM13.7894 28.472H19.6841C20.0464 28.472 20.3387 28.7655 20.3387 29.1266C20.3387 29.4888 20.0464 29.7823 19.6841 29.7823H13.7894C13.4271 29.7823 13.1349 29.4888 13.1349 29.1266C13.1349 28.7655 13.4271 28.472 13.7894 28.472ZM13.7894 30.4369H19.6841C20.0464 30.4369 20.3387 30.7304 20.3387 31.0915C20.3387 31.4537 20.0464 31.7472 19.6841 31.7472H13.7894C13.4271 31.7472 13.1349 31.4537 13.1349 31.0915C13.1349 30.7304 13.4271 30.4369 13.7894 30.4369ZM13.7894 33.0564C14.0547 33.0564 14.2929 33.216 14.3949 33.4617C14.4956 33.706 14.4403 33.9873 14.2524 34.1752C14.0657 34.3618 13.7833 34.4183 13.5389 34.3164C13.2945 34.2157 13.1349 33.9762 13.1349 33.7122C13.1361 33.3499 13.4284 33.0576 13.7894 33.0564Z" fill="#151419"/>
<path d="M17.1094 19.7149C17.6694 21.2291 18.8262 22.4462 20.3086 23.0823C21.7908 23.7197 23.471 23.7197 24.953 23.0823C26.4352 22.4462 27.5921 21.2292 28.1522 19.7149C27.7346 18.913 27.1501 18.2093 26.4366 17.6518C26.1602 17.4369 25.7636 17.4749 25.5327 17.7377C24.802 18.5777 23.7434 19.0604 22.6308 19.0604C21.5181 19.0604 20.4596 18.5777 19.7288 17.7377C19.498 17.4737 19.1013 17.4369 18.825 17.6518C18.1115 18.2093 17.5269 18.913 17.1094 19.7149Z" fill="#151419"/>
<path d="M22.6306 17.3369C24.9026 17.2559 26.6821 15.3524 26.6108 13.0805C26.682 10.8073 24.9025 8.90387 22.6306 8.82275C20.3587 8.90381 18.5791 10.8073 18.6505 13.0805C18.5793 15.3524 20.3588 17.2558 22.6306 17.3369ZM22.6306 16.0278C21.3105 15.975 20.215 14.9925 20.0185 13.6859H20.4692C20.7517 13.6859 20.9973 13.4906 21.0587 13.2143L21.3731 11.7664C21.4001 11.6522 21.4898 11.5638 21.604 11.538C21.7194 11.5134 21.8385 11.5564 21.9098 11.6485L23.2852 13.4501C23.4006 13.5987 23.5762 13.6847 23.7641 13.6859H25.2439H25.2427C25.0462 14.9925 23.9508 15.975 22.6306 16.0278Z" fill="#151419"/>
<path d="M16.9511 11.829C15.2465 13.3567 14.2751 15.5391 14.2813 17.8281C14.339 20.773 15.9441 23.4685 18.5035 24.9238C21.064 26.3791 24.2005 26.3791 26.7611 24.9238C29.3204 23.4685 30.9255 20.773 30.9833 17.8281C30.9895 15.539 30.0181 13.3566 28.3135 11.829C28.1846 11.7111 28.0139 11.6485 27.8407 11.6559C27.6663 11.6645 27.5018 11.7406 27.3839 11.8695C27.2672 11.9985 27.2058 12.1692 27.2144 12.3436C27.223 12.518 27.3016 12.6813 27.4318 12.798C28.8625 14.0788 29.6779 15.9086 29.673 17.8281C29.6153 20.3039 28.2607 22.5672 26.1053 23.7892C23.9513 25.0099 21.3135 25.0099 19.1593 23.7892C17.004 22.5673 15.6495 20.3039 15.5917 17.8281C15.5867 15.9086 16.4022 14.0788 17.8329 12.798C17.9631 12.6813 18.0416 12.518 18.0502 12.3436C18.0588 12.1692 17.9974 11.9985 17.8808 11.8695C17.7629 11.7406 17.5983 11.6645 17.4239 11.6559C17.2508 11.6485 17.08 11.7111 16.9511 11.829Z" fill="#151419"/>
</svg>
