<svg width="64" height="64" viewBox="0 0 64 64" fill="none" xmlns="http://www.w3.org/2000/svg">
<rect width="64" height="64" rx="32" fill="#FDD900"/>
<path d="M24.0306 47.1488H40.5804C40.3338 45.3561 39.5145 43.6915 38.215 42.3937C36.6348 40.8136 34.5355 39.9424 32.305 39.9424C28.1322 39.9424 24.5941 43.1027 24.0292 47.1491L24.0306 47.1488Z" fill="#151419"/>
<path d="M49.6114 22.9226V20.3268C49.6114 17.942 47.671 16 45.2845 16H19.3268C16.942 16 15 17.9403 15 20.3268V22.9226H49.6114ZM27.1141 18.1626C27.8312 18.1626 28.412 18.7434 28.412 19.4605C28.412 20.1776 27.8312 20.7584 27.1141 20.7584C26.397 20.7584 25.8163 20.1776 25.8163 19.4605C25.8163 18.7434 26.397 18.1626 27.1141 18.1626ZM23.2205 18.1626C23.9376 18.1626 24.5184 18.7434 24.5184 19.4605C24.5184 20.1776 23.9376 20.7584 23.2205 20.7584C22.5034 20.7584 21.9226 20.1776 21.9226 19.4605C21.9226 18.7434 22.5034 18.1626 23.2205 18.1626ZM19.3268 18.1626C20.0439 18.1626 20.6247 18.7434 20.6247 19.4605C20.6247 20.1776 20.0439 20.7584 19.3268 20.7584C18.6097 20.7584 18.029 20.1776 18.029 19.4605C18.029 18.7434 18.6097 18.1626 19.3268 18.1626Z" fill="#151419"/>
<path d="M36.9216 33.594C36.9216 36.1443 34.8547 38.2111 32.3061 38.2111C29.7575 38.2111 27.6906 36.1443 27.6906 33.594C27.6906 31.0453 29.7575 28.9785 32.3061 28.9785C34.8547 28.9785 36.9216 31.0454 36.9216 33.594Z" fill="#151419"/>
<path d="M15 24.6515V42.8219C15 45.2068 16.9403 47.1487 19.3268 47.1487H22.2893C22.7159 43.2957 25.2711 40.1485 28.7575 38.8535C27.0702 37.7113 25.9589 35.7808 25.9589 33.5938C25.9589 30.0944 28.8062 27.2473 32.3055 27.2473C35.8048 27.2473 38.652 30.0945 38.652 33.5938C38.652 35.784 37.5375 37.7179 35.8437 38.8585C37.1757 39.3581 38.4022 40.132 39.4372 41.1671C41.0628 42.7927 42.0654 44.8904 42.3218 47.1457H45.2826C47.6674 47.1457 49.6094 45.2053 49.6094 42.8188V24.6484L15 24.6515ZM44.4198 29.4115C43.7027 29.4115 43.1219 28.8307 43.1219 28.1136C43.1219 27.3965 43.7027 26.8158 44.4198 26.8158C45.1369 26.8158 45.7177 27.3965 45.7177 28.1136C45.7177 28.8307 45.1369 29.4115 44.4198 29.4115Z" fill="#151419"/>
</svg>
