<svg width="18" height="16" viewBox="0 0 18 16" fill="none" xmlns="http://www.w3.org/2000/svg">
<g clip-path="url(#clip0_13_856)">
<path d="M2.62259 15.8479C2.38244 15.8481 2.1446 15.8019 1.92266 15.7119C1.70072 15.6219 1.49903 15.4899 1.32911 15.3234C1.1592 15.1569 1.0244 14.9591 0.932401 14.7415C0.840406 14.5238 0.793026 14.2905 0.792969 14.0549V8.31783C0.793026 8.0822 0.840406 7.84889 0.932401 7.63124C1.0244 7.41358 1.1592 7.21585 1.32911 7.04934C1.49903 6.88282 1.70072 6.75079 1.92266 6.66079C2.1446 6.57079 2.38244 6.52458 2.62259 6.52481H3.00852C3.09942 5.73551 3.48338 5.0067 4.08712 4.47751C4.69085 3.94831 5.47206 3.6558 6.28162 3.6558C7.09119 3.6558 7.8724 3.94831 8.47613 4.47751C9.07986 5.0067 9.46383 5.73551 9.55473 6.52481H15.7953C16.0354 6.52452 16.2733 6.57069 16.4953 6.66067C16.7172 6.75066 16.919 6.88268 17.0889 7.04921C17.2588 7.21573 17.3936 7.41349 17.4856 7.63117C17.5776 7.84885 17.6249 8.08218 17.6249 8.31783V14.0549C17.6249 14.2905 17.5776 14.5239 17.4856 14.7415C17.3936 14.9592 17.2588 15.157 17.0889 15.3235C16.919 15.49 16.7172 15.6221 16.4953 15.712C16.2733 15.802 16.0354 15.8482 15.7953 15.8479H2.62259ZM1.84549 7.55707C1.64005 7.75892 1.52474 8.03257 1.52491 8.31783V14.0549C1.52491 14.3402 1.64042 14.6138 1.84603 14.8155C2.05164 15.0173 2.3305 15.1306 2.62128 15.1306H15.7953C16.0861 15.1306 16.3649 15.0173 16.5705 14.8155C16.7761 14.6138 16.8916 14.3402 16.8916 14.0549V8.31783C16.8916 8.03253 16.7761 7.75891 16.5705 7.55717C16.3649 7.35544 16.0861 7.2421 15.7953 7.2421H2.62259C2.47831 7.24185 2.3354 7.26954 2.20204 7.32359C2.06869 7.37764 1.94752 7.45698 1.84549 7.55707ZM3.74572 6.52438H8.81841C8.73003 5.92657 8.42516 5.37999 7.95963 4.9847C7.49409 4.58941 6.89903 4.37186 6.28338 4.37186C5.66772 4.37186 5.07266 4.58941 4.60713 4.9847C4.14159 5.37999 3.83673 5.92657 3.74835 6.52438H3.74572ZM4.68114 14.403C4.45796 14.403 4.24017 14.3357 4.0573 14.2101C3.87444 14.0846 3.73535 13.9069 3.65888 13.7012C3.65903 13.6999 3.65903 13.6986 3.65888 13.6973C3.6053 13.5468 3.51722 13.4103 3.40143 13.2984C3.28563 13.1865 3.14521 13.1022 2.99097 13.0519L2.97957 13.0484C2.76791 12.9732 2.585 12.8358 2.4557 12.6549C2.32639 12.4741 2.25696 12.2586 2.25684 12.0377C2.25684 11.4848 2.25684 10.8858 2.26693 10.3333C2.26793 10.1151 2.33713 9.9024 2.46519 9.72396C2.59325 9.54553 2.77401 9.40993 2.98308 9.33546H2.98703C3.14084 9.28328 3.28039 9.19713 3.3949 9.08366C3.50941 8.97019 3.59583 8.83242 3.64748 8.68099C3.64748 8.67755 3.65011 8.67368 3.65099 8.6698C3.72794 8.46208 3.86823 8.28265 4.05278 8.15593C4.23734 8.02921 4.4572 7.96133 4.68246 7.96155C7.1528 7.96155 11.2673 7.96154 13.7359 7.97144C13.959 7.97143 14.1768 8.03876 14.3597 8.1643C14.5426 8.28984 14.6816 8.46752 14.7581 8.67324C14.758 8.67453 14.758 8.67583 14.7581 8.67712C14.8117 8.82764 14.8998 8.96408 15.0156 9.07598C15.1314 9.18787 15.2718 9.27222 15.426 9.32255L15.4374 9.32599C15.6491 9.40128 15.832 9.53867 15.9613 9.7195C16.0906 9.90034 16.16 10.1158 16.1601 10.3367C16.1601 10.8897 16.1601 11.4886 16.1501 12.0411C16.1491 12.2594 16.0799 12.4721 15.9519 12.6505C15.8238 12.829 15.643 12.9645 15.4339 13.039H15.43C15.2761 13.0911 15.1366 13.1773 15.0221 13.2908C14.9076 13.4042 14.8212 13.542 14.7695 13.6934C14.7695 13.6969 14.7669 13.7008 14.766 13.7046C14.6891 13.9123 14.5488 14.0918 14.3642 14.2185C14.1797 14.3452 13.9598 14.4131 13.7345 14.4129C11.2651 14.4133 7.15192 14.4133 4.68202 14.4038L4.68114 14.403ZM4.34039 8.90775C4.25286 9.16238 4.1072 9.39402 3.91453 9.585C3.72186 9.77598 3.48727 9.92125 3.22867 10.0097C3.16096 10.0346 3.10259 10.0792 3.06137 10.1374C3.02015 10.1957 2.99804 10.2649 2.99799 10.3359V10.3423C2.98834 10.8918 2.98834 11.4865 2.98834 12.036C2.98832 12.1088 3.01093 12.1799 3.05316 12.2398C3.0954 12.2997 3.15525 12.3455 3.22472 12.3712C3.48434 12.4567 3.7206 12.5994 3.91547 12.7882C4.11034 12.977 4.25868 13.207 4.34916 13.4607C4.37461 13.5271 4.42011 13.5843 4.47959 13.6247C4.53907 13.665 4.60969 13.6866 4.68202 13.6866C7.15192 13.6964 11.2659 13.6964 13.7354 13.6964C13.8096 13.6965 13.8821 13.6743 13.9432 13.633C14.0043 13.5916 14.0511 13.533 14.0775 13.465C14.1649 13.2103 14.3105 12.9786 14.5031 12.7875C14.6957 12.5965 14.9302 12.4511 15.1888 12.3626C15.2565 12.3377 15.3148 12.2931 15.3561 12.2348C15.3973 12.1766 15.4194 12.1073 15.4194 12.0364V12.0299C15.4291 11.4805 15.4291 10.8858 15.4291 10.3363C15.4291 10.2635 15.4065 10.1924 15.3643 10.1325C15.322 10.0726 15.2622 10.0268 15.1927 10.0011C14.9331 9.91558 14.6969 9.773 14.502 9.58426C14.3072 9.39552 14.1588 9.16561 14.0683 8.91206C14.0428 8.84567 13.9973 8.78848 13.9378 8.74812C13.8783 8.70776 13.8077 8.68614 13.7354 8.68615C11.2659 8.67669 7.1528 8.67669 4.68377 8.67669C4.60936 8.6763 4.53661 8.69823 4.47524 8.73952C4.41388 8.78081 4.36683 8.83951 4.34039 8.90775ZM7.37953 11.1861C7.3791 10.831 7.48603 10.4837 7.68681 10.1882C7.88759 9.89271 8.17318 9.66229 8.50747 9.52608C8.84175 9.38988 9.20969 9.35402 9.56475 9.42305C9.91981 9.49207 10.246 9.66288 10.5021 9.91385C10.7582 10.1648 10.9327 10.4847 11.0035 10.833C11.0742 11.1813 11.0381 11.5423 10.8997 11.8705C10.7613 12.1986 10.5268 12.4791 10.2259 12.6765C9.92494 12.8738 9.57111 12.9792 9.20915 12.9792C8.72425 12.9793 8.25914 12.7905 7.91606 12.4542C7.57298 12.118 7.37999 11.6619 7.37953 11.1861ZM8.11147 11.1861C8.11147 11.3989 8.17577 11.6069 8.29624 11.7838C8.41671 11.9607 8.58794 12.0986 8.78827 12.18C8.98861 12.2614 9.20905 12.2827 9.42173 12.2412C9.63441 12.1997 9.82976 12.0972 9.98309 11.9468C10.1364 11.7963 10.2408 11.6047 10.2831 11.396C10.3254 11.1873 10.3037 10.971 10.2208 10.7745C10.1378 10.5779 9.99725 10.4099 9.81695 10.2917C9.63665 10.1735 9.42468 10.1104 9.20784 10.1104C9.06382 10.1104 8.92121 10.1381 8.78814 10.1922C8.65507 10.2462 8.53416 10.3254 8.4323 10.4253C8.33045 10.5252 8.24965 10.6438 8.19453 10.7744C8.1394 10.9049 8.11147 11.0448 8.11147 11.1861ZM12.136 11.545C12.0391 11.545 11.9461 11.5072 11.8776 11.44C11.809 11.3727 11.7705 11.2815 11.7705 11.1864C11.7705 11.0912 11.809 11 11.8776 10.9328C11.9461 10.8655 12.0391 10.8277 12.136 10.8277H13.5986C13.6955 10.8277 13.7885 10.8655 13.8571 10.9328C13.9256 11 13.9641 11.0912 13.9641 11.1864C13.9641 11.2815 13.9256 11.3727 13.8571 11.44C13.7885 11.5072 13.6955 11.545 13.5986 11.545H12.136ZM4.81797 11.545C4.72102 11.545 4.62805 11.5072 4.5595 11.44C4.49095 11.3727 4.45244 11.2815 4.45244 11.1864C4.45244 11.0912 4.49095 11 4.5595 10.9328C4.62805 10.8655 4.72102 10.8277 4.81797 10.8277H6.28184C6.37879 10.8277 6.47176 10.8655 6.54031 10.9328C6.60886 11 6.64737 11.0912 6.64737 11.1864C6.64737 11.2815 6.60886 11.3727 6.54031 11.44C6.47176 11.5072 6.37879 11.545 6.28184 11.545H4.81797ZM11.7703 4.01493C11.7698 3.65971 11.8767 3.31233 12.0774 3.01675C12.2782 2.72116 12.5639 2.49067 12.8982 2.35444C13.2326 2.21821 13.6006 2.18237 13.9557 2.25145C14.3108 2.32053 14.6371 2.49143 14.8932 2.74251C15.1493 2.9936 15.3237 3.31358 15.3943 3.66196C15.465 4.01035 15.4287 4.37147 15.2901 4.69962C15.1515 5.02778 14.9168 5.30821 14.6157 5.50542C14.3146 5.70264 13.9606 5.80777 13.5986 5.80751C13.114 5.80729 12.6493 5.61839 12.3065 5.2823C11.9637 4.94621 11.7709 4.4904 11.7703 4.01493ZM12.5022 4.01493C12.5022 4.22768 12.5665 4.43566 12.687 4.61257C12.8075 4.78947 12.9787 4.92735 13.179 5.00877C13.3794 5.09019 13.5998 5.11149 13.8125 5.06998C14.0252 5.02847 14.2205 4.92602 14.3738 4.77558C14.5272 4.62514 14.6316 4.43346 14.6739 4.22479C14.7162 4.01612 14.6945 3.79983 14.6115 3.60326C14.5285 3.4067 14.388 3.2387 14.2077 3.12049C14.0274 3.00229 13.8154 2.9392 13.5986 2.9392C13.3078 2.9392 13.0289 3.05254 12.8233 3.25427C12.6177 3.45601 12.5022 3.72963 12.5022 4.01493ZM8.11103 2.58077C8.11059 2.22563 8.21753 1.87834 8.41831 1.58284C8.61909 1.28734 8.90468 1.05692 9.23897 0.920716C9.57325 0.784513 9.94119 0.748656 10.2962 0.81768C10.6513 0.886704 10.9775 1.05751 11.2336 1.30848C11.4897 1.55945 11.6642 1.87932 11.735 2.22761C11.8057 2.57589 11.7696 2.93695 11.6312 3.2651C11.4928 3.59325 11.2583 3.87375 10.9574 4.0711C10.6564 4.26845 10.3026 4.37379 9.94065 4.37379C9.45575 4.3739 8.99064 4.1851 8.64756 3.84888C8.30448 3.51266 8.11149 3.05654 8.11103 2.58077ZM8.84297 2.58077C8.84297 2.79353 8.90727 3.00151 9.02774 3.17841C9.14821 3.35531 9.31944 3.49319 9.51977 3.57461C9.72011 3.65603 9.94055 3.67733 10.1532 3.63582C10.3659 3.59432 10.5613 3.49186 10.7146 3.34142C10.8679 3.19098 10.9723 2.9993 11.0146 2.79063C11.0569 2.58196 11.0352 2.36567 10.9523 2.16911C10.8693 1.97254 10.7287 1.80454 10.5484 1.68634C10.3682 1.56813 10.1562 1.50504 9.93934 1.50504C9.64856 1.50504 9.3697 1.61838 9.16409 1.82012C8.95848 2.02185 8.84297 2.29547 8.84297 2.58077Z" fill="#FF6600" stroke="#FF6600" stroke-width="0.347542"/>
</g>
<defs>
<clipPath id="clip0_13_856">
<rect width="16.8319" height="15.0601" fill="white" transform="translate(0.792969 0.78717)"/>
</clipPath>
</defs>
</svg>
