<svg width="64" height="64" viewBox="0 0 64 64" fill="none" xmlns="http://www.w3.org/2000/svg">
<rect width="64" height="64" rx="32" fill="white"/>
<path d="M42.9091 17H21.0909C20.0059 17 18.9654 17.431 18.1982 18.1982C17.431 18.9654 17 20.0059 17 21.0909V42.9091C17 43.9941 17.431 45.0346 18.1982 45.8018C18.9654 46.569 20.0059 47 21.0909 47H42.9091C43.9941 47 45.0346 46.569 45.8018 45.8018C46.569 45.0346 47 43.9941 47 42.9091V21.0909C47 20.0059 46.569 18.9654 45.8018 18.1982C45.0346 17.431 43.9941 17 42.9091 17ZM27.9091 21.0909H30.6364V23.8182H27.9091V21.0909ZM22.4545 21.0909H25.1818V23.8182H22.4545V21.0909ZM44.2727 42.9091C44.2727 43.2707 44.1291 43.6176 43.8733 43.8733C43.6176 44.1291 43.2707 44.2727 42.9091 44.2727H21.0909C20.7293 44.2727 20.3824 44.1291 20.1267 43.8733C19.8709 43.6176 19.7273 43.2707 19.7273 42.9091V27.9091H44.2727V42.9091ZM27.9091 40.1818V32C27.9098 31.7675 27.9699 31.5391 28.0837 31.3365C28.1975 31.1338 28.3613 30.9635 28.5594 30.842C28.7575 30.7204 28.9834 30.6514 29.2156 30.6417C29.4479 30.632 29.6788 30.6818 29.8864 30.7864L38.0682 34.8773C38.2915 34.9917 38.479 35.1656 38.6099 35.3797C38.7408 35.5938 38.8101 35.8399 38.8101 36.0909C38.8101 36.3419 38.7408 36.588 38.6099 36.8021C38.479 37.0163 38.2915 37.1901 38.0682 37.3045L29.8864 41.3955C29.6964 41.4928 29.4862 41.5442 29.2727 41.5455C29.0174 41.5463 28.767 41.4754 28.55 41.3409C28.3535 41.2181 28.1915 41.0472 28.0794 40.8444C27.9672 40.6416 27.9086 40.4136 27.9091 40.1818Z" fill="#151419"/>
</svg>
