<svg width="64" height="64" viewBox="0 0 64 64" fill="none" xmlns="http://www.w3.org/2000/svg">
<rect width="64" height="64" rx="32" fill="white"/>
<path d="M44.0089 28.5917L45.347 27.2803C45.6788 27.4395 46.0505 27.5271 46.4434 27.5271C47.8505 27.5271 48.9973 26.3803 48.9973 24.9732C48.9973 23.5662 47.8505 22.4193 46.4434 22.4193C45.0364 22.4193 43.8895 23.5662 43.8895 24.9732C43.8895 25.3476 43.9718 25.7033 44.1178 26.0245L43.0373 27.0838H40.4675C39.5994 25.5653 38.3357 24.3015 36.8171 23.4335V21.96L37.8764 20.8795C38.1976 21.0255 38.5507 21.1078 38.9277 21.1078C40.3348 21.1078 41.4817 19.961 41.4817 18.5539C41.4817 17.1469 40.3348 16 38.9277 16C37.5207 16 36.3738 17.1469 36.3738 18.5539C36.3738 18.9468 36.4641 19.3185 36.6207 19.6504L35.3092 20.9884C35.1473 21.153 35.0597 21.3734 35.0597 21.6043V22.6504C34.3641 22.4194 33.634 22.2654 32.8774 22.1991V20.9513C33.8544 20.5929 34.5526 19.6531 34.5526 18.5541C34.5526 17.147 33.4057 16.0001 31.9987 16.0001C30.5916 16.0001 29.4447 17.147 29.4447 18.5541C29.4447 19.6532 30.1429 20.5929 31.1199 20.9513V22.1991C30.3659 22.2681 29.6359 22.4194 28.9377 22.6504V21.6043C28.9377 21.3734 28.8474 21.153 28.6881 20.9884L27.3766 19.6504C27.5359 19.3185 27.6235 18.9468 27.6235 18.5539C27.6235 17.1469 26.4767 16 25.0696 16C23.6626 16 22.5157 17.1469 22.5157 18.5539C22.5157 19.961 23.6626 21.1078 25.0696 21.1078C25.4439 21.1078 25.7997 21.0255 26.1209 20.8795L27.1802 21.96V23.4335C25.6616 24.3015 24.3979 25.5653 23.5298 27.0838H20.96L19.8795 26.0245C20.0255 25.7033 20.1078 25.3502 20.1078 24.9732C20.1078 23.5662 18.961 22.4193 17.5539 22.4193C16.1469 22.4193 15 23.5662 15 24.9732C15 26.3803 16.1469 27.5271 17.5539 27.5271C17.9468 27.5271 18.3185 27.4369 18.6504 27.2803L19.9884 28.5917C20.153 28.7537 20.3734 28.8413 20.6044 28.8413H22.7494C22.5184 29.5368 22.3645 30.267 22.2981 31.0235H19.9539C19.5955 30.0466 18.6557 29.3484 17.5566 29.3484C16.1496 29.3484 15.0027 30.4952 15.0027 31.9023C15.0027 33.3093 16.1496 34.4562 17.5566 34.4562C18.6557 34.4562 19.5955 33.758 19.9539 32.7811H22.2981C22.3671 33.535 22.5184 34.2651 22.7494 34.9633H20.6044C20.3734 34.9633 20.153 35.0535 19.9884 35.2128L18.6504 36.5243C18.3185 36.365 17.9468 36.2774 17.5539 36.2774C16.1469 36.2774 15 37.4243 15 38.8313C15 40.2384 16.1469 41.3853 17.5539 41.3853C18.961 41.3853 20.1078 40.2384 20.1078 38.8313C20.1078 38.457 20.0255 38.1013 19.8795 37.78L20.96 36.7207H23.5298C24.3979 38.2393 25.6616 39.503 27.1802 40.3711V41.8446L26.1209 42.925C25.7997 42.779 25.4466 42.6994 25.0696 42.6994C23.6626 42.6994 22.5157 43.8463 22.5157 45.2533C22.5157 46.6604 23.6626 47.8072 25.0696 47.8072C26.4767 47.8072 27.6235 46.6604 27.6235 45.2533C27.6235 44.8604 27.5333 44.4887 27.3766 44.1569L28.6881 42.8188C28.8501 42.6542 28.9377 42.4338 28.9377 42.2029V41.1569C29.6332 41.3878 30.3633 41.5418 31.1199 41.6082V42.8559C30.1429 43.2143 29.4447 44.1541 29.4447 45.2532C29.4447 46.6602 30.5916 47.8071 31.9987 47.8071C33.4057 47.8071 34.5526 46.6602 34.5526 45.2532C34.5526 44.1541 33.8544 43.2143 32.8774 42.8559V41.6082C33.6314 41.5392 34.3615 41.3878 35.0597 41.1569V42.2029C35.0597 42.4338 35.1499 42.6542 35.3092 42.8188L36.6207 44.1569C36.4614 44.4887 36.3738 44.8604 36.3738 45.2533C36.3738 46.6604 37.5207 47.8072 38.9277 47.8072C40.3348 47.8072 41.4817 46.6604 41.4817 45.2533C41.4817 43.8463 40.3348 42.6994 38.9277 42.6994C38.5534 42.6994 38.1977 42.7817 37.8764 42.9277L36.8171 41.8472V40.3764C38.3357 39.5083 39.6021 38.2446 40.4675 36.7261H43.0373L44.1178 37.7853C43.9718 38.1066 43.8922 38.4597 43.8922 38.8367C43.8922 40.2437 45.039 41.3906 46.4461 41.3906C47.8531 41.3906 49 40.2437 49 38.8367C49 37.4296 47.8531 36.2827 46.4461 36.2827C46.0532 36.2827 45.6815 36.373 45.3496 36.5296L44.0116 35.2181C43.847 35.0562 43.6266 34.9686 43.3956 34.9686H41.2506C41.4816 34.2731 41.6355 33.5429 41.7019 32.7864H44.0461C44.4045 33.7633 45.3443 34.4615 46.4434 34.4615C47.8504 34.4615 48.9973 33.3146 48.9973 31.9076C48.9973 30.5006 47.8504 29.3537 46.4434 29.3537C45.3443 29.3537 44.4045 30.0519 44.0461 31.0288H41.7019C41.6329 30.2748 41.4816 29.5448 41.2506 28.8466H43.3956C43.6266 28.8466 43.847 28.7563 44.0116 28.597L44.0089 28.5917ZM31.9984 39.8879H31.9958H31.9931C27.5888 39.8879 24.0075 36.3039 24.0075 31.9022C24.0075 27.4979 27.5888 23.9165 31.9931 23.9165C36.3975 23.9165 39.9788 27.5005 39.9788 31.9022C39.9788 36.3066 36.3975 39.8879 31.9931 39.8879H31.9984ZM31.9957 24.5588C27.9472 24.5588 24.6523 27.8535 24.6523 31.9022C24.6523 35.951 27.947 39.2457 31.9957 39.2457C36.0445 39.2457 39.3392 35.951 39.3392 31.9022C39.3392 27.8535 36.0445 24.5588 31.9957 24.5588ZM32.8745 35.4329V35.5816C32.8745 36.0674 32.4816 36.4603 31.9957 36.4603C31.5099 36.4603 31.117 36.0674 31.117 35.5816V35.4727C30.6258 35.3373 30.1851 35.0373 29.8798 34.6126C29.5958 34.2197 29.6834 33.6701 30.0763 33.3861C30.4692 33.102 31.0187 33.1896 31.3028 33.5825C31.3984 33.7153 31.5524 33.7949 31.7143 33.7949H32.1497C32.4231 33.7949 32.6568 33.5639 32.6568 33.2878C32.6568 33.0144 32.4258 32.7808 32.1497 32.7808H31.8391C30.5913 32.7808 29.5745 31.7666 29.5745 30.5162C29.5745 29.5207 30.2197 28.6738 31.1143 28.3712V28.2225C31.1143 27.7367 31.5072 27.3437 31.9931 27.3437C32.4789 27.3437 32.8719 27.7367 32.8719 28.2225V28.3314C33.363 28.4668 33.8037 28.7667 34.109 29.1915C34.3931 29.5844 34.3054 30.1339 33.9125 30.418C33.5196 30.7021 32.9701 30.6145 32.686 30.2216C32.5904 30.0888 32.4364 30.0092 32.2745 30.0092H31.8391C31.5657 30.0092 31.3321 30.2402 31.3321 30.5163C31.3321 30.7897 31.563 31.0233 31.8391 31.0233H32.1497C33.3975 31.0233 34.4143 32.0375 34.4143 33.2879C34.4143 34.2834 33.7691 35.1303 32.8745 35.4329Z" fill="#151419"/>
</svg>
