<svg width="64" height="64" viewBox="0 0 64 64" fill="none" xmlns="http://www.w3.org/2000/svg">
<rect width="64" height="64" rx="32" fill="white"/>
<path d="M30.51 20.3283L31.3423 17H23.0148L23.8471 20.3283H30.51Z" fill="#151419"/>
<path d="M30.0371 28.1915L28.2123 30.9286H35.2142V27.7144H30.9286C30.5704 27.7144 30.2358 27.8934 30.0371 28.1915Z" fill="#151419"/>
<path d="M45.9285 26.6428H37.3571C36.7653 26.6428 36.2857 27.1225 36.2857 27.7143V34.1428H35.2142V32H27.7142V35.2143C27.7142 35.806 28.1939 36.2857 28.7857 36.2857H29.8571C29.8571 37.4675 30.8181 38.4285 31.9999 38.4285C33.1818 38.4285 34.1428 37.4675 34.1428 36.2857H40.5714C40.5714 37.4675 41.5324 38.4285 42.7142 38.4285C43.896 38.4285 44.8571 37.4675 44.8571 36.2857H45.9285C46.5203 36.2857 46.9999 35.806 46.9999 35.2143V27.7143C46.9999 27.1225 46.5203 26.6428 45.9285 26.6428ZM31.9999 37.3571C31.4093 37.3571 30.9285 36.8763 30.9285 36.2857C30.9285 35.695 31.4093 35.2143 31.9999 35.2143C32.5906 35.2143 33.0714 35.695 33.0714 36.2857C33.0714 36.8763 32.5906 37.3571 31.9999 37.3571ZM42.7142 37.3571C42.1236 37.3571 41.6428 36.8763 41.6428 36.2857C41.6428 35.695 42.1236 35.2143 42.7142 35.2143C43.3049 35.2143 43.7857 35.695 43.7857 36.2857C43.7857 36.8763 43.3049 37.3571 42.7142 37.3571Z" fill="#151419"/>
<path d="M32 39.5C30.668 39.5 29.5224 38.6855 29.0357 37.5284C28.993 37.427 28.8958 37.3571 28.7857 37.3571V37.3571C27.6039 37.3571 26.6429 36.3961 26.6429 35.2143V32V31.9567C26.6429 31.5618 26.7597 31.1758 26.9788 30.8472L29.1456 27.5971C29.5438 26.9997 30.2103 26.6429 30.9286 26.6429H34.6972C35.2019 26.6429 35.6398 26.3532 36.0337 26.0376V26.0376C36.6451 25.5476 37.3571 24.9363 37.3571 24.1528V18.0714C37.3571 17.4797 36.8774 17 36.2857 17H34.0083C33.0906 17 32.2907 17.6245 32.068 18.5148L31.4481 20.9938C31.3884 21.2324 31.1745 21.3998 30.9286 21.3998H23.4286C23.1827 21.3998 22.9687 21.2324 22.9091 20.9938L22.2891 18.5148C22.0665 17.6245 21.2665 17 20.3489 17H18.0714C17.4797 17 17 17.4797 17 18.0714V45.9286C17 46.5203 17.4797 47 18.0714 47H36.2857C36.8774 47 37.3571 46.5203 37.3571 45.9286V38.7204C37.3571 37.9675 36.7468 37.3571 35.9938 37.3571V37.3571C35.4165 37.3571 34.9233 37.7406 34.5781 38.2034C33.9916 38.9898 33.0542 39.5 32 39.5ZM21.2857 41.6429C20.1039 41.6429 19.1429 40.6818 19.1429 39.5C19.1429 38.3182 20.1039 37.3571 21.2857 37.3571C22.4675 37.3571 23.4286 38.3182 23.4286 39.5C23.4286 40.6818 22.4675 41.6429 21.2857 41.6429ZM21.2857 35.2143C20.1039 35.2143 19.1429 34.2532 19.1429 33.0714C19.1429 31.8896 20.1039 30.9286 21.2857 30.9286C22.4675 30.9286 23.4286 31.8896 23.4286 33.0714C23.4286 34.2532 22.4675 35.2143 21.2857 35.2143ZM21.2857 28.7857C20.1039 28.7857 19.1429 27.8247 19.1429 26.6429C19.1429 25.461 20.1039 24.5 21.2857 24.5C22.4675 24.5 23.4286 25.461 23.4286 26.6429C23.4286 27.8247 22.4675 28.7857 21.2857 28.7857Z" fill="#151419"/>
</svg>
