<svg width="64" height="64" viewBox="0 0 64 64" fill="none" xmlns="http://www.w3.org/2000/svg">
<rect width="64" height="64" rx="32" fill="white"/>
<path d="M32.5101 20.3283L33.3423 17H25.0148L25.8471 20.3283H32.5101Z" fill="#151419"/>
<path d="M32.0371 28.1914L30.2123 30.9285H37.2143V27.7142H32.9286C32.5704 27.7142 32.2359 27.8933 32.0371 28.1914Z" fill="#151419"/>
<path d="M47.9286 26.6428H39.3572C38.7654 26.6428 38.2857 27.1225 38.2857 27.7143V34.1428H37.2143V32H29.7143V35.2143C29.7143 35.806 30.194 36.2857 30.7857 36.2857H31.8572C31.8572 37.4675 32.8182 38.4285 34 38.4285C35.1818 38.4285 36.1429 37.4675 36.1429 36.2857H42.5714C42.5714 37.4675 43.5325 38.4285 44.7143 38.4285C45.8961 38.4285 46.8572 37.4675 46.8572 36.2857H47.9286C48.5203 36.2857 49 35.806 49 35.2143V27.7143C49 27.1225 48.5203 26.6428 47.9286 26.6428ZM34 37.3571C33.4094 37.3571 32.9286 36.8763 32.9286 36.2857C32.9286 35.695 33.4094 35.2143 34 35.2143C34.5907 35.2143 35.0714 35.695 35.0714 36.2857C35.0714 36.8763 34.5907 37.3571 34 37.3571ZM44.7143 37.3571C44.1236 37.3571 43.6429 36.8763 43.6429 36.2857C43.6429 35.695 44.1236 35.2143 44.7143 35.2143C45.3049 35.2143 45.7857 35.695 45.7857 36.2857C45.7857 36.8763 45.3049 37.3571 44.7143 37.3571Z" fill="#151419"/>
<path d="M34 39.5C32.668 39.5 31.5224 38.6855 31.0357 37.5284C30.993 37.427 30.8958 37.3571 30.7857 37.3571C29.6039 37.3571 28.6429 36.3961 28.6429 35.2143V32V31.9567C28.6429 31.5618 28.7597 31.1758 28.9788 30.8472L31.1456 27.5971C31.5438 26.9997 32.2103 26.6429 32.9286 26.6429H36.6973C37.2019 26.6429 37.6398 26.3532 38.0337 26.0376C38.6451 25.5476 39.3571 24.9363 39.3571 24.1528V18.0714C39.3571 17.4797 38.8774 17 38.2857 17H36.0083C35.0906 17 34.2907 17.6245 34.068 18.5148L33.4481 20.9938C33.3884 21.2324 33.1745 21.3998 32.9286 21.3998H25.4286C25.1827 21.3998 24.9687 21.2324 24.9091 20.9938L24.2891 18.5148C24.0665 17.6245 23.2665 17 22.3489 17H20.0714C19.4797 17 19 17.4797 19 18.0714V45.9286C19 46.5203 19.4797 47 20.0714 47H38.2857C38.8774 47 39.3571 46.5203 39.3571 45.9286V38.7204C39.3571 37.9675 38.7468 37.3571 37.9938 37.3571C37.4165 37.3571 36.9233 37.7406 36.5781 38.2034C35.9916 38.9898 35.0542 39.5 34 39.5ZM23.2857 41.6429C22.1039 41.6429 21.1429 40.6818 21.1429 39.5C21.1429 38.3182 22.1039 37.3571 23.2857 37.3571C24.4675 37.3571 25.4286 38.3182 25.4286 39.5C25.4286 40.6818 24.4675 41.6429 23.2857 41.6429ZM23.2857 35.2143C22.1039 35.2143 21.1429 34.2532 21.1429 33.0714C21.1429 31.8896 22.1039 30.9286 23.2857 30.9286C24.4675 30.9286 25.4286 31.8896 25.4286 33.0714C25.4286 34.2532 24.4675 35.2143 23.2857 35.2143ZM23.2857 28.7857C22.1039 28.7857 21.1429 27.8247 21.1429 26.6429C21.1429 25.461 22.1039 24.5 23.2857 24.5C24.4675 24.5 25.4286 25.461 25.4286 26.6429C25.4286 27.8247 24.4675 28.7857 23.2857 28.7857Z" fill="#151419"/>
</svg>
