<svg width="64" height="64" viewBox="0 0 64 64" fill="none" xmlns="http://www.w3.org/2000/svg">
<rect width="64" height="64" rx="32" fill="white"/>
<path d="M40.6452 48.0224C40.6452 48.3132 40.4079 48.5473 40.1204 48.5473H23.8796C23.5888 48.5473 23.3548 48.3099 23.3548 48.0224C23.3548 47.7349 23.5888 47.4975 23.8796 47.4975H27.4534L28.3326 44.7963H35.6707L36.5499 47.4975H40.1237C40.4079 47.4942 40.6452 47.7315 40.6452 48.0224ZM44.9578 18.7838H36.8842L38.6962 20.5957C39.0372 20.9401 39.1442 21.4582 38.957 21.9062C38.7697 22.3575 38.3351 22.6517 37.8437 22.6517H35.6306V27.6129C39.9799 29.0337 43.2027 32.9417 43.6239 37.6521H48V21.826C48 20.1511 46.6327 18.7838 44.9578 18.7838ZM28.3728 27.6129V22.6484H26.1596C25.6715 22.6484 25.2336 22.3542 25.0464 21.9029C24.8625 21.4549 24.9628 20.9367 25.3071 20.5924L27.1191 18.7804H19.0422C17.3707 18.7804 16.0033 20.1478 16.0033 21.8193V37.6455H20.3794C20.8007 32.9384 24.0234 29.0337 28.3728 27.6129ZM16 38.7052H47.9967V40.7044C47.9967 42.3759 46.6293 43.7432 44.9578 43.7432H19.0422C17.3707 43.7432 16.0033 42.3759 16.0033 40.7044V38.7052H16ZM30.8934 41.2226C30.8934 41.831 31.3916 42.3291 32 42.3291C32.6084 42.3291 33.1066 41.831 33.1066 41.2226C33.1066 40.6108 32.6084 40.116 32 40.116C31.3916 40.116 30.8934 40.6141 30.8934 41.2226ZM26.0159 21.505C26.0393 21.5652 26.0961 21.5987 26.1563 21.5987H29.2687C29.3523 21.5987 29.4225 21.6689 29.4225 21.7524V27.322C30.2516 27.1348 31.1141 27.0345 32 27.0345C32.8859 27.0345 33.7484 27.1348 34.5775 27.322V21.7524C34.5775 21.6689 34.6444 21.5987 34.728 21.5987H37.8404C37.9039 21.5987 37.9574 21.5652 37.9808 21.505C38.0042 21.4449 37.9908 21.3847 37.9473 21.3379L32.1103 15.4975C32.0501 15.4373 31.9532 15.4373 31.893 15.4975L26.0493 21.3379C26.0059 21.3847 25.9925 21.4449 26.0159 21.505ZM32.5249 28.6793V33.383C33.6949 33.3563 34.8082 33.2326 35.8412 33.032C35.654 32.4503 35.44 31.9154 35.2027 31.424C34.4739 29.9396 33.5412 28.9367 32.5249 28.6793ZM32.5249 37.6521H36.6402C36.5767 36.3617 36.3995 35.1448 36.1287 34.0416C35.0088 34.2656 33.7952 34.406 32.5249 34.4328V37.6521ZM34.066 28.2882C34.8617 28.8765 35.5671 29.7959 36.1387 30.966C36.4129 31.5209 36.6569 32.1361 36.8642 32.798C38.0276 32.4938 39.0572 32.0859 39.8863 31.5978C38.3853 29.9296 36.3594 28.7395 34.066 28.2882ZM42.5675 37.6521C42.3769 35.7031 41.6582 33.9112 40.5583 32.4169C40.5416 32.4302 40.5249 32.4403 40.5081 32.4503C39.5821 33.0053 38.4421 33.4699 37.1517 33.8076C37.4425 34.9844 37.6331 36.2815 37.6966 37.6521H42.5675ZM31.4751 28.6793C30.4588 28.9401 29.5261 29.943 28.8007 31.4273C28.5633 31.9154 28.346 32.4536 28.1621 33.0353C29.1918 33.2359 30.3084 33.3596 31.4751 33.3864V28.6793ZM31.4751 34.4361C30.2081 34.406 28.9946 34.2689 27.8713 34.045C27.6005 35.1448 27.4233 36.3651 27.3598 37.6555H31.4751V34.4361ZM27.8613 30.966C28.4329 29.7959 29.1383 28.8765 29.934 28.2882C27.6406 28.7395 25.6147 29.9296 24.1103 31.5978C24.9427 32.0859 25.9691 32.4938 27.1358 32.798C27.3464 32.1361 27.5871 31.5209 27.8613 30.966ZM23.445 32.4169C22.3452 33.9112 21.6264 35.7065 21.4359 37.6521H26.3101C26.3736 36.2848 26.5641 34.9877 26.855 33.8076C25.5646 33.4699 24.4246 33.0053 23.4985 32.4503C23.4785 32.4403 23.4618 32.4269 23.445 32.4169Z" fill="#151419"/>
</svg>
