<svg width="92" height="61" viewBox="0 0 92 61" fill="none" xmlns="http://www.w3.org/2000/svg">
<path d="M33.7382 7.6752C23.3083 9.87802 11.816 15.8237 5.16501 24.9602C-1.16869 33.6363 -0.990799 45.1094 7.36349 52.4662C15.4516 59.5751 27.5499 60.343 37.3304 60.2918C47.6196 60.2292 58.0793 58.8345 67.7854 55.3001C76.2362 52.2291 85.9379 47.3438 90.0907 38.1946C92.9523 31.8551 91.4919 24.7431 87.8344 19.028C78.3687 4.24845 58.7449 -1.76599 43.2955 0.653705C32.738 2.30093 23.5791 8.57032 17.2222 17.689C16.6196 18.5544 17.949 19.4646 18.5163 18.6116C30.9531 0.793963 52.9594 -2.17661 71.3723 6.9715C78.4201 10.4794 85.4138 16.175 88.6978 24.0515C92.0234 32.0303 88.7422 39.6697 83.0751 44.854C74.785 52.434 63.2606 55.7388 52.6642 57.3601C41.6057 59.0667 29.7504 59.5668 18.762 56.4473C13.8186 55.0456 8.96501 52.589 5.54704 48.2945C1.44771 43.1192 1.19546 36.0807 3.83972 30.2403C8.97279 18.8425 22.6657 11.9249 33.6018 9.43385L34.1128 9.32244C35.0905 9.12114 34.716 7.46913 33.7382 7.6752Z" fill="#F26722"/>
</svg>
